<svg width="39" height="229" viewBox="0 0 39 229" fill="none" xmlns="http://www.w3.org/2000/svg">
<rect width="39" height="229" rx="19.5" fill="url(#paint0_linear_1_17363)"/>
<path d="M18.9902 50V29.5039H18.8848L12.416 33.8984V29.1875L18.9727 24.6348H24.2461V50H18.9902Z" fill="#4A6D6D"/>
<path d="M10.4297 127V123.361L19.3945 114.977C22.6641 111.918 23.3496 110.67 23.3496 108.912V108.877C23.332 106.803 21.75 105.326 19.5 105.326C16.8984 105.326 15.1406 107.031 15.0703 109.316L15.0527 109.475H10.1309V109.334C10.1309 104.553 14.1035 101.195 19.4648 101.195C24.8262 101.195 28.5176 104.254 28.5176 108.578V108.613C28.5176 111.689 27.0586 113.693 22.6816 117.719L17.373 122.57V122.781H28.8691V127H10.4297Z" fill="#4A6D6D"/>
<path d="M19.3945 204.439C13.6465 204.439 9.88477 201.416 9.5332 197.039L9.51562 196.811H14.5781L14.6133 197.004C14.8418 198.814 16.6348 200.168 19.377 200.168C22.1016 200.168 23.8594 198.709 23.8594 196.635V196.6C23.8594 194.174 22.0488 192.838 18.9902 192.838H16.0898V189.059H18.9199C21.5742 189.059 23.2969 187.652 23.2969 185.596V185.561C23.2969 183.504 21.8379 182.273 19.3418 182.273C16.8633 182.273 15.1758 183.557 14.9648 185.525L14.9473 185.684H10.0781L10.0957 185.473C10.4473 181.078 14.0156 178.195 19.3418 178.195C24.8086 178.195 28.3242 180.867 28.3242 184.857V184.893C28.3242 188.057 26.0039 190.113 23.0332 190.729V190.834C26.7949 191.186 29.2559 193.365 29.2559 196.811V196.846C29.2559 201.381 25.3184 204.439 19.3945 204.439Z" fill="#4A6D6D"/>
<defs>
<linearGradient id="paint0_linear_1_17363" x1="19.5" y1="0" x2="19.5" y2="229" gradientUnits="userSpaceOnUse">
<stop stop-color="white" stop-opacity="0.85"/>
<stop offset="1" stop-color="white" stop-opacity="0"/>
</linearGradient>
</defs>
</svg>
