<svg width="32" height="32" viewBox="0 0 32 32" fill="none" xmlns="http://www.w3.org/2000/svg">
<path d="M5.67188 11.0967H26.3291V7.70215C26.3291 6.34863 25.459 5.45703 24.1592 5.45703H7.83105C6.54199 5.45703 5.67188 6.34863 5.67188 7.70215V11.0967ZM10.0762 9.61426C9.46387 9.61426 8.95898 9.13086 8.95898 8.5293C8.95898 7.91699 9.46387 7.43359 10.0762 7.43359C10.667 7.43359 11.1719 7.91699 11.1719 8.5293C11.1719 9.13086 10.667 9.61426 10.0762 9.61426ZM14.0186 9.61426C13.4062 9.61426 12.9014 9.13086 12.9014 8.5293C12.9014 7.91699 13.4062 7.43359 14.0186 7.43359C14.6094 7.43359 15.1143 7.91699 15.1143 8.5293C15.1143 9.13086 14.6094 9.61426 14.0186 9.61426ZM17.9502 9.61426C17.3486 9.61426 16.8438 9.13086 16.8438 8.5293C16.8438 7.91699 17.3486 7.43359 17.9502 7.43359C18.5518 7.43359 19.0566 7.91699 19.0566 8.5293C19.0566 9.13086 18.5518 9.61426 17.9502 9.61426ZM21.8926 9.61426C21.3018 9.61426 20.7969 9.13086 20.7969 8.5293C20.7969 7.91699 21.3018 7.43359 21.8926 7.43359C22.5049 7.43359 23.0098 7.91699 23.0098 8.5293C23.0098 9.13086 22.5049 9.61426 21.8926 9.61426ZM7.83105 24.6104H7.87402V25.6846C7.87402 26.2002 8.22852 26.5439 8.74414 26.5439C9.25977 26.5439 9.60352 26.2002 9.60352 25.6846V24.6104H22.3867V25.6846C22.3867 26.2002 22.7412 26.5439 23.2568 26.5439C23.7725 26.5439 24.1162 26.2002 24.1162 25.6846V24.6104H24.1592C25.459 24.6104 26.3291 23.7188 26.3291 22.3652V12.2891H5.67188V22.3652C5.67188 23.7188 6.54199 24.6104 7.83105 24.6104ZM9.45312 21.9463C8.83008 21.9463 8.42188 21.5381 8.42188 20.915V15.2109C8.42188 14.5771 8.83008 14.1689 9.45312 14.1689H22.5479C23.1709 14.1689 23.5898 14.5771 23.5898 15.2109V20.915C23.5898 21.5381 23.1709 21.9463 22.5479 21.9463H9.45312ZM9.89355 20.7539H22.1182C22.2686 20.7539 22.3975 20.625 22.3975 20.4639V15.6621C22.3975 15.4902 22.2686 15.3613 22.1182 15.3613H9.89355C9.73242 15.3613 9.61426 15.4902 9.61426 15.6621V20.4639C9.61426 20.625 9.73242 20.7539 9.89355 20.7539Z" fill="#045C5C"/>
</svg>
