<svg width="32" height="32" viewBox="0 0 32 32" fill="none" xmlns="http://www.w3.org/2000/svg">
<g clip-path="url(#clip0_807_40409)">
<path d="M16 32C24.8366 32 32 24.8366 32 16C32 7.16344 24.8366 0 16 0C7.16344 0 0 7.16344 0 16C0 24.8366 7.16344 32 16 32Z" fill="#58B368"/>
<path d="M14.1211 24C14.601 24 14.9632 23.7971 15.2258 23.4006L23.7374 9.88127C23.9276 9.58617 24 9.32795 24 9.07896C24 8.44265 23.5654 8 22.9315 8C22.4878 8 22.2252 8.15677 21.9536 8.5902L14.0849 21.3164L10.0283 16.0138C9.7657 15.6542 9.49406 15.5066 9.09564 15.5066C8.4618 15.5066 8 15.9677 8 16.604C8 16.8807 8.0996 17.1481 8.32598 17.434L13.0164 23.4098C13.3333 23.8063 13.6684 24 14.1211 24Z" fill="white"/>
</g>
<defs>
<clipPath id="clip0_807_40409">
<rect width="32" height="32" fill="white"/>
</clipPath>
</defs>
</svg>
