<svg width="40" height="40" viewBox="0 0 40 40" fill="none" xmlns="http://www.w3.org/2000/svg">
<path d="M10.293 27.7451C10.293 30.0439 11.4961 31.2363 13.8164 31.2363H26.4492C28.501 31.2363 29.7041 30.0332 29.7041 27.7451V16.6377C29.7041 14.3389 28.4902 13.1465 26.1807 13.1465H24.6445C24.5908 10.751 22.5498 8.76367 19.9932 8.76367C17.4473 8.76367 15.3955 10.751 15.3525 13.1465H13.8164C11.4961 13.1465 10.293 14.3389 10.293 16.6377V27.7451ZM17.3828 13.1465C17.4258 11.75 18.5215 10.6328 19.9932 10.6328C21.4756 10.6328 22.5713 11.75 22.6143 13.1465H17.3828ZM12.3984 27.5625V16.8203C12.3984 15.7676 12.9463 15.252 13.9453 15.252H26.0518C27.04 15.252 27.5986 15.7676 27.5986 16.8203V27.5625C27.5986 28.6045 27.04 29.1309 26.3203 29.1309H13.9453C12.9463 29.1309 12.3984 28.6045 12.3984 27.5625Z" fill="#537979"/>
<path d="M17.8252 25.29C17.6523 25.29 17.5132 25.2432 17.4077 25.1494C17.3052 25.0557 17.2539 24.9282 17.2539 24.7671C17.2539 24.6646 17.2788 24.5488 17.3286 24.4199L19.1699 19.4146C19.2461 19.2036 19.3501 19.0483 19.4819 18.9487C19.6167 18.8491 19.7866 18.7993 19.9917 18.7993C20.1997 18.7993 20.3696 18.8477 20.5015 18.9443C20.6362 19.041 20.7432 19.1963 20.8223 19.4102L22.668 24.4199C22.7178 24.5576 22.7427 24.6733 22.7427 24.7671C22.7427 24.9194 22.6885 25.0454 22.5801 25.145C22.4746 25.2417 22.3398 25.29 22.1758 25.29C22.0205 25.29 21.8975 25.2534 21.8066 25.1802C21.7158 25.104 21.6455 24.981 21.5957 24.811L21.1782 23.5981H18.8096L18.3921 24.8022C18.3394 24.9751 18.2676 25.0996 18.1768 25.1758C18.0889 25.252 17.9717 25.29 17.8252 25.29ZM19.0776 22.7017H20.9014L20.0005 19.9946H19.9697L19.0776 22.7017Z" fill="#537979"/>
</svg>
