<svg width="339" height="213" viewBox="0 0 339 213" fill="none" xmlns="http://www.w3.org/2000/svg">
<g clip-path="url(#clip0_414_40778)">
<g clip-path="url(#clip1_414_40778)">
<path opacity="0.59" d="M207.538 96.3886C207.988 84.6958 208.421 72.8069 205.507 61.4754C202.359 49.2356 195.496 38.3478 189.169 27.4084C188.767 26.71 188.351 25.9704 188.341 25.1655C188.32 23.8238 189.392 22.7437 190.413 21.8733C193.547 19.2176 197.004 16.9437 200.682 15.1136C198.503 13.3557 196.156 11.8077 193.688 10.4901C191.64 5.40228 184.674 3.05615 179.969 5.86669C177.481 1.09187 169.597 0.630904 166.566 5.07891C165.174 4.7521 163.717 4.4253 162.325 4.7693C160.937 5.10987 159.651 6.34485 159.768 7.77248C159.837 8.62906 160.373 9.36867 160.868 10.0704C163.672 14.0575 165.717 18.5777 166.865 23.3181C162.555 23.1702 158.411 24.8318 154.459 26.5552C129.46 37.4671 105.297 53.0954 91.3618 76.5635C80.9384 94.1181 76.9966 114.79 75.4707 135.155C109.947 136.699 138.509 165.125 172.893 168.073C180.79 168.75 189.286 167.853 195.568 163.012C197.166 161.781 198.613 160.277 199.455 158.444C201.548 153.879 199.606 148.829 199.245 144.126C198.843 138.928 201.228 135.237 202.871 130.476C206.637 119.554 207.101 107.83 207.545 96.3886H207.538Z" fill="#B2C1DB"/>
<path d="M93.5681 110.224C91.6436 93.6778 102.235 77.2033 118.697 70.2303C120.577 69.4322 122.68 68.954 124.883 68.7442C125.477 66.4325 126.646 62.2081 128.165 58.2864C131.811 48.8744 144.678 36.2012 162.982 36.8892C183.045 37.6425 201.981 58.8643 199.084 86.66C197.063 106.062 162.958 143.844 140.64 146.49C118.601 149.101 96.0322 131.398 93.5715 110.231L93.5681 110.224ZM184.333 83.7876C184.801 66.2914 171.858 53.2157 158.82 52.4348C149.482 51.8741 144.427 56.0469 142.265 61.0728C140.898 64.2515 140.764 68.0871 140.375 70.1443C143.406 70.9974 146.795 72.4354 150.517 74.7196C156.62 78.4658 160.469 85.5283 161.847 93.9392C165.473 93.6365 169.109 92.7765 172.36 91.28C176.958 89.1678 181.1 86.3367 184.333 83.791V83.7876ZM166.253 118.24C172.508 112.368 176.917 106.471 179.814 100.747C177.749 101.896 175.917 102.863 174.769 103.372C170.597 105.216 166.291 106.489 162.05 107.197C161.603 110.892 160.748 114.645 159.466 118.336C158.913 119.929 157.748 123.307 156.328 126.362C159.583 124.449 162.82 121.463 166.253 118.24V118.24ZM139.647 131.075C142.183 127.449 145.211 122.45 147.225 116.912C148.297 113.96 148.86 110.758 148.991 107.555C141.217 106.588 134.554 103.386 130.608 97.9847C126.952 92.9794 125.367 87.5648 124.931 82.4528C123.556 83.0548 122.082 83.822 120.515 84.7646C105.627 93.75 105.064 110.507 113.291 119.674C117.319 124.164 126.924 131.632 139.65 131.075H139.647Z" fill="#F7A037"/>
<path d="M162.982 36.8857C181.375 37.5737 198.819 55.4724 199.362 79.8659C196.186 79.4772 192.289 75.5142 191.289 73.3126C188.959 68.18 188.347 63.8214 183.495 59.9858C175.467 53.6388 169.284 42.868 157.504 45.1316C152.091 46.1739 148.159 47.519 144.31 51.5301C142.753 53.1504 141.124 54.6296 140.148 56.5491C139.107 58.5994 138.877 61.0832 137.499 63.0234C134.987 66.5529 129.753 65.8029 126.721 62.8066C126.687 62.7722 126.653 62.7344 126.615 62.7C127.072 61.262 127.594 59.7518 128.161 58.2864C131.808 48.8744 144.675 36.2012 162.978 36.8892L162.982 36.8857Z" fill="#F5892F"/>
<path d="M93.5681 110.224C91.6436 93.6777 102.235 77.2033 118.697 70.2302C120.522 69.4562 122.553 68.9884 124.684 68.7648C124.57 72.0535 119.91 77.936 118.374 78.9302C116.054 80.4335 113.82 80.9632 111.995 83.2268C110.37 85.2461 109.387 87.661 107.706 89.6494C102.868 95.3771 98.8399 104.063 101.826 111.81C103.806 116.939 108.981 120.259 112.803 123.851C116.154 126.998 117.133 132.162 122.195 132.54C126.371 132.853 129.739 132.072 133.619 134.46C136.805 136.421 138.884 140.435 135.031 143.366C133.244 144.725 129.254 144.577 127.106 145.007C126.591 145.11 126.082 145.193 125.577 145.262C109.267 140.758 95.4582 126.52 93.5612 110.228L93.5681 110.224Z" fill="#F5892F"/>
<path d="M123.281 69.6283C126.185 69.0985 127.924 69.0434 130.859 70.0892C133.993 71.2038 137.145 71.0834 140.427 71.6545C146.771 72.7587 152.146 76.7389 155.61 82.126C157.112 84.4653 159.61 87.9741 159.49 90.8638C159.39 93.2718 156.864 95.2671 154.387 95.9172C151.496 96.6775 148.335 94.8439 146.919 92.6801C144.41 88.841 142.657 85.081 139.324 81.8027C136.351 78.8786 133.571 77.9119 129.464 78.8339C126.381 79.5288 124.388 80.3647 121.312 79.7661C118.377 79.1951 115.119 81.7511 112.535 80.0998C109.002 77.8431 113.745 74.1588 115.686 72.8482L123.285 69.6283H123.281Z" fill="#F5892F"/>
<path d="M134.289 96.7635C132.117 94.6238 130.488 92.0369 129.347 89.1885C128.213 86.3608 128.127 84.4688 129.014 81.9128L129.258 81.3968C132.633 79.5735 135.22 82.3669 137.592 84.6511C140.602 87.551 142.575 90.8845 145.345 93.867C147.537 96.2303 149.393 98.4182 152.593 99.2817C155.558 100.083 159.005 99.5294 161.944 98.8069C165.054 98.0433 167.807 96.0515 170.669 94.6685C173.814 93.1515 176.769 91.2594 179.89 89.7527C180.845 89.2917 183.32 88.1496 184.32 88.9924C185.01 89.5704 184.722 92.3431 184.492 93.179C183.574 96.5159 177.962 97.3965 174.972 98.1327C171.326 99.034 168.102 100.974 164.36 101.635C160.184 102.371 155.737 103.537 151.51 104.056C148.747 104.397 144.54 103.19 141.894 102.151C139.001 101.015 136.512 98.9617 134.282 96.7635H134.289Z" fill="#F5892F"/>
<path d="M140.021 134.608C138.952 133.245 139.262 132.839 139.832 131.422C141.891 126.286 145.159 121.934 147.238 116.726C148.166 114.401 147.936 111.088 149.087 108.986C150.544 106.323 154.943 105.818 157.232 107.297C157.579 107.521 158.397 108.418 158.404 108.425L158.535 108.549C160.246 111.759 156.961 115.35 155.407 118.061C154.421 119.784 153.338 121.353 153.149 123.352C152.967 125.278 153.074 126.799 152.331 128.625C151.046 131.78 148.51 136.445 144.637 136.854C142.846 137.043 141.128 136.011 140.028 134.608H140.021Z" fill="#F5892F"/>
<path d="M161.902 130.597C163.5 127.181 167.147 124.9 170.009 122.66C173.587 119.864 176.804 117.528 179.725 113.916C184.567 107.927 187.519 100.995 190.001 93.7603C191.406 89.6666 191.468 85.9135 191.643 81.696C191.788 78.2628 193.764 75.2665 192.279 72.0948L192.643 71.1935C192.427 70.3438 193.069 69.7143 193.984 69.7762C194.963 69.845 196.156 71.5753 196.688 72.2668C197.894 73.8286 199.077 75.7412 199.757 77.592C200.692 80.1445 200.585 83.3369 200.286 85.9961C199.602 92.0575 197.028 97.4205 194.145 102.477C192.53 105.312 191.671 108.473 189.605 111.126C187.303 114.081 184.385 116.317 181.715 118.832C179.148 121.25 176.47 123.51 174.041 126.042C172.501 127.645 171.25 129.482 169.535 130.937C168.205 132.062 166.776 133.765 165.274 134.594C164.422 135.062 162.452 135.788 161.511 135.182C159.988 134.209 161.322 131.842 161.906 130.6L161.902 130.597Z" fill="#F5892F"/>
<path d="M154.823 78.4142C159.095 82.0194 161.978 87.4753 163.37 93.8532C162.851 93.9186 162.329 93.977 161.81 94.0218C160.792 87.8228 158.435 82.3599 154.823 78.4142Z" fill="#DB772C"/>
<path d="M133.956 101.428C137.877 104.738 143.145 106.767 149.06 107.503C149.039 108.026 149.005 108.549 148.96 109.069C142.86 107.968 137.578 105.415 133.952 101.428H133.956Z" fill="#DB772C"/>
<path d="M144.152 62.8857C143.015 65.5208 142.733 68.61 142.444 70.76C141.716 70.502 141.001 70.2749 140.307 70.0789C140.695 68.0217 140.829 64.186 142.197 61.0074C144.362 55.9849 149.414 51.8121 158.751 52.3694C164.855 52.7341 170.934 55.7923 175.628 60.7356C171.26 56.9 165.989 54.5642 160.703 54.2477C151.366 53.6904 146.31 57.8632 144.149 62.8857H144.152Z" fill="#DB772C"/>
<path d="M140.575 146.421C162.892 143.775 196.998 105.993 199.018 86.5912C200.675 70.6843 195.183 56.9344 186.42 47.9352C196.303 56.8312 202.75 71.4102 200.97 88.4695C198.95 107.871 164.844 145.654 142.527 148.299C129.371 149.857 116.03 144.178 106.885 134.845C115.917 143.05 128.326 147.873 140.575 146.421V146.421Z" fill="#DB772C"/>
<path d="M159.401 118.271C160.682 114.58 161.538 110.826 161.985 107.132C166.281 106.413 170.614 105.112 174.704 103.306C175.848 102.801 177.824 101.71 179.89 100.565C179.192 101.944 178.446 103.423 177.57 104.82C177.306 104.947 176.876 105.088 176.656 105.185C172.484 107.029 168.178 108.301 163.937 109.01C163.49 112.705 162.634 116.458 161.353 120.149C161.088 120.913 160.603 122.151 160.071 123.386C158.73 124.356 156.706 126.95 155.397 127.721C156.816 124.666 158.847 119.863 159.401 118.271V118.271Z" fill="#DB772C"/>
<path d="M113.229 119.612C105.002 110.445 105.565 93.6915 120.453 84.7026C122.017 83.7566 123.491 82.9929 124.869 82.3909C124.945 83.2646 125.055 84.1453 125.202 85.0328C124.305 85.4835 123.374 85.9995 122.408 86.5809C107.517 95.5663 106.957 112.323 115.185 121.491C115.356 121.683 115.542 121.883 115.734 122.086C114.748 121.212 113.91 120.369 113.229 119.612V119.612Z" fill="#DB772C"/>
<path d="M124.684 68.7648C124.684 68.7648 130.079 67.8944 133.402 68.2144C136.729 68.5309 141.808 70.4126 141.808 70.4126L142.424 69.2498C142.424 69.2498 139.973 67.4851 135.928 66.8865C130.23 66.0402 125.034 68.063 125.034 68.063L124.68 68.7682L124.684 68.7648Z" fill="#DB772C"/>
<path d="M133.471 81.1835C127.921 80.2719 123.931 82.9482 123.931 82.9482L125.202 85.0295C125.202 85.0295 127.106 84.2073 129.189 83.994C135.66 83.337 138.021 85.1808 139.523 86.7495C141.025 88.3182 143.063 91.4074 143.324 91.6585C143.585 91.9096 144.293 92.2158 144.293 92.2158C144.293 92.2158 142.241 88.614 140.74 86.9181C139.238 85.2221 138.22 81.9609 133.474 81.1835H133.471Z" fill="#DB772C"/>
<path d="M157.459 106.145C153.428 106.292 149.06 107.503 149.06 107.503L148.386 108.945C148.386 108.945 153.795 108.006 154.177 107.999C157.737 107.927 163.002 108.718 163.002 108.718L163.48 107.046C163.48 107.046 161.353 106 157.462 106.145H157.459Z" fill="#DB772C"/>
<path d="M162.308 93.0104C160.597 93.6193 156.679 95.6214 153.548 95.6146C147.802 95.6008 144.087 91.7754 144.087 91.7754L143.121 91.3489C143.121 91.3489 147.633 96.6913 152.483 96.595C159.129 96.4643 162.961 93.7672 162.961 93.7672L162.308 93.0139V93.0104Z" fill="#DB772C"/>
<path d="M175.872 104.18L179.196 101.112C180.038 99.9525 186.1 98.3529 189.073 93.695C191.458 89.9557 190.805 88.1462 190.464 86.636C190.001 84.5685 189.904 84.1901 190.946 85.0914C192.293 86.261 192.506 88.1255 192.289 89.9213C191.877 93.382 188.822 97.0835 186.677 99.3126C185.004 101.053 182.687 102.257 180.663 103.523C179.749 104.094 178.859 104.462 177.849 104.831C177.371 105.003 175.178 105.481 175.872 104.18V104.18Z" fill="#DB772C"/>
<path d="M138.623 132.64C139.265 131.546 139.186 132.585 139.227 133.349C139.269 134.068 139.774 134.811 140.224 135.437C140.599 135.956 141.812 136.72 142.365 136.992C146.743 139.155 149.912 136.888 152.252 133.345C153.276 131.794 155.332 127.659 156.442 125.591C157.136 124.294 157.239 125.282 157.62 123.844L157.981 122.815C158.363 122.702 160.153 120.431 160.181 122.643C160.191 123.455 159.737 124.666 159.256 125.295C158.376 126.448 153.074 135.254 152.122 136.479C150.005 139.204 146.139 140.624 143.802 139.503C138.014 136.73 138.241 133.283 138.619 132.64H138.623Z" fill="#DB772C"/>
<path opacity="0.2" d="M147.276 43.2464C148.19 42.3279 152.228 39.655 159.139 39.4486C161.27 39.3867 163.641 39.6137 165.752 39.999C171.243 41.0001 176.811 42.5756 180.962 46.5799C182.969 48.5132 185.66 51.2927 185.035 54.3441C184.474 57.0893 182.107 56.587 180.454 55.2832C177.972 53.3293 175.938 50.8421 173.144 49.2941C169.721 47.3986 166.439 45.4515 162.483 45.1797C159.555 44.9802 156.534 46.253 153.909 47.4536C151.888 48.379 149.469 49.5933 147.369 48.3584C145.125 47.0374 145.647 44.877 147.269 43.2464H147.276Z" fill="#FFF3AE"/>
<path opacity="0.2" d="M128.45 72.9377C129.251 72.518 132.701 72.7519 132.708 72.6797L133.052 72.8448C135.265 73.722 137.708 73.8527 140.042 74.3859C143.568 75.1909 147.035 77.1174 149.72 79.4841C150.737 80.382 154.816 85.2669 151.62 86.0718C149.802 86.5294 146.637 82.4047 145.475 81.2902C141.207 77.1862 136.399 75.4799 130.622 75.1978C129.416 75.1393 125.739 74.3584 128.447 72.9377H128.45Z" fill="#FFF3AE"/>
<path opacity="0.2" d="M173.573 93.2409C173.075 91.1872 177.567 89.5325 178.924 88.5658C180.869 87.1795 183.086 85.6831 184.777 84.1694H184.605C186.169 82.8932 188.392 84.4343 189.004 86.0236C189.842 88.1943 188.296 90.5886 186.365 91.5553C185.392 92.0437 184.138 92.2158 183.093 92.5666C181.849 92.9863 180.79 93.7087 179.587 94.2213C177.879 94.9472 174.202 95.8347 173.57 93.2375L173.573 93.2409Z" fill="#FFF3AE"/>
<path opacity="0.2" d="M142.052 132.145C140.767 130.294 142.881 127.948 143.812 126.475C146.183 122.739 148.957 119.262 150.702 115.092C151.125 114.081 151.929 111.054 153.221 111.171C155.081 111.339 154.008 114.958 152.95 114.71C150.988 116.341 150.345 120.459 150.019 122.801C149.596 125.811 149.754 129.241 147.582 131.605C146.231 133.073 143.523 134.26 142.056 132.145H142.052Z" fill="#FFF3AE"/>
<path d="M166.257 44.2991C165.82 44.7704 165.528 45.3277 165.212 45.8849C164.923 46.3906 164.129 45.9606 164.418 45.4549C164.776 44.8288 165.112 44.2062 165.604 43.673C165.999 43.2464 166.652 43.8725 166.253 44.2991H166.257Z" fill="#FFF3AE"/>
<path d="M161.394 43.6283C161.064 43.986 160.854 44.4367 160.524 44.7944C160.129 45.2244 159.48 44.5949 159.875 44.1683C160.205 43.8106 160.414 43.3599 160.744 43.0022C161.14 42.5722 161.789 43.2017 161.394 43.6283Z" fill="#FFF3AE"/>
<path d="M157.603 42.4277C156.947 42.4483 156.318 42.5653 155.679 42.7063C155.112 42.8302 154.861 41.9633 155.431 41.836C156.143 41.6778 156.854 41.5436 157.583 41.5229C158.167 41.5057 158.184 42.4105 157.6 42.4277H157.603Z" fill="#FFF3AE"/>
<path d="M158.016 47.144C157.614 47.5637 156.961 46.9376 157.366 46.5179C157.772 46.0982 158.421 46.7243 158.016 47.144Z" fill="#FFF3AE"/>
<path d="M157.473 47.2301C156.978 47.0099 156.428 46.9721 155.93 46.7484C155.397 46.5111 155.833 45.7164 156.359 45.9538C156.854 46.174 157.404 46.2118 157.902 46.4354C158.435 46.6728 157.998 47.4674 157.473 47.2301Z" fill="#FFF3AE"/>
<path d="M152.479 44.8254C152.077 45.2451 151.424 44.619 151.83 44.1993C152.232 43.7796 152.885 44.4057 152.479 44.8254Z" fill="#FFF3AE"/>
<path d="M152.479 44.8254C152.122 45.1969 151.788 45.5616 151.555 46.026C151.294 46.5489 150.5 46.1154 150.761 45.596C151.029 45.0628 151.421 44.6259 151.83 44.1993C152.232 43.7796 152.885 44.4057 152.479 44.8254V44.8254Z" fill="#FFF3AE"/>
<path d="M144.925 50.3468C144.523 50.7664 143.87 50.1404 144.276 49.7207C144.678 49.301 145.331 49.9271 144.925 50.3468Z" fill="#FFF3AE"/>
<path d="M145.039 50.1369C144.857 50.6942 144.582 51.2033 144.187 51.6368C143.791 52.0668 143.142 51.4373 143.537 51.0107C143.822 50.7011 144.032 50.3261 144.166 49.9236C144.345 49.3732 145.224 49.5831 145.042 50.1369H145.039Z" fill="#FFF3AE"/>
<path d="M146.513 53.1263C146.111 53.546 145.458 52.9199 145.864 52.5002C146.269 52.0805 146.919 52.7066 146.513 53.1263Z" fill="#FFF3AE"/>
<path d="M146.187 53.3775C145.503 53.5357 144.891 53.78 144.176 53.6733C143.599 53.5839 143.819 52.7067 144.389 52.7961C144.919 52.8752 145.437 52.6275 145.943 52.5106C146.506 52.3799 146.757 53.2467 146.19 53.3809L146.187 53.3775Z" fill="#FFF3AE"/>
<path d="M140.069 50.185C139.695 50.5772 139.32 50.9659 138.942 51.3581C138.54 51.7778 137.887 51.1517 138.293 50.732C138.667 50.3398 139.045 49.9511 139.42 49.5589C139.822 49.1392 140.475 49.7653 140.069 50.185Z" fill="#FFF3AE"/>
<path d="M135.347 57.1064C135.186 57.619 134.987 58.0765 134.619 58.4756C134.224 58.9056 133.574 58.2761 133.969 57.8495C134.227 57.5709 134.361 57.2509 134.471 56.8932C134.643 56.3393 135.523 56.5492 135.347 57.1064Z" fill="#FFF3AE"/>
<path d="M135.468 62.6759C135.89 63.0956 136.169 63.646 136 64.2515C135.842 64.8122 134.963 64.5989 135.124 64.0382C135.2 63.7664 135.083 63.5635 134.846 63.3261C134.433 62.9167 135.059 62.2631 135.471 62.6759H135.468Z" fill="#FFF3AE"/>
<path d="M182.505 52.8442C182.292 53.4806 181.89 54.0861 181.302 54.4232C180.797 54.7121 180.337 53.9381 180.842 53.6457C181.213 53.4324 181.495 53.0368 181.629 52.6309C181.811 52.0805 182.691 52.2903 182.505 52.8442V52.8442Z" fill="#FFF3AE"/>
<path d="M177.354 54.0379C176.989 54.1686 176.615 54.3131 176.223 54.3303C175.639 54.3578 175.625 53.4565 176.206 53.4256C176.481 53.4118 176.821 53.2673 177.106 53.1675C177.336 53.085 177.601 53.2535 177.663 53.4806C177.732 53.7283 177.584 53.9553 177.35 54.0379H177.354Z" fill="#FFF3AE"/>
<path d="M176.549 49.7894C175.951 49.4488 175.34 49.1427 174.742 48.8021C174.237 48.5131 174.666 47.7185 175.171 48.0074C175.769 48.348 176.381 48.6542 176.979 48.9947C177.484 49.2837 177.055 50.0784 176.549 49.7894Z" fill="#FFF3AE"/>
<path d="M171.315 48.1589C170.913 48.5786 170.26 47.9525 170.666 47.5328C171.068 47.1131 171.721 47.7392 171.315 48.1589Z" fill="#FFF3AE"/>
<path d="M171.065 48.4202C170.69 48.8124 170.315 49.2011 169.937 49.5933C169.535 50.013 168.882 49.3869 169.288 48.9672C169.662 48.575 170.037 48.1863 170.415 47.7942C170.817 47.3745 171.47 48.0006 171.065 48.4202Z" fill="#FFF3AE"/>
<path d="M171.274 52.6343C171.106 52.8098 170.941 52.9818 170.772 53.1572C170.601 53.3361 170.312 53.3395 170.133 53.171C169.955 52.999 169.951 52.71 170.119 52.5311C170.288 52.3557 170.453 52.1837 170.621 52.0082C170.793 51.8293 171.082 51.8259 171.26 51.9945C171.439 52.1665 171.443 52.4554 171.274 52.6343Z" fill="#FFF3AE"/>
<path d="M191.557 65.9818C191.203 65.8098 190.877 65.5346 190.506 65.4073C190.272 65.3281 190.11 65.1183 190.172 64.8637C190.227 64.6401 190.485 64.4509 190.719 64.53C191.176 64.6849 191.557 64.9773 191.99 65.1871C192.516 65.4451 192.08 66.2363 191.561 65.9818H191.557Z" fill="#FFF3AE"/>
<path d="M189.234 61.5544C188.832 61.7746 188.512 62.0704 188.196 62.3972C187.794 62.8169 187.141 62.1908 187.547 61.7711C187.914 61.3893 188.306 61.035 188.774 60.777C189.282 60.4983 189.746 61.2723 189.234 61.5544Z" fill="#FFF3AE"/>
<path d="M185.488 67.5608C185.468 67.5814 185.447 67.6055 185.426 67.6261C185.406 67.6502 185.327 67.7603 185.406 67.6468C185.389 67.6743 185.344 67.7947 185.382 67.6812C185.375 67.7052 185.371 67.7259 185.368 67.75C185.375 67.6984 185.375 67.6984 185.371 67.75C185.371 67.9976 185.179 68.204 184.928 68.2109C184.687 68.2144 184.467 68.0148 184.467 67.7672C184.467 67.43 184.608 67.1686 184.839 66.9278C185.01 66.7489 185.299 66.7455 185.478 66.914C185.657 67.086 185.66 67.375 185.492 67.5539L185.488 67.5608Z" fill="#FFF3AE"/>
<path d="M189.09 75.7482C189.214 76.075 189.509 76.3158 189.753 76.5532C190.172 76.9556 189.547 77.6093 189.128 77.2033C188.753 76.8421 188.409 76.4878 188.22 75.9924C188.131 75.7619 188.31 75.4971 188.533 75.4351C188.784 75.3629 189.004 75.5177 189.09 75.7482V75.7482Z" fill="#FFF3AE"/>
<path d="M193.88 78.6413C193.86 78.662 193.839 78.686 193.819 78.7067C193.798 78.7308 193.719 78.8408 193.798 78.7273C193.781 78.7548 193.736 78.8752 193.774 78.7617C193.767 78.7858 193.764 78.8064 193.76 78.8305C193.767 78.7789 193.767 78.7789 193.764 78.8305C193.764 79.0782 193.571 79.288 193.32 79.2915C193.08 79.2949 192.86 79.0954 192.86 78.8477C192.86 78.5106 193.001 78.2491 193.231 78.0083C193.403 77.8295 193.691 77.826 193.87 77.9946C194.049 78.1666 194.052 78.4556 193.884 78.6344L193.88 78.6413Z" fill="#FFF3AE"/>
<path d="M149.534 86.9284C149.152 87.0625 148.774 87.2001 148.393 87.3343C148.163 87.4169 147.898 87.2483 147.836 87.0213C147.768 86.7736 147.915 86.5465 148.149 86.464C148.53 86.3298 148.908 86.1922 149.29 86.058C149.52 85.9755 149.785 86.144 149.847 86.3711C149.915 86.6188 149.768 86.8458 149.534 86.9284Z" fill="#FFF3AE"/>
<path d="M149.713 79.2639C149.311 79.6836 148.658 79.0575 149.063 78.6378C149.465 78.2181 150.118 78.8442 149.713 79.2639Z" fill="#FFF3AE"/>
<path d="M149.702 79.1882C149.52 79.7455 149.245 80.2546 148.85 80.6881C148.455 81.1181 147.805 80.4885 148.201 80.062C148.486 79.7524 148.695 79.3774 148.826 78.9749C149.005 78.4245 149.885 78.6343 149.702 79.1882V79.1882Z" fill="#FFF3AE"/>
<path d="M145.262 80.2478C144.881 80.6296 144.341 80.7982 143.815 80.6503C143.578 80.5849 143.424 80.351 143.482 80.1067C143.537 79.8728 143.791 79.7077 144.028 79.7731C144.276 79.8419 144.455 79.7834 144.613 79.6251C145.025 79.2158 145.678 79.8384 145.262 80.2512V80.2478Z" fill="#FFF3AE"/>
<path d="M142.764 76.591C142.362 77.0107 141.709 76.3846 142.114 75.9649C142.516 75.5452 143.169 76.1713 142.764 76.591Z" fill="#FFF3AE"/>
<path d="M142.764 76.591C142.461 76.8938 142.104 76.9935 141.688 77.0004C141.104 77.0107 141.087 76.1094 141.671 76.0957C141.719 76.0957 141.767 76.0957 141.815 76.0922C141.839 76.0922 141.863 76.0922 141.887 76.0853C142.008 76.075 141.798 76.106 141.918 76.0785C141.942 76.0716 141.966 76.0647 141.991 76.0578C141.942 76.0819 141.942 76.0785 141.991 76.0578C142.015 76.0441 142.039 76.0303 142.063 76.0131C141.987 76.0613 142.104 75.9718 142.111 75.9649C142.286 75.7929 142.568 75.7792 142.75 75.9512C142.925 76.1198 142.939 76.4156 142.764 76.591V76.591Z" fill="#FFF3AE"/>
<path d="M134.719 72.69C134.048 73.6669 133.371 74.5958 132.43 75.3354C131.973 75.6931 131.516 74.9122 131.969 74.5579C132.77 73.9284 133.354 73.0924 133.925 72.26C134.251 71.7852 135.048 72.2118 134.719 72.69Z" fill="#FFF3AE"/>
<path d="M125.106 77.1861C124.512 77.0829 123.907 77.0691 123.316 76.9659C122.742 76.8662 122.958 75.9889 123.529 76.0887C124.123 76.1885 124.725 76.2091 125.319 76.3089C125.893 76.4086 125.677 77.2858 125.106 77.1861Z" fill="#FFF3AE"/>
<path d="M123.732 73.636C123.237 73.7495 122.769 73.8974 122.319 74.1313C121.804 74.3962 121.34 73.6222 121.859 73.3539C122.381 73.0856 122.917 72.8964 123.488 72.7656C124.051 72.6384 124.302 73.5053 123.735 73.636H123.732Z" fill="#FFF3AE"/>
<path d="M115.15 81.7923C115.027 82.1569 114.783 82.4631 114.659 82.8243C114.58 83.0582 114.37 83.2199 114.112 83.158C113.889 83.103 113.7 82.845 113.779 82.6145C113.903 82.2498 114.147 81.9437 114.27 81.5825C114.35 81.3485 114.559 81.1868 114.813 81.2488C115.037 81.3038 115.226 81.5618 115.147 81.7923H115.15Z" fill="#FFF3AE"/>
<path d="M111.683 80.2753C111.391 80.5781 111.098 80.8842 110.806 81.187C110.404 81.6067 109.751 80.9806 110.157 80.5609C110.449 80.2581 110.741 79.952 111.033 79.6493C111.435 79.2296 112.088 79.8557 111.683 80.2753Z" fill="#FFF3AE"/>
<path d="M104.638 91.8546C104.644 92.5805 104.545 93.3029 104.552 94.0287C104.559 94.6101 103.655 94.6307 103.648 94.0459C103.641 93.3201 103.741 92.5977 103.734 91.8718C103.727 91.2904 104.631 91.2698 104.638 91.8546Z" fill="#FFF3AE"/>
<path d="M109.009 89.7768C108.981 89.7665 108.954 89.7596 108.923 89.7527C108.913 89.7527 108.779 89.7355 108.868 89.7424C108.827 89.7424 108.786 89.7424 108.748 89.7424C108.621 89.7458 108.83 89.7217 108.71 89.7424C108.676 89.7493 108.641 89.7596 108.607 89.7699C108.583 89.7768 108.48 89.8215 108.597 89.7699C108.573 89.7802 108.548 89.7974 108.524 89.8112C108.445 89.8593 108.607 89.7355 108.548 89.794C108.373 89.966 108.091 89.9832 107.909 89.8078C107.737 89.6426 107.72 89.3399 107.895 89.1679C108.232 88.8411 108.779 88.7689 109.219 88.8961C109.456 88.9649 109.61 89.1954 109.552 89.4431C109.497 89.6736 109.243 89.8456 109.009 89.7768V89.7768Z" fill="#FFF3AE"/>
<path d="M106.483 86.9696C106.074 87.1898 105.765 87.4787 105.445 87.8124C105.043 88.2321 104.39 87.606 104.796 87.1863C105.167 86.8011 105.548 86.4502 106.023 86.1922C106.531 85.917 106.999 86.691 106.483 86.9696V86.9696Z" fill="#FFF3AE"/>
<path d="M98.4722 103.595C98.2454 104.325 98.0254 105.068 97.7058 105.763C97.4618 106.292 96.6714 105.859 96.912 105.333C97.2006 104.707 97.3897 104.039 97.5959 103.382C97.7677 102.828 98.6475 103.038 98.4722 103.595Z" fill="#FFF3AE"/>
<path d="M103.029 107.545C102.655 107.937 102.28 108.326 101.902 108.718C101.5 109.137 100.847 108.511 101.252 108.092C101.627 107.699 102.002 107.311 102.38 106.919C102.782 106.499 103.435 107.125 103.029 107.545Z" fill="#FFF3AE"/>
<path d="M110.961 121.191C110.628 121.539 110.294 121.886 109.961 122.234C109.559 122.654 108.906 122.027 109.311 121.608C109.645 121.26 109.978 120.913 110.311 120.565C110.714 120.146 111.367 120.772 110.961 121.191Z" fill="#FFF3AE"/>
<path d="M102.971 117.975C103.153 118.477 103.376 118.945 103.4 119.489C103.428 120.073 102.524 120.087 102.497 119.506C102.476 119.052 102.256 118.642 102.101 118.223C101.902 117.676 102.771 117.431 102.971 117.975V117.975Z" fill="#FFF3AE"/>
<path d="M110.184 130.93C111.081 131.04 111.975 131.15 112.872 131.26C113.449 131.333 113.229 132.21 112.659 132.138C111.762 132.028 110.868 131.918 109.971 131.807C109.394 131.735 109.614 130.858 110.184 130.93Z" fill="#FFF3AE"/>
<path d="M113.061 127.934C113.69 128.054 114.267 128.309 114.841 128.581C115.367 128.832 114.934 129.623 114.411 129.375C113.903 129.134 113.404 128.918 112.848 128.811C112.274 128.701 112.49 127.82 113.061 127.934Z" fill="#FFF3AE"/>
<path d="M122.525 131.123C122.536 131.57 122.543 132.021 122.749 132.43C123.006 132.946 122.233 133.414 121.972 132.891C121.694 132.334 121.635 131.756 121.622 131.14C121.611 130.555 122.512 130.538 122.525 131.123Z" fill="#FFF3AE"/>
<path d="M126.065 136.434C126.199 136.816 126.337 137.195 126.471 137.576C126.553 137.807 126.385 138.072 126.158 138.134C125.91 138.203 125.684 138.055 125.601 137.821C125.467 137.439 125.33 137.06 125.196 136.679C125.113 136.448 125.282 136.183 125.508 136.121C125.756 136.053 125.983 136.2 126.065 136.434Z" fill="#FFF3AE"/>
<path d="M156.576 113.757C155.943 113.988 155.359 114.287 154.785 114.645C154.29 114.951 153.83 114.177 154.325 113.868C154.96 113.472 155.624 113.145 156.328 112.891C156.875 112.691 157.119 113.561 156.576 113.761V113.757Z" fill="#FFF3AE"/>
<path d="M152.782 112.258C152.94 112.701 153.07 113.166 152.936 113.634C152.871 113.871 152.637 114.026 152.39 113.967C152.156 113.912 151.991 113.658 152.056 113.424C152.142 113.121 152.026 112.829 151.912 112.505C151.83 112.275 151.998 112.01 152.225 111.948C152.472 111.879 152.699 112.027 152.782 112.261V112.258Z" fill="#FFF3AE"/>
<path d="M152.682 119.275C152.689 119.616 152.696 119.956 152.703 120.297C152.713 120.878 151.812 120.899 151.799 120.314C151.792 119.974 151.785 119.633 151.778 119.293C151.768 118.708 152.668 118.691 152.682 119.275Z" fill="#FFF3AE"/>
<path d="M148.252 127.992C147.836 128.426 147.417 128.863 147.001 129.296C146.599 129.716 145.946 129.09 146.352 128.67C146.767 128.237 147.187 127.803 147.603 127.366C148.005 126.947 148.658 127.573 148.252 127.992Z" fill="#FFF3AE"/>
<path d="M145.455 128.557C145.211 128.828 145.084 129.186 144.836 129.465C144.448 129.898 143.798 129.272 144.187 128.839C144.431 128.567 144.561 128.209 144.809 127.93C145.197 127.497 145.846 128.123 145.458 128.557H145.455Z" fill="#FFF3AE"/>
<path d="M183.278 91.2525C182.735 91.8167 182.192 92.3809 181.653 92.945C181.251 93.3647 180.598 92.7386 181.003 92.3189C181.546 91.7548 182.089 91.1906 182.629 90.6264C183.031 90.2067 183.684 90.8328 183.278 91.2525Z" fill="#FFF3AE"/>
<path d="M178.443 95.9379C177.732 96.0962 177.031 96.2235 176.302 96.1099C175.725 96.0171 175.945 95.1398 176.515 95.2327C177.082 95.3222 177.646 95.1914 178.199 95.071C178.763 94.9472 179.017 95.8141 178.446 95.9414L178.443 95.9379Z" fill="#FFF3AE"/>
<path d="M172.834 95.3255C172.597 95.8106 172.264 96.2027 171.893 96.5915C171.491 97.0112 170.838 96.3851 171.243 95.9654C171.563 95.6317 171.838 95.3118 172.044 94.8955C172.302 94.3726 173.092 94.8061 172.838 95.3255H172.834Z" fill="#FFF3AE"/>
<path d="M167.779 101.655C167.377 102.075 166.724 101.449 167.13 101.029C167.532 100.61 168.185 101.236 167.779 101.655Z" fill="#FFF3AE"/>
<path d="M167.521 101.662C167.209 101.968 166.831 102.048 166.432 102.185C166.198 102.264 165.937 102.099 165.875 101.872C165.806 101.624 165.954 101.394 166.188 101.315C166.439 101.229 166.707 101.198 166.872 101.036C167.288 100.63 167.937 101.253 167.521 101.662V101.662Z" fill="#FFF3AE"/>
<path d="M152.754 100.069C152.538 100.53 152.407 101.002 152.314 101.504C152.208 102.078 151.331 101.862 151.438 101.291C151.544 100.713 151.709 100.169 151.96 99.6394C152.208 99.1096 152.998 99.5465 152.754 100.069Z" fill="#FFF3AE"/>
<path d="M145.64 98.9652C145.647 99.3058 145.654 99.6463 145.661 99.9869C145.671 100.572 144.771 100.589 144.757 100.004C144.75 99.6635 144.743 99.323 144.736 98.9824C144.726 98.401 145.626 98.3804 145.64 98.9652Z" fill="#FFF3AE"/>
<path d="M138.382 91.2388C137.86 91.4211 137.293 91.5243 136.739 91.5415C136.158 91.5587 136.141 90.6574 136.722 90.6367C137.203 90.623 137.681 90.5232 138.135 90.3684C138.684 90.1792 138.928 91.0495 138.382 91.2388V91.2388Z" fill="#FFF3AE"/>
<path d="M131.485 90.4957C131.437 90.4957 131.388 90.4957 131.34 90.4992C131.316 90.4992 131.292 90.4992 131.268 90.506C131.148 90.5164 131.358 90.4854 131.237 90.5129C131.213 90.5198 131.189 90.5267 131.165 90.5336C131.213 90.5095 131.213 90.5095 131.165 90.5336C131.141 90.5473 131.117 90.5611 131.093 90.5783C131.169 90.5301 131.052 90.6196 131.045 90.6264C130.87 90.7984 130.588 90.8122 130.406 90.6402C130.23 90.4716 130.22 90.1758 130.392 90.0003C130.694 89.6976 131.052 89.6013 131.468 89.591C132.052 89.5772 132.069 90.482 131.485 90.4957V90.4957Z" fill="#FFF3AE"/>
<path d="M136.65 96.33C136.657 96.7325 136.66 97.0043 136.784 97.362C136.863 97.596 136.698 97.8574 136.471 97.9193C136.224 97.9881 135.994 97.8402 135.915 97.6063C135.774 97.1969 135.756 96.7738 135.746 96.3438C135.736 95.759 136.636 95.7418 136.65 96.3266V96.33Z" fill="#FFF3AE"/>
<path d="M133.595 84.7749C133.739 85.1911 133.746 85.6039 133.619 86.0271C133.547 86.2644 133.323 86.4192 133.072 86.3608C132.842 86.3057 132.667 86.0512 132.739 85.8172C132.763 85.7381 132.784 85.659 132.801 85.5764C132.801 85.5592 132.818 85.4354 132.808 85.5455C132.808 85.5111 132.811 85.4732 132.811 85.4388C132.811 85.4044 132.811 85.3666 132.804 85.3322C132.794 85.2118 132.822 85.4216 132.801 85.3012C132.784 85.2083 132.753 85.1155 132.722 85.026C132.643 84.7921 132.808 84.5306 133.035 84.4687C133.282 84.3999 133.512 84.5479 133.591 84.7818L133.595 84.7749Z" fill="#FFF3AE"/>
<path d="M140.379 140.428C140.925 140.624 141.341 141.017 141.753 141.412C142.173 141.815 141.547 142.468 141.128 142.062C140.85 141.794 140.544 141.436 140.169 141.306C139.939 141.223 139.774 141.017 139.836 140.762C139.887 140.542 140.148 140.346 140.379 140.428Z" fill="#FFF3AE"/>
<path d="M132.241 143.081C131.705 143.425 131.268 143.858 130.828 144.312C130.426 144.732 129.773 144.106 130.179 143.686C130.674 143.17 131.179 142.692 131.78 142.303C132.268 141.987 132.732 142.764 132.241 143.081Z" fill="#FFF3AE"/>
<path opacity="0.59" d="M91.2278 76.5635C105.163 53.0954 129.326 37.4706 154.325 26.5587C158.277 24.8352 162.421 23.1737 166.731 23.3216C165.583 18.5812 163.535 14.0644 160.734 10.0739C160.239 9.36867 159.703 8.6325 159.634 7.77592C159.517 6.3483 160.803 5.11331 162.191 4.77275C163.58 4.43218 165.037 4.75899 166.432 5.08235C169.463 0.634346 177.347 1.09875 179.835 5.87013C182.955 4.00561 187.066 4.41154 190.08 6.37582C189.399 6.83679 188.801 7.41472 188.323 8.11649C186.932 7.78968 185.474 7.46288 184.083 7.80688C182.691 8.15089 181.409 9.38243 181.526 10.8101C181.594 11.6666 182.131 12.4063 182.625 13.108C185.131 16.6719 187.028 20.659 188.224 24.849C188.21 24.9556 188.203 25.0623 188.207 25.1689C188.213 25.5817 188.323 25.9739 188.485 26.3557C184.227 26.2491 180.127 27.8865 176.22 29.5928C151.221 40.5047 127.058 56.1329 113.123 79.5976C102.699 97.1523 98.7575 117.824 97.2316 138.189C126.519 139.503 151.541 160.209 179.488 168.221C177.24 168.331 174.976 168.265 172.762 168.076C138.379 165.128 109.817 136.703 75.3401 135.158C76.866 114.793 80.8079 94.1216 91.2312 76.5669L91.2278 76.5635Z" fill="#B2C1DB"/>
<path d="M340 31.8322C337.233 30.1122 334.635 28.1238 332.247 25.9084C316.029 41.344 299.812 56.7762 283.598 72.2117C280.446 75.2115 277.147 78.4589 276.144 82.6971C275.14 86.9352 277.625 92.2811 281.965 92.5838C285.677 92.8453 288.574 89.5772 290.832 86.6187C297.884 77.3753 303.382 67.5332 311.318 59.0776C313.899 56.329 337.732 30.4218 340 31.8322Z" fill="#568E4C"/>
<path d="M305.771 27.3395C306.517 24.6941 311.05 18.4504 308.867 16.7785C306.39 14.8796 302.853 14.3636 300.293 15.3612C291.237 38.6195 282.182 61.8812 273.123 85.1395C271.377 89.6254 270.69 100.083 278.127 96.1649C283.543 93.3131 286.725 82.9344 288.962 77.8431C296.114 61.5716 300.956 44.4126 305.768 27.3395H305.771Z" fill="#73BA65"/>
<path d="M286.533 32.62C284.718 32.1074 282.903 31.5914 281.089 31.0789C273.329 56.3289 266.916 81.9918 261.888 107.927C260.472 115.23 259.17 122.801 260.864 130.043C261.098 131.044 261.445 132.107 262.29 132.692C268.318 136.84 279.704 107.889 280.976 102.567C284.137 89.3261 285.319 74.8571 286.216 61.317C286.388 58.7335 288.392 33.1463 286.536 32.6234L286.533 32.62Z" fill="#568E4C"/>
<path d="M328.181 51.0279C327.47 48.7746 324.628 47.7976 322.332 48.3377C320.033 48.8778 318.167 50.5084 316.407 52.084C310.837 57.0652 305.259 62.0533 300.087 67.4542C288.512 79.5426 279.137 93.5264 269.82 107.435C265.487 113.902 258.373 123.575 260.084 131.955C261.954 141.106 267.538 134.119 270.174 129.874C281.082 112.306 292.437 95.188 305.118 78.827C308.919 73.9249 312.802 69.0848 316.768 64.3168C318.078 62.7447 328.621 52.4211 328.181 51.0313V51.0279Z" fill="#73BA65"/>
<path d="M312.266 78.0908C308.575 76.5875 304.888 75.0877 301.197 73.5843C286.639 89.6667 274.113 107.583 264.002 126.782C271.642 105.319 274.748 82.2499 273.064 59.5282C269.013 59.3287 264.961 59.1292 260.905 58.9331C261.713 70.6465 259.242 82.3118 256.785 93.7913C251.826 116.967 246.781 140.39 236.56 161.77C233.917 167.299 230.893 172.799 230.02 178.861C228.374 190.289 240.145 203.688 250.723 192.992C253.95 189.728 254.287 184.103 255.737 179.962C258.211 172.902 261.668 166.067 264.861 159.307C278.264 130.923 294.145 103.709 312.27 78.0874L312.266 78.0908Z" fill="#568E4C"/>
<path d="M275.168 97.0662C275.484 85.198 274.394 73.2885 271.927 61.6748C273.061 79.6147 274.113 98.1773 267.858 115.03C269.958 112.426 272.25 109.461 273.759 106.461C275.161 103.671 275.085 100.121 275.168 97.0662Z" fill="#73BA65"/>
<path d="M207.163 215.243C205.895 214.218 204.486 213.385 203.039 212.632C199.682 210.877 196.125 209.543 192.575 208.211C185.746 205.652 178.917 203.089 172.089 200.53C169.903 199.711 167.679 198.882 165.353 198.676C164.934 198.638 163.631 198.834 163.476 199.226C163.009 200.423 163.346 199.807 163.421 200.416C163.497 201.025 163.824 201.572 164.171 202.081C167.449 206.89 172.917 209.625 178.089 212.284C182.646 214.627 187.2 217.08 192.138 218.439C197.114 219.808 202.338 219.842 207.173 217.926C207.802 217.678 207.881 217.469 208.129 216.832C208.29 216.416 207.672 215.659 207.156 215.243H207.163Z" fill="#BCBCBB"/>
<path d="M167.002 141.681C173.525 133.844 181.539 136.056 184.21 129.678C188.042 120.521 181.213 118.983 182.371 104.263C183.302 92.4256 204.696 57.994 208.665 57.6913C215.693 57.1546 241.138 66.7937 241.138 66.7937C241.138 66.7937 266.397 76.9075 271.212 82.0607C273.93 84.971 266.442 124.817 259.132 134.171C250.046 145.802 243.973 142.313 240.612 151.653C238.272 158.158 245.671 161.953 245.186 172.142C245.014 175.754 235.66 198.744 230.33 204.039C224.996 209.333 211.655 211.163 209.734 212.597C207.813 214.032 205.974 219.674 205.974 219.674L183.691 214.541L163.803 203.244C163.803 203.244 166.257 197.846 165.81 195.487C165.363 193.127 156.768 182.751 156.414 175.242C156.06 167.732 164.693 144.464 167.009 141.684L167.002 141.681Z" fill="#E03822"/>
<path d="M166.583 141.515C173.106 133.679 181.12 135.891 183.79 129.513C187.626 120.355 180.794 118.818 181.952 104.098C182.883 92.2605 204.276 57.8289 208.246 57.5261C210.081 57.3851 213.174 57.9389 216.738 58.8334C211.325 62.4076 192.104 93.867 191.221 105.075C190.062 119.795 195.19 120.641 191.358 129.798C188.688 136.173 182.378 134.656 175.855 142.492C173.542 145.272 164.91 168.541 165.26 176.05C165.614 183.56 174.209 193.935 174.656 196.295C175.103 198.655 172.649 204.052 172.649 204.052L192.537 215.349L205.929 218.435C205.689 219.078 205.551 219.505 205.551 219.505L183.268 214.372L163.38 203.075C163.38 203.075 165.834 197.678 165.387 195.318C164.94 192.958 156.345 182.583 155.991 175.073C155.637 167.564 164.27 144.295 166.583 141.515V141.515Z" fill="#B7281D"/>
<path d="M173.481 206.639C179.694 209.553 188.949 213.217 195.509 215.222C208.036 219.047 208.132 216.836 208.132 216.836C208.132 216.836 203.331 230.045 201.012 231.827C198.692 233.609 191.805 232.784 187.557 231.748C183.309 230.713 172.003 226.306 168.174 224.197C164.346 222.085 158.713 218.033 158.208 215.15C157.703 212.267 163.476 199.229 163.476 199.229C163.476 199.229 162.394 201.434 173.477 206.639H173.481Z" fill="#E6D8D4"/>
<path d="M194.674 133.187C200.881 118.718 192.757 104.273 197.891 98.6831C202.012 94.1972 215.081 99.0615 215.081 99.0615C215.081 99.0615 216.559 93.2512 222.851 92.1091C229.141 90.967 235.502 93.5127 239.272 98.7106C243.042 103.912 240.128 109.141 240.128 109.141C240.128 109.141 253.256 114.968 253.163 121.078C253.046 128.691 236.931 133.235 231.502 148.02C226.147 162.606 227.821 177.65 227.821 177.65C227.821 177.65 218.683 179.704 210.627 178.761C204.472 178.039 193.073 173.343 188.121 169.583C181.646 164.664 177.037 156.634 177.037 156.634C177.037 156.634 188.55 147.463 194.674 133.187V133.187Z" fill="#E6D8D4"/>
<path d="M215.232 176.552C220.384 176.552 224.24 175.672 224.401 175.634C224.745 175.555 224.982 175.238 224.965 174.887C224.958 174.739 224.343 159.933 229.075 147.147C231.684 140.101 237.567 135.217 242.293 131.291C246.571 127.741 249.949 124.938 250.149 121.563C250.458 116.368 240.389 111.377 237.426 110.025C238.055 108.456 239.165 104.583 236.818 100.84C234.474 97.1075 230.68 94.9644 226.408 94.9644C225.36 94.9644 224.298 95.0985 223.25 95.36C219.002 96.423 217.157 99.9869 216.531 101.566C214.579 100.854 209.043 98.9892 204.648 98.9892C202.156 98.9892 200.379 99.6016 199.369 100.809C197.204 103.396 197.606 107.892 198.111 113.585C198.664 119.798 199.352 127.528 196.434 134.415C191.124 146.954 181.137 156.314 181.038 156.407C180.783 156.645 180.728 157.027 180.911 157.322C181.079 157.601 185.117 164.22 191.262 168.671C195.389 171.664 204.957 175.534 209.878 176.202C211.579 176.432 213.38 176.549 215.232 176.549V176.552ZM223.487 174.327C222.233 174.567 219.078 175.09 215.232 175.09C213.445 175.09 211.71 174.977 210.074 174.757C205.424 174.127 196.025 170.326 192.121 167.495C187.162 163.9 183.529 158.674 182.478 157.061C184.502 155.069 192.997 146.3 197.785 134.993C200.843 127.769 200.139 119.836 199.572 113.462C199.115 108.315 198.719 103.874 200.493 101.755C201.214 100.895 202.613 100.458 204.651 100.458C209.689 100.458 216.645 103.172 216.714 103.2C216.906 103.276 217.123 103.265 217.308 103.172C217.494 103.079 217.631 102.911 217.686 102.711C217.7 102.667 219.057 97.9228 223.608 96.7842C224.539 96.5502 225.48 96.4333 226.412 96.4333C230.172 96.4333 233.512 98.3253 235.584 101.624C238.11 105.653 235.842 110.015 235.818 110.056C235.722 110.238 235.705 110.448 235.773 110.644C235.842 110.837 235.986 110.995 236.175 111.074C239.739 112.612 248.932 117.48 248.695 121.48C248.53 124.219 245.21 126.978 241.365 130.17C236.502 134.205 230.453 139.228 227.707 146.644C223.432 158.2 223.429 171.341 223.491 174.334L223.487 174.327Z" fill="#64995F"/>
<path d="M236.007 119.595L235.117 121.037L236.227 121.725L232.673 127.483L234.543 128.639L238.096 122.88L239.203 123.565L240.093 122.124L236.007 119.595V119.595Z" fill="#B7281D"/>
<path d="M228.481 121.105C228.075 121.852 227.807 122.392 227.673 122.722C227.539 123.052 227.494 123.396 227.542 123.754C227.587 124.112 227.732 124.446 227.972 124.755C228.213 125.065 228.543 125.333 228.962 125.56C229.36 125.777 229.752 125.904 230.141 125.949C230.529 125.99 230.886 125.935 231.223 125.78C231.557 125.626 231.825 125.405 232.027 125.116C232.23 124.831 232.539 124.305 232.955 123.541L233.646 122.268C234.052 121.522 234.32 120.982 234.454 120.651C234.588 120.321 234.632 119.977 234.584 119.619C234.54 119.261 234.395 118.928 234.155 118.618C233.914 118.309 233.584 118.04 233.165 117.813C232.766 117.596 232.374 117.469 231.986 117.424C231.598 117.383 231.237 117.438 230.904 117.593C230.57 117.748 230.302 117.968 230.099 118.257C229.897 118.543 229.587 119.069 229.171 119.836L228.481 121.109V121.105ZM231.739 119.712C231.928 119.365 232.065 119.155 232.158 119.079C232.247 119.003 232.354 118.997 232.474 119.062C232.574 119.117 232.632 119.2 232.642 119.306C232.653 119.413 232.557 119.657 232.347 120.042L230.464 123.513C230.23 123.943 230.068 124.201 229.979 124.284C229.89 124.367 229.78 124.37 229.653 124.301C229.522 124.229 229.467 124.126 229.495 123.988C229.522 123.851 229.653 123.565 229.89 123.128L231.746 119.712H231.739Z" fill="#B7281D"/>
<path d="M223.408 113.376L220.023 121.13L221.783 121.9L224.071 116.668L222.487 122.21L223.735 122.757L226.707 117.965L224.477 123.08L226.237 123.851L229.622 116.097L227.017 114.955C226.735 115.388 226.415 115.901 226.058 116.499L224.91 118.346L226.027 114.525L223.408 113.379V113.376Z" fill="#B7281D"/>
<path d="M218.332 111.714L214.538 119.378L216.676 120.07L217.257 118.659L218.006 118.9L217.666 120.39L219.827 121.088L221.36 112.691L218.336 111.714H218.332ZM217.769 117.249C218.167 116.372 218.638 115.278 219.178 113.971C218.892 115.581 218.662 116.754 218.487 117.483L217.765 117.249H217.769Z" fill="#B7281D"/>
<path d="M212.617 110.214L212.208 111.858L213.473 112.175L211.834 118.742L213.968 119.275L215.607 112.708L216.868 113.025L217.277 111.38L212.617 110.214V110.214Z" fill="#B7281D"/>
<path d="M205.833 114.077C205.696 114.917 205.62 115.515 205.603 115.87C205.586 116.224 205.658 116.565 205.819 116.888C205.981 117.211 206.225 117.48 206.555 117.689C206.885 117.903 207.283 118.047 207.754 118.123C208.201 118.195 208.613 118.188 208.995 118.099C209.373 118.009 209.696 117.837 209.961 117.579C210.225 117.321 210.404 117.026 210.504 116.688C210.6 116.351 210.72 115.753 210.858 114.893L211.088 113.465C211.225 112.626 211.301 112.027 211.318 111.673C211.335 111.318 211.263 110.978 211.102 110.654C210.94 110.331 210.696 110.063 210.366 109.853C210.036 109.64 209.638 109.495 209.167 109.42C208.72 109.347 208.308 109.354 207.926 109.444C207.548 109.533 207.225 109.705 206.96 109.963C206.696 110.221 206.517 110.517 206.417 110.854C206.321 111.191 206.201 111.79 206.063 112.65L205.83 114.077H205.833ZM208.448 111.687C208.51 111.298 208.572 111.054 208.634 110.95C208.696 110.851 208.792 110.809 208.926 110.83C209.04 110.847 209.119 110.906 209.167 111.005C209.211 111.102 209.201 111.367 209.132 111.797L208.5 115.698C208.421 116.183 208.352 116.479 208.294 116.585C208.235 116.692 208.136 116.733 207.991 116.709C207.844 116.685 207.761 116.606 207.74 116.468C207.72 116.331 207.751 116.018 207.83 115.526L208.452 111.687H208.448Z" fill="#B7281D"/>
<path d="M225.522 128.711L225.412 130.824L223.852 132.833L224.965 133.266L226.092 131.66L225.401 133.435L226.477 133.854L228.089 129.709L227.013 129.289L226.388 130.899L226.536 129.104L225.525 128.711H225.522Z" fill="black"/>
<path d="M225.278 128.618L223.484 127.92L223.161 128.749L223.879 129.028L223.573 129.816L222.9 129.554L222.594 130.342L223.267 130.603L222.913 131.515L222.123 131.205L221.8 132.034L223.666 132.76L225.278 128.615V128.618Z" fill="black"/>
<path d="M221.003 126.95L220.679 127.779L221.319 128.027L220.03 131.343L221.106 131.763L222.394 128.447L223.03 128.694L223.353 127.865L221.003 126.95V126.95Z" fill="black"/>
<path d="M217.542 127.683L218.617 128.102L218.899 127.384C218.982 127.174 219.044 127.046 219.085 127.005C219.126 126.964 219.188 126.957 219.267 126.988C219.356 127.022 219.401 127.077 219.398 127.15C219.398 127.222 219.356 127.363 219.274 127.573L218.525 129.499C218.446 129.699 218.384 129.826 218.336 129.878C218.288 129.929 218.222 129.939 218.14 129.909C218.061 129.878 218.02 129.826 218.02 129.754C218.02 129.681 218.061 129.534 218.15 129.307L218.353 128.787L217.277 128.367L217.215 128.529C217.05 128.959 216.961 129.276 216.951 129.479C216.94 129.681 217.013 129.891 217.167 130.108C217.322 130.325 217.552 130.49 217.855 130.61C218.171 130.734 218.453 130.779 218.7 130.741C218.947 130.703 219.147 130.6 219.291 130.425C219.435 130.249 219.587 129.957 219.745 129.551L220.216 128.34C220.332 128.041 220.408 127.814 220.446 127.655C220.484 127.497 220.477 127.332 220.432 127.153C220.384 126.974 220.288 126.812 220.137 126.661C219.989 126.513 219.796 126.393 219.563 126.3C219.246 126.176 218.961 126.135 218.707 126.179C218.453 126.221 218.257 126.321 218.123 126.479C217.989 126.637 217.844 126.909 217.693 127.298L217.538 127.69L217.542 127.683Z" fill="black"/>
<path d="M215.38 124.762L213.768 128.907L214.844 129.327L215.521 127.587L215.844 127.714L215.167 129.454L216.243 129.874L217.855 125.729L216.779 125.309L216.202 126.792L215.878 126.665L216.456 125.182L215.38 124.762Z" fill="black"/>
<path d="M212.504 123.641L211.428 126.41C211.304 126.723 211.229 126.95 211.201 127.084C211.174 127.218 211.181 127.373 211.232 127.545C211.28 127.717 211.373 127.872 211.511 128.006C211.648 128.14 211.83 128.25 212.054 128.336C212.301 128.433 212.535 128.477 212.755 128.467C212.975 128.46 213.16 128.409 213.304 128.312C213.449 128.216 213.559 128.099 213.631 127.961C213.703 127.82 213.834 127.518 214.016 127.05L214.968 124.597L213.892 124.177L212.682 127.284C212.614 127.466 212.559 127.576 212.517 127.617C212.48 127.659 212.428 127.669 212.37 127.645C212.301 127.617 212.27 127.573 212.27 127.511C212.27 127.449 212.315 127.311 212.394 127.105L213.583 124.05L212.507 123.63L212.504 123.641Z" fill="black"/>
<path d="M212.084 123.479L210.998 123.056C210.706 122.942 210.469 122.877 210.294 122.86C210.119 122.846 209.974 122.863 209.861 122.922C209.747 122.977 209.655 123.063 209.576 123.176C209.5 123.29 209.411 123.476 209.311 123.734L209.17 124.095C209.067 124.36 209.019 124.563 209.026 124.704C209.033 124.845 209.098 124.979 209.218 125.099C209.339 125.22 209.517 125.326 209.751 125.419L210.04 125.533L209.39 127.201L210.466 127.621L212.078 123.476L212.084 123.479ZM210.734 123.768L210.325 124.824C210.294 124.814 210.266 124.803 210.246 124.797C210.146 124.759 210.088 124.707 210.067 124.642C210.046 124.58 210.067 124.47 210.129 124.315L210.263 123.974C210.318 123.833 210.376 123.751 210.438 123.723C210.5 123.699 210.6 123.713 210.741 123.768H210.734Z" fill="black"/>
<path d="M220.315 151.306C220.968 154.006 219.724 156.958 217.576 158.719C215.432 160.48 212.528 161.144 209.758 160.945C206.991 160.745 204.335 159.751 201.854 158.502C201.012 158.079 200.183 157.622 199.438 157.044C197.317 155.403 195.984 152.782 195.901 150.098C195.808 146.999 197.602 143.751 200.534 142.757C202.874 141.963 205.462 142.661 207.71 143.689C210.181 144.821 212.222 145.781 214.851 146.373C217.36 146.937 219.686 148.719 220.308 151.302L220.315 151.306Z" fill="#E03822"/>
<path d="M216.772 145.977C217.507 145.509 218.026 144.715 218.157 143.855C217.923 144.278 217.36 144.357 216.879 144.374C215.772 144.412 214.617 144.388 213.627 144.883C214.518 143.944 214.803 142.475 214.329 141.271C214.256 141.591 213.916 141.766 213.621 141.907C212.624 142.375 211.607 142.97 211.105 143.951C211.318 143.363 211.129 142.695 210.803 142.162C210.476 141.629 210.026 141.185 209.644 140.69C209.263 140.194 208.943 139.61 208.954 138.983C207.95 139.782 207.338 141.051 207.345 142.334C207.4 141.763 207.063 141.219 206.641 140.831C206.218 140.445 205.703 140.17 205.249 139.823C204.795 139.475 204.379 139.014 204.287 138.447C204.187 139.052 204.129 139.678 204.287 140.27C204.455 140.91 204.857 141.464 205.283 141.973C205.758 142.537 206.276 143.074 206.871 143.507C208.431 144.642 210.404 145.01 212.198 145.726C213.658 146.307 215.305 146.92 216.779 145.984L216.772 145.977Z" fill="#63995F"/>
<path opacity="0.23" d="M218.164 149.992C218.748 151.072 218.848 152.365 218.614 153.569C218.466 154.33 218.16 155.107 217.538 155.568C216.916 156.029 215.92 156.036 215.449 155.42C215.291 155.21 215.205 154.956 215.147 154.698C214.848 153.394 215.119 151.866 214.256 150.845C213.779 150.277 213.043 149.999 212.48 149.517C212.239 149.311 212.016 149.008 212.102 148.702C212.16 148.488 212.353 148.34 212.545 148.234C214.476 147.147 217.143 148.103 218.164 149.992V149.992Z" fill="white"/>
<path opacity="0.23" d="M263.706 94.0562C262.916 99.0959 262.115 104.167 260.345 108.924C259.902 110.114 259.373 111.318 258.4 112.182C257.428 113.045 255.902 113.499 254.565 112.98C253.362 112.516 252.558 111.374 252.269 110.225C251.98 109.076 252.125 107.909 252.297 106.774C253.08 101.542 254.4 96.392 256.641 91.6275C257.235 90.365 257.971 89.0544 259.318 88.4455C263.376 86.6119 264.064 91.7823 263.71 94.0528L263.706 94.0562Z" fill="white"/>
<path opacity="0.23" d="M264.71 82.4356C265.597 83.0479 266.102 84.1075 265.961 85.0604C265.923 85.3218 265.837 85.5764 265.672 85.7862C265.167 86.4192 264.105 86.4054 263.222 86.2162C262.321 86.0236 261.418 85.6933 260.706 85.1189C259.995 84.5444 259.496 83.6981 259.555 82.8725C259.613 82.0469 260.325 81.3038 261.232 81.2866C262.084 81.2729 262.858 81.837 263.682 82.1088L264.71 82.4356V82.4356Z" fill="white"/>
<path opacity="0.23" d="M233.935 188.018C233.289 189.081 232.587 190.137 231.625 190.922C230.66 191.706 229.385 192.191 228.165 191.943C227.525 191.813 226.91 191.469 226.563 190.918C225.793 189.704 226.542 188.139 227.226 186.873C229.56 182.566 231.196 177.88 232.041 173.054C232.502 170.433 233.247 167.942 236.275 167.533C238.653 167.209 240.2 168.919 240.317 171.238C240.457 174.01 238.959 177.309 237.969 179.848C236.863 182.683 235.512 185.418 233.931 188.018H233.935Z" fill="white"/>
<path d="M167.937 184.485C167.937 184.485 168.803 188.479 176.89 194.104C182.43 197.956 201.589 207.726 201.589 207.726L168.731 196.085L166.892 190.072L167.941 184.485H167.937Z" fill="#B7281D"/>
<path d="M40.544 108.491C41.8259 105.914 43.4824 103.238 44.9533 100.771C46.9328 97.4584 48.3074 93.6949 50.5069 90.5335C53.1291 86.7667 57.0812 84.854 60.0333 81.6513C60.6038 81.0321 61.4217 80.031 61.597 79.3533L62.353 78.9061C62.573 77.4338 64.2982 77.6023 65.0096 78.6791C65.6075 79.5838 65.2295 81.1834 65.4013 82.2395C65.9237 85.4732 65.1195 87.348 63.0919 89.9762C58.693 95.6868 55.5141 102.261 50.6134 107.514C48.4999 109.781 46.9087 109.901 44.1422 110.765C41.7366 111.514 38.5714 112.45 40.5406 108.487L40.544 108.491Z" fill="#D35A57"/>
<path d="M72.0272 140.394C66.5148 135.523 52.7854 124.346 51.6273 114.758C50.6925 107.032 37.2586 99.4157 37.2586 99.4157C37.2586 99.4157 37.0799 100.234 35.0214 100.503C32.9628 100.768 26.9315 94.5687 26.0242 92.9415C25.3472 91.7306 31.6534 84.2691 34.9251 80.5263C37.7054 76.4086 43.3106 68.407 44.6543 68.751C46.4585 69.2154 53.9848 73.4776 54.2494 75.5382C54.514 77.5988 53.7683 77.9807 53.7683 77.9807C53.7683 77.9807 64.5456 89.0474 72.2506 87.9878C81.8079 86.6703 96.1009 97.1178 102.208 101.215C108.318 105.312 165.325 146.744 166.319 149.778C170.181 161.567 143.729 192.82 135.262 190.103C132.224 189.129 77.543 145.268 72.0341 140.397L72.0272 140.394Z" fill="#A2E3ED"/>
<path d="M83.2925 96.4504C83.2925 96.4504 156.851 148.031 158.022 151.722C159.198 155.41 154.534 163.869 149.819 169.191C145.101 174.512 138.815 183.88 135.787 183.398C132.76 182.917 60.5969 125.918 60.5969 125.918L83.2925 96.4504V96.4504Z" fill="#E5E5B7"/>
<path d="M68.515 109.106C73.804 102.099 80.691 94.6513 83.2925 96.4504C85.8941 98.2496 81.6017 106.905 75.7147 114.404C69.8277 121.903 62.5008 128.226 60.5969 125.921C58.693 123.617 62.927 116.509 68.515 109.11V109.106Z" fill="white"/>
<path d="M38.2415 102.732C37.1349 103.172 36.3273 104.445 34.9904 104.287C33.9045 104.16 32.571 102.832 31.7256 102.109C29.7392 100.413 28.0243 98.3322 26.1857 96.4711C21.3607 91.5827 25.6531 88.1908 28.2443 83.908C31.0177 79.3258 33.5058 75.0842 37.4442 71.4308C40.7881 68.3245 43.015 63.9521 47.9225 66.1228C49.4141 66.7833 50.799 67.7775 51.8644 69.071C53.0672 69.8002 54.2597 70.6087 55.1189 71.4652C56.8407 73.1818 55.5897 75.8788 57.4352 77.2755C58.7377 78.2628 61.4045 78.5174 62.9201 77.967C63.6212 80.2271 62.8892 83.3644 61.8857 85.339C61.1468 86.7942 60.5557 87.2242 59.0573 87.7952C57.8957 88.239 56.6688 88.3697 56.7444 89.873C56.7994 90.9945 57.961 91.569 57.772 92.8246C57.607 93.9151 56.2015 95.2774 55.4969 96.103C54.6893 97.0524 53.6171 98.1017 52.3765 98.4835C51.0911 98.8791 50.2182 98.5076 49.4725 99.9077C48.6752 101.408 49.0257 101.576 47.4311 102.498C46.0427 103.303 45.6372 103.781 45.2695 105.357C44.5959 108.246 42.0905 109.01 39.9701 110.861C39.2106 108.25 39.489 105.202 38.2415 102.725V102.732ZM54.2769 72.8309L54.2013 72.7862C54.2322 72.8172 54.2597 72.8344 54.2769 72.8309Z" fill="#EF6A60"/>
<path opacity="0.1" d="M34.5677 77.0346C35.6468 75.7756 36.8118 74.6197 37.9631 73.4501C40.5544 69.7899 43.8982 65.8441 47.3555 68.9815C49.2422 70.6946 50.4863 75.0945 46.4791 74.1312C44.9876 73.7735 44.29 73.2024 42.6335 73.8388C41.3448 74.3342 40.221 75.3284 39.2862 76.3157C38.0078 77.6676 36.5163 79.9931 34.7086 80.6639C31.6225 81.8095 33.5195 78.2593 34.5677 77.0381V77.0346Z" fill="white"/>
<path opacity="0.3" d="M63.3462 92.2845C64.0336 91.0736 65.0714 90.8363 66.3774 90.7262L65.3773 90.5404C68.1438 90.7709 71.6389 90.3822 74.2507 91.4486C76.8866 92.5253 77.3506 96.2681 74.8762 97.8677C72.6836 99.285 69.0133 97.4343 66.7794 96.8048C64.525 96.1718 61.8032 94.9953 63.3462 92.2811V92.2845Z" fill="white"/>
<path opacity="0.1" d="M50.854 83.7738C51.9641 83.1787 55.0708 84.4928 56.3252 84.7302C57.1362 84.885 57.9851 85.0742 58.7961 85.2668C59.889 85.5283 60.4938 85.5902 59.7481 86.6222C58.6965 88.0842 57.095 88.4798 55.4797 87.7471C54.5244 87.3136 53.6618 86.6944 52.7407 86.1819C52.1874 85.8757 50.3592 85.4251 50.122 84.7267C49.8162 83.8289 50.8334 83.6018 51.5517 83.7601L50.8575 83.7738H50.854Z" fill="white"/>
<path opacity="0.1" d="M53.0603 97.8402C50.7131 95.2223 49.6787 91.0495 46.7231 88.9855C45.4035 90.2721 48.3143 94.1697 48.9226 95.3702C49.6065 96.7222 51.4863 99.3538 53.2803 97.7336L53.0603 97.8402V97.8402Z" fill="white"/>
<path opacity="0.1" d="M43.0631 93.9392C43.0219 92.9381 43.5683 92.4599 44.4962 93.2855C45.0529 93.7809 45.3141 95.0125 45.6372 95.7177C46.297 97.1591 47.8229 99.2575 47.9878 100.823C48.1012 101.91 47.2696 102.763 46.1767 102.144H46.1905C44.2041 101.174 43.1215 95.4356 43.0631 93.9357V93.9392Z" fill="white"/>
<path d="M50.4416 85.7759C47.1184 90.1001 43.1112 93.5883 40.4512 98.4663C39.7742 99.7048 39.0869 101.328 38.1727 102.725C37.0902 103.186 36.2895 104.414 34.9732 104.259C33.8872 104.132 32.5538 102.804 31.7084 102.082C29.722 100.386 27.9075 98.3975 26.1685 96.4436C25.1616 95.3084 24.5396 94.0734 24.2234 92.7902C24.2337 92.7833 24.2474 92.7765 24.2578 92.7696C25.2956 92.171 26.4744 93.4542 27.337 94.1215C29.5914 95.8588 31.4953 97.6717 34.4406 97.1281C38.0078 96.4711 40.2141 93.4026 42.2211 90.5645C45.8399 85.4526 48.0394 79.5735 52.6685 75.1324C53.0603 74.754 54.4659 73.4742 55.7821 72.4663C56.2461 73.574 56.1396 74.8572 56.4935 75.9201C55.435 79.5597 52.8885 82.5835 50.4382 85.7725L50.4416 85.7759Z" fill="#D35A57"/>
<path d="M36.8497 103.516C36.7912 102.88 37.4786 101.9 37.8222 101.408C39.3756 99.1819 41.1249 97.1144 42.6748 94.8921C43.8948 93.1411 44.9327 91.2801 46.2455 89.5841C48.6649 86.4605 51.0121 83.1994 53.2494 79.9554C54.081 78.7514 54.8783 77.3237 56.0674 76.4809C56.5589 76.13 57.1706 75.6828 57.8339 75.9683C58.5865 76.2917 57.8373 77.4132 57.8373 77.4132C57.772 77.5817 56.2873 79.0541 55.6069 79.921C53.8267 82.1845 52.019 84.3999 50.256 86.691C48.493 88.9787 46.8056 91.2732 45.2866 93.6812C44.0941 95.5698 42.5373 97.2314 41.2623 99.0821C40.2141 100.599 39.6231 102.801 38.3584 104.101C37.726 104.751 36.9562 104.645 36.8531 103.513L36.8497 103.516Z" fill="#724C41"/>
<path d="M55.0914 112.667C54.1807 111.697 53.2769 110.751 52.1771 109.901C50.043 108.253 47.7816 106.877 46.053 104.889C45.0323 103.716 44.29 102.419 43.4205 101.084C42.9566 100.372 41.661 97.5753 42.2418 96.877L44.0185 94.4346C44.9189 95.4184 46.2524 96.0101 47.3968 96.7291C49.6581 98.1498 51.9469 99.8251 53.7992 101.752C55.4351 103.454 57.0469 105.281 57.9954 107.462C58.5762 108.797 58.3219 108.718 57.0847 109.244C56.3561 104.277 51.3592 100.155 47.1905 97.8024C45.9087 97.0765 44.4859 96.5399 43.07 96.0858C42.5614 97.3999 43.5752 99.1303 44.1526 100.276C45.022 102.013 46.3039 103.582 47.6373 104.975C49.3694 106.784 51.3042 108.46 53.3868 109.905C54.3525 110.575 55.3079 111.253 56.1774 112.058C56.6688 112.516 58.26 113.72 58.3219 114.459C58.3287 114.542 58.37 114.556 58.4078 114.621C58.1088 115.044 57.5417 115.436 57.1019 115.639C56.8716 114.463 55.8784 113.499 55.0948 112.663L55.0914 112.667Z" fill="#724C41"/>
<path d="M81.3096 129.262L78.574 122.478L76.4261 128.856L74.1682 124.195L72.553 128.873L69.1129 124.731L66.8516 129.038L65.4563 124.515L62.7688 128.846C62.7688 128.846 60.7275 124.191 60.7275 124.621C60.7275 125.051 59.2016 129.399 59.2016 129.399L56.9643 125.055L55.0879 129.644C55.0879 129.644 61.9097 134.525 61.9097 134.849C61.9097 135.172 81.3096 129.258 81.3096 129.258V129.262Z" fill="#E0BD9D"/>
<path d="M81.3096 129.262C78.1376 128.147 55.0879 129.647 55.0879 129.647L52.1015 302.768L50.0807 368.666H86.3202L93.7571 352.945L127.22 286.696L113.092 193.653L81.313 129.265L81.3096 129.262Z" fill="#E0BD9D"/>
<path d="M128.405 167.801C124.47 159.665 132.846 155.396 129.471 148.568C126.014 141.57 118.474 144.247 116.415 136.355C113.542 125.344 118.123 112.86 118.123 112.86L130.815 106.385L143.506 99.9113C143.506 99.9113 156.29 103.53 163.504 112.33C168.676 118.636 162.081 123.17 165.707 130.081C169.247 136.827 177.615 132.551 181.883 140.514C186.375 148.898 200.963 173.078 199.321 176.872C198.138 179.597 194.338 182.786 189.684 185.624C185.028 188.462 165.325 198.514 160.298 200.619C155.27 202.725 150.458 203.932 147.561 203.285C143.527 202.387 132.55 176.363 128.412 167.804L128.405 167.801Z" fill="#684F3E"/>
<path d="M128.003 168.004C124.068 159.868 132.443 155.599 129.069 148.77C125.611 141.773 118.071 144.45 116.013 136.555C113.14 125.543 117.721 113.059 117.721 113.059L120.601 111.59C119.443 116.049 117.944 124.226 119.9 131.725C121.958 139.616 129.498 136.94 132.959 143.937C136.334 150.766 127.959 155.035 131.894 163.171C136.031 171.733 147.011 197.757 151.043 198.651C153.94 199.295 158.751 198.091 163.779 195.985C168.807 193.88 188.509 183.825 193.166 180.99C195.358 179.655 197.362 178.238 198.991 176.831C198.97 176.917 198.946 176.996 198.915 177.068C197.733 179.793 193.932 182.982 189.279 185.82C184.622 188.658 164.92 198.71 159.892 200.815C154.864 202.921 150.053 204.125 147.156 203.481C143.121 202.583 132.145 176.559 128.007 168L128.003 168.004Z" fill="#544032"/>
<path d="M116.037 115.109L146.548 99.5397L141.643 89.9075C140.819 88.2872 138.839 87.6439 137.224 88.4695L112.566 101.053C110.947 101.879 110.305 103.86 111.129 105.477L116.033 115.109H116.037Z" fill="#684F3E"/>
<path d="M112.569 101.053L115.927 99.3402C114.308 100.166 113.666 102.147 114.49 103.764L119.395 113.396L116.037 115.109L111.133 105.477C110.308 103.857 110.951 101.879 112.569 101.053Z" fill="#544032"/>
<path d="M112.318 82.0504C111.999 80.8154 112.58 79.5254 113.714 78.944L116.192 77.6781L118.673 76.4121C119.807 75.8342 121.195 76.1232 122.003 77.107L133.083 90.5852L124.893 94.7649L116.704 98.9446L112.315 82.0504H112.318Z" fill="#684F3E"/>
<path d="M112.422 81.9988C112.102 80.7638 112.683 79.4704 113.817 78.8924L116.195 77.6781C115.061 78.256 114.48 79.5495 114.8 80.7845L119.188 97.6786L116.81 98.893L112.422 81.9988V81.9988Z" fill="#544032"/>
<path d="M144.932 100.365L117.253 114.49L117.126 119.661L119.044 121.016C119.044 121.016 118.566 118.302 122.113 115.161C125.66 112.017 146.121 100.799 146.121 100.799L144.932 100.369V100.365Z" fill="#544032"/>
<path d="M139.915 160.735C137.42 153.164 138.719 148.468 136.722 144.013C134.725 139.558 127.402 135.169 125.522 133.294C123.646 131.419 126.337 127.563 131.206 123.665C134.375 121.13 142.265 116.3 147.156 115.171C152.3 113.985 157.851 113.62 158.301 116.238C158.751 118.852 157.892 127.342 160.383 131.543C162.875 135.743 167.686 137.415 172.439 143.817C177.192 150.215 184.715 165.076 184.43 165.744C184.199 166.284 150.393 183.928 149.785 183.797C149.077 183.646 142.403 168.314 139.911 160.742L139.915 160.735Z" fill="#D35A57"/>
<path d="M152.73 116.864C151.177 116.864 149.235 117.108 147.108 117.572C143.09 118.45 136.134 122.592 133.114 125.058C129.921 127.666 127.959 130.156 127.869 131.721C127.849 132.107 127.948 132.399 128.185 132.643C128.636 133.104 129.519 133.799 130.543 134.604C133.395 136.847 137.299 139.919 138.753 143.146C139.733 145.317 139.956 147.46 140.217 149.944C140.482 152.482 140.784 155.362 141.994 158.953C144.135 165.3 149.403 177.406 150.86 179.937C154.768 178.193 177.185 166.494 180.742 164.344C179.739 161.667 173.673 149.916 169.724 144.508C167.484 141.443 165.246 139.527 163.27 137.838C161.346 136.19 159.682 134.769 158.476 132.719C156.699 129.699 156.528 124.8 156.404 121.222C156.356 119.867 156.314 118.697 156.194 118.051C155.995 116.977 153.703 116.86 152.727 116.86L152.73 116.864ZM152.73 115.959C155.064 115.959 156.827 116.482 157.088 117.889C157.545 120.349 156.916 128.285 159.26 132.265C161.603 136.245 166.016 137.9 170.46 143.978C174.903 150.06 182.021 164.117 181.777 164.736C181.577 165.235 151.359 181.025 150.562 181.025H150.555C149.909 180.87 143.554 166.387 141.145 159.245C138.739 152.107 139.836 147.732 137.935 143.521C136.035 139.31 129.285 135.065 127.543 133.276C125.8 131.488 128.182 127.92 132.547 124.36C135.389 122.041 142.485 117.659 146.919 116.692C148.915 116.255 150.984 115.963 152.733 115.963L152.73 115.959Z" fill="#8C6B58"/>
<path d="M158.229 143.187L160.287 145.354L161.026 146.803L161.988 146.311L161.249 144.863L160.679 141.935L159.724 142.424C159.971 143.28 160.157 143.851 160.273 144.13C159.999 143.731 159.634 143.256 159.181 142.699L158.225 143.187H158.229Z" fill="#8C6B58"/>
<path d="M158.053 143.277L156.318 144.161L156.727 144.962L157.421 144.608L157.806 145.368L157.156 145.698L157.545 146.459L158.194 146.128L158.641 147.009L157.878 147.398L158.287 148.199L160.091 147.277L158.053 143.273V143.277Z" fill="#8C6B58"/>
<path d="M154.909 144.88L156.541 148.082L155.909 148.406L156.318 149.207L157.992 148.354L155.954 144.35L154.912 144.88H154.909Z" fill="#8C6B58"/>
<path d="M152.984 145.864L154.617 149.066L153.984 149.39L154.393 150.191L156.067 149.338L154.029 145.334L152.988 145.864H152.984Z" fill="#8C6B58"/>
<path d="M150.995 149.83C151.201 150.233 151.352 150.511 151.458 150.669C151.562 150.828 151.699 150.951 151.871 151.037C152.043 151.123 152.228 151.161 152.438 151.151C152.644 151.137 152.861 151.075 153.087 150.958C153.301 150.848 153.476 150.718 153.61 150.559C153.744 150.401 153.83 150.226 153.861 150.033C153.892 149.84 153.878 149.655 153.813 149.483C153.747 149.307 153.61 149.015 153.4 148.602L153.053 147.917C152.847 147.515 152.692 147.236 152.589 147.078C152.486 146.92 152.349 146.796 152.177 146.71C152.008 146.624 151.819 146.583 151.61 146.596C151.403 146.61 151.187 146.672 150.96 146.789C150.747 146.899 150.572 147.03 150.438 147.188C150.304 147.346 150.221 147.518 150.187 147.714C150.153 147.91 150.17 148.093 150.235 148.265C150.3 148.44 150.434 148.733 150.647 149.145L150.998 149.83H150.995ZM151.366 147.983C151.269 147.797 151.221 147.673 151.214 147.611C151.208 147.549 151.239 147.501 151.3 147.467C151.355 147.439 151.407 147.439 151.458 147.467C151.51 147.494 151.586 147.611 151.692 147.818L152.644 149.686C152.761 149.919 152.826 150.067 152.833 150.129C152.84 150.191 152.813 150.243 152.744 150.277C152.672 150.312 152.613 150.305 152.562 150.253C152.51 150.202 152.424 150.057 152.304 149.82L151.366 147.979V147.983Z" fill="#8C6B58"/>
<path d="M145.496 149.682L147.998 153.449L149.297 152.785C149.101 152.111 148.85 151.357 148.541 150.525C148.754 150.841 149.207 151.492 149.902 152.475L151.194 151.815L149.62 147.573L148.61 148.089L149.211 149.541L149.792 150.945C149.396 150.267 148.836 149.397 148.104 148.344L147.025 148.894C147.07 149.018 147.255 149.479 147.585 150.274L148.245 151.856C147.692 150.917 147.115 150.019 146.506 149.159L145.496 149.675V149.682Z" fill="#8C6B58"/>
<path d="M162.909 149.479L164.947 153.483L165.858 153.019L164.483 150.315L166.222 152.833L166.868 152.503L165.906 149.668L167.253 152.31L168.164 151.846L166.126 147.842L164.779 148.53C164.861 148.791 164.965 149.094 165.088 149.445L165.459 150.539L164.267 148.791L162.913 149.483L162.909 149.479Z" fill="#8C6B58"/>
<path d="M160.129 150.9L161.49 153.576C161.645 153.879 161.762 154.089 161.844 154.199C161.927 154.312 162.05 154.409 162.212 154.488C162.373 154.567 162.552 154.601 162.744 154.588C162.937 154.574 163.143 154.512 163.356 154.402C163.593 154.281 163.786 154.134 163.927 153.962C164.068 153.79 164.153 153.618 164.178 153.442C164.205 153.27 164.188 153.108 164.133 152.957C164.078 152.809 163.934 152.506 163.703 152.056L162.497 149.686L161.456 150.215L162.985 153.218C163.074 153.394 163.122 153.511 163.126 153.569C163.133 153.628 163.105 153.673 163.047 153.7C162.982 153.735 162.923 153.728 162.878 153.683C162.834 153.638 162.758 153.518 162.655 153.318L161.153 150.367L160.112 150.896L160.129 150.9Z" fill="#8C6B58"/>
<path d="M158.139 153.442L159.105 152.95L158.954 152.654C158.885 152.517 158.851 152.42 158.858 152.372C158.864 152.321 158.895 152.283 158.954 152.252C159.016 152.221 159.078 152.221 159.136 152.255C159.194 152.29 159.249 152.358 159.301 152.465C159.37 152.599 159.401 152.709 159.401 152.795C159.401 152.881 159.342 153.012 159.232 153.191C158.909 153.704 158.734 154.078 158.703 154.316C158.672 154.553 158.758 154.87 158.957 155.262C159.102 155.547 159.242 155.74 159.38 155.843C159.514 155.943 159.703 155.991 159.94 155.984C160.177 155.977 160.425 155.912 160.676 155.781C160.954 155.64 161.164 155.465 161.308 155.258C161.452 155.052 161.511 154.853 161.49 154.656C161.469 154.46 161.38 154.216 161.229 153.913L161.095 153.652L160.129 154.144L160.377 154.632C160.452 154.784 160.49 154.887 160.483 154.942C160.476 155 160.442 155.045 160.37 155.08C160.301 155.114 160.236 155.114 160.174 155.08C160.112 155.042 160.054 154.969 159.999 154.863C159.878 154.625 159.834 154.457 159.861 154.35C159.889 154.244 159.992 154.041 160.164 153.738C160.335 153.435 160.442 153.222 160.487 153.102C160.531 152.981 160.545 152.84 160.531 152.675C160.517 152.51 160.456 152.321 160.346 152.107C160.191 151.801 160.036 151.595 159.885 151.495C159.734 151.392 159.552 151.347 159.335 151.357C159.119 151.368 158.889 151.433 158.641 151.56C158.37 151.698 158.163 151.86 158.016 152.045C157.871 152.231 157.799 152.403 157.806 152.568C157.813 152.733 157.895 152.974 158.057 153.291L158.136 153.449L158.139 153.442Z" fill="#8C6B58"/>
<path d="M155.015 153.507L155.424 154.309L156.043 153.992L157.675 157.195L158.717 156.665L157.084 153.463L157.699 153.15L157.29 152.348L155.019 153.507H155.015Z" fill="#8C6B58"/>
<path d="M153.184 154.443L154.627 158.75L155.689 158.207L155.38 157.46L155.751 157.271L156.18 157.959L157.256 157.412L154.685 153.679L153.184 154.447V154.443ZM155.046 156.734C154.868 156.253 154.634 155.668 154.349 154.973C154.847 155.685 155.198 156.211 155.404 156.552L155.046 156.734V156.734Z" fill="#8C6B58"/>
<path d="M152.41 154.839L151.675 155.214C151.184 155.465 150.861 155.654 150.706 155.778C150.551 155.905 150.458 156.074 150.427 156.284C150.397 156.497 150.469 156.772 150.644 157.113C150.802 157.426 150.946 157.615 151.08 157.68C151.211 157.749 151.397 157.735 151.637 157.639C151.458 157.794 151.355 157.935 151.328 158.055C151.3 158.176 151.297 158.279 151.318 158.358C151.338 158.437 151.428 158.64 151.593 158.963L152.129 160.02L153.094 159.528L152.417 158.196C152.307 157.983 152.259 157.842 152.266 157.773C152.273 157.704 152.349 157.636 152.493 157.56L153.414 159.366L154.455 158.836L152.417 154.832L152.41 154.839ZM151.72 156.053L152.173 156.944C152.056 157.003 151.967 157.03 151.902 157.02C151.84 157.013 151.761 156.92 151.672 156.745L151.558 156.524C151.493 156.397 151.472 156.304 151.5 156.239C151.524 156.177 151.599 156.115 151.716 156.053H151.72Z" fill="#8C6B58"/>
<path d="M149.685 156.229L148.908 156.624C148.407 156.882 148.077 157.078 147.926 157.212C147.771 157.35 147.675 157.494 147.637 157.646C147.599 157.797 147.599 157.945 147.644 158.086C147.685 158.227 147.805 158.489 147.998 158.867L148.713 160.271C148.895 160.628 149.036 160.862 149.128 160.965C149.225 161.069 149.331 161.134 149.451 161.162C149.572 161.186 149.699 161.182 149.836 161.148C149.974 161.113 150.166 161.031 150.414 160.904L151.727 160.233L149.689 156.229H149.685ZM148.994 157.443L150.335 160.078C150.183 160.154 150.077 160.171 150.012 160.13C149.946 160.088 149.847 159.933 149.709 159.665L148.919 158.11C148.826 157.928 148.774 157.811 148.757 157.752C148.744 157.694 148.75 157.646 148.778 157.598C148.805 157.553 148.878 157.501 148.991 157.443H148.994Z" fill="#8C6B58"/>
<path d="M149.355 167.938L172.948 155.898C173.755 155.485 174.079 154.495 173.666 153.683C173.254 152.874 172.264 152.551 171.453 152.964L147.86 165.004C147.053 165.417 146.73 166.408 147.142 167.22C147.554 168.028 148.544 168.351 149.355 167.938Z" fill="#F6DC4B"/>
<path d="M143.602 121.491L145.64 125.495L146.637 124.986L145.544 122.839C145.386 122.53 145.3 122.341 145.283 122.268C145.266 122.196 145.283 122.131 145.334 122.065C145.386 122 145.523 121.907 145.757 121.79L145.857 121.738L145.62 121.271C145.083 121.412 144.609 121.388 144.193 121.192L143.606 121.491H143.602Z" fill="#8C6B58"/>
<path d="M141.551 124.246L142.231 125.581C142.386 125.884 142.513 126.097 142.616 126.217C142.719 126.338 142.853 126.434 143.018 126.5C143.183 126.568 143.351 126.589 143.527 126.568C143.699 126.548 143.877 126.489 144.059 126.396C144.3 126.276 144.482 126.145 144.613 126.011C144.743 125.877 144.826 125.725 144.86 125.56C144.894 125.395 144.898 125.237 144.874 125.089C144.846 124.941 144.764 124.724 144.62 124.442L143.908 123.046C143.723 122.678 143.551 122.42 143.393 122.268C143.235 122.117 143.035 122.034 142.791 122.021C142.547 122.007 142.29 122.069 142.021 122.206C141.801 122.32 141.626 122.457 141.492 122.623C141.358 122.788 141.276 122.946 141.248 123.101C141.217 123.256 141.224 123.41 141.265 123.562C141.307 123.716 141.403 123.944 141.558 124.246H141.551ZM142.379 123.4C142.272 123.187 142.214 123.049 142.207 122.984C142.2 122.918 142.235 122.867 142.31 122.829C142.386 122.791 142.448 122.795 142.499 122.839C142.551 122.884 142.63 123.008 142.736 123.214L143.729 125.168C143.846 125.402 143.908 125.547 143.912 125.605C143.912 125.664 143.877 125.712 143.805 125.75C143.729 125.787 143.668 125.784 143.616 125.739C143.565 125.695 143.489 125.574 143.389 125.378L142.379 123.393V123.4Z" fill="#8C6B58"/>
<path d="M138.836 125.629L139.516 126.964C139.671 127.267 139.801 127.48 139.904 127.6C140.008 127.721 140.142 127.817 140.307 127.882C140.471 127.951 140.64 127.972 140.815 127.951C140.987 127.931 141.166 127.872 141.348 127.779C141.588 127.659 141.771 127.528 141.901 127.394C142.032 127.256 142.114 127.108 142.149 126.943C142.183 126.778 142.186 126.62 142.162 126.472C142.135 126.324 142.052 126.107 141.908 125.825L141.197 124.429C141.011 124.061 140.839 123.803 140.681 123.651C140.523 123.5 140.324 123.417 140.08 123.403C139.836 123.39 139.578 123.452 139.31 123.589C139.09 123.703 138.915 123.84 138.781 124.005C138.647 124.171 138.564 124.329 138.537 124.484C138.506 124.638 138.513 124.793 138.554 124.945C138.595 125.099 138.691 125.326 138.846 125.629H138.836ZM139.664 124.783C139.557 124.57 139.499 124.432 139.492 124.367C139.485 124.301 139.52 124.25 139.595 124.212C139.671 124.174 139.733 124.178 139.784 124.222C139.836 124.267 139.915 124.391 140.021 124.597L141.014 126.551C141.131 126.785 141.193 126.93 141.197 126.988C141.197 127.047 141.162 127.095 141.09 127.133C141.014 127.17 140.953 127.167 140.901 127.122C140.85 127.077 140.774 126.957 140.674 126.761L139.664 124.776V124.783Z" fill="#8C6B58"/>
<path d="M136.753 125.846L137.104 126.534C137.196 126.713 137.282 126.84 137.361 126.912C137.44 126.985 137.554 127.026 137.698 127.036C137.842 127.047 138.007 127.005 138.19 126.912C138.399 126.806 138.544 126.692 138.623 126.572C138.702 126.451 138.736 126.338 138.729 126.228C138.722 126.118 138.678 125.98 138.592 125.815L138.224 125.096C138.124 124.9 138.028 124.762 137.939 124.687C137.849 124.611 137.732 124.577 137.588 124.573C137.444 124.573 137.286 124.614 137.114 124.704C136.925 124.8 136.791 124.91 136.708 125.034C136.626 125.158 136.588 125.278 136.595 125.392C136.602 125.505 136.653 125.657 136.753 125.846V125.846ZM137.296 125.347C137.241 125.24 137.214 125.175 137.214 125.144C137.214 125.113 137.234 125.086 137.282 125.062C137.327 125.038 137.361 125.038 137.389 125.058C137.416 125.079 137.454 125.137 137.506 125.24L138.021 126.248C138.08 126.365 138.11 126.438 138.11 126.465C138.11 126.493 138.086 126.52 138.038 126.548C137.997 126.568 137.963 126.572 137.935 126.548C137.908 126.527 137.873 126.469 137.822 126.372L137.299 125.347H137.296ZM135.203 125.681L138.884 129.038L139.265 128.846L135.578 125.488L135.203 125.681ZM135.884 128.725L136.234 129.417C136.323 129.596 136.409 129.719 136.488 129.795C136.567 129.867 136.681 129.909 136.825 129.919C136.97 129.929 137.134 129.888 137.317 129.795C137.526 129.688 137.671 129.575 137.746 129.455C137.822 129.334 137.86 129.217 137.853 129.111C137.846 129 137.801 128.866 137.715 128.701L137.348 127.979C137.248 127.783 137.155 127.649 137.066 127.573C136.976 127.501 136.86 127.459 136.715 127.459C136.571 127.459 136.413 127.501 136.241 127.587C136.052 127.683 135.914 127.793 135.832 127.92C135.75 128.048 135.712 128.165 135.719 128.278C135.729 128.392 135.78 128.54 135.877 128.732L135.884 128.725ZM136.427 128.23C136.372 128.123 136.344 128.058 136.341 128.027C136.341 127.996 136.361 127.968 136.409 127.944C136.454 127.92 136.488 127.92 136.516 127.941C136.54 127.962 136.581 128.024 136.633 128.127L137.148 129.135C137.207 129.248 137.234 129.32 137.234 129.348C137.234 129.375 137.21 129.403 137.162 129.427C137.117 129.451 137.083 129.451 137.059 129.43C137.035 129.41 136.997 129.351 136.945 129.252L136.423 128.226L136.427 128.23Z" fill="#8C6B58"/>
<path d="M151.012 141.904C149.328 138.615 147.589 135.354 145.788 132.127C145.554 131.708 146.2 131.329 146.434 131.749C148.231 134.976 149.974 138.237 151.658 141.526C151.878 141.952 151.232 142.331 151.012 141.904Z" fill="#8C6B58"/>
<path d="M146.472 132.74C146.977 132.189 146.795 131.316 146.527 130.621C146.379 130.235 146.214 129.854 145.984 129.51C145.554 128.866 144.898 128.378 144.159 128.151C143.891 129.217 144.193 130.383 144.716 131.353C145.094 132.059 145.805 132.764 146.592 132.912L146.472 132.74V132.74Z" fill="#8C6B58"/>
<path d="M145.042 133.407C144.187 133.538 143.369 133.865 142.595 134.26C142.808 134.649 143.241 134.859 143.661 135C144.293 135.213 144.97 135.334 145.64 135.272C146.128 135.223 147.008 135.072 147.225 134.549C147.747 133.29 145.678 133.311 145.042 133.411V133.407Z" fill="#8C6B58"/>
<path d="M146.142 135.705C145.286 135.836 144.468 136.163 143.695 136.558C143.908 136.947 144.341 137.157 144.76 137.298C145.393 137.511 146.07 137.632 146.74 137.57C147.228 137.521 148.108 137.37 148.324 136.847C148.847 135.588 146.778 135.609 146.142 135.709V135.705Z" fill="#8C6B58"/>
<path d="M147.558 138.481C146.702 138.612 145.884 138.939 145.111 139.334C145.324 139.723 145.757 139.933 146.176 140.074C146.809 140.287 147.486 140.408 148.156 140.346C148.644 140.298 149.524 140.146 149.74 139.623C150.263 138.364 148.194 138.385 147.558 138.485V138.481Z" fill="#8C6B58"/>
<path d="M147.795 131.945C148.383 131.305 149.108 130.806 149.864 130.383C150.07 130.775 149.998 131.254 149.884 131.68C149.709 132.327 149.434 132.956 149.008 133.476C148.695 133.858 148.08 134.501 147.527 134.391C146.194 134.126 147.359 132.416 147.795 131.942V131.945Z" fill="#8C6B58"/>
<path d="M149.087 134.136C149.675 133.497 150.4 132.998 151.156 132.575C151.362 132.967 151.29 133.445 151.177 133.875C151.001 134.522 150.726 135.151 150.3 135.671C149.988 136.053 149.372 136.696 148.819 136.586C147.486 136.321 148.651 134.611 149.091 134.136H149.087Z" fill="#8C6B58"/>
<path d="M150.606 136.861C151.194 136.221 151.919 135.722 152.675 135.299C152.878 135.691 152.809 136.17 152.696 136.6C152.52 137.246 152.245 137.876 151.819 138.395C151.507 138.777 150.891 139.42 150.338 139.31C149.005 139.045 150.17 137.336 150.606 136.861Z" fill="#8C6B58"/>
<path opacity="0.16" d="M121.36 78.8649C121.855 79.1986 122.178 79.7249 122.515 80.2169C124.773 83.5297 128.144 86.0168 130.079 89.5326C130.186 89.7287 130.292 89.9454 130.261 90.1655C130.22 90.4648 129.945 90.6644 129.687 90.8226C128.99 91.2561 128.093 91.6517 127.378 91.2388C127.141 91.1012 126.955 90.8914 126.776 90.6816C124.178 87.6405 121.841 84.3725 119.8 80.9324C119.027 79.6252 119.577 77.6678 121.36 78.8718V78.8649Z" fill="white"/>
<path opacity="0.16" d="M152.922 107.975C153.51 108.343 154.108 108.745 154.483 109.327C154.857 109.911 154.96 110.727 154.545 111.284C154.112 111.869 153.273 111.989 152.555 111.865C151.757 111.731 151.019 111.367 150.29 111.009C148.369 110.063 146.448 109.113 144.527 108.164C142.114 106.974 143.382 104.18 145.833 104.552C148.214 104.913 150.915 106.712 152.922 107.968V107.975Z" fill="white"/>
<path opacity="0.55" d="M180.77 143.958C183.904 152.152 187.856 160.033 192.547 167.447C193.492 168.943 194.509 170.543 194.458 172.314C194.41 174.086 192.719 175.899 191.038 175.348C189.43 174.822 189.055 172.768 188.808 171.09C187.763 163.986 184.251 157.608 180.766 151.443C179.491 149.19 176.092 145.138 176.23 142.465C176.288 141.361 176.976 140.446 178.175 140.611C179.639 140.814 180.33 142.802 180.77 143.954V143.958Z" fill="white"/>
<path d="M139.846 89.4604C140.324 89.6014 140.712 90.114 140.578 90.5956C140.492 90.8983 140.234 91.1185 139.977 91.2939C138.977 91.9785 137.787 92.3191 136.64 92.7112C131.646 94.4141 127.127 97.2315 122.57 99.8906C122.01 100.217 121.226 100.517 120.783 100.042C120.477 99.7118 120.546 99.1614 120.817 98.8001C121.089 98.4389 121.505 98.2291 121.907 98.0296C125.051 96.4712 128.196 94.9129 131.34 93.3545C132.914 92.5736 134.485 91.7962 136.055 91.0153C137.007 90.544 138.726 89.1301 139.843 89.4604H139.846Z" fill="#684F3E"/>
<path d="M286.893 266.837C286.306 274.233 288.196 289.734 288.196 289.734C288.196 289.734 272.154 300.47 264.744 300.55C269.38 297.98 286.179 303.873 286.179 303.873C286.179 303.873 287.402 314.568 285.752 323.12C284.746 328.325 280.419 332.064 280.632 334.059C282.02 347.004 285.378 355.683 286.371 368.666C195.265 366.341 158.878 370.09 86.3237 368.666C81.4952 351.906 74.4672 323.464 74.4672 323.464L78.5225 307.595C78.5225 307.595 90.5026 306.491 100.737 305.785C89.7947 302.077 85.7669 299.7 82.2375 297.932C82.643 294.265 83.0485 290.597 83.4541 286.93C95.905 286.256 108.356 285.585 120.807 284.911C108.665 281.836 96.1422 280.27 83.6156 280.263C89.6366 230.131 88.8565 179.191 81.3096 129.265C81.2615 128.945 204.379 126.472 215.672 126.73C228.182 127.015 288.199 131.938 288.199 131.938C288.199 131.938 280.673 154.333 281.921 161.468C283.742 171.888 285.168 182.373 286.199 192.9C288.601 217.462 288.849 242.234 286.897 266.837H286.893Z" fill="#EBCFA8"/>
<path opacity="0.55" d="M189.897 51.8913C189.794 60.519 187.705 69.3703 182.443 76.2023C180.144 79.1882 176.312 81.93 172.862 80.4198C170.501 79.3878 169.284 76.6185 169.315 74.0385C169.346 71.4584 170.374 69.0091 171.401 66.6423C173.408 62.0189 175.498 57.3232 176.01 52.3076C176.357 48.9053 175.979 45.3552 177.209 42.1628C178.601 38.5439 183.333 35.6439 186.523 38.5817C189.698 41.5058 189.946 47.9456 189.901 51.8913H189.897Z" fill="white"/>
<path d="M190.159 23.3938C190.159 23.3938 165.525 18.5605 165.37 18.5227C165.215 18.4848 163.37 23.5452 163.37 23.5452L190.159 29.1078V23.3904V23.3938Z" fill="#E03822"/>
<path opacity="0.21" d="M267.848 161.258C264.851 183.02 276.748 204.795 273.741 226.554C273.281 229.873 272.233 233.496 269.36 235.212C266.548 236.895 262.988 236.186 259.785 235.508C242.643 231.882 224.999 230.647 207.517 231.851C202.699 232.182 197.599 232.646 193.283 230.482C188.966 228.318 186.172 222.36 189.073 218.497C190.097 217.135 191.633 216.261 193.173 215.539C203.383 210.743 216.136 210.557 224.03 202.497C225.694 200.801 227.072 198.775 227.738 196.494C229.251 191.324 226.859 185.706 223.298 181.668C207.919 164.209 176.299 170.58 161.012 153.043C159.94 151.815 158.93 150.109 159.645 148.643C160.112 147.683 161.174 147.185 162.171 146.803C169.999 143.806 178.57 143.559 186.952 143.345C205.854 142.864 225.295 143.641 244.035 141.113C249.98 140.311 255.531 139.235 261.314 141.952C270.669 146.342 267.848 152.768 267.848 161.258V161.258Z" fill="white"/>
<path opacity="0.21" d="M224.614 285.21C207.905 286.091 191.935 279.163 176.072 273.837C159.229 268.185 141.819 264.233 124.185 262.059C120.202 261.567 115.985 261.082 112.793 258.646C107.755 254.804 107.023 247.631 106.706 241.298C105.83 223.575 104.954 205.803 106.198 188.101C106.535 183.326 107.084 178.372 109.61 174.306C112.133 170.24 117.195 167.361 121.742 168.836C125.68 170.113 128.086 174.168 129.079 178.19C131.77 189.085 126.952 201.847 133.234 211.142C137.836 217.947 146.627 220.117 154.153 223.403C162.078 226.86 169.15 231.989 176.773 236.069C191.478 243.94 209.473 244.39 223.625 252.296C236.512 259.496 246.341 284.065 224.614 285.21V285.21Z" fill="white"/>
<path d="M276.391 138.67L288.196 131.938L283.017 125.495L275.14 131.25L270.573 126.709L263.888 130.259L255.881 124.315L251.039 128.849L244.361 123.145L239.485 128.247L230.873 123.145L224.968 127.198L215.81 123.145L207.462 127.198L199.111 123.145L191.767 127.198L178.742 122.478L173.563 127.239L164.047 123.314L158.205 127.514L150.022 122.478L142.671 127.81L136.165 123.479L125.979 128.849L120.137 123.145L116.13 128.849L110.284 123.648L104.284 128.612L97.4275 123.479L94.2554 128.849L88.2447 123.648L81.3096 129.262L257.218 145.544L275.14 131.25L276.391 138.67Z" fill="#EBCFA8"/>
</g>
<g opacity="0.8">
<rect width="60.7692" height="6.07692" rx="3.03846" transform="matrix(-1 0 0 1 190.055 192.456)" fill="white"/>
<rect width="55.7051" height="6.07692" rx="3.03846" transform="matrix(-1 0 0 1 187.467 204.497)" fill="white"/>
<rect width="14.5624" height="6.07692" rx="3.03846" transform="matrix(-0.220937 0.975288 0.975288 0.220937 199.546 174)" fill="white"/>
<rect width="13.0541" height="6.07692" rx="3.03846" transform="matrix(-1 0 0 1 212 174.562)" fill="white"/>
<circle r="3.60114" transform="matrix(-1 0 0 1 197.259 195.456)" fill="#0ABF3D"/>
<circle r="3.60114" transform="matrix(-1 0 0 1 194.557 207.498)" fill="#D20CB3"/>
</g>
</g>
<defs>
<clipPath id="clip0_414_40778">
<rect width="339" height="213" fill="white" transform="matrix(-1 0 0 1 339 0)"/>
</clipPath>
<clipPath id="clip1_414_40778">
<rect width="316" height="367" fill="white" transform="matrix(-1 0 0 1 340 2)"/>
</clipPath>
</defs>
</svg>
