<svg width="18" height="26" viewBox="0 0 18 26" fill="none" xmlns="http://www.w3.org/2000/svg">
<path d="M0.519043 15.7695C0.519043 16.7363 1.17432 17.3809 2.19482 17.3809H7.94189V22.4619C7.94189 23.9766 8.70459 25.502 9.00537 25.502C9.29541 25.502 10.0581 23.9766 10.0581 22.4619V17.3809H15.8052C16.8257 17.3809 17.481 16.7363 17.481 15.7695C17.481 13.46 15.644 11.0859 12.6147 9.96875L12.2603 4.97363C13.8608 4.06055 15.1284 3.06152 15.687 2.35254C15.9771 1.96582 16.1274 1.5791 16.1274 1.23535C16.1274 0.526367 15.5796 0 14.7739 0H3.22607C2.42041 0 1.87256 0.526367 1.87256 1.23535C1.87256 1.5791 2.02295 1.96582 2.31299 2.35254C2.87158 3.06152 4.13916 4.06055 5.73975 4.97363L5.396 9.96875C2.35596 11.0859 0.519043 13.46 0.519043 15.7695Z" fill="black"/>
</svg>
