<svg width="20" height="20" viewBox="0 0 20 20" fill="none" xmlns="http://www.w3.org/2000/svg">
<path d="M7.65139 20C8.25127 20 8.70402 19.7464 9.03226 19.2507L19.6718 2.35158C19.9095 1.98271 20 1.65994 20 1.3487C20 0.553314 19.4567 0 18.6644 0C18.1098 0 17.7816 0.195965 17.442 0.737752L7.60611 16.6455L2.53537 10.0173C2.20713 9.56772 1.86757 9.38329 1.36955 9.38329C0.57725 9.38329 0 9.95965 0 10.755C0 11.1009 0.124505 11.4352 0.40747 11.7925L6.27051 19.2622C6.66667 19.7579 7.08546 20 7.65139 20Z" fill="black"/>
</svg>
