<svg width="40" height="40" viewBox="0 0 40 40" fill="none" xmlns="http://www.w3.org/2000/svg">
<path d="M24.0879 31.6631C23.4792 31.6631 23.1748 31.4089 23.1748 30.9004C23.1748 30.3919 23.4792 30.1377 24.0879 30.1377H26.333V10.2861H24.0879C23.4792 10.2861 23.1748 10.0283 23.1748 9.5127C23.1748 9.01855 23.4792 8.77148 24.0879 8.77148H30.3076C30.9163 8.77148 31.2207 9.01855 31.2207 9.5127C31.2207 10.0283 30.9163 10.2861 30.3076 10.2861H28.0947V30.1377H30.3076C30.9163 30.1377 31.2207 30.3919 31.2207 30.9004C31.2207 31.4089 30.9163 31.6631 30.3076 31.6631H24.0879ZM17.1484 27.957C16.9193 28.179 16.6113 28.29 16.2246 28.29C15.8379 28.29 15.5299 28.179 15.3008 27.957C15.0788 27.7279 14.9678 27.4199 14.9678 27.0332V14.6475H10.9072C10.5706 14.6475 10.2949 14.5472 10.0801 14.3467C9.8724 14.1462 9.76855 13.8812 9.76855 13.5518C9.76855 13.2295 9.8724 12.9681 10.0801 12.7676C10.2949 12.5671 10.5706 12.4668 10.9072 12.4668H21.5635C21.8929 12.4668 22.1615 12.5671 22.3691 12.7676C22.584 12.9681 22.6914 13.2295 22.6914 13.5518C22.6914 13.8812 22.584 14.1462 22.3691 14.3467C22.1615 14.5472 21.8929 14.6475 21.5635 14.6475H17.5029V27.0332C17.5029 27.4199 17.3848 27.7279 17.1484 27.957Z" fill="black"/>
</svg>
