<svg width="40" height="40" viewBox="0 0 40 40" fill="none" xmlns="http://www.w3.org/2000/svg">
<path d="M23.9727 31.6416H30.2031C30.7832 31.6416 31.0947 31.3623 31.0947 30.8896C31.0947 30.3955 30.7832 30.1377 30.2031 30.1377H27.958V10.2861H30.2031C30.7832 10.2861 31.0947 10.0176 31.0947 9.53418C31.0947 9.05078 30.7832 8.79297 30.2031 8.79297H23.9727C23.3818 8.79297 23.0703 9.05078 23.0703 9.53418C23.0703 10.0176 23.3818 10.2861 23.9727 10.2861H26.2393V30.1377H23.9727C23.3818 30.1377 23.0703 30.3955 23.0703 30.8896C23.0703 31.3623 23.3818 31.6416 23.9727 31.6416ZM10.0723 28.2578C10.7812 28.2578 11.1572 27.9678 11.3936 27.2158L12.5859 23.875H18.6982L19.9014 27.2158C20.127 27.9678 20.5029 28.2578 21.2119 28.2578C21.9531 28.2578 22.4365 27.8066 22.4365 27.1084C22.4365 26.8613 22.3936 26.6357 22.2969 26.3457L17.5488 13.541C17.2158 12.6387 16.6143 12.209 15.6582 12.209C14.7236 12.209 14.1221 12.6387 13.7998 13.5303L9.03027 26.3994C8.92285 26.6787 8.89062 26.9043 8.89062 27.1299C8.89062 27.8281 9.3418 28.2578 10.0723 28.2578ZM13.1982 21.877L15.626 14.916H15.6904L18.1074 21.877H13.1982Z" fill="black"/>
</svg>
