<svg width="112" height="33" viewBox="0 0 112 33" fill="none" xmlns="http://www.w3.org/2000/svg">
<path d="M10.417 28.8105C10.9541 28.8105 11.3086 28.4453 11.3086 27.9082V26.8232H20.6865V27.9082C20.6865 28.4453 21.041 28.8105 21.5781 28.8105C22.1152 28.8105 22.4697 28.4453 22.4697 27.9082V26.8125C23.834 26.7158 24.7256 25.7168 24.7256 24.2559V6.75684C24.7256 5.20996 23.7266 4.18945 22.2441 4.18945H9.75098C8.26855 4.18945 7.26953 5.20996 7.26953 6.75684V24.2559C7.26953 25.7168 8.16113 26.7158 9.52539 26.8125V27.9082C9.52539 28.4453 9.87988 28.8105 10.417 28.8105ZM9.83691 25.0938C9.33203 25.0938 8.99902 24.7607 8.99902 24.2451V6.76758C8.99902 6.25195 9.33203 5.91895 9.83691 5.91895H15.2939V25.0938H9.83691ZM22.1582 5.91895C22.6631 5.91895 22.9961 6.25195 22.9961 6.76758V24.2451C22.9961 24.7607 22.6631 25.0938 22.1582 25.0938H16.7012V5.91895H22.1582ZM13.21 17.0371C13.833 17.0371 14.3486 16.5322 14.3486 15.9092C14.3486 15.2754 13.833 14.7705 13.21 14.7705C12.5869 14.7705 12.0713 15.2754 12.0713 15.9092C12.0713 16.5322 12.5869 17.0371 13.21 17.0371ZM18.7744 17.0371C19.3975 17.0371 19.9131 16.5322 19.9131 15.9092C19.9131 15.2754 19.3975 14.7705 18.7744 14.7705C18.1514 14.7705 17.6357 15.2754 17.6357 15.9092C17.6357 16.5322 18.1514 17.0371 18.7744 17.0371Z" fill="#6C7AC8"/>
<path d="M63.6738 10.8539L59.248 6.52261C59.0676 6.35073 58.8098 6.23901 58.5777 6.23901C58.0449 6.23901 57.684 6.60854 57.684 7.13276C57.684 7.39058 57.7699 7.59683 57.9418 7.76011L59.7809 9.53901L61.1129 10.6906L59.2738 10.6218L48.5316 10.6218C47.9988 10.6218 47.6207 11 47.6207 11.5242C47.6207 12.0484 47.9988 12.4265 48.5316 12.4265L59.2738 12.4265L61.1129 12.3578L59.7809 13.5179L57.9418 15.2882C57.7699 15.4515 57.684 15.6664 57.684 15.9156C57.684 16.4398 58.0449 16.8093 58.5777 16.8093C58.8098 16.8093 59.0676 16.7062 59.248 16.5257L63.6738 12.2031C64.0691 11.825 64.0777 11.232 63.6738 10.8539ZM47.9129 22.146L52.3559 26.4773C52.5277 26.6492 52.7855 26.7609 53.0176 26.7609C53.5504 26.7609 53.9113 26.3914 53.9113 25.8671C53.9113 25.6093 53.8254 25.4031 53.6535 25.2312L51.823 23.4609L50.4824 22.3093L52.3215 22.3781L63.0637 22.3781C63.5879 22.3781 63.9746 22 63.9746 21.4757C63.9746 20.9515 63.5879 20.5648 63.0637 20.5648L52.3215 20.5648L50.4824 20.6335L51.823 19.482L53.6535 17.7117C53.8254 17.5398 53.9113 17.3335 53.9113 17.0843C53.9113 16.5601 53.5504 16.1906 53.0176 16.1906C52.7855 16.1906 52.5277 16.2937 52.3559 16.4656L47.9129 20.7968C47.5262 21.175 47.5176 21.7679 47.9129 22.146Z" fill="#6C7AC8"/>
<path d="M86.9648 24.6533C86.9648 26.8984 88.0713 28.0156 90.2949 28.0156H101.703C103.927 28.0156 105.033 26.8984 105.033 24.6533V8.35742C105.033 6.12305 103.927 4.98438 101.703 4.98438H90.2949C88.0713 4.98438 86.9648 6.12305 86.9648 8.35742V24.6533ZM88.6943 24.6211V8.38965C88.6943 7.31543 89.2637 6.71387 90.3809 6.71387H101.617C102.734 6.71387 103.304 7.31543 103.304 8.38965V24.6211C103.304 25.6953 102.734 26.2861 101.617 26.2861H90.3809C89.2637 26.2861 88.6943 25.6953 88.6943 24.6211ZM91.3262 10.8711C91.8848 10.8711 92.3252 10.4307 92.3252 9.87207C92.3252 9.32422 91.8848 8.87305 91.3262 8.87305C90.7891 8.87305 90.3271 9.33496 90.3271 9.87207C90.3271 10.4199 90.7891 10.8711 91.3262 10.8711ZM94.3555 10.5488H101.005C101.37 10.5488 101.671 10.248 101.671 9.87207C101.671 9.50684 101.37 9.20605 101.005 9.20605H94.3555C93.9902 9.20605 93.6895 9.50684 93.6895 9.87207C93.6895 10.248 93.9902 10.5488 94.3555 10.5488ZM91.3262 14.1582C91.8848 14.1582 92.3252 13.707 92.3252 13.1592C92.3252 12.6006 91.8848 12.1709 91.3262 12.1709C90.7783 12.1709 90.3271 12.6113 90.3271 13.1592C90.3271 13.707 90.7783 14.1582 91.3262 14.1582ZM94.3555 13.8252H101.005C101.381 13.8252 101.671 13.5352 101.671 13.1592C101.671 12.7832 101.381 12.4932 101.005 12.4932H94.3555C93.9795 12.4932 93.6895 12.7832 93.6895 13.1592C93.6895 13.5352 93.9795 13.8252 94.3555 13.8252ZM91.3262 17.5957C91.8848 17.5957 92.3252 17.1445 92.3252 16.5967C92.3252 16.0381 91.8848 15.5977 91.3262 15.5977C90.7891 15.5977 90.3271 16.0488 90.3271 16.5967C90.3271 17.1338 90.7891 17.5957 91.3262 17.5957ZM94.3555 17.2627H101.005C101.37 17.2627 101.671 16.9619 101.671 16.5967C101.671 16.2314 101.381 15.9307 101.005 15.9307H94.3555C93.9795 15.9307 93.6895 16.2314 93.6895 16.5967C93.6895 16.9619 93.9902 17.2627 94.3555 17.2627Z" fill="#6C7AC8"/>
</svg>
