<svg width="40" height="40" viewBox="0 0 40 40" fill="none" xmlns="http://www.w3.org/2000/svg">
<path d="M14.457 20.2119C11.4277 20.2119 8.93555 17.7197 8.93555 14.6797C8.93555 11.6504 11.4277 9.14746 14.457 9.14746C17.4971 9.14746 19.9893 11.6504 19.9893 14.6797C19.9893 17.6982 17.4648 20.2119 14.457 20.2119ZM22.5352 12.7139C22.0088 12.7139 21.5898 12.2949 21.5898 11.7686C21.5898 11.2422 22.0088 10.8232 22.5352 10.8232H30.1191C30.6455 10.8232 31.0752 11.2422 31.0752 11.7686C31.0752 12.2949 30.6455 12.7139 30.1191 12.7139H22.5352ZM13.834 17.6768C14.0918 17.6768 14.3389 17.5586 14.4678 17.3867L17.583 13.1113C17.6797 12.9609 17.7334 12.7998 17.7334 12.6602C17.7334 12.2305 17.3789 11.8975 16.9707 11.8975C16.7021 11.8975 16.4766 12.0371 16.3262 12.2412L13.791 15.7539L12.5449 14.3896C12.416 14.2393 12.2227 14.1426 11.9756 14.1426C11.5674 14.1426 11.2129 14.4434 11.2129 14.9053C11.2129 15.0879 11.2881 15.3027 11.4277 15.4531L13.2217 17.4189C13.3828 17.6016 13.6299 17.6768 13.834 17.6768ZM22.5352 18.3428C22.0088 18.3428 21.5898 17.9238 21.5898 17.3975C21.5898 16.8711 22.0088 16.4521 22.5352 16.4521H30.1191C30.6455 16.4521 31.0752 16.8711 31.0752 17.3975C31.0752 17.9238 30.6455 18.3428 30.1191 18.3428H22.5352ZM9.87012 23.9717C9.34375 23.9717 8.9248 23.5527 8.9248 23.0264C8.9248 22.5 9.34375 22.0811 9.87012 22.0811H30.1191C30.6455 22.0811 31.0752 22.5 31.0752 23.0264C31.0752 23.5527 30.6455 23.9717 30.1191 23.9717H9.87012ZM9.87012 29.5898C9.34375 29.5898 8.9248 29.1816 8.9248 28.6553C8.9248 28.1182 9.34375 27.71 9.87012 27.71H30.1191C30.6455 27.71 31.0752 28.1182 31.0752 28.6553C31.0752 29.1816 30.6455 29.5898 30.1191 29.5898H9.87012Z" fill="#045C5C"/>
</svg>
