<svg width="40" height="40" viewBox="0 0 40 40" fill="none" xmlns="http://www.w3.org/2000/svg">
<path d="M17.6514 30C18.2513 30 18.704 29.7464 19.0323 29.2507L29.6718 12.3516C29.9095 11.9827 30 11.6599 30 11.3487C30 10.5533 29.4567 10 28.6644 10C28.1098 10 27.7815 10.196 27.442 10.7378L17.6061 26.6455L12.5354 20.0173C12.2071 19.5677 11.8676 19.3833 11.3696 19.3833C10.5772 19.3833 10 19.9597 10 20.755C10 21.1009 10.1245 21.4352 10.4075 21.7925L16.2705 29.2622C16.6667 29.7579 17.0855 30 17.6514 30Z" fill="#6F8617"/>
</svg>
