<svg width="40" height="40" viewBox="0 0 40 40" fill="none" xmlns="http://www.w3.org/2000/svg">
<path d="M20.4893 23.0801C21.0371 23.0801 21.4883 22.6289 21.4883 22.1025V11.2852L21.4023 9.68457L22.0684 10.4688L23.583 12.0801C23.7549 12.2734 24.002 12.3701 24.249 12.3701C24.7324 12.3701 25.1299 12.0156 25.1299 11.5107C25.1299 11.2529 25.0332 11.0596 24.8506 10.877L21.2412 7.40723C20.9941 7.14941 20.7578 7.06348 20.4893 7.06348C20.2314 7.06348 19.9951 7.14941 19.748 7.40723L16.1387 10.877C15.9561 11.0596 15.8486 11.2529 15.8486 11.5107C15.8486 12.0156 16.2461 12.3701 16.7295 12.3701C16.9766 12.3701 17.2344 12.2734 17.4062 12.0801L18.9102 10.4688L19.5869 9.68457L19.501 11.2852V22.1025C19.501 22.6289 19.9521 23.0801 20.4893 23.0801ZM14.3125 31.6416H26.6768C28.9971 31.6416 30.2002 30.4492 30.2002 28.1611V17.5801C30.2002 15.292 28.9971 14.0996 26.6768 14.0996H23.7656V16.2051H26.5479C27.5361 16.2051 28.0947 16.7207 28.0947 17.7627V27.9785C28.0947 29.0205 27.5361 29.5361 26.5479 29.5361H14.4414C13.4424 29.5361 12.8945 29.0205 12.8945 27.9785V17.7627C12.8945 16.7207 13.4424 16.2051 14.4414 16.2051H17.2451V14.0996H14.3125C11.9922 14.0996 10.7891 15.292 10.7891 17.5801V28.1611C10.7891 30.4492 11.9922 31.6416 14.3125 31.6416Z" fill="#C64E0A"/>
</svg>
