<svg width="40" height="40" viewBox="0 0 40 40" fill="none" xmlns="http://www.w3.org/2000/svg">
<path d="M8.76367 14.7334C8.47005 15.027 8.11198 15.1738 7.68945 15.1738C7.26693 15.1738 6.90527 15.027 6.60449 14.7334C6.30371 14.4326 6.15332 14.071 6.15332 13.6484C6.15332 13.2259 6.30371 12.8678 6.60449 12.5742C6.90527 12.2734 7.26693 12.123 7.68945 12.123C8.10482 12.123 8.46289 12.2734 8.76367 12.5742C9.06445 12.875 9.21484 13.2331 9.21484 13.6484C9.21484 14.071 9.06445 14.4326 8.76367 14.7334ZM12.7383 14.6797C12.4518 14.6797 12.2083 14.5794 12.0078 14.3789C11.8073 14.1784 11.707 13.9349 11.707 13.6484C11.707 13.362 11.8073 13.1185 12.0078 12.918C12.2083 12.7174 12.4518 12.6172 12.7383 12.6172H27.3262C27.6126 12.6172 27.8561 12.7174 28.0566 12.918C28.2572 13.1185 28.3574 13.362 28.3574 13.6484C28.3574 13.9349 28.2572 14.1784 28.0566 14.3789C27.8561 14.5794 27.6126 14.6797 27.3262 14.6797H12.7383ZM11.5029 21.3398C11.2093 21.6335 10.8512 21.7803 10.4287 21.7803C10.0062 21.7803 9.64453 21.6335 9.34375 21.3398C9.05013 21.0391 8.90332 20.6774 8.90332 20.2549C8.90332 19.8324 9.05013 19.4743 9.34375 19.1807C9.64453 18.8799 10.0062 18.7295 10.4287 18.7295C10.8512 18.7295 11.2093 18.8799 11.5029 19.1807C11.8037 19.4743 11.9541 19.8324 11.9541 20.2549C11.9541 20.6774 11.8037 21.0391 11.5029 21.3398ZM15.4775 21.2861C15.1839 21.2861 14.9368 21.1895 14.7363 20.9961C14.543 20.7956 14.4463 20.5485 14.4463 20.2549C14.4463 19.9613 14.543 19.7178 14.7363 19.5244C14.9368 19.3239 15.1839 19.2236 15.4775 19.2236H30.0654C30.359 19.2236 30.6025 19.3239 30.7959 19.5244C30.9964 19.7178 31.0967 19.9613 31.0967 20.2549C31.0967 20.5485 30.9964 20.7956 30.7959 20.9961C30.6025 21.1895 30.359 21.2861 30.0654 21.2861H15.4775ZM14.2529 27.9463C13.9521 28.2399 13.5905 28.3867 13.168 28.3867C12.7454 28.3867 12.3838 28.2399 12.083 27.9463C11.7894 27.6455 11.6426 27.2839 11.6426 26.8613C11.6426 26.446 11.793 26.0879 12.0938 25.7871C12.3945 25.4863 12.7526 25.3359 13.168 25.3359C13.5905 25.3359 13.9521 25.4863 14.2529 25.7871C14.5537 26.0807 14.7041 26.4388 14.7041 26.8613C14.7041 27.2839 14.5537 27.6455 14.2529 27.9463ZM18.2275 27.8926C17.9339 27.8926 17.6868 27.7923 17.4863 27.5918C17.2858 27.3913 17.1855 27.1478 17.1855 26.8613C17.1855 26.5749 17.2858 26.3314 17.4863 26.1309C17.6868 25.9303 17.9339 25.8301 18.2275 25.8301H32.8154C33.109 25.8301 33.3525 25.9303 33.5459 26.1309C33.7464 26.3314 33.8467 26.5749 33.8467 26.8613C33.8467 27.1478 33.7464 27.3913 33.5459 27.5918C33.3454 27.7923 33.1019 27.8926 32.8154 27.8926H18.2275Z" fill="black"/>
</svg>
