<svg width="20" height="20" viewBox="0 0 20 20" fill="none" xmlns="http://www.w3.org/2000/svg">
<path d="M0 6.4C0 4.15979 0 3.03969 0.435974 2.18404C0.819467 1.43139 1.43139 0.819467 2.18404 0.435974C3.03969 0 4.15979 0 6.4 0H13.6C15.8402 0 16.9603 0 17.816 0.435974C18.5686 0.819467 19.1805 1.43139 19.564 2.18404C20 3.03969 20 4.15979 20 6.4V13.6C20 15.8402 20 16.9603 19.564 17.816C19.1805 18.5686 18.5686 19.1805 17.816 19.564C16.9603 20 15.8402 20 13.6 20H6.4C4.15979 20 3.03969 20 2.18404 19.564C1.43139 19.1805 0.819467 18.5686 0.435974 17.816C0 16.9603 0 15.8402 0 13.6V6.4Z" fill="#020202" fill-opacity="0.6"/>
<path d="M9.17409 16.3497L9.17729 16.3517C9.28176 16.4179 9.40662 16.4883 9.53462 16.544C9.64982 16.5941 9.82096 16.6566 10.001 16.6566C10.1831 16.6566 10.3536 16.5949 10.4709 16.5435C10.599 16.4873 10.7223 16.4165 10.8247 16.3517L10.8247 16.3517L10.8279 16.3497C14.1939 14.1819 16.541 11.528 16.541 8.69322C16.541 6.25266 14.8335 4.46753 12.6203 4.46753C11.5086 4.46753 10.6238 4.96075 10.0012 5.71852C9.38036 4.96351 8.49352 4.46753 7.38761 4.46753C5.17549 4.46753 3.46094 6.25149 3.46094 8.69322C3.46094 11.528 5.80807 14.1819 9.17409 16.3497Z" fill="#F8370C" stroke="white"/>
</svg>
