<svg width="10" height="3" viewBox="0 0 10 3" fill="none" xmlns="http://www.w3.org/2000/svg">
<path d="M1.49009 2.09961C0.945777 2.09961 0.5 1.64937 0.5 1.09961C0.5 0.545107 0.945777 0.0996094 1.49009 0.0996094C2.05318 0.0996094 2.49426 0.540368 2.49426 1.09961C2.49426 1.64937 2.0438 2.09961 1.49009 2.09961ZM5 2.09961C4.45099 2.09961 4.00991 1.64937 4.00991 1.09961C4.00991 0.545107 4.45099 0.0996094 5 0.0996094C5.5537 0.0996094 5.9854 0.540368 5.9854 1.09961C5.9854 1.64937 5.53962 2.09961 5 2.09961ZM8.50521 2.09961C7.95151 2.09961 7.50574 1.64937 7.50574 1.09961C7.50574 0.545107 7.95151 0.0996094 8.50521 0.0996094C9.05892 0.0996094 9.5 0.540368 9.5 1.09961C9.5 1.64937 9.04953 2.09961 8.50521 2.09961Z" fill="#304099"/>
</svg>
