<svg width="15" height="15" viewBox="0 0 15 15" fill="none" xmlns="http://www.w3.org/2000/svg">
<path d="M5.59417 3.11998C5.58892 2.85221 5.76218 2.69995 6.06145 2.69995H10.3352C11.4325 2.69995 11.9838 3.24073 11.9838 4.32755V10.0609L12.7608 9.23134L13.2649 8.73781C13.4434 8.5593 13.6954 8.54355 13.8739 8.72206C14.0472 8.90057 14.0419 9.15783 13.8582 9.33634L12.0941 11.0952C11.7475 11.4365 11.3695 11.4365 11.023 11.0952L9.25363 9.33634C9.07512 9.15783 9.06462 8.90057 9.24313 8.72206C9.42689 8.54355 9.67366 8.56455 9.85217 8.73781L10.3562 9.23134L11.1385 10.0714V4.36955C11.1385 3.82352 10.8497 3.54525 10.3247 3.54525H6.06145C5.76218 3.54525 5.59942 3.38774 5.59417 3.11998ZM1.12615 6.33842C0.952894 6.16516 0.958144 5.90789 1.1419 5.72938L2.91126 3.96528C3.25253 3.62926 3.6358 3.62926 3.97707 3.96528L5.74643 5.72938C5.92494 5.90789 5.93544 6.16516 5.75693 6.33842C5.57842 6.52218 5.3264 6.50118 5.14789 6.32792L4.64386 5.82914L3.86157 4.99434V10.6962C3.86157 11.2422 4.15558 11.5205 4.68061 11.5205H8.93862C9.23788 11.5205 9.40064 11.6727 9.40589 11.9457C9.41114 12.2135 9.23788 12.3658 8.93862 12.3658H4.66486C3.5728 12.3658 3.01627 11.825 3.01627 10.7382V5.00484L2.23922 5.82914L1.73519 6.32792C1.55668 6.50118 1.30991 6.52218 1.12615 6.33842Z" fill="#6F8617"/>
</svg>
