<svg width="28" height="26" viewBox="0 0 28 26" fill="none" xmlns="http://www.w3.org/2000/svg">
<path d="M9.53418 1.47168H23.1338C23.0586 0.515625 22.5 0 21.4688 0H11.1885C10.168 0 9.59863 0.515625 9.53418 1.47168ZM7.34277 4.56543H25.3252C25.1748 3.54492 24.6592 2.96484 23.5205 2.96484H9.14746C8.00879 2.96484 7.49316 3.54492 7.34277 4.56543ZM11.7363 24.3418H24.1543C26.4639 24.3418 27.6777 23.1387 27.6777 20.8506V9.80762C27.6777 7.50879 26.4639 6.31641 24.1543 6.31641H8.50293C6.18262 6.31641 4.97949 7.50879 4.97949 9.80762V13.2881C5.32324 13.2344 5.67773 13.1914 6.03223 13.1914C6.38672 13.1914 6.73047 13.2344 7.08496 13.2881V9.97949C7.08496 8.9375 7.63281 8.42188 8.63184 8.42188H24.0254C25.0137 8.42188 25.5723 8.9375 25.5723 9.97949V20.668C25.5723 21.71 25.0137 22.2363 24.0254 22.2363H12.7676C12.5635 22.999 12.209 23.7188 11.7363 24.3418ZM6.03223 25.7812C9.04004 25.7812 11.5645 23.2676 11.5645 20.249C11.5645 17.2197 9.06152 14.7275 6.03223 14.7275C3.00293 14.7275 0.5 17.2197 0.5 20.249C0.5 23.2891 3.00293 25.7812 6.03223 25.7812ZM6.03223 23.751C5.5918 23.751 5.30176 23.4609 5.30176 23.0312V20.9795H3.26074C2.83105 20.9795 2.53027 20.7002 2.53027 20.249C2.53027 19.8086 2.83105 19.5186 3.26074 19.5186H5.30176V17.4883C5.30176 17.0586 5.5918 16.7578 6.03223 16.7578C6.47266 16.7578 6.7627 17.0479 6.7627 17.4883V19.5186H8.80371C9.24414 19.5186 9.53418 19.8086 9.53418 20.249C9.53418 20.7002 9.24414 20.9795 8.80371 20.9795H6.7627V23.0312C6.7627 23.4609 6.47266 23.751 6.03223 23.751Z" fill="#1A645A"/>
</svg>
