<svg width="41" height="40" viewBox="0 0 41 40" fill="none" xmlns="http://www.w3.org/2000/svg">
<path d="M32.5 20C32.5 19.6124 32.3349 19.2248 32.0429 18.9535L23.6873 10.4522C23.3698 10.1292 23.027 10 22.6714 10C21.8841 10 21.3127 10.5685 21.3127 11.3437C21.3127 11.7442 21.4651 12.093 21.719 12.3514L24.5635 15.2842L28.2968 18.7726L25.3508 18.5917H9.90952C9.07143 18.5917 8.5 19.1602 8.5 20C8.5 20.8269 9.07143 21.4083 9.90952 21.4083H25.3508L28.3095 21.2274L24.5635 24.7158L21.719 27.6486C21.4651 27.8941 21.3127 28.2429 21.3127 28.6434C21.3127 29.4186 21.8841 30 22.6714 30C23.027 30 23.3571 29.8579 23.6619 29.5607L32.0429 21.0465C32.3349 20.7623 32.5 20.3876 32.5 20Z" fill="white"/>
</svg>
