<svg width="367" height="142" viewBox="0 0 367 142" fill="none" xmlns="http://www.w3.org/2000/svg">
<rect y="12" width="100" height="118" fill="#FFFFFD"/>
<rect x="100" y="12" width="255" height="76" fill="#90FFE4"/>
<path d="M166.672 54.5781H172.141C172.214 55.401 172.625 56.0573 173.375 56.5469C174.135 57.026 175.109 57.2656 176.297 57.2656C177.37 57.2656 178.24 57.0312 178.906 56.5625C179.573 56.0938 179.906 55.4896 179.906 54.75C179.906 54.125 179.635 53.6302 179.094 53.2656C178.552 52.8906 177.635 52.5729 176.344 52.3125L173.375 51.7188C171.312 51.3333 169.755 50.5833 168.703 49.4688C167.651 48.3542 167.125 46.9115 167.125 45.1406C167.125 42.9323 167.938 41.1667 169.562 39.8438C171.198 38.5104 173.375 37.8438 176.094 37.8438C178.729 37.8438 180.88 38.4948 182.547 39.7969C184.214 41.099 185.073 42.7917 185.125 44.875H179.828C179.766 44.0833 179.391 43.4375 178.703 42.9375C178.026 42.4271 177.182 42.1719 176.172 42.1719C175.161 42.1719 174.349 42.3958 173.734 42.8438C173.13 43.2812 172.828 43.875 172.828 44.625C172.828 45.2396 173.094 45.7396 173.625 46.125C174.156 46.5104 175.016 46.8177 176.203 47.0469L179.109 47.6094C181.339 48.0365 182.969 48.7708 184 49.8125C185.042 50.8542 185.562 52.2708 185.562 54.0625C185.562 56.4167 184.719 58.2656 183.031 59.6094C181.344 60.9427 179.021 61.6094 176.062 61.6094C173.208 61.6094 170.938 60.9792 169.25 59.7188C167.573 58.4583 166.714 56.7448 166.672 54.5781ZM189.562 61V37.0938H194.969V46.5H195.266C195.651 45.5 196.302 44.7135 197.219 44.1406C198.135 43.5677 199.219 43.2812 200.469 43.2812C202.365 43.2812 203.828 43.849 204.859 44.9844C205.901 46.1094 206.422 47.724 206.422 49.8281V61H200.906V51.0781C200.906 50.0052 200.667 49.1875 200.188 48.625C199.708 48.0625 199.01 47.7812 198.094 47.7812C197.156 47.7812 196.417 48.0885 195.875 48.7031C195.344 49.3177 195.078 50.1302 195.078 51.1406V61H189.562ZM218.594 61.4062C215.812 61.4062 213.641 60.6042 212.078 59C210.516 57.3958 209.734 55.1615 209.734 52.2969C209.734 49.4844 210.526 47.2656 212.109 45.6406C213.693 44.0156 215.854 43.2031 218.594 43.2031C221.344 43.2031 223.505 44.0156 225.078 45.6406C226.661 47.2552 227.453 49.474 227.453 52.2969C227.453 55.1615 226.672 57.3958 225.109 59C223.557 60.6042 221.385 61.4062 218.594 61.4062ZM216.234 55.9062C216.797 56.7604 217.583 57.1875 218.594 57.1875C219.604 57.1875 220.385 56.7604 220.938 55.9062C221.5 55.0521 221.781 53.849 221.781 52.2969C221.781 50.776 221.5 49.5833 220.938 48.7188C220.375 47.8542 219.594 47.4219 218.594 47.4219C217.594 47.4219 216.812 47.8542 216.25 48.7188C215.688 49.5833 215.406 50.776 215.406 52.2969C215.406 53.849 215.682 55.0521 216.234 55.9062ZM241.766 43.3438C243.964 43.3438 245.677 44.1302 246.906 45.7031C248.146 47.2656 248.766 49.4635 248.766 52.2969C248.766 55.1302 248.161 57.3333 246.953 58.9062C245.745 60.4792 244.057 61.2656 241.891 61.2656C240.641 61.2656 239.568 61.0104 238.672 60.5C237.776 59.9792 237.125 59.2552 236.719 58.3281H236.422V66.75H230.906V43.6094H236.281V46.4375H236.578C237.005 45.4688 237.677 44.7135 238.594 44.1719C239.51 43.6198 240.568 43.3438 241.766 43.3438ZM237.281 55.7031C237.875 56.5156 238.698 56.9219 239.75 56.9219C240.802 56.9219 241.62 56.5156 242.203 55.7031C242.797 54.8802 243.094 53.7448 243.094 52.2969C243.094 50.8594 242.797 49.7344 242.203 48.9219C241.609 48.099 240.792 47.6875 239.75 47.6875C238.708 47.6875 237.885 48.099 237.281 48.9219C236.688 49.7448 236.391 50.875 236.391 52.3125C236.391 53.7604 236.688 54.8906 237.281 55.7031ZM263.078 43.3438C265.276 43.3438 266.99 44.1302 268.219 45.7031C269.458 47.2656 270.078 49.4635 270.078 52.2969C270.078 55.1302 269.474 57.3333 268.266 58.9062C267.057 60.4792 265.37 61.2656 263.203 61.2656C261.953 61.2656 260.88 61.0104 259.984 60.5C259.089 59.9792 258.438 59.2552 258.031 58.3281H257.734V66.75H252.219V43.6094H257.594V46.4375H257.891C258.318 45.4688 258.99 44.7135 259.906 44.1719C260.823 43.6198 261.88 43.3438 263.078 43.3438ZM258.594 55.7031C259.188 56.5156 260.01 56.9219 261.062 56.9219C262.115 56.9219 262.932 56.5156 263.516 55.7031C264.109 54.8802 264.406 53.7448 264.406 52.2969C264.406 50.8594 264.109 49.7344 263.516 48.9219C262.922 48.099 262.104 47.6875 261.062 47.6875C260.021 47.6875 259.198 48.099 258.594 48.9219C258 49.7448 257.703 50.875 257.703 52.3125C257.703 53.7604 258 54.8906 258.594 55.7031ZM275.281 67.3281C273.99 67.3281 273.318 67.3229 273.266 67.3125V63.1094C273.37 63.1302 273.693 63.1406 274.234 63.1406C276.068 63.1406 277.078 62.6354 277.266 61.625L277.344 61.1406L271.406 43.6094H277.516L280.625 56.3594H280.922L284.031 43.6094H289.875L284.281 60.9688C283.542 63.2812 282.479 64.9167 281.094 65.875C279.719 66.8438 277.781 67.3281 275.281 67.3281Z" fill="#004E43"/>
<rect x="100" y="88" width="255" height="42" fill="#1A645A"/>
<path d="M124.042 111.345V113H117.304V102.431H119.193V111.345H124.042ZM125.91 113V104.987H127.719V113H125.91ZM126.811 103.684C126.483 103.684 126.215 103.591 126.005 103.405C125.795 103.215 125.69 102.973 125.69 102.68C125.69 102.387 125.795 102.148 126.005 101.962C126.215 101.772 126.483 101.677 126.811 101.677C127.143 101.677 127.411 101.772 127.616 101.962C127.826 102.148 127.931 102.387 127.931 102.68C127.931 102.973 127.826 103.215 127.616 103.405C127.411 103.591 127.143 103.684 126.811 103.684ZM129.792 107.28C129.792 106.557 130.089 105.969 130.685 105.515C131.281 105.056 132.052 104.826 133 104.826C133.952 104.826 134.711 105.029 135.277 105.434C135.849 105.834 136.166 106.398 136.229 107.126H134.523C134.455 106.838 134.289 106.613 134.025 106.452C133.766 106.286 133.427 106.203 133.007 106.203C132.587 106.203 132.24 106.293 131.967 106.474C131.693 106.655 131.557 106.889 131.557 107.177C131.557 107.402 131.652 107.587 131.842 107.734C132.038 107.88 132.338 108 132.743 108.093L134.157 108.415C134.928 108.591 135.495 108.852 135.856 109.199C136.217 109.545 136.398 110.012 136.398 110.598C136.398 111.364 136.081 111.984 135.446 112.458C134.811 112.927 133.991 113.161 132.985 113.161C131.984 113.161 131.183 112.956 130.583 112.546C129.987 112.136 129.655 111.567 129.586 110.839H131.381C131.469 111.142 131.652 111.376 131.93 111.542C132.213 111.704 132.58 111.784 133.029 111.784C133.488 111.784 133.861 111.694 134.149 111.513C134.438 111.328 134.582 111.086 134.582 110.788C134.582 110.344 134.213 110.041 133.476 109.88L132.055 109.55C131.283 109.375 130.712 109.104 130.341 108.737C129.975 108.366 129.792 107.88 129.792 107.28ZM138.756 103.024H140.565V105.039H142.279V106.489H140.565V110.422C140.565 110.817 140.653 111.108 140.829 111.293C141.005 111.474 141.283 111.564 141.664 111.564C141.83 111.564 142.035 111.552 142.279 111.528V112.949C141.977 113.007 141.659 113.037 141.327 113.037C140.409 113.037 139.75 112.868 139.35 112.531C138.954 112.194 138.756 111.638 138.756 110.861V106.489H137.489V105.039H138.756V103.024ZM147.384 106.269C146.842 106.269 146.396 106.447 146.044 106.804C145.692 107.16 145.497 107.631 145.458 108.217H149.23C149.21 107.622 149.035 107.148 148.703 106.796C148.371 106.445 147.931 106.269 147.384 106.269ZM149.245 110.795H150.966C150.795 111.528 150.392 112.106 149.757 112.531C149.127 112.951 148.344 113.161 147.406 113.161C146.229 113.161 145.304 112.795 144.63 112.062C143.961 111.325 143.627 110.312 143.627 109.023C143.627 107.734 143.964 106.713 144.638 105.961C145.312 105.205 146.229 104.826 147.392 104.826C148.534 104.826 149.428 105.185 150.072 105.903C150.722 106.616 151.046 107.604 151.046 108.869V109.455H145.451V109.55C145.475 110.219 145.666 110.749 146.022 111.14C146.383 111.525 146.862 111.718 147.458 111.718C148.375 111.718 148.971 111.411 149.245 110.795ZM152.87 113V104.987H154.621V106.269H154.745C154.94 105.81 155.238 105.456 155.639 105.207C156.044 104.953 156.54 104.826 157.125 104.826C158.014 104.826 158.695 105.085 159.169 105.603C159.647 106.12 159.887 106.857 159.887 107.814V113H158.07V108.247C158.07 107.021 157.531 106.408 156.452 106.408C155.91 106.408 155.48 106.582 155.163 106.928C154.845 107.275 154.687 107.744 154.687 108.334V113H152.87ZM168.778 111.704C169.325 111.704 169.782 111.547 170.148 111.235C170.514 110.917 170.697 110.527 170.697 110.063V109.426L168.888 109.543C167.892 109.606 167.394 109.968 167.394 110.627C167.394 110.959 167.521 111.223 167.775 111.418C168.034 111.608 168.368 111.704 168.778 111.704ZM168.244 113.132C167.462 113.132 166.825 112.912 166.332 112.473C165.839 112.033 165.592 111.452 165.592 110.729C165.592 110.007 165.854 109.44 166.376 109.03C166.903 108.62 167.655 108.386 168.632 108.327L170.697 108.203V107.529C170.697 107.133 170.568 106.831 170.309 106.621C170.05 106.411 169.677 106.306 169.188 106.306C168.769 106.306 168.422 106.379 168.148 106.525C167.875 106.667 167.697 106.872 167.614 107.141H165.9C165.973 106.433 166.315 105.871 166.925 105.456C167.541 105.036 168.324 104.826 169.276 104.826C170.302 104.826 171.093 105.063 171.649 105.537C172.211 106.01 172.492 106.674 172.492 107.529V113H170.741V111.901H170.617C170.392 112.287 170.07 112.59 169.65 112.81C169.235 113.024 168.766 113.132 168.244 113.132ZM181.654 104.987V113H179.904V111.726H179.779C179.374 112.683 178.576 113.161 177.384 113.161C176.51 113.161 175.829 112.902 175.341 112.385C174.853 111.862 174.608 111.132 174.608 110.195V104.987H176.425V109.741C176.425 110.356 176.554 110.815 176.813 111.118C177.072 111.416 177.472 111.564 178.014 111.564C178.6 111.564 179.049 111.396 179.362 111.059C179.679 110.722 179.838 110.253 179.838 109.653V104.987H181.654ZM183.698 107.28C183.698 106.557 183.996 105.969 184.591 105.515C185.187 105.056 185.958 104.826 186.906 104.826C187.858 104.826 188.617 105.029 189.184 105.434C189.755 105.834 190.072 106.398 190.136 107.126H188.429C188.361 106.838 188.195 106.613 187.931 106.452C187.672 106.286 187.333 106.203 186.913 106.203C186.493 106.203 186.146 106.293 185.873 106.474C185.6 106.655 185.463 106.889 185.463 107.177C185.463 107.402 185.558 107.587 185.749 107.734C185.944 107.88 186.244 108 186.649 108.093L188.063 108.415C188.834 108.591 189.401 108.852 189.762 109.199C190.124 109.545 190.304 110.012 190.304 110.598C190.304 111.364 189.987 111.984 189.352 112.458C188.717 112.927 187.897 113.161 186.891 113.161C185.89 113.161 185.089 112.956 184.489 112.546C183.893 112.136 183.561 111.567 183.493 110.839H185.287C185.375 111.142 185.558 111.376 185.836 111.542C186.12 111.704 186.486 111.784 186.935 111.784C187.394 111.784 187.768 111.694 188.056 111.513C188.344 111.328 188.488 111.086 188.488 110.788C188.488 110.344 188.119 110.041 187.382 109.88L185.961 109.55C185.189 109.375 184.618 109.104 184.247 108.737C183.881 108.366 183.698 107.88 183.698 107.28ZM196.164 113V104.987H197.973V113H196.164ZM197.064 103.684C196.737 103.684 196.469 103.591 196.259 103.405C196.049 103.215 195.944 102.973 195.944 102.68C195.944 102.387 196.049 102.148 196.259 101.962C196.469 101.772 196.737 101.677 197.064 101.677C197.396 101.677 197.665 101.772 197.87 101.962C198.08 102.148 198.185 102.387 198.185 102.68C198.185 102.973 198.08 103.215 197.87 103.405C197.665 103.591 197.396 103.684 197.064 103.684ZM200.229 113V104.987H201.979V106.232H202.104C202.216 105.832 202.467 105.502 202.858 105.244C203.253 104.985 203.708 104.855 204.22 104.855C204.547 104.855 204.799 104.882 204.975 104.936V106.621C204.789 106.552 204.479 106.518 204.044 106.518C203.454 106.518 202.973 106.689 202.602 107.031C202.23 107.368 202.045 107.814 202.045 108.371V113H200.229ZM208.241 110.737C208.588 111.181 209.076 111.403 209.706 111.403C210.336 111.403 210.832 111.179 211.193 110.729C211.554 110.28 211.735 109.672 211.735 108.906C211.735 108.139 211.554 107.531 211.193 107.082C210.832 106.628 210.336 106.401 209.706 106.401C209.081 106.401 208.593 106.625 208.241 107.075C207.895 107.524 207.721 108.134 207.721 108.906C207.721 109.677 207.895 110.288 208.241 110.737ZM209.706 116.047C208.686 116.047 207.855 115.839 207.216 115.424C206.581 115.009 206.227 114.455 206.154 113.762H207.978C208.036 114.04 208.219 114.26 208.527 114.421C208.839 114.582 209.242 114.663 209.735 114.663C210.355 114.663 210.839 114.523 211.186 114.245C211.532 113.967 211.706 113.576 211.706 113.073V111.557H211.581C211.352 111.987 211.024 112.316 210.6 112.546C210.18 112.771 209.691 112.883 209.135 112.883C208.129 112.883 207.331 112.524 206.74 111.806C206.149 111.083 205.854 110.117 205.854 108.906C205.854 107.675 206.151 106.694 206.747 105.961C207.343 105.224 208.148 104.855 209.164 104.855C209.711 104.855 210.207 104.982 210.651 105.236C211.095 105.49 211.427 105.834 211.647 106.269H211.771V104.987H213.522V113.029C213.522 113.957 213.178 114.692 212.489 115.234C211.801 115.776 210.873 116.047 209.706 116.047ZM219.118 106.269C218.576 106.269 218.129 106.447 217.777 106.804C217.426 107.16 217.23 107.631 217.191 108.217H220.963C220.944 107.622 220.768 107.148 220.436 106.796C220.104 106.445 219.665 106.269 219.118 106.269ZM220.978 110.795H222.699C222.528 111.528 222.125 112.106 221.491 112.531C220.861 112.951 220.077 113.161 219.14 113.161C217.963 113.161 217.038 112.795 216.364 112.062C215.695 111.325 215.36 110.312 215.36 109.023C215.36 107.734 215.697 106.713 216.371 105.961C217.045 105.205 217.963 104.826 219.125 104.826C220.268 104.826 221.161 105.185 221.806 105.903C222.455 106.616 222.78 107.604 222.78 108.869V109.455H217.184V109.55C217.208 110.219 217.399 110.749 217.755 111.14C218.117 111.525 218.595 111.718 219.191 111.718C220.109 111.718 220.705 111.411 220.978 110.795ZM224.604 113V104.987H226.354V106.269H226.479C226.674 105.81 226.972 105.456 227.372 105.207C227.777 104.953 228.273 104.826 228.859 104.826C229.748 104.826 230.429 105.085 230.902 105.603C231.381 106.12 231.62 106.857 231.62 107.814V113H229.804V108.247C229.804 107.021 229.264 106.408 228.185 106.408C227.643 106.408 227.213 106.582 226.896 106.928C226.579 107.275 226.42 107.744 226.42 108.334V113H224.604ZM236.674 113.132C235.658 113.132 234.855 112.761 234.264 112.019C233.673 111.271 233.378 110.261 233.378 108.986C233.378 107.722 233.673 106.718 234.264 105.976C234.86 105.229 235.663 104.855 236.674 104.855C237.221 104.855 237.709 104.98 238.139 105.229C238.568 105.478 238.891 105.822 239.105 106.262H239.23V101.889H241.046V113H239.289V111.733H239.164C238.935 112.172 238.6 112.517 238.161 112.766C237.726 113.01 237.23 113.132 236.674 113.132ZM238.71 107.097C238.349 106.633 237.858 106.401 237.238 106.401C236.618 106.401 236.129 106.633 235.773 107.097C235.417 107.556 235.238 108.188 235.238 108.994C235.238 109.804 235.414 110.439 235.766 110.898C236.122 111.357 236.613 111.586 237.238 111.586C237.863 111.586 238.354 111.357 238.71 110.898C239.071 110.434 239.252 109.799 239.252 108.994C239.252 108.193 239.071 107.561 238.71 107.097ZM246.701 106.269C246.159 106.269 245.712 106.447 245.36 106.804C245.009 107.16 244.813 107.631 244.774 108.217H248.546C248.527 107.622 248.351 107.148 248.019 106.796C247.687 106.445 247.248 106.269 246.701 106.269ZM248.561 110.795H250.282C250.111 111.528 249.708 112.106 249.074 112.531C248.444 112.951 247.66 113.161 246.723 113.161C245.546 113.161 244.621 112.795 243.947 112.062C243.278 111.325 242.943 110.312 242.943 109.023C242.943 107.734 243.28 106.713 243.954 105.961C244.628 105.205 245.546 104.826 246.708 104.826C247.851 104.826 248.744 105.185 249.389 105.903C250.038 106.616 250.363 107.604 250.363 108.869V109.455H244.767V109.55C244.792 110.219 244.982 110.749 245.338 111.14C245.7 111.525 246.178 111.718 246.774 111.718C247.692 111.718 248.288 111.411 248.561 110.795ZM252.208 113V104.987H254.018V113H252.208ZM253.109 103.684C252.782 103.684 252.514 103.591 252.304 103.405C252.094 103.215 251.989 102.973 251.989 102.68C251.989 102.387 252.094 102.148 252.304 101.962C252.514 101.772 252.782 101.677 253.109 101.677C253.441 101.677 253.71 101.772 253.915 101.962C254.125 102.148 254.23 102.387 254.23 102.68C254.23 102.973 254.125 103.215 253.915 103.405C253.71 103.591 253.441 103.684 253.109 103.684ZM256.273 113V104.987H258.024V106.269H258.148C258.344 105.81 258.642 105.456 259.042 105.207C259.447 104.953 259.943 104.826 260.529 104.826C261.417 104.826 262.099 105.085 262.572 105.603C263.051 106.12 263.29 106.857 263.29 107.814V113H261.474V108.247C261.474 107.021 260.934 106.408 259.855 106.408C259.313 106.408 258.883 106.582 258.566 106.928C258.249 107.275 258.09 107.744 258.09 108.334V113H256.273ZM268.805 106.269C268.263 106.269 267.816 106.447 267.465 106.804C267.113 107.16 266.918 107.631 266.879 108.217H270.651C270.631 107.622 270.456 107.148 270.124 106.796C269.792 106.445 269.352 106.269 268.805 106.269ZM270.666 110.795H272.387C272.216 111.528 271.813 112.106 271.178 112.531C270.548 112.951 269.765 113.161 268.827 113.161C267.65 113.161 266.725 112.795 266.051 112.062C265.382 111.325 265.048 110.312 265.048 109.023C265.048 107.734 265.385 106.713 266.059 105.961C266.732 105.205 267.65 104.826 268.812 104.826C269.955 104.826 270.849 105.185 271.493 105.903C272.143 106.616 272.467 107.604 272.467 108.869V109.455H266.872V109.55C266.896 110.219 267.086 110.749 267.443 111.14C267.804 111.525 268.283 111.718 268.878 111.718C269.796 111.718 270.392 111.411 270.666 110.795ZM274.291 113V104.987H276.042V106.284H276.166C276.337 105.825 276.618 105.468 277.008 105.214C277.399 104.956 277.86 104.826 278.393 104.826C278.935 104.826 279.396 104.956 279.777 105.214C280.158 105.468 280.434 105.825 280.604 106.284H280.729C280.929 105.839 281.247 105.485 281.681 105.222C282.116 104.958 282.609 104.826 283.161 104.826C283.961 104.826 284.589 105.063 285.043 105.537C285.502 106.01 285.731 106.662 285.731 107.492V113H283.922V107.954C283.922 106.923 283.434 106.408 282.458 106.408C281.989 106.408 281.61 106.56 281.322 106.862C281.034 107.165 280.89 107.548 280.89 108.012V113H279.125V107.822C279.125 107.382 278.996 107.038 278.737 106.789C278.478 106.535 278.124 106.408 277.675 106.408C277.226 106.408 276.852 106.572 276.554 106.899C276.256 107.226 276.107 107.636 276.107 108.129V113H274.291ZM301.215 108.767C301.215 110.139 300.797 111.232 299.962 112.048C299.127 112.858 298.004 113.264 296.593 113.264C295.06 113.264 293.849 112.768 292.96 111.777C292.072 110.781 291.627 109.426 291.627 107.712C291.627 106.022 292.074 104.677 292.968 103.676C293.861 102.67 295.06 102.167 296.564 102.167C297.785 102.167 298.808 102.49 299.633 103.134C300.458 103.779 300.956 104.641 301.127 105.72H299.245C299.054 105.119 298.727 104.658 298.263 104.335C297.804 104.013 297.238 103.852 296.564 103.852C295.641 103.852 294.909 104.196 294.367 104.885C293.83 105.573 293.561 106.511 293.561 107.697C293.561 108.898 293.834 109.846 294.381 110.539C294.933 111.232 295.68 111.579 296.623 111.579C297.428 111.579 298.083 111.354 298.585 110.905C299.088 110.456 299.347 109.868 299.362 109.14L299.369 108.92H296.828V107.441H301.215V108.767ZM303.222 113V104.987H304.972V106.232H305.097C305.209 105.832 305.46 105.502 305.851 105.244C306.247 104.985 306.701 104.855 307.213 104.855C307.541 104.855 307.792 104.882 307.968 104.936V106.621C307.782 106.552 307.472 106.518 307.038 106.518C306.447 106.518 305.966 106.689 305.595 107.031C305.224 107.368 305.038 107.814 305.038 108.371V113H303.222ZM316.435 104.987V113H314.684V111.726H314.56C314.154 112.683 313.356 113.161 312.165 113.161C311.291 113.161 310.609 112.902 310.121 112.385C309.633 111.862 309.389 111.132 309.389 110.195V104.987H311.205V109.741C311.205 110.356 311.334 110.815 311.593 111.118C311.852 111.416 312.252 111.564 312.794 111.564C313.38 111.564 313.83 111.396 314.142 111.059C314.459 110.722 314.618 110.253 314.618 109.653V104.987H316.435ZM318.661 113V104.987H320.412V106.269H320.536C320.731 105.81 321.029 105.456 321.43 105.207C321.835 104.953 322.331 104.826 322.917 104.826C323.805 104.826 324.486 105.085 324.96 105.603C325.438 106.12 325.678 106.857 325.678 107.814V113H323.861V108.247C323.861 107.021 323.322 106.408 322.243 106.408C321.701 106.408 321.271 106.582 320.954 106.928C320.636 107.275 320.478 107.744 320.478 108.334V113H318.661ZM330.731 113.132C329.716 113.132 328.913 112.761 328.322 112.019C327.731 111.271 327.436 110.261 327.436 108.986C327.436 107.722 327.731 106.718 328.322 105.976C328.917 105.229 329.721 104.855 330.731 104.855C331.278 104.855 331.767 104.98 332.196 105.229C332.626 105.478 332.948 105.822 333.163 106.262H333.288V101.889H335.104V113H333.346V111.733H333.222C332.992 112.172 332.658 112.517 332.218 112.766C331.784 113.01 331.288 113.132 330.731 113.132ZM332.768 107.097C332.406 106.633 331.916 106.401 331.295 106.401C330.675 106.401 330.187 106.633 329.831 107.097C329.474 107.556 329.296 108.188 329.296 108.994C329.296 109.804 329.472 110.439 329.823 110.898C330.18 111.357 330.67 111.586 331.295 111.586C331.92 111.586 332.411 111.357 332.768 110.898C333.129 110.434 333.31 109.799 333.31 108.994C333.31 108.193 333.129 107.561 332.768 107.097Z" fill="white"/>
<rect x="-6" y="6" width="367" height="130" stroke="#B4AFB6" stroke-width="12"/>
</svg>
