<svg width="367" height="142" viewBox="0 0 367 142" fill="none" xmlns="http://www.w3.org/2000/svg">
<rect y="12" width="100" height="118" fill="#FFFFFD"/>
<rect x="100" y="12" width="255" height="76" fill="#90FFE4"/>
<path d="M166.672 54.5781H172.141C172.214 55.401 172.625 56.0573 173.375 56.5469C174.135 57.026 175.109 57.2656 176.297 57.2656C177.37 57.2656 178.24 57.0312 178.906 56.5625C179.573 56.0938 179.906 55.4896 179.906 54.75C179.906 54.125 179.635 53.6302 179.094 53.2656C178.552 52.8906 177.635 52.5729 176.344 52.3125L173.375 51.7188C171.312 51.3333 169.755 50.5833 168.703 49.4688C167.651 48.3542 167.125 46.9115 167.125 45.1406C167.125 42.9323 167.938 41.1667 169.562 39.8438C171.198 38.5104 173.375 37.8438 176.094 37.8438C178.729 37.8438 180.88 38.4948 182.547 39.7969C184.214 41.099 185.073 42.7917 185.125 44.875H179.828C179.766 44.0833 179.391 43.4375 178.703 42.9375C178.026 42.4271 177.182 42.1719 176.172 42.1719C175.161 42.1719 174.349 42.3958 173.734 42.8438C173.13 43.2812 172.828 43.875 172.828 44.625C172.828 45.2396 173.094 45.7396 173.625 46.125C174.156 46.5104 175.016 46.8177 176.203 47.0469L179.109 47.6094C181.339 48.0365 182.969 48.7708 184 49.8125C185.042 50.8542 185.562 52.2708 185.562 54.0625C185.562 56.4167 184.719 58.2656 183.031 59.6094C181.344 60.9427 179.021 61.6094 176.062 61.6094C173.208 61.6094 170.938 60.9792 169.25 59.7188C167.573 58.4583 166.714 56.7448 166.672 54.5781ZM189.562 61V37.0938H194.969V46.5H195.266C195.651 45.5 196.302 44.7135 197.219 44.1406C198.135 43.5677 199.219 43.2812 200.469 43.2812C202.365 43.2812 203.828 43.849 204.859 44.9844C205.901 46.1094 206.422 47.724 206.422 49.8281V61H200.906V51.0781C200.906 50.0052 200.667 49.1875 200.188 48.625C199.708 48.0625 199.01 47.7812 198.094 47.7812C197.156 47.7812 196.417 48.0885 195.875 48.7031C195.344 49.3177 195.078 50.1302 195.078 51.1406V61H189.562ZM218.594 61.4062C215.812 61.4062 213.641 60.6042 212.078 59C210.516 57.3958 209.734 55.1615 209.734 52.2969C209.734 49.4844 210.526 47.2656 212.109 45.6406C213.693 44.0156 215.854 43.2031 218.594 43.2031C221.344 43.2031 223.505 44.0156 225.078 45.6406C226.661 47.2552 227.453 49.474 227.453 52.2969C227.453 55.1615 226.672 57.3958 225.109 59C223.557 60.6042 221.385 61.4062 218.594 61.4062ZM216.234 55.9062C216.797 56.7604 217.583 57.1875 218.594 57.1875C219.604 57.1875 220.385 56.7604 220.938 55.9062C221.5 55.0521 221.781 53.849 221.781 52.2969C221.781 50.776 221.5 49.5833 220.938 48.7188C220.375 47.8542 219.594 47.4219 218.594 47.4219C217.594 47.4219 216.812 47.8542 216.25 48.7188C215.688 49.5833 215.406 50.776 215.406 52.2969C215.406 53.849 215.682 55.0521 216.234 55.9062ZM241.766 43.3438C243.964 43.3438 245.677 44.1302 246.906 45.7031C248.146 47.2656 248.766 49.4635 248.766 52.2969C248.766 55.1302 248.161 57.3333 246.953 58.9062C245.745 60.4792 244.057 61.2656 241.891 61.2656C240.641 61.2656 239.568 61.0104 238.672 60.5C237.776 59.9792 237.125 59.2552 236.719 58.3281H236.422V66.75H230.906V43.6094H236.281V46.4375H236.578C237.005 45.4688 237.677 44.7135 238.594 44.1719C239.51 43.6198 240.568 43.3438 241.766 43.3438ZM237.281 55.7031C237.875 56.5156 238.698 56.9219 239.75 56.9219C240.802 56.9219 241.62 56.5156 242.203 55.7031C242.797 54.8802 243.094 53.7448 243.094 52.2969C243.094 50.8594 242.797 49.7344 242.203 48.9219C241.609 48.099 240.792 47.6875 239.75 47.6875C238.708 47.6875 237.885 48.099 237.281 48.9219C236.688 49.7448 236.391 50.875 236.391 52.3125C236.391 53.7604 236.688 54.8906 237.281 55.7031ZM263.078 43.3438C265.276 43.3438 266.99 44.1302 268.219 45.7031C269.458 47.2656 270.078 49.4635 270.078 52.2969C270.078 55.1302 269.474 57.3333 268.266 58.9062C267.057 60.4792 265.37 61.2656 263.203 61.2656C261.953 61.2656 260.88 61.0104 259.984 60.5C259.089 59.9792 258.438 59.2552 258.031 58.3281H257.734V66.75H252.219V43.6094H257.594V46.4375H257.891C258.318 45.4688 258.99 44.7135 259.906 44.1719C260.823 43.6198 261.88 43.3438 263.078 43.3438ZM258.594 55.7031C259.188 56.5156 260.01 56.9219 261.062 56.9219C262.115 56.9219 262.932 56.5156 263.516 55.7031C264.109 54.8802 264.406 53.7448 264.406 52.2969C264.406 50.8594 264.109 49.7344 263.516 48.9219C262.922 48.099 262.104 47.6875 261.062 47.6875C260.021 47.6875 259.198 48.099 258.594 48.9219C258 49.7448 257.703 50.875 257.703 52.3125C257.703 53.7604 258 54.8906 258.594 55.7031ZM275.281 67.3281C273.99 67.3281 273.318 67.3229 273.266 67.3125V63.1094C273.37 63.1302 273.693 63.1406 274.234 63.1406C276.068 63.1406 277.078 62.6354 277.266 61.625L277.344 61.1406L271.406 43.6094H277.516L280.625 56.3594H280.922L284.031 43.6094H289.875L284.281 60.9688C283.542 63.2812 282.479 64.9167 281.094 65.875C279.719 66.8438 277.781 67.3281 275.281 67.3281Z" fill="#004E43"/>
<rect x="100" y="88" width="255" height="42" fill="#1A645A"/>
<path d="M110.93 110.746H113.021C113.088 111.283 113.367 111.712 113.86 112.033C114.352 112.348 114.978 112.506 115.736 112.506C116.444 112.506 117.025 112.345 117.479 112.024C117.938 111.698 118.168 111.283 118.168 110.779C118.168 110.348 117.994 109.996 117.645 109.725C117.302 109.454 116.746 109.23 115.977 109.053L114.424 108.696C113.34 108.452 112.535 108.057 112.009 107.509C111.489 106.955 111.229 106.233 111.229 105.342C111.229 104.252 111.635 103.378 112.449 102.719C113.268 102.055 114.347 101.723 115.686 101.723C116.942 101.723 117.983 102.05 118.807 102.703C119.632 103.356 120.069 104.197 120.119 105.226H118.068C117.996 104.7 117.745 104.283 117.313 103.973C116.881 103.663 116.336 103.508 115.678 103.508C114.986 103.508 114.43 103.663 114.009 103.973C113.594 104.277 113.387 104.684 113.387 105.193C113.387 105.597 113.55 105.926 113.876 106.181C114.203 106.43 114.737 106.64 115.479 106.812L116.856 107.127C118.068 107.398 118.945 107.802 119.488 108.339C120.036 108.876 120.31 109.601 120.31 110.514C120.31 111.681 119.886 112.605 119.04 113.286C118.198 113.961 117.053 114.299 115.603 114.299C114.231 114.299 113.121 113.978 112.274 113.336C111.433 112.694 110.985 111.831 110.93 110.746ZM122.584 114V101.408H124.609V106.388H124.759C124.975 105.874 125.32 105.472 125.796 105.185C126.272 104.897 126.845 104.753 127.515 104.753C128.494 104.753 129.258 105.049 129.806 105.641C130.359 106.233 130.636 107.066 130.636 108.14V114H128.577V108.629C128.577 107.943 128.422 107.426 128.112 107.077C127.802 106.723 127.349 106.546 126.751 106.546C126.087 106.546 125.569 106.745 125.199 107.144C124.828 107.536 124.643 108.065 124.643 108.729V114H122.584ZM136.994 114.183C135.633 114.183 134.565 113.765 133.79 112.929C133.015 112.088 132.628 110.931 132.628 109.459C132.628 107.999 133.018 106.847 133.798 106.006C134.579 105.16 135.644 104.736 136.994 104.736C138.35 104.736 139.415 105.157 140.19 105.998C140.97 106.839 141.36 107.993 141.36 109.459C141.36 110.931 140.97 112.088 140.19 112.929C139.415 113.765 138.35 114.183 136.994 114.183ZM135.326 111.676C135.719 112.196 136.275 112.456 136.994 112.456C137.714 112.456 138.267 112.196 138.654 111.676C139.047 111.15 139.244 110.411 139.244 109.459C139.244 108.513 139.047 107.777 138.654 107.251C138.261 106.726 137.708 106.463 136.994 106.463C136.275 106.463 135.719 106.726 135.326 107.251C134.933 107.777 134.736 108.513 134.736 109.459C134.736 110.411 134.933 111.15 135.326 111.676ZM148.383 104.77C149.534 104.77 150.444 105.187 151.114 106.023C151.789 106.859 152.126 108.004 152.126 109.459C152.126 110.909 151.792 112.055 151.122 112.896C150.458 113.732 149.553 114.149 148.408 114.149C147.76 114.149 147.193 114.017 146.706 113.751C146.225 113.48 145.868 113.104 145.635 112.622H145.494V117.021H143.436V104.919H145.419V106.421H145.561C145.821 105.907 146.2 105.503 146.698 105.209C147.201 104.916 147.763 104.77 148.383 104.77ZM147.735 112.398C148.449 112.398 149.005 112.138 149.404 111.618C149.808 111.097 150.01 110.378 150.01 109.459C150.01 108.541 149.808 107.821 149.404 107.301C149.005 106.781 148.452 106.521 147.744 106.521C147.041 106.521 146.485 106.784 146.075 107.31C145.666 107.835 145.458 108.552 145.453 109.459C145.458 110.367 145.663 111.084 146.067 111.609C146.476 112.135 147.033 112.398 147.735 112.398ZM159.141 104.77C160.292 104.77 161.202 105.187 161.872 106.023C162.547 106.859 162.884 108.004 162.884 109.459C162.884 110.909 162.549 112.055 161.88 112.896C161.216 113.732 160.311 114.149 159.166 114.149C158.518 114.149 157.951 114.017 157.464 113.751C156.982 113.48 156.625 113.104 156.393 112.622H156.252V117.021H154.193V104.919H156.177V106.421H156.318C156.578 105.907 156.958 105.503 157.456 105.209C157.959 104.916 158.521 104.77 159.141 104.77ZM158.493 112.398C159.207 112.398 159.763 112.138 160.162 111.618C160.566 111.097 160.768 110.378 160.768 109.459C160.768 108.541 160.566 107.821 160.162 107.301C159.763 106.781 159.21 106.521 158.501 106.521C157.799 106.521 157.243 106.784 156.833 107.31C156.424 107.835 156.216 108.552 156.21 109.459C156.216 110.367 156.421 111.084 156.825 111.609C157.234 112.135 157.79 112.398 158.493 112.398ZM164.976 114V104.919H167.026V114H164.976ZM165.997 103.441C165.626 103.441 165.322 103.336 165.084 103.126C164.846 102.91 164.727 102.636 164.727 102.304C164.727 101.972 164.846 101.701 165.084 101.491C165.322 101.275 165.626 101.167 165.997 101.167C166.373 101.167 166.678 101.275 166.91 101.491C167.148 101.701 167.267 101.972 167.267 102.304C167.267 102.636 167.148 102.91 166.91 103.126C166.678 103.336 166.373 103.441 165.997 103.441ZM169.583 114V104.919H171.567V106.372H171.708C171.929 105.851 172.267 105.45 172.721 105.168C173.18 104.88 173.742 104.736 174.406 104.736C175.413 104.736 176.185 105.03 176.722 105.616C177.264 106.203 177.535 107.038 177.535 108.123V114H175.477V108.613C175.477 107.224 174.865 106.529 173.642 106.529C173.028 106.529 172.541 106.726 172.181 107.119C171.821 107.512 171.642 108.043 171.642 108.712V114H169.583ZM182.217 111.435C182.61 111.939 183.163 112.19 183.877 112.19C184.591 112.19 185.153 111.936 185.562 111.427C185.972 110.918 186.176 110.229 186.176 109.36C186.176 108.491 185.972 107.802 185.562 107.293C185.153 106.778 184.591 106.521 183.877 106.521C183.169 106.521 182.615 106.776 182.217 107.285C181.824 107.794 181.627 108.486 181.627 109.36C181.627 110.234 181.824 110.926 182.217 111.435ZM183.877 117.453C182.72 117.453 181.78 117.218 181.055 116.748C180.335 116.277 179.934 115.649 179.851 114.863H181.918C181.984 115.179 182.192 115.428 182.541 115.61C182.895 115.793 183.351 115.884 183.91 115.884C184.613 115.884 185.161 115.727 185.554 115.411C185.947 115.096 186.143 114.653 186.143 114.083V112.365H186.002C185.742 112.852 185.371 113.225 184.89 113.485C184.414 113.74 183.86 113.867 183.229 113.867C182.09 113.867 181.185 113.46 180.515 112.647C179.846 111.828 179.511 110.732 179.511 109.36C179.511 107.965 179.848 106.853 180.523 106.023C181.199 105.187 182.112 104.77 183.263 104.77C183.882 104.77 184.444 104.913 184.948 105.201C185.451 105.489 185.828 105.879 186.077 106.372H186.218V104.919H188.202V114.033C188.202 115.085 187.812 115.917 187.031 116.532C186.251 117.146 185.2 117.453 183.877 117.453ZM195.349 114V101.408H197.407V114H195.349ZM200.039 114V104.919H202.089V114H200.039ZM201.06 103.441C200.689 103.441 200.384 103.336 200.146 103.126C199.909 102.91 199.79 102.636 199.79 102.304C199.79 101.972 199.909 101.701 200.146 101.491C200.384 101.275 200.689 101.167 201.06 101.167C201.436 101.167 201.74 101.275 201.973 101.491C202.211 101.701 202.33 101.972 202.33 102.304C202.33 102.636 202.211 102.91 201.973 103.126C201.74 103.336 201.436 103.441 201.06 103.441ZM204.438 107.517C204.438 106.698 204.776 106.031 205.451 105.517C206.126 104.996 207 104.736 208.074 104.736C209.153 104.736 210.013 104.966 210.655 105.425C211.303 105.879 211.662 106.518 211.734 107.343H209.8C209.723 107.016 209.535 106.762 209.236 106.579C208.943 106.391 208.558 106.297 208.082 106.297C207.606 106.297 207.213 106.399 206.903 106.604C206.593 106.809 206.438 107.074 206.438 107.401C206.438 107.655 206.546 107.866 206.762 108.032C206.984 108.198 207.324 108.333 207.783 108.438L209.385 108.804C210.26 109.003 210.902 109.299 211.311 109.692C211.721 110.085 211.925 110.613 211.925 111.277C211.925 112.146 211.566 112.849 210.846 113.386C210.127 113.917 209.197 114.183 208.057 114.183C206.923 114.183 206.015 113.95 205.334 113.485C204.659 113.021 204.283 112.376 204.206 111.551H206.239C206.339 111.894 206.546 112.16 206.862 112.348C207.183 112.531 207.598 112.622 208.107 112.622C208.627 112.622 209.05 112.52 209.377 112.315C209.703 112.105 209.867 111.831 209.867 111.493C209.867 110.99 209.449 110.646 208.613 110.464L207.003 110.09C206.129 109.891 205.481 109.584 205.061 109.169C204.646 108.748 204.438 108.198 204.438 107.517ZM214.598 102.694H216.648V104.977H218.591V106.621H216.648V111.078C216.648 111.526 216.748 111.856 216.947 112.066C217.146 112.271 217.462 112.373 217.894 112.373C218.082 112.373 218.314 112.359 218.591 112.332V113.942C218.248 114.008 217.888 114.042 217.512 114.042C216.471 114.042 215.724 113.851 215.271 113.469C214.822 113.087 214.598 112.456 214.598 111.576V106.621H213.162V104.977H214.598V102.694ZM225.846 114V106.621H224.36V104.977H225.846V104.022C225.846 103.115 226.084 102.437 226.56 101.989C227.041 101.541 227.783 101.316 228.784 101.316C229.199 101.316 229.581 101.347 229.93 101.408V102.918C229.747 102.891 229.512 102.877 229.224 102.877C228.748 102.877 228.402 102.982 228.187 103.192C227.976 103.397 227.871 103.718 227.871 104.155V104.977H229.847V106.621H227.896V114H225.846ZM235.425 114.183C234.063 114.183 232.995 113.765 232.221 112.929C231.446 112.088 231.059 110.931 231.059 109.459C231.059 107.999 231.449 106.847 232.229 106.006C233.009 105.16 234.075 104.736 235.425 104.736C236.781 104.736 237.846 105.157 238.621 105.998C239.401 106.839 239.791 107.993 239.791 109.459C239.791 110.931 239.401 112.088 238.621 112.929C237.846 113.765 236.781 114.183 235.425 114.183ZM233.756 111.676C234.149 112.196 234.705 112.456 235.425 112.456C236.144 112.456 236.698 112.196 237.085 111.676C237.478 111.15 237.674 110.411 237.674 109.459C237.674 108.513 237.478 107.777 237.085 107.251C236.692 106.726 236.139 106.463 235.425 106.463C234.705 106.463 234.149 106.726 233.756 107.251C233.363 107.777 233.167 108.513 233.167 109.459C233.167 110.411 233.363 111.15 233.756 111.676ZM241.866 114V104.919H243.85V106.33H243.991C244.118 105.876 244.403 105.503 244.846 105.209C245.294 104.916 245.809 104.77 246.39 104.77C246.761 104.77 247.046 104.8 247.245 104.861V106.77C247.035 106.693 246.683 106.654 246.191 106.654C245.521 106.654 244.976 106.847 244.556 107.235C244.135 107.617 243.925 108.123 243.925 108.754V114H241.866ZM256.575 112.531C257.195 112.531 257.712 112.354 258.127 112C258.542 111.64 258.75 111.197 258.75 110.671V109.949L256.7 110.082C255.571 110.154 255.006 110.563 255.006 111.311C255.006 111.687 255.15 111.986 255.438 112.207C255.731 112.423 256.11 112.531 256.575 112.531ZM255.969 114.149C255.084 114.149 254.362 113.9 253.803 113.402C253.244 112.904 252.964 112.246 252.964 111.427C252.964 110.608 253.26 109.966 253.853 109.501C254.45 109.036 255.302 108.771 256.409 108.704L258.75 108.563V107.799C258.75 107.351 258.603 107.008 258.31 106.77C258.017 106.532 257.593 106.413 257.04 106.413C256.564 106.413 256.171 106.496 255.861 106.662C255.551 106.823 255.349 107.055 255.255 107.359H253.313C253.396 106.557 253.783 105.921 254.475 105.45C255.172 104.974 256.061 104.736 257.14 104.736C258.302 104.736 259.198 105.005 259.829 105.542C260.465 106.078 260.784 106.831 260.784 107.799V114H258.8V112.755H258.659C258.404 113.192 258.039 113.535 257.563 113.784C257.093 114.028 256.561 114.149 255.969 114.149ZM263.266 114V104.919H265.25V106.372H265.391C265.612 105.851 265.95 105.45 266.403 105.168C266.863 104.88 267.424 104.736 268.088 104.736C269.096 104.736 269.868 105.03 270.404 105.616C270.947 106.203 271.218 107.038 271.218 108.123V114H269.159V108.613C269.159 107.224 268.548 106.529 267.325 106.529C266.71 106.529 266.223 106.726 265.864 107.119C265.504 107.512 265.324 108.043 265.324 108.712V114H263.266ZM274.372 117.295C273.946 117.295 273.675 117.284 273.559 117.262V115.577C273.664 115.599 273.852 115.61 274.123 115.61C274.56 115.61 274.906 115.519 275.161 115.336C275.421 115.154 275.617 114.855 275.75 114.44L275.858 114.042L272.612 104.919H274.87L276.995 112.008H277.136L279.253 104.919H281.428L278.149 114.291C277.767 115.414 277.297 116.194 276.738 116.631C276.184 117.074 275.396 117.295 274.372 117.295ZM287.736 114V104.919H289.72V106.33H289.861C289.989 105.876 290.274 105.503 290.716 105.209C291.165 104.916 291.679 104.77 292.26 104.77C292.631 104.77 292.916 104.8 293.115 104.861V106.77C292.905 106.693 292.554 106.654 292.061 106.654C291.391 106.654 290.846 106.847 290.426 107.235C290.005 107.617 289.795 108.123 289.795 108.754V114H287.736ZM298.386 106.372C297.772 106.372 297.266 106.574 296.867 106.978C296.469 107.382 296.247 107.916 296.203 108.58H300.478C300.456 107.904 300.257 107.368 299.88 106.969C299.504 106.571 299.006 106.372 298.386 106.372ZM300.495 111.501H302.445C302.252 112.332 301.795 112.987 301.076 113.469C300.362 113.945 299.474 114.183 298.411 114.183C297.077 114.183 296.029 113.768 295.265 112.938C294.507 112.102 294.128 110.954 294.128 109.493C294.128 108.032 294.51 106.875 295.273 106.023C296.037 105.165 297.077 104.736 298.395 104.736C299.689 104.736 300.702 105.143 301.433 105.957C302.169 106.764 302.537 107.885 302.537 109.318V109.982H296.195V110.09C296.222 110.848 296.438 111.449 296.842 111.892C297.252 112.329 297.794 112.547 298.469 112.547C299.51 112.547 300.185 112.199 300.495 111.501ZM307.708 112.531C308.328 112.531 308.845 112.354 309.26 112C309.675 111.64 309.883 111.197 309.883 110.671V109.949L307.833 110.082C306.704 110.154 306.139 110.563 306.139 111.311C306.139 111.687 306.283 111.986 306.571 112.207C306.864 112.423 307.243 112.531 307.708 112.531ZM307.102 114.149C306.217 114.149 305.494 113.9 304.936 113.402C304.377 112.904 304.097 112.246 304.097 111.427C304.097 110.608 304.393 109.966 304.985 109.501C305.583 109.036 306.435 108.771 307.542 108.704L309.883 108.563V107.799C309.883 107.351 309.736 107.008 309.443 106.77C309.15 106.532 308.726 106.413 308.173 106.413C307.697 106.413 307.304 106.496 306.994 106.662C306.684 106.823 306.482 107.055 306.388 107.359H304.446C304.529 106.557 304.916 105.921 305.608 105.45C306.305 104.974 307.193 104.736 308.272 104.736C309.435 104.736 310.331 105.005 310.962 105.542C311.598 106.078 311.917 106.831 311.917 107.799V114H309.933V112.755H309.792C309.537 113.192 309.172 113.535 308.696 113.784C308.225 114.028 307.694 114.149 307.102 114.149ZM314.191 107.517C314.191 106.698 314.528 106.031 315.204 105.517C315.879 104.996 316.753 104.736 317.827 104.736C318.906 104.736 319.766 104.966 320.408 105.425C321.056 105.879 321.415 106.518 321.487 107.343H319.553C319.476 107.016 319.288 106.762 318.989 106.579C318.695 106.391 318.311 106.297 317.835 106.297C317.359 106.297 316.966 106.399 316.656 106.604C316.346 106.809 316.191 107.074 316.191 107.401C316.191 107.655 316.299 107.866 316.515 108.032C316.736 108.198 317.077 108.333 317.536 108.438L319.138 108.804C320.013 109.003 320.654 109.299 321.064 109.692C321.473 110.085 321.678 110.613 321.678 111.277C321.678 112.146 321.319 112.849 320.599 113.386C319.88 113.917 318.95 114.183 317.81 114.183C316.676 114.183 315.768 113.95 315.087 113.485C314.412 113.021 314.036 112.376 313.958 111.551H315.992C316.092 111.894 316.299 112.16 316.615 112.348C316.936 112.531 317.351 112.622 317.86 112.622C318.38 112.622 318.803 112.52 319.13 112.315C319.456 112.105 319.62 111.831 319.62 111.493C319.62 110.99 319.202 110.646 318.366 110.464L316.756 110.09C315.882 109.891 315.234 109.584 314.813 109.169C314.398 108.748 314.191 108.198 314.191 107.517ZM327.68 114.183C326.318 114.183 325.25 113.765 324.476 112.929C323.701 112.088 323.313 110.931 323.313 109.459C323.313 107.999 323.704 106.847 324.484 106.006C325.264 105.16 326.329 104.736 327.68 104.736C329.035 104.736 330.101 105.157 330.875 105.998C331.656 106.839 332.046 107.993 332.046 109.459C332.046 110.931 331.656 112.088 330.875 112.929C330.101 113.765 329.035 114.183 327.68 114.183ZM326.011 111.676C326.404 112.196 326.96 112.456 327.68 112.456C328.399 112.456 328.952 112.196 329.34 111.676C329.733 111.15 329.929 110.411 329.929 109.459C329.929 108.513 329.733 107.777 329.34 107.251C328.947 106.726 328.394 106.463 327.68 106.463C326.96 106.463 326.404 106.726 326.011 107.251C325.618 107.777 325.422 108.513 325.422 109.459C325.422 110.411 325.618 111.15 326.011 111.676ZM334.121 114V104.919H336.105V106.372H336.246C336.467 105.851 336.805 105.45 337.259 105.168C337.718 104.88 338.28 104.736 338.944 104.736C339.951 104.736 340.723 105.03 341.26 105.616C341.802 106.203 342.073 107.038 342.073 108.123V114H340.015V108.613C340.015 107.224 339.403 106.529 338.18 106.529C337.566 106.529 337.079 106.726 336.719 107.119C336.36 107.512 336.18 108.043 336.18 108.712V114H334.121Z" fill="white"/>
<rect x="-6" y="6" width="367" height="130" stroke="#B4AFB6" stroke-width="12"/>
</svg>
