<svg width="367" height="142" viewBox="0 0 367 142" fill="none" xmlns="http://www.w3.org/2000/svg">
<rect y="12" width="100" height="118" fill="#FFFFFD"/>
<rect x="100" y="12" width="255" height="118" fill="#90FFE4"/>
<path d="M158.881 76.7754H165.033C165.115 77.7012 165.578 78.4395 166.422 78.9902C167.277 79.5293 168.373 79.7988 169.709 79.7988C170.916 79.7988 171.895 79.5352 172.645 79.0078C173.395 78.4805 173.77 77.8008 173.77 76.9688C173.77 76.2656 173.465 75.709 172.855 75.2988C172.246 74.877 171.215 74.5195 169.762 74.2266L166.422 73.5586C164.102 73.125 162.35 72.2812 161.166 71.0273C159.982 69.7734 159.391 68.1504 159.391 66.1582C159.391 63.6738 160.305 61.6875 162.133 60.1992C163.973 58.6992 166.422 57.9492 169.48 57.9492C172.445 57.9492 174.865 58.6816 176.74 60.1465C178.615 61.6113 179.582 63.5156 179.641 65.8594H173.682C173.611 64.9688 173.189 64.2422 172.416 63.6797C171.654 63.1055 170.705 62.8184 169.568 62.8184C168.432 62.8184 167.518 63.0703 166.826 63.5742C166.146 64.0664 165.807 64.7344 165.807 65.5781C165.807 66.2695 166.105 66.832 166.703 67.2656C167.301 67.6992 168.268 68.0449 169.604 68.3027L172.873 68.9355C175.381 69.416 177.215 70.2422 178.375 71.4141C179.547 72.5859 180.133 74.1797 180.133 76.1953C180.133 78.8438 179.184 80.9238 177.285 82.4355C175.387 83.9355 172.773 84.6855 169.445 84.6855C166.234 84.6855 163.68 83.9766 161.781 82.5586C159.895 81.1406 158.928 79.2129 158.881 76.7754ZM184.633 84V57.1055H190.715V67.6875H191.049C191.482 66.5625 192.215 65.6777 193.246 65.0332C194.277 64.3887 195.496 64.0664 196.902 64.0664C199.035 64.0664 200.682 64.7051 201.842 65.9824C203.014 67.248 203.6 69.0645 203.6 71.4316V84H197.395V72.8379C197.395 71.6309 197.125 70.7109 196.586 70.0781C196.047 69.4453 195.262 69.1289 194.23 69.1289C193.176 69.1289 192.344 69.4746 191.734 70.166C191.137 70.8574 190.838 71.7715 190.838 72.9082V84H184.633ZM217.293 84.457C214.164 84.457 211.721 83.5547 209.963 81.75C208.205 79.9453 207.326 77.4316 207.326 74.209C207.326 71.0449 208.217 68.5488 209.998 66.7207C211.779 64.8926 214.211 63.9785 217.293 63.9785C220.387 63.9785 222.818 64.8926 224.588 66.7207C226.369 68.5371 227.26 71.0332 227.26 74.209C227.26 77.4316 226.381 79.9453 224.623 81.75C222.877 83.5547 220.434 84.457 217.293 84.457ZM214.639 78.2695C215.271 79.2305 216.156 79.7109 217.293 79.7109C218.43 79.7109 219.309 79.2305 219.93 78.2695C220.562 77.3086 220.879 75.9551 220.879 74.209C220.879 72.498 220.562 71.1562 219.93 70.1836C219.297 69.2109 218.418 68.7246 217.293 68.7246C216.168 68.7246 215.289 69.2109 214.656 70.1836C214.023 71.1562 213.707 72.498 213.707 74.209C213.707 75.9551 214.018 77.3086 214.639 78.2695ZM243.361 64.1367C245.834 64.1367 247.762 65.0215 249.145 66.791C250.539 68.5488 251.236 71.0215 251.236 74.209C251.236 77.3965 250.557 79.875 249.197 81.6445C247.838 83.4141 245.939 84.2988 243.502 84.2988C242.096 84.2988 240.889 84.0117 239.881 83.4375C238.873 82.8516 238.141 82.0371 237.684 80.9941H237.35V90.4688H231.145V64.4355H237.191V67.6172H237.525C238.006 66.5273 238.762 65.6777 239.793 65.0684C240.824 64.4473 242.014 64.1367 243.361 64.1367ZM238.316 78.041C238.984 78.9551 239.91 79.4121 241.094 79.4121C242.277 79.4121 243.197 78.9551 243.854 78.041C244.521 77.1152 244.855 75.8379 244.855 74.209C244.855 72.5918 244.521 71.3262 243.854 70.4121C243.186 69.4863 242.266 69.0234 241.094 69.0234C239.922 69.0234 238.996 69.4863 238.316 70.4121C237.648 71.3379 237.314 72.6094 237.314 74.2266C237.314 75.8555 237.648 77.127 238.316 78.041ZM267.338 64.1367C269.811 64.1367 271.738 65.0215 273.121 66.791C274.516 68.5488 275.213 71.0215 275.213 74.209C275.213 77.3965 274.533 79.875 273.174 81.6445C271.814 83.4141 269.916 84.2988 267.479 84.2988C266.072 84.2988 264.865 84.0117 263.857 83.4375C262.85 82.8516 262.117 82.0371 261.66 80.9941H261.326V90.4688H255.121V64.4355H261.168V67.6172H261.502C261.982 66.5273 262.738 65.6777 263.77 65.0684C264.801 64.4473 265.99 64.1367 267.338 64.1367ZM262.293 78.041C262.961 78.9551 263.887 79.4121 265.07 79.4121C266.254 79.4121 267.174 78.9551 267.83 78.041C268.498 77.1152 268.832 75.8379 268.832 74.209C268.832 72.5918 268.498 71.3262 267.83 70.4121C267.162 69.4863 266.242 69.0234 265.07 69.0234C263.898 69.0234 262.973 69.4863 262.293 70.4121C261.625 71.3379 261.291 72.6094 261.291 74.2266C261.291 75.8555 261.625 77.127 262.293 78.041ZM281.066 91.1191C279.613 91.1191 278.857 91.1133 278.799 91.1016V86.373C278.916 86.3965 279.279 86.4082 279.889 86.4082C281.951 86.4082 283.088 85.8398 283.299 84.7031L283.387 84.1582L276.707 64.4355H283.58L287.078 78.7793H287.412L290.91 64.4355H297.484L291.191 83.9648C290.359 86.5664 289.164 88.4062 287.605 89.4844C286.059 90.5742 283.879 91.1191 281.066 91.1191Z" fill="#004E43"/>
<rect x="-6" y="6" width="367" height="130" stroke="#B4AFB6" stroke-width="12"/>
</svg>
