<svg width="367" height="142" viewBox="0 0 367 142" fill="none" xmlns="http://www.w3.org/2000/svg">
<rect y="12" width="100" height="118" fill="#FFFFFD"/>
<rect x="100" y="12" width="255" height="76" fill="#90FFE4"/>
<path d="M166.672 54.5781H172.141C172.214 55.401 172.625 56.0573 173.375 56.5469C174.135 57.026 175.109 57.2656 176.297 57.2656C177.37 57.2656 178.24 57.0312 178.906 56.5625C179.573 56.0938 179.906 55.4896 179.906 54.75C179.906 54.125 179.635 53.6302 179.094 53.2656C178.552 52.8906 177.635 52.5729 176.344 52.3125L173.375 51.7188C171.312 51.3333 169.755 50.5833 168.703 49.4688C167.651 48.3542 167.125 46.9115 167.125 45.1406C167.125 42.9323 167.938 41.1667 169.562 39.8438C171.198 38.5104 173.375 37.8438 176.094 37.8438C178.729 37.8438 180.88 38.4948 182.547 39.7969C184.214 41.099 185.073 42.7917 185.125 44.875H179.828C179.766 44.0833 179.391 43.4375 178.703 42.9375C178.026 42.4271 177.182 42.1719 176.172 42.1719C175.161 42.1719 174.349 42.3958 173.734 42.8438C173.13 43.2812 172.828 43.875 172.828 44.625C172.828 45.2396 173.094 45.7396 173.625 46.125C174.156 46.5104 175.016 46.8177 176.203 47.0469L179.109 47.6094C181.339 48.0365 182.969 48.7708 184 49.8125C185.042 50.8542 185.562 52.2708 185.562 54.0625C185.562 56.4167 184.719 58.2656 183.031 59.6094C181.344 60.9427 179.021 61.6094 176.062 61.6094C173.208 61.6094 170.938 60.9792 169.25 59.7188C167.573 58.4583 166.714 56.7448 166.672 54.5781ZM189.562 61V37.0938H194.969V46.5H195.266C195.651 45.5 196.302 44.7135 197.219 44.1406C198.135 43.5677 199.219 43.2812 200.469 43.2812C202.365 43.2812 203.828 43.849 204.859 44.9844C205.901 46.1094 206.422 47.724 206.422 49.8281V61H200.906V51.0781C200.906 50.0052 200.667 49.1875 200.188 48.625C199.708 48.0625 199.01 47.7812 198.094 47.7812C197.156 47.7812 196.417 48.0885 195.875 48.7031C195.344 49.3177 195.078 50.1302 195.078 51.1406V61H189.562ZM218.594 61.4062C215.812 61.4062 213.641 60.6042 212.078 59C210.516 57.3958 209.734 55.1615 209.734 52.2969C209.734 49.4844 210.526 47.2656 212.109 45.6406C213.693 44.0156 215.854 43.2031 218.594 43.2031C221.344 43.2031 223.505 44.0156 225.078 45.6406C226.661 47.2552 227.453 49.474 227.453 52.2969C227.453 55.1615 226.672 57.3958 225.109 59C223.557 60.6042 221.385 61.4062 218.594 61.4062ZM216.234 55.9062C216.797 56.7604 217.583 57.1875 218.594 57.1875C219.604 57.1875 220.385 56.7604 220.938 55.9062C221.5 55.0521 221.781 53.849 221.781 52.2969C221.781 50.776 221.5 49.5833 220.938 48.7188C220.375 47.8542 219.594 47.4219 218.594 47.4219C217.594 47.4219 216.812 47.8542 216.25 48.7188C215.688 49.5833 215.406 50.776 215.406 52.2969C215.406 53.849 215.682 55.0521 216.234 55.9062ZM241.766 43.3438C243.964 43.3438 245.677 44.1302 246.906 45.7031C248.146 47.2656 248.766 49.4635 248.766 52.2969C248.766 55.1302 248.161 57.3333 246.953 58.9062C245.745 60.4792 244.057 61.2656 241.891 61.2656C240.641 61.2656 239.568 61.0104 238.672 60.5C237.776 59.9792 237.125 59.2552 236.719 58.3281H236.422V66.75H230.906V43.6094H236.281V46.4375H236.578C237.005 45.4688 237.677 44.7135 238.594 44.1719C239.51 43.6198 240.568 43.3438 241.766 43.3438ZM237.281 55.7031C237.875 56.5156 238.698 56.9219 239.75 56.9219C240.802 56.9219 241.62 56.5156 242.203 55.7031C242.797 54.8802 243.094 53.7448 243.094 52.2969C243.094 50.8594 242.797 49.7344 242.203 48.9219C241.609 48.099 240.792 47.6875 239.75 47.6875C238.708 47.6875 237.885 48.099 237.281 48.9219C236.688 49.7448 236.391 50.875 236.391 52.3125C236.391 53.7604 236.688 54.8906 237.281 55.7031ZM263.078 43.3438C265.276 43.3438 266.99 44.1302 268.219 45.7031C269.458 47.2656 270.078 49.4635 270.078 52.2969C270.078 55.1302 269.474 57.3333 268.266 58.9062C267.057 60.4792 265.37 61.2656 263.203 61.2656C261.953 61.2656 260.88 61.0104 259.984 60.5C259.089 59.9792 258.438 59.2552 258.031 58.3281H257.734V66.75H252.219V43.6094H257.594V46.4375H257.891C258.318 45.4688 258.99 44.7135 259.906 44.1719C260.823 43.6198 261.88 43.3438 263.078 43.3438ZM258.594 55.7031C259.188 56.5156 260.01 56.9219 261.062 56.9219C262.115 56.9219 262.932 56.5156 263.516 55.7031C264.109 54.8802 264.406 53.7448 264.406 52.2969C264.406 50.8594 264.109 49.7344 263.516 48.9219C262.922 48.099 262.104 47.6875 261.062 47.6875C260.021 47.6875 259.198 48.099 258.594 48.9219C258 49.7448 257.703 50.875 257.703 52.3125C257.703 53.7604 258 54.8906 258.594 55.7031ZM275.281 67.3281C273.99 67.3281 273.318 67.3229 273.266 67.3125V63.1094C273.37 63.1302 273.693 63.1406 274.234 63.1406C276.068 63.1406 277.078 62.6354 277.266 61.625L277.344 61.1406L271.406 43.6094H277.516L280.625 56.3594H280.922L284.031 43.6094H289.875L284.281 60.9688C283.542 63.2812 282.479 64.9167 281.094 65.875C279.719 66.8438 277.781 67.3281 275.281 67.3281Z" fill="#004E43"/>
<rect x="100" y="88" width="255" height="42" fill="#1A645A"/>
<path d="M121.071 114.1C123.238 114.1 124.192 112.821 125.164 110.572L128.833 102.022H126.591L123.869 109.011H123.728L120.914 102.022H118.647L122.665 111.236C122.225 111.958 121.669 112.224 120.872 112.224C120.44 112.224 120.241 112.166 120.167 112.149V113.983C120.241 114.017 120.598 114.1 121.071 114.1ZM135.581 112.356H131.663V112.207C132.062 111.643 132.269 110.763 132.344 109.775L132.576 106.554H135.581V112.356ZM130.634 116.366V114H137.142V116.366H139.034V112.356H137.64V104.919H130.808L130.493 109.659C130.41 110.879 130.127 111.958 129.455 112.356H128.741V116.366H130.634ZM144.712 114.183C147.426 114.183 149.078 112.406 149.078 109.459C149.078 106.521 147.418 104.736 144.712 104.736C142.014 104.736 140.346 106.529 140.346 109.459C140.346 112.406 141.989 114.183 144.712 114.183ZM144.712 112.456C143.276 112.456 142.454 111.36 142.454 109.459C142.454 107.567 143.276 106.463 144.712 106.463C146.14 106.463 146.961 107.567 146.961 109.459C146.961 111.36 146.148 112.456 144.712 112.456ZM155.304 112.456C153.843 112.456 153.013 111.418 153.013 109.601C153.013 107.857 153.851 106.853 155.304 106.853C156.756 106.853 157.595 107.857 157.595 109.601C157.595 111.418 156.756 112.456 155.304 112.456ZM152.531 106.903C152.78 104.828 153.511 103.674 155.818 103.583L156.864 103.541C158.524 103.483 159.114 103.101 159.114 103.101V101.391C159.105 101.399 158.151 101.748 156.74 101.806L155.669 101.848C152.224 101.98 150.896 104.255 150.896 108.746C150.896 112.398 152.523 114.183 155.329 114.183C158.035 114.183 159.711 112.423 159.711 109.559C159.711 106.845 158.093 105.193 155.719 105.193C154.216 105.193 153.22 105.882 152.672 106.903H152.531ZM167.871 114H169.93V104.919H167.871V108.505H164.028V104.919H161.969V114H164.028V110.148H167.871V114ZM181.078 114H183.128V104.919H181.078V114ZM176.222 109.277C177.234 109.277 177.89 109.883 177.89 110.812C177.89 111.734 177.243 112.356 176.222 112.356H174.669V109.277H176.222ZM172.611 114H176.471C178.587 114 179.94 112.763 179.94 110.821C179.94 108.878 178.587 107.642 176.471 107.642H174.669V104.919H172.611V114ZM189.627 106.372C190.864 106.372 191.678 107.235 191.719 108.58H187.444C187.536 107.251 188.399 106.372 189.627 106.372ZM191.736 111.501C191.437 112.174 190.731 112.547 189.71 112.547C188.357 112.547 187.486 111.601 187.436 110.09V109.982H193.778V109.318C193.778 106.455 192.226 104.736 189.636 104.736C187.004 104.736 185.369 106.571 185.369 109.493C185.369 112.415 186.979 114.183 189.652 114.183C191.794 114.183 193.313 113.153 193.687 111.501H191.736ZM208.387 107.974C208.171 106.064 206.76 104.736 204.428 104.736C201.697 104.736 200.095 106.488 200.095 109.435C200.095 112.423 201.705 114.183 204.436 114.183C206.735 114.183 208.163 112.904 208.387 111.003H206.428C206.212 111.95 205.499 112.456 204.428 112.456C203.025 112.456 202.178 111.344 202.178 109.435C202.178 107.55 203.017 106.463 204.428 106.463C205.557 106.463 206.237 107.094 206.428 107.974H208.387ZM216.331 114H218.39V104.919H210.512V114H212.571V106.562H216.331V114ZM223.104 114L226.973 107.949H227.114V114H229.147V104.919H227.114L223.246 110.929H223.104V104.919H221.071V114H223.104ZM239.681 107.974C239.465 106.064 238.054 104.736 235.722 104.736C232.991 104.736 231.389 106.488 231.389 109.435C231.389 112.423 232.999 114.183 235.73 114.183C238.029 114.183 239.457 112.904 239.681 111.003H237.722C237.506 111.95 236.792 112.456 235.722 112.456C234.319 112.456 233.472 111.344 233.472 109.435C233.472 107.55 234.311 106.463 235.722 106.463C236.851 106.463 237.531 107.094 237.722 107.974H239.681ZM244.338 110.099L247.359 114H249.858L246.015 109.111L249.684 104.919H247.31L244.321 108.555H243.865V104.919H241.806V114H243.865V110.099H244.338ZM253.734 114L257.603 107.949H257.744V114H259.777V104.919H257.744L253.875 110.929H253.734V104.919H251.701V114H253.734ZM272.81 114H274.868V104.919H266.991V114H269.049V106.562H272.81V114ZM281.476 114.183C284.19 114.183 285.842 112.406 285.842 109.459C285.842 106.521 284.182 104.736 281.476 104.736C278.778 104.736 277.109 106.529 277.109 109.459C277.109 112.406 278.753 114.183 281.476 114.183ZM281.476 112.456C280.04 112.456 279.218 111.36 279.218 109.459C279.218 107.567 280.04 106.463 281.476 106.463C282.903 106.463 283.725 107.567 283.725 109.459C283.725 111.36 282.912 112.456 281.476 112.456ZM290.606 110.099L293.628 114H296.126L292.283 109.111L295.952 104.919H293.578L290.59 108.555H290.133V104.919H288.075V114H290.133V110.099H290.606ZM298.642 117.295C300.675 117.295 301.646 116.548 302.418 114.291L305.697 104.919H303.522L301.406 112.008H301.265L299.14 104.919H296.882L300.127 114.042L300.02 114.44C299.754 115.278 299.264 115.61 298.393 115.61C298.251 115.61 297.944 115.602 297.828 115.577V117.262C297.961 117.287 298.517 117.295 298.642 117.295ZM313.45 114H315.509V104.919H307.631V114H309.69V106.562H313.45V114ZM322.116 114.183C324.831 114.183 326.482 112.406 326.482 109.459C326.482 106.521 324.822 104.736 322.116 104.736C319.418 104.736 317.75 106.529 317.75 109.459C317.75 112.406 319.394 114.183 322.116 114.183ZM322.116 112.456C320.68 112.456 319.858 111.36 319.858 109.459C319.858 107.567 320.68 106.463 322.116 106.463C323.544 106.463 324.366 107.567 324.366 109.459C324.366 111.36 323.552 112.456 322.116 112.456ZM331.247 110.099L334.269 114H336.767L332.924 109.111L336.593 104.919H334.219L331.23 108.555H330.774V104.919H328.715V114H330.774V110.099H331.247Z" fill="white"/>
<rect x="-6" y="6" width="367" height="130" stroke="#B4AFB6" stroke-width="12"/>
</svg>
