<svg width="32" height="32" viewBox="0 0 32 32" fill="none" xmlns="http://www.w3.org/2000/svg">
<path d="M25.2606 16.1396C27.1405 16.9883 27.9354 19.2334 27.076 21.0918C26.6356 22.0156 25.8729 22.6816 24.949 22.9932C24.3797 20.9199 22.8114 19.4482 20.91 19.4482C18.5037 19.4482 16.6239 21.8115 16.6239 24.7656C16.6239 26.0762 16.9998 27.2686 17.6121 28.2031C16.5916 28.332 15.3992 28.3428 14.3895 28.2031C15.0018 27.2686 15.3778 26.0762 15.3778 24.7656C15.3778 21.8115 13.4979 19.4482 11.0916 19.4482C9.19026 19.4482 7.6219 20.9199 7.05257 22.9932C6.12874 22.6816 5.36604 22.0156 4.92561 21.0918C4.06624 19.2334 4.86116 16.9883 6.74104 16.1396L10.0926 14.625C9.23323 13.4326 8.72835 11.9717 8.72835 10.3926C8.72835 10.2422 8.72835 10.1025 8.73909 9.95215C6.94514 9.76953 5.54866 8.25488 5.54866 6.40723C5.54866 4.45215 7.1385 2.8623 9.10432 2.8623C10.286 2.8623 11.3387 3.44238 11.9832 4.34473C13.1326 3.57129 14.5076 3.13086 15.9901 3.13086C17.4725 3.13086 18.8475 3.57129 19.9969 4.34473C20.6414 3.44238 21.6942 2.8623 22.8758 2.8623C24.8416 2.8623 26.4315 4.45215 26.4315 6.40723C26.4315 8.25488 25.035 9.76953 23.241 9.95215C23.2518 10.1025 23.2518 10.2422 23.2518 10.3926C23.2518 11.9717 22.7469 13.4219 21.8983 14.6143L25.2606 16.1396ZM9.10432 4.39844C7.99788 4.39844 7.09553 5.30078 7.09553 6.40723C7.09553 7.41699 7.83674 8.24414 8.81428 8.38379C8.86799 8.39453 8.93245 8.40527 9.00764 8.40527C9.32991 7.23438 9.9637 6.1709 10.7908 5.33301C10.4364 4.76367 9.81331 4.39844 9.10432 4.39844ZM22.8758 4.39844C22.1668 4.39844 21.5438 4.76367 21.1893 5.33301C22.0164 6.1709 22.6502 7.23438 22.9725 8.40527C23.0155 8.40527 23.1014 8.39453 23.1658 8.38379C24.1434 8.25488 24.8846 7.40625 24.8846 6.40723C24.8846 5.30078 23.9823 4.39844 22.8758 4.39844ZM13.1864 9.90918C13.702 9.90918 14.1209 9.49023 14.1209 8.97461C14.1209 8.45898 13.702 8.04004 13.1864 8.04004C12.6922 8.04004 12.2625 8.45898 12.2625 8.97461C12.2625 9.49023 12.6922 9.90918 13.1864 9.90918ZM18.8045 9.90918C19.2987 9.90918 19.7283 9.49023 19.7283 8.97461C19.7283 8.45898 19.2987 8.04004 18.8045 8.04004C18.2889 8.04004 17.8699 8.45898 17.8699 8.97461C17.8699 9.49023 18.2889 9.90918 18.8045 9.90918ZM16.0115 16.752C17.827 16.752 19.3309 15.2588 19.3309 13.4326C19.3309 11.5957 17.8377 10.1133 16.0115 10.1133C14.1746 10.1133 12.6922 11.6064 12.6922 13.4326C12.6922 15.2695 14.1639 16.752 16.0115 16.752ZM15.9901 13.8516C15.3563 13.8516 14.2821 12.8848 14.2821 12.6162C14.2821 12.1758 15.0233 11.5635 15.9901 11.5635C16.9569 11.5635 17.6658 12.1758 17.6658 12.6162C17.6658 12.8848 16.6346 13.8516 15.9901 13.8516ZM11.0916 29.1377C9.23323 29.1377 7.78303 27.1826 7.78303 24.7656C7.78303 22.3809 9.23323 20.4258 11.0916 20.4258C12.95 20.4258 14.4002 22.3809 14.4002 24.7656C14.4002 27.1826 12.95 29.1377 11.0916 29.1377ZM20.91 29.1377C19.0516 29.1377 17.6014 27.1826 17.6014 24.7656C17.6014 22.3809 19.0516 20.4258 20.91 20.4258C22.7684 20.4258 24.2186 22.3809 24.2186 24.7656C24.2186 27.1826 22.7684 29.1377 20.91 29.1377Z" fill="white" fill-opacity="0.6"/>
</svg>
