<svg width="15" height="15" viewBox="0 0 15 15" fill="none" xmlns="http://www.w3.org/2000/svg">
<path d="M3.77063 10.5522C3.28957 10.5522 3 10.2906 3 9.903C3 9.4126 3.44837 8.98758 3.86871 8.58125C4.19564 8.26366 4.27504 7.59578 4.33108 6.98395C4.39647 5.26522 4.89621 4.05556 6.11053 3.61654C6.30202 3.00004 6.80643 2.52832 7.49766 2.52832C8.18889 2.52832 8.69331 3.00004 8.8848 3.61654C10.0991 4.05556 10.5989 5.26522 10.6642 6.98395C10.725 7.59578 10.7997 8.26366 11.1266 8.58125C11.547 8.98758 12 9.4126 12 9.903C12 10.2906 11.7058 10.5522 11.2294 10.5522H3.77063ZM7.49766 12.4718C6.67566 12.4718 6.07317 11.8833 6.01245 11.2014H8.98755C8.92216 11.8833 8.32434 12.4718 7.49766 12.4718Z" fill="#6F8617"/>
</svg>
