<svg width="40" height="40" viewBox="0 0 40 40" fill="none" xmlns="http://www.w3.org/2000/svg">
<path d="M10.3799 19.1567C8.83301 19.1567 8.07031 18.4048 8.07031 16.8149V12.314C8.07031 10.7241 8.83301 9.97217 10.3799 9.97217H12.5928C14.1396 9.97217 14.9023 10.7241 14.9023 12.314V16.8149C14.9023 18.4048 14.1396 19.1567 12.5928 19.1567H10.3799ZM18.8877 19.1567C17.3408 19.1567 16.5781 18.4048 16.5781 16.8149V12.314C16.5781 10.7241 17.3408 9.97217 18.8877 9.97217H21.1006C22.6475 9.97217 23.4102 10.7241 23.4102 12.314V16.8149C23.4102 18.4048 22.6475 19.1567 21.1006 19.1567H18.8877ZM27.4062 19.1567C25.8486 19.1567 25.0967 18.4048 25.0967 16.8149V12.314C25.0967 10.7241 25.8486 9.97217 27.4062 9.97217H29.6191C31.166 9.97217 31.9287 10.7241 31.9287 12.314V16.8149C31.9287 18.4048 31.166 19.1567 29.6191 19.1567H27.4062ZM10.3906 17.395H12.5713C12.9473 17.395 13.1299 17.2017 13.1299 16.8149V12.314C13.1299 11.9272 12.9473 11.7339 12.5713 11.7339H10.3906C10.0146 11.7339 9.83203 11.9272 9.83203 12.314V16.8149C9.83203 17.2017 10.0146 17.395 10.3906 17.395ZM18.9092 17.395H21.0898C21.4658 17.395 21.6484 17.2017 21.6484 16.8149V12.314C21.6484 11.9272 21.4658 11.7339 21.0898 11.7339H18.9092C18.5225 11.7339 18.3506 11.9272 18.3506 12.314V16.8149C18.3506 17.2017 18.5225 17.395 18.9092 17.395ZM27.417 17.395H29.5977C29.9736 17.395 30.1562 17.2017 30.1562 16.8149V12.314C30.1562 11.9272 29.9736 11.7339 29.5977 11.7339H27.417C27.041 11.7339 26.8584 11.9272 26.8584 12.314V16.8149C26.8584 17.2017 27.041 17.395 27.417 17.395ZM10.3799 30.0278C8.83301 30.0278 8.07031 29.2759 8.07031 27.6753V23.1851C8.07031 21.5952 8.83301 20.8433 10.3799 20.8433H12.5928C14.1396 20.8433 14.9023 21.5952 14.9023 23.1851V27.6753C14.9023 29.2759 14.1396 30.0278 12.5928 30.0278H10.3799ZM18.8877 30.0278C17.3408 30.0278 16.5781 29.2759 16.5781 27.6753V23.1851C16.5781 21.5952 17.3408 20.8433 18.8877 20.8433H21.1006C22.6475 20.8433 23.4102 21.5952 23.4102 23.1851V27.6753C23.4102 29.2759 22.6475 30.0278 21.1006 30.0278H18.8877ZM27.4062 30.0278C25.8486 30.0278 25.0967 29.2759 25.0967 27.6753V23.1851C25.0967 21.5952 25.8486 20.8433 27.4062 20.8433H29.6191C31.166 20.8433 31.9287 21.5952 31.9287 23.1851V27.6753C31.9287 29.2759 31.166 30.0278 29.6191 30.0278H27.4062ZM10.3906 28.2554H12.5713C12.9473 28.2554 13.1299 28.0728 13.1299 27.686V23.1851C13.1299 22.7983 12.9473 22.605 12.5713 22.605H10.3906C10.0146 22.605 9.83203 22.7983 9.83203 23.1851V27.686C9.83203 28.0728 10.0146 28.2554 10.3906 28.2554ZM18.9092 28.2554H21.0898C21.4658 28.2554 21.6484 28.0728 21.6484 27.686V23.1851C21.6484 22.7983 21.4658 22.605 21.0898 22.605H18.9092C18.5225 22.605 18.3506 22.7983 18.3506 23.1851V27.686C18.3506 28.0728 18.5225 28.2554 18.9092 28.2554ZM27.417 28.2554H29.5977C29.9736 28.2554 30.1562 28.0728 30.1562 27.686V23.1851C30.1562 22.7983 29.9736 22.605 29.5977 22.605H27.417C27.041 22.605 26.8584 22.7983 26.8584 23.1851V27.686C26.8584 28.0728 27.041 28.2554 27.417 28.2554Z" fill="#045C5C"/>
</svg>
