<svg width="32" height="32" viewBox="0 0 32 32" fill="none" xmlns="http://www.w3.org/2000/svg">
<path fill-rule="evenodd" clip-rule="evenodd" d="M11.6826 7.37939C11.6826 8.04541 12.0586 8.44287 12.6816 8.44287H19.3203C19.9434 8.44287 20.3193 8.04541 20.3193 7.37939V6.25146C20.3193 5.58545 19.9434 5.18799 19.3203 5.18799H18.332C18.2568 3.97412 17.2471 2.98584 16.001 2.98584C14.7549 2.98584 13.7451 3.97412 13.6699 5.18799H12.6816C12.0586 5.18799 11.6826 5.58545 11.6826 6.25146V7.37939ZM16.9355 5.27393C16.9355 5.77881 16.5166 6.2085 16.001 6.2085C15.4854 6.2085 15.0664 5.77881 15.0664 5.27393C15.0664 4.74756 15.4854 4.32861 16.001 4.32861C16.5166 4.32861 16.9355 4.74756 16.9355 5.27393ZM6.9668 25.6411C6.9668 27.897 8.07324 29.0142 10.2969 29.0142H21.7051C23.9287 29.0142 25.0352 27.897 25.0352 25.6411V9.34521C25.0352 7.08936 23.9287 5.97217 21.8125 5.97217H21.5654V7.37939C21.5654 8.73291 20.6523 9.68896 19.3203 9.68896H12.6816C11.3496 9.68896 10.4365 8.73291 10.4365 7.37939V5.97217H10.1895C8.07324 5.97217 6.9668 7.08936 6.9668 9.34521V25.6411ZM13.3965 13.9028C13.3965 14.2788 13.5254 14.3862 13.9014 14.3862H14.5352C14.9111 14.3862 15.0293 14.2788 15.0293 13.9028V13.269C15.0293 12.8931 14.9111 12.7749 14.5352 12.7749H13.9014C13.5254 12.7749 13.3965 12.8931 13.3965 13.269V13.9028ZM16.9629 13.9028C16.9629 14.2788 17.0918 14.3862 17.4678 14.3862H18.1016C18.4775 14.3862 18.6064 14.2788 18.6064 13.9028V13.269C18.6064 12.8931 18.4775 12.7749 18.1016 12.7749H17.4678C17.0918 12.7749 16.9629 12.8931 16.9629 13.269V13.9028ZM20.54 13.9028C20.54 14.2788 20.6582 14.3862 21.0342 14.3862H21.668C22.0439 14.3862 22.1729 14.2788 22.1729 13.9028V13.269C22.1729 12.8931 22.0439 12.7749 21.668 12.7749H21.0342C20.6582 12.7749 20.54 12.8931 20.54 13.269V13.9028ZM9.83008 17.4155C9.83008 17.7915 9.94824 17.8989 10.335 17.8989H10.958C11.3447 17.8989 11.4629 17.7915 11.4629 17.4155V16.7817C11.4629 16.4058 11.3447 16.2983 10.958 16.2983H10.335C9.94824 16.2983 9.83008 16.4058 9.83008 16.7817V17.4155ZM13.3965 17.4155C13.3965 17.7915 13.5254 17.8989 13.9014 17.8989H14.5352C14.9111 17.8989 15.0293 17.7915 15.0293 17.4155V16.7817C15.0293 16.4058 14.9111 16.2983 14.5352 16.2983H13.9014C13.5254 16.2983 13.3965 16.4058 13.3965 16.7817V17.4155ZM16.9629 17.4155C16.9629 17.7915 17.0918 17.8989 17.4678 17.8989H18.1016C18.4775 17.8989 18.6064 17.7915 18.6064 17.4155V16.7817C18.6064 16.4058 18.4775 16.2983 18.1016 16.2983H17.4678C17.0918 16.2983 16.9629 16.4058 16.9629 16.7817V17.4155ZM20.54 17.4155C20.54 17.7915 20.6582 17.8989 21.0342 17.8989H21.668C22.0439 17.8989 22.1729 17.7915 22.1729 17.4155V16.7817C22.1729 16.4058 22.0439 16.2983 21.668 16.2983H21.0342C20.6582 16.2983 20.54 16.4058 20.54 16.7817V17.4155ZM9.83008 20.2944V20.3052V20.9282V20.939C9.83008 21.3149 9.94824 21.4224 10.335 21.4224H10.958C11.3447 21.4224 11.4629 21.3149 11.4629 20.939V20.9282V20.3052V20.2944C11.4629 19.9185 11.3447 19.811 10.958 19.811H10.335C9.94824 19.811 9.83008 19.9185 9.83008 20.2944ZM13.3965 20.939C13.3965 21.3149 13.5254 21.4224 13.9014 21.4224H14.5352C14.9111 21.4224 15.0293 21.3149 15.0293 20.939V20.3052C15.0293 19.9292 14.9111 19.8218 14.5352 19.8218H13.9014C13.5254 19.8218 13.3965 19.9292 13.3965 20.3052V20.939ZM17.4678 21.4224C17.0918 21.4224 16.9629 21.3149 16.9629 20.939V20.3052C16.9629 19.9292 17.0918 19.8218 17.4678 19.8218H18.1016C18.4775 19.8218 18.6064 19.9292 18.6064 20.3052V20.939C18.6064 21.3149 18.4775 21.4224 18.1016 21.4224H17.4678ZM20.54 20.939C20.54 21.3149 20.6582 21.4224 21.0342 21.4224H21.668C22.0439 21.4224 22.1729 21.3149 22.1729 20.939V20.3052C22.1729 19.9292 22.0439 19.8218 21.668 19.8218H21.0342C20.6582 19.8218 20.54 19.9292 20.54 20.3052V20.939ZM10.335 24.9458C9.94824 24.9458 9.83008 24.8276 9.83008 24.4517V23.8179C9.83008 23.4419 9.94824 23.3345 10.335 23.3345H10.958C11.3447 23.3345 11.4629 23.4419 11.4629 23.8179V24.4517C11.4629 24.8276 11.3447 24.9458 10.958 24.9458H10.335ZM13.3965 24.4517C13.3965 24.8276 13.5254 24.9458 13.9014 24.9458H14.5352C14.9111 24.9458 15.0293 24.8276 15.0293 24.4517V23.8179C15.0293 23.4419 14.9111 23.3345 14.5352 23.3345H13.9014C13.5254 23.3345 13.3965 23.4419 13.3965 23.8179V24.4517ZM17.4678 24.9458C17.0918 24.9458 16.9629 24.8276 16.9629 24.4517V23.8179C16.9629 23.4419 17.0918 23.3345 17.4678 23.3345H18.1016C18.4775 23.3345 18.6064 23.4419 18.6064 23.8179V24.4517C18.6064 24.8276 18.4775 24.9458 18.1016 24.9458H17.4678Z" fill="#045C5C"/>
</svg>
