<svg width="227" height="48" viewBox="0 0 227 48" fill="none" xmlns="http://www.w3.org/2000/svg">
<g filter="url(#filter0_d_253_36672)">
<path d="M8 30.6667C8 24.4669 8 21.367 8.68148 18.8236C10.5308 11.9218 15.9218 6.53083 22.8236 4.68148C25.367 4 28.4669 4 34.6667 4H248V36H13.3333C12.0934 36 11.4734 36 10.9647 35.8637C9.58436 35.4938 8.50617 34.4156 8.1363 33.0353C8 32.5266 8 31.9066 8 30.6667Z" fill="#58B368" shape-rendering="crispEdges"/>
<path d="M41.7129 25.7637C40.2139 25.7637 39.0298 25.2681 38.1606 24.2769C37.2915 23.2808 36.8569 21.9282 36.8569 20.2192C36.8569 18.5005 37.2891 17.1455 38.1533 16.1543C39.0225 15.1631 40.2065 14.6675 41.7056 14.6675C42.9067 14.6675 43.9248 15.0215 44.7598 15.7295C45.5947 16.4326 46.0684 17.3359 46.1807 18.4395H44.3203C44.1885 17.8047 43.8857 17.2993 43.4121 16.9233C42.9385 16.5425 42.3696 16.3521 41.7056 16.3521C40.8071 16.3521 40.0967 16.6987 39.5742 17.3921C39.0518 18.0806 38.7905 19.0205 38.7905 20.2119C38.7905 21.4033 39.0518 22.3457 39.5742 23.0391C40.0967 23.7324 40.8096 24.0791 41.7129 24.0791C42.3818 24.0791 42.9531 23.9058 43.4268 23.5591C43.9004 23.2075 44.2007 22.7363 44.3276 22.1455H46.188C46.061 23.2295 45.5874 24.1035 44.7671 24.7676C43.9468 25.4316 42.9287 25.7637 41.7129 25.7637ZM48.1729 25.5V14.3892H49.9893V25.5H48.1729ZM55.6509 18.769C55.1089 18.769 54.6621 18.9473 54.3105 19.3037C53.959 19.6602 53.7637 20.1313 53.7246 20.7173H57.4966C57.4771 20.1216 57.3013 19.6479 56.9692 19.2964C56.6372 18.9448 56.1978 18.769 55.6509 18.769ZM57.5112 23.2954H59.2324C59.0615 24.0278 58.6587 24.6064 58.0239 25.0312C57.394 25.4512 56.6104 25.6611 55.6729 25.6611C54.4961 25.6611 53.5708 25.2949 52.897 24.5625C52.228 23.8252 51.8936 22.812 51.8936 21.5229C51.8936 20.2339 52.2305 19.2134 52.9043 18.4614C53.5781 17.7046 54.4961 17.3262 55.6582 17.3262C56.8008 17.3262 57.6943 17.6851 58.3389 18.4028C58.9883 19.1157 59.313 20.1045 59.313 21.3691V21.9551H53.7173V22.0503C53.7417 22.7192 53.9321 23.249 54.2886 23.6396C54.6499 24.0254 55.1284 24.2183 55.7241 24.2183C56.6421 24.2183 57.2378 23.9106 57.5112 23.2954ZM63.876 24.2036C64.4229 24.2036 64.8794 24.0474 65.2456 23.7349C65.6118 23.4175 65.7949 23.0269 65.7949 22.563V21.9258L63.9858 22.043C62.9897 22.1064 62.4917 22.4678 62.4917 23.127C62.4917 23.459 62.6187 23.7227 62.8726 23.918C63.1313 24.1084 63.4658 24.2036 63.876 24.2036ZM63.3413 25.6318C62.5601 25.6318 61.9229 25.4121 61.4297 24.9727C60.9365 24.5332 60.6899 23.9521 60.6899 23.2295C60.6899 22.5068 60.9512 21.9404 61.4736 21.5303C62.001 21.1201 62.7529 20.8857 63.7295 20.8271L65.7949 20.7026V20.0288C65.7949 19.6333 65.6655 19.3306 65.4067 19.1206C65.1479 18.9106 64.7744 18.8057 64.2861 18.8057C63.8662 18.8057 63.5195 18.8789 63.2461 19.0254C62.9727 19.167 62.7944 19.3721 62.7114 19.6406H60.9976C61.0708 18.9326 61.4126 18.3711 62.0229 17.9561C62.6382 17.5361 63.4219 17.3262 64.374 17.3262C65.3994 17.3262 66.1904 17.563 66.7471 18.0366C67.3086 18.5103 67.5894 19.1743 67.5894 20.0288V25.5H65.8389V24.4014H65.7144C65.4897 24.7871 65.1675 25.0898 64.7476 25.3096C64.3325 25.5244 63.8638 25.6318 63.3413 25.6318ZM69.7793 25.5V17.4873H71.5298V18.769H71.6543C71.8496 18.3101 72.1475 17.9561 72.5479 17.707C72.9531 17.4531 73.4487 17.3262 74.0347 17.3262C74.9233 17.3262 75.6045 17.585 76.0781 18.1025C76.5566 18.6201 76.7959 19.3574 76.7959 20.3145V25.5H74.9795V20.7466C74.9795 19.521 74.4399 18.9082 73.3608 18.9082C72.8188 18.9082 72.3892 19.0815 72.0718 19.4282C71.7544 19.7749 71.5957 20.2437 71.5957 20.8345V25.5H69.7793ZM78.9712 25.5V17.4873H80.7803V25.5H78.9712ZM79.8721 16.1836C79.5449 16.1836 79.2764 16.0908 79.0664 15.9053C78.8564 15.7148 78.7515 15.4731 78.7515 15.1802C78.7515 14.8872 78.8564 14.6479 79.0664 14.4624C79.2764 14.272 79.5449 14.1768 79.8721 14.1768C80.2041 14.1768 80.4727 14.272 80.6777 14.4624C80.8877 14.6479 80.9927 14.8872 80.9927 15.1802C80.9927 15.4731 80.8877 15.7148 80.6777 15.9053C80.4727 16.0908 80.2041 16.1836 79.8721 16.1836ZM83.0361 25.5V17.4873H84.7866V18.769H84.9111C85.1064 18.3101 85.4043 17.9561 85.8047 17.707C86.21 17.4531 86.7056 17.3262 87.2915 17.3262C88.1802 17.3262 88.8613 17.585 89.335 18.1025C89.8135 18.6201 90.0527 19.3574 90.0527 20.3145V25.5H88.2363V20.7466C88.2363 19.521 87.6968 18.9082 86.6177 18.9082C86.0757 18.9082 85.646 19.0815 85.3286 19.4282C85.0112 19.7749 84.8525 20.2437 84.8525 20.8345V25.5H83.0361ZM94.1836 23.2368C94.5303 23.6812 95.0186 23.9033 95.6484 23.9033C96.2783 23.9033 96.7739 23.6787 97.1353 23.2295C97.4966 22.7803 97.6772 22.1724 97.6772 21.4058C97.6772 20.6392 97.4966 20.0312 97.1353 19.582C96.7739 19.1279 96.2783 18.9009 95.6484 18.9009C95.0234 18.9009 94.5352 19.1255 94.1836 19.5747C93.8369 20.0239 93.6636 20.6343 93.6636 21.4058C93.6636 22.1772 93.8369 22.7876 94.1836 23.2368ZM95.6484 28.5469C94.6279 28.5469 93.7979 28.3394 93.1582 27.9243C92.5234 27.5093 92.1694 26.9551 92.0962 26.2617H93.9199C93.9785 26.54 94.1616 26.7598 94.4692 26.9209C94.7817 27.082 95.1846 27.1626 95.6777 27.1626C96.2979 27.1626 96.7812 27.0234 97.1279 26.7451C97.4746 26.4668 97.6479 26.0762 97.6479 25.5732V24.0571H97.5234C97.2939 24.4868 96.9668 24.8164 96.542 25.0459C96.1221 25.2705 95.6338 25.3828 95.0771 25.3828C94.0713 25.3828 93.2729 25.0239 92.6821 24.3062C92.0913 23.5835 91.7959 22.6167 91.7959 21.4058C91.7959 20.1753 92.0938 19.1938 92.6895 18.4614C93.2852 17.7241 94.0908 17.3555 95.1064 17.3555C95.6533 17.3555 96.1489 17.4824 96.5933 17.7363C97.0376 17.9902 97.3696 18.3345 97.5894 18.769H97.7139V17.4873H99.4644V25.5293C99.4644 26.457 99.1201 27.1919 98.4316 27.7339C97.7432 28.2759 96.8154 28.5469 95.6484 28.5469ZM113.249 25.5L112.377 24.5698C111.962 24.9263 111.464 25.2046 110.883 25.4048C110.302 25.6001 109.689 25.6978 109.044 25.6978C107.946 25.6978 107.062 25.4268 106.393 24.8848C105.724 24.3379 105.39 23.6152 105.39 22.7168C105.39 22.1064 105.553 21.5693 105.88 21.1055C106.208 20.6416 106.715 20.2241 107.404 19.853C107.423 19.8433 107.494 19.8042 107.616 19.7358C107.743 19.6675 107.821 19.626 107.851 19.6113C107.372 19.1133 107.033 18.6787 106.833 18.3076C106.632 17.9365 106.532 17.5581 106.532 17.1724C106.532 16.4692 106.806 15.8882 107.353 15.4292C107.904 14.9653 108.595 14.7334 109.425 14.7334C110.26 14.7334 110.946 14.9604 111.483 15.4146C112.021 15.8638 112.289 16.4424 112.289 17.1504C112.289 17.6924 112.113 18.1855 111.762 18.6299C111.41 19.0693 110.854 19.4917 110.092 19.897L112.34 22.2773C112.619 21.7598 112.758 21.0054 112.758 20.0142V19.6187H114.347V20.1021C114.347 21.4985 114.052 22.6216 113.461 23.4712L115.373 25.5H113.249ZM108.422 20.8052C107.567 21.2593 107.14 21.8477 107.14 22.5703C107.14 23.0781 107.331 23.4907 107.711 23.8081C108.097 24.1206 108.603 24.2769 109.228 24.2769C109.647 24.2769 110.05 24.2036 110.436 24.0571C110.827 23.9106 111.142 23.7129 111.381 23.4639L108.751 20.644C108.659 20.6782 108.549 20.7319 108.422 20.8052ZM109.198 18.9741C109.74 18.7007 110.126 18.4321 110.355 18.1685C110.59 17.9048 110.707 17.6045 110.707 17.2676C110.707 16.9062 110.587 16.6133 110.348 16.3887C110.114 16.1641 109.809 16.0518 109.433 16.0518C109.062 16.0518 108.756 16.1665 108.517 16.396C108.283 16.6206 108.166 16.9111 108.166 17.2676C108.166 17.5264 108.241 17.7827 108.393 18.0366C108.549 18.2905 108.817 18.603 109.198 18.9741ZM129.787 25.5H127.904V20.937H122.763V25.5H120.873V14.9312H122.763V19.3037H127.904V14.9312H129.787V25.5ZM135.668 25.6611C134.467 25.6611 133.524 25.2925 132.841 24.5552C132.157 23.813 131.815 22.7925 131.815 21.4937C131.815 20.2046 132.16 19.189 132.848 18.4468C133.537 17.6997 134.477 17.3262 135.668 17.3262C136.864 17.3262 137.804 17.6973 138.488 18.4395C139.176 19.1816 139.521 20.1997 139.521 21.4937C139.521 22.7925 139.176 23.813 138.488 24.5552C137.804 25.2925 136.864 25.6611 135.668 25.6611ZM134.196 23.4492C134.542 23.9082 135.033 24.1377 135.668 24.1377C136.303 24.1377 136.791 23.9082 137.133 23.4492C137.479 22.9854 137.653 22.3335 137.653 21.4937C137.653 20.6587 137.479 20.0093 137.133 19.5454C136.786 19.0815 136.298 18.8496 135.668 18.8496C135.033 18.8496 134.542 19.0815 134.196 19.5454C133.849 20.0093 133.676 20.6587 133.676 21.4937C133.676 22.3335 133.849 22.9854 134.196 23.4492ZM148.324 17.4873V25.5H146.574V24.2256H146.449C146.044 25.1826 145.246 25.6611 144.054 25.6611C143.18 25.6611 142.499 25.4023 142.011 24.8848C141.522 24.3623 141.278 23.6323 141.278 22.6948V17.4873H143.095V22.2407C143.095 22.856 143.224 23.3149 143.483 23.6177C143.742 23.9155 144.142 24.0645 144.684 24.0645C145.27 24.0645 145.719 23.896 146.032 23.5591C146.349 23.2222 146.508 22.7534 146.508 22.1528V17.4873H148.324ZM150.368 19.7798C150.368 19.0571 150.666 18.4688 151.261 18.0146C151.857 17.5557 152.628 17.3262 153.576 17.3262C154.528 17.3262 155.287 17.5288 155.854 17.9341C156.425 18.3345 156.742 18.8984 156.806 19.626H155.099C155.031 19.3379 154.865 19.1133 154.601 18.9521C154.342 18.7861 154.003 18.7031 153.583 18.7031C153.163 18.7031 152.816 18.7935 152.543 18.9741C152.27 19.1548 152.133 19.3892 152.133 19.6772C152.133 19.9019 152.228 20.0874 152.418 20.2339C152.614 20.3804 152.914 20.5 153.319 20.5928L154.733 20.915C155.504 21.0908 156.071 21.3521 156.432 21.6987C156.793 22.0454 156.974 22.5117 156.974 23.0977C156.974 23.8643 156.657 24.4844 156.022 24.958C155.387 25.4268 154.567 25.6611 153.561 25.6611C152.56 25.6611 151.759 25.4561 151.159 25.0459C150.563 24.6357 150.231 24.0669 150.163 23.3394H151.957C152.045 23.6421 152.228 23.8765 152.506 24.0425C152.79 24.2036 153.156 24.2842 153.605 24.2842C154.064 24.2842 154.438 24.1938 154.726 24.0132C155.014 23.8276 155.158 23.5859 155.158 23.2881C155.158 22.8438 154.789 22.541 154.052 22.3799L152.631 22.0503C151.859 21.8745 151.288 21.6035 150.917 21.2373C150.551 20.8662 150.368 20.3804 150.368 19.7798ZM162.174 18.769C161.632 18.769 161.186 18.9473 160.834 19.3037C160.482 19.6602 160.287 20.1313 160.248 20.7173H164.02C164 20.1216 163.825 19.6479 163.493 19.2964C163.161 18.9448 162.721 18.769 162.174 18.769ZM164.035 23.2954H165.756C165.585 24.0278 165.182 24.6064 164.547 25.0312C163.917 25.4512 163.134 25.6611 162.196 25.6611C161.02 25.6611 160.094 25.2949 159.42 24.5625C158.751 23.8252 158.417 22.812 158.417 21.5229C158.417 20.2339 158.754 19.2134 159.428 18.4614C160.102 17.7046 161.02 17.3262 162.182 17.3262C163.324 17.3262 164.218 17.6851 164.862 18.4028C165.512 19.1157 165.836 20.1045 165.836 21.3691V21.9551H160.241V22.0503C160.265 22.7192 160.456 23.249 160.812 23.6396C161.173 24.0254 161.652 24.2183 162.248 24.2183C163.166 24.2183 163.761 23.9106 164.035 23.2954ZM167.733 25.5V14.3892H169.521V18.7837H169.652C169.843 18.3296 170.148 17.9756 170.568 17.7217C170.988 17.4678 171.493 17.3408 172.084 17.3408C172.948 17.3408 173.622 17.6021 174.105 18.1245C174.594 18.647 174.838 19.3818 174.838 20.3291V25.5H173.021V20.7612C173.021 20.1558 172.885 19.6992 172.611 19.3916C172.338 19.0791 171.938 18.9229 171.41 18.9229C170.824 18.9229 170.368 19.0986 170.041 19.4502C169.713 19.7969 169.55 20.2632 169.55 20.8491V25.5H167.733ZM180.448 25.6611C179.247 25.6611 178.305 25.2925 177.621 24.5552C176.938 23.813 176.596 22.7925 176.596 21.4937C176.596 20.2046 176.94 19.189 177.628 18.4468C178.317 17.6997 179.257 17.3262 180.448 17.3262C181.645 17.3262 182.584 17.6973 183.268 18.4395C183.957 19.1816 184.301 20.1997 184.301 21.4937C184.301 22.7925 183.957 23.813 183.268 24.5552C182.584 25.2925 181.645 25.6611 180.448 25.6611ZM178.976 23.4492C179.323 23.9082 179.813 24.1377 180.448 24.1377C181.083 24.1377 181.571 23.9082 181.913 23.4492C182.26 22.9854 182.433 22.3335 182.433 21.4937C182.433 20.6587 182.26 20.0093 181.913 19.5454C181.566 19.0815 181.078 18.8496 180.448 18.8496C179.813 18.8496 179.323 19.0815 178.976 19.5454C178.629 20.0093 178.456 20.6587 178.456 21.4937C178.456 22.3335 178.629 22.9854 178.976 23.4492ZM186.205 25.5V14.3892H188.021V25.5H186.205ZM193.222 25.6318C192.206 25.6318 191.403 25.2607 190.812 24.5186C190.221 23.7715 189.926 22.7607 189.926 21.4863C189.926 20.2217 190.221 19.2183 190.812 18.4761C191.408 17.729 192.211 17.3555 193.222 17.3555C193.769 17.3555 194.257 17.48 194.687 17.729C195.116 17.978 195.438 18.3223 195.653 18.7617H195.778V14.3892H197.594V25.5H195.836V24.2329H195.712C195.482 24.6724 195.148 25.0166 194.708 25.2656C194.274 25.5098 193.778 25.6318 193.222 25.6318ZM195.258 19.5967C194.896 19.1328 194.406 18.9009 193.786 18.9009C193.166 18.9009 192.677 19.1328 192.321 19.5967C191.964 20.0557 191.786 20.688 191.786 21.4937C191.786 22.3042 191.962 22.939 192.313 23.3979C192.67 23.8569 193.161 24.0864 193.786 24.0864C194.411 24.0864 194.901 23.8569 195.258 23.3979C195.619 22.9341 195.8 22.2993 195.8 21.4937C195.8 20.6929 195.619 20.0605 195.258 19.5967Z" fill="white"/>
</g>
<defs>
<filter id="filter0_d_253_36672" x="0" y="0" width="256" height="48" filterUnits="userSpaceOnUse" color-interpolation-filters="sRGB">
<feFlood flood-opacity="0" result="BackgroundImageFix"/>
<feColorMatrix in="SourceAlpha" type="matrix" values="0 0 0 0 0 0 0 0 0 0 0 0 0 0 0 0 0 0 127 0" result="hardAlpha"/>
<feMorphology radius="6" operator="dilate" in="SourceAlpha" result="effect1_dropShadow_253_36672"/>
<feOffset dy="4"/>
<feGaussianBlur stdDeviation="1"/>
<feComposite in2="hardAlpha" operator="out"/>
<feColorMatrix type="matrix" values="0 0 0 0 0.376645 0 0 0 0 0.306931 0 0 0 0 0.408333 0 0 0 0.5 0"/>
<feBlend mode="normal" in2="BackgroundImageFix" result="effect1_dropShadow_253_36672"/>
<feBlend mode="normal" in="SourceGraphic" in2="effect1_dropShadow_253_36672" result="shape"/>
</filter>
</defs>
</svg>
