<svg width="227" height="48" viewBox="0 0 227 48" fill="none" xmlns="http://www.w3.org/2000/svg">
<g filter="url(#filter0_d_386_38829)">
<path d="M8 30.6667C8 24.4669 8 21.367 8.68148 18.8236C10.5308 11.9218 15.9218 6.53083 22.8236 4.68148C25.367 4 28.4669 4 34.6667 4H248V36H13.3333C12.0934 36 11.4734 36 10.9647 35.8637C9.58436 35.4938 8.50617 34.4156 8.1363 33.0353C8 32.5266 8 31.9066 8 30.6667Z" fill="#58B368" shape-rendering="crispEdges"/>
<path d="M47.8835 26V12.7889H45.5215V18.3187C44.8898 18.868 43.8735 19.2159 42.6101 19.2159C40.6783 19.2159 39.6163 18.1265 39.6163 16.3137V12.7889H37.2634V16.451C37.2634 19.2617 39.0579 21.34 42.2531 21.34C43.5348 21.34 44.5876 21.0653 45.3658 20.5709H45.5215V26H47.8835ZM53.3218 26L57.5881 19.3258H57.7438V26H59.9868V15.9841H57.7438L53.4774 22.6125H53.3218V15.9841H51.0787V26H53.3218ZM71.6049 19.3533C71.3668 17.2476 69.8104 15.7827 67.2378 15.7827C64.2257 15.7827 62.4587 17.7145 62.4587 20.9646C62.4587 24.2605 64.2349 26.2014 67.2469 26.2014C69.783 26.2014 71.3577 24.7915 71.6049 22.6949H69.4442C69.2062 23.7386 68.4188 24.2971 67.2378 24.2971C65.6906 24.2971 64.7567 23.0703 64.7567 20.9646C64.7567 18.8864 65.6814 17.687 67.2378 17.687C68.4829 17.687 69.2336 18.3828 69.4442 19.3533H71.6049ZM81.1904 15.9841H72.7493V17.7969H75.8346V26H78.1051V17.7969H81.1904V15.9841ZM87.3611 26.2014C90.3549 26.2014 92.1768 24.2422 92.1768 20.9921C92.1768 17.7511 90.3457 15.7827 87.3611 15.7827C84.3856 15.7827 82.5454 17.7603 82.5454 20.9921C82.5454 24.2422 84.3582 26.2014 87.3611 26.2014ZM87.3611 24.2971C85.7772 24.2971 84.8708 23.0886 84.8708 20.9921C84.8708 18.9047 85.7772 17.687 87.3611 17.687C88.9358 17.687 89.8422 18.9047 89.8422 20.9921C89.8422 23.0886 88.9449 24.2971 87.3611 24.2971ZM101.698 15.9841H93.2571V17.7969H96.3424V26H98.6129V17.7969H101.698V15.9841ZM107.118 24.3795C106.111 24.3795 105.388 23.876 105.388 23.0337C105.388 22.2189 105.983 21.7611 107.255 21.6787L109.517 21.5322V22.3287C109.517 23.4915 108.491 24.3795 107.118 24.3795ZM106.45 26.1648C107.759 26.1648 108.858 25.5972 109.416 24.6267H109.572V26H111.76V19.161C111.76 17.037 110.313 15.7827 107.741 15.7827C105.36 15.7827 103.703 16.9088 103.52 18.6758H105.662C105.873 17.9983 106.587 17.6321 107.631 17.6321C108.858 17.6321 109.517 18.1814 109.517 19.161V20.0033L106.935 20.1589C104.5 20.3054 103.136 21.3491 103.136 23.1619C103.136 24.9929 104.518 26.1648 106.45 26.1648ZM121.913 26L126.179 19.3258H126.335V26H128.578V15.9841H126.335L122.069 22.6125H121.913V15.9841H119.67V26H121.913ZM142.952 26H145.222V15.9841H136.534V26H138.805V17.7969H142.952V26ZM152.51 26.2014C155.504 26.2014 157.326 24.2422 157.326 20.9921C157.326 17.7511 155.495 15.7827 152.51 15.7827C149.535 15.7827 147.694 17.7603 147.694 20.9921C147.694 24.2422 149.507 26.2014 152.51 26.2014ZM152.51 24.2971C150.926 24.2971 150.02 23.0886 150.02 20.9921C150.02 18.9047 150.926 17.687 152.51 17.687C154.085 17.687 154.991 18.9047 154.991 20.9921C154.991 23.0886 154.094 24.2971 152.51 24.2971ZM165.254 15.8193C163.881 15.8193 162.718 16.506 162.141 17.6412H161.986V15.9841H159.798V29.3325H162.068V24.4802H162.224C162.736 25.5422 163.844 26.1648 165.282 26.1648C167.808 26.1648 169.383 24.1873 169.383 20.9921C169.383 17.7786 167.79 15.8193 165.254 15.8193ZM164.54 24.233C162.993 24.233 162.031 22.9971 162.022 20.9921C162.031 18.9962 163.002 17.7511 164.549 17.7511C166.106 17.7511 167.049 18.9688 167.049 20.9921C167.049 23.0154 166.115 24.233 164.54 24.233ZM175.471 20.928C174.382 20.928 173.668 20.2963 173.668 19.4082C173.668 18.4103 174.373 17.7877 175.471 17.7877H177.193V20.928H175.471ZM177.193 26H179.427V15.9841H175.297C172.963 15.9841 171.425 17.2933 171.425 19.399C171.425 20.7815 172.258 21.8618 173.622 22.2555L170.94 26H173.54L175.883 22.6492H177.193V26ZM188.783 24.1873H184.462V24.0225C184.901 23.3999 185.13 22.4294 185.213 21.34L185.469 17.7877H188.783V24.1873ZM183.327 28.6093V26H190.504V28.6093H192.592V24.1873H191.054V15.9841H183.519L183.171 21.2118C183.079 22.5576 182.768 23.7478 182.027 24.1873H181.239V28.6093H183.327ZM198.854 26.2014C201.848 26.2014 203.67 24.2422 203.67 20.9921C203.67 17.7511 201.839 15.7827 198.854 15.7827C195.879 15.7827 194.038 17.7603 194.038 20.9921C194.038 24.2422 195.851 26.2014 198.854 26.2014ZM198.854 24.2971C197.27 24.2971 196.364 23.0886 196.364 20.9921C196.364 18.9047 197.27 17.687 198.854 17.687C200.429 17.687 201.335 18.9047 201.335 20.9921C201.335 23.0886 200.438 24.2971 198.854 24.2971ZM208.925 21.697L212.257 26H215.013L210.774 20.6075L214.821 15.9841H212.202L208.906 19.9941H208.403V15.9841H206.132V26H208.403V21.697H208.925Z" fill="white"/>
</g>
<defs>
<filter id="filter0_d_386_38829" x="0" y="0" width="256" height="48" filterUnits="userSpaceOnUse" color-interpolation-filters="sRGB">
<feFlood flood-opacity="0" result="BackgroundImageFix"/>
<feColorMatrix in="SourceAlpha" type="matrix" values="0 0 0 0 0 0 0 0 0 0 0 0 0 0 0 0 0 0 127 0" result="hardAlpha"/>
<feMorphology radius="6" operator="dilate" in="SourceAlpha" result="effect1_dropShadow_386_38829"/>
<feOffset dy="4"/>
<feGaussianBlur stdDeviation="1"/>
<feComposite in2="hardAlpha" operator="out"/>
<feColorMatrix type="matrix" values="0 0 0 0 0.376645 0 0 0 0 0.306931 0 0 0 0 0.408333 0 0 0 0.5 0"/>
<feBlend mode="normal" in2="BackgroundImageFix" result="effect1_dropShadow_386_38829"/>
<feBlend mode="normal" in="SourceGraphic" in2="effect1_dropShadow_386_38829" result="shape"/>
</filter>
</defs>
</svg>
