<svg width="243" height="48" viewBox="0 0 243 48" fill="none" xmlns="http://www.w3.org/2000/svg">
<g filter="url(#filter0_d_1928_113673)">
<path d="M8 30.6667C8 24.4669 8 21.367 8.68148 18.8236C10.5308 11.9218 15.9218 6.53083 22.8236 4.68148C25.367 4 28.4669 4 34.6667 4H248V36H13.3333C12.0934 36 11.4734 36 10.9647 35.8637C9.58436 35.4938 8.50617 34.4156 8.1363 33.0353C8 32.5266 8 31.9066 8 30.6667Z" fill="#58B368" shape-rendering="crispEdges"/>
<path d="M39.9093 26H37.6296V12.7889H39.6804L46.1624 21.7703H46.318V12.7889H48.5885V26H46.5469L40.0649 17.0095H39.9093V26ZM55.8212 17.5863C55.1437 17.5863 54.5852 17.8091 54.1458 18.2546C53.7063 18.7002 53.4622 19.2892 53.4133 20.0216H58.1283C58.1039 19.277 57.8842 18.6849 57.4691 18.2455C57.0541 17.806 56.5048 17.5863 55.8212 17.5863ZM58.1466 23.2443H60.2981C60.0845 24.1598 59.5809 24.8831 58.7875 25.4141C58.0001 25.939 57.0205 26.2014 55.8486 26.2014C54.3777 26.2014 53.2211 25.7437 52.3788 24.8281C51.5426 23.9065 51.1245 22.64 51.1245 21.0287C51.1245 19.4174 51.5457 18.1417 52.3879 17.2018C53.2302 16.2557 54.3777 15.7827 55.8303 15.7827C57.2585 15.7827 58.3755 16.2313 59.1812 17.1285C59.9929 18.0197 60.3988 19.2556 60.3988 20.8364V21.5688H53.4042V21.6879C53.4347 22.524 53.6727 23.1863 54.1183 23.6746C54.5699 24.1567 55.1681 24.3978 55.9127 24.3978C57.0602 24.3978 57.8048 24.0133 58.1466 23.2443ZM63.4017 13.5305H65.6631V16.0482H67.8054V17.861H65.6631V22.7773C65.6631 23.2717 65.7729 23.6349 65.9927 23.8668C66.2124 24.0927 66.5603 24.2056 67.0364 24.2056C67.2439 24.2056 67.5002 24.1903 67.8054 24.1598V25.9359C67.427 26.0092 67.0303 26.0458 66.6152 26.0458C65.4678 26.0458 64.6438 25.8352 64.1433 25.4141C63.6489 24.9929 63.4017 24.2971 63.4017 23.3267V17.861H61.8179V16.0482H63.4017V13.5305ZM70.8541 13.5305H73.1155V16.0482H75.2578V17.861H73.1155V22.7773C73.1155 23.2717 73.2253 23.6349 73.4451 23.8668C73.6648 24.0927 74.0127 24.2056 74.4888 24.2056C74.6963 24.2056 74.9526 24.1903 75.2578 24.1598V25.9359C74.8794 26.0092 74.4827 26.0458 74.0676 26.0458C72.9202 26.0458 72.0962 25.8352 71.5957 25.4141C71.1013 24.9929 70.8541 24.2971 70.8541 23.3267V17.861H69.2703V16.0482H70.8541V13.5305ZM81.7581 26.2014C80.2566 26.2014 79.0786 25.7406 78.2241 24.819C77.3696 23.8912 76.9424 22.6156 76.9424 20.9921C76.9424 19.3807 77.3727 18.1112 78.2333 17.1835C79.0939 16.2496 80.2688 15.7827 81.7581 15.7827C83.2534 15.7827 84.4283 16.2466 85.2828 17.1743C86.1434 18.1021 86.5737 19.3746 86.5737 20.9921C86.5737 22.6156 86.1434 23.8912 85.2828 24.819C84.4283 25.7406 83.2534 26.2014 81.7581 26.2014ZM79.9178 23.4365C80.3512 24.0103 80.9646 24.2971 81.7581 24.2971C82.5515 24.2971 83.1619 24.0103 83.5891 23.4365C84.0225 22.8567 84.2391 22.0419 84.2391 20.9921C84.2391 19.9484 84.0225 19.1366 83.5891 18.5568C83.1558 17.9769 82.5454 17.687 81.7581 17.687C80.9646 17.687 80.3512 17.9769 79.9178 18.5568C79.4845 19.1366 79.2678 19.9484 79.2678 20.9921C79.2678 22.0419 79.4845 22.8567 79.9178 23.4365ZM89.5583 29.6346C89.0884 29.6346 88.7893 29.6224 88.6611 29.598V27.7395C88.7771 27.7639 88.9846 27.7761 89.2837 27.7761C89.7659 27.7761 90.1473 27.6754 90.4281 27.474C90.715 27.2726 90.9316 26.943 91.0781 26.4852L91.1971 26.0458L87.6174 15.9841H90.1077L92.4514 23.8027H92.6071L94.9417 15.9841H97.3403L93.724 26.3204C93.3029 27.5594 92.7841 28.42 92.1676 28.9022C91.5573 29.3905 90.6875 29.6346 89.5583 29.6346ZM102.376 24.3795C103.059 24.3795 103.63 24.1842 104.088 23.7936C104.546 23.3969 104.774 22.9086 104.774 22.3287V21.5322L102.513 21.6787C101.268 21.7581 100.645 22.2097 100.645 23.0337C100.645 23.4487 100.804 23.7783 101.121 24.0225C101.445 24.2605 101.863 24.3795 102.376 24.3795ZM101.707 26.1648C100.731 26.1648 99.9343 25.8901 99.3179 25.3408C98.7014 24.7915 98.3932 24.0652 98.3932 23.1619C98.3932 22.2585 98.7197 21.5505 99.3728 21.0378C100.032 20.5251 100.972 20.2322 102.193 20.1589L104.774 20.0033V19.161C104.774 18.6666 104.613 18.2882 104.289 18.0258C103.966 17.7633 103.499 17.6321 102.888 17.6321C102.364 17.6321 101.93 17.7236 101.588 17.9067C101.247 18.0837 101.024 18.3401 100.92 18.6758H98.7777C98.8693 17.7908 99.2965 17.0889 100.059 16.5701C100.828 16.0452 101.808 15.7827 102.998 15.7827C104.28 15.7827 105.269 16.0787 105.965 16.6708C106.667 17.2628 107.017 18.0929 107.017 19.161V26H104.829V24.6267H104.674C104.393 25.1089 103.99 25.4873 103.465 25.762C102.946 26.0305 102.36 26.1648 101.707 26.1648ZM112.227 23.171C112.66 23.7264 113.271 24.0042 114.058 24.0042C114.845 24.0042 115.465 23.7234 115.916 23.1619C116.368 22.6003 116.594 21.8405 116.594 20.8822C116.594 19.924 116.368 19.1641 115.916 18.6025C115.465 18.0349 114.845 17.7511 114.058 17.7511C113.277 17.7511 112.666 18.0319 112.227 18.5934C111.793 19.1549 111.577 19.9178 111.577 20.8822C111.577 21.8466 111.793 22.6095 112.227 23.171ZM114.058 29.8086C112.782 29.8086 111.745 29.5492 110.945 29.0304C110.152 28.5116 109.709 27.8188 109.618 26.9521H111.897C111.97 27.3 112.199 27.5747 112.584 27.7761C112.974 27.9775 113.478 28.0782 114.094 28.0782C114.87 28.0782 115.474 27.9043 115.907 27.5564C116.341 27.2085 116.557 26.7202 116.557 26.0916V24.1964H116.402C116.115 24.7335 115.706 25.1455 115.175 25.4324C114.65 25.7131 114.04 25.8535 113.344 25.8535C112.086 25.8535 111.089 25.4049 110.35 24.5077C109.611 23.6044 109.242 22.3959 109.242 20.8822C109.242 19.3441 109.615 18.1173 110.359 17.2018C111.104 16.2802 112.111 15.8193 113.38 15.8193C114.064 15.8193 114.683 15.978 115.239 16.2954C115.794 16.6128 116.209 17.0431 116.484 17.5863H116.64V15.9841H118.828V26.0366C118.828 27.1963 118.397 28.1149 117.537 28.7924C116.676 29.4698 115.517 29.8086 114.058 29.8086ZM125.822 17.5863C125.145 17.5863 124.586 17.8091 124.147 18.2546C123.708 18.7002 123.463 19.2892 123.415 20.0216H128.13C128.105 19.277 127.885 18.6849 127.47 18.2455C127.055 17.806 126.506 17.5863 125.822 17.5863ZM128.148 23.2443H130.299C130.086 24.1598 129.582 24.8831 128.789 25.4141C128.001 25.939 127.022 26.2014 125.85 26.2014C124.379 26.2014 123.222 25.7437 122.38 24.8281C121.544 23.9065 121.126 22.64 121.126 21.0287C121.126 19.4174 121.547 18.1417 122.389 17.2018C123.231 16.2557 124.379 15.7827 125.832 15.7827C127.26 15.7827 128.377 16.2313 129.182 17.1285C129.994 18.0197 130.4 19.2556 130.4 20.8364V21.5688H123.405V21.6879C123.436 22.524 123.674 23.1863 124.12 23.6746C124.571 24.1567 125.169 24.3978 125.914 24.3978C127.061 24.3978 127.806 24.0133 128.148 23.2443ZM147.118 26L146.028 24.8373C145.509 25.2828 144.887 25.6307 144.16 25.881C143.434 26.1251 142.668 26.2472 141.862 26.2472C140.489 26.2472 139.384 25.9084 138.548 25.231C137.712 24.5474 137.294 23.644 137.294 22.521C137.294 21.7581 137.498 21.0867 137.907 20.5068C138.316 19.927 138.951 19.4052 139.812 18.9413C139.836 18.9291 139.925 18.8802 140.077 18.7948C140.236 18.7094 140.333 18.6575 140.37 18.6392C139.772 18.0166 139.348 17.4734 139.098 17.0095C138.847 16.5457 138.722 16.0726 138.722 15.5905C138.722 14.7115 139.064 13.9852 139.748 13.4115C140.437 12.8317 141.301 12.5417 142.339 12.5417C143.382 12.5417 144.24 12.8256 144.911 13.3932C145.583 13.9547 145.918 14.678 145.918 15.563C145.918 16.2405 145.698 16.8569 145.259 17.4124C144.82 17.9617 144.124 18.4896 143.172 18.9962L145.982 21.9717C146.33 21.3247 146.504 20.3817 146.504 19.1427V18.6483H148.491V19.2526C148.491 20.9982 148.122 22.402 147.383 23.464L149.773 26H147.118ZM141.084 20.1315C140.016 20.6991 139.482 21.4346 139.482 22.3379C139.482 22.9727 139.72 23.4884 140.196 23.8851C140.678 24.2758 141.31 24.4711 142.091 24.4711C142.616 24.4711 143.12 24.3795 143.602 24.1964C144.09 24.0133 144.484 23.7661 144.783 23.4548L141.496 19.9301C141.38 19.9728 141.243 20.0399 141.084 20.1315ZM142.055 17.8427C142.732 17.5009 143.214 17.1652 143.501 16.8356C143.794 16.506 143.941 16.1306 143.941 15.7095C143.941 15.2578 143.791 14.8916 143.492 14.6108C143.199 14.3301 142.818 14.1897 142.348 14.1897C141.884 14.1897 141.502 14.3331 141.203 14.62C140.91 14.9008 140.764 15.2639 140.764 15.7095C140.764 16.033 140.858 16.3534 141.048 16.6708C141.243 16.9882 141.579 17.3788 142.055 17.8427ZM170.29 26H168.092V16.7074H167.964L164.311 25.4873H162.627L158.974 16.7074H158.845V26H156.648V12.7889H159.413L163.386 22.4111H163.551L167.525 12.7889H170.29V26ZM177.513 17.5863C176.836 17.5863 176.277 17.8091 175.838 18.2546C175.398 18.7002 175.154 19.2892 175.105 20.0216H179.82C179.796 19.277 179.576 18.6849 179.161 18.2455C178.746 17.806 178.197 17.5863 177.513 17.5863ZM179.839 23.2443H181.99C181.776 24.1598 181.273 24.8831 180.479 25.4141C179.692 25.939 178.712 26.2014 177.541 26.2014C176.07 26.2014 174.913 25.7437 174.071 24.8281C173.234 23.9065 172.816 22.64 172.816 21.0287C172.816 19.4174 173.238 18.1417 174.08 17.2018C174.922 16.2557 176.07 15.7827 177.522 15.7827C178.95 15.7827 180.067 16.2313 180.873 17.1285C181.685 18.0197 182.091 19.2556 182.091 20.8364V21.5688H175.096V21.6879C175.127 22.524 175.365 23.1863 175.81 23.6746C176.262 24.1567 176.86 24.3978 177.605 24.3978C178.752 24.3978 179.497 24.0133 179.839 23.2443ZM178.456 14.327H176.24L178.52 11.1501H181.056L178.456 14.327ZM184.37 26V15.9841H186.558V17.5863H186.714C186.958 17.0126 187.331 16.5701 187.831 16.2588C188.338 15.9414 188.957 15.7827 189.69 15.7827C190.8 15.7827 191.652 16.1062 192.244 16.7532C192.842 17.4001 193.141 18.3218 193.141 19.5181V26H190.871V20.0582C190.871 18.5262 190.196 17.7603 188.847 17.7603C188.17 17.7603 187.633 17.9769 187.236 18.4103C186.839 18.8436 186.641 19.4296 186.641 20.1681V26H184.37ZM199.257 24.3795C199.94 24.3795 200.511 24.1842 200.969 23.7936C201.427 23.3969 201.656 22.9086 201.656 22.3287V21.5322L199.394 21.6787C198.149 21.7581 197.526 22.2097 197.526 23.0337C197.526 23.4487 197.685 23.7783 198.003 24.0225C198.326 24.2605 198.744 24.3795 199.257 24.3795ZM198.589 26.1648C197.612 26.1648 196.815 25.8901 196.199 25.3408C195.583 24.7915 195.274 24.0652 195.274 23.1619C195.274 22.2585 195.601 21.5505 196.254 21.0378C196.913 20.5251 197.853 20.2322 199.074 20.1589L201.656 20.0033V19.161C201.656 18.6666 201.494 18.2882 201.17 18.0258C200.847 17.7633 200.38 17.6321 199.77 17.6321C199.245 17.6321 198.811 17.7236 198.469 17.9067C198.128 18.0837 197.905 18.3401 197.801 18.6758H195.659C195.75 17.7908 196.178 17.0889 196.941 16.5701C197.71 16.0452 198.689 15.7827 199.879 15.7827C201.161 15.7827 202.15 16.0787 202.846 16.6708C203.548 17.2628 203.899 18.0929 203.899 19.161V26H201.71V24.6267H201.555C201.274 25.1089 200.871 25.4873 200.346 25.762C199.828 26.0305 199.242 26.1648 198.589 26.1648ZM209.108 23.171C209.541 23.7264 210.152 24.0042 210.939 24.0042C211.726 24.0042 212.346 23.7234 212.797 23.1619C213.249 22.6003 213.475 21.8405 213.475 20.8822C213.475 19.924 213.249 19.1641 212.797 18.6025C212.346 18.0349 211.726 17.7511 210.939 17.7511C210.158 17.7511 209.547 18.0319 209.108 18.5934C208.675 19.1549 208.458 19.9178 208.458 20.8822C208.458 21.8466 208.675 22.6095 209.108 23.171ZM210.939 29.8086C209.663 29.8086 208.626 29.5492 207.826 29.0304C207.033 28.5116 206.59 27.8188 206.499 26.9521H208.778C208.852 27.3 209.08 27.5747 209.465 27.7761C209.856 27.9775 210.359 28.0782 210.976 28.0782C211.751 28.0782 212.355 27.9043 212.788 27.5564C213.222 27.2085 213.438 26.7202 213.438 26.0916V24.1964H213.283C212.996 24.7335 212.587 25.1455 212.056 25.4324C211.531 25.7131 210.921 25.8535 210.225 25.8535C208.968 25.8535 207.97 25.4049 207.231 24.5077C206.493 23.6044 206.123 22.3959 206.123 20.8822C206.123 19.3441 206.496 18.1173 207.24 17.2018C207.985 16.2802 208.992 15.8193 210.261 15.8193C210.945 15.8193 211.565 15.978 212.12 16.2954C212.675 16.6128 213.09 17.0431 213.365 17.5863H213.521V15.9841H215.709V26.0366C215.709 27.1963 215.279 28.1149 214.418 28.7924C213.557 29.4698 212.398 29.8086 210.939 29.8086ZM222.703 17.5863C222.026 17.5863 221.468 17.8091 221.028 18.2546C220.589 18.7002 220.344 19.2892 220.296 20.0216H225.011C224.986 19.277 224.766 18.6849 224.351 18.2455C223.936 17.806 223.387 17.5863 222.703 17.5863ZM225.029 23.2443H227.18C226.967 24.1598 226.463 24.8831 225.67 25.4141C224.882 25.939 223.903 26.2014 222.731 26.2014C221.26 26.2014 220.103 25.7437 219.261 24.8281C218.425 23.9065 218.007 22.64 218.007 21.0287C218.007 19.4174 218.428 18.1417 219.27 17.2018C220.113 16.2557 221.26 15.7827 222.713 15.7827C224.141 15.7827 225.258 16.2313 226.063 17.1285C226.875 18.0197 227.281 19.2556 227.281 20.8364V21.5688H220.286V21.6879C220.317 22.524 220.555 23.1863 221.001 23.6746C221.452 24.1567 222.05 24.3978 222.795 24.3978C223.943 24.3978 224.687 24.0133 225.029 23.2443Z" fill="white"/>
</g>
<defs>
<filter id="filter0_d_1928_113673" x="0" y="0" width="256" height="48" filterUnits="userSpaceOnUse" color-interpolation-filters="sRGB">
<feFlood flood-opacity="0" result="BackgroundImageFix"/>
<feColorMatrix in="SourceAlpha" type="matrix" values="0 0 0 0 0 0 0 0 0 0 0 0 0 0 0 0 0 0 127 0" result="hardAlpha"/>
<feMorphology radius="6" operator="dilate" in="SourceAlpha" result="effect1_dropShadow_1928_113673"/>
<feOffset dy="4"/>
<feGaussianBlur stdDeviation="1"/>
<feComposite in2="hardAlpha" operator="out"/>
<feColorMatrix type="matrix" values="0 0 0 0 0.376645 0 0 0 0 0.306931 0 0 0 0 0.408333 0 0 0 0.5 0"/>
<feBlend mode="normal" in2="BackgroundImageFix" result="effect1_dropShadow_1928_113673"/>
<feBlend mode="normal" in="SourceGraphic" in2="effect1_dropShadow_1928_113673" result="shape"/>
</filter>
</defs>
</svg>
