<svg width="248" height="48" viewBox="0 0 248 48" fill="none" xmlns="http://www.w3.org/2000/svg">
<g filter="url(#filter0_d_1928_114437)">
<path d="M8 30.6667C8 24.4669 8 21.367 8.68148 18.8236C10.5308 11.9218 15.9218 6.53083 22.8236 4.68148C25.367 4 28.4669 4 34.6667 4H248V36H13.3333C12.0934 36 11.4734 36 10.9647 35.8637C9.58436 35.4938 8.50617 34.4156 8.1363 33.0353C8 32.5266 8 31.9066 8 30.6667Z" fill="#58B368" shape-rendering="crispEdges"/>
<path d="M39.9917 14.7482V19.1702H42.72C43.4707 19.1702 44.0505 18.9779 44.4595 18.5934C44.8745 18.2089 45.082 17.6656 45.082 16.9637C45.082 16.274 44.8654 15.7339 44.432 15.3433C44.0048 14.9465 43.4158 14.7482 42.665 14.7482H39.9917ZM39.9917 21.047V26H37.6296V12.7889H42.9946C44.3801 12.7889 45.4788 13.1613 46.2905 13.9059C47.1023 14.6444 47.5082 15.6484 47.5082 16.918C47.5082 17.7969 47.2885 18.5751 46.849 19.2526C46.4095 19.924 45.7992 20.4 45.0179 20.6808L47.9019 26H45.201L42.6101 21.047H39.9917ZM54.0267 17.5863C53.3492 17.5863 52.7908 17.8091 52.3513 18.2546C51.9119 18.7002 51.6677 19.2892 51.6189 20.0216H56.3339C56.3094 19.277 56.0897 18.6849 55.6747 18.2455C55.2596 17.806 54.7103 17.5863 54.0267 17.5863ZM56.3522 23.2443H58.5037C58.29 24.1598 57.7865 24.8831 56.993 25.4141C56.2057 25.939 55.2261 26.2014 54.0542 26.2014C52.5833 26.2014 51.4266 25.7437 50.5844 24.8281C49.7482 23.9065 49.3301 22.64 49.3301 21.0287C49.3301 19.4174 49.7512 18.1417 50.5935 17.2018C51.4358 16.2557 52.5833 15.7827 54.0359 15.7827C55.4641 15.7827 56.5811 16.2313 57.3867 17.1285C58.1985 18.0197 58.6044 19.2556 58.6044 20.8364V21.5688H51.6097V21.6879C51.6403 22.524 51.8783 23.1863 52.3239 23.6746C52.7755 24.1567 53.3737 24.3978 54.1183 24.3978C55.2657 24.3978 56.0104 24.0133 56.3522 23.2443ZM60.9115 26V15.9841H63.1729V26H60.9115ZM62.0376 14.3545C61.6287 14.3545 61.293 14.2385 61.0305 14.0066C60.7681 13.7686 60.6368 13.4664 60.6368 13.1002C60.6368 12.734 60.7681 12.4349 61.0305 12.203C61.293 11.965 61.6287 11.8459 62.0376 11.8459C62.4526 11.8459 62.7883 11.965 63.0447 12.203C63.3071 12.4349 63.4384 12.734 63.4384 13.1002C63.4384 13.4664 63.3071 13.7686 63.0447 14.0066C62.7883 14.2385 62.4526 14.3545 62.0376 14.3545ZM65.9927 26V15.9841H68.1808V17.5863H68.3364C68.5806 17.0126 68.9529 16.5701 69.4534 16.2588C69.96 15.9414 70.5795 15.7827 71.3119 15.7827C72.4227 15.7827 73.2742 16.1062 73.8662 16.7532C74.4644 17.4001 74.7634 18.3218 74.7634 19.5181V26H72.4929V20.0582C72.4929 18.5262 71.8185 17.7603 70.4696 17.7603C69.7921 17.7603 69.255 17.9769 68.8583 18.4103C68.4615 18.8436 68.2632 19.4296 68.2632 20.1681V26H65.9927ZM77.4825 26V15.9841H79.7439V26H77.4825ZM78.6086 14.3545C78.1997 14.3545 77.864 14.2385 77.6016 14.0066C77.3391 13.7686 77.2079 13.4664 77.2079 13.1002C77.2079 12.734 77.3391 12.4349 77.6016 12.203C77.864 11.965 78.1997 11.8459 78.6086 11.8459C79.0237 11.8459 79.3594 11.965 79.6157 12.203C79.8782 12.4349 80.0094 12.734 80.0094 13.1002C80.0094 13.4664 79.8782 13.7686 79.6157 14.0066C79.3594 14.2385 79.0237 14.3545 78.6086 14.3545ZM85.0356 23.171C85.469 23.7264 86.0793 24.0042 86.8667 24.0042C87.6541 24.0042 88.2736 23.7234 88.7252 23.1619C89.1769 22.6003 89.4027 21.8405 89.4027 20.8822C89.4027 19.924 89.1769 19.1641 88.7252 18.6025C88.2736 18.0349 87.6541 17.7511 86.8667 17.7511C86.0854 17.7511 85.4751 18.0319 85.0356 18.5934C84.6023 19.1549 84.3856 19.9178 84.3856 20.8822C84.3856 21.8466 84.6023 22.6095 85.0356 23.171ZM86.8667 29.8086C85.5911 29.8086 84.5535 29.5492 83.7539 29.0304C82.9604 28.5116 82.5179 27.8188 82.4264 26.9521H84.7061C84.7793 27.3 85.0082 27.5747 85.3927 27.7761C85.7833 27.9775 86.2869 28.0782 86.9033 28.0782C87.6785 28.0782 88.2827 27.9043 88.7161 27.5564C89.1494 27.2085 89.3661 26.7202 89.3661 26.0916V24.1964H89.2104C88.9236 24.7335 88.5146 25.1455 87.9836 25.4324C87.4587 25.7131 86.8484 25.8535 86.1526 25.8535C84.8953 25.8535 83.8973 25.4049 83.1588 24.5077C82.4203 23.6044 82.051 22.3959 82.051 20.8822C82.051 19.3441 82.4233 18.1173 83.168 17.2018C83.9126 16.2802 84.9197 15.8193 86.1892 15.8193C86.8728 15.8193 87.4923 15.978 88.0477 16.2954C88.6031 16.6128 89.0182 17.0431 89.2928 17.5863H89.4485V15.9841H91.6366V26.0366C91.6366 27.1963 91.2063 28.1149 90.3457 28.7924C89.4851 29.4698 88.3254 29.8086 86.8667 29.8086ZM103.145 15.9841V26H100.957V24.407H100.801C100.294 25.6033 99.2965 26.2014 97.8073 26.2014C96.7147 26.2014 95.8633 25.8779 95.2529 25.231C94.6426 24.5779 94.3374 23.6654 94.3374 22.4935V15.9841H96.6079V21.9259C96.6079 22.6949 96.7697 23.2687 97.0931 23.6471C97.4166 24.0194 97.9171 24.2056 98.5946 24.2056C99.327 24.2056 99.8885 23.995 100.279 23.5739C100.676 23.1527 100.874 22.5668 100.874 21.816V15.9841H103.145ZM105.928 26V15.9841H108.116V17.5863H108.272C108.516 17.0126 108.888 16.5701 109.389 16.2588C109.895 15.9414 110.515 15.7827 111.247 15.7827C112.358 15.7827 113.209 16.1062 113.802 16.7532C114.4 17.4001 114.699 18.3218 114.699 19.5181V26H112.428V20.0582C112.428 18.5262 111.754 17.7603 110.405 17.7603C109.727 17.7603 109.19 17.9769 108.794 18.4103C108.397 18.8436 108.198 19.4296 108.198 20.1681V26H105.928ZM119.862 23.171C120.296 23.7264 120.906 24.0042 121.693 24.0042C122.481 24.0042 123.1 23.7234 123.552 23.1619C124.004 22.6003 124.229 21.8405 124.229 20.8822C124.229 19.924 124.004 19.1641 123.552 18.6025C123.1 18.0349 122.481 17.7511 121.693 17.7511C120.912 17.7511 120.302 18.0319 119.862 18.5934C119.429 19.1549 119.212 19.9178 119.212 20.8822C119.212 21.8466 119.429 22.6095 119.862 23.171ZM121.693 29.8086C120.418 29.8086 119.38 29.5492 118.581 29.0304C117.787 28.5116 117.345 27.8188 117.253 26.9521H119.533C119.606 27.3 119.835 27.5747 120.219 27.7761C120.61 27.9775 121.114 28.0782 121.73 28.0782C122.505 28.0782 123.109 27.9043 123.543 27.5564C123.976 27.2085 124.193 26.7202 124.193 26.0916V24.1964H124.037C123.75 24.7335 123.341 25.1455 122.81 25.4324C122.285 25.7131 121.675 25.8535 120.979 25.8535C119.722 25.8535 118.724 25.4049 117.985 24.5077C117.247 23.6044 116.878 22.3959 116.878 20.8822C116.878 19.3441 117.25 18.1173 117.995 17.2018C118.739 16.2802 119.746 15.8193 121.016 15.8193C121.699 15.8193 122.319 15.978 122.874 16.2954C123.43 16.6128 123.845 17.0431 124.12 17.5863H124.275V15.9841H126.463V26.0366C126.463 27.1963 126.033 28.1149 125.172 28.7924C124.312 29.4698 123.152 29.8086 121.693 29.8086ZM143.693 26L142.604 24.8373C142.085 25.2828 141.463 25.6307 140.736 25.881C140.01 26.1251 139.244 26.2472 138.438 26.2472C137.065 26.2472 135.96 25.9084 135.124 25.231C134.288 24.5474 133.87 23.644 133.87 22.521C133.87 21.7581 134.074 21.0867 134.483 20.5068C134.892 19.927 135.527 19.4052 136.388 18.9413C136.412 18.9291 136.5 18.8802 136.653 18.7948C136.812 18.7094 136.909 18.6575 136.946 18.6392C136.348 18.0166 135.924 17.4734 135.673 17.0095C135.423 16.5457 135.298 16.0726 135.298 15.5905C135.298 14.7115 135.64 13.9852 136.323 13.4115C137.013 12.8317 137.877 12.5417 138.914 12.5417C139.958 12.5417 140.816 12.8256 141.487 13.3932C142.158 13.9547 142.494 14.678 142.494 15.563C142.494 16.2405 142.274 16.8569 141.835 17.4124C141.396 17.9617 140.7 18.4896 139.748 18.9962L142.558 21.9717C142.906 21.3247 143.08 20.3817 143.08 19.1427V18.6483H145.067V19.2526C145.067 20.9982 144.698 22.402 143.959 23.464L146.349 26H143.693ZM137.66 20.1315C136.592 20.6991 136.058 21.4346 136.058 22.3379C136.058 22.9727 136.296 23.4884 136.772 23.8851C137.254 24.2758 137.886 24.4711 138.667 24.4711C139.192 24.4711 139.696 24.3795 140.178 24.1964C140.666 24.0133 141.06 23.7661 141.359 23.4548L138.072 19.9301C137.956 19.9728 137.819 20.0399 137.66 20.1315ZM138.631 17.8427C139.308 17.5009 139.79 17.1652 140.077 16.8356C140.37 16.506 140.517 16.1306 140.517 15.7095C140.517 15.2578 140.367 14.8916 140.068 14.6108C139.775 14.3301 139.394 14.1897 138.924 14.1897C138.46 14.1897 138.078 14.3331 137.779 14.62C137.486 14.9008 137.34 15.2639 137.34 15.7095C137.34 16.033 137.434 16.3534 137.624 16.6708C137.819 16.9882 138.155 17.3788 138.631 17.8427ZM164.366 26H162.013V20.2963H155.586V26H153.224V12.7889H155.586V18.2546H162.013V12.7889H164.366V26ZM170.821 24.3795C171.504 24.3795 172.075 24.1842 172.533 23.7936C172.99 23.3969 173.219 22.9086 173.219 22.3287V21.5322L170.958 21.6787C169.713 21.7581 169.09 22.2097 169.09 23.0337C169.09 23.4487 169.249 23.7783 169.566 24.0225C169.89 24.2605 170.308 24.3795 170.821 24.3795ZM170.152 26.1648C169.176 26.1648 168.379 25.8901 167.763 25.3408C167.146 24.7915 166.838 24.0652 166.838 23.1619C166.838 22.2585 167.165 21.5505 167.818 21.0378C168.477 20.5251 169.417 20.2322 170.637 20.1589L173.219 20.0033V19.161C173.219 18.6666 173.057 18.2882 172.734 18.0258C172.411 17.7633 171.944 17.6321 171.333 17.6321C170.808 17.6321 170.375 17.7236 170.033 17.9067C169.691 18.0837 169.469 18.3401 169.365 18.6758H167.223C167.314 17.7908 167.741 17.0889 168.504 16.5701C169.273 16.0452 170.253 15.7827 171.443 15.7827C172.725 15.7827 173.714 16.0787 174.409 16.6708C175.111 17.2628 175.462 18.0929 175.462 19.161V26H173.274V24.6267H173.119C172.838 25.1089 172.435 25.4873 171.91 25.762C171.391 26.0305 170.805 26.1648 170.152 26.1648ZM186.916 15.9841V26H184.727V24.407H184.572C184.065 25.6033 183.067 26.2014 181.578 26.2014C180.485 26.2014 179.634 25.8779 179.024 25.231C178.413 24.5779 178.108 23.6654 178.108 22.4935V15.9841H180.379V21.9259C180.379 22.6949 180.54 23.2687 180.864 23.6471C181.187 24.0194 181.688 24.2056 182.365 24.2056C183.098 24.2056 183.659 23.995 184.05 23.5739C184.447 23.1527 184.645 22.5668 184.645 21.816V15.9841H186.916ZM189.47 18.8497C189.47 17.9464 189.842 17.2109 190.587 16.6433C191.331 16.0696 192.296 15.7827 193.48 15.7827C194.67 15.7827 195.619 16.036 196.327 16.5426C197.041 17.0431 197.438 17.748 197.517 18.6575H195.384C195.299 18.2974 195.091 18.0166 194.762 17.8152C194.438 17.6077 194.014 17.5039 193.489 17.5039C192.964 17.5039 192.531 17.6168 192.189 17.8427C191.847 18.0685 191.676 18.3615 191.676 18.7216C191.676 19.0023 191.795 19.2343 192.033 19.4174C192.277 19.6005 192.653 19.75 193.159 19.866L194.926 20.2688C195.891 20.4885 196.599 20.8151 197.05 21.2484C197.502 21.6818 197.728 22.2646 197.728 22.9971C197.728 23.9553 197.331 24.7305 196.538 25.3225C195.744 25.9084 194.719 26.2014 193.462 26.2014C192.21 26.2014 191.209 25.9451 190.459 25.4324C189.714 24.9197 189.299 24.2086 189.214 23.2992H191.457C191.566 23.6776 191.795 23.9706 192.143 24.1781C192.497 24.3795 192.955 24.4802 193.516 24.4802C194.09 24.4802 194.557 24.3673 194.917 24.1415C195.277 23.9095 195.457 23.6074 195.457 23.2351C195.457 22.6797 194.997 22.3013 194.075 22.0999L192.299 21.6879C191.334 21.4681 190.62 21.1294 190.156 20.6716C189.699 20.2078 189.47 19.6005 189.47 18.8497ZM200.117 26V12.1115H202.351V17.6046H202.516C202.754 17.037 203.136 16.5945 203.661 16.2771C204.185 15.9597 204.817 15.801 205.556 15.801C206.636 15.801 207.478 16.1276 208.083 16.7806C208.693 17.4337 208.998 18.3523 208.998 19.5364V26H206.728V20.0765C206.728 19.3197 206.557 18.749 206.215 18.3645C205.873 17.9739 205.373 17.7786 204.713 17.7786C203.981 17.7786 203.41 17.9983 203.001 18.4377C202.592 18.8711 202.388 19.454 202.388 20.1864V26H200.117ZM215.114 24.3795C215.797 24.3795 216.368 24.1842 216.826 23.7936C217.284 23.3969 217.512 22.9086 217.512 22.3287V21.5322L215.251 21.6787C214.006 21.7581 213.383 22.2097 213.383 23.0337C213.383 23.4487 213.542 23.7783 213.859 24.0225C214.183 24.2605 214.601 24.3795 215.114 24.3795ZM214.445 26.1648C213.469 26.1648 212.672 25.8901 212.056 25.3408C211.439 24.7915 211.131 24.0652 211.131 23.1619C211.131 22.2585 211.458 21.5505 212.111 21.0378C212.77 20.5251 213.71 20.2322 214.931 20.1589L217.512 20.0033V19.161C217.512 18.6666 217.351 18.2882 217.027 18.0258C216.704 17.7633 216.237 17.6321 215.626 17.6321C215.102 17.6321 214.668 17.7236 214.326 17.9067C213.985 18.0837 213.762 18.3401 213.658 18.6758H211.516C211.607 17.7908 212.035 17.0889 212.797 16.5701C213.567 16.0452 214.546 15.7827 215.736 15.7827C217.018 15.7827 218.007 16.0787 218.703 16.6708C219.405 17.2628 219.755 18.0929 219.755 19.161V26H217.567V24.6267H217.412C217.131 25.1089 216.728 25.4873 216.203 25.762C215.684 26.0305 215.099 26.1648 214.445 26.1648ZM222.584 26V12.1115H224.855V26H222.584ZM228.453 13.5305H230.714V16.0482H232.857V17.861H230.714V22.7773C230.714 23.2717 230.824 23.6349 231.044 23.8668C231.264 24.0927 231.612 24.2056 232.088 24.2056C232.295 24.2056 232.552 24.1903 232.857 24.1598V25.9359C232.478 26.0092 232.082 26.0458 231.667 26.0458C230.519 26.0458 229.695 25.8352 229.195 25.4141C228.7 24.9929 228.453 24.2971 228.453 23.3267V17.861H226.869V16.0482H228.453V13.5305Z" fill="white"/>
</g>
<defs>
<filter id="filter0_d_1928_114437" x="0" y="0" width="256" height="48" filterUnits="userSpaceOnUse" color-interpolation-filters="sRGB">
<feFlood flood-opacity="0" result="BackgroundImageFix"/>
<feColorMatrix in="SourceAlpha" type="matrix" values="0 0 0 0 0 0 0 0 0 0 0 0 0 0 0 0 0 0 127 0" result="hardAlpha"/>
<feMorphology radius="6" operator="dilate" in="SourceAlpha" result="effect1_dropShadow_1928_114437"/>
<feOffset dy="4"/>
<feGaussianBlur stdDeviation="1"/>
<feComposite in2="hardAlpha" operator="out"/>
<feColorMatrix type="matrix" values="0 0 0 0 0.376645 0 0 0 0 0.306931 0 0 0 0 0.408333 0 0 0 0.5 0"/>
<feBlend mode="normal" in2="BackgroundImageFix" result="effect1_dropShadow_1928_114437"/>
<feBlend mode="normal" in="SourceGraphic" in2="effect1_dropShadow_1928_114437" result="shape"/>
</filter>
</defs>
</svg>
