<svg width="40" height="41" viewBox="0 0 40 41" fill="none" xmlns="http://www.w3.org/2000/svg">
<g clip-path="url(#clip0_53_24979)">
<rect y="0.5" width="40" height="40" rx="8" fill="#D1D5DB"/>
<path d="M10.4167 29.6241H26.7604C26.3854 29.0092 26.1146 28.311 25.9896 27.5815H10.5417C9.58333 27.5815 9.04167 27.0708 9.04167 26.0599V15.482C9.04167 14.4711 9.58333 13.9604 10.5417 13.9604H13.8125C14.7396 13.9604 15.2292 13.8041 15.75 13.2205L16.5521 12.3451C17.1354 11.7094 17.4479 11.5426 18.3646 11.5426H21.3229C22.2396 11.5426 22.5521 11.7094 23.1354 12.3347L23.9375 13.2205C24.4583 13.7937 24.9479 13.9604 25.875 13.9604H29.2083C30.1667 13.9604 30.6979 14.4711 30.6979 15.482V19.6506C31.3438 19.4109 32.0313 19.2859 32.7396 19.2859V15.3048C32.7396 13.085 31.5729 11.9178 29.3229 11.9178H26.4688C25.6563 11.9178 25.3958 11.7823 24.8958 11.2508L24.0625 10.3546C23.5208 9.7918 22.9792 9.5 21.9167 9.5H17.7708C16.7083 9.5 16.1667 9.7918 15.625 10.3546L14.7917 11.2508C14.3021 11.7719 14.0313 11.9178 13.2188 11.9178H10.4167C8.16667 11.9178 7 13.085 7 15.3048V26.2371C7 28.4569 8.16667 29.6241 10.4167 29.6241ZM19.875 26.2162C22.9896 26.2162 25.5 23.7151 25.5 20.5782C25.5 17.4413 23 14.9401 19.875 14.9401C16.75 14.9401 14.25 17.4413 14.25 20.5782C14.25 23.7151 16.75 26.2162 19.875 26.2162ZM25.8542 16.8055C25.8542 17.5663 26.4688 18.1499 27.2188 18.1499C27.9375 18.1499 28.5625 17.5559 28.5625 16.8055C28.5625 16.0865 27.9375 15.4612 27.2188 15.4612C26.4792 15.4612 25.8542 16.0865 25.8542 16.8055ZM19.875 24.3508C17.7917 24.3508 16.1042 22.6729 16.1042 20.5782C16.1042 18.473 17.7917 16.7951 19.875 16.7951C21.9583 16.7951 23.6458 18.473 23.6458 20.5782C23.6458 22.6729 21.9583 24.3508 19.875 24.3508ZM32.6354 31.5C35.5521 31.5 38 29.0613 38 26.1329C38 23.194 35.5833 20.7658 32.6354 20.7658C29.6979 20.7658 27.2813 23.194 27.2813 26.1329C27.2813 29.0822 29.6979 31.5 32.6354 31.5ZM35.5313 27.0083C35.0417 27.0083 34.6563 26.6018 34.6563 26.1329C34.6563 25.6535 35.0417 25.247 35.5313 25.247C36 25.247 36.3958 25.6639 36.3958 26.1329C36.3958 26.6018 36 27.0083 35.5313 27.0083ZM29.75 26.9979C29.2813 26.9979 28.8854 26.6018 28.8854 26.1329C28.8854 25.6639 29.2813 25.2575 29.75 25.2575C30.2292 25.2575 30.625 25.6639 30.6146 26.1329C30.6146 26.6018 30.2292 26.9979 29.75 26.9979ZM32.6458 26.9979C32.1771 26.9979 31.7708 26.6018 31.7708 26.1329C31.7708 25.6639 32.1771 25.2575 32.6458 25.2575C33.1146 25.2575 33.5208 25.6639 33.5208 26.1329C33.5104 26.6018 33.1146 26.9979 32.6458 26.9979Z" fill="white"/>
</g>
<defs>
<clipPath id="clip0_53_24979">
<rect y="0.5" width="40" height="40" rx="8" fill="white"/>
</clipPath>
</defs>
</svg>
