<svg width="32" height="32" viewBox="0 0 32 32" fill="none" xmlns="http://www.w3.org/2000/svg">
<path d="M13.9004 14.3862C13.5244 14.3862 13.3955 14.2788 13.3955 13.9028V13.269C13.3955 12.8931 13.5244 12.7749 13.9004 12.7749H14.5342C14.9102 12.7749 15.0283 12.8931 15.0283 13.269V13.9028C15.0283 14.2788 14.9102 14.3862 14.5342 14.3862H13.9004ZM17.4668 14.3862C17.0908 14.3862 16.9619 14.2788 16.9619 13.9028V13.269C16.9619 12.8931 17.0908 12.7749 17.4668 12.7749H18.1006C18.4766 12.7749 18.6055 12.8931 18.6055 13.269V13.9028C18.6055 14.2788 18.4766 14.3862 18.1006 14.3862H17.4668ZM21.0332 14.3862C20.6572 14.3862 20.5391 14.2788 20.5391 13.9028V13.269C20.5391 12.8931 20.6572 12.7749 21.0332 12.7749H21.667C22.043 12.7749 22.1719 12.8931 22.1719 13.269V13.9028C22.1719 14.2788 22.043 14.3862 21.667 14.3862H21.0332ZM10.334 17.8989C9.94727 17.8989 9.8291 17.7915 9.8291 17.4155V16.7817C9.8291 16.4058 9.94727 16.2983 10.334 16.2983H10.957C11.3438 16.2983 11.4619 16.4058 11.4619 16.7817V17.4155C11.4619 17.7915 11.3438 17.8989 10.957 17.8989H10.334ZM13.9004 17.8989C13.5244 17.8989 13.3955 17.7915 13.3955 17.4155V16.7817C13.3955 16.4058 13.5244 16.2983 13.9004 16.2983H14.5342C14.9102 16.2983 15.0283 16.4058 15.0283 16.7817V17.4155C15.0283 17.7915 14.9102 17.8989 14.5342 17.8989H13.9004ZM17.4668 17.8989C17.0908 17.8989 16.9619 17.7915 16.9619 17.4155V16.7817C16.9619 16.4058 17.0908 16.2983 17.4668 16.2983H18.1006C18.4766 16.2983 18.6055 16.4058 18.6055 16.7817V17.4155C18.6055 17.7915 18.4766 17.8989 18.1006 17.8989H17.4668ZM21.0332 17.8989C20.6572 17.8989 20.5391 17.7915 20.5391 17.4155V16.7817C20.5391 16.4058 20.6572 16.2983 21.0332 16.2983H21.667C22.043 16.2983 22.1719 16.4058 22.1719 16.7817V17.4155C22.1719 17.7915 22.043 17.8989 21.667 17.8989H21.0332ZM10.334 21.4224C9.94727 21.4224 9.8291 21.3042 9.8291 20.9282V20.2944C9.8291 19.9185 9.94727 19.811 10.334 19.811H10.957C11.3438 19.811 11.4619 19.9185 11.4619 20.2944V20.9282C11.4619 21.3042 11.3438 21.4224 10.957 21.4224H10.334Z" fill="#537979"/>
<path d="M9.8291 20.939C9.8291 21.3149 9.94727 21.4224 10.334 21.4224H10.957C11.3438 21.4224 11.4619 21.3149 11.4619 20.939V20.3052C11.4619 19.9292 11.3438 19.8218 10.957 19.8218H10.334C9.94727 19.8218 9.8291 19.9292 9.8291 20.3052V20.939Z" fill="#537979"/>
<path d="M13.3955 20.939C13.3955 21.3149 13.5244 21.4224 13.9004 21.4224H14.5342C14.9102 21.4224 15.0283 21.3149 15.0283 20.939V20.3052C15.0283 19.9292 14.9102 19.8218 14.5342 19.8218H13.9004C13.5244 19.8218 13.3955 19.9292 13.3955 20.3052V20.939Z" fill="#537979"/>
<path d="M16.9619 20.939C16.9619 21.3149 17.0908 21.4224 17.4668 21.4224H18.1006C18.4766 21.4224 18.6055 21.3149 18.6055 20.939V20.3052C18.6055 19.9292 18.4766 19.8218 18.1006 19.8218H17.4668C17.0908 19.8218 16.9619 19.9292 16.9619 20.3052V20.939Z" fill="#537979"/>
<path d="M20.5391 20.939C20.5391 21.3149 20.6572 21.4224 21.0332 21.4224H21.667C22.043 21.4224 22.1719 21.3149 22.1719 20.939V20.3052C22.1719 19.9292 22.043 19.8218 21.667 19.8218H21.0332C20.6572 19.8218 20.5391 19.9292 20.5391 20.3052V20.939Z" fill="#537979"/>
<path d="M9.8291 24.4517C9.8291 24.8276 9.94727 24.9458 10.334 24.9458H10.957C11.3438 24.9458 11.4619 24.8276 11.4619 24.4517V23.8179C11.4619 23.4419 11.3438 23.3345 10.957 23.3345H10.334C9.94727 23.3345 9.8291 23.4419 9.8291 23.8179V24.4517Z" fill="#537979"/>
<path d="M13.3955 24.4517C13.3955 24.8276 13.5244 24.9458 13.9004 24.9458H14.5342C14.9102 24.9458 15.0283 24.8276 15.0283 24.4517V23.8179C15.0283 23.4419 14.9102 23.3345 14.5342 23.3345H13.9004C13.5244 23.3345 13.3955 23.4419 13.3955 23.8179V24.4517Z" fill="#537979"/>
<path d="M16.9619 24.4517C16.9619 24.8276 17.0908 24.9458 17.4668 24.9458H18.1006C18.4766 24.9458 18.6055 24.8276 18.6055 24.4517V23.8179C18.6055 23.4419 18.4766 23.3345 18.1006 23.3345H17.4668C17.0908 23.3345 16.9619 23.4419 16.9619 23.8179V24.4517Z" fill="#537979"/>
<path d="M12.6807 8.44287C12.0576 8.44287 11.6816 8.04541 11.6816 7.37939V6.25146C11.6816 5.58545 12.0576 5.18799 12.6807 5.18799H13.6689C13.7441 3.97412 14.7539 2.98584 16 2.98584C17.2461 2.98584 18.2559 3.97412 18.3311 5.18799H19.3193C19.9424 5.18799 20.3184 5.58545 20.3184 6.25146V7.37939C20.3184 8.04541 19.9424 8.44287 19.3193 8.44287H12.6807ZM16 6.2085C16.5156 6.2085 16.9346 5.77881 16.9346 5.27393C16.9346 4.74756 16.5156 4.32861 16 4.32861C15.4844 4.32861 15.0654 4.74756 15.0654 5.27393C15.0654 5.77881 15.4844 6.2085 16 6.2085ZM10.2959 29.0142C8.07227 29.0142 6.96582 27.897 6.96582 25.6411V9.35596C6.96582 7.15381 8.0293 5.98291 10.1777 5.98291H10.4355C10.4248 6.06885 10.4248 6.16553 10.4248 6.25146V7.21826C10.4248 7.39014 10.4355 7.56201 10.4678 7.7124H10.21C9.2002 7.7124 8.69531 8.36768 8.69531 9.37744V25.6196C8.69531 26.6938 9.26465 27.2847 10.3818 27.2847H21.6182C22.7354 27.2847 23.3047 26.6938 23.3047 25.6196V9.37744C23.3047 8.36768 22.7998 7.7124 21.79 7.7124H21.5322C21.5645 7.56201 21.5752 7.39014 21.5752 7.21826V6.25146C21.5752 6.16553 21.5752 6.06885 21.5645 5.98291H21.8223C23.9707 5.98291 25.0342 7.15381 25.0342 9.35596V25.6411C25.0342 27.897 23.9277 29.0142 21.7041 29.0142H10.2959Z" fill="#537979"/>
</svg>
