<svg width="32" height="32" viewBox="0 0 32 32" fill="none" xmlns="http://www.w3.org/2000/svg">
<rect x="6" y="7" width="19" height="19" fill="white"/>
<path d="M8.09343 28H23.9066C26.6442 28 28 26.6442 28 23.9587V8.04128C28 5.35578 26.6442 4 23.9066 4H8.09343C5.36882 4 4 5.34275 4 8.04128V23.9587C4 26.6573 5.36882 28 8.09343 28ZM10.7529 17.1276C9.99674 17.1276 9.46225 16.7235 9.46225 16.0065C9.46225 15.2765 9.95763 14.8593 10.7529 14.8593H21.2863C22.0684 14.8593 22.5638 15.2765 22.5638 16.0065C22.5638 16.7235 22.0424 17.1276 21.2863 17.1276H10.7529Z" fill="#1A645A"/>
</svg>
