<svg width="81" height="44" viewBox="0 0 81 44" fill="none" xmlns="http://www.w3.org/2000/svg">
<g clip-path="url(#clip0_6157_91826)">
<path d="M44.207 41.8426C44.207 42.8496 45.0084 43.6669 45.9957 43.6669C46.9831 43.6669 47.7844 42.8496 47.7844 41.8426V32.9106C46.4071 32.8923 45.2123 32.7537 44.207 32.564V41.8426Z" fill="#78F6E6"/>
<path d="M48.3789 41.8426C48.3789 42.8496 49.1802 43.6669 50.1676 43.6669C51.1549 43.6669 51.9563 42.8496 51.9563 41.8426V32.564C50.951 32.7537 49.758 32.8923 48.3789 32.9106V41.8426Z" fill="#78F6E6"/>
<path d="M36.221 41.3481V13.9921C36.3265 14.2128 36.4339 14.4682 36.5394 14.7638C37.0438 16.1886 37.4677 18.5274 37.4659 22.1779C37.4659 23.1831 37.4337 24.2887 37.3658 25.5018C37.3193 26.3064 37.922 26.996 38.7108 27.0434C38.7395 27.0434 38.7681 27.0452 38.7949 27.0452C39.548 27.0452 40.1776 26.4469 40.2223 25.6697C40.267 24.8852 40.2956 24.1445 40.3117 23.4367C41.1095 19.0254 42.3544 16.5644 43.4061 15.2144L40.3314 30.6319C40.3314 30.6319 40.3707 30.6556 40.4459 30.6957C41.0039 30.9986 43.619 32.2738 48.0818 32.2738C51.2942 32.2738 53.548 31.6134 54.7679 31.1299C54.9521 31.2394 55.1649 31.3014 55.3921 31.3014C55.4028 31.3014 55.4118 31.3014 55.4225 31.3014C55.5638 31.2978 55.698 31.2704 55.8232 31.223C56.3133 31.0405 56.6567 30.5553 56.6442 29.9934V29.9788C56.6406 26.4031 57.0896 23.8289 57.7067 22.2837C57.8104 22.021 57.9177 21.793 58.025 21.5923V28.2311H66.185V21.5923C66.4515 22.0903 66.7163 22.769 66.9309 23.6337C67.3208 25.1771 67.5677 27.2952 67.5659 29.977C67.5659 29.9824 67.5659 30.008 67.5659 30.0518C67.5802 30.6939 68.0578 31.2139 68.6659 31.2887C68.6391 31.794 68.623 32.3304 68.6212 32.905C68.6212 33.1568 68.623 33.4177 68.6301 33.6877C68.6427 34.2331 69.0809 34.6673 69.6139 34.6673C69.6211 34.6673 69.63 34.6673 69.639 34.6673C70.1827 34.6546 70.612 34.193 70.5995 33.6402C70.5923 33.3885 70.5905 33.1458 70.5905 32.9068C70.5905 30.1521 70.9519 28.3934 71.3561 27.2988V32.0348H77.6165V27.2988C78.0189 28.3934 78.382 30.1539 78.3803 32.9087C78.3803 33.1458 78.3785 33.3921 78.3731 33.6457C78.3606 34.2003 78.7917 34.6582 79.3354 34.671H79.3569C79.8899 34.671 80.3281 34.2368 80.3407 33.6895C80.346 33.4231 80.3496 33.1623 80.3496 32.9087C80.3496 29.0721 79.6985 26.8227 78.9509 25.4708C78.2085 24.1172 77.3339 23.714 77.1318 23.6538C77.0888 23.6392 77.0441 23.6301 77.0012 23.621C76.9135 23.5918 76.8205 23.5717 76.7239 23.5717H72.2522C72.1539 23.5717 72.0626 23.5918 71.975 23.621C71.9321 23.6283 71.8873 23.6392 71.8444 23.6538C71.6405 23.714 70.7676 24.1172 70.0253 25.4708C69.9663 25.5766 69.9091 25.6879 69.8536 25.8047C69.6479 24.0114 69.3009 22.5282 68.8287 21.3296C68.4244 20.3171 67.9308 19.4961 67.2868 18.8795C66.7216 18.334 65.9972 17.9673 65.2317 17.8962C65.1941 17.8925 65.1547 17.8889 65.1154 17.8889H65.0975C65.0456 17.887 64.9938 17.8816 64.9419 17.8816C64.8954 17.8816 64.8507 17.8852 64.8059 17.8889H59.4095C59.3666 17.8834 59.3218 17.8816 59.2771 17.8816C59.2235 17.8816 59.1716 17.887 59.1197 17.8889H59.1036C59.0643 17.8889 59.0267 17.8907 58.9874 17.8962C58.2218 17.9673 57.4974 18.334 56.9322 18.8795C55.9699 19.8081 55.3241 21.1782 54.8573 23.0025C54.7535 23.4185 54.6587 23.8599 54.5765 24.327L54.1615 22.249C53.8574 22.7343 53.5176 23.2287 53.1348 23.7359H53.1384C53.4478 24.015 53.5462 24.462 53.3798 24.8469L52.4336 27.0489C52.278 27.4083 51.9328 27.6236 51.5715 27.6236C51.4445 27.6236 51.3175 27.598 51.1941 27.5433C50.7183 27.3298 50.5018 26.7643 50.7093 26.279L51.1565 25.2373C50.8202 25.2227 50.4983 25.0968 50.2407 24.8743C49.6003 24.3215 49.5181 23.3418 50.06 22.6887C50.2997 22.3986 50.5197 22.1195 50.7236 21.8513H48.0567V20.2277L46.2448 21.928C46.116 22.0484 45.9532 22.1086 45.7887 22.1086C45.608 22.1086 45.4274 22.0338 45.295 21.8878C45.0428 21.6087 45.0607 21.1763 45.3343 20.9191L48.1265 18.2993C48.1605 18.2665 48.198 18.2391 48.2356 18.2154C48.3429 18.1096 48.4878 18.0439 48.647 18.0439H51.33C51.4892 18.0439 51.6341 18.1096 51.7414 18.2154C51.7808 18.2391 51.8165 18.2665 51.8523 18.2993L52.4837 18.8923C52.8271 18.0494 52.9291 17.3963 52.9255 16.9147C52.9237 16.3929 52.8146 15.9551 52.5821 15.5391C52.4873 15.3695 52.3728 15.2071 52.2369 15.052L52.4962 14.8021C52.6447 14.9718 52.7806 15.1578 52.8933 15.3585C53.1258 15.7781 53.2797 16.2652 53.2832 16.9128C53.2868 17.4966 53.1437 18.241 52.7574 19.1513L54.5496 20.8334C55.2812 19.3812 55.6032 18.0877 55.6067 16.9128C55.6067 15.8201 55.3116 14.8659 54.8698 14.1088C54.6641 13.7567 54.4298 13.4503 54.183 13.1748C53.6338 12.5618 53.0221 12.1276 52.498 11.8266C51.736 11.3924 51.1386 11.2191 51.0778 11.2008C51.0742 11.2008 51.0724 11.2008 51.0689 11.199C51.0689 11.199 51.0653 11.199 51.0635 11.199C51.0116 11.1881 49.6164 10.7995 48.08 10.794C46.7438 10.7977 45.515 11.0932 45.1823 11.1771C44.7942 11.241 43.3435 11.6314 41.8339 13.432C41.1864 14.2019 40.5299 15.2162 39.9218 16.5553C39.5569 14.377 38.9738 12.8738 38.2816 11.7937C37.6931 10.8834 37.0062 10.3014 36.3713 9.97671C35.7613 9.66292 35.2247 9.59177 34.9027 9.58812C34.8813 9.58812 34.8598 9.58447 34.8383 9.58447H27.9287C27.909 9.58447 27.8893 9.5863 27.8696 9.58812C27.5477 9.59177 27.0075 9.6611 26.394 9.97671C25.4317 10.4638 24.3942 11.5274 23.668 13.4138C22.9686 15.218 22.4893 17.7904 22.4428 21.6014C22.3891 21.5321 22.3372 21.4628 22.2836 21.3971C21.087 19.9102 19.91 19.5691 19.7097 19.5308C19.6345 19.5144 19.5594 19.5052 19.4843 19.5034C18.9727 19.3702 18.2376 19.2626 17.193 19.2626C16.1484 19.2626 15.4115 19.3702 14.8999 19.5034C14.8248 19.5034 14.7496 19.5125 14.6745 19.5308C14.4742 19.5691 13.2972 19.9102 12.1006 21.3971C10.9004 22.8821 9.69841 25.4471 9.20473 29.8566C9.19936 29.9076 9.19757 29.9587 9.19757 30.008C8.72178 29.2673 8.08859 28.8422 7.46434 28.7474C6.81862 29.2034 6.03518 29.4734 5.19092 29.4734C4.34666 29.4734 3.56322 29.2053 2.91751 28.7474C2.17878 28.8586 1.42396 29.4315 0.935646 30.4495C0.366844 31.6061 0.00374181 33.3556 0.00195312 36.1159C0.00195312 36.5829 0.373999 36.9642 0.831902 36.9642C1.28981 36.9642 1.66185 36.5847 1.66185 36.1159C1.66006 33.7844 1.9552 32.3231 2.29504 31.4857V42.2694C2.29504 43.0155 2.88889 43.6194 3.61867 43.6194C4.34845 43.6194 4.9423 43.0155 4.9423 42.2694V37.0663H5.43776V42.2694C5.43776 43.0155 6.02982 43.6194 6.76139 43.6194C7.49296 43.6194 8.08501 43.0155 8.08501 42.2694V31.4875C8.42665 32.3249 8.72178 33.788 8.71821 36.1177C8.71821 36.5847 9.09025 36.966 9.54816 36.966C10.0061 36.966 10.3781 36.5865 10.3781 36.1177C10.3745 33.7169 10.1009 32.0804 9.65369 30.9347C9.81467 31.0588 10.0096 31.1445 10.2243 31.1701C10.269 31.1755 10.3137 31.1774 10.3566 31.1774C10.9398 31.1774 11.4424 30.7304 11.5103 30.1266C11.8377 27.1948 12.4852 25.2939 13.1345 24.0679C12.6104 27.359 11.9826 31.8998 11.9826 34.7586C11.9826 34.7731 11.9861 34.7859 11.9879 34.8005C12.0899 35.7054 15.424 36.3913 17.1876 36.3913C18.9513 36.3913 22.2854 35.7072 22.3873 34.8005C22.3873 34.7859 22.3927 34.7731 22.3927 34.7586C22.3927 31.9016 21.7649 27.3609 21.2408 24.0716C21.8901 25.2975 22.5358 27.1967 22.8631 30.1266C22.9311 30.7322 23.4337 31.1774 24.0168 31.1774C24.0615 31.1774 24.1045 31.1755 24.1492 31.1701C24.7877 31.0953 25.2456 30.5078 25.1723 29.8566C25.0471 28.7419 24.8772 27.7458 24.6751 26.8555C25.133 26.5892 25.4299 26.0747 25.3959 25.5018C25.3261 24.2887 25.2939 23.1831 25.2939 22.1779C25.2868 17.7593 25.92 15.2782 26.5406 13.983V41.3499C26.5406 42.5959 27.5316 43.6048 28.7515 43.6048C29.9713 43.6048 30.9641 42.5959 30.9641 41.3499V24.8816H31.7922V41.3499C31.7922 42.5959 32.7832 43.6048 34.003 43.6048C35.2229 43.6048 36.2156 42.5959 36.2156 41.3499L36.221 41.3481ZM46.8404 23.7377L47.8761 22.8146L49.332 24.0643L48.5969 24.7192L49.2659 26.2772C49.4751 26.7625 49.2569 27.328 48.7811 27.5415C48.6577 27.5962 48.5307 27.6217 48.4037 27.6217C48.0424 27.6217 47.6954 27.4065 47.5416 27.0471L46.5954 24.8451C46.429 24.4601 46.5274 24.0132 46.8386 23.7377H46.8404ZM49.9885 17.6006C48.8777 17.6006 47.978 16.683 47.978 15.5482C47.978 14.4135 48.8777 13.4959 49.9885 13.4959C51.0993 13.4959 52.0008 14.4153 52.0008 15.5482C52.0008 16.6812 51.0993 17.6006 49.9885 17.6006Z" fill="#78F6E6"/>
<path d="M31.3839 8.54279C33.6066 8.54279 35.4085 6.70502 35.4085 4.43802C35.4085 2.17102 33.6066 0.333252 31.3839 0.333252C29.1612 0.333252 27.3594 2.17102 27.3594 4.43802C27.3594 6.70502 29.1612 8.54279 31.3839 8.54279Z" fill="#78F6E6"/>
<path d="M47.2079 9.8691C49.2756 10.3599 51.3433 9.04815 51.8245 6.93921C52.3056 4.83027 51.0196 2.72134 48.9519 2.23059C46.8841 1.73984 44.8164 3.05154 44.3353 5.16048C43.8541 7.26942 45.1402 9.37836 47.2079 9.8691Z" fill="#78F6E6"/>
<path d="M53.7313 21.9281L52.1161 20.4121C51.6779 21.1619 51.0984 21.9975 50.3292 22.9242C49.9142 23.4241 49.9768 24.1721 50.4687 24.5953C50.687 24.7832 50.9535 24.8744 51.2182 24.8744C51.5491 24.8744 51.8782 24.7322 52.1072 24.453C52.8137 23.5992 53.395 22.7911 53.8726 22.0248C53.8225 21.9975 53.7742 21.9664 53.7313 21.9263V21.9281Z" fill="#78F6E6"/>
<path d="M13.7772 42.0742C13.7772 42.8933 14.4283 43.5574 15.2314 43.5574C16.0345 43.5574 16.6856 42.8933 16.6856 42.0742V36.8602C15.8002 36.8073 14.6948 36.6304 13.7754 36.3677V42.0742H13.7772Z" fill="#78F6E6"/>
<path d="M17.6951 42.0742C17.6951 42.8933 18.3462 43.5574 19.1493 43.5574C19.9525 43.5574 20.6035 42.8933 20.6035 42.0742V36.3677C19.686 36.6304 18.5788 36.8073 17.6934 36.8602V42.0742H17.6951Z" fill="#78F6E6"/>
<path d="M58.0273 29.147V41.5835C58.0273 42.6289 58.8591 43.4772 59.884 43.4772C60.9089 43.4772 61.7389 42.6289 61.7389 41.5835V32.5676H62.474V41.5835C62.474 42.6289 63.3057 43.4772 64.3307 43.4772C65.3556 43.4772 66.1873 42.6289 66.1873 41.5835V29.147H58.0273Z" fill="#78F6E6"/>
<path d="M62.1054 16.9531C64.1713 16.9531 65.8455 15.2455 65.8455 13.1384C65.8455 11.0313 64.1713 9.32373 62.1054 9.32373C60.0394 9.32373 58.3652 11.0313 58.3652 13.1384C58.3652 15.2455 60.0394 16.9531 62.1054 16.9531Z" fill="#78F6E6"/>
<path d="M17.1923 18.635C19.1706 18.635 20.7732 17.0004 20.7732 14.9827C20.7732 12.9649 19.1706 11.3303 17.1923 11.3303C15.214 11.3303 13.6113 12.9649 13.6113 14.9827C13.6113 17.0004 15.2158 18.635 17.1923 18.635Z" fill="#78F6E6"/>
<path d="M71.3555 41.9957C71.3555 42.8021 71.9958 43.4552 72.7864 43.4552C73.577 43.4552 74.2174 42.8021 74.2174 41.9957V35.824H74.754V41.9957C74.754 42.8021 75.3943 43.4552 76.1849 43.4552C76.9755 43.4552 77.6159 42.8021 77.6159 41.9957V32.469H71.3555V41.9957Z" fill="#78F6E6"/>
<path d="M5.1908 28.3422C6.78988 28.3422 8.08489 27.0195 8.08489 25.3904C8.08489 23.7612 6.78809 22.4368 5.1908 22.4368C3.59351 22.4368 2.29492 23.7594 2.29492 25.3904C2.29492 27.0213 3.59172 28.3422 5.1908 28.3422Z" fill="#78F6E6"/>
<path d="M74.4857 23.0226C76.2144 23.0226 77.6159 21.5933 77.6159 19.83C77.6159 18.0668 76.2144 16.6375 74.4857 16.6375C72.7569 16.6375 71.3555 18.0668 71.3555 19.83C71.3555 21.5933 72.7569 23.0226 74.4857 23.0226Z" fill="#78F6E6"/>
</g>
<defs>
<clipPath id="clip0_6157_91826">
<rect width="80.3477" height="43.3336" fill="white" transform="translate(0 0.333252)"/>
</clipPath>
</defs>
</svg>
