<svg width="7" height="18" viewBox="0 0 7 18" fill="none" xmlns="http://www.w3.org/2000/svg">
<path d="M3.5 17.2822C2.7474 17.2822 2.111 17.0221 1.59082 16.502C1.07064 15.9818 0.810547 15.3454 0.810547 14.5928C0.810547 13.8402 1.07064 13.2038 1.59082 12.6836C2.111 12.1634 2.7474 11.9033 3.5 11.9033C4.2526 11.9033 4.889 12.1634 5.40918 12.6836C5.92936 13.2038 6.18945 13.8402 6.18945 14.5928C6.18945 15.3454 5.92936 15.9818 5.40918 16.502C4.889 17.0221 4.2526 17.2822 3.5 17.2822ZM3.5 5.46191C2.7474 5.46191 2.111 5.20182 1.59082 4.68164C1.07064 4.16146 0.810547 3.52507 0.810547 2.77246C0.810547 2.01986 1.07064 1.38346 1.59082 0.863281C2.111 0.343099 2.7474 0.0830078 3.5 0.0830078C4.2526 0.0830078 4.889 0.343099 5.40918 0.863281C5.92936 1.38346 6.18945 2.01986 6.18945 2.77246C6.18945 3.52507 5.92936 4.16146 5.40918 4.68164C4.889 5.20182 4.2526 5.46191 3.5 5.46191Z" fill="white"/>
</svg>
