<svg width="32" height="32" viewBox="0 0 32 32" fill="none" xmlns="http://www.w3.org/2000/svg">
<rect width="32" height="32" rx="4" fill="white" fill-opacity="0.8"/>
<path d="M15.9955 19.0616C16.3831 19.0616 16.7166 18.7426 16.7166 18.3704V9.26983L16.6625 7.94063L17.2665 8.56978L18.6366 10.0053C18.7628 10.1471 18.9431 10.218 19.1234 10.218C19.493 10.218 19.7814 9.95215 19.7814 9.58883C19.7814 9.40275 19.7003 9.26097 19.5651 9.12805L16.5183 6.23926C16.338 6.06203 16.1848 6 15.9955 6C15.8152 6 15.662 6.06203 15.4727 6.23926L12.4259 9.12805C12.2907 9.26097 12.2186 9.40275 12.2186 9.58883C12.2186 9.95215 12.489 10.218 12.8676 10.218C13.0389 10.218 13.2372 10.1471 13.3634 10.0053L14.7245 8.56978L15.3375 7.94063L15.2834 9.26983V18.3704C15.2834 18.7426 15.6079 19.0616 15.9955 19.0616ZM10.8304 26H21.1696C23.0535 26 24 25.0784 24 23.253V14.4094C24 12.584 23.0535 11.6624 21.1696 11.6624H18.6546V13.0891H21.1425C22.0349 13.0891 22.5487 13.5676 22.5487 14.4891V23.1732C22.5487 24.0948 22.0349 24.5733 21.1425 24.5733H10.8485C9.94704 24.5733 9.45127 24.0948 9.45127 23.1732V14.4891C9.45127 13.5676 9.94704 13.0891 10.8485 13.0891H13.3454V11.6624H10.8304C8.94648 11.6624 8 12.584 8 14.4094V23.253C8 25.0784 8.94648 26 10.8304 26Z" fill="#026355"/>
</svg>
