<svg width="40" height="40" viewBox="0 0 40 40" fill="none" xmlns="http://www.w3.org/2000/svg">
<path d="M8.92969 10.2354C8.41406 10.2354 8.07031 9.85938 8.07031 9.31152C8.07031 8.75293 8.41406 8.37695 8.92969 8.37695H31.0693C31.585 8.37695 31.9287 8.76367 31.9287 9.31152C31.9287 9.85938 31.585 10.2354 31.0693 10.2354H8.92969ZM10.3799 19.0547C8.83301 19.0547 8.07031 18.292 8.07031 16.7021V14.5645C8.07031 12.9746 8.83301 12.2227 10.3799 12.2227H12.5928C14.1396 12.2227 14.9023 12.9746 14.9023 14.5645V16.7021C14.9023 18.292 14.1396 19.0547 12.5928 19.0547H10.3799ZM18.8877 19.0547C17.3408 19.0547 16.5781 18.292 16.5781 16.7021V14.5645C16.5781 12.9746 17.3408 12.2227 18.8877 12.2227H21.1006C22.6475 12.2227 23.4102 12.9746 23.4102 14.5645V16.7021C23.4102 18.292 22.6475 19.0547 21.1006 19.0547H18.8877ZM27.4062 19.0547C25.8486 19.0547 25.0967 18.292 25.0967 16.7021V14.5645C25.0967 12.9746 25.8486 12.2227 27.4062 12.2227H29.6191C31.166 12.2227 31.9287 12.9746 31.9287 14.5645V16.7021C31.9287 18.292 31.166 19.0547 29.6191 19.0547H27.4062ZM10.3906 17.2822H12.5713C12.9473 17.2822 13.1299 17.0996 13.1299 16.7021V14.5537C13.1299 14.1777 12.9473 13.9844 12.5713 13.9844H10.3906C10.0146 13.9844 9.83203 14.1777 9.83203 14.5537V16.7021C9.83203 17.0996 10.0146 17.2822 10.3906 17.2822ZM18.9092 17.2822H21.0898C21.4658 17.2822 21.6484 17.0996 21.6484 16.7021V14.5537C21.6484 14.1777 21.4658 13.9844 21.0898 13.9844H18.9092C18.5225 13.9844 18.3506 14.1777 18.3506 14.5537V16.7021C18.3506 17.0996 18.5225 17.2822 18.9092 17.2822ZM27.417 17.2822H29.5977C29.9736 17.2822 30.1562 17.0996 30.1562 16.7021V14.5537C30.1562 14.1777 29.9736 13.9844 29.5977 13.9844H27.417C27.041 13.9844 26.8584 14.1777 26.8584 14.5537V16.7021C26.8584 17.0996 27.041 17.2822 27.417 17.2822ZM8.92969 22.8037C8.41406 22.8037 8.07031 22.4385 8.07031 21.8799C8.07031 21.3213 8.41406 20.9453 8.92969 20.9453H31.0693C31.585 20.9453 31.9287 21.332 31.9287 21.8799C31.9287 22.4277 31.585 22.8037 31.0693 22.8037H8.92969ZM10.3906 31.623C8.84375 31.623 8.08105 30.8711 8.08105 29.2705V27.1328C8.08105 25.543 8.84375 24.791 10.3906 24.791H12.6035C14.1504 24.791 14.9131 25.543 14.9131 27.1328V29.2705C14.9131 30.8711 14.1504 31.623 12.6035 31.623H10.3906ZM18.8984 31.623C17.3516 31.623 16.5889 30.8711 16.5889 29.2705V27.1328C16.5889 25.543 17.3516 24.791 18.8984 24.791H21.1113C22.6582 24.791 23.4209 25.543 23.4209 27.1328V29.2705C23.4209 30.8711 22.6582 31.623 21.1113 31.623H18.8984ZM27.417 31.623C25.8594 31.623 25.1074 30.8711 25.1074 29.2705V27.1328C25.1074 25.543 25.8594 24.791 27.417 24.791H29.6191C31.1768 24.791 31.9287 25.543 31.9287 27.1328V29.2705C31.9287 30.8711 31.1768 31.623 29.6191 31.623H27.417ZM10.4014 29.8506H12.582C12.958 29.8506 13.1406 29.668 13.1406 29.2812V27.1328C13.1406 26.7461 12.958 26.5527 12.582 26.5527H10.4014C10.0254 26.5527 9.84277 26.7461 9.84277 27.1328V29.2812C9.84277 29.668 10.0254 29.8506 10.4014 29.8506ZM18.9199 29.8506H21.1006C21.4766 29.8506 21.6592 29.668 21.6592 29.2812V27.1328C21.6592 26.7461 21.4766 26.5527 21.1006 26.5527H18.9199C18.5332 26.5527 18.3613 26.7461 18.3613 27.1328V29.2812C18.3613 29.668 18.5332 29.8506 18.9199 29.8506ZM27.4277 29.8506H29.6084C29.9844 29.8506 30.167 29.668 30.167 29.2812V27.1328C30.167 26.7461 29.9844 26.5527 29.6084 26.5527H27.4277C27.0518 26.5527 26.8691 26.7461 26.8691 27.1328V29.2812C26.8691 29.668 27.0518 29.8506 27.4277 29.8506Z" fill="#045C5C"/>
</svg>
