<svg width="32" height="32" viewBox="0 0 32 32" fill="none" xmlns="http://www.w3.org/2000/svg">
<path d="M17.5735 14.4843C19.2391 14.4843 20.646 13.0499 20.646 11.1941C20.646 9.38262 19.2315 8 17.5735 8C15.9232 8 14.5086 9.40481 14.5086 11.2089C14.5162 13.0499 15.9156 14.4843 17.5735 14.4843ZM17.5735 15.793C16.3263 15.793 15.2311 16.0665 14.3261 16.4954C15.4136 17.3826 16.1133 18.7135 16.1133 20.1996C16.1133 20.5915 16.0601 20.9908 15.9536 21.3604H22.3116C23.5665 21.3604 24 20.9908 24 20.3179C24 18.4104 21.5206 15.793 17.5735 15.793ZM11.1167 24C13.2385 24 15.0334 22.2773 15.0334 20.1996C15.0334 18.1146 13.2613 16.3919 11.1167 16.3919C8.97197 16.3919 7.19995 18.1146 7.19995 20.1996C7.19995 22.2847 8.97197 24 11.1167 24ZM11.1167 22.61C10.8048 22.61 10.5995 22.4104 10.5995 22.1072V20.7024H9.1545C8.85029 20.7024 8.63734 20.5028 8.63734 20.1996C8.63734 19.8965 8.84269 19.6969 9.1545 19.6969H10.5995V18.2921C10.5995 17.9963 10.8048 17.7893 11.1167 17.7893C11.4285 17.7893 11.6338 17.9963 11.6338 18.2921V19.6969H13.0788C13.383 19.6969 13.596 19.8965 13.596 20.1996C13.596 20.5028 13.383 20.7024 13.0788 20.7024H11.6338V22.1072C11.6338 22.4104 11.4285 22.61 11.1167 22.61Z" fill="#E5F5F3"/>
</svg>
