<svg width="379" height="142" viewBox="0 0 379 142" fill="none" xmlns="http://www.w3.org/2000/svg">
<rect x="12" y="12" width="100" height="118" fill="#FFFFFD"/>
<rect x="44.5068" y="53.9482" width="48.8394" height="4.88394" rx="2.44197" fill="#005F59"/>
<rect x="46.5867" y="63.625" width="44.7694" height="4.88394" rx="2.44197" fill="#005F59"/>
<rect x="48.8486" y="73.3032" width="40.4281" height="4.88394" rx="2.44197" fill="#005F59"/>
<rect x="51.0186" y="82.98" width="36.2677" height="4.88394" rx="2.44197" fill="#005F59"/>
<rect x="36.8792" y="39.1152" width="11.7036" height="4.88394" rx="2.44197" transform="rotate(77.2359 36.8792 39.1152)" fill="#F53F3F"/>
<rect x="26.8701" y="39.5669" width="10.4914" height="4.88394" rx="2.44197" fill="#F53F3F"/>
<circle cx="38.7174" cy="56.3595" r="2.89418" fill="#0ABF3D"/>
<circle cx="40.8893" cy="66.0372" r="2.89418" fill="#D20CB3"/>
<circle cx="43.0592" cy="75.7145" r="2.89418" fill="#176ACD"/>
<circle cx="45.2301" cy="85.3922" r="2.89418" fill="#E86100"/>
<ellipse cx="43.8733" cy="97.4061" rx="5.15527" ry="5.20049" fill="#005F59"/>
<ellipse cx="86.2012" cy="97.4061" rx="5.15527" ry="5.20049" fill="#005F59"/>
<rect x="112" y="12" width="255" height="76" fill="#90FFE4"/>
<path d="M178.672 54.5781H184.141C184.214 55.401 184.625 56.0573 185.375 56.5469C186.135 57.026 187.109 57.2656 188.297 57.2656C189.37 57.2656 190.24 57.0312 190.906 56.5625C191.573 56.0938 191.906 55.4896 191.906 54.75C191.906 54.125 191.635 53.6302 191.094 53.2656C190.552 52.8906 189.635 52.5729 188.344 52.3125L185.375 51.7188C183.312 51.3333 181.755 50.5833 180.703 49.4688C179.651 48.3542 179.125 46.9115 179.125 45.1406C179.125 42.9323 179.938 41.1667 181.562 39.8438C183.198 38.5104 185.375 37.8438 188.094 37.8438C190.729 37.8438 192.88 38.4948 194.547 39.7969C196.214 41.099 197.073 42.7917 197.125 44.875H191.828C191.766 44.0833 191.391 43.4375 190.703 42.9375C190.026 42.4271 189.182 42.1719 188.172 42.1719C187.161 42.1719 186.349 42.3958 185.734 42.8438C185.13 43.2812 184.828 43.875 184.828 44.625C184.828 45.2396 185.094 45.7396 185.625 46.125C186.156 46.5104 187.016 46.8177 188.203 47.0469L191.109 47.6094C193.339 48.0365 194.969 48.7708 196 49.8125C197.042 50.8542 197.562 52.2708 197.562 54.0625C197.562 56.4167 196.719 58.2656 195.031 59.6094C193.344 60.9427 191.021 61.6094 188.062 61.6094C185.208 61.6094 182.938 60.9792 181.25 59.7188C179.573 58.4583 178.714 56.7448 178.672 54.5781ZM201.562 61V37.0938H206.969V46.5H207.266C207.651 45.5 208.302 44.7135 209.219 44.1406C210.135 43.5677 211.219 43.2812 212.469 43.2812C214.365 43.2812 215.828 43.849 216.859 44.9844C217.901 46.1094 218.422 47.724 218.422 49.8281V61H212.906V51.0781C212.906 50.0052 212.667 49.1875 212.188 48.625C211.708 48.0625 211.01 47.7812 210.094 47.7812C209.156 47.7812 208.417 48.0885 207.875 48.7031C207.344 49.3177 207.078 50.1302 207.078 51.1406V61H201.562ZM230.594 61.4062C227.812 61.4062 225.641 60.6042 224.078 59C222.516 57.3958 221.734 55.1615 221.734 52.2969C221.734 49.4844 222.526 47.2656 224.109 45.6406C225.693 44.0156 227.854 43.2031 230.594 43.2031C233.344 43.2031 235.505 44.0156 237.078 45.6406C238.661 47.2552 239.453 49.474 239.453 52.2969C239.453 55.1615 238.672 57.3958 237.109 59C235.557 60.6042 233.385 61.4062 230.594 61.4062ZM228.234 55.9062C228.797 56.7604 229.583 57.1875 230.594 57.1875C231.604 57.1875 232.385 56.7604 232.938 55.9062C233.5 55.0521 233.781 53.849 233.781 52.2969C233.781 50.776 233.5 49.5833 232.938 48.7188C232.375 47.8542 231.594 47.4219 230.594 47.4219C229.594 47.4219 228.812 47.8542 228.25 48.7188C227.688 49.5833 227.406 50.776 227.406 52.2969C227.406 53.849 227.682 55.0521 228.234 55.9062ZM253.766 43.3438C255.964 43.3438 257.677 44.1302 258.906 45.7031C260.146 47.2656 260.766 49.4635 260.766 52.2969C260.766 55.1302 260.161 57.3333 258.953 58.9062C257.745 60.4792 256.057 61.2656 253.891 61.2656C252.641 61.2656 251.568 61.0104 250.672 60.5C249.776 59.9792 249.125 59.2552 248.719 58.3281H248.422V66.75H242.906V43.6094H248.281V46.4375H248.578C249.005 45.4688 249.677 44.7135 250.594 44.1719C251.51 43.6198 252.568 43.3438 253.766 43.3438ZM249.281 55.7031C249.875 56.5156 250.698 56.9219 251.75 56.9219C252.802 56.9219 253.62 56.5156 254.203 55.7031C254.797 54.8802 255.094 53.7448 255.094 52.2969C255.094 50.8594 254.797 49.7344 254.203 48.9219C253.609 48.099 252.792 47.6875 251.75 47.6875C250.708 47.6875 249.885 48.099 249.281 48.9219C248.688 49.7448 248.391 50.875 248.391 52.3125C248.391 53.7604 248.688 54.8906 249.281 55.7031ZM275.078 43.3438C277.276 43.3438 278.99 44.1302 280.219 45.7031C281.458 47.2656 282.078 49.4635 282.078 52.2969C282.078 55.1302 281.474 57.3333 280.266 58.9062C279.057 60.4792 277.37 61.2656 275.203 61.2656C273.953 61.2656 272.88 61.0104 271.984 60.5C271.089 59.9792 270.438 59.2552 270.031 58.3281H269.734V66.75H264.219V43.6094H269.594V46.4375H269.891C270.318 45.4688 270.99 44.7135 271.906 44.1719C272.823 43.6198 273.88 43.3438 275.078 43.3438ZM270.594 55.7031C271.188 56.5156 272.01 56.9219 273.062 56.9219C274.115 56.9219 274.932 56.5156 275.516 55.7031C276.109 54.8802 276.406 53.7448 276.406 52.2969C276.406 50.8594 276.109 49.7344 275.516 48.9219C274.922 48.099 274.104 47.6875 273.062 47.6875C272.021 47.6875 271.198 48.099 270.594 48.9219C270 49.7448 269.703 50.875 269.703 52.3125C269.703 53.7604 270 54.8906 270.594 55.7031ZM287.281 67.3281C285.99 67.3281 285.318 67.3229 285.266 67.3125V63.1094C285.37 63.1302 285.693 63.1406 286.234 63.1406C288.068 63.1406 289.078 62.6354 289.266 61.625L289.344 61.1406L283.406 43.6094H289.516L292.625 56.3594H292.922L296.031 43.6094H301.875L296.281 60.9688C295.542 63.2812 294.479 64.9167 293.094 65.875C291.719 66.8438 289.781 67.3281 287.281 67.3281Z" fill="#004E43"/>
<rect x="112" y="88" width="255" height="42" fill="#1A645A"/>
<path d="M122.93 110.746H125.021C125.088 111.283 125.367 111.712 125.86 112.033C126.352 112.348 126.978 112.506 127.736 112.506C128.444 112.506 129.025 112.345 129.479 112.024C129.938 111.698 130.168 111.283 130.168 110.779C130.168 110.348 129.994 109.996 129.645 109.725C129.302 109.454 128.746 109.23 127.977 109.053L126.424 108.696C125.34 108.452 124.535 108.057 124.009 107.509C123.489 106.955 123.229 106.233 123.229 105.342C123.229 104.252 123.635 103.378 124.449 102.719C125.268 102.055 126.347 101.723 127.686 101.723C128.942 101.723 129.983 102.05 130.807 102.703C131.632 103.356 132.069 104.197 132.119 105.226H130.068C129.996 104.7 129.745 104.283 129.313 103.973C128.881 103.663 128.336 103.508 127.678 103.508C126.986 103.508 126.43 103.663 126.009 103.973C125.594 104.277 125.387 104.684 125.387 105.193C125.387 105.597 125.55 105.926 125.876 106.181C126.203 106.43 126.737 106.64 127.479 106.812L128.856 107.127C130.068 107.398 130.945 107.802 131.488 108.339C132.036 108.876 132.31 109.601 132.31 110.514C132.31 111.681 131.886 112.605 131.04 113.286C130.198 113.961 129.053 114.299 127.603 114.299C126.231 114.299 125.121 113.978 124.274 113.336C123.433 112.694 122.985 111.831 122.93 110.746ZM134.584 114V101.408H136.609V106.388H136.759C136.975 105.874 137.32 105.472 137.796 105.185C138.272 104.897 138.845 104.753 139.515 104.753C140.494 104.753 141.258 105.049 141.806 105.641C142.359 106.233 142.636 107.066 142.636 108.14V114H140.577V108.629C140.577 107.943 140.422 107.426 140.112 107.077C139.802 106.723 139.349 106.546 138.751 106.546C138.087 106.546 137.569 106.745 137.199 107.144C136.828 107.536 136.643 108.065 136.643 108.729V114H134.584ZM148.994 114.183C147.633 114.183 146.565 113.765 145.79 112.929C145.015 112.088 144.628 110.931 144.628 109.459C144.628 107.999 145.018 106.847 145.798 106.006C146.579 105.16 147.644 104.736 148.994 104.736C150.35 104.736 151.415 105.157 152.19 105.998C152.97 106.839 153.36 107.993 153.36 109.459C153.36 110.931 152.97 112.088 152.19 112.929C151.415 113.765 150.35 114.183 148.994 114.183ZM147.326 111.676C147.719 112.196 148.275 112.456 148.994 112.456C149.714 112.456 150.267 112.196 150.654 111.676C151.047 111.15 151.244 110.411 151.244 109.459C151.244 108.513 151.047 107.777 150.654 107.251C150.261 106.726 149.708 106.463 148.994 106.463C148.275 106.463 147.719 106.726 147.326 107.251C146.933 107.777 146.736 108.513 146.736 109.459C146.736 110.411 146.933 111.15 147.326 111.676ZM160.383 104.77C161.534 104.77 162.444 105.187 163.114 106.023C163.789 106.859 164.126 108.004 164.126 109.459C164.126 110.909 163.792 112.055 163.122 112.896C162.458 113.732 161.553 114.149 160.408 114.149C159.76 114.149 159.193 114.017 158.706 113.751C158.225 113.48 157.868 113.104 157.635 112.622H157.494V117.021H155.436V104.919H157.419V106.421H157.561C157.821 105.907 158.2 105.503 158.698 105.209C159.201 104.916 159.763 104.77 160.383 104.77ZM159.735 112.398C160.449 112.398 161.005 112.138 161.404 111.618C161.808 111.097 162.01 110.378 162.01 109.459C162.01 108.541 161.808 107.821 161.404 107.301C161.005 106.781 160.452 106.521 159.744 106.521C159.041 106.521 158.485 106.784 158.075 107.31C157.666 107.835 157.458 108.552 157.453 109.459C157.458 110.367 157.663 111.084 158.067 111.609C158.476 112.135 159.033 112.398 159.735 112.398ZM171.141 104.77C172.292 104.77 173.202 105.187 173.872 106.023C174.547 106.859 174.884 108.004 174.884 109.459C174.884 110.909 174.549 112.055 173.88 112.896C173.216 113.732 172.311 114.149 171.166 114.149C170.518 114.149 169.951 114.017 169.464 113.751C168.982 113.48 168.625 113.104 168.393 112.622H168.252V117.021H166.193V104.919H168.177V106.421H168.318C168.578 105.907 168.958 105.503 169.456 105.209C169.959 104.916 170.521 104.77 171.141 104.77ZM170.493 112.398C171.207 112.398 171.763 112.138 172.162 111.618C172.566 111.097 172.768 110.378 172.768 109.459C172.768 108.541 172.566 107.821 172.162 107.301C171.763 106.781 171.21 106.521 170.501 106.521C169.799 106.521 169.243 106.784 168.833 107.31C168.424 107.835 168.216 108.552 168.21 109.459C168.216 110.367 168.421 111.084 168.825 111.609C169.234 112.135 169.79 112.398 170.493 112.398ZM176.976 114V104.919H179.026V114H176.976ZM177.997 103.441C177.626 103.441 177.322 103.336 177.084 103.126C176.846 102.91 176.727 102.636 176.727 102.304C176.727 101.972 176.846 101.701 177.084 101.491C177.322 101.275 177.626 101.167 177.997 101.167C178.373 101.167 178.678 101.275 178.91 101.491C179.148 101.701 179.267 101.972 179.267 102.304C179.267 102.636 179.148 102.91 178.91 103.126C178.678 103.336 178.373 103.441 177.997 103.441ZM181.583 114V104.919H183.567V106.372H183.708C183.929 105.851 184.267 105.45 184.721 105.168C185.18 104.88 185.742 104.736 186.406 104.736C187.413 104.736 188.185 105.03 188.722 105.616C189.264 106.203 189.535 107.038 189.535 108.123V114H187.477V108.613C187.477 107.224 186.865 106.529 185.642 106.529C185.028 106.529 184.541 106.726 184.181 107.119C183.821 107.512 183.642 108.043 183.642 108.712V114H181.583ZM194.217 111.435C194.61 111.939 195.163 112.19 195.877 112.19C196.591 112.19 197.153 111.936 197.562 111.427C197.972 110.918 198.176 110.229 198.176 109.36C198.176 108.491 197.972 107.802 197.562 107.293C197.153 106.778 196.591 106.521 195.877 106.521C195.169 106.521 194.615 106.776 194.217 107.285C193.824 107.794 193.627 108.486 193.627 109.36C193.627 110.234 193.824 110.926 194.217 111.435ZM195.877 117.453C194.72 117.453 193.78 117.218 193.055 116.748C192.335 116.277 191.934 115.649 191.851 114.863H193.918C193.984 115.179 194.192 115.428 194.541 115.61C194.895 115.793 195.351 115.884 195.91 115.884C196.613 115.884 197.161 115.727 197.554 115.411C197.947 115.096 198.143 114.653 198.143 114.083V112.365H198.002C197.742 112.852 197.371 113.225 196.89 113.485C196.414 113.74 195.86 113.867 195.229 113.867C194.09 113.867 193.185 113.46 192.515 112.647C191.846 111.828 191.511 110.732 191.511 109.36C191.511 107.965 191.848 106.853 192.523 106.023C193.199 105.187 194.112 104.77 195.263 104.77C195.882 104.77 196.444 104.913 196.948 105.201C197.451 105.489 197.828 105.879 198.077 106.372H198.218V104.919H200.202V114.033C200.202 115.085 199.812 115.917 199.031 116.532C198.251 117.146 197.2 117.453 195.877 117.453ZM207.349 114V101.408H209.407V114H207.349ZM212.039 114V104.919H214.089V114H212.039ZM213.06 103.441C212.689 103.441 212.384 103.336 212.146 103.126C211.909 102.91 211.79 102.636 211.79 102.304C211.79 101.972 211.909 101.701 212.146 101.491C212.384 101.275 212.689 101.167 213.06 101.167C213.436 101.167 213.74 101.275 213.973 101.491C214.211 101.701 214.33 101.972 214.33 102.304C214.33 102.636 214.211 102.91 213.973 103.126C213.74 103.336 213.436 103.441 213.06 103.441ZM216.438 107.517C216.438 106.698 216.776 106.031 217.451 105.517C218.126 104.996 219 104.736 220.074 104.736C221.153 104.736 222.013 104.966 222.655 105.425C223.303 105.879 223.662 106.518 223.734 107.343H221.8C221.723 107.016 221.535 106.762 221.236 106.579C220.943 106.391 220.558 106.297 220.082 106.297C219.606 106.297 219.213 106.399 218.903 106.604C218.593 106.809 218.438 107.074 218.438 107.401C218.438 107.655 218.546 107.866 218.762 108.032C218.984 108.198 219.324 108.333 219.783 108.438L221.385 108.804C222.26 109.003 222.902 109.299 223.311 109.692C223.721 110.085 223.925 110.613 223.925 111.277C223.925 112.146 223.566 112.849 222.846 113.386C222.127 113.917 221.197 114.183 220.057 114.183C218.923 114.183 218.015 113.95 217.334 113.485C216.659 113.021 216.283 112.376 216.206 111.551H218.239C218.339 111.894 218.546 112.16 218.862 112.348C219.183 112.531 219.598 112.622 220.107 112.622C220.627 112.622 221.05 112.52 221.377 112.315C221.703 112.105 221.867 111.831 221.867 111.493C221.867 110.99 221.449 110.646 220.613 110.464L219.003 110.09C218.129 109.891 217.481 109.584 217.061 109.169C216.646 108.748 216.438 108.198 216.438 107.517ZM226.598 102.694H228.648V104.977H230.591V106.621H228.648V111.078C228.648 111.526 228.748 111.856 228.947 112.066C229.146 112.271 229.462 112.373 229.894 112.373C230.082 112.373 230.314 112.359 230.591 112.332V113.942C230.248 114.008 229.888 114.042 229.512 114.042C228.471 114.042 227.724 113.851 227.271 113.469C226.822 113.087 226.598 112.456 226.598 111.576V106.621H225.162V104.977H226.598V102.694ZM237.846 114V106.621H236.36V104.977H237.846V104.022C237.846 103.115 238.084 102.437 238.56 101.989C239.041 101.541 239.783 101.316 240.784 101.316C241.199 101.316 241.581 101.347 241.93 101.408V102.918C241.747 102.891 241.512 102.877 241.224 102.877C240.748 102.877 240.402 102.982 240.187 103.192C239.976 103.397 239.871 103.718 239.871 104.155V104.977H241.847V106.621H239.896V114H237.846ZM247.425 114.183C246.063 114.183 244.995 113.765 244.221 112.929C243.446 112.088 243.059 110.931 243.059 109.459C243.059 107.999 243.449 106.847 244.229 106.006C245.009 105.16 246.075 104.736 247.425 104.736C248.781 104.736 249.846 105.157 250.621 105.998C251.401 106.839 251.791 107.993 251.791 109.459C251.791 110.931 251.401 112.088 250.621 112.929C249.846 113.765 248.781 114.183 247.425 114.183ZM245.756 111.676C246.149 112.196 246.705 112.456 247.425 112.456C248.144 112.456 248.698 112.196 249.085 111.676C249.478 111.15 249.674 110.411 249.674 109.459C249.674 108.513 249.478 107.777 249.085 107.251C248.692 106.726 248.139 106.463 247.425 106.463C246.705 106.463 246.149 106.726 245.756 107.251C245.363 107.777 245.167 108.513 245.167 109.459C245.167 110.411 245.363 111.15 245.756 111.676ZM253.866 114V104.919H255.85V106.33H255.991C256.118 105.876 256.403 105.503 256.846 105.209C257.294 104.916 257.809 104.77 258.39 104.77C258.761 104.77 259.046 104.8 259.245 104.861V106.77C259.035 106.693 258.683 106.654 258.191 106.654C257.521 106.654 256.976 106.847 256.556 107.235C256.135 107.617 255.925 108.123 255.925 108.754V114H253.866ZM268.575 112.531C269.195 112.531 269.712 112.354 270.127 112C270.542 111.64 270.75 111.197 270.75 110.671V109.949L268.7 110.082C267.571 110.154 267.006 110.563 267.006 111.311C267.006 111.687 267.15 111.986 267.438 112.207C267.731 112.423 268.11 112.531 268.575 112.531ZM267.969 114.149C267.084 114.149 266.362 113.9 265.803 113.402C265.244 112.904 264.964 112.246 264.964 111.427C264.964 110.608 265.26 109.966 265.853 109.501C266.45 109.036 267.302 108.771 268.409 108.704L270.75 108.563V107.799C270.75 107.351 270.603 107.008 270.31 106.77C270.017 106.532 269.593 106.413 269.04 106.413C268.564 106.413 268.171 106.496 267.861 106.662C267.551 106.823 267.349 107.055 267.255 107.359H265.313C265.396 106.557 265.783 105.921 266.475 105.45C267.172 104.974 268.061 104.736 269.14 104.736C270.302 104.736 271.198 105.005 271.829 105.542C272.465 106.078 272.784 106.831 272.784 107.799V114H270.8V112.755H270.659C270.404 113.192 270.039 113.535 269.563 113.784C269.093 114.028 268.561 114.149 267.969 114.149ZM275.266 114V104.919H277.25V106.372H277.391C277.612 105.851 277.95 105.45 278.403 105.168C278.863 104.88 279.424 104.736 280.088 104.736C281.096 104.736 281.868 105.03 282.404 105.616C282.947 106.203 283.218 107.038 283.218 108.123V114H281.159V108.613C281.159 107.224 280.548 106.529 279.325 106.529C278.71 106.529 278.223 106.726 277.864 107.119C277.504 107.512 277.324 108.043 277.324 108.712V114H275.266ZM286.372 117.295C285.946 117.295 285.675 117.284 285.559 117.262V115.577C285.664 115.599 285.852 115.61 286.123 115.61C286.56 115.61 286.906 115.519 287.161 115.336C287.421 115.154 287.617 114.855 287.75 114.44L287.858 114.042L284.612 104.919H286.87L288.995 112.008H289.136L291.253 104.919H293.428L290.149 114.291C289.767 115.414 289.297 116.194 288.738 116.631C288.184 117.074 287.396 117.295 286.372 117.295ZM299.736 114V104.919H301.72V106.33H301.861C301.989 105.876 302.274 105.503 302.716 105.209C303.165 104.916 303.679 104.77 304.26 104.77C304.631 104.77 304.916 104.8 305.115 104.861V106.77C304.905 106.693 304.554 106.654 304.061 106.654C303.391 106.654 302.846 106.847 302.426 107.235C302.005 107.617 301.795 108.123 301.795 108.754V114H299.736ZM310.386 106.372C309.772 106.372 309.266 106.574 308.867 106.978C308.469 107.382 308.247 107.916 308.203 108.58H312.478C312.456 107.904 312.257 107.368 311.88 106.969C311.504 106.571 311.006 106.372 310.386 106.372ZM312.495 111.501H314.445C314.252 112.332 313.795 112.987 313.076 113.469C312.362 113.945 311.474 114.183 310.411 114.183C309.077 114.183 308.029 113.768 307.265 112.938C306.507 112.102 306.128 110.954 306.128 109.493C306.128 108.032 306.51 106.875 307.273 106.023C308.037 105.165 309.077 104.736 310.395 104.736C311.689 104.736 312.702 105.143 313.433 105.957C314.169 106.764 314.537 107.885 314.537 109.318V109.982H308.195V110.09C308.222 110.848 308.438 111.449 308.842 111.892C309.252 112.329 309.794 112.547 310.469 112.547C311.51 112.547 312.185 112.199 312.495 111.501ZM319.708 112.531C320.328 112.531 320.845 112.354 321.26 112C321.675 111.64 321.883 111.197 321.883 110.671V109.949L319.833 110.082C318.704 110.154 318.139 110.563 318.139 111.311C318.139 111.687 318.283 111.986 318.571 112.207C318.864 112.423 319.243 112.531 319.708 112.531ZM319.102 114.149C318.217 114.149 317.494 113.9 316.936 113.402C316.377 112.904 316.097 112.246 316.097 111.427C316.097 110.608 316.393 109.966 316.985 109.501C317.583 109.036 318.435 108.771 319.542 108.704L321.883 108.563V107.799C321.883 107.351 321.736 107.008 321.443 106.77C321.15 106.532 320.726 106.413 320.173 106.413C319.697 106.413 319.304 106.496 318.994 106.662C318.684 106.823 318.482 107.055 318.388 107.359H316.446C316.529 106.557 316.916 105.921 317.608 105.45C318.305 104.974 319.193 104.736 320.272 104.736C321.435 104.736 322.331 105.005 322.962 105.542C323.598 106.078 323.917 106.831 323.917 107.799V114H321.933V112.755H321.792C321.537 113.192 321.172 113.535 320.696 113.784C320.225 114.028 319.694 114.149 319.102 114.149ZM326.191 107.517C326.191 106.698 326.528 106.031 327.204 105.517C327.879 104.996 328.753 104.736 329.827 104.736C330.906 104.736 331.766 104.966 332.408 105.425C333.056 105.879 333.415 106.518 333.487 107.343H331.553C331.476 107.016 331.288 106.762 330.989 106.579C330.695 106.391 330.311 106.297 329.835 106.297C329.359 106.297 328.966 106.399 328.656 106.604C328.346 106.809 328.191 107.074 328.191 107.401C328.191 107.655 328.299 107.866 328.515 108.032C328.736 108.198 329.077 108.333 329.536 108.438L331.138 108.804C332.013 109.003 332.654 109.299 333.064 109.692C333.473 110.085 333.678 110.613 333.678 111.277C333.678 112.146 333.319 112.849 332.599 113.386C331.88 113.917 330.95 114.183 329.81 114.183C328.676 114.183 327.768 113.95 327.087 113.485C326.412 113.021 326.036 112.376 325.958 111.551H327.992C328.092 111.894 328.299 112.16 328.615 112.348C328.936 112.531 329.351 112.622 329.86 112.622C330.38 112.622 330.803 112.52 331.13 112.315C331.456 112.105 331.62 111.831 331.62 111.493C331.62 110.99 331.202 110.646 330.366 110.464L328.756 110.09C327.882 109.891 327.234 109.584 326.813 109.169C326.398 108.748 326.191 108.198 326.191 107.517ZM339.68 114.183C338.318 114.183 337.25 113.765 336.476 112.929C335.701 112.088 335.313 110.931 335.313 109.459C335.313 107.999 335.704 106.847 336.484 106.006C337.264 105.16 338.329 104.736 339.68 104.736C341.035 104.736 342.101 105.157 342.875 105.998C343.656 106.839 344.046 107.993 344.046 109.459C344.046 110.931 343.656 112.088 342.875 112.929C342.101 113.765 341.035 114.183 339.68 114.183ZM338.011 111.676C338.404 112.196 338.96 112.456 339.68 112.456C340.399 112.456 340.952 112.196 341.34 111.676C341.733 111.15 341.929 110.411 341.929 109.459C341.929 108.513 341.733 107.777 341.34 107.251C340.947 106.726 340.394 106.463 339.68 106.463C338.96 106.463 338.404 106.726 338.011 107.251C337.618 107.777 337.422 108.513 337.422 109.459C337.422 110.411 337.618 111.15 338.011 111.676ZM346.121 114V104.919H348.105V106.372H348.246C348.467 105.851 348.805 105.45 349.259 105.168C349.718 104.88 350.28 104.736 350.944 104.736C351.951 104.736 352.723 105.03 353.26 105.616C353.802 106.203 354.073 107.038 354.073 108.123V114H352.015V108.613C352.015 107.224 351.403 106.529 350.18 106.529C349.566 106.529 349.079 106.726 348.719 107.119C348.36 107.512 348.18 108.043 348.18 108.712V114H346.121Z" fill="white"/>
<rect x="6" y="6" width="367" height="130" stroke="#B4AFB6" stroke-width="12"/>
</svg>
