<svg width="41" height="40" viewBox="0 0 41 40" fill="none" xmlns="http://www.w3.org/2000/svg">
<path d="M11.8562 28.634C12.348 29.1146 13.1526 29.1146 13.622 28.6452L20.4951 21.7721L27.3682 28.6452C27.8488 29.1146 28.6534 29.1257 29.134 28.634C29.6146 28.1534 29.6146 27.3488 29.1452 26.8794L22.2721 19.9951L29.1452 13.122C29.6146 12.6526 29.6257 11.8368 29.134 11.3674C28.6423 10.8869 27.8488 10.8869 27.3682 11.3562L20.4951 18.2293L13.622 11.3562C13.1526 10.8869 12.3368 10.8757 11.8562 11.3562C11.3757 11.848 11.3869 12.6638 11.8562 13.122L18.7293 19.9951L11.8562 26.8794C11.3869 27.3376 11.3757 28.1646 11.8562 28.634Z" fill="#00B59B"/>
</svg>
