<svg width="21" height="25" viewBox="0 0 21 25" fill="none" xmlns="http://www.w3.org/2000/svg">
<path d="M18.2344 21.6768C18.1986 22.5003 17.93 23.1484 17.4287 23.6211C16.9274 24.1009 16.2614 24.3408 15.4307 24.3408H5.55859C4.72786 24.3408 4.06185 24.1045 3.56055 23.6318C3.05924 23.1592 2.79069 22.5111 2.75488 21.6875L2.02441 6.13281H1.04688C0.77474 6.13281 0.545573 6.03971 0.359375 5.85352C0.173177 5.66732 0.0800781 5.44173 0.0800781 5.17676C0.0800781 4.91178 0.173177 4.68978 0.359375 4.51074C0.545573 4.32454 0.77474 4.23145 1.04688 4.23145H5.60156V2.77051C5.60156 1.93978 5.86654 1.27734 6.39648 0.783203C6.93359 0.289062 7.6569 0.0419922 8.56641 0.0419922H12.4014C13.3109 0.0419922 14.0306 0.289062 14.5605 0.783203C15.0977 1.27734 15.3662 1.93978 15.3662 2.77051V4.23145H19.9424C20.2074 4.23145 20.4329 4.32454 20.6191 4.51074C20.8053 4.68978 20.8984 4.91178 20.8984 5.17676C20.8984 5.44173 20.8053 5.66732 20.6191 5.85352C20.4401 6.03971 20.2145 6.13281 19.9424 6.13281H18.9648L18.2344 21.6768ZM7.62109 2.86719L7.61035 4.23145H13.3682L13.3574 2.86719C13.3574 2.57357 13.2572 2.33366 13.0566 2.14746C12.8561 1.9541 12.5983 1.85742 12.2832 1.85742H8.69531C8.38021 1.85742 8.1224 1.9541 7.92188 2.14746C7.72135 2.33366 7.62109 2.57357 7.62109 2.86719ZM5.78418 22.418H15.2051C15.513 22.418 15.7601 22.3177 15.9463 22.1172C16.1396 21.9238 16.2435 21.666 16.2578 21.3438L16.9561 6.13281H4.00098L4.73145 21.3438C4.74577 21.6589 4.84961 21.9167 5.04297 22.1172C5.23633 22.3177 5.4834 22.418 5.78418 22.418ZM13.6582 20.6455C13.4505 20.6455 13.2786 20.5703 13.1426 20.4199C13.0137 20.2624 12.9528 20.0726 12.96 19.8506L13.2822 8.77539C13.2894 8.56055 13.361 8.37793 13.4971 8.22754C13.6403 8.06999 13.805 7.99121 13.9912 7.99121C14.1989 7.99121 14.3672 8.06999 14.4961 8.22754C14.6322 8.37793 14.6966 8.56413 14.6895 8.78613L14.3672 19.8613C14.36 20.0905 14.2884 20.2803 14.1523 20.4307C14.0234 20.5739 13.8587 20.6455 13.6582 20.6455ZM7.33105 20.6455C7.13053 20.6455 6.96224 20.5739 6.82617 20.4307C6.69727 20.2803 6.62923 20.0905 6.62207 19.8613L6.2998 8.78613C6.29264 8.56413 6.35352 8.37793 6.48242 8.22754C6.61849 8.06999 6.78678 7.99121 6.9873 7.99121C7.18066 7.99121 7.34538 8.06999 7.48145 8.22754C7.62467 8.37793 7.69987 8.56055 7.70703 8.77539L8.0293 19.8506C8.03646 20.0726 7.97201 20.2624 7.83594 20.4199C7.70703 20.5703 7.53874 20.6455 7.33105 20.6455ZM11.2197 19.8613C11.2197 20.0762 11.1481 20.2624 11.0049 20.4199C10.8617 20.5703 10.6934 20.6455 10.5 20.6455C10.2995 20.6455 10.1276 20.5703 9.98438 20.4199C9.84115 20.2624 9.76953 20.0762 9.76953 19.8613V8.77539C9.76953 8.56055 9.84115 8.37793 9.98438 8.22754C10.1276 8.06999 10.2995 7.99121 10.5 7.99121C10.6934 7.99121 10.8617 8.06999 11.0049 8.22754C11.1481 8.37793 11.2197 8.56055 11.2197 8.77539V19.8613Z" fill="#617774"/>
</svg>
