<svg width="40" height="40" viewBox="0 0 40 40" fill="none" xmlns="http://www.w3.org/2000/svg">
<path d="M10.042 27.666H11.4385C11.7607 27.666 11.8896 27.6123 12.126 27.4189L12.8457 26.8711C13.2432 27.2793 13.834 27.3545 14.4248 27.1074L17.9805 25.625C18.249 25.5068 18.3887 25.4101 18.5605 25.2382L28.9268 14.9472C29.958 13.916 29.9473 12.6806 28.9053 11.6386L26.585 9.30758C25.543 8.25484 24.3076 8.2441 23.2764 9.27535L12.9102 19.5556C12.7383 19.7382 12.6416 19.8671 12.5234 20.1357L11.0195 23.6914C10.7725 24.25 10.8369 24.8193 11.2344 25.249L9.69824 26.8496C9.36523 27.2041 9.52637 27.666 10.042 27.666ZM24.4688 10.6826C24.748 10.4033 25.0811 10.3925 25.3496 10.6611L27.5518 12.874C27.8096 13.1425 27.7988 13.4755 27.5195 13.7548L26.7998 14.4638L23.749 11.3916L24.4688 10.6826ZM14.8008 20.2861L22.5996 12.541L25.6504 15.6025L17.8516 23.3584L14.8008 20.2861ZM14.21 25.2168C14.0059 25.3027 13.8662 25.3027 13.6836 25.1201L13.0068 24.4433C12.8242 24.2607 12.8242 24.1103 12.9102 23.917L13.877 21.6611L16.4658 24.2714L14.21 25.2168ZM9.69824 31.4902H30.3018C30.8174 31.4902 31.2363 31.0498 31.2363 30.5449C31.2363 30.0293 30.8174 29.5996 30.3018 29.5996H9.69824C9.18262 29.5996 8.76367 30.0293 8.76367 30.5449C8.76367 31.0498 9.18262 31.4902 9.69824 31.4902Z" fill="#045C5C"/>
</svg>
