<svg width="69" height="48" viewBox="0 0 69 48" fill="none" xmlns="http://www.w3.org/2000/svg">
<rect width="68" height="48" transform="translate(0.5)" fill="#1A645A"/>
<path d="M26.0195 27.7695C26.0195 28.7363 26.6748 29.3809 27.6953 29.3809H33.4424V34.4619C33.4424 35.9766 34.2051 37.502 34.5059 37.502C34.7959 37.502 35.5586 35.9766 35.5586 34.4619V29.3809H41.3057C42.3262 29.3809 42.9814 28.7363 42.9814 27.7695C42.9814 25.46 41.1445 23.0859 38.1152 21.9688L37.7607 16.9736C39.3613 16.0605 40.6289 15.0615 41.1875 14.3525C41.4775 13.9658 41.6279 13.5791 41.6279 13.2354C41.6279 12.5264 41.0801 12 40.2744 12H28.7266C27.9209 12 27.373 12.5264 27.373 13.2354C27.373 13.5791 27.5234 13.9658 27.8135 14.3525C28.3721 15.0615 29.6396 16.0605 31.2402 16.9736L30.8965 21.9688C27.8564 23.0859 26.0195 25.46 26.0195 27.7695Z" fill="white"/>
</svg>
