<svg width="32" height="32" viewBox="0 0 32 32" fill="none" xmlns="http://www.w3.org/2000/svg">
<path d="M4.71777 6.77528C4.49219 7.87098 4.40625 9.2997 4.40625 10.2558C4.40625 18.2909 9.18652 23.5975 16.4912 23.5975C20.1221 23.5975 22.2812 21.9433 23.291 20.7724C24.1934 22.0077 24.709 23.372 25.2783 25.1552C25.4395 25.6708 25.7939 25.8534 26.1699 25.8534C26.9648 25.8534 27.5986 25.1659 27.5986 24.2206C27.5986 22.7382 25.4717 20.16 24.3652 19.1181C19.6602 14.7782 12.4951 17.3456 10.6475 12.5546C10.5078 12.1893 10.8945 11.8671 11.249 12.2323C14.9551 15.9384 19.7246 12.8124 24.3652 17.0878C24.7305 17.41 25.1602 17.2382 25.2246 16.8515C25.2783 16.5399 25.3105 16.0458 25.3105 15.5731C25.3105 10.3309 21.6582 7.80653 16.5234 7.80653C14.8047 7.80653 12.7959 8.22548 11.2168 8.22548C9.4873 8.22548 7.54297 8.08583 5.99609 6.43153C5.55566 5.98036 4.88965 6.04481 4.71777 6.77528Z" fill="white"/>
</svg>
