<svg width="236" height="88" viewBox="0 0 236 88" fill="none" xmlns="http://www.w3.org/2000/svg">
<path d="M0.871948 4.36808C0 6.07937 0 8.31958 0 12.8V57.2C0 61.6804 0 63.9206 0.871948 65.6319C1.63893 67.1372 2.86278 68.3611 4.36808 69.1281C6.07937 70 8.31958 70 12.8 70H108.893C109.004 70 109.097 70.0759 109.144 70.1757L117.095 87.0765C117.455 87.8423 118.545 87.8423 118.905 87.0765L126.856 70.1757C126.903 70.0759 126.996 70 127.107 70H223.2C227.68 70 229.921 70 231.632 69.1281C233.137 68.3611 234.361 67.1372 235.128 65.6319C236 63.9206 236 61.6804 236 57.2V12.8C236 8.31958 236 6.07937 235.128 4.36808C234.361 2.86278 233.137 1.63893 231.632 0.871948C229.921 0 227.68 0 223.2 0H12.8C8.31958 0 6.07937 0 4.36808 0.871948C2.86278 1.63893 1.63893 2.86278 0.871948 4.36808Z" fill="#85F3D5"/>
</svg>
