<svg width="72" height="72" viewBox="0 0 72 72" fill="none" xmlns="http://www.w3.org/2000/svg">
<rect width="72" height="72" fill="#1A645A"/>
<path d="M27.519 39.7695C27.519 40.7363 28.1743 41.3809 29.1948 41.3809H34.9419V46.4619C34.9419 47.9766 35.7046 49.502 36.0054 49.502C36.2954 49.502 37.0581 47.9766 37.0581 46.4619V41.3809H42.8052C43.8257 41.3809 44.481 40.7363 44.481 39.7695C44.481 37.46 42.644 35.0859 39.6147 33.9688L39.2603 28.9736C40.8608 28.0605 42.1284 27.0615 42.687 26.3525C42.9771 25.9658 43.1274 25.5791 43.1274 25.2354C43.1274 24.5264 42.5796 24 41.7739 24H30.2261C29.4204 24 28.8726 24.5264 28.8726 25.2354C28.8726 25.5791 29.0229 25.9658 29.313 26.3525C29.8716 27.0615 31.1392 28.0605 32.7397 28.9736L32.396 33.9688C29.356 35.0859 27.519 37.46 27.519 39.7695Z" fill="white"/>
</svg>
