<svg width="40" height="40" viewBox="0 0 40 40" fill="none" xmlns="http://www.w3.org/2000/svg">
<path d="M20.5107 21.7695C20.2314 21.7695 19.9915 21.6729 19.791 21.4795C19.5977 21.2861 19.501 21.0534 19.501 20.7812V10.0283L19.5869 8.42773L18.9209 9.22266L17.417 10.8232C17.2451 11.0166 17.0195 11.1133 16.7402 11.1133C16.4896 11.1133 16.2783 11.0345 16.1064 10.877C15.9346 10.7122 15.8486 10.5046 15.8486 10.2539C15.8486 10.0176 15.9453 9.80273 16.1387 9.60938L19.7373 6.13965C19.9736 5.91048 20.2314 5.7959 20.5107 5.7959C20.79 5.7959 21.0443 5.91048 21.2734 6.13965L24.8721 9.60938C25.0654 9.80273 25.1621 10.0176 25.1621 10.2539C25.1621 10.5046 25.0726 10.7122 24.8936 10.877C24.7217 11.0345 24.5104 11.1133 24.2598 11.1133C23.9876 11.1133 23.7656 11.0166 23.5938 10.8232L22.0898 9.22266L21.4346 8.43848L21.5098 10.0283V20.7812C21.5098 21.0534 21.4095 21.2861 21.209 21.4795C21.0156 21.6729 20.7829 21.7695 20.5107 21.7695ZM14.3125 30.2988C13.1452 30.2988 12.2607 30.0016 11.6592 29.4072C11.0648 28.82 10.7676 27.9499 10.7676 26.7969V16.3662C10.7676 15.2132 11.0648 14.3431 11.6592 13.7559C12.2607 13.1615 13.1452 12.8643 14.3125 12.8643H17.2344V15.002H14.4414C13.4245 15.002 12.916 15.5176 12.916 16.5488V26.6035C12.916 27.6419 13.4245 28.1611 14.4414 28.1611H26.5371C27.5612 28.1611 28.0732 27.6419 28.0732 26.6035V16.5488C28.0732 15.5176 27.5612 15.002 26.5371 15.002H23.7764V12.8643H26.6768C27.8441 12.8643 28.7249 13.1615 29.3193 13.7559C29.9137 14.3431 30.2109 15.2132 30.2109 16.3662V26.7969C30.2109 27.9499 29.9137 28.82 29.3193 29.4072C28.7249 30.0016 27.8441 30.2988 26.6768 30.2988H14.3125Z" fill="black"/>
</svg>
