<svg width="32" height="32" viewBox="0 0 32 32" fill="none" xmlns="http://www.w3.org/2000/svg">
<path d="M8.53125 11.9224H23.4629V6.08936C23.4629 4.73584 22.5928 3.84424 21.293 3.84424H10.6904C9.40137 3.84424 8.53125 4.73584 8.53125 6.08936V11.9224ZM11.5068 9.90283C11.1953 9.90283 10.959 9.67725 10.959 9.35498V6.90576C10.959 6.59424 11.1846 6.36865 11.5068 6.36865C11.8184 6.36865 12.0439 6.5835 12.0439 6.90576V9.35498C12.0439 9.6665 11.8291 9.90283 11.5068 9.90283ZM8.53125 23.8462H23.4629V13.1792H8.53125V23.8462ZM11.5068 18.314C11.1953 18.314 10.959 18.0991 10.959 17.7769V15.3276C10.959 15.0161 11.1846 14.7905 11.5068 14.7905C11.8184 14.7905 12.0439 15.0054 12.0439 15.3276V17.7769C12.0439 18.0884 11.8291 18.314 11.5068 18.314ZM8.53125 25.103V25.9087C8.53125 27.2622 9.40137 28.1538 10.6904 28.1538H21.293C22.5928 28.1538 23.4629 27.2622 23.4629 25.9087V25.103H8.53125Z" fill="white"/>
</svg>
