<svg width="40" height="40" viewBox="0 0 40 40" fill="none" xmlns="http://www.w3.org/2000/svg">
<path d="M13.4961 30.0278C11.1758 30.0278 9.97266 28.8354 9.97266 26.5366V13.4634C9.97266 11.1646 11.1758 9.97217 13.4961 9.97217H26.5049C28.8252 9.97217 30.0283 11.1646 30.0283 13.4634V26.5366C30.0283 28.8247 28.8252 30.0278 26.5049 30.0278H13.4961ZM13.625 27.9224H26.376C27.3643 27.9224 27.9229 27.396 27.9229 26.354V13.6353C27.9229 12.5933 27.3643 12.0776 26.376 12.0776H13.625C12.626 12.0776 12.0781 12.5933 12.0781 13.6353V26.354C12.0781 27.396 12.626 27.9224 13.625 27.9224ZM16.4717 24.4956C15.9346 24.4956 15.5049 24.0659 15.5049 23.5181C15.5049 23.2603 15.6123 23.0239 15.7949 22.8521L18.6416 19.9946L15.7949 17.1479C15.6123 16.9653 15.5049 16.729 15.5049 16.4712C15.5049 15.9341 15.9346 15.5151 16.4717 15.5151C16.751 15.5151 16.9766 15.6118 17.1592 15.8052L20.0059 18.6411L22.874 15.7944C23.0781 15.5903 23.293 15.4937 23.5615 15.4937C24.0986 15.4937 24.5283 15.9233 24.5283 16.4604C24.5283 16.7183 24.4316 16.9438 24.2383 17.1372L21.3809 19.9946L24.2275 22.8413C24.4102 23.0239 24.5176 23.2603 24.5176 23.5181C24.5176 24.0659 24.0879 24.4956 23.5508 24.4956C23.2607 24.4956 23.0352 24.3882 22.8525 24.2056L20.0059 21.3696L17.1699 24.2056C16.9873 24.3989 16.751 24.4956 16.4717 24.4956Z" fill="#C64E0A"/>
</svg>
