<svg width="40" height="40" viewBox="0 0 40 40" fill="none" xmlns="http://www.w3.org/2000/svg">
<path d="M18.2391 17.7439C17.8466 17.7439 17.712 17.6317 17.712 17.2392V16.5776C17.712 16.1851 17.8466 16.0618 18.2391 16.0618H18.9007C19.2932 16.0618 19.4166 16.1851 19.4166 16.5776V17.2392C19.4166 17.6317 19.2932 17.7439 18.9007 17.7439H18.2391ZM21.9621 17.7439C21.5696 17.7439 21.4351 17.6317 21.4351 17.2392V16.5776C21.4351 16.1851 21.5696 16.0618 21.9621 16.0618H22.6237C23.0162 16.0618 23.1508 16.1851 23.1508 16.5776V17.2392C23.1508 17.6317 23.0162 17.7439 22.6237 17.7439H21.9621ZM25.6851 17.7439C25.2926 17.7439 25.1693 17.6317 25.1693 17.2392V16.5776C25.1693 16.1851 25.2926 16.0618 25.6851 16.0618H26.3468C26.7392 16.0618 26.8738 16.1851 26.8738 16.5776V17.2392C26.8738 17.6317 26.7392 17.7439 26.3468 17.7439H25.6851ZM14.5161 21.4108C14.1124 21.4108 13.989 21.2987 13.989 20.9062V20.2446C13.989 19.8521 14.1124 19.7399 14.5161 19.7399H15.1665C15.5702 19.7399 15.6935 19.8521 15.6935 20.2446V20.9062C15.6935 21.2987 15.5702 21.4108 15.1665 21.4108H14.5161ZM18.2391 21.4108C17.8466 21.4108 17.712 21.2987 17.712 20.9062V20.2446C17.712 19.8521 17.8466 19.7399 18.2391 19.7399H18.9007C19.2932 19.7399 19.4166 19.8521 19.4166 20.2446V20.9062C19.4166 21.2987 19.2932 21.4108 18.9007 21.4108H18.2391ZM21.9621 21.4108C21.5696 21.4108 21.4351 21.2987 21.4351 20.9062V20.2446C21.4351 19.8521 21.5696 19.7399 21.9621 19.7399H22.6237C23.0162 19.7399 23.1508 19.8521 23.1508 20.2446V20.9062C23.1508 21.2987 23.0162 21.4108 22.6237 21.4108H21.9621ZM25.6851 21.4108C25.2926 21.4108 25.1693 21.2987 25.1693 20.9062V20.2446C25.1693 19.8521 25.2926 19.7399 25.6851 19.7399H26.3468C26.7392 19.7399 26.8738 19.8521 26.8738 20.2446V20.9062C26.8738 21.2987 26.7392 21.4108 26.3468 21.4108H25.6851ZM14.5161 25.089C14.1124 25.089 13.989 24.9656 13.989 24.5731V23.9115C13.989 23.519 14.1124 23.4069 14.5161 23.4069H15.1665C15.5702 23.4069 15.6935 23.519 15.6935 23.9115V24.5731C15.6935 24.9656 15.5702 25.089 15.1665 25.089H14.5161Z" fill="black"/>
<path d="M13.989 24.5843C13.989 24.9768 14.1124 25.089 14.5161 25.089H15.1665C15.5702 25.089 15.6935 24.9768 15.6935 24.5843V23.9227C15.6935 23.5302 15.5702 23.4181 15.1665 23.4181H14.5161C14.1124 23.4181 13.989 23.5302 13.989 23.9227V24.5843Z" fill="black"/>
<path d="M17.712 24.5843C17.712 24.9768 17.8466 25.089 18.2391 25.089H18.9007C19.2932 25.089 19.4166 24.9768 19.4166 24.5843V23.9227C19.4166 23.5302 19.2932 23.4181 18.9007 23.4181H18.2391C17.8466 23.4181 17.712 23.5302 17.712 23.9227V24.5843Z" fill="black"/>
<path d="M21.4351 24.5843C21.4351 24.9768 21.5696 25.089 21.9621 25.089H22.6237C23.0162 25.089 23.1508 24.9768 23.1508 24.5843V23.9227C23.1508 23.5302 23.0162 23.4181 22.6237 23.4181H21.9621C21.5696 23.4181 21.4351 23.5302 21.4351 23.9227V24.5843Z" fill="black"/>
<path d="M25.1693 24.5843C25.1693 24.9768 25.2926 25.089 25.6851 25.089H26.3468C26.7392 25.089 26.8738 24.9768 26.8738 24.5843V23.9227C26.8738 23.5302 26.7392 23.4181 26.3468 23.4181H25.6851C25.2926 23.4181 25.1693 23.5302 25.1693 23.9227V24.5843Z" fill="black"/>
<path d="M13.989 28.2513C13.989 28.6438 14.1124 28.7671 14.5161 28.7671H15.1665C15.5702 28.7671 15.6935 28.6438 15.6935 28.2513V27.5897C15.6935 27.1972 15.5702 27.0851 15.1665 27.0851H14.5161C14.1124 27.0851 13.989 27.1972 13.989 27.5897V28.2513Z" fill="black"/>
<path d="M17.712 28.2513C17.712 28.6438 17.8466 28.7671 18.2391 28.7671H18.9007C19.2932 28.7671 19.4166 28.6438 19.4166 28.2513V27.5897C19.4166 27.1972 19.2932 27.0851 18.9007 27.0851H18.2391C17.8466 27.0851 17.712 27.1972 17.712 27.5897V28.2513Z" fill="black"/>
<path d="M21.4351 28.2513C21.4351 28.6438 21.5696 28.7671 21.9621 28.7671H22.6237C23.0162 28.7671 23.1508 28.6438 23.1508 28.2513V27.5897C23.1508 27.1972 23.0162 27.0851 22.6237 27.0851H21.9621C21.5696 27.0851 21.4351 27.1972 21.4351 27.5897V28.2513Z" fill="black"/>
<path d="M16.9658 11.5395C16.3154 11.5395 15.9229 11.1246 15.9229 10.4293V9.25187C15.9229 8.5566 16.3154 8.14169 16.9658 8.14169H17.9975C18.076 6.87452 19.1301 5.84283 20.4309 5.84283C21.7317 5.84283 22.7858 6.87452 22.8643 8.14169H23.896C24.5464 8.14169 24.9389 8.5566 24.9389 9.25187V10.4293C24.9389 11.1246 24.5464 11.5395 23.896 11.5395H16.9658ZM20.4309 9.20701C20.9692 9.20701 21.4065 8.75845 21.4065 8.2314C21.4065 7.68192 20.9692 7.24457 20.4309 7.24457C19.8926 7.24457 19.4553 7.68192 19.4553 8.2314C19.4553 8.75845 19.8926 9.20701 20.4309 9.20701ZM14.4763 33.0142C12.155 33.0142 11 31.8479 11 29.493V12.4927C11 10.1938 12.1102 8.97152 14.353 8.97152H14.6221C14.6109 9.06123 14.6109 9.16216 14.6109 9.25187V10.2611C14.6109 10.4405 14.6221 10.62 14.6557 10.777H14.3866C13.3325 10.777 12.8054 11.461 12.8054 12.5151V29.4706C12.8054 30.592 13.3998 31.2087 14.566 31.2087H26.2958C27.462 31.2087 28.0564 30.592 28.0564 29.4706V12.5151C28.0564 11.461 27.5293 10.777 26.4752 10.777H26.2061C26.2397 10.62 26.2509 10.4405 26.2509 10.2611V9.25187C26.2509 9.16216 26.2509 9.06123 26.2397 8.97152H26.5089C28.7516 8.97152 29.8618 10.1938 29.8618 12.4927V29.493C29.8618 31.8479 28.7068 33.0142 26.3855 33.0142H14.4763Z" fill="black"/>
</svg>
