<svg width="313" height="122" viewBox="0 0 313 122" fill="none" xmlns="http://www.w3.org/2000/svg">
<g clip-path="url(#clip0_1440_102564)">
<path d="M155.49 7.47492C155.866 6.7664 156.881 6.7664 157.257 7.47492L163.867 19.937C164.012 20.2088 164.273 20.3991 164.576 20.453L178.442 22.9166C179.229 23.0565 179.542 24.0183 178.987 24.5946L169.206 34.7585C168.993 34.9796 168.893 35.2861 168.936 35.5901L170.887 49.5833C170.998 50.3768 170.177 50.9717 169.458 50.6198L156.812 44.4358C156.535 44.3003 156.211 44.3002 155.934 44.4357L143.281 50.6199C142.562 50.9717 141.741 50.3764 141.852 49.5828L143.811 35.5903C143.853 35.2863 143.754 34.9795 143.541 34.7583L133.759 24.5946C133.205 24.0183 133.518 23.0565 134.305 22.9166L148.171 20.453C148.474 20.3991 148.735 20.2088 148.879 19.937L155.49 7.47492Z" fill="#ECF1F5"/>
<path d="M69.7225 27.8527C69.749 27.0516 70.6601 26.6058 71.3089 27.0763L82.7131 35.3453C82.9627 35.5264 83.282 35.5821 83.5782 35.4963L97.0975 31.5819C97.8666 31.3592 98.5725 32.0856 98.3278 32.848L94.0124 46.2941C93.9187 46.5861 93.9641 46.905 94.1357 47.1592L102.037 58.862C102.484 59.5252 102.01 60.4195 101.21 60.4215L87.1351 60.4571C86.827 60.4579 86.5364 60.6007 86.3476 60.8442L77.7015 71.9891C77.21 72.6228 76.2099 72.4491 75.9609 71.6868L71.5768 58.2693C71.4813 57.977 71.2566 57.7448 70.9675 57.6399L57.724 52.833C56.9725 52.5602 56.8291 51.5595 57.4738 51.0866L68.8461 42.7456C69.0935 42.5641 69.2439 42.2791 69.2541 41.9724L69.7225 27.8527Z" fill="#ECF1F5"/>
<path d="M1.66412 84.0547C1.33619 83.3244 1.95672 82.524 2.74575 82.6596L16.6204 85.0439C16.9244 85.0962 17.2356 85.0052 17.4635 84.7973L27.8734 75.3055C28.466 74.7652 29.4216 75.1072 29.5368 75.9009L31.5659 89.8828C31.6101 90.187 31.7917 90.4539 32.0584 90.6068L44.2872 97.6144C44.981 98.012 44.9506 99.0227 44.2342 99.3779L31.6077 105.638C31.3326 105.774 31.1354 106.03 31.0729 106.33L28.1993 120.156C28.0362 120.941 27.062 121.224 26.5032 120.649L16.6805 110.544C16.4656 110.323 16.1607 110.214 15.8542 110.247L1.86578 111.785C1.07017 111.872 0.499358 111.036 0.870604 110.327L7.42267 97.8121C7.56492 97.5404 7.57462 97.2185 7.449 96.9387L1.66412 84.0547Z" fill="#ECF1F5"/>
<path d="M243.023 27.8539C242.997 27.0526 242.086 26.6063 241.437 27.0769L230.033 35.3453C229.784 35.5264 229.464 35.5821 229.168 35.4963L215.649 31.5819C214.88 31.3592 214.174 32.0856 214.419 32.848L218.734 46.2941C218.828 46.5861 218.782 46.905 218.611 47.1592L210.71 58.862C210.262 59.5252 210.736 60.4195 211.536 60.4215L225.611 60.4571C225.919 60.4579 226.21 60.6007 226.399 60.8442L235.045 71.9891C235.536 72.6228 236.536 72.4491 236.786 71.6868L241.17 58.2692C241.265 57.9769 241.49 57.7448 241.779 57.6398L255.015 52.8331C255.766 52.5602 255.909 51.5596 255.265 51.0868L243.892 42.7458C243.645 42.5642 243.494 42.279 243.484 41.9721L243.023 27.8539Z" fill="#ECF1F5"/>
<path d="M311.081 84.0547C311.409 83.3244 310.789 82.524 310 82.6596L296.125 85.044C295.821 85.0962 295.51 85.0053 295.282 84.7976L284.865 75.3053C284.272 74.7651 283.316 75.1076 283.201 75.9013L281.18 89.8824C281.135 90.1868 280.954 90.454 280.687 90.6069L268.458 97.6144C267.765 98.012 267.795 99.0227 268.511 99.3779L281.138 105.638C281.413 105.774 281.61 106.03 281.673 106.331L284.539 120.155C284.702 120.941 285.676 121.224 286.235 120.65L296.065 110.544C296.28 110.323 296.585 110.214 296.891 110.247L310.88 111.785C311.675 111.872 312.246 111.036 311.875 110.327L305.323 97.8121C305.181 97.5404 305.171 97.2185 305.297 96.9387L311.081 84.0547Z" fill="#ECF1F5"/>
</g>
<g clip-path="url(#clip1_1440_102564)">
<path d="M155.046 3.565C155.61 2.50222 157.133 2.50222 157.696 3.565L163.195 13.931C163.556 14.6106 164.209 15.0864 164.966 15.221L176.507 17.2715C177.688 17.4813 178.157 18.9241 177.326 19.7885L169.18 28.252C168.648 28.8048 168.4 29.5711 168.506 30.3309L170.13 41.9801C170.296 43.1703 169.065 44.0627 167.986 43.5348L157.469 38.3919C156.777 38.053 155.966 38.053 155.273 38.3916L144.75 43.5349C143.67 44.0627 142.439 43.1697 142.606 41.9794L144.236 30.3317C144.343 29.5716 144.094 28.8046 143.562 28.2516L135.417 19.7885C134.585 18.9241 135.054 17.4813 136.235 17.2715L147.776 15.221C148.534 15.0864 149.187 14.6106 149.547 13.931L155.046 3.565Z" fill="#FFBC3B" stroke="white"/>
<path d="M70.1598 23.9412C70.1996 22.7396 71.5662 22.0708 72.5395 22.7766L82.0239 29.6537C82.6481 30.1063 83.4461 30.2455 84.1867 30.0311L95.4323 26.775C96.5859 26.441 97.6447 27.5306 97.2777 28.6742L93.6847 39.8692C93.4504 40.5993 93.5641 41.3965 93.9932 42.032L100.572 51.7774C101.244 52.7722 100.533 54.1137 99.3331 54.1167L87.6222 54.1463C86.8518 54.1483 86.1254 54.5053 85.6532 55.1139L78.4618 64.3839C77.7244 65.3344 76.2244 65.0738 75.8508 63.9303L72.2034 52.7676C71.9646 52.0367 71.4028 51.4564 70.68 51.1941L59.6548 47.1923C58.5275 46.7831 58.3124 45.282 59.2795 44.5727L68.7499 37.6267C69.3685 37.173 69.7445 36.4604 69.77 35.6937L70.1598 23.9412Z" fill="#FFBC3B" stroke="white"/>
<path d="M2.88949 79.7536C2.3976 78.658 3.32838 77.4575 4.51194 77.6609L16.0539 79.6443C16.814 79.775 17.5918 79.5474 18.1617 79.0278L26.8175 71.1353C27.7064 70.3248 29.1399 70.8378 29.3126 72.0283L31.0012 83.6631C31.1115 84.4236 31.5655 85.0911 32.2323 85.4731L42.4131 91.3072C43.4539 91.9036 43.4083 93.4197 42.3336 93.9525L31.8215 99.1642C31.1336 99.5053 30.6406 100.144 30.4843 100.895L28.0931 112.401C27.8484 113.578 26.3871 114.003 25.5489 113.141L17.3797 104.737C16.8424 104.184 16.0801 103.91 15.3139 103.994L3.67693 105.273C2.48351 105.404 1.6273 104.15 2.18417 103.086L7.64034 92.6648C7.99596 91.9856 8.02023 91.1807 7.70618 90.4812L2.88949 79.7536Z" fill="#FFBC3B" stroke="white"/>
<path d="M240.205 22.7779C241.179 22.072 242.546 22.7413 242.585 23.9433L242.969 35.6928C242.994 36.46 243.37 37.1731 243.989 37.6271L253.459 44.5732C254.426 45.2824 254.211 46.7833 253.084 47.1927L242.066 51.194C241.343 51.4564 240.782 52.0367 240.543 52.7674L236.896 63.9303C236.522 65.0738 235.022 65.3344 234.285 64.3839L227.093 55.1139C226.621 54.5053 225.895 54.1483 225.124 54.1463L213.413 54.1167C212.213 54.1137 211.502 52.7722 212.174 51.7774L218.753 42.032C219.182 41.3965 219.296 40.5993 219.062 39.8692L215.469 28.6742C215.102 27.5306 216.16 26.441 217.314 26.775L228.56 30.0311C229.3 30.2455 230.098 30.1063 230.723 29.6537L240.205 22.7779Z" fill="#FFBC3B" stroke="white"/>
<path d="M308.234 77.6609C309.417 77.4575 310.348 78.658 309.856 79.7536L305.039 90.4812C304.725 91.1807 304.75 91.9856 305.105 92.6648L310.561 103.086C311.118 104.15 310.262 105.404 309.069 105.273L297.431 103.994C296.665 103.91 295.903 104.184 295.366 104.736L287.19 113.141C286.351 114.003 284.89 113.577 284.646 112.4L282.261 100.896C282.105 100.144 281.612 99.5052 280.924 99.1639L270.412 93.9525C269.337 93.4197 269.292 91.9036 270.332 91.3072L280.513 85.4734C281.18 85.0912 281.634 84.4231 281.744 83.6622L283.426 72.029C283.599 70.8384 285.032 70.3247 285.921 71.135L294.584 79.0284C295.154 79.5477 295.932 79.775 296.691 79.6444L308.234 77.6609Z" fill="#FFBC3B" stroke="white"/>
</g>
<defs>
<clipPath id="clip0_1440_102564">
<rect width="312.746" height="116.19" fill="white" transform="translate(0 5.80957)"/>
</clipPath>
<clipPath id="clip1_1440_102564">
<rect width="312.746" height="116.19" fill="white"/>
</clipPath>
</defs>
</svg>
