<svg width="40" height="40" viewBox="0 0 40 40" fill="none" xmlns="http://www.w3.org/2000/svg">
<path d="M20 32C26.5634 32 32 26.575 32 20C32 13.4366 26.5634 8 19.9884 8C13.425 8 8 13.4366 8 20C8 26.575 13.4366 32 20 32ZM13.6922 17.6767C13.0881 17.6767 12.6583 17.2933 12.6583 16.7241C12.6583 16.1433 13.0881 15.7715 13.6922 15.7715H26.3427C26.9351 15.7715 27.3766 16.1433 27.3766 16.7241C27.3766 17.2933 26.9351 17.6767 26.3427 17.6767H13.6922ZM15.365 21.6728C14.7609 21.6728 14.3427 21.2894 14.3427 20.7086C14.3427 20.1394 14.7609 19.7444 15.365 19.7444H24.6699C25.274 19.7444 25.6922 20.1394 25.6922 20.7086C25.6922 21.2894 25.274 21.6728 24.6699 21.6728H15.365ZM17.1075 25.6573C16.5034 25.6573 16.0736 25.274 16.0736 24.7047C16.0736 24.1355 16.5034 23.7522 17.1075 23.7522H22.9274C23.5315 23.7522 23.9613 24.1355 23.9613 24.7047C23.9613 25.274 23.5315 25.6573 22.9274 25.6573H17.1075Z" fill="#9B2789"/>
</svg>
