<svg width="32" height="32" viewBox="0 0 32 32" fill="none" xmlns="http://www.w3.org/2000/svg">
<path d="M6.3252 12.3877H26.4346C26.8857 12.3877 27.251 12.0332 27.251 11.582C27.251 11.1309 26.8857 10.7656 26.4346 10.7656H6.3252C5.87402 10.7656 5.51953 11.1309 5.51953 11.582C5.51953 12.0332 5.87402 12.3877 6.3252 12.3877ZM6.3252 17.0713H26.4346C26.8857 17.0713 27.251 16.7168 27.251 16.2656C27.251 15.8037 26.8857 15.4385 26.4346 15.4385H6.3252C5.87402 15.4385 5.51953 15.8037 5.51953 16.2656C5.51953 16.7168 5.87402 17.0713 6.3252 17.0713ZM6.3252 21.7656H26.4346C26.8857 21.7656 27.251 21.4004 27.251 20.9385C27.251 20.4873 26.8857 20.1328 26.4346 20.1328H6.3252C5.87402 20.1328 5.51953 20.4873 5.51953 20.9385C5.51953 21.4004 5.87402 21.7656 6.3252 21.7656Z" fill="black"/>
</svg>
