<svg width="32" height="32" viewBox="0 0 32 32" fill="none" xmlns="http://www.w3.org/2000/svg">
<path d="M16 32C7.24879 32 0 24.7667 0 16C0 7.24879 7.2333 0 15.9845 0C24.7512 0 32 7.24879 32 16C32 24.7667 24.7512 32 16 32ZM16 28.8558C23.1249 28.8558 28.8558 23.1249 28.8558 16C28.8558 8.87512 23.1094 3.15973 15.9845 3.15973C8.85963 3.15973 3.15973 8.87512 3.15973 16C3.15973 23.1249 8.87512 28.8558 16 28.8558ZM22.908 8.75121C24.8751 10.7183 24.7047 13.15 22.4434 15.4114L19.8103 18.0136C20.0736 17.2391 20.0271 16.2478 19.7638 15.6747L21.2043 14.2498C22.7531 12.7473 22.8925 11.1675 21.6999 9.99032C20.5073 8.81317 18.9429 8.99903 17.4405 10.486L15.3495 12.5924C13.8006 14.1104 13.6147 15.6902 14.7919 16.8829C15.1481 17.2391 15.6902 17.5179 16.3253 17.6263C16.1084 18.153 15.5663 18.757 15.1171 19.0978C14.6834 18.9894 14.0949 18.6176 13.5837 18.091C11.6167 16.1549 11.8025 13.6922 14.0949 11.3998L16.2788 9.24685C18.5402 7.00097 20.9719 6.8151 22.908 8.75121ZM8.51888 23.2023C6.56728 21.2507 6.73766 18.8035 8.98354 16.5576L11.6167 13.94C11.3688 14.7299 11.4153 15.7212 11.6631 16.2943L10.2381 17.7193C8.68925 19.2062 8.54985 20.8015 9.7425 21.9787C10.9351 23.1559 12.484 22.97 14.0019 21.4831L16.0929 19.3766C17.6418 17.8432 17.8277 16.2633 16.6505 15.0707C16.2943 14.7299 15.7367 14.4511 15.1016 14.3427C15.334 13.8161 15.8761 13.212 16.3253 12.8712C16.759 12.9797 17.3475 13.3514 17.8587 13.878C19.8258 15.8141 19.6399 18.2769 17.3475 20.5537L15.1636 22.7222C12.9022 24.9681 10.4705 25.1384 8.51888 23.2023Z" fill="white" fill-opacity="0.65"/>
</svg>
