<svg width="50" height="50" viewBox="0 0 50 50" fill="none" xmlns="http://www.w3.org/2000/svg">
<mask id="path-1-outside-1_4277_226748" maskUnits="userSpaceOnUse" x="24" y="0" width="26" height="39" fill="black">
<rect fill="white" x="24" width="26" height="39"/>
<path d="M45.7846 37C47.891 33.3515 49 29.2129 49 25C49 20.7871 47.891 16.6485 45.7846 13C43.6782 9.35154 40.6485 6.32183 37 4.21539C33.3515 2.10895 29.2129 1 25 1L25 13C27.1064 13 29.1758 13.5545 31 14.6077C32.8242 15.6609 34.3391 17.1758 35.3923 19C36.4455 20.8242 37 22.8936 37 25C37 27.1064 36.4455 29.1758 35.3923 31L45.7846 37Z"/>
</mask>
<path d="M45.7846 37C47.891 33.3515 49 29.2129 49 25C49 20.7871 47.891 16.6485 45.7846 13C43.6782 9.35154 40.6485 6.32183 37 4.21539C33.3515 2.10895 29.2129 1 25 1L25 13C27.1064 13 29.1758 13.5545 31 14.6077C32.8242 15.6609 34.3391 17.1758 35.3923 19C36.4455 20.8242 37 22.8936 37 25C37 27.1064 36.4455 29.1758 35.3923 31L45.7846 37Z" fill="#DCC341"/>
<path d="M45.7846 37C47.891 33.3515 49 29.2129 49 25C49 20.7871 47.891 16.6485 45.7846 13C43.6782 9.35154 40.6485 6.32183 37 4.21539C33.3515 2.10895 29.2129 1 25 1L25 13C27.1064 13 29.1758 13.5545 31 14.6077C32.8242 15.6609 34.3391 17.1758 35.3923 19C36.4455 20.8242 37 22.8936 37 25C37 27.1064 36.4455 29.1758 35.3923 31L45.7846 37Z" stroke="white" stroke-width="2" mask="url(#path-1-outside-1_4277_226748)"/>
<mask id="path-2-outside-2_4277_226748" maskUnits="userSpaceOnUse" x="2" y="29" width="46" height="21" fill="black">
<rect fill="white" x="2" y="29" width="46" height="21"/>
<path d="M4.21539 37C6.32183 40.6485 9.35154 43.6782 13 45.7846C16.6485 47.891 20.7871 49 25 49C29.2129 49 33.3515 47.891 37 45.7846C40.6485 43.6782 43.6782 40.6485 45.7846 37L35.3923 31C34.3391 32.8242 32.8242 34.3391 31 35.3923C29.1758 36.4455 27.1064 37 25 37C22.8936 37 20.8242 36.4455 19 35.3923C17.1758 34.3391 15.6609 32.8242 14.6077 31L4.21539 37Z"/>
</mask>
<path d="M4.21539 37C6.32183 40.6485 9.35154 43.6782 13 45.7846C16.6485 47.891 20.7871 49 25 49C29.2129 49 33.3515 47.891 37 45.7846C40.6485 43.6782 43.6782 40.6485 45.7846 37L35.3923 31C34.3391 32.8242 32.8242 34.3391 31 35.3923C29.1758 36.4455 27.1064 37 25 37C22.8936 37 20.8242 36.4455 19 35.3923C17.1758 34.3391 15.6609 32.8242 14.6077 31L4.21539 37Z" fill="#2FD0E5"/>
<path d="M4.21539 37C6.32183 40.6485 9.35154 43.6782 13 45.7846C16.6485 47.891 20.7871 49 25 49C29.2129 49 33.3515 47.891 37 45.7846C40.6485 43.6782 43.6782 40.6485 45.7846 37L35.3923 31C34.3391 32.8242 32.8242 34.3391 31 35.3923C29.1758 36.4455 27.1064 37 25 37C22.8936 37 20.8242 36.4455 19 35.3923C17.1758 34.3391 15.6609 32.8242 14.6077 31L4.21539 37Z" stroke="white" stroke-width="2" mask="url(#path-2-outside-2_4277_226748)"/>
<mask id="path-3-outside-3_4277_226748" maskUnits="userSpaceOnUse" x="0" y="0" width="26" height="39" fill="black">
<rect fill="white" width="26" height="39"/>
<path d="M25 1C20.7871 1 16.6485 2.10895 13 4.21539C9.35154 6.32183 6.32183 9.35154 4.21539 13C2.10895 16.6485 1 20.7871 1 25C1 29.2129 2.10895 33.3515 4.21539 37L14.6077 31C13.5545 29.1758 13 27.1064 13 25C13 22.8936 13.5545 20.8242 14.6077 19C15.6609 17.1758 17.1758 15.6609 19 14.6077C20.8242 13.5545 22.8936 13 25 13V1Z"/>
</mask>
<path d="M25 1C20.7871 1 16.6485 2.10895 13 4.21539C9.35154 6.32183 6.32183 9.35154 4.21539 13C2.10895 16.6485 1 20.7871 1 25C1 29.2129 2.10895 33.3515 4.21539 37L14.6077 31C13.5545 29.1758 13 27.1064 13 25C13 22.8936 13.5545 20.8242 14.6077 19C15.6609 17.1758 17.1758 15.6609 19 14.6077C20.8242 13.5545 22.8936 13 25 13V1Z" fill="#30C236"/>
<path d="M25 1C20.7871 1 16.6485 2.10895 13 4.21539C9.35154 6.32183 6.32183 9.35154 4.21539 13C2.10895 16.6485 1 20.7871 1 25C1 29.2129 2.10895 33.3515 4.21539 37L14.6077 31C13.5545 29.1758 13 27.1064 13 25C13 22.8936 13.5545 20.8242 14.6077 19C15.6609 17.1758 17.1758 15.6609 19 14.6077C20.8242 13.5545 22.8936 13 25 13V1Z" stroke="white" stroke-width="2" mask="url(#path-3-outside-3_4277_226748)"/>
</svg>
