<svg width="40" height="40" viewBox="0 0 40 40" fill="none" xmlns="http://www.w3.org/2000/svg">
<path d="M11.46 34.3999C10.307 34.3999 9.43327 34.1027 8.83887 33.5083C8.25163 32.9139 7.95801 32.033 7.95801 30.8657V14.6665C7.95801 13.5063 8.25163 12.6291 8.83887 12.0347C9.43327 11.4331 10.307 11.1323 11.46 11.1323H13.5762V9.17725C13.5762 8.00277 13.8698 7.11475 14.457 6.51318C15.0514 5.90446 15.9323 5.6001 17.0996 5.6001H22.5244C23.7777 5.6001 24.7839 5.98324 25.543 6.74951L30.8926 12.2065C31.3079 12.6362 31.6016 13.0981 31.7734 13.5923C31.9525 14.0864 32.042 14.6916 32.042 15.4077V25.4302C32.042 26.6118 31.7448 27.5034 31.1504 28.105C30.556 28.7065 29.6751 29.0073 28.5078 29.0073H26.4131V30.8657C26.4131 32.0259 26.1159 32.9032 25.5215 33.4976C24.9342 34.0991 24.0641 34.3999 22.9111 34.3999H11.46ZM26.4131 21.1655V26.8696H28.4111C29.3994 26.8696 29.8936 26.3827 29.8936 25.4087V15.0747H24.7051C24.0391 15.0747 23.5306 14.9028 23.1797 14.5591C22.8359 14.2082 22.6641 13.6997 22.6641 13.0337V7.74854H17.1963C16.208 7.74854 15.7139 8.23551 15.7139 9.20947V11.1323H16.5947C17.2822 11.1323 17.8337 11.2075 18.249 11.3579C18.6715 11.5011 19.0941 11.784 19.5166 12.2065L25.3389 18.1255C25.7757 18.5695 26.0622 18.9992 26.1982 19.4146C26.3415 19.8299 26.4131 20.4136 26.4131 21.1655ZM24.9736 13.3022H29.5283L24.4473 8.13525V12.7759C24.4473 12.9621 24.4867 13.0981 24.5654 13.1841C24.6514 13.2629 24.7874 13.3022 24.9736 13.3022ZM11.6426 32.2622H22.7285C23.7598 32.2622 24.2754 31.7502 24.2754 30.7261V21.4233H18.5176C16.9779 21.4233 16.208 20.6535 16.208 19.1138V13.27H11.6533C10.6221 13.27 10.1064 13.7821 10.1064 14.8062V30.7261C10.1064 31.2274 10.2354 31.6069 10.4932 31.8647C10.751 32.1297 11.1341 32.2622 11.6426 32.2622ZM18.7217 19.5542H23.9854L18.0879 13.5601V18.9097C18.0879 19.1388 18.138 19.3035 18.2383 19.4038C18.3385 19.5041 18.4997 19.5542 18.7217 19.5542Z" fill="#C64E0A"/>
</svg>
