<svg width="18" height="19" viewBox="0 0 18 19" fill="none" xmlns="http://www.w3.org/2000/svg">
<path d="M0.00878906 9.24414C0.00878906 9.91016 0.556641 10.4473 1.21191 10.4473H7.79688V17.0322C7.79688 17.6875 8.34473 18.2354 9 18.2354C9.65527 18.2354 10.2031 17.6875 10.2031 17.0322V10.4473H16.7881C17.4434 10.4473 17.9912 9.91016 17.9912 9.24414C17.9912 8.58887 17.4434 8.04102 16.7881 8.04102H10.2031V1.45605C10.2031 0.800781 9.65527 0.25293 9 0.25293C8.34473 0.25293 7.79688 0.800781 7.79688 1.45605V8.04102H1.21191C0.556641 8.04102 0.00878906 8.58887 0.00878906 9.24414Z" fill="#1A645A"/>
</svg>
