<svg width="40" height="40" viewBox="0 0 40 40" fill="none" xmlns="http://www.w3.org/2000/svg">
<path d="M11.7891 20.1396V10.7939C11.7891 8.55957 12.9062 7.4209 15.1191 7.4209H20.2217C21.4248 7.4209 22.1016 7.60352 22.918 8.44141L28.8369 14.4678C29.6963 15.3486 29.8574 15.9502 29.8574 17.3359V27.0898C29.8574 29.3242 28.751 30.4521 26.5273 30.4521H18.6533C18.9648 29.9258 19.2012 29.335 19.3408 28.7227H26.4414C27.5586 28.7227 28.1279 28.1318 28.1279 27.0576V17.4111H22.0049C20.6621 17.4111 19.9854 16.7451 19.9854 15.3916V9.15039H15.2051C14.0879 9.15039 13.5186 9.7627 13.5186 10.8262V20.1396C13.207 20.1074 12.9277 20.0859 12.6377 20.0859C12.3584 20.0859 12.0791 20.1074 11.7891 20.1396ZM21.6074 15.1875C21.6074 15.6172 21.7686 15.7891 22.1982 15.7891H27.7949L21.6074 9.4834V15.1875ZM12.1865 32.5791C11.8535 32.5791 11.585 32.3643 11.5205 32.042L11.2734 30.9893C11.1338 30.9463 10.9834 30.8926 10.8115 30.7959L9.86621 31.3545C9.58691 31.5264 9.26465 31.5371 9.01758 31.2793L8.40527 30.6348C8.16895 30.4092 8.14746 30.0869 8.31934 29.7861L8.86719 28.8408C8.80273 28.7012 8.74902 28.5615 8.68457 28.4111L7.62109 28.1641C7.29883 28.0781 7.08398 27.8203 7.08398 27.4873V26.5742C7.08398 26.2627 7.29883 26.0156 7.62109 25.9297L8.67383 25.6719C8.73828 25.5107 8.80273 25.3604 8.85645 25.2314L8.26562 24.2754C8.09375 23.9961 8.1582 23.6631 8.39453 23.4375L9.01758 22.8037C9.26465 22.5566 9.59766 22.5137 9.85547 22.6855L10.7793 23.2764C10.9404 23.1797 11.0908 23.1367 11.2734 23.0723L11.5205 22.0088C11.585 21.6973 11.8535 21.4717 12.1865 21.4717H13.1104C13.4541 21.4717 13.7012 21.6865 13.7871 22.0088L14.0342 23.083C14.1846 23.1367 14.335 23.1797 14.5068 23.2764L15.4521 22.6855C15.7207 22.5029 16.043 22.5566 16.2793 22.8037L16.9346 23.4375C17.1709 23.6523 17.1924 23.9961 17.0205 24.2754L16.4404 25.2314C16.4941 25.3604 16.5693 25.4893 16.6338 25.6719L17.6758 25.9297C17.998 26.0156 18.2236 26.252 18.2236 26.5742V27.4873C18.2236 27.8203 18.0195 28.0781 17.6758 28.1641L16.623 28.4111C16.5693 28.5615 16.5264 28.7012 16.4297 28.8408L16.9775 29.7754C17.1709 30.0869 17.1387 30.3877 16.9131 30.6348L16.2793 31.2793C16.0322 31.5371 15.7207 31.5371 15.4414 31.3545L14.5068 30.7959C14.3564 30.8711 14.1846 30.9463 14.0342 30.9893L13.7871 32.042C13.7012 32.3857 13.4541 32.5791 13.1104 32.5791H12.1865ZM12.6592 28.8193C13.626 28.8193 14.4424 28.0244 14.4424 27.0361C14.4424 26.0586 13.626 25.2207 12.6592 25.2314C11.6494 25.2422 10.8652 26.0586 10.8652 27.0361C10.8652 28.0244 11.6494 28.8193 12.6592 28.8193Z" fill="#007474"/>
</svg>
