<svg width="48" height="48" viewBox="0 0 48 48" fill="none" xmlns="http://www.w3.org/2000/svg">
<circle cx="24" cy="24" r="23.5" fill="#FF5C00" stroke="white"/>
<path d="M18.5684 16.9922C20.4434 16.9922 21.9258 17.5898 23.0156 18.7852C24.1113 19.9805 24.6592 21.6035 24.6592 23.6543C24.6592 25.7109 24.1113 27.3369 23.0156 28.5322C21.9258 29.7275 20.4434 30.3252 18.5684 30.3252C16.6875 30.3252 15.1992 29.7275 14.1035 28.5322C13.0078 27.3369 12.46 25.7109 12.46 23.6543C12.46 21.6035 13.0107 19.9805 14.1123 18.7852C15.2139 17.5898 16.6992 16.9922 18.5684 16.9922ZM21.0293 20.499C20.4199 19.7139 19.5996 19.3213 18.5684 19.3213C17.5371 19.3213 16.7139 19.7139 16.0986 20.499C15.4834 21.2783 15.1758 22.3301 15.1758 23.6543C15.1758 24.9785 15.4805 26.0332 16.0898 26.8184C16.7051 27.6035 17.5312 27.9961 18.5684 27.9961C19.5996 27.9961 20.4199 27.6035 21.0293 26.8184C21.6445 26.0332 21.9521 24.9785 21.9521 23.6543C21.9521 22.3301 21.6445 21.2783 21.0293 20.499ZM30.1084 25.9834H29.6514V30H27.0938V20.3057H29.6514V24.085H30.0732L33 20.3057H35.9092L32.1914 24.7266L36.1025 30H33.0527L30.1084 25.9834Z" fill="white"/>
</svg>
