<svg width="40" height="40" viewBox="0 0 40 40" fill="none" xmlns="http://www.w3.org/2000/svg">
<path d="M19.5 20.4697C16.9004 20.4697 14.8057 18.1924 14.7949 15.3887C14.7949 12.6279 16.9111 10.3936 19.5 10.3936C22.0996 10.3936 24.1943 12.6064 24.1943 15.3672C24.1943 18.1816 22.0889 20.4697 19.5 20.4697ZM19.5 18.6113C21.0039 18.6113 22.25 17.1826 22.25 15.3672C22.25 13.6055 21.0039 12.252 19.5 12.252C17.9961 12.252 16.7393 13.6162 16.75 15.3887C16.75 17.2041 18.0068 18.6113 19.5 18.6113ZM17.0938 30.46C17.2979 29.8369 17.373 29.2676 17.3945 28.6016H26.5469C26.8047 28.6016 26.9014 28.5264 26.9014 28.3223C26.9014 26.6787 24.2373 23.585 19.4893 23.585C18.1357 23.585 16.9434 23.8535 15.9551 24.2832C15.5791 23.7354 15.1172 23.252 14.5908 22.833C15.9658 22.1562 17.6201 21.7266 19.4893 21.7266C25.2578 21.7266 28.9316 25.6797 28.9316 28.623C28.9316 29.8799 28.04 30.46 26.1924 30.46H17.0938ZM10.3477 33.9727C7.31836 33.9727 4.81543 31.4805 4.81543 28.4512C4.81543 25.4219 7.31836 22.9189 10.3477 22.9189C13.377 22.9189 15.8799 25.4219 15.8799 28.4512C15.8799 31.4697 13.3447 33.9727 10.3477 33.9727ZM10.3477 31.9531C10.7881 31.9531 11.0781 31.6631 11.0781 31.2227V29.1816H13.1191C13.5488 29.1816 13.8496 28.8916 13.8496 28.4512C13.8496 28.0107 13.5488 27.7207 13.1191 27.7207H11.0781V25.6797C11.0781 25.25 10.7881 24.9492 10.3477 24.9492C9.90723 24.9492 9.61719 25.25 9.61719 25.6797V27.7207H7.57617C7.13574 27.7207 6.8457 28.0107 6.8457 28.4512C6.8457 28.8916 7.14648 29.1816 7.57617 29.1816H9.61719V31.2227C9.61719 31.6631 9.90723 31.9531 10.3477 31.9531Z" fill="#045C5C"/>
</svg>
