<svg width="214" height="48" viewBox="0 0 214 48" fill="none" xmlns="http://www.w3.org/2000/svg">
<g filter="url(#filter0_d_1928_113657)">
<path d="M8 30.6667C8 24.4669 8 21.367 8.68148 18.8236C10.5308 11.9218 15.9218 6.53083 22.8236 4.68148C25.367 4 28.4669 4 34.6667 4H214V36H13.3333C12.0934 36 11.4734 36 10.9647 35.8637C9.58436 35.4938 8.50617 34.4156 8.1363 33.0353C8 32.5266 8 31.9066 8 30.6667Z" fill="#58B368" shape-rendering="crispEdges"/>
<path d="M43.9834 26H41.2643L36.65 12.7889H39.2593L42.5826 23.2443H42.7383L46.0342 12.7889H48.5519L43.9834 26ZM50.621 26V15.9841H52.8823V26H50.621ZM51.7471 14.3545C51.3381 14.3545 51.0024 14.2385 50.74 14.0066C50.4775 13.7686 50.3463 13.4664 50.3463 13.1002C50.3463 12.734 50.4775 12.4349 50.74 12.203C51.0024 11.965 51.3381 11.8459 51.7471 11.8459C52.1621 11.8459 52.4978 11.965 52.7542 12.203C53.0166 12.4349 53.1478 12.734 53.1478 13.1002C53.1478 13.4664 53.0166 13.7686 52.7542 14.0066C52.4978 14.2385 52.1621 14.3545 51.7471 14.3545ZM59.1262 24.3795C59.8098 24.3795 60.3805 24.1842 60.8383 23.7936C61.296 23.3969 61.5249 22.9086 61.5249 22.3287V21.5322L59.2635 21.6787C58.0184 21.7581 57.3959 22.2097 57.3959 23.0337C57.3959 23.4487 57.5546 23.7783 57.8719 24.0225C58.1954 24.2605 58.6135 24.3795 59.1262 24.3795ZM58.4579 26.1648C57.4813 26.1648 56.6848 25.8901 56.0684 25.3408C55.4519 24.7915 55.1437 24.0652 55.1437 23.1619C55.1437 22.2585 55.4702 21.5505 56.1233 21.0378C56.7825 20.5251 57.7224 20.2322 58.9431 20.1589L61.5249 20.0033V19.161C61.5249 18.6666 61.3632 18.2882 61.0397 18.0258C60.7162 17.7633 60.2493 17.6321 59.6389 17.6321C59.114 17.6321 58.6807 17.7236 58.3389 17.9067C57.9971 18.0837 57.7743 18.3401 57.6705 18.6758H55.5282C55.6198 17.7908 56.047 17.0889 56.8099 16.5701C57.579 16.0452 58.5586 15.7827 59.7488 15.7827C61.0305 15.7827 62.0193 16.0787 62.7151 16.6708C63.417 17.2628 63.7679 18.0929 63.7679 19.161V26H61.5798V24.6267H61.4242C61.1434 25.1089 60.7406 25.4873 60.2157 25.762C59.6969 26.0305 59.111 26.1648 58.4579 26.1648ZM66.5054 26V15.9841H68.6935V17.5863H68.8491C69.0933 17.0126 69.4656 16.5701 69.9661 16.2588C70.4727 15.9414 71.0922 15.7827 71.8246 15.7827C72.9354 15.7827 73.7869 16.1062 74.3789 16.7532C74.9771 17.4001 75.2761 18.3218 75.2761 19.5181V26H73.0056V20.0582C73.0056 18.5262 72.3312 17.7603 70.9823 17.7603C70.3048 17.7603 69.7677 17.9769 69.371 18.4103C68.9742 18.8436 68.7759 19.4296 68.7759 20.1681V26H66.5054ZM81.5933 26.1648C80.3237 26.1648 79.3197 25.7009 78.5812 24.7732C77.8427 23.8394 77.4734 22.5759 77.4734 20.9829C77.4734 19.4021 77.8427 18.1478 78.5812 17.2201C79.3258 16.2863 80.3298 15.8193 81.5933 15.8193C82.2769 15.8193 82.8872 15.975 83.4243 16.2863C83.9614 16.5975 84.3643 17.0278 84.6328 17.5771H84.7885V12.1115H87.059V26H84.8617V24.4161H84.7061C84.4192 24.9655 84.0011 25.3958 83.4518 25.707C82.9086 26.0122 82.2891 26.1648 81.5933 26.1648ZM84.1384 18.6208C83.6868 18.041 83.0734 17.7511 82.2982 17.7511C81.5231 17.7511 80.9127 18.041 80.4672 18.6208C80.0216 19.1946 79.7988 19.985 79.7988 20.9921C79.7988 22.0052 80.0186 22.7987 80.458 23.3724C80.9036 23.9462 81.517 24.233 82.2982 24.233C83.0795 24.233 83.6929 23.9462 84.1384 23.3724C84.5901 22.7926 84.8159 21.9991 84.8159 20.9921C84.8159 19.9911 84.5901 19.2007 84.1384 18.6208ZM94.1268 17.5863C93.4493 17.5863 92.8909 17.8091 92.4514 18.2546C92.012 18.7002 91.7678 19.2892 91.719 20.0216H96.434C96.4095 19.277 96.1898 18.6849 95.7748 18.2455C95.3597 17.806 94.8104 17.5863 94.1268 17.5863ZM96.4523 23.2443H98.6038C98.3901 24.1598 97.8866 24.8831 97.0931 25.4141C96.3058 25.939 95.3262 26.2014 94.1543 26.2014C92.6833 26.2014 91.5267 25.7437 90.6844 24.8281C89.8483 23.9065 89.4302 22.64 89.4302 21.0287C89.4302 19.4174 89.8513 18.1417 90.6936 17.2018C91.5359 16.2557 92.6833 15.7827 94.136 15.7827C95.5642 15.7827 96.6812 16.2313 97.4868 17.1285C98.2986 18.0197 98.7045 19.2556 98.7045 20.8364V21.5688H91.7098V21.6879C91.7404 22.524 91.9784 23.1863 92.424 23.6746C92.8756 24.1567 93.4738 24.3978 94.2184 24.3978C95.3658 24.3978 96.1105 24.0133 96.4523 23.2443ZM109.608 26.1648C108.339 26.1648 107.335 25.7009 106.596 24.7732C105.858 23.8394 105.489 22.5759 105.489 20.9829C105.489 19.4021 105.858 18.1478 106.596 17.2201C107.341 16.2863 108.345 15.8193 109.608 15.8193C110.292 15.8193 110.902 15.975 111.439 16.2863C111.977 16.5975 112.379 17.0278 112.648 17.5771H112.804V12.1115H115.074V26H112.877V24.4161H112.721C112.434 24.9655 112.016 25.3958 111.467 25.707C110.924 26.0122 110.304 26.1648 109.608 26.1648ZM112.154 18.6208C111.702 18.041 111.089 17.7511 110.313 17.7511C109.538 17.7511 108.928 18.041 108.482 18.6208C108.037 19.1946 107.814 19.985 107.814 20.9921C107.814 22.0052 108.034 22.7987 108.473 23.3724C108.919 23.9462 109.532 24.233 110.313 24.233C111.095 24.233 111.708 23.9462 112.154 23.3724C112.605 22.7926 112.831 21.9991 112.831 20.9921C112.831 19.9911 112.605 19.2007 112.154 18.6208ZM122.142 17.5863C121.464 17.5863 120.906 17.8091 120.467 18.2546C120.027 18.7002 119.783 19.2892 119.734 20.0216H124.449C124.425 19.277 124.205 18.6849 123.79 18.2455C123.375 17.806 122.826 17.5863 122.142 17.5863ZM124.467 23.2443H126.619C126.405 24.1598 125.902 24.8831 125.108 25.4141C124.321 25.939 123.341 26.2014 122.169 26.2014C120.698 26.2014 119.542 25.7437 118.7 24.8281C117.863 23.9065 117.445 22.64 117.445 21.0287C117.445 19.4174 117.866 18.1417 118.709 17.2018C119.551 16.2557 120.698 15.7827 122.151 15.7827C123.579 15.7827 124.696 16.2313 125.502 17.1285C126.314 18.0197 126.72 19.2556 126.72 20.8364V21.5688H119.725V21.6879C119.755 22.524 119.994 23.1863 120.439 23.6746C120.891 24.1567 121.489 24.3978 122.234 24.3978C123.381 24.3978 124.126 24.0133 124.467 23.2443ZM142.732 15.9841L139.189 26H136.69L133.128 15.9841H135.564L137.88 23.7295H138.036L140.333 15.9841H142.732ZM148.573 26.2014C147.072 26.2014 145.894 25.7406 145.039 24.819C144.185 23.8912 143.758 22.6156 143.758 20.9921C143.758 19.3807 144.188 18.1112 145.048 17.1835C145.909 16.2496 147.084 15.7827 148.573 15.7827C150.069 15.7827 151.244 16.2466 152.098 17.1743C152.959 18.1021 153.389 19.3746 153.389 20.9921C153.389 22.6156 152.959 23.8912 152.098 24.819C151.244 25.7406 150.069 26.2014 148.573 26.2014ZM146.733 23.4365C147.166 24.0103 147.78 24.2971 148.573 24.2971C149.367 24.2971 149.977 24.0103 150.404 23.4365C150.838 22.8567 151.054 22.0419 151.054 20.9921C151.054 19.9484 150.838 19.1366 150.404 18.5568C149.971 17.9769 149.361 17.687 148.573 17.687C147.78 17.687 147.166 17.9769 146.733 18.5568C146.3 19.1366 146.083 19.9484 146.083 20.9921C146.083 22.0419 146.3 22.8567 146.733 23.4365ZM155.769 26V12.1115H158.04V26H155.769ZM164.339 24.3795C165.022 24.3795 165.593 24.1842 166.051 23.7936C166.508 23.3969 166.737 22.9086 166.737 22.3287V21.5322L164.476 21.6787C163.231 21.7581 162.608 22.2097 162.608 23.0337C162.608 23.4487 162.767 23.7783 163.084 24.0225C163.408 24.2605 163.826 24.3795 164.339 24.3795ZM163.67 26.1648C162.694 26.1648 161.897 25.8901 161.281 25.3408C160.664 24.7915 160.356 24.0652 160.356 23.1619C160.356 22.2585 160.683 21.5505 161.336 21.0378C161.995 20.5251 162.935 20.2322 164.156 20.1589L166.737 20.0033V19.161C166.737 18.6666 166.576 18.2882 166.252 18.0258C165.929 17.7633 165.462 17.6321 164.851 17.6321C164.326 17.6321 163.893 17.7236 163.551 17.9067C163.209 18.0837 162.987 18.3401 162.883 18.6758H160.741C160.832 17.7908 161.259 17.0889 162.022 16.5701C162.791 16.0452 163.771 15.7827 164.961 15.7827C166.243 15.7827 167.232 16.0787 167.927 16.6708C168.629 17.2628 168.98 18.0929 168.98 19.161V26H166.792V24.6267H166.637C166.356 25.1089 165.953 25.4873 165.428 25.762C164.909 26.0305 164.323 26.1648 163.67 26.1648ZM171.745 26V15.9841H174.007V26H171.745ZM172.871 14.3545C172.462 14.3545 172.127 14.2385 171.864 14.0066C171.602 13.7686 171.471 13.4664 171.471 13.1002C171.471 12.734 171.602 12.4349 171.864 12.203C172.127 11.965 172.462 11.8459 172.871 11.8459C173.286 11.8459 173.622 11.965 173.878 12.203C174.141 12.4349 174.272 12.734 174.272 13.1002C174.272 13.4664 174.141 13.7686 173.878 14.0066C173.622 14.2385 173.286 14.3545 172.871 14.3545ZM176.918 26V12.1115H179.188V26H176.918ZM182.155 26V12.1115H184.425V26H182.155ZM191.502 17.5863C190.825 17.5863 190.266 17.8091 189.827 18.2546C189.387 18.7002 189.143 19.2892 189.094 20.0216H193.809C193.785 19.277 193.565 18.6849 193.15 18.2455C192.735 17.806 192.186 17.5863 191.502 17.5863ZM193.828 23.2443H195.979C195.766 24.1598 195.262 24.8831 194.469 25.4141C193.681 25.939 192.702 26.2014 191.53 26.2014C190.059 26.2014 188.902 25.7437 188.06 24.8281C187.224 23.9065 186.806 22.64 186.806 21.0287C186.806 19.4174 187.227 18.1417 188.069 17.2018C188.911 16.2557 190.059 15.7827 191.511 15.7827C192.94 15.7827 194.057 16.2313 194.862 17.1285C195.674 18.0197 196.08 19.2556 196.08 20.8364V21.5688H189.085V21.6879C189.116 22.524 189.354 23.1863 189.799 23.6746C190.251 24.1567 190.849 24.3978 191.594 24.3978C192.741 24.3978 193.486 24.0133 193.828 23.2443Z" fill="white"/>
</g>
<defs>
<filter id="filter0_d_1928_113657" x="0" y="0" width="222" height="48" filterUnits="userSpaceOnUse" color-interpolation-filters="sRGB">
<feFlood flood-opacity="0" result="BackgroundImageFix"/>
<feColorMatrix in="SourceAlpha" type="matrix" values="0 0 0 0 0 0 0 0 0 0 0 0 0 0 0 0 0 0 127 0" result="hardAlpha"/>
<feMorphology radius="6" operator="dilate" in="SourceAlpha" result="effect1_dropShadow_1928_113657"/>
<feOffset dy="4"/>
<feGaussianBlur stdDeviation="1"/>
<feComposite in2="hardAlpha" operator="out"/>
<feColorMatrix type="matrix" values="0 0 0 0 0.376645 0 0 0 0 0.306931 0 0 0 0 0.408333 0 0 0 0.5 0"/>
<feBlend mode="normal" in2="BackgroundImageFix" result="effect1_dropShadow_1928_113657"/>
<feBlend mode="normal" in="SourceGraphic" in2="effect1_dropShadow_1928_113657" result="shape"/>
</filter>
</defs>
</svg>
