<svg width="174" height="48" viewBox="0 0 174 48" fill="none" xmlns="http://www.w3.org/2000/svg">
<g filter="url(#filter0_d_253_36656)">
<path d="M8 30.6667C8 24.4669 8 21.367 8.68148 18.8236C10.5308 11.9218 15.9218 6.53083 22.8236 4.68148C25.367 4 28.4669 4 34.6667 4H195V36H13.3333C12.0934 36 11.4734 36 10.9647 35.8637C9.58436 35.4938 8.50617 34.4156 8.1363 33.0353C8 32.5266 8 31.9066 8 30.6667Z" fill="#58B368" shape-rendering="crispEdges"/>
<path d="M48.2168 25.5H46.459V18.0659H46.3564L43.4341 25.0898H42.0864L39.1641 18.0659H39.0615V25.5H37.3037V14.9312H39.5156L42.6943 22.6289H42.8262L46.0049 14.9312H48.2168V25.5ZM53.9956 18.769C53.4536 18.769 53.0068 18.9473 52.6553 19.3037C52.3037 19.6602 52.1084 20.1313 52.0693 20.7173H55.8413C55.8218 20.1216 55.646 19.6479 55.314 19.2964C54.9819 18.9448 54.5425 18.769 53.9956 18.769ZM55.856 23.2954H57.5771C57.4062 24.0278 57.0034 24.6064 56.3687 25.0312C55.7388 25.4512 54.9551 25.6611 54.0176 25.6611C52.8408 25.6611 51.9155 25.2949 51.2417 24.5625C50.5728 23.8252 50.2383 22.812 50.2383 21.5229C50.2383 20.2339 50.5752 19.2134 51.249 18.4614C51.9229 17.7046 52.8408 17.3262 54.0029 17.3262C55.1455 17.3262 56.0391 17.6851 56.6836 18.4028C57.333 19.1157 57.6577 20.1045 57.6577 21.3691V21.9551H52.062V22.0503C52.0864 22.7192 52.2769 23.249 52.6333 23.6396C52.9946 24.0254 53.4731 24.2183 54.0688 24.2183C54.9868 24.2183 55.5825 23.9106 55.856 23.2954ZM62.2207 24.2036C62.7676 24.2036 63.2241 24.0474 63.5903 23.7349C63.9565 23.4175 64.1396 23.0269 64.1396 22.563V21.9258L62.3306 22.043C61.3345 22.1064 60.8364 22.4678 60.8364 23.127C60.8364 23.459 60.9634 23.7227 61.2173 23.918C61.4761 24.1084 61.8105 24.2036 62.2207 24.2036ZM61.686 25.6318C60.9048 25.6318 60.2676 25.4121 59.7744 24.9727C59.2812 24.5332 59.0347 23.9521 59.0347 23.2295C59.0347 22.5068 59.2959 21.9404 59.8184 21.5303C60.3457 21.1201 61.0977 20.8857 62.0742 20.8271L64.1396 20.7026V20.0288C64.1396 19.6333 64.0103 19.3306 63.7515 19.1206C63.4927 18.9106 63.1191 18.8057 62.6309 18.8057C62.2109 18.8057 61.8643 18.8789 61.5908 19.0254C61.3174 19.167 61.1392 19.3721 61.0562 19.6406H59.3423C59.4155 18.9326 59.7573 18.3711 60.3677 17.9561C60.9829 17.5361 61.7666 17.3262 62.7188 17.3262C63.7441 17.3262 64.5352 17.563 65.0918 18.0366C65.6533 18.5103 65.9341 19.1743 65.9341 20.0288V25.5H64.1836V24.4014H64.0591C63.8345 24.7871 63.5122 25.0898 63.0923 25.3096C62.6772 25.5244 62.2085 25.6318 61.686 25.6318ZM68.7026 15.5244H70.5117V17.5386H72.2256V18.9888H70.5117V22.9219C70.5117 23.3174 70.5996 23.6079 70.7754 23.7935C70.9512 23.9741 71.2295 24.0645 71.6104 24.0645C71.7764 24.0645 71.9814 24.0522 72.2256 24.0278V25.4487C71.9229 25.5073 71.6055 25.5366 71.2734 25.5366C70.3555 25.5366 69.6963 25.3682 69.2959 25.0312C68.9004 24.6943 68.7026 24.1377 68.7026 23.3613V18.9888H67.4355V17.5386H68.7026V15.5244ZM85.5923 25.5L84.7207 24.5698C84.3057 24.9263 83.8076 25.2046 83.2266 25.4048C82.6455 25.6001 82.0327 25.6978 81.3882 25.6978C80.2896 25.6978 79.4058 25.4268 78.7368 24.8848C78.0679 24.3379 77.7334 23.6152 77.7334 22.7168C77.7334 22.1064 77.897 21.5693 78.2241 21.1055C78.5513 20.6416 79.0591 20.2241 79.7476 19.853C79.7671 19.8433 79.8379 19.8042 79.96 19.7358C80.0869 19.6675 80.165 19.626 80.1943 19.6113C79.7158 19.1133 79.3765 18.6787 79.1763 18.3076C78.9761 17.9365 78.876 17.5581 78.876 17.1724C78.876 16.4692 79.1494 15.8882 79.6963 15.4292C80.248 14.9653 80.939 14.7334 81.769 14.7334C82.604 14.7334 83.29 14.9604 83.8271 15.4146C84.3643 15.8638 84.6328 16.4424 84.6328 17.1504C84.6328 17.6924 84.457 18.1855 84.1055 18.6299C83.7539 19.0693 83.1973 19.4917 82.4355 19.897L84.6841 22.2773C84.9624 21.7598 85.1016 21.0054 85.1016 20.0142V19.6187H86.6909V20.1021C86.6909 21.4985 86.3955 22.6216 85.8047 23.4712L87.7163 25.5H85.5923ZM80.7656 20.8052C79.9111 21.2593 79.4839 21.8477 79.4839 22.5703C79.4839 23.0781 79.6743 23.4907 80.0552 23.8081C80.4409 24.1206 80.9463 24.2769 81.5713 24.2769C81.9912 24.2769 82.394 24.2036 82.7798 24.0571C83.1704 23.9106 83.4854 23.7129 83.7246 23.4639L81.0952 20.644C81.0024 20.6782 80.8926 20.7319 80.7656 20.8052ZM81.542 18.9741C82.084 18.7007 82.4697 18.4321 82.6992 18.1685C82.9336 17.9048 83.0508 17.6045 83.0508 17.2676C83.0508 16.9062 82.9312 16.6133 82.6919 16.3887C82.4575 16.1641 82.1523 16.0518 81.7764 16.0518C81.4053 16.0518 81.1001 16.1665 80.8608 16.396C80.6265 16.6206 80.5093 16.9111 80.5093 17.2676C80.5093 17.5264 80.585 17.7827 80.7363 18.0366C80.8926 18.2905 81.1611 18.603 81.542 18.9741ZM93.2168 14.9312H97.4795C98.5342 14.9312 99.3887 15.2607 100.043 15.9199C100.702 16.5791 101.032 17.4409 101.032 18.5054C101.032 19.5503 100.692 20.3999 100.014 21.0542C99.3398 21.7085 98.4683 22.0356 97.3989 22.0356H95.1064V25.5H93.2168V14.9312ZM95.1064 16.5132V20.4683H96.9741C97.6528 20.4683 98.1777 20.2974 98.5488 19.9556C98.9248 19.6138 99.1128 19.1304 99.1128 18.5054C99.1128 17.8608 98.9272 17.3677 98.5562 17.0259C98.1899 16.6841 97.665 16.5132 96.9814 16.5132H95.1064ZM106.166 25.6611C104.965 25.6611 104.022 25.2925 103.339 24.5552C102.655 23.813 102.313 22.7925 102.313 21.4937C102.313 20.2046 102.658 19.189 103.346 18.4468C104.035 17.6997 104.975 17.3262 106.166 17.3262C107.362 17.3262 108.302 17.6973 108.986 18.4395C109.674 19.1816 110.019 20.1997 110.019 21.4937C110.019 22.7925 109.674 23.813 108.986 24.5552C108.302 25.2925 107.362 25.6611 106.166 25.6611ZM104.694 23.4492C105.041 23.9082 105.531 24.1377 106.166 24.1377C106.801 24.1377 107.289 23.9082 107.631 23.4492C107.978 22.9854 108.151 22.3335 108.151 21.4937C108.151 20.6587 107.978 20.0093 107.631 19.5454C107.284 19.0815 106.796 18.8496 106.166 18.8496C105.531 18.8496 105.041 19.0815 104.694 19.5454C104.347 20.0093 104.174 20.6587 104.174 21.4937C104.174 22.3335 104.347 22.9854 104.694 23.4492ZM118.822 17.4873V25.5H117.072V24.2256H116.947C116.542 25.1826 115.744 25.6611 114.552 25.6611C113.678 25.6611 112.997 25.4023 112.509 24.8848C112.021 24.3623 111.776 23.6323 111.776 22.6948V17.4873H113.593V22.2407C113.593 22.856 113.722 23.3149 113.981 23.6177C114.24 23.9155 114.64 24.0645 115.182 24.0645C115.768 24.0645 116.217 23.896 116.53 23.5591C116.847 23.2222 117.006 22.7534 117.006 22.1528V17.4873H118.822ZM121.122 25.5V14.3892H122.938V25.5H121.122ZM125.817 15.5244H127.626V17.5386H129.34V18.9888H127.626V22.9219C127.626 23.3174 127.714 23.6079 127.89 23.7935C128.065 23.9741 128.344 24.0645 128.725 24.0645C128.891 24.0645 129.096 24.0522 129.34 24.0278V25.4487C129.037 25.5073 128.72 25.5366 128.388 25.5366C127.47 25.5366 126.811 25.3682 126.41 25.0312C126.015 24.6943 125.817 24.1377 125.817 23.3613V18.9888H124.55V17.5386H125.817V15.5244ZM131.156 25.5V17.4873H132.907V18.7324H133.031C133.144 18.332 133.395 18.0024 133.786 17.7437C134.181 17.4849 134.635 17.3555 135.148 17.3555C135.475 17.3555 135.727 17.3823 135.902 17.436V19.1206C135.717 19.0522 135.407 19.0181 134.972 19.0181C134.381 19.0181 133.9 19.189 133.529 19.5308C133.158 19.8677 132.973 20.3145 132.973 20.8711V25.5H131.156ZM138.349 28.4077C137.973 28.4077 137.733 28.3979 137.631 28.3784V26.8916C137.724 26.9111 137.89 26.9209 138.129 26.9209C138.515 26.9209 138.82 26.8403 139.044 26.6792C139.274 26.5181 139.447 26.2544 139.564 25.8882L139.66 25.5366L136.796 17.4873H138.788L140.663 23.7422H140.788L142.655 17.4873H144.574L141.681 25.7563C141.344 26.7476 140.929 27.436 140.436 27.8218C139.948 28.2124 139.252 28.4077 138.349 28.4077Z" fill="white"/>
</g>
<defs>
<filter id="filter0_d_253_36656" x="0" y="0" width="203" height="48" filterUnits="userSpaceOnUse" color-interpolation-filters="sRGB">
<feFlood flood-opacity="0" result="BackgroundImageFix"/>
<feColorMatrix in="SourceAlpha" type="matrix" values="0 0 0 0 0 0 0 0 0 0 0 0 0 0 0 0 0 0 127 0" result="hardAlpha"/>
<feMorphology radius="6" operator="dilate" in="SourceAlpha" result="effect1_dropShadow_253_36656"/>
<feOffset dy="4"/>
<feGaussianBlur stdDeviation="1"/>
<feComposite in2="hardAlpha" operator="out"/>
<feColorMatrix type="matrix" values="0 0 0 0 0.376645 0 0 0 0 0.306931 0 0 0 0 0.408333 0 0 0 0.5 0"/>
<feBlend mode="normal" in2="BackgroundImageFix" result="effect1_dropShadow_253_36656"/>
<feBlend mode="normal" in="SourceGraphic" in2="effect1_dropShadow_253_36656" result="shape"/>
</filter>
</defs>
</svg>
