<svg width="174" height="48" viewBox="0 0 174 48" fill="none" xmlns="http://www.w3.org/2000/svg">
<g filter="url(#filter0_d_386_38813)">
<path d="M8 30.6667C8 24.4669 8 21.367 8.68148 18.8236C10.5308 11.9218 15.9218 6.53083 22.8236 4.68148C25.367 4 28.4669 4 34.6667 4H195V36H13.3333C12.0934 36 11.4734 36 10.9647 35.8637C9.58436 35.4938 8.50617 34.4156 8.1363 33.0353C8 32.5266 8 31.9066 8 30.6667Z" fill="#58B368" shape-rendering="crispEdges"/>
<path d="M51.3625 26V12.7889H48.5977L44.6243 22.4752H44.4595L40.4861 12.7889H37.7212V26H39.9185V16.7074H40.0466L43.6996 25.5422H45.3842L49.0371 16.7074H49.1653V26H51.3625ZM58.3206 20.928C57.2311 20.928 56.517 20.2963 56.517 19.4082C56.517 18.4103 57.2219 17.7877 58.3206 17.7877H60.0417V20.928H58.3206ZM60.0417 26H62.2756V15.9841H58.1466C55.812 15.9841 54.2739 17.2933 54.2739 19.399C54.2739 20.7815 55.1071 21.8618 56.4712 22.2555L53.7887 26H56.3888L58.7325 22.6492H60.0417V26ZM73.8937 19.3533C73.6556 17.2476 72.0992 15.7827 69.5266 15.7827C66.5145 15.7827 64.7476 17.7145 64.7476 20.9646C64.7476 24.2605 66.5237 26.2014 69.5358 26.2014C72.0718 26.2014 73.6465 24.7915 73.8937 22.6949H71.733C71.495 23.7386 70.7076 24.2971 69.5266 24.2971C67.9794 24.2971 67.0455 23.0703 67.0455 20.9646C67.0455 18.8864 67.9702 17.687 69.5266 17.687C70.7717 17.687 71.5225 18.3828 71.733 19.3533H73.8937ZM80.5312 26.2014C83.525 26.2014 85.3469 24.2422 85.3469 20.9921C85.3469 17.7511 83.5159 15.7827 80.5312 15.7827C77.5558 15.7827 75.7156 17.7603 75.7156 20.9921C75.7156 24.2422 77.5283 26.2014 80.5312 26.2014ZM80.5312 24.2971C78.9474 24.2971 78.041 23.0886 78.041 20.9921C78.041 18.9047 78.9474 17.687 80.5312 17.687C82.106 17.687 83.0123 18.9047 83.0123 20.9921C83.0123 23.0886 82.1151 24.2971 80.5312 24.2971ZM95.0515 26L99.3179 19.3258H99.4735V26H101.717V15.9841H99.4735L95.2072 22.6125H95.0515V15.9841H92.8085V26H95.0515ZM116.09 26H118.361V15.9841H109.672V26H111.943V17.7969H116.09V26ZM128.963 15.9841H120.521V17.7969H123.607V26H125.877V17.7969H128.963V15.9841ZM133.357 26L137.624 19.3258H137.779V26H140.022V15.9841H137.779L133.513 22.6125H133.357V15.9841H131.114V26H133.357ZM153.142 28.6093V24.1873H151.604V15.9841H149.342V24.1873H145.25V15.9841H142.979V26H151.054V28.6093H153.142ZM158.516 24.3795C157.509 24.3795 156.786 23.876 156.786 23.0337C156.786 22.2189 157.381 21.7611 158.653 21.6787L160.915 21.5322V22.3287C160.915 23.4915 159.889 24.3795 158.516 24.3795ZM157.848 26.1648C159.157 26.1648 160.255 25.5972 160.814 24.6267H160.969V26H163.158V19.161C163.158 17.037 161.711 15.7827 159.138 15.7827C156.758 15.7827 155.101 16.9088 154.918 18.6758H157.06C157.271 17.9983 157.985 17.6321 159.029 17.6321C160.255 17.6321 160.915 18.1814 160.915 19.161V20.0033L158.333 20.1589C155.897 20.3054 154.533 21.3491 154.533 23.1619C154.533 24.9929 155.916 26.1648 157.848 26.1648Z" fill="white"/>
</g>
<defs>
<filter id="filter0_d_386_38813" x="0" y="0" width="203" height="48" filterUnits="userSpaceOnUse" color-interpolation-filters="sRGB">
<feFlood flood-opacity="0" result="BackgroundImageFix"/>
<feColorMatrix in="SourceAlpha" type="matrix" values="0 0 0 0 0 0 0 0 0 0 0 0 0 0 0 0 0 0 127 0" result="hardAlpha"/>
<feMorphology radius="6" operator="dilate" in="SourceAlpha" result="effect1_dropShadow_386_38813"/>
<feOffset dy="4"/>
<feGaussianBlur stdDeviation="1"/>
<feComposite in2="hardAlpha" operator="out"/>
<feColorMatrix type="matrix" values="0 0 0 0 0.376645 0 0 0 0 0.306931 0 0 0 0 0.408333 0 0 0 0.5 0"/>
<feBlend mode="normal" in2="BackgroundImageFix" result="effect1_dropShadow_386_38813"/>
<feBlend mode="normal" in="SourceGraphic" in2="effect1_dropShadow_386_38813" result="shape"/>
</filter>
</defs>
</svg>
