<svg width="190" height="48" viewBox="0 0 190 48" fill="none" xmlns="http://www.w3.org/2000/svg">
<g filter="url(#filter0_d_1928_114421)">
<path d="M8 30.6667C8 24.4669 8 21.367 8.68148 18.8236C10.5308 11.9218 15.9218 6.53083 22.8236 4.68148C25.367 4 28.4669 4 34.6667 4H195V36H13.3333C12.0934 36 11.4734 36 10.9647 35.8637C9.58436 35.4938 8.50617 34.4156 8.1363 33.0353C8 32.5266 8 31.9066 8 30.6667Z" fill="#58B368" shape-rendering="crispEdges"/>
<path d="M49.0554 20.7083C49.0554 22.4233 48.5336 23.7905 47.4899 24.8098C46.4462 25.823 45.0424 26.3296 43.2784 26.3296C41.3619 26.3296 39.8483 25.7101 38.7374 24.4711C37.6266 23.226 37.0712 21.5322 37.0712 19.3899C37.0712 17.2781 37.6296 15.5966 38.7466 14.3453C39.8635 13.088 41.3619 12.4594 43.2418 12.4594C44.7677 12.4594 46.0464 12.8622 47.0779 13.6678C48.1094 14.4735 48.7319 15.5508 48.9456 16.8997H46.5927C46.3546 16.1489 45.9457 15.5721 45.3658 15.1693C44.7921 14.7665 44.0841 14.5651 43.2418 14.5651C42.0883 14.5651 41.1727 14.9954 40.4952 15.856C39.8239 16.7166 39.4882 17.8884 39.4882 19.3716C39.4882 20.873 39.83 22.0571 40.5135 22.9238C41.2032 23.7905 42.1371 24.2239 43.3151 24.2239C44.3221 24.2239 45.14 23.9431 45.7687 23.3816C46.3973 22.8201 46.7208 22.0846 46.7391 21.1752L46.7483 20.9005H43.5714V19.0511H49.0554V20.7083ZM55.7662 17.5863C55.0887 17.5863 54.5303 17.8091 54.0908 18.2546C53.6514 18.7002 53.4072 19.2892 53.3584 20.0216H58.0734C58.049 19.277 57.8292 18.6849 57.4142 18.2455C56.9991 17.806 56.4498 17.5863 55.7662 17.5863ZM58.0917 23.2443H60.2432C60.0295 24.1598 59.526 24.8831 58.7325 25.4141C57.9452 25.939 56.9656 26.2014 55.7937 26.2014C54.3228 26.2014 53.1661 25.7437 52.3239 24.8281C51.4877 23.9065 51.0696 22.64 51.0696 21.0287C51.0696 19.4174 51.4907 18.1417 52.333 17.2018C53.1753 16.2557 54.3228 15.7827 55.7754 15.7827C57.2036 15.7827 58.3206 16.2313 59.1262 17.1285C59.938 18.0197 60.3439 19.2556 60.3439 20.8364V21.5688H53.3492V21.6879C53.3798 22.524 53.6178 23.1863 54.0634 23.6746C54.515 24.1567 55.1132 24.3978 55.8578 24.3978C57.0052 24.3978 57.7499 24.0133 58.0917 23.2443ZM63.356 26V17.861H61.7172V16.0482H63.356V14.9954C63.356 13.9944 63.6184 13.2467 64.1433 12.7523C64.6743 12.2579 65.4922 12.0107 66.5969 12.0107C67.0547 12.0107 67.4758 12.0443 67.8604 12.1115V13.7777C67.6589 13.7472 67.3995 13.7319 67.0822 13.7319C66.5573 13.7319 66.1758 13.8479 65.9377 14.0798C65.7058 14.3057 65.5898 14.6597 65.5898 15.1418V16.0482H67.7688V17.861H65.6173V26H63.356ZM70.0576 26V12.1115H72.3281V26H70.0576ZM83.9187 15.9841V26H81.7306V24.407H81.575C81.0684 25.6033 80.0704 26.2014 78.5812 26.2014C77.4886 26.2014 76.6372 25.8779 76.0269 25.231C75.4165 24.5779 75.1113 23.6654 75.1113 22.4935V15.9841H77.3818V21.9259C77.3818 22.6949 77.5436 23.2687 77.8671 23.6471C78.1906 24.0194 78.691 24.2056 79.3685 24.2056C80.101 24.2056 80.6625 23.995 81.0531 23.5739C81.4498 23.1527 81.6482 22.5668 81.6482 21.816V15.9841H83.9187ZM78.4072 14.2629C78.157 14.5071 77.8457 14.6292 77.4734 14.6292C77.1011 14.6292 76.7898 14.5071 76.5396 14.2629C76.2893 14.0127 76.1642 13.7045 76.1642 13.3383C76.1642 12.972 76.2893 12.6669 76.5396 12.4227C76.7898 12.1725 77.1011 12.0474 77.4734 12.0474C77.8457 12.0474 78.157 12.1725 78.4072 12.4227C78.6575 12.6669 78.7826 12.972 78.7826 13.3383C78.7826 13.7045 78.6575 14.0127 78.4072 14.2629ZM82.4813 14.2629C82.2311 14.5071 81.9198 14.6292 81.5475 14.6292C81.1752 14.6292 80.8639 14.5071 80.6136 14.2629C80.3634 14.0127 80.2383 13.7045 80.2383 13.3383C80.2383 12.972 80.3634 12.6669 80.6136 12.4227C80.8639 12.1725 81.1752 12.0474 81.5475 12.0474C81.9198 12.0474 82.2311 12.1725 82.4813 12.4227C82.7316 12.6669 82.8567 12.972 82.8567 13.3383C82.8567 13.7045 82.7316 14.0127 82.4813 14.2629ZM89.1738 23.171C89.6072 23.7264 90.2175 24.0042 91.0049 24.0042C91.7922 24.0042 92.4117 23.7234 92.8634 23.1619C93.3151 22.6003 93.5409 21.8405 93.5409 20.8822C93.5409 19.924 93.3151 19.1641 92.8634 18.6025C92.4117 18.0349 91.7922 17.7511 91.0049 17.7511C90.2236 17.7511 89.6133 18.0319 89.1738 18.5934C88.7405 19.1549 88.5238 19.9178 88.5238 20.8822C88.5238 21.8466 88.7405 22.6095 89.1738 23.171ZM91.0049 29.8086C89.7292 29.8086 88.6917 29.5492 87.8921 29.0304C87.0986 28.5116 86.6561 27.8188 86.5646 26.9521H88.8442C88.9175 27.3 89.1464 27.5747 89.5309 27.7761C89.9215 27.9775 90.425 28.0782 91.0415 28.0782C91.8167 28.0782 92.4209 27.9043 92.8542 27.5564C93.2876 27.2085 93.5043 26.7202 93.5043 26.0916V24.1964H93.3486C93.0618 24.7335 92.6528 25.1455 92.1218 25.4324C91.5969 25.7131 90.9866 25.8535 90.2908 25.8535C89.0334 25.8535 88.0355 25.4049 87.297 24.5077C86.5585 23.6044 86.1892 22.3959 86.1892 20.8822C86.1892 19.3441 86.5615 18.1173 87.3062 17.2018C88.0508 16.2802 89.0579 15.8193 90.3274 15.8193C91.011 15.8193 91.6305 15.978 92.1859 16.2954C92.7413 16.6128 93.1564 17.0431 93.431 17.5863H93.5867V15.9841H95.7748V26.0366C95.7748 27.1963 95.3445 28.1149 94.4839 28.7924C93.6233 29.4698 92.4636 29.8086 91.0049 29.8086ZM102.769 17.5863C102.092 17.5863 101.533 17.8091 101.094 18.2546C100.655 18.7002 100.41 19.2892 100.362 20.0216H105.077C105.052 19.277 104.832 18.6849 104.417 18.2455C104.002 17.806 103.453 17.5863 102.769 17.5863ZM105.095 23.2443H107.246C107.033 24.1598 106.529 24.8831 105.736 25.4141C104.948 25.939 103.969 26.2014 102.797 26.2014C101.326 26.2014 100.169 25.7437 99.327 24.8281C98.4908 23.9065 98.0728 22.64 98.0728 21.0287C98.0728 19.4174 98.4939 18.1417 99.3362 17.2018C100.178 16.2557 101.326 15.7827 102.779 15.7827C104.207 15.7827 105.324 16.2313 106.129 17.1285C106.941 18.0197 107.347 19.2556 107.347 20.8364V21.5688H100.352V21.6879C100.383 22.524 100.621 23.1863 101.067 23.6746C101.518 24.1567 102.116 24.3978 102.861 24.3978C104.008 24.3978 104.753 24.0133 105.095 23.2443ZM109.718 26V12.1115H111.989V26H109.718ZM115.596 26V17.861H113.957V16.0482H115.596V14.9954C115.596 13.9944 115.858 13.2467 116.383 12.7523C116.914 12.2579 117.732 12.0107 118.837 12.0107C119.295 12.0107 119.716 12.0443 120.1 12.1115V13.7777C119.899 13.7472 119.64 13.7319 119.322 13.7319C118.797 13.7319 118.416 13.8479 118.178 14.0798C117.946 14.3057 117.83 14.6597 117.83 15.1418V16.0482H120.009V17.861H117.857V26H115.596ZM122.298 26V12.1115H124.568V26H122.298ZM131.645 17.5863C130.968 17.5863 130.409 17.8091 129.97 18.2546C129.53 18.7002 129.286 19.2892 129.237 20.0216H133.952C133.928 19.277 133.708 18.6849 133.293 18.2455C132.878 17.806 132.329 17.5863 131.645 17.5863ZM133.971 23.2443H136.122C135.908 24.1598 135.405 24.8831 134.611 25.4141C133.824 25.939 132.844 26.2014 131.673 26.2014C130.202 26.2014 129.045 25.7437 128.203 24.8281C127.367 23.9065 126.948 22.64 126.948 21.0287C126.948 19.4174 127.37 18.1417 128.212 17.2018C129.054 16.2557 130.202 15.7827 131.654 15.7827C133.083 15.7827 134.199 16.2313 135.005 17.1285C135.817 18.0197 136.223 19.2556 136.223 20.8364V21.5688H129.228V21.6879C129.259 22.524 129.497 23.1863 129.942 23.6746C130.394 24.1567 130.992 24.3978 131.737 24.3978C132.884 24.3978 133.629 24.0133 133.971 23.2443ZM138.53 26V15.9841H140.791V26H138.53ZM139.656 14.3545C139.247 14.3545 138.911 14.2385 138.649 14.0066C138.386 13.7686 138.255 13.4664 138.255 13.1002C138.255 12.734 138.386 12.4349 138.649 12.203C138.911 11.965 139.247 11.8459 139.656 11.8459C140.071 11.8459 140.407 11.965 140.663 12.203C140.926 12.4349 141.057 12.734 141.057 13.1002C141.057 13.4664 140.926 13.7686 140.663 14.0066C140.407 14.2385 140.071 14.3545 139.656 14.3545ZM143.382 18.8497C143.382 17.9464 143.755 17.2109 144.499 16.6433C145.244 16.0696 146.208 15.7827 147.392 15.7827C148.582 15.7827 149.531 16.036 150.24 16.5426C150.954 17.0431 151.35 17.748 151.43 18.6575H149.297C149.211 18.2974 149.004 18.0166 148.674 17.8152C148.35 17.6077 147.926 17.5039 147.401 17.5039C146.876 17.5039 146.443 17.6168 146.101 17.8427C145.76 18.0685 145.589 18.3615 145.589 18.7216C145.589 19.0023 145.708 19.2343 145.946 19.4174C146.19 19.6005 146.565 19.75 147.072 19.866L148.839 20.2688C149.803 20.4885 150.511 20.8151 150.963 21.2484C151.414 21.6818 151.64 22.2646 151.64 22.9971C151.64 23.9553 151.244 24.7305 150.45 25.3225C149.657 25.9084 148.631 26.2014 147.374 26.2014C146.123 26.2014 145.122 25.9451 144.371 25.4324C143.626 24.9197 143.211 24.2086 143.126 23.2992H145.369C145.479 23.6776 145.708 23.9706 146.056 24.1781C146.41 24.3795 146.867 24.4802 147.429 24.4802C148.003 24.4802 148.469 24.3673 148.83 24.1415C149.19 23.9095 149.37 23.6074 149.37 23.2351C149.37 22.6797 148.909 22.3013 147.987 22.0999L146.211 21.6879C145.247 21.4681 144.533 21.1294 144.069 20.6716C143.611 20.2078 143.382 19.6005 143.382 18.8497ZM162.59 19.3533H160.429C160.319 18.8467 160.075 18.4438 159.697 18.1448C159.318 17.8396 158.827 17.687 158.223 17.687C157.442 17.687 156.831 17.9739 156.392 18.5476C155.958 19.1213 155.742 19.927 155.742 20.9646C155.742 22.0144 155.962 22.8323 156.401 23.4182C156.84 24.0042 157.448 24.2971 158.223 24.2971C158.815 24.2971 159.3 24.1598 159.679 23.8851C160.063 23.6105 160.313 23.2137 160.429 22.6949H162.59C162.462 23.7631 162.013 24.6145 161.244 25.2493C160.481 25.884 159.477 26.2014 158.232 26.2014C156.724 26.2014 155.55 25.7406 154.707 24.819C153.865 23.8973 153.444 22.6125 153.444 20.9646C153.444 19.335 153.865 18.0654 154.707 17.156C155.55 16.2405 156.721 15.7827 158.223 15.7827C159.48 15.7827 160.49 16.1093 161.253 16.7623C162.022 17.4093 162.468 18.2729 162.59 19.3533ZM164.851 26V12.1115H167.085V17.6046H167.25C167.488 17.037 167.87 16.5945 168.394 16.2771C168.919 15.9597 169.551 15.801 170.29 15.801C171.37 15.801 172.212 16.1276 172.816 16.7806C173.427 17.4337 173.732 18.3523 173.732 19.5364V26H171.461V20.0765C171.461 19.3197 171.291 18.749 170.949 18.3645C170.607 17.9739 170.106 17.7786 169.447 17.7786C168.715 17.7786 168.144 17.9983 167.735 18.4377C167.326 18.8711 167.122 19.454 167.122 20.1864V26H164.851Z" fill="white"/>
</g>
<defs>
<filter id="filter0_d_1928_114421" x="0" y="0" width="203" height="48" filterUnits="userSpaceOnUse" color-interpolation-filters="sRGB">
<feFlood flood-opacity="0" result="BackgroundImageFix"/>
<feColorMatrix in="SourceAlpha" type="matrix" values="0 0 0 0 0 0 0 0 0 0 0 0 0 0 0 0 0 0 127 0" result="hardAlpha"/>
<feMorphology radius="6" operator="dilate" in="SourceAlpha" result="effect1_dropShadow_1928_114421"/>
<feOffset dy="4"/>
<feGaussianBlur stdDeviation="1"/>
<feComposite in2="hardAlpha" operator="out"/>
<feColorMatrix type="matrix" values="0 0 0 0 0.376645 0 0 0 0 0.306931 0 0 0 0 0.408333 0 0 0 0.5 0"/>
<feBlend mode="normal" in2="BackgroundImageFix" result="effect1_dropShadow_1928_114421"/>
<feBlend mode="normal" in="SourceGraphic" in2="effect1_dropShadow_1928_114421" result="shape"/>
</filter>
</defs>
</svg>
