<svg width="24" height="24" viewBox="0 0 24 24" fill="none" xmlns="http://www.w3.org/2000/svg">
<path d="M10.884 24H13.116C14.0331 24 14.7514 23.4359 14.9613 22.5622L15.4144 20.6046L15.7017 20.494L17.4033 21.5447C18.1768 22.0313 19.0829 21.9097 19.7238 21.2571L21.2707 19.7088C21.9337 19.0562 22.0442 18.1493 21.558 17.3862L20.5083 15.694L20.6077 15.4175L22.5635 14.9641C23.4254 14.7429 24 14.024 24 13.1171V10.9382C24 10.0313 23.4365 9.31244 22.5635 9.09124L20.6298 8.62673L20.5193 8.33917L21.5691 6.647C22.0552 5.88387 21.9337 4.98802 21.2818 4.31336L19.7348 2.76498C19.0939 2.1235 18.1878 2.00184 17.4254 2.47742L15.7238 3.51705L15.4144 3.39539L14.9613 1.43779C14.7514 0.564055 14.0331 0 13.116 0H10.884C9.9558 0 9.24862 0.564055 9.03867 1.43779L8.58564 3.39539L8.27624 3.51705L6.57459 2.47742C5.80111 2.00184 4.89503 2.1235 4.25414 2.76498L2.70718 4.31336C2.05525 4.98802 1.9337 5.88387 2.41989 6.647L3.48066 8.33917L3.35912 8.62673L1.43646 9.09124C0.552486 9.31244 0 10.0313 0 10.9382V13.1171C0 14.024 0.563536 14.7429 1.43646 14.9641L3.38122 15.4175L3.49171 15.694L2.43094 17.3862C1.94475 18.1493 2.0663 19.0562 2.71823 19.7088L4.26519 21.2571C4.91713 21.9097 5.8232 22.0313 6.58564 21.5447L8.28729 20.494L8.58564 20.6046L9.03867 22.5622C9.24862 23.4359 9.9558 24 10.884 24ZM11.1492 21.9982C10.9613 21.9982 10.8729 21.9097 10.8398 21.7438L10.1878 19.023C9.48066 18.8571 8.81768 18.5806 8.27624 18.2378L5.8895 19.7088C5.75691 19.7972 5.62431 19.7862 5.48066 19.6535L4.30939 18.4811C4.18785 18.3594 4.1768 18.2267 4.27624 18.083L5.74586 15.694C5.43646 15.1742 5.13812 14.5106 4.97238 13.8138L2.24309 13.1613C2.07735 13.1281 2 13.0396 2 12.8516V11.1926C2 10.9935 2.07735 10.9161 2.24309 10.8719L4.97238 10.2304C5.13812 9.4894 5.45856 8.80369 5.72376 8.32811L4.26519 5.95023C4.16575 5.79539 4.16575 5.66267 4.29834 5.52995L5.46961 4.36866C5.61326 4.247 5.72376 4.22488 5.8895 4.31336L8.26519 5.76221C8.76243 5.46359 9.49171 5.15392 10.1878 4.97696L10.8398 2.25622C10.8729 2.09032 10.9613 2.00184 11.1492 2.00184H12.8508C13.0387 2.00184 13.1271 2.07926 13.1492 2.25622L13.8122 4.99908C14.5304 5.16498 15.1823 5.46359 15.7238 5.77327L18.0994 4.32442C18.2652 4.23594 18.3757 4.247 18.5083 4.37972L19.6906 5.54101C19.8232 5.66267 19.8232 5.79539 19.7238 5.95023L18.2652 8.32811C18.5304 8.80369 18.8619 9.4894 19.0276 10.2304L21.7459 10.8719C21.9227 10.9161 22 10.9935 22 11.1926V12.8516C22 13.0396 21.9116 13.1281 21.7459 13.1613L19.0166 13.8138C18.8508 14.5106 18.5525 15.1742 18.2541 15.694L19.7127 18.083C19.8011 18.2267 19.8011 18.3594 19.6796 18.47L18.5083 19.6535C18.3646 19.7862 18.232 19.7972 18.0994 19.7088L15.7127 18.2378C15.1713 18.5806 14.5414 18.8571 13.8122 19.023L13.1492 21.7438C13.1271 21.9207 13.0387 21.9982 12.8508 21.9982H11.1492ZM12 16.2028C14.2983 16.2028 16.1878 14.3115 16.1878 12C16.1878 9.7106 14.2983 7.81936 12 7.81936C9.70166 7.81936 7.80111 9.7106 7.80111 12C7.80111 14.3115 9.69061 16.2028 12 16.2028ZM12 14.3115C10.7403 14.3115 9.70166 13.2719 9.70166 12C9.70166 10.7502 10.7403 9.72166 12 9.72166C13.2376 9.72166 14.2652 10.7502 14.2652 12C14.2652 13.2608 13.2376 14.3115 12 14.3115Z" fill="#1A645A"/>
</svg>
