<svg width="236" height="88" viewBox="0 0 236 88" fill="none" xmlns="http://www.w3.org/2000/svg">
<path d="M0.871948 83.2823C-5.31475e-07 81.571 -7.27321e-07 79.3308 -1.11901e-06 74.8504L-5.00058e-06 30.4504C-5.39227e-06 25.97 -5.58812e-06 23.7298 0.871942 22.0185C1.63893 20.5132 2.86277 19.2893 4.36807 18.5223C6.07936 17.6504 8.31957 17.6504 12.8 17.6504L14.8932 17.6504C15.0035 17.6504 15.0974 17.5745 15.1444 17.4747L23.0951 0.573873C23.4554 -0.191881 24.5446 -0.191881 24.9049 0.573873L32.8556 17.4747C32.9025 17.5745 32.9965 17.6504 33.1068 17.6504L223.2 17.6504C227.68 17.6504 229.921 17.6504 231.632 18.5223C233.137 19.2893 234.361 20.5131 235.128 22.0184C236 23.7297 236 25.97 236 30.4504L236 74.8504C236 79.3308 236 81.571 235.128 83.2823C234.361 84.7876 233.137 86.0114 231.632 86.7784C229.921 87.6504 227.68 87.6504 223.2 87.6504L12.8 87.6504C8.31958 87.6504 6.07937 87.6504 4.36808 86.7784C2.86278 86.0115 1.63893 84.7876 0.871948 83.2823Z" fill="#78F6E6"/>
</svg>
