<svg width="24" height="24" viewBox="0 0 24 24" fill="none" xmlns="http://www.w3.org/2000/svg">
<path d="M15.1743 12.6795H8.83365C8.38074 12.6795 8.05724 12.4368 8.05724 12.0081C8.05724 11.5713 8.36457 11.3205 8.83365 11.3205H15.1743C15.6515 11.3205 15.9426 11.5713 15.9426 12.0081C15.9426 12.4368 15.6272 12.6795 15.1743 12.6795Z" fill="white"/>
<path fill-rule="evenodd" clip-rule="evenodd" d="M14.4545 20H9.54536C8.51823 20 8.02489 19.6684 7.4992 19.094L4.36121 15.632C3.82743 15.0495 3.68994 14.6532 3.68994 13.8524V10.1557C3.68994 9.34682 3.82743 8.95854 4.36121 8.37614L7.4992 4.91405C8.02489 4.33974 8.51823 4 9.54536 4H14.4545C15.4816 4 15.9669 4.33974 16.5007 4.91405L19.6387 8.37614C20.1644 8.95854 20.3099 9.34682 20.3099 10.1557V13.8524C20.3099 14.6532 20.1644 15.0495 19.6387 15.632L16.5007 19.094C15.9669 19.6684 15.4816 20 14.4545 20ZM8.49397 18.0425C8.93879 18.5278 9.17333 18.7058 9.98209 18.7058H14.0178C14.8266 18.7058 15.053 18.5278 15.5059 18.0425L18.4174 14.8473C18.7409 14.4914 18.8137 14.2892 18.8137 13.6987V10.3094C18.8137 9.71891 18.7409 9.51668 18.4174 9.16077L15.5059 5.96562C15.053 5.47219 14.8266 5.30233 14.0178 5.30233H9.98209C9.17333 5.30233 8.93879 5.47219 8.49397 5.96562L5.57435 9.16077C5.25893 9.51668 5.18615 9.71891 5.18615 10.3094V13.6987C5.18615 14.2892 5.25893 14.4914 5.57435 14.8473L8.49397 18.0425Z" fill="white"/>
</svg>
