<svg width="375" height="32" viewBox="0 0 375 32" fill="none" xmlns="http://www.w3.org/2000/svg">
<path d="M20.9181 27.2202C19.0597 25.351 19.0382 22.8374 20.8966 21.0005C22.3468 19.561 23.9259 19.1635 26.6652 17.3374L20.3703 11.0532C18.8664 9.54929 18.8664 7.93796 20.338 6.46628L21.7668 5.03757C23.2384 3.56589 24.8498 3.56589 26.3644 5.0698L32.799 11.5473C31.9718 9.34519 32.4123 6.82078 34.131 5.10203C36.0646 3.15769 39.1046 2.83542 41.5539 4.26413L40.5011 5.31687L38.6212 7.17527C38.3312 7.46531 38.3634 7.84128 38.675 8.16355L39.9855 9.48484C40.297 9.79636 40.6623 9.77488 40.9523 9.48484L42.8322 7.6157L43.8742 6.56296C45.3136 9.03367 44.9806 12.0844 43.047 14.018C41.1994 15.855 38.4171 16.2202 36.1183 15.1352C35.506 15.7475 34.9582 16.3276 34.464 16.8755L39.4484 21.8598L40.5871 21.9135C40.9416 21.9243 41.3068 22.1606 41.5002 22.5151L43.4445 26.0923C43.6271 26.436 43.6701 26.6938 43.466 26.8979L42.2091 28.1548C41.9943 28.3696 41.7365 28.3159 41.4142 28.1548L37.8156 26.1889C37.4503 26.0063 37.2248 25.6303 37.214 25.2973L37.1603 24.1587L32.3478 19.3462C29.1037 23.4604 28.9103 25.437 27.1271 27.2417C25.2902 29.0893 22.7873 29.0678 20.9181 27.2202ZM37.5363 9.02292C36.7091 8.21726 36.6877 7.20749 37.4826 6.42331L39.0509 4.84421C37.633 4.62937 36.172 5.0698 35.13 6.10105C33.3039 7.90574 33.3791 10.935 35.2912 12.8471C37.214 14.7485 40.2218 14.8344 42.0373 13.019C43.0793 11.9663 43.5089 10.5053 43.2834 9.05515L41.6935 10.6557C40.9416 11.4184 39.9211 11.3969 39.1261 10.602L37.5363 9.02292ZM28.2013 12.1167C28.3625 12.2885 28.6632 12.2671 28.8029 12.1167C28.9748 11.9233 28.9748 11.6548 28.8136 11.4936L24.549 7.23972C24.3771 7.06785 24.0978 7.07859 23.9474 7.23972C23.7755 7.4116 23.7863 7.66941 23.9474 7.83054L28.2013 12.1167ZM26.7941 13.5024C26.966 13.6743 27.2453 13.6743 27.4064 13.5024C27.5675 13.3413 27.5783 13.0835 27.4064 12.9116L23.131 8.6362C22.9806 8.49656 22.7013 8.47507 22.5295 8.6362C22.3683 8.81882 22.3576 9.08738 22.5295 9.25925L26.7941 13.5024ZM34.2814 13.8462C34.0773 13.6313 33.8839 13.4165 33.7121 13.1909C26.0851 20.6245 24.549 19.518 21.9494 22.1069C20.7677 23.2993 20.7462 24.8999 21.9816 26.1567C23.2277 27.3813 24.839 27.3706 26.0314 26.1675C28.6203 23.5893 27.5138 22.0532 34.9474 14.4262C34.7111 14.2544 34.4962 14.0503 34.2814 13.8462ZM23.9796 25.5122C23.2492 25.5122 22.6584 24.9106 22.6584 24.1802C22.6584 23.4497 23.2492 22.8589 23.9796 22.8589C24.7101 22.8589 25.3117 23.4497 25.3117 24.1802C25.3117 24.9106 24.7101 25.5122 23.9796 25.5122Z" fill="#46A5C4"/>
<path d="M80.1356 16.1396C82.0155 16.9883 82.8104 19.2334 81.951 21.0918C81.5106 22.0156 80.7479 22.6816 79.824 22.9932C79.2547 20.9199 77.6864 19.4482 75.785 19.4482C73.3787 19.4482 71.4989 21.8115 71.4989 24.7656C71.4989 26.0762 71.8748 27.2686 72.4871 28.2031C71.4666 28.332 70.2742 28.3428 69.2645 28.2031C69.8768 27.2686 70.2528 26.0762 70.2528 24.7656C70.2528 21.8115 68.3729 19.4482 65.9666 19.4482C64.0653 19.4482 62.4969 20.9199 61.9276 22.9932C61.0037 22.6816 60.241 22.0156 59.8006 21.0918C58.9412 19.2334 59.7362 16.9883 61.616 16.1396L64.9676 14.625C64.1082 13.4326 63.6033 11.9717 63.6033 10.3926C63.6033 10.2422 63.6033 10.1025 63.6141 9.95215C61.8201 9.76953 60.4237 8.25488 60.4237 6.40723C60.4237 4.45215 62.0135 2.8623 63.9793 2.8623C65.161 2.8623 66.2137 3.44238 66.8582 4.34473C68.0076 3.57129 69.3826 3.13086 70.8651 3.13086C72.3475 3.13086 73.7225 3.57129 74.8719 4.34473C75.5164 3.44238 76.5692 2.8623 77.7508 2.8623C79.7166 2.8623 81.3065 4.45215 81.3065 6.40723C81.3065 8.25488 79.91 9.76953 78.116 9.95215C78.1268 10.1025 78.1268 10.2422 78.1268 10.3926C78.1268 11.9717 77.6219 13.4219 76.7733 14.6143L80.1356 16.1396ZM63.9793 4.39844C62.8729 4.39844 61.9705 5.30078 61.9705 6.40723C61.9705 7.41699 62.7117 8.24414 63.6893 8.38379C63.743 8.39453 63.8074 8.40527 63.8826 8.40527C64.2049 7.23438 64.8387 6.1709 65.6658 5.33301C65.3114 4.76367 64.6883 4.39844 63.9793 4.39844ZM77.7508 4.39844C77.0418 4.39844 76.4188 4.76367 76.0643 5.33301C76.8914 6.1709 77.5252 7.23438 77.8475 8.40527C77.8905 8.40527 77.9764 8.39453 78.0408 8.38379C79.0184 8.25488 79.7596 7.40625 79.7596 6.40723C79.7596 5.30078 78.8573 4.39844 77.7508 4.39844ZM68.0614 9.90918C68.577 9.90918 68.9959 9.49023 68.9959 8.97461C68.9959 8.45898 68.577 8.04004 68.0614 8.04004C67.5672 8.04004 67.1375 8.45898 67.1375 8.97461C67.1375 9.49023 67.5672 9.90918 68.0614 9.90918ZM73.6795 9.90918C74.1737 9.90918 74.6033 9.49023 74.6033 8.97461C74.6033 8.45898 74.1737 8.04004 73.6795 8.04004C73.1639 8.04004 72.7449 8.45898 72.7449 8.97461C72.7449 9.49023 73.1639 9.90918 73.6795 9.90918ZM70.8865 16.752C72.702 16.752 74.2059 15.2588 74.2059 13.4326C74.2059 11.5957 72.7127 10.1133 70.8865 10.1133C69.0496 10.1133 67.5672 11.6064 67.5672 13.4326C67.5672 15.2695 69.0389 16.752 70.8865 16.752ZM70.8651 13.8516C70.2313 13.8516 69.1571 12.8848 69.1571 12.6162C69.1571 12.1758 69.8983 11.5635 70.8651 11.5635C71.8319 11.5635 72.5408 12.1758 72.5408 12.6162C72.5408 12.8848 71.5096 13.8516 70.8651 13.8516ZM65.9666 29.1377C64.1082 29.1377 62.658 27.1826 62.658 24.7656C62.658 22.3809 64.1082 20.4258 65.9666 20.4258C67.825 20.4258 69.2752 22.3809 69.2752 24.7656C69.2752 27.1826 67.825 29.1377 65.9666 29.1377ZM75.785 29.1377C73.9266 29.1377 72.4764 27.1826 72.4764 24.7656C72.4764 22.3809 73.9266 20.4258 75.785 20.4258C77.6434 20.4258 79.0936 22.3809 79.0936 24.7656C79.0936 27.1826 77.6434 29.1377 75.785 29.1377Z" fill="#EF7463"/>
<path d="M98.4717 25.9629H99.7285C100.534 25.9629 101.157 25.3398 101.157 24.5449V22.751C103.542 22.9014 106.99 23.0088 109.751 23.0088C112.512 23.0088 115.971 22.9014 118.355 22.751V24.5449C118.355 25.3398 118.968 25.9629 119.773 25.9629H121.041C121.847 25.9629 122.459 25.3398 122.459 24.5449V18.3574C122.459 16.542 122.094 15.5322 121.105 14.2432L120.192 13.0723C119.806 11.1387 119.086 9.1084 118.721 8.31348C118.141 7.09961 117.034 6.37988 115.605 6.18652C114.886 6.08984 112.533 6.03613 109.751 6.03613C106.979 6.03613 104.627 6.10059 103.907 6.18652C102.479 6.3584 101.361 7.09961 100.792 8.31348C100.416 9.1084 99.707 11.1387 99.3096 13.0723L98.4072 14.2432C97.4082 15.5322 97.043 16.542 97.043 18.3574V24.5449C97.043 25.3398 97.666 25.9629 98.4717 25.9629ZM101.479 12.1699C101.727 10.999 102.253 9.46289 102.607 8.83984C102.897 8.33496 103.209 8.10938 103.789 8.03418C104.605 7.92676 106.432 7.85156 109.751 7.85156C113.081 7.85156 114.907 7.90527 115.713 8.03418C116.293 8.12012 116.594 8.33496 116.895 8.83984C117.26 9.45215 117.754 10.999 118.033 12.1699C118.13 12.5674 117.958 12.7178 117.55 12.6963C115.767 12.5781 113.64 12.4707 109.751 12.4707C105.873 12.4707 103.746 12.5781 101.963 12.6963C101.544 12.7178 101.383 12.5674 101.479 12.1699ZM102.006 20.1084C101.028 20.1084 100.276 19.3564 100.276 18.3789C100.276 17.3906 101.028 16.6494 102.006 16.6494C102.983 16.6494 103.735 17.3906 103.735 18.3789C103.735 19.3564 102.983 20.1084 102.006 20.1084ZM117.496 20.1084C116.519 20.1084 115.777 19.3564 115.777 18.3789C115.777 17.3906 116.519 16.6494 117.496 16.6494C118.484 16.6494 119.226 17.3906 119.226 18.3789C119.226 19.3564 118.484 20.1084 117.496 20.1084ZM106.915 19.6787C106.174 19.6787 105.669 19.1738 105.669 18.4326C105.669 17.7021 106.174 17.1973 106.915 17.1973H112.598C113.328 17.1973 113.833 17.7021 113.833 18.4326C113.833 19.1738 113.328 19.6787 112.598 19.6787H106.915Z" fill="#6597A0"/>
<path d="M138.305 14.8613V12.251C138.305 11.1016 139.003 10.6504 140.109 10.6504H142.602C141.968 10.0596 141.592 9.25391 141.592 8.30859C141.592 6.22461 143.246 4.74219 145.319 4.74219C146.834 4.74219 148.069 5.56934 148.617 7.00879C149.165 5.56934 150.411 4.74219 151.915 4.74219C153.999 4.74219 155.643 6.22461 155.643 8.30859C155.643 9.25391 155.267 10.0596 154.644 10.6504H157.136C158.296 10.6504 158.94 11.1016 158.94 12.251V14.8613C158.94 16.0107 158.296 16.4619 157.136 16.4619H149.498V10.6504H147.736V9.09277C147.736 7.50293 146.705 6.53613 145.427 6.53613C144.245 6.53613 143.386 7.22363 143.386 8.40527C143.386 9.58691 144.374 10.6504 146.061 10.6504H147.736V16.4619H140.109C138.949 16.4619 138.305 16.0107 138.305 14.8613ZM151.808 6.53613C150.529 6.53613 149.498 7.50293 149.498 9.09277V10.6504H151.174C152.871 10.6504 153.849 9.58691 153.849 8.40527C153.849 7.22363 152.989 6.53613 151.808 6.53613ZM139.841 24.5293V17.6113H147.736V27.2578H142.688C140.894 27.2578 139.841 26.3232 139.841 24.5293ZM149.498 27.2578V17.6113H157.404V24.5293C157.404 26.3232 156.341 27.2578 154.558 27.2578H149.498Z" fill="#EE982F"/>
<path d="M177.74 26.5488C175.624 26.5488 174.539 25.4639 174.539 23.3799V8.62012C174.539 6.53613 175.624 5.45117 177.74 5.45117H197.259C199.386 5.45117 200.46 6.53613 200.46 8.62012V23.3799C200.46 25.4639 199.386 26.5488 197.259 26.5488H177.74ZM181.146 15.1621C182.982 15.1621 184.476 13.6582 184.476 11.832C184.476 10.0059 182.982 8.50195 181.146 8.50195C179.319 8.50195 177.826 10.0059 177.826 11.832C177.826 13.6582 179.319 15.1621 181.146 15.1621ZM189.739 15.1621C191.576 15.1621 193.059 13.6582 193.059 11.832C193.059 10.0059 191.576 8.50195 189.739 8.50195C187.902 8.50195 186.409 10.0059 186.409 11.832C186.409 13.6582 187.902 15.1621 189.739 15.1621ZM181.146 14.0986C179.899 14.0986 178.89 13.0889 178.89 11.832C178.89 10.5752 179.899 9.56543 181.146 9.56543C182.402 9.56543 183.423 10.5752 183.423 11.832C183.423 13.0889 182.402 14.0986 181.146 14.0986ZM189.739 14.0986C188.493 14.0986 187.473 13.0889 187.473 11.832C187.473 10.5752 188.493 9.56543 189.739 9.56543C190.996 9.56543 192.006 10.5752 192.006 11.832C192.006 13.0889 190.996 14.0986 189.739 14.0986ZM181.146 13.583C182.134 13.583 182.886 12.8203 182.886 11.832C182.886 10.8438 182.134 10.0918 181.146 10.0918C180.179 10.0918 179.416 10.8438 179.416 11.832C179.416 12.8203 180.179 13.583 181.146 13.583ZM189.739 13.583C190.717 13.583 191.479 12.8203 191.479 11.832C191.479 10.8438 190.717 10.0918 189.739 10.0918C188.751 10.0918 187.988 10.8438 187.988 11.832C187.988 12.8203 188.751 13.583 189.739 13.583ZM196.571 12.1865C197.108 12.1865 197.538 11.7568 197.538 11.209C197.538 10.6826 197.108 10.2422 196.571 10.2422C196.023 10.2422 195.594 10.6826 195.594 11.209C195.594 11.7568 196.023 12.1865 196.571 12.1865ZM196.571 15.3662C197.108 15.3662 197.538 14.9473 197.538 14.3887C197.538 13.8623 197.108 13.4219 196.571 13.4219C196.023 13.4219 195.594 13.8623 195.594 14.3887C195.594 14.9473 196.023 15.3662 196.571 15.3662ZM196.571 18.5674C197.108 18.5674 197.538 18.127 197.538 17.5898C197.538 17.042 197.108 16.623 196.571 16.623C196.023 16.623 195.594 17.042 195.594 17.5898C195.594 18.127 196.023 18.5674 196.571 18.5674ZM181.146 23.4658C182.982 23.4658 184.476 21.9727 184.476 20.1357C184.476 18.3096 182.982 16.8164 181.146 16.8164C179.319 16.8164 177.826 18.3096 177.826 20.1357C177.826 21.9727 179.319 23.4658 181.146 23.4658ZM189.739 23.4658C191.576 23.4658 193.059 21.9727 193.059 20.1357C193.059 18.3096 191.576 16.8164 189.739 16.8164C187.902 16.8164 186.409 18.3096 186.409 20.1357C186.409 21.9727 187.902 23.4658 189.739 23.4658ZM181.146 22.4023C179.899 22.4023 178.89 21.4033 178.89 20.1357C178.89 18.8789 179.899 17.8799 181.146 17.8799C182.402 17.8799 183.423 18.8789 183.423 20.1357C183.423 21.4033 182.402 22.4023 181.146 22.4023ZM189.739 22.4023C188.493 22.4023 187.473 21.4033 187.473 20.1357C187.473 18.8789 188.493 17.8799 189.739 17.8799C190.996 17.8799 192.006 18.8789 192.006 20.1357C192.006 21.4033 190.996 22.4023 189.739 22.4023ZM181.146 21.8867C182.134 21.8867 182.886 21.124 182.886 20.1357C182.886 19.1582 182.134 18.3955 181.146 18.3955C180.179 18.3955 179.416 19.1582 179.416 20.1357C179.416 21.124 180.179 21.8867 181.146 21.8867ZM189.739 21.8867C190.717 21.8867 191.479 21.124 191.479 20.1357C191.479 19.1582 190.717 18.3955 189.739 18.3955C188.751 18.3955 187.988 19.1582 187.988 20.1357C187.988 21.124 188.751 21.8867 189.739 21.8867ZM196.571 21.7471C197.108 21.7471 197.538 21.3066 197.538 20.7695C197.538 20.2324 197.108 19.8027 196.571 19.8027C196.023 19.8027 195.594 20.2324 195.594 20.7695C195.594 21.3066 196.023 21.7471 196.571 21.7471Z" fill="#6C7AC8"/>
<path d="M218.006 27.5156C218.844 27.0537 219.112 26.4092 219.112 25.2598V7.81445C219.112 5.60156 220.24 4.48438 222.485 4.48438H235C237.256 4.48438 238.373 5.60156 238.373 7.81445V24.1963C238.373 26.4092 237.256 27.5156 235 27.5156H218.006ZM223.42 10.8867H234.087C234.463 10.8867 234.753 10.5859 234.753 10.21C234.753 9.84473 234.463 9.56543 234.087 9.56543H223.42C223.033 9.56543 222.743 9.84473 222.743 10.21C222.743 10.5859 223.033 10.8867 223.42 10.8867ZM214.375 14.958C214.375 13.6797 215.181 12.9385 216.491 12.9385H217.018V24.5508C217.018 25.335 216.448 25.8291 215.696 25.8398C214.944 25.8398 214.375 25.335 214.375 24.5508V14.958ZM223.42 14.668H234.087C234.463 14.668 234.753 14.3779 234.753 14.0127C234.753 13.6367 234.463 13.3467 234.087 13.3467H223.42C223.033 13.3467 222.743 13.6367 222.743 14.0127C222.743 14.3779 223.033 14.668 223.42 14.668ZM230.08 18.46H234.087C234.463 18.46 234.742 18.1807 234.742 17.8154C234.742 17.4287 234.463 17.1387 234.087 17.1387H230.08C229.693 17.1387 229.414 17.4287 229.414 17.8154C229.414 18.1807 229.693 18.46 230.08 18.46ZM224 22.3809H226.686C227.47 22.3809 227.942 21.9082 227.942 21.124V18.4062C227.942 17.6113 227.47 17.1387 226.686 17.1387H224C223.205 17.1387 222.732 17.6113 222.732 18.4062V21.124C222.732 21.9082 223.205 22.3809 224 22.3809ZM230.08 22.3271H234.087C234.463 22.3271 234.742 22.0479 234.742 21.6826C234.742 21.3066 234.463 21.0059 234.087 21.0059H230.08C229.693 21.0059 229.414 21.3066 229.414 21.6826C229.414 22.0479 229.693 22.3271 230.08 22.3271Z" fill="#CA5DB8"/>
<path d="M256.136 26.4102H274.365C276.589 26.4102 277.685 25.3359 277.685 23.1338V12.6816C277.685 10.4795 276.589 9.40527 274.365 9.40527H270.691V8.55664C270.691 6.53711 269.628 5.5918 267.684 5.5918H262.807C260.97 5.5918 259.799 6.53711 259.799 8.55664V9.40527H256.136C253.923 9.40527 252.816 10.4795 252.816 12.6816V23.1338C252.816 25.3359 253.923 26.4102 256.136 26.4102ZM261.464 8.43848C261.464 7.62207 261.947 7.16016 262.785 7.16016H267.716C268.554 7.16016 269.026 7.62207 269.026 8.43848V9.40527H261.464V8.43848ZM260.196 18.8691V16.9248C260.196 16.3662 260.572 15.9795 261.142 15.9795H263.344V13.7988C263.344 13.2188 263.72 12.8428 264.289 12.8428H266.223C266.781 12.8428 267.168 13.2188 267.168 13.7988V15.9795H269.359C269.929 15.9795 270.315 16.3662 270.315 16.9248V18.8691C270.315 19.4277 269.929 19.8145 269.359 19.8145H267.168V22.0059C267.168 22.5752 266.781 22.9512 266.223 22.9512H264.289C263.72 22.9512 263.344 22.5752 263.344 22.0059V19.8145H261.142C260.583 19.8145 260.196 19.4277 260.196 18.8691Z" fill="#E45366"/>
<path d="M297.167 23.9492C295.749 23.9492 294.75 22.9932 294.75 21.6396V10.3711C294.75 9.00684 295.749 8.05078 297.167 8.05078C298.596 8.05078 299.595 9.00684 299.595 10.3711V21.6396C299.595 22.9932 298.596 23.9492 297.167 23.9492ZM311.186 23.9492C309.768 23.9492 308.769 22.9932 308.769 21.6396V10.3711C308.769 9.00684 309.768 8.05078 311.186 8.05078C312.614 8.05078 313.613 9.00684 313.613 10.3711V21.6396C313.613 22.9932 312.614 23.9492 311.186 23.9492ZM292.064 21.5752C291.205 21.5752 290.539 20.9092 290.539 20.0605V11.9395C290.539 11.0801 291.205 10.4033 292.064 10.4033C292.935 10.4033 293.601 11.0801 293.601 11.9395V20.0605C293.601 20.9092 292.935 21.5752 292.064 21.5752ZM316.181 21.5752C315.321 21.5752 314.655 20.9092 314.655 20.0605V11.9395C314.655 11.0801 315.321 10.4033 316.181 10.4033C317.04 10.4033 317.717 11.0801 317.717 11.9395V20.0605C317.717 20.9092 317.04 21.5752 316.181 21.5752ZM300.841 18.0732V13.9268H307.512V18.0732H300.841Z" fill="#95A7AC"/>
<path d="M332.174 15.7564L330.369 8.99955C329.875 7.13041 330.605 5.88432 332.474 5.39018L342.024 2.84428C343.904 2.35014 345.172 3.05912 345.677 4.89603L347.223 10.6216C345.956 12.0611 344.731 13.5757 343.861 14.6714C343.958 14.3706 344.001 14.0269 344.012 13.6402C344.022 13.1675 343.625 12.9956 343.206 13.3072C342.11 14.0913 340.8 14.4888 340.037 14.7037C339.221 14.94 337.867 15.2622 336.46 15.1011C335.987 15.0367 335.719 15.3912 335.966 15.7886C336.997 17.4214 338.888 17.9693 340.735 17.4966C341.455 17.3033 342.089 16.981 342.572 16.5835C342.314 17.1851 342.11 17.9156 342.024 18.6675C341.305 18.9683 340.671 19.4517 340.177 20.0855C339.554 20.6441 339.199 21.3531 338.952 21.9976C335.665 21.8472 333.205 19.6451 332.174 15.7564ZM352.519 7.21635C354.195 5.79838 356.419 7.27006 355.602 9.5474C355.323 10.3208 353.851 15.0796 351.273 19.2476C350.092 16.9595 347.89 15.4341 345.376 15.1011C348.233 11.2876 351.929 7.73197 352.519 7.21635ZM341.777 9.90189C342.486 9.69779 342.841 10.0415 343.131 9.96635C343.356 9.91264 343.453 9.63334 343.346 9.27885C343.12 8.38725 342.196 7.88236 341.315 8.11869C340.413 8.35502 339.854 9.25736 340.112 10.1382C340.22 10.5142 340.434 10.6968 340.649 10.6431C340.961 10.5572 341.068 10.0738 341.777 9.90189ZM335.88 11.4917C336.589 11.3199 336.943 11.6421 337.233 11.5669C337.47 11.5025 337.556 11.2447 337.459 10.8687C337.233 9.96635 336.288 9.45072 335.429 9.70853C334.515 9.94486 333.978 10.8472 334.225 11.7173C334.333 12.104 334.548 12.2974 334.763 12.2437C335.063 12.147 335.182 11.6851 335.88 11.4917ZM346.3 20.064C345.397 19.4302 344.259 19.0435 343.41 19.0542C343.399 18.2163 343.679 17.4107 344.216 16.6265C344.323 16.4654 344.441 16.3042 344.559 16.1646C347.148 16.1861 349.651 17.9048 350.564 20.3755C350.478 20.5259 350.371 20.6763 350.274 20.816C349.726 21.6001 349.093 22.1372 348.255 22.438C347.965 21.6216 347.202 20.6978 346.3 20.064ZM337.534 27.5406C337.094 27.1001 337.115 26.6597 337.427 26.3697C337.856 25.9507 338.565 26.2408 339.36 25.4351C340.306 24.479 339.285 22.8892 340.821 21.3316C342.153 19.9781 344.57 20.0855 346.171 21.6968C347.954 23.4908 347.89 25.897 346.01 27.7662C343.807 29.9468 339.747 29.7642 337.534 27.5406Z" fill="#58B168"/>
</svg>
