<svg width="16" height="16" viewBox="0 0 16 16" fill="none" xmlns="http://www.w3.org/2000/svg">
<path d="M7.73735 14.6666C10.6953 14.6666 12.6673 12.466 12.6673 9.14962C12.6673 3.63259 8.39841 1.33331 5.43482 1.33331C4.90821 1.33331 4.57208 1.53673 4.57208 1.93125C4.57208 2.08535 4.6337 2.24563 4.75135 2.39357C5.41802 3.2689 6.08468 4.31066 6.09589 5.52502C6.09589 5.67913 6.08468 5.82707 6.04547 5.98734C5.73735 5.26612 5.16031 4.78531 4.64491 4.78531C4.41522 4.78531 4.25835 4.97024 4.25835 5.24763C4.25835 5.4079 4.29757 5.78392 4.29757 6.05515C4.29757 7.43595 3.33398 8.24347 3.33398 10.4688C3.33398 12.99 5.08749 14.6666 7.73735 14.6666ZM7.8662 12.9345C6.81858 12.9345 6.1239 12.2379 6.1239 11.2023C6.1239 10.1174 6.82418 9.72906 6.91382 9.0325C6.92502 8.97702 6.95863 8.95852 6.99785 8.99551C7.25555 9.24825 7.42362 9.55646 7.56368 9.91399C7.86059 9.47016 8.00065 8.53319 7.90541 7.52225C7.89981 7.46677 7.93342 7.43595 7.98384 7.45444C9.21073 8.08936 9.84939 9.43317 9.84939 10.6352C9.84939 11.8557 9.19953 12.9345 7.8662 12.9345Z" fill="white"/>
</svg>
