<svg width="40" height="40" viewBox="0 0 40 40" fill="none" xmlns="http://www.w3.org/2000/svg">
<path d="M13.1514 30.0339C11.6475 29.7654 10.8633 28.863 10.8633 27.3913V12.2341C10.8633 10.8484 11.6152 9.93529 12.8184 9.7849L23.8398 7.84056C26.5469 7.35716 28.1797 8.52806 28.1797 10.9343V12.9216C28.8242 13.491 29.1357 14.3074 29.1357 15.532V28.7663C29.1357 31.2908 27.707 32.6013 25.376 32.1931L13.1514 30.0339ZM25.6445 11.9118C25.8164 11.9333 25.9775 11.9656 26.1387 12.0085V10.8484C26.1387 9.97826 25.5156 9.55931 24.5059 9.73119L18.7588 10.698L25.6445 11.9118ZM13.7637 27.9499L25.333 29.991C26.3535 30.1736 26.9873 29.6365 26.9873 28.5515V15.4997C26.9873 14.6081 26.4717 14.1999 25.4941 14.0281L13.9785 11.9978C13.377 11.9011 13.0117 12.1804 13.0117 12.7283V27.0261C13.0117 27.5417 13.2588 27.8533 13.7637 27.9499ZM15.6436 16.7566C15.2461 16.6921 15.0205 16.3913 15.0205 15.9831C15.0205 15.489 15.4072 15.1667 15.9443 15.2527L23.915 16.6599C24.334 16.7351 24.5596 16.9822 24.5596 17.4226C24.5596 17.9275 24.1943 18.2712 23.6572 18.1745L15.6436 16.7566ZM15.6436 20.9138C15.2461 20.8386 15.0205 20.5486 15.0205 20.1296C15.0205 19.6462 15.4072 19.3132 15.9443 19.4099L23.915 20.8064C24.334 20.8816 24.5596 21.1286 24.5596 21.5798C24.5596 22.074 24.1943 22.4177 23.6572 22.3318L15.6436 20.9138Z" fill="#C64E0A"/>
</svg>
