<svg width="40" height="40" viewBox="0 0 40 40" fill="none" xmlns="http://www.w3.org/2000/svg">
<path d="M30.3994 11.7081L31.1406 10.9455C31.5596 10.5158 31.5703 9.92494 31.1621 9.52748L30.8828 9.23744C30.5176 8.88295 29.9053 8.93666 29.5186 9.32338L28.7559 10.0753L30.3994 11.7081ZM17.584 23.256L19.7754 22.3322L29.5723 12.5246L27.9395 10.9025L18.1426 20.7101L17.1758 22.8263C17.0684 23.0734 17.3369 23.3527 17.584 23.256ZM13.5234 30.421H26.0488C28.1006 30.421 29.3037 29.2287 29.3037 26.9406V15.5861L27.1982 17.6915V26.758C27.1982 27.7999 26.6396 28.3263 25.9199 28.3263H13.6523C12.6533 28.3263 12.1055 27.7999 12.1055 26.758V14.8019C12.1055 13.7599 12.6533 13.2335 13.6523 13.2335H22.8369L24.9424 11.1281H13.5234C11.2139 11.1281 10 12.3205 10 14.6193V26.9406C10 29.2394 11.2139 30.421 13.5234 30.421Z" fill="#C64E0A"/>
</svg>
