<svg width="24" height="24" viewBox="0 0 24 24" fill="none" xmlns="http://www.w3.org/2000/svg">
<path d="M19.6044 8.72816C21.4539 8.72816 23 7.21359 23 5.36893C23 3.51456 21.4539 2 19.6044 2C17.7451 2 16.2088 3.51456 16.2088 5.36893C16.2088 7.21359 17.7451 8.72816 19.6044 8.72816ZM11.9814 22C17.4418 22 21.9627 17.5049 21.9627 12.0971C21.9627 11.233 21.8453 10.3981 21.6104 9.60194C21.1114 9.82524 20.5732 9.96117 20.0056 9.98058C20.1915 10.6505 20.2992 11.3689 20.2992 12.0971C20.3089 16.6796 16.6002 20.3495 11.9814 20.3495C7.36253 20.3495 3.67335 16.6796 3.67335 12.0971C3.67335 7.51456 7.35275 3.84466 11.9716 3.84466C13.048 3.84466 14.0657 4.03884 15.0051 4.40777C15.103 3.85437 15.3085 3.33981 15.5923 2.8835C14.4767 2.43689 13.2535 2.19417 11.9716 2.19417C6.52097 2.19417 2 6.67961 2 12.0971C2 17.5049 6.53076 22 11.9814 22ZM6.86347 13.1456H11.9716C12.3532 13.1456 12.6566 12.8544 12.6566 12.466V5.92233C12.6566 5.54369 12.3532 5.25243 11.9716 5.25243C11.5899 5.25243 11.2964 5.54369 11.2964 5.92233V11.7961H6.86347C6.47204 11.7961 6.17847 12.0874 6.17847 12.466C6.17847 12.8544 6.47204 13.1456 6.86347 13.1456Z" fill="white"/>
</svg>
