<svg width="32" height="32" viewBox="0 0 32 32" fill="none" xmlns="http://www.w3.org/2000/svg">
<path d="M9.04199 23.9492C7.62402 23.9492 6.625 22.9932 6.625 21.6396V10.3711C6.625 9.00684 7.62402 8.05078 9.04199 8.05078C10.4707 8.05078 11.4697 9.00684 11.4697 10.3711V21.6396C11.4697 22.9932 10.4707 23.9492 9.04199 23.9492ZM23.0605 23.9492C21.6426 23.9492 20.6436 22.9932 20.6436 21.6396V10.3711C20.6436 9.00684 21.6426 8.05078 23.0605 8.05078C24.4893 8.05078 25.4883 9.00684 25.4883 10.3711V21.6396C25.4883 22.9932 24.4893 23.9492 23.0605 23.9492ZM3.93945 21.5752C3.08008 21.5752 2.41406 20.9092 2.41406 20.0605V11.9395C2.41406 11.0801 3.08008 10.4033 3.93945 10.4033C4.80957 10.4033 5.47559 11.0801 5.47559 11.9395V20.0605C5.47559 20.9092 4.80957 21.5752 3.93945 21.5752ZM28.0557 21.5752C27.1963 21.5752 26.5303 20.9092 26.5303 20.0605V11.9395C26.5303 11.0801 27.1963 10.4033 28.0557 10.4033C28.915 10.4033 29.5918 11.0801 29.5918 11.9395V20.0605C29.5918 20.9092 28.915 21.5752 28.0557 21.5752ZM12.7158 18.0732V13.9268H19.3867V18.0732H12.7158Z" fill="white" fill-opacity="0.6"/>
</svg>
