<svg width="40" height="40" viewBox="0 0 40 40" fill="none" xmlns="http://www.w3.org/2000/svg">
<path d="M25.5537 30.4492C25.2028 30.4492 24.9092 30.3239 24.6729 30.0732L18.6035 23.918C18.36 23.6602 18.2383 23.3737 18.2383 23.0586C18.2383 22.7077 18.3457 22.4248 18.5605 22.21C18.7754 21.988 19.0547 21.877 19.3984 21.877C19.7135 21.877 19.9893 21.9951 20.2256 22.2314L22.8896 24.96L24.4688 26.8398L24.3613 24.3584V11.2637C24.3613 10.9056 24.4723 10.6156 24.6943 10.3936C24.9163 10.1644 25.2028 10.0498 25.5537 10.0498C25.9118 10.0498 26.2018 10.1644 26.4238 10.3936C26.6458 10.6156 26.7568 10.9056 26.7568 11.2637V24.3584L26.6387 26.8398L28.2285 24.96L30.8926 22.2314C31.1146 21.9951 31.3903 21.877 31.7197 21.877C32.0635 21.877 32.3428 21.988 32.5576 22.21C32.7725 22.4248 32.8799 22.7077 32.8799 23.0586C32.8799 23.3737 32.7581 23.6602 32.5146 23.918L26.4453 30.0732C26.209 30.3239 25.9118 30.4492 25.5537 30.4492ZM15.2949 30.1055C15.0729 30.3346 14.7865 30.4492 14.4355 30.4492C14.0846 30.4492 13.7982 30.3346 13.5762 30.1055C13.3542 29.8835 13.2432 29.5934 13.2432 29.2354V16.1406L13.3506 13.6592L11.7715 15.5391L9.10742 18.2676C8.87109 18.5039 8.5918 18.6221 8.26953 18.6221C7.93294 18.6221 7.65365 18.5146 7.43164 18.2998C7.2168 18.0778 7.10938 17.7913 7.10938 17.4404C7.10938 17.1182 7.2347 16.8317 7.48535 16.5811L13.5439 10.4258C13.7803 10.1751 14.0775 10.0498 14.4355 10.0498C14.7793 10.0498 15.0765 10.1751 15.3271 10.4258L21.3857 16.5811C21.6364 16.8317 21.7617 17.1182 21.7617 17.4404C21.7617 17.7913 21.6507 18.0778 21.4287 18.2998C21.2139 18.5146 20.9382 18.6221 20.6016 18.6221C20.2793 18.6221 20 18.5039 19.7637 18.2676L17.0996 15.5391L15.5205 13.6592L15.6279 16.1406V29.2354C15.6279 29.5934 15.5169 29.8835 15.2949 30.1055Z" fill="black"/>
</svg>
