<svg width="40" height="40" viewBox="0 0 40 40" fill="none" xmlns="http://www.w3.org/2000/svg">
<path d="M9.94336 14.6797H30.0547C30.624 14.6797 31.0752 14.2285 31.0752 13.6592C31.0752 13.0898 30.624 12.6387 30.0547 12.6387H9.94336C9.37402 12.6387 8.92285 13.0898 8.92285 13.6592C8.92285 14.2285 9.37402 14.6797 9.94336 14.6797ZM9.94336 21.2754H30.0547C30.624 21.2754 31.0752 20.8242 31.0752 20.2549C31.0752 19.6855 30.624 19.2344 30.0547 19.2344H9.94336C9.37402 19.2344 8.92285 19.6855 8.92285 20.2549C8.92285 20.8242 9.37402 21.2754 9.94336 21.2754ZM9.94336 27.8711H30.0547C30.624 27.8711 31.0752 27.4199 31.0752 26.8506C31.0752 26.2812 30.624 25.8301 30.0547 25.8301H9.94336C9.37402 25.8301 8.92285 26.2812 8.92285 26.8506C8.92285 27.4199 9.37402 27.8711 9.94336 27.8711Z" fill="#045C5C"/>
</svg>
