<svg width="72" height="72" viewBox="0 0 72 72" fill="none" xmlns="http://www.w3.org/2000/svg">
<rect width="72" height="72" fill="#1A645A"/>
<path d="M30.2157 24C29.41 24 28.8622 24.5264 28.8622 25.2354C28.8622 25.5791 29.0018 25.9551 29.2919 26.3311C29.8397 27.0508 31.118 28.0605 32.6864 28.9736L32.6004 30.2197L43.5897 41.209C44.1483 40.9619 44.4706 40.457 44.4706 39.7695C44.4706 37.46 42.6337 35.0859 39.6473 33.9688L39.2928 28.9736C40.8504 28.0605 42.118 27.0723 42.6659 26.3525C42.9667 25.9766 43.1171 25.5791 43.1171 25.2354C43.1171 24.5264 42.5692 24 41.7635 24H30.2157ZM25.1776 27.1797L44.8251 46.8057C45.1581 47.1494 45.7167 47.1387 46.0389 46.8057C46.3612 46.4727 46.3719 45.9355 46.0389 45.6025L26.4022 25.9766C26.0585 25.6436 25.5106 25.6436 25.1776 25.9766C24.8553 26.2988 24.8553 26.8574 25.1776 27.1797ZM27.5087 39.7695C27.5087 40.7363 28.1639 41.3809 29.1844 41.3809H34.9315V46.4619C34.9315 47.9766 35.6942 49.502 35.9842 49.502C36.285 49.502 37.0477 47.9766 37.0477 46.4619V41.542H37.5526L30.785 34.7637C28.7333 35.9883 27.5087 37.8896 27.5087 39.7695Z" fill="white"/>
</svg>
