<svg width="40" height="40" viewBox="0 0 40 40" fill="none" xmlns="http://www.w3.org/2000/svg">
<path d="M11.3562 28.634C11.848 29.1146 12.6526 29.1146 13.122 28.6452L19.9951 21.7721L26.8682 28.6452C27.3488 29.1146 28.1534 29.1257 28.634 28.634C29.1146 28.1534 29.1146 27.3488 28.6452 26.8794L21.7721 19.9951L28.6452 13.122C29.1146 12.6526 29.1257 11.8368 28.634 11.3674C28.1423 10.8869 27.3488 10.8869 26.8682 11.3562L19.9951 18.2293L13.122 11.3562C12.6526 10.8869 11.8368 10.8757 11.3562 11.3562C10.8757 11.848 10.8869 12.6638 11.3562 13.122L18.2293 19.9951L11.3562 26.8794C10.8869 27.3376 10.8757 28.1646 11.3562 28.634Z" fill="#045C5C"/>
</svg>
