<svg width="15" height="12" viewBox="0 0 15 12" fill="none" xmlns="http://www.w3.org/2000/svg">
<path d="M0.25 6.65234C0.0833328 6.49088 -2.44055e-07 6.28255 -2.329e-07 6.02734C-2.21744e-07 5.77213 0.0833328 5.5638 0.25 5.40234C0.411458 5.24088 0.622395 5.16016 0.882812 5.16016L10.4062 5.16016L12.2109 5.23828L10.8437 4.08984L8.85937 2.15234C8.6875 1.98047 8.60156 1.77734 8.60156 1.54297C8.60156 1.29818 8.67969 1.09505 8.83594 0.933593C8.9974 0.777343 9.20573 0.699219 9.46094 0.699219C9.69531 0.699219 9.90365 0.790364 10.0859 0.972656L14.5625 5.37891C14.7448 5.55078 14.8359 5.76693 14.8359 6.02734C14.8359 6.27734 14.7448 6.49349 14.5625 6.67578L10.0859 11.082C9.90365 11.2643 9.69531 11.3555 9.46094 11.3555C9.20573 11.3555 8.9974 11.2747 8.83594 11.1133C8.67969 10.957 8.60156 10.7565 8.60156 10.5117C8.60156 10.2773 8.6875 10.0742 8.85937 9.90234L10.8437 7.96484L12.2109 6.81641L10.4062 6.89453L0.882812 6.89453C0.622395 6.89453 0.411458 6.8138 0.25 6.65234Z" fill="#617774"/>
</svg>
