<svg width="32" height="32" viewBox="0 0 32 32" fill="none" xmlns="http://www.w3.org/2000/svg">
<path d="M8.5293 26.5444C9.04492 26.5444 9.38867 26.2007 9.38867 25.6851V24.6108H22.6016V25.6851C22.6016 26.2007 22.9561 26.5444 23.4717 26.5444C23.9873 26.5444 24.3311 26.2007 24.3311 25.6851V24.6001C25.6738 24.4604 26.5439 23.4937 26.5439 22.0864V7.98193C26.5439 6.46729 25.5342 5.45752 24.0088 5.45752H7.98145C6.4668 5.45752 5.45703 6.46729 5.45703 7.98193V22.0864C5.45703 23.4937 6.32715 24.4604 7.65918 24.6001V25.6851C7.65918 26.2007 8.01367 26.5444 8.5293 26.5444ZM7.18652 8.05713C7.18652 7.5415 7.50879 7.18701 8.00293 7.18701H23.998C24.4814 7.18701 24.8145 7.5415 24.8145 8.05713V11.1079H7.18652V8.05713ZM10.4199 10.1948C11 10.1948 11.4834 9.72217 11.4834 9.14209C11.4834 8.55127 11 8.07861 10.4199 8.07861C9.8291 8.07861 9.3457 8.55127 9.3457 9.14209C9.3457 9.72217 9.8291 10.1948 10.4199 10.1948ZM14.1367 10.1948C14.7168 10.1948 15.2002 9.72217 15.2002 9.14209C15.2002 8.55127 14.7168 8.07861 14.1367 8.07861C13.5459 8.07861 13.0625 8.55127 13.0625 9.14209C13.0625 9.72217 13.5459 10.1948 14.1367 10.1948ZM17.8535 10.1948C18.4336 10.1948 18.917 9.72217 18.917 9.14209C18.917 8.55127 18.4336 8.07861 17.8535 8.07861C17.2627 8.07861 16.7793 8.55127 16.7793 9.14209C16.7793 9.72217 17.2627 10.1948 17.8535 10.1948ZM21.5703 10.1948C22.1611 10.1948 22.6445 9.72217 22.6445 9.14209C22.6445 8.55127 22.1611 8.07861 21.5703 8.07861C20.9902 8.07861 20.5068 8.55127 20.5068 9.14209C20.5068 9.72217 20.9902 10.1948 21.5703 10.1948ZM8.00293 22.8813C7.50879 22.8813 7.18652 22.5376 7.18652 22.0112V12.5151H24.8145V22.0112C24.8145 22.5376 24.4814 22.8813 23.998 22.8813H8.00293ZM9.65723 21.6138H22.3438C22.9561 21.6138 23.3535 21.2163 23.3535 20.6147V14.7925C23.3535 14.1802 22.9561 13.7827 22.3438 13.7827H9.65723C9.04492 13.7827 8.6582 14.1802 8.6582 14.7925V20.6147C8.6582 21.2163 9.04492 21.6138 9.65723 21.6138ZM10.1299 20.4214C9.96875 20.4214 9.85059 20.3032 9.85059 20.1421V15.2651C9.85059 15.104 9.96875 14.9751 10.1299 14.9751H21.8818C22.0322 14.9751 22.1611 15.104 22.1611 15.2651V20.1421C22.1611 20.3032 22.0322 20.4214 21.8818 20.4214H10.1299Z" fill="#537979"/>
</svg>
