<svg width="32" height="32" viewBox="0 0 32 32" fill="none" xmlns="http://www.w3.org/2000/svg">
<path d="M6.96484 24.1533C6.96484 26.3984 8.07129 27.5156 10.2949 27.5156H21.7031C23.9268 27.5156 25.0332 26.3984 25.0332 24.1533V7.85742C25.0332 5.62305 23.9268 4.48438 21.7031 4.48438H10.2949C8.07129 4.48438 6.96484 5.62305 6.96484 7.85742V24.1533ZM8.69434 24.1211V7.88965C8.69434 6.81543 9.26367 6.21387 10.3809 6.21387H21.6172C22.7344 6.21387 23.3037 6.81543 23.3037 7.88965V24.1211C23.3037 25.1953 22.7344 25.7861 21.6172 25.7861H10.3809C9.26367 25.7861 8.69434 25.1953 8.69434 24.1211ZM11.3262 10.3711C11.8848 10.3711 12.3252 9.93066 12.3252 9.37207C12.3252 8.82422 11.8848 8.37305 11.3262 8.37305C10.7891 8.37305 10.3271 8.83496 10.3271 9.37207C10.3271 9.91992 10.7891 10.3711 11.3262 10.3711ZM14.3555 10.0488H21.0049C21.3701 10.0488 21.6709 9.74805 21.6709 9.37207C21.6709 9.00684 21.3701 8.70605 21.0049 8.70605H14.3555C13.9902 8.70605 13.6895 9.00684 13.6895 9.37207C13.6895 9.74805 13.9902 10.0488 14.3555 10.0488ZM11.3262 13.6582C11.8848 13.6582 12.3252 13.207 12.3252 12.6592C12.3252 12.1006 11.8848 11.6709 11.3262 11.6709C10.7783 11.6709 10.3271 12.1113 10.3271 12.6592C10.3271 13.207 10.7783 13.6582 11.3262 13.6582ZM14.3555 13.3252H21.0049C21.3809 13.3252 21.6709 13.0352 21.6709 12.6592C21.6709 12.2832 21.3809 11.9932 21.0049 11.9932H14.3555C13.9795 11.9932 13.6895 12.2832 13.6895 12.6592C13.6895 13.0352 13.9795 13.3252 14.3555 13.3252ZM11.3262 17.0957C11.8848 17.0957 12.3252 16.6445 12.3252 16.0967C12.3252 15.5381 11.8848 15.0977 11.3262 15.0977C10.7891 15.0977 10.3271 15.5488 10.3271 16.0967C10.3271 16.6338 10.7891 17.0957 11.3262 17.0957ZM14.3555 16.7627H21.0049C21.3701 16.7627 21.6709 16.4619 21.6709 16.0967C21.6709 15.7314 21.3809 15.4307 21.0049 15.4307H14.3555C13.9795 15.4307 13.6895 15.7314 13.6895 16.0967C13.6895 16.4619 13.9902 16.7627 14.3555 16.7627Z" fill="#537979"/>
</svg>
