<svg width="40" height="40" viewBox="0 0 40 40" fill="none" xmlns="http://www.w3.org/2000/svg">
<rect x="7" y="7" width="26" height="26" rx="4" fill="#045C5C"/>
<path d="M15.9961 20.1188C13.808 20.1188 12.0078 18.2901 12.0078 16.0594C12.0078 13.8366 13.808 12 15.9961 12C18.192 12 19.9922 13.8366 19.9922 16.0594C19.9922 18.2743 18.1688 20.1188 15.9961 20.1188ZM21.8312 14.6169C21.451 14.6169 21.1484 14.3095 21.1484 13.9233C21.1484 13.537 21.451 13.2296 21.8312 13.2296H27.3094C27.6896 13.2296 28 13.537 28 13.9233C28 14.3095 27.6896 14.6169 27.3094 14.6169H21.8312ZM15.5461 18.2585C15.7323 18.2585 15.9108 18.1718 16.0039 18.0457L18.2541 14.9086C18.324 14.7982 18.3628 14.68 18.3628 14.5775C18.3628 14.2622 18.1067 14.0179 17.8118 14.0179C17.6178 14.0179 17.4549 14.1203 17.3463 14.2701L15.515 16.8476L14.6149 15.8466C14.5218 15.7362 14.3822 15.6653 14.2037 15.6653C13.9088 15.6653 13.6528 15.886 13.6528 16.2249C13.6528 16.3589 13.7071 16.5166 13.808 16.6269L15.1038 18.0694C15.2202 18.2034 15.3986 18.2585 15.5461 18.2585ZM21.8312 18.7472C21.451 18.7472 21.1484 18.4398 21.1484 18.0536C21.1484 17.6674 21.451 17.36 21.8312 17.36H27.3094C27.6896 17.36 28 17.6674 28 18.0536C28 18.4398 27.6896 18.7472 27.3094 18.7472H21.8312ZM12.6828 22.8776C12.3026 22.8776 12 22.5702 12 22.1839C12 21.7977 12.3026 21.4903 12.6828 21.4903H27.3094C27.6896 21.4903 28 21.7977 28 22.1839C28 22.5702 27.6896 22.8776 27.3094 22.8776H12.6828ZM12.6828 27C12.3026 27 12 26.7005 12 26.3142C12 25.9201 12.3026 25.6206 12.6828 25.6206H27.3094C27.6896 25.6206 28 25.9201 28 26.3142C28 26.7005 27.6896 27 27.3094 27H12.6828Z" fill="white"/>
</svg>
