<svg width="32" height="32" viewBox="0 0 32 32" fill="none" xmlns="http://www.w3.org/2000/svg">
<path d="M6.24023 26.5488C4.12402 26.5488 3.03906 25.4639 3.03906 23.3799V8.62012C3.03906 6.53613 4.12402 5.45117 6.24023 5.45117H25.7588C27.8857 5.45117 28.96 6.53613 28.96 8.62012V23.3799C28.96 25.4639 27.8857 26.5488 25.7588 26.5488H6.24023ZM9.64551 15.1621C11.4824 15.1621 12.9756 13.6582 12.9756 11.832C12.9756 10.0059 11.4824 8.50195 9.64551 8.50195C7.81934 8.50195 6.32617 10.0059 6.32617 11.832C6.32617 13.6582 7.81934 15.1621 9.64551 15.1621ZM18.2393 15.1621C20.0762 15.1621 21.5586 13.6582 21.5586 11.832C21.5586 10.0059 20.0762 8.50195 18.2393 8.50195C16.4023 8.50195 14.9092 10.0059 14.9092 11.832C14.9092 13.6582 16.4023 15.1621 18.2393 15.1621ZM9.64551 14.0986C8.39941 14.0986 7.38965 13.0889 7.38965 11.832C7.38965 10.5752 8.39941 9.56543 9.64551 9.56543C10.9023 9.56543 11.9229 10.5752 11.9229 11.832C11.9229 13.0889 10.9023 14.0986 9.64551 14.0986ZM18.2393 14.0986C16.9932 14.0986 15.9727 13.0889 15.9727 11.832C15.9727 10.5752 16.9932 9.56543 18.2393 9.56543C19.4961 9.56543 20.5059 10.5752 20.5059 11.832C20.5059 13.0889 19.4961 14.0986 18.2393 14.0986ZM9.64551 13.583C10.6338 13.583 11.3857 12.8203 11.3857 11.832C11.3857 10.8438 10.6338 10.0918 9.64551 10.0918C8.67871 10.0918 7.91602 10.8438 7.91602 11.832C7.91602 12.8203 8.67871 13.583 9.64551 13.583ZM18.2393 13.583C19.2168 13.583 19.9795 12.8203 19.9795 11.832C19.9795 10.8438 19.2168 10.0918 18.2393 10.0918C17.251 10.0918 16.4883 10.8438 16.4883 11.832C16.4883 12.8203 17.251 13.583 18.2393 13.583ZM25.0713 12.1865C25.6084 12.1865 26.0381 11.7568 26.0381 11.209C26.0381 10.6826 25.6084 10.2422 25.0713 10.2422C24.5234 10.2422 24.0938 10.6826 24.0938 11.209C24.0938 11.7568 24.5234 12.1865 25.0713 12.1865ZM25.0713 15.3662C25.6084 15.3662 26.0381 14.9473 26.0381 14.3887C26.0381 13.8623 25.6084 13.4219 25.0713 13.4219C24.5234 13.4219 24.0938 13.8623 24.0938 14.3887C24.0938 14.9473 24.5234 15.3662 25.0713 15.3662ZM25.0713 18.5674C25.6084 18.5674 26.0381 18.127 26.0381 17.5898C26.0381 17.042 25.6084 16.623 25.0713 16.623C24.5234 16.623 24.0938 17.042 24.0938 17.5898C24.0938 18.127 24.5234 18.5674 25.0713 18.5674ZM9.64551 23.4658C11.4824 23.4658 12.9756 21.9727 12.9756 20.1357C12.9756 18.3096 11.4824 16.8164 9.64551 16.8164C7.81934 16.8164 6.32617 18.3096 6.32617 20.1357C6.32617 21.9727 7.81934 23.4658 9.64551 23.4658ZM18.2393 23.4658C20.0762 23.4658 21.5586 21.9727 21.5586 20.1357C21.5586 18.3096 20.0762 16.8164 18.2393 16.8164C16.4023 16.8164 14.9092 18.3096 14.9092 20.1357C14.9092 21.9727 16.4023 23.4658 18.2393 23.4658ZM9.64551 22.4023C8.39941 22.4023 7.38965 21.4033 7.38965 20.1357C7.38965 18.8789 8.39941 17.8799 9.64551 17.8799C10.9023 17.8799 11.9229 18.8789 11.9229 20.1357C11.9229 21.4033 10.9023 22.4023 9.64551 22.4023ZM18.2393 22.4023C16.9932 22.4023 15.9727 21.4033 15.9727 20.1357C15.9727 18.8789 16.9932 17.8799 18.2393 17.8799C19.4961 17.8799 20.5059 18.8789 20.5059 20.1357C20.5059 21.4033 19.4961 22.4023 18.2393 22.4023ZM9.64551 21.8867C10.6338 21.8867 11.3857 21.124 11.3857 20.1357C11.3857 19.1582 10.6338 18.3955 9.64551 18.3955C8.67871 18.3955 7.91602 19.1582 7.91602 20.1357C7.91602 21.124 8.67871 21.8867 9.64551 21.8867ZM18.2393 21.8867C19.2168 21.8867 19.9795 21.124 19.9795 20.1357C19.9795 19.1582 19.2168 18.3955 18.2393 18.3955C17.251 18.3955 16.4883 19.1582 16.4883 20.1357C16.4883 21.124 17.251 21.8867 18.2393 21.8867ZM25.0713 21.7471C25.6084 21.7471 26.0381 21.3066 26.0381 20.7695C26.0381 20.2324 25.6084 19.8027 25.0713 19.8027C24.5234 19.8027 24.0938 20.2324 24.0938 20.7695C24.0938 21.3066 24.5234 21.7471 25.0713 21.7471Z" fill="white" fill-opacity="0.6"/>
</svg>
