<svg width="40" height="40" viewBox="0 0 40 40" fill="none" xmlns="http://www.w3.org/2000/svg">
<path d="M9.58008 25.8115C9.58008 24.6729 10.6328 23.6953 11.5996 22.75C12.3623 22.0088 12.5342 20.5264 12.6738 19.0547C12.8135 14.9834 13.9951 12.2656 16.7988 11.2451C17.207 9.82715 18.3994 8.74219 20 8.74219C21.6006 8.74219 22.793 9.82715 23.2012 11.2451C26.0049 12.2656 27.1865 14.9834 27.3262 19.0547C27.4658 20.5264 27.6484 22.0088 28.4004 22.75C29.3779 23.6953 30.4199 24.6729 30.4199 25.8115C30.4199 26.7139 29.7432 27.3262 28.626 27.3262H24.2109C24.1143 29.3887 22.4385 31.2578 20 31.2578C17.5615 31.2578 15.8857 29.3779 15.7891 27.3262H11.374C10.2676 27.3262 9.58008 26.7139 9.58008 25.8115ZM12.1475 25.3604H27.8311V25.2314C27.5625 24.9199 26.9609 24.3506 26.4238 23.7383C25.6934 22.8896 25.3389 21.3535 25.2314 19.3125C25.1133 14.9512 23.7705 13.501 22.041 13.0283C21.7725 12.9639 21.6221 12.835 21.6006 12.5449C21.5576 11.4492 20.9453 10.7188 20 10.7188C19.0547 10.7188 18.4531 11.4492 18.3994 12.5449C18.3779 12.835 18.2275 12.9639 17.9697 13.0283C16.2295 13.501 14.8975 14.9512 14.7686 19.3125C14.6611 21.3535 14.3174 22.8896 13.5762 23.7383C13.0498 24.3506 12.4268 24.9199 12.1475 25.2314V25.3604ZM17.8193 27.3262C17.9053 28.6689 18.7861 29.5391 20 29.5391C21.2246 29.5391 22.1055 28.6689 22.1807 27.3262H17.8193Z" fill="#537979"/>
</svg>
