<svg width="40" height="40" viewBox="0 0 40 40" fill="none" xmlns="http://www.w3.org/2000/svg">
<path d="M31.6875 26.2241C33.8789 26.2241 35.5889 25.2778 36.4106 23.7173C36.5933 23.3687 36.7012 23.0117 36.7012 22.6631C36.7012 22.1567 36.3359 21.8081 35.8213 21.8081C35.3979 21.8081 35.1572 21.9658 34.8999 22.4722C34.3354 23.8003 33.2314 24.5142 31.6875 24.5142C29.4297 24.5142 28.002 22.7876 28.002 19.9653C28.002 17.1846 29.438 15.4663 31.6875 15.4663C33.165 15.4663 34.3354 16.3213 34.9082 17.7075C35.1489 18.1807 35.4146 18.3716 35.8628 18.3716C36.3857 18.3716 36.7427 18.0312 36.7427 17.5166C36.7427 17.2676 36.6846 16.9937 36.5684 16.7031C35.896 14.9019 33.9453 13.7646 31.6875 13.7646C28.1597 13.7646 25.96 16.1304 25.96 19.9736C25.96 23.8501 28.1514 26.2241 31.6875 26.2241ZM4.17041 26.2573C4.72656 26.2573 5.00879 26.0083 5.19141 25.4272L6.12109 22.8374H10.8608L11.7822 25.4272C11.9648 26.0083 12.2554 26.2573 12.8032 26.2573C13.3843 26.2573 13.7578 25.8921 13.7578 25.3442C13.7578 25.145 13.7246 24.979 13.6499 24.7549L9.97266 14.8271C9.71533 14.1299 9.25049 13.7646 8.49512 13.7646C7.77295 13.7646 7.2998 14.1299 7.05908 14.8188L3.35693 24.7964C3.28223 25.0122 3.24902 25.1865 3.24902 25.3608C3.24902 25.9087 3.59766 26.2573 4.17041 26.2573ZM16.2397 26.0166H20.4233C23.0879 26.0166 24.7231 24.6885 24.7231 22.6714C24.7231 21.0112 23.4697 19.8242 21.7432 19.6665V19.6084C23.1045 19.3926 24.1006 18.2637 24.1006 16.894C24.1006 15.1675 22.623 13.9722 20.3403 13.9722H16.2397C15.6338 13.9722 15.2437 14.3457 15.2437 14.9683V25.0205C15.2437 25.6431 15.6338 26.0166 16.2397 26.0166ZM17.2773 19.1021V15.5576H19.8423C21.2534 15.5576 22.1001 16.2134 22.1001 17.2095C22.1001 18.3965 21.1538 19.1021 19.5601 19.1021H17.2773ZM6.58594 21.3018L8.45361 15.9062H8.51172L10.3877 21.3018H6.58594ZM17.2773 24.4478V20.5215H19.8423C21.6519 20.5215 22.6479 21.2354 22.6479 22.5303C22.6479 23.7256 21.6768 24.4478 19.9502 24.4478H17.2773Z" fill="black"/>
</svg>
