<svg width="174" height="48" viewBox="0 0 174 48" fill="none" xmlns="http://www.w3.org/2000/svg">
<g filter="url(#filter0_d_386_38821)">
<path d="M-68 4H139.333C145.533 4 148.633 4 151.176 4.68148C158.078 6.53083 163.469 11.9218 165.319 18.8236C166 21.367 166 24.4669 166 30.6667C166 31.9066 166 32.5266 165.864 33.0353C165.494 34.4156 164.416 35.4938 163.035 35.8637C162.527 36 161.907 36 160.667 36H-68V4Z" fill="#58B368" shape-rendering="crispEdges"/>
<path d="M71.1665 21.8984C71.1665 19.4814 69.308 17.8427 66.6438 17.8427H63.8789V14.8306H69.9122V12.7889H61.5168V26H66.717C69.3446 26 71.1665 24.3521 71.1665 21.8984ZM63.8789 24.0133V19.7653H66.1128C67.7882 19.7653 68.7495 20.516 68.7495 21.8984C68.7495 23.2626 67.7882 24.0133 66.1219 24.0133H63.8789ZM77.0808 24.3795C76.0737 24.3795 75.3505 23.876 75.3505 23.0337C75.3505 22.2189 75.9456 21.7611 77.2181 21.6787L79.4795 21.5322V22.3287C79.4795 23.4915 78.4541 24.3795 77.0808 24.3795ZM76.4125 26.1648C77.7217 26.1648 78.8203 25.5972 79.3788 24.6267H79.5344V26H81.7225V19.161C81.7225 17.037 80.276 15.7827 77.7034 15.7827C75.323 15.7827 73.6659 16.9088 73.4828 18.6758H75.6251C75.8357 17.9983 76.5498 17.6321 77.5935 17.6321C78.8203 17.6321 79.4795 18.1814 79.4795 19.161V20.0033L76.8977 20.1589C74.4624 20.3054 73.0983 21.3491 73.0983 23.1619C73.0983 24.9929 74.4807 26.1648 76.4125 26.1648ZM87.4263 21.697L90.7588 26H93.5145L89.2756 20.6075L93.3223 15.9841H90.7039L87.408 19.9941H86.9044V15.9841H84.6339V26H86.9044V21.697H87.4263ZM98.6506 24.3795C97.6436 24.3795 96.9203 23.876 96.9203 23.0337C96.9203 22.2189 97.5154 21.7611 98.788 21.6787L101.049 21.5322V22.3287C101.049 23.4915 100.024 24.3795 98.6506 24.3795ZM97.9823 26.1648C99.2915 26.1648 100.39 25.5972 100.949 24.6267H101.104V26H103.292V19.161C103.292 17.037 101.846 15.7827 99.2732 15.7827C96.8928 15.7827 95.2357 16.9088 95.0526 18.6758H97.1949C97.4055 17.9983 98.1196 17.6321 99.1633 17.6321C100.39 17.6321 101.049 18.1814 101.049 19.161V20.0033L98.4675 20.1589C96.0322 20.3054 94.6681 21.3491 94.6681 23.1619C94.6681 24.9929 96.0505 26.1648 97.9823 26.1648ZM109.152 21.34L109.399 17.7969H112.338V26H114.599V15.9841H107.421L107.092 21.2118C106.991 22.8781 106.661 24.0408 105.691 24.0408C105.444 24.0408 105.242 24.0042 105.142 23.9767V25.9908C105.27 26.0366 105.526 26.1007 105.902 26.1007C108.218 26.1007 108.959 24.233 109.152 21.34ZM121.768 17.5863C123.132 17.5863 124.029 18.5385 124.075 20.0216H119.36C119.461 18.5568 120.413 17.5863 121.768 17.5863ZM124.093 23.2443C123.764 23.9858 122.985 24.3978 121.859 24.3978C120.367 24.3978 119.406 23.3541 119.351 21.6879V21.5688H126.345V20.8364C126.345 17.6779 124.633 15.7827 121.777 15.7827C118.875 15.7827 117.071 17.806 117.071 21.0287C117.071 24.2513 118.847 26.2014 121.795 26.2014C124.157 26.2014 125.833 25.0662 126.245 23.2443H124.093ZM132.562 20.928C131.472 20.928 130.758 20.2963 130.758 19.4082C130.758 18.4103 131.463 17.7877 132.562 17.7877H134.283V20.928H132.562ZM134.283 26H136.517V15.9841H132.388C130.053 15.9841 128.515 17.2933 128.515 19.399C128.515 20.7815 129.348 21.8618 130.712 22.2555L128.03 26H130.63L132.974 22.6492H134.283V26Z" fill="white"/>
</g>
<defs>
<filter id="filter0_d_386_38821" x="-76" y="0" width="250" height="48" filterUnits="userSpaceOnUse" color-interpolation-filters="sRGB">
<feFlood flood-opacity="0" result="BackgroundImageFix"/>
<feColorMatrix in="SourceAlpha" type="matrix" values="0 0 0 0 0 0 0 0 0 0 0 0 0 0 0 0 0 0 127 0" result="hardAlpha"/>
<feMorphology radius="6" operator="dilate" in="SourceAlpha" result="effect1_dropShadow_386_38821"/>
<feOffset dy="4"/>
<feGaussianBlur stdDeviation="1"/>
<feComposite in2="hardAlpha" operator="out"/>
<feColorMatrix type="matrix" values="0 0 0 0 0.376645 0 0 0 0 0.306931 0 0 0 0 0.408333 0 0 0 0.5 0"/>
<feBlend mode="normal" in2="BackgroundImageFix" result="effect1_dropShadow_386_38821"/>
<feBlend mode="normal" in="SourceGraphic" in2="effect1_dropShadow_386_38821" result="shape"/>
</filter>
</defs>
</svg>
