<svg width="222" height="48" viewBox="0 0 222 48" fill="none" xmlns="http://www.w3.org/2000/svg">
<g filter="url(#filter0_d_253_36664)">
<path d="M-20 4H187.333C193.533 4 196.633 4 199.176 4.68148C206.078 6.53083 211.469 11.9218 213.319 18.8236C214 21.367 214 24.4669 214 30.6667C214 31.9066 214 32.5266 213.864 33.0353C213.494 34.4156 212.416 35.4938 211.035 35.8637C210.527 36 209.907 36 208.667 36H-20V4Z" fill="#58B368" shape-rendering="crispEdges"/>
<path d="M39.1934 21.2666C39.1934 22.6387 38.7759 23.7324 37.9409 24.5479C37.106 25.3584 35.9829 25.7637 34.5718 25.7637C33.0386 25.7637 31.8276 25.2681 30.939 24.2769C30.0503 23.2808 29.606 21.9258 29.606 20.2119C29.606 18.5225 30.0527 17.1772 30.9463 16.1763C31.8398 15.1704 33.0386 14.6675 34.5425 14.6675C35.7632 14.6675 36.7861 14.9897 37.6113 15.6343C38.4365 16.2788 38.9346 17.1406 39.1055 18.2197H37.2231C37.0327 17.6191 36.7056 17.1577 36.2417 16.8354C35.7827 16.5132 35.2163 16.3521 34.5425 16.3521C33.6196 16.3521 32.8872 16.6963 32.3452 17.3848C31.8081 18.0732 31.5396 19.0107 31.5396 20.1973C31.5396 21.3984 31.813 22.3457 32.3599 23.0391C32.9116 23.7324 33.6587 24.0791 34.6011 24.0791C35.4067 24.0791 36.061 23.8545 36.564 23.4053C37.0669 22.9561 37.3257 22.3677 37.3403 21.6401L37.3477 21.4204H34.8062V19.9409H39.1934V21.2666ZM41.2002 25.5V17.4873H42.9507V18.7324H43.0752C43.1875 18.332 43.439 18.0024 43.8296 17.7437C44.2251 17.4849 44.6792 17.3555 45.1919 17.3555C45.519 17.3555 45.7705 17.3823 45.9463 17.436V19.1206C45.7607 19.0522 45.4507 19.0181 45.0161 19.0181C44.4253 19.0181 43.9443 19.189 43.5732 19.5308C43.2021 19.8677 43.0166 20.3145 43.0166 20.8711V25.5H41.2002ZM50.0771 24.2036C50.624 24.2036 51.0806 24.0474 51.4468 23.7349C51.813 23.4175 51.9961 23.0269 51.9961 22.563V21.9258L50.187 22.043C49.1909 22.1064 48.6929 22.4678 48.6929 23.127C48.6929 23.459 48.8198 23.7227 49.0737 23.918C49.3325 24.1084 49.667 24.2036 50.0771 24.2036ZM49.5425 25.6318C48.7612 25.6318 48.124 25.4121 47.6309 24.9727C47.1377 24.5332 46.8911 23.9521 46.8911 23.2295C46.8911 22.5068 47.1523 21.9404 47.6748 21.5303C48.2021 21.1201 48.9541 20.8857 49.9307 20.8271L51.9961 20.7026V20.0288C51.9961 19.6333 51.8667 19.3306 51.6079 19.1206C51.3491 18.9106 50.9756 18.8057 50.4873 18.8057C50.0674 18.8057 49.7207 18.8789 49.4473 19.0254C49.1738 19.167 48.9956 19.3721 48.9126 19.6406H47.1987C47.272 18.9326 47.6138 18.3711 48.2241 17.9561C48.8394 17.5361 49.623 17.3262 50.5752 17.3262C51.6006 17.3262 52.3916 17.563 52.9482 18.0366C53.5098 18.5103 53.7905 19.1743 53.7905 20.0288V25.5H52.04V24.4014H51.9155C51.6909 24.7871 51.3687 25.0898 50.9487 25.3096C50.5337 25.5244 50.0649 25.6318 49.5425 25.6318ZM56.0024 25.5V17.4873H57.8115V25.5H56.0024ZM56.9033 16.1836C56.5762 16.1836 56.3076 16.0908 56.0977 15.9053C55.8877 15.7148 55.7827 15.4731 55.7827 15.1802C55.7827 14.8872 55.8877 14.6479 56.0977 14.4624C56.3076 14.272 56.5762 14.1768 56.9033 14.1768C57.2354 14.1768 57.5039 14.272 57.709 14.4624C57.9189 14.6479 58.0239 14.8872 58.0239 15.1802C58.0239 15.4731 57.9189 15.7148 57.709 15.9053C57.5039 16.0908 57.2354 16.1836 56.9033 16.1836ZM60.0674 25.5V17.4873H61.8179V18.769H61.9424C62.1377 18.3101 62.4355 17.9561 62.8359 17.707C63.2412 17.4531 63.7368 17.3262 64.3228 17.3262C65.2114 17.3262 65.8926 17.585 66.3662 18.1025C66.8447 18.6201 67.084 19.3574 67.084 20.3145V25.5H65.2676V20.7466C65.2676 19.521 64.728 18.9082 63.6489 18.9082C63.1069 18.9082 62.6772 19.0815 62.3599 19.4282C62.0425 19.7749 61.8838 20.2437 61.8838 20.8345V25.5H60.0674ZM69.0542 19.7798C69.0542 19.0571 69.3521 18.4688 69.9478 18.0146C70.5435 17.5557 71.3149 17.3262 72.2622 17.3262C73.2144 17.3262 73.9736 17.5288 74.54 17.9341C75.1113 18.3345 75.4287 18.8984 75.4922 19.626H73.7856C73.7173 19.3379 73.5513 19.1133 73.2876 18.9521C73.0288 18.7861 72.6895 18.7031 72.2695 18.7031C71.8496 18.7031 71.5029 18.7935 71.2295 18.9741C70.9561 19.1548 70.8193 19.3892 70.8193 19.6772C70.8193 19.9019 70.9146 20.0874 71.105 20.2339C71.3003 20.3804 71.6006 20.5 72.0059 20.5928L73.4194 20.915C74.1909 21.0908 74.7573 21.3521 75.1187 21.6987C75.48 22.0454 75.6606 22.5117 75.6606 23.0977C75.6606 23.8643 75.3433 24.4844 74.7085 24.958C74.0737 25.4268 73.2534 25.6611 72.2476 25.6611C71.2466 25.6611 70.4458 25.4561 69.8452 25.0459C69.2495 24.6357 68.9175 24.0669 68.8491 23.3394H70.6436C70.7314 23.6421 70.9146 23.8765 71.1929 24.0425C71.4761 24.2036 71.8423 24.2842 72.2915 24.2842C72.7505 24.2842 73.124 24.1938 73.4121 24.0132C73.7002 23.8276 73.8442 23.5859 73.8442 23.2881C73.8442 22.8438 73.4756 22.541 72.7383 22.3799L71.3174 22.0503C70.5459 21.8745 69.9746 21.6035 69.6035 21.2373C69.2373 20.8662 69.0542 20.3804 69.0542 19.7798ZM78.6709 28.2979H77.4185L78.0996 23.874H79.938L78.6709 28.2979ZM86.625 14.9312H90.8877C91.9424 14.9312 92.7969 15.2607 93.4512 15.9199C94.1104 16.5791 94.4399 17.4409 94.4399 18.5054C94.4399 19.5503 94.1006 20.3999 93.4219 21.0542C92.748 21.7085 91.8765 22.0356 90.8071 22.0356H88.5146V25.5H86.625V14.9312ZM88.5146 16.5132V20.4683H90.3823C91.061 20.4683 91.5859 20.2974 91.957 19.9556C92.333 19.6138 92.521 19.1304 92.521 18.5054C92.521 17.8608 92.3354 17.3677 91.9644 17.0259C91.5981 16.6841 91.0732 16.5132 90.3896 16.5132H88.5146ZM98.7832 24.2036C99.3301 24.2036 99.7866 24.0474 100.153 23.7349C100.519 23.4175 100.702 23.0269 100.702 22.563V21.9258L98.8931 22.043C97.897 22.1064 97.3989 22.4678 97.3989 23.127C97.3989 23.459 97.5259 23.7227 97.7798 23.918C98.0386 24.1084 98.373 24.2036 98.7832 24.2036ZM98.2485 25.6318C97.4673 25.6318 96.8301 25.4121 96.3369 24.9727C95.8438 24.5332 95.5972 23.9521 95.5972 23.2295C95.5972 22.5068 95.8584 21.9404 96.3809 21.5303C96.9082 21.1201 97.6602 20.8857 98.6367 20.8271L100.702 20.7026V20.0288C100.702 19.6333 100.573 19.3306 100.314 19.1206C100.055 18.9106 99.6816 18.8057 99.1934 18.8057C98.7734 18.8057 98.4268 18.8789 98.1533 19.0254C97.8799 19.167 97.7017 19.3721 97.6187 19.6406H95.9048C95.978 18.9326 96.3198 18.3711 96.9302 17.9561C97.5454 17.5361 98.3291 17.3262 99.2812 17.3262C100.307 17.3262 101.098 17.563 101.654 18.0366C102.216 18.5103 102.497 19.1743 102.497 20.0288V25.5H100.746V24.4014H100.622C100.397 24.7871 100.075 25.0898 99.6548 25.3096C99.2397 25.5244 98.771 25.6318 98.2485 25.6318ZM104.503 19.7798C104.503 19.0571 104.801 18.4688 105.397 18.0146C105.993 17.5557 106.764 17.3262 107.711 17.3262C108.664 17.3262 109.423 17.5288 109.989 17.9341C110.561 18.3345 110.878 18.8984 110.941 19.626H109.235C109.167 19.3379 109 19.1133 108.737 18.9521C108.478 18.7861 108.139 18.7031 107.719 18.7031C107.299 18.7031 106.952 18.7935 106.679 18.9741C106.405 19.1548 106.269 19.3892 106.269 19.6772C106.269 19.9019 106.364 20.0874 106.554 20.2339C106.75 20.3804 107.05 20.5 107.455 20.5928L108.869 20.915C109.64 21.0908 110.207 21.3521 110.568 21.6987C110.929 22.0454 111.11 22.5117 111.11 23.0977C111.11 23.8643 110.792 24.4844 110.158 24.958C109.523 25.4268 108.703 25.6611 107.697 25.6611C106.696 25.6611 105.895 25.4561 105.294 25.0459C104.699 24.6357 104.367 24.0669 104.298 23.3394H106.093C106.181 23.6421 106.364 23.8765 106.642 24.0425C106.925 24.2036 107.292 24.2842 107.741 24.2842C108.2 24.2842 108.573 24.1938 108.861 24.0132C109.149 23.8276 109.293 23.5859 109.293 23.2881C109.293 22.8438 108.925 22.541 108.188 22.3799L106.767 22.0503C105.995 21.8745 105.424 21.6035 105.053 21.2373C104.687 20.8662 104.503 20.3804 104.503 19.7798ZM113.468 15.5244H115.277V17.5386H116.991V18.9888H115.277V22.9219C115.277 23.3174 115.365 23.6079 115.541 23.7935C115.717 23.9741 115.995 24.0645 116.376 24.0645C116.542 24.0645 116.747 24.0522 116.991 24.0278V25.4487C116.688 25.5073 116.371 25.5366 116.039 25.5366C115.121 25.5366 114.462 25.3682 114.062 25.0312C113.666 24.6943 113.468 24.1377 113.468 23.3613V18.9888H112.201V17.5386H113.468V15.5244ZM121.547 24.2036C122.094 24.2036 122.55 24.0474 122.917 23.7349C123.283 23.4175 123.466 23.0269 123.466 22.563V21.9258L121.657 22.043C120.661 22.1064 120.163 22.4678 120.163 23.127C120.163 23.459 120.29 23.7227 120.543 23.918C120.802 24.1084 121.137 24.2036 121.547 24.2036ZM121.012 25.6318C120.231 25.6318 119.594 25.4121 119.101 24.9727C118.607 24.5332 118.361 23.9521 118.361 23.2295C118.361 22.5068 118.622 21.9404 119.145 21.5303C119.672 21.1201 120.424 20.8857 121.4 20.8271L123.466 20.7026V20.0288C123.466 19.6333 123.336 19.3306 123.078 19.1206C122.819 18.9106 122.445 18.8057 121.957 18.8057C121.537 18.8057 121.19 18.8789 120.917 19.0254C120.644 19.167 120.465 19.3721 120.382 19.6406H118.668C118.742 18.9326 119.083 18.3711 119.694 17.9561C120.309 17.5361 121.093 17.3262 122.045 17.3262C123.07 17.3262 123.861 17.563 124.418 18.0366C124.979 18.5103 125.26 19.1743 125.26 20.0288V25.5H123.51V24.4014H123.385C123.161 24.7871 122.838 25.0898 122.418 25.3096C122.003 25.5244 121.535 25.6318 121.012 25.6318ZM139 25.5L138.129 24.5698C137.714 24.9263 137.216 25.2046 136.635 25.4048C136.054 25.6001 135.441 25.6978 134.796 25.6978C133.698 25.6978 132.814 25.4268 132.145 24.8848C131.476 24.3379 131.142 23.6152 131.142 22.7168C131.142 22.1064 131.305 21.5693 131.632 21.1055C131.959 20.6416 132.467 20.2241 133.156 19.853C133.175 19.8433 133.246 19.8042 133.368 19.7358C133.495 19.6675 133.573 19.626 133.603 19.6113C133.124 19.1133 132.785 18.6787 132.584 18.3076C132.384 17.9365 132.284 17.5581 132.284 17.1724C132.284 16.4692 132.558 15.8882 133.104 15.4292C133.656 14.9653 134.347 14.7334 135.177 14.7334C136.012 14.7334 136.698 14.9604 137.235 15.4146C137.772 15.8638 138.041 16.4424 138.041 17.1504C138.041 17.6924 137.865 18.1855 137.514 18.6299C137.162 19.0693 136.605 19.4917 135.844 19.897L138.092 22.2773C138.371 21.7598 138.51 21.0054 138.51 20.0142V19.6187H140.099V20.1021C140.099 21.4985 139.804 22.6216 139.213 23.4712L141.125 25.5H139ZM134.174 20.8052C133.319 21.2593 132.892 21.8477 132.892 22.5703C132.892 23.0781 133.083 23.4907 133.463 23.8081C133.849 24.1206 134.354 24.2769 134.979 24.2769C135.399 24.2769 135.802 24.2036 136.188 24.0571C136.579 23.9106 136.894 23.7129 137.133 23.4639L134.503 20.644C134.411 20.6782 134.301 20.7319 134.174 20.8052ZM134.95 18.9741C135.492 18.7007 135.878 18.4321 136.107 18.1685C136.342 17.9048 136.459 17.6045 136.459 17.2676C136.459 16.9062 136.339 16.6133 136.1 16.3887C135.866 16.1641 135.561 16.0518 135.185 16.0518C134.813 16.0518 134.508 16.1665 134.269 16.396C134.035 16.6206 133.917 16.9111 133.917 17.2676C133.917 17.5264 133.993 17.7827 134.145 18.0366C134.301 18.2905 134.569 18.603 134.95 18.9741ZM146.142 22.6289H147.987C148.046 23.1025 148.292 23.481 148.727 23.7642C149.162 24.0425 149.713 24.1816 150.382 24.1816C151.007 24.1816 151.52 24.04 151.92 23.7568C152.326 23.4688 152.528 23.1025 152.528 22.6582C152.528 22.2773 152.375 21.9673 152.067 21.728C151.764 21.4888 151.273 21.291 150.595 21.1348L149.225 20.8198C148.268 20.605 147.558 20.2559 147.094 19.7725C146.635 19.2842 146.405 18.647 146.405 17.8608C146.405 16.8989 146.764 16.1274 147.482 15.5464C148.205 14.9604 149.157 14.6675 150.338 14.6675C151.447 14.6675 152.365 14.9556 153.092 15.5317C153.82 16.1079 154.206 16.8501 154.25 17.7583H152.44C152.377 17.2944 152.155 16.9258 151.774 16.6523C151.393 16.3789 150.912 16.2422 150.331 16.2422C149.721 16.2422 149.23 16.3789 148.859 16.6523C148.493 16.9209 148.31 17.2798 148.31 17.729C148.31 18.0854 148.454 18.376 148.742 18.6006C149.03 18.8203 149.501 19.0059 150.155 19.1572L151.371 19.4355C152.44 19.6748 153.214 20.0312 153.693 20.5049C154.176 20.9785 154.418 21.6182 154.418 22.4238C154.418 23.4541 154.044 24.2695 153.297 24.8701C152.555 25.4658 151.544 25.7637 150.265 25.7637C149.054 25.7637 148.075 25.4805 147.328 24.9141C146.586 24.3477 146.19 23.5859 146.142 22.6289ZM156.374 25.5V17.4873H158.183V25.5H156.374ZM157.274 16.1836C156.947 16.1836 156.679 16.0908 156.469 15.9053C156.259 15.7148 156.154 15.4731 156.154 15.1802C156.154 14.8872 156.259 14.6479 156.469 14.4624C156.679 14.272 156.947 14.1768 157.274 14.1768C157.606 14.1768 157.875 14.272 158.08 14.4624C158.29 14.6479 158.395 14.8872 158.395 15.1802C158.395 15.4731 158.29 15.7148 158.08 15.9053C157.875 16.0908 157.606 16.1836 157.274 16.1836ZM163.339 25.6318C162.323 25.6318 161.52 25.2607 160.929 24.5186C160.338 23.7715 160.043 22.7607 160.043 21.4863C160.043 20.2217 160.338 19.2183 160.929 18.4761C161.525 17.729 162.328 17.3555 163.339 17.3555C163.886 17.3555 164.374 17.48 164.804 17.729C165.233 17.978 165.556 18.3223 165.771 18.7617H165.895V14.3892H167.711V25.5H165.954V24.2329H165.829C165.6 24.6724 165.265 25.0166 164.826 25.2656C164.391 25.5098 163.896 25.6318 163.339 25.6318ZM165.375 19.5967C165.014 19.1328 164.523 18.9009 163.903 18.9009C163.283 18.9009 162.794 19.1328 162.438 19.5967C162.082 20.0557 161.903 20.688 161.903 21.4937C161.903 22.3042 162.079 22.939 162.431 23.3979C162.787 23.8569 163.278 24.0864 163.903 24.0864C164.528 24.0864 165.019 23.8569 165.375 23.3979C165.736 22.9341 165.917 22.2993 165.917 21.4937C165.917 20.6929 165.736 20.0605 165.375 19.5967ZM173.366 18.769C172.824 18.769 172.377 18.9473 172.025 19.3037C171.674 19.6602 171.479 20.1313 171.439 20.7173H175.211C175.192 20.1216 175.016 19.6479 174.684 19.2964C174.352 18.9448 173.913 18.769 173.366 18.769ZM175.226 23.2954H176.947C176.776 24.0278 176.374 24.6064 175.739 25.0312C175.109 25.4512 174.325 25.6611 173.388 25.6611C172.211 25.6611 171.286 25.2949 170.612 24.5625C169.943 23.8252 169.608 22.812 169.608 21.5229C169.608 20.2339 169.945 19.2134 170.619 18.4614C171.293 17.7046 172.211 17.3262 173.373 17.3262C174.516 17.3262 175.409 17.6851 176.054 18.4028C176.703 19.1157 177.028 20.1045 177.028 21.3691V21.9551H171.432V22.0503C171.457 22.7192 171.647 23.249 172.003 23.6396C172.365 24.0254 172.843 24.2183 173.439 24.2183C174.357 24.2183 174.953 23.9106 175.226 23.2954ZM178.668 19.7798C178.668 19.0571 178.966 18.4688 179.562 18.0146C180.158 17.5557 180.929 17.3262 181.876 17.3262C182.829 17.3262 183.588 17.5288 184.154 17.9341C184.726 18.3345 185.043 18.8984 185.106 19.626H183.4C183.332 19.3379 183.166 19.1133 182.902 18.9521C182.643 18.7861 182.304 18.7031 181.884 18.7031C181.464 18.7031 181.117 18.7935 180.844 18.9741C180.57 19.1548 180.434 19.3892 180.434 19.6772C180.434 19.9019 180.529 20.0874 180.719 20.2339C180.915 20.3804 181.215 20.5 181.62 20.5928L183.034 20.915C183.805 21.0908 184.372 21.3521 184.733 21.6987C185.094 22.0454 185.275 22.5117 185.275 23.0977C185.275 23.8643 184.958 24.4844 184.323 24.958C183.688 25.4268 182.868 25.6611 181.862 25.6611C180.861 25.6611 180.06 25.4561 179.459 25.0459C178.864 24.6357 178.532 24.0669 178.463 23.3394H180.258C180.346 23.6421 180.529 23.8765 180.807 24.0425C181.09 24.2036 181.457 24.2842 181.906 24.2842C182.365 24.2842 182.738 24.1938 183.026 24.0132C183.314 23.8276 183.458 23.5859 183.458 23.2881C183.458 22.8438 183.09 22.541 182.353 22.3799L180.932 22.0503C180.16 21.8745 179.589 21.6035 179.218 21.2373C178.852 20.8662 178.668 20.3804 178.668 19.7798Z" fill="white"/>
</g>
<defs>
<filter id="filter0_d_253_36664" x="-28" y="0" width="250" height="48" filterUnits="userSpaceOnUse" color-interpolation-filters="sRGB">
<feFlood flood-opacity="0" result="BackgroundImageFix"/>
<feColorMatrix in="SourceAlpha" type="matrix" values="0 0 0 0 0 0 0 0 0 0 0 0 0 0 0 0 0 0 127 0" result="hardAlpha"/>
<feMorphology radius="6" operator="dilate" in="SourceAlpha" result="effect1_dropShadow_253_36664"/>
<feOffset dy="4"/>
<feGaussianBlur stdDeviation="1"/>
<feComposite in2="hardAlpha" operator="out"/>
<feColorMatrix type="matrix" values="0 0 0 0 0.376645 0 0 0 0 0.306931 0 0 0 0 0.408333 0 0 0 0.5 0"/>
<feBlend mode="normal" in2="BackgroundImageFix" result="effect1_dropShadow_253_36664"/>
<feBlend mode="normal" in="SourceGraphic" in2="effect1_dropShadow_253_36664" result="shape"/>
</filter>
</defs>
</svg>
