<svg width="174" height="48" viewBox="0 0 174 48" fill="none" xmlns="http://www.w3.org/2000/svg">
<g filter="url(#filter0_d_1928_113665)">
<path d="M-68 4H139.333C145.533 4 148.633 4 151.176 4.68148C158.078 6.53083 163.469 11.9218 165.319 18.8236C166 21.367 166 24.4669 166 30.6667C166 31.9066 166 32.5266 165.864 33.0353C165.494 34.4156 164.416 35.4938 163.035 35.8637C162.527 36 161.907 36 160.667 36H-68V4Z" fill="#58B368" shape-rendering="crispEdges"/>
<path d="M73.8765 23.9584V26H65.3254V12.7889H73.8765V14.8306H67.6875V18.337H73.5377V20.2596H67.6875V23.9584H73.8765ZM70.7179 11.4889H68.4291L71.0658 8.65076H73.6567L70.7179 11.4889ZM82.0247 15.8193C83.2942 15.8193 84.2982 16.2802 85.0367 17.2018C85.7814 18.1234 86.1537 19.3868 86.1537 20.9921C86.1537 22.5912 85.7844 23.8546 85.0459 24.7823C84.3135 25.704 83.3156 26.1648 82.0521 26.1648C81.338 26.1648 80.7124 26.0183 80.1753 25.7253C79.6443 25.4263 79.2506 25.0112 78.9943 24.4802H78.8386V29.3325H76.5681V15.9841H78.7562V17.6412H78.9119C79.1987 17.0736 79.6168 16.6281 80.1661 16.3046C80.7216 15.9811 81.3411 15.8193 82.0247 15.8193ZM81.3105 24.233C82.0979 24.233 82.7113 23.9462 83.1508 23.3724C83.5963 22.7987 83.8191 22.0052 83.8191 20.9921C83.8191 19.9789 83.5963 19.1854 83.1508 18.6117C82.7113 18.038 82.101 17.7511 81.3197 17.7511C80.5446 17.7511 79.9312 18.041 79.4795 18.6208C79.0278 19.2007 78.799 19.9911 78.7928 20.9921C78.799 21.993 79.0248 22.7834 79.4703 23.3633C79.922 23.9431 80.5354 24.233 81.3105 24.233ZM88.4608 26V15.9841H90.7222V26H88.4608ZM89.5869 14.3545C89.178 14.3545 88.8423 14.2385 88.5798 14.0066C88.3174 13.7686 88.1862 13.4664 88.1862 13.1002C88.1862 12.734 88.3174 12.4349 88.5798 12.203C88.8423 11.965 89.178 11.8459 89.5869 11.8459C90.002 11.8459 90.3376 11.965 90.594 12.203C90.8564 12.4349 90.9877 12.734 90.9877 13.1002C90.9877 13.4664 90.8564 13.7686 90.594 14.0066C90.3376 14.2385 90.002 14.3545 89.5869 14.3545ZM102.194 19.3533H100.033C99.9232 18.8467 99.6791 18.4438 99.3007 18.1448C98.9222 17.8396 98.4309 17.687 97.8267 17.687C97.0454 17.687 96.4351 17.9739 95.9956 18.5476C95.5623 19.1213 95.3456 19.927 95.3456 20.9646C95.3456 22.0144 95.5653 22.8323 96.0048 23.4182C96.4442 24.0042 97.0515 24.2971 97.8267 24.2971C98.4187 24.2971 98.9039 24.1598 99.2823 23.8851C99.6669 23.6105 99.9171 23.2137 100.033 22.6949H102.194C102.066 23.7631 101.617 24.6145 100.848 25.2493C100.085 25.884 99.0809 26.2014 97.8358 26.2014C96.3282 26.2014 95.1533 25.7406 94.311 24.819C93.4688 23.8973 93.0476 22.6125 93.0476 20.9646C93.0476 19.335 93.4688 18.0654 94.311 17.156C95.1533 16.2405 96.3252 15.7827 97.8267 15.7827C99.084 15.7827 100.094 16.1093 100.857 16.7623C101.626 17.4093 102.072 18.2729 102.194 19.3533ZM108.566 17.5863C107.888 17.5863 107.33 17.8091 106.89 18.2546C106.451 18.7002 106.207 19.2892 106.158 20.0216H110.873C110.849 19.277 110.629 18.6849 110.214 18.2455C109.799 17.806 109.249 17.5863 108.566 17.5863ZM110.891 23.2443H113.043C112.829 24.1598 112.326 24.8831 111.532 25.4141C110.745 25.939 109.765 26.2014 108.593 26.2014C107.122 26.2014 105.966 25.7437 105.123 24.8281C104.287 23.9065 103.869 22.64 103.869 21.0287C103.869 19.4174 104.29 18.1417 105.133 17.2018C105.975 16.2557 107.122 15.7827 108.575 15.7827C110.003 15.7827 111.12 16.2313 111.926 17.1285C112.738 18.0197 113.143 19.2556 113.143 20.8364V21.5688H106.149V21.6879C106.179 22.524 106.417 23.1863 106.863 23.6746C107.315 24.1567 107.913 24.3978 108.657 24.3978C109.805 24.3978 110.549 24.0133 110.891 23.2443ZM115.423 26V15.9841H117.611V17.5405H117.767C117.907 17.04 118.222 16.6281 118.71 16.3046C119.204 15.9811 119.772 15.8193 120.413 15.8193C120.822 15.8193 121.136 15.8529 121.356 15.92V18.0258C121.124 17.9403 120.736 17.8976 120.193 17.8976C119.454 17.8976 118.853 18.1112 118.389 18.5385C117.926 18.9596 117.694 19.5181 117.694 20.2139V26H115.423ZM123.251 26V15.9841H125.512V26H123.251ZM124.377 14.3545C123.968 14.3545 123.632 14.2385 123.37 14.0066C123.107 13.7686 122.976 13.4664 122.976 13.1002C122.976 12.734 123.107 12.4349 123.37 12.203C123.632 11.965 123.968 11.8459 124.377 11.8459C124.792 11.8459 125.128 11.965 125.384 12.203C125.646 12.4349 125.778 12.734 125.778 13.1002C125.778 13.4664 125.646 13.7686 125.384 14.0066C125.128 14.2385 124.792 14.3545 124.377 14.3545ZM132.534 17.5863C131.857 17.5863 131.298 17.8091 130.859 18.2546C130.419 18.7002 130.175 19.2892 130.126 20.0216H134.841C134.817 19.277 134.597 18.6849 134.182 18.2455C133.767 17.806 133.218 17.5863 132.534 17.5863ZM134.86 23.2443H137.011C136.798 24.1598 136.294 24.8831 135.501 25.4141C134.713 25.939 133.734 26.2014 132.562 26.2014C131.091 26.2014 129.934 25.7437 129.092 24.8281C128.256 23.9065 127.838 22.64 127.838 21.0287C127.838 19.4174 128.259 18.1417 129.101 17.2018C129.943 16.2557 131.091 15.7827 132.543 15.7827C133.972 15.7827 135.089 16.2313 135.894 17.1285C136.706 18.0197 137.112 19.2556 137.112 20.8364V21.5688H130.117V21.6879C130.148 22.524 130.386 23.1863 130.831 23.6746C131.283 24.1567 131.881 24.3978 132.626 24.3978C133.773 24.3978 134.518 24.0133 134.86 23.2443Z" fill="white"/>
</g>
<defs>
<filter id="filter0_d_1928_113665" x="-76" y="0" width="250" height="48" filterUnits="userSpaceOnUse" color-interpolation-filters="sRGB">
<feFlood flood-opacity="0" result="BackgroundImageFix"/>
<feColorMatrix in="SourceAlpha" type="matrix" values="0 0 0 0 0 0 0 0 0 0 0 0 0 0 0 0 0 0 127 0" result="hardAlpha"/>
<feMorphology radius="6" operator="dilate" in="SourceAlpha" result="effect1_dropShadow_1928_113665"/>
<feOffset dy="4"/>
<feGaussianBlur stdDeviation="1"/>
<feComposite in2="hardAlpha" operator="out"/>
<feColorMatrix type="matrix" values="0 0 0 0 0.376645 0 0 0 0 0.306931 0 0 0 0 0.408333 0 0 0 0.5 0"/>
<feBlend mode="normal" in2="BackgroundImageFix" result="effect1_dropShadow_1928_113665"/>
<feBlend mode="normal" in="SourceGraphic" in2="effect1_dropShadow_1928_113665" result="shape"/>
</filter>
</defs>
</svg>
