<svg width="258" height="48" viewBox="0 0 258 48" fill="none" xmlns="http://www.w3.org/2000/svg">
<g filter="url(#filter0_d_1928_114429)">
<path d="M0 4H223.333C229.533 4 232.633 4 235.176 4.68148C242.078 6.53083 247.469 11.9218 249.319 18.8236C250 21.367 250 24.4669 250 30.6667C250 31.9066 250 32.5266 249.864 33.0353C249.494 34.4156 248.416 35.4938 247.035 35.8637C246.527 36 245.907 36 244.667 36H0V4Z" fill="#58B368" shape-rendering="crispEdges"/>
<path d="M31.1858 23.9309V26H22.7629V12.7889H25.125V23.9309H31.1858ZM37.2374 17.5863C36.5599 17.5863 36.0015 17.8091 35.562 18.2546C35.1226 18.7002 34.8784 19.2892 34.8296 20.0216H39.5446C39.5201 19.277 39.3004 18.6849 38.8854 18.2455C38.4703 17.806 37.921 17.5863 37.2374 17.5863ZM39.5629 23.2443H41.7144C41.5007 24.1598 40.9972 24.8831 40.2037 25.4141C39.4164 25.939 38.4368 26.2014 37.2649 26.2014C35.7939 26.2014 34.6373 25.7437 33.795 24.8281C32.9589 23.9065 32.5408 22.64 32.5408 21.0287C32.5408 19.4174 32.9619 18.1417 33.8042 17.2018C34.6465 16.2557 35.7939 15.7827 37.2466 15.7827C38.6748 15.7827 39.7917 16.2313 40.5974 17.1285C41.4092 18.0197 41.8151 19.2556 41.8151 20.8364V21.5688H34.8204V21.6879C34.851 22.524 35.089 23.1863 35.5345 23.6746C35.9862 24.1567 36.5844 24.3978 37.329 24.3978C38.4764 24.3978 39.2211 24.0133 39.5629 23.2443ZM49.6611 26.1648C48.9592 26.1648 48.3336 26.0122 47.7843 25.707C47.235 25.3958 46.8169 24.9655 46.53 24.4161H46.3744V26H44.1863V12.1115H46.4568V17.5771H46.6124C46.8749 17.0339 47.2777 16.6067 47.8209 16.2954C48.3641 15.978 48.9775 15.8193 49.6611 15.8193C50.9307 15.8193 51.9316 16.2832 52.6641 17.2109C53.4026 18.1326 53.7719 19.3929 53.7719 20.9921C53.7719 22.5851 53.4026 23.8455 52.6641 24.7732C51.9255 25.7009 50.9246 26.1648 49.6611 26.1648ZM50.7689 18.6208C50.3295 18.041 49.7222 17.7511 48.947 17.7511C48.1719 17.7511 47.5554 18.0441 47.0977 18.63C46.646 19.2098 46.4202 19.9972 46.4202 20.9921C46.4202 21.993 46.646 22.7834 47.0977 23.3633C47.5554 23.9431 48.1719 24.233 48.947 24.233C49.7222 24.233 50.3295 23.9462 50.7689 23.3724C51.2145 22.7926 51.4373 21.9991 51.4373 20.9921C51.4373 19.985 51.2145 19.1946 50.7689 18.6208ZM60.2538 17.5863C59.5763 17.5863 59.0178 17.8091 58.5784 18.2546C58.1389 18.7002 57.8948 19.2892 57.8459 20.0216H62.5609C62.5365 19.277 62.3168 18.6849 61.9017 18.2455C61.4867 17.806 60.9374 17.5863 60.2538 17.5863ZM62.5792 23.2443H64.7307C64.5171 24.1598 64.0135 24.8831 63.2201 25.4141C62.4327 25.939 61.4531 26.2014 60.2812 26.2014C58.8103 26.2014 57.6537 25.7437 56.8114 24.8281C55.9752 23.9065 55.5571 22.64 55.5571 21.0287C55.5571 19.4174 55.9783 18.1417 56.8206 17.2018C57.6628 16.2557 58.8103 15.7827 60.2629 15.7827C61.6912 15.7827 62.8081 16.2313 63.6138 17.1285C64.4255 18.0197 64.8314 19.2556 64.8314 20.8364V21.5688H57.8368V21.6879C57.8673 22.524 58.1053 23.1863 58.5509 23.6746C59.0026 24.1567 59.6007 24.3978 60.3453 24.3978C61.4928 24.3978 62.2374 24.0133 62.5792 23.2443ZM67.1111 26V15.9841H69.2992V17.5863H69.4548C69.699 17.0126 70.0713 16.5701 70.5718 16.2588C71.0784 15.9414 71.6979 15.7827 72.4303 15.7827C73.5411 15.7827 74.3926 16.1062 74.9846 16.7532C75.5828 17.4001 75.8818 18.3218 75.8818 19.5181V26H73.6113V20.0582C73.6113 18.5262 72.9369 17.7603 71.588 17.7603C70.9105 17.7603 70.3734 17.9769 69.9767 18.4103C69.58 18.8436 69.3816 19.4296 69.3816 20.1681V26H67.1111ZM78.3446 18.8497C78.3446 17.9464 78.7169 17.2109 79.4615 16.6433C80.2062 16.0696 81.1705 15.7827 82.3546 15.7827C83.5448 15.7827 84.4939 16.036 85.2019 16.5426C85.916 17.0431 86.3127 17.748 86.3921 18.6575H84.2589C84.1735 18.2974 83.9659 18.0166 83.6364 17.8152C83.3129 17.6077 82.8887 17.5039 82.3638 17.5039C81.8389 17.5039 81.4055 17.6168 81.0637 17.8427C80.7219 18.0685 80.551 18.3615 80.551 18.7216C80.551 19.0023 80.67 19.2343 80.9081 19.4174C81.1522 19.6005 81.5276 19.75 82.0342 19.866L83.8011 20.2688C84.7655 20.4885 85.4735 20.8151 85.9252 21.2484C86.3768 21.6818 86.6027 22.2646 86.6027 22.9971C86.6027 23.9553 86.2059 24.7305 85.4125 25.3225C84.619 25.9084 83.5936 26.2014 82.3363 26.2014C81.0851 26.2014 80.0841 25.9451 79.3334 25.4324C78.5887 24.9197 78.1737 24.2086 78.0883 23.2992H80.3313C80.4412 23.6776 80.67 23.9706 81.0179 24.1781C81.3719 24.3795 81.8297 24.4802 82.3912 24.4802C82.965 24.4802 83.4319 24.3673 83.792 24.1415C84.1521 23.9095 84.3322 23.6074 84.3322 23.2351C84.3322 22.6797 83.8713 22.3013 82.9497 22.0999L81.1736 21.6879C80.2092 21.4681 79.4951 21.1294 79.0312 20.6716C78.5735 20.2078 78.3446 19.6005 78.3446 18.8497ZM88.9006 26V15.9841H91.0887V17.6046H91.2444C91.458 17.0309 91.809 16.5853 92.2972 16.2679C92.7855 15.9445 93.3623 15.7827 94.0276 15.7827C94.7051 15.7827 95.2819 15.9445 95.7579 16.2679C96.234 16.5853 96.5789 17.0309 96.7925 17.6046H96.9481C97.1984 17.0492 97.5951 16.6067 98.1383 16.2771C98.6815 15.9475 99.298 15.7827 99.9877 15.7827C100.989 15.7827 101.773 16.0787 102.341 16.6708C102.914 17.2628 103.201 18.0776 103.201 19.1152V26H100.94V19.692C100.94 18.4042 100.329 17.7603 99.1088 17.7603C98.5228 17.7603 98.0498 17.9495 97.6897 18.3279C97.3296 18.7063 97.1495 19.1854 97.1495 19.7653V26H94.9431V19.5272C94.9431 18.9779 94.7814 18.5476 94.4579 18.2363C94.1344 17.9189 93.6919 17.7603 93.1304 17.7603C92.5688 17.7603 92.1019 17.9647 91.7296 18.3737C91.3573 18.7826 91.1711 19.2953 91.1711 19.9117V26H88.9006ZM105.92 26V15.9841H108.182V26H105.92ZM107.046 14.3545C106.637 14.3545 106.302 14.2385 106.039 14.0066C105.777 13.7686 105.646 13.4664 105.646 13.1002C105.646 12.734 105.777 12.4349 106.039 12.203C106.302 11.965 106.637 11.8459 107.046 11.8459C107.461 11.8459 107.797 11.965 108.053 12.203C108.316 12.4349 108.447 12.734 108.447 13.1002C108.447 13.4664 108.316 13.7686 108.053 14.0066C107.797 14.2385 107.461 14.3545 107.046 14.3545ZM111.725 13.5305H113.986V16.0482H116.128V17.861H113.986V22.7773C113.986 23.2717 114.096 23.6349 114.316 23.8668C114.535 24.0927 114.883 24.2056 115.359 24.2056C115.567 24.2056 115.823 24.1903 116.128 24.1598V25.9359C115.75 26.0092 115.353 26.0458 114.938 26.0458C113.791 26.0458 112.967 25.8352 112.466 25.4141C111.972 24.9929 111.725 24.2971 111.725 23.3267V17.861H110.141V16.0482H111.725V13.5305ZM119.177 13.5305H121.438V16.0482H123.581V17.861H121.438V22.7773C121.438 23.2717 121.548 23.6349 121.768 23.8668C121.988 24.0927 122.336 24.2056 122.812 24.2056C123.019 24.2056 123.276 24.1903 123.581 24.1598V25.9359C123.202 26.0092 122.806 26.0458 122.391 26.0458C121.243 26.0458 120.419 25.8352 119.919 25.4141C119.424 24.9929 119.177 24.2971 119.177 23.3267V17.861H117.593V16.0482H119.177V13.5305ZM129.962 17.5863C129.285 17.5863 128.726 17.8091 128.287 18.2546C127.847 18.7002 127.603 19.2892 127.554 20.0216H132.269C132.245 19.277 132.025 18.6849 131.61 18.2455C131.195 17.806 130.646 17.5863 129.962 17.5863ZM132.287 23.2443H134.439C134.225 24.1598 133.722 24.8831 132.928 25.4141C132.141 25.939 131.161 26.2014 129.99 26.2014C128.519 26.2014 127.362 25.7437 126.52 24.8281C125.683 23.9065 125.265 22.64 125.265 21.0287C125.265 19.4174 125.687 18.1417 126.529 17.2018C127.371 16.2557 128.519 15.7827 129.971 15.7827C131.399 15.7827 132.516 16.2313 133.322 17.1285C134.134 18.0197 134.54 19.2556 134.54 20.8364V21.5688H127.545V21.6879C127.576 22.524 127.814 23.1863 128.259 23.6746C128.711 24.1567 129.309 24.3978 130.054 24.3978C131.201 24.3978 131.946 24.0133 132.287 23.2443ZM136.911 26V12.1115H139.181V26H136.911ZM144.528 23.171C144.961 23.7264 145.572 24.0042 146.359 24.0042C147.146 24.0042 147.766 23.7234 148.218 23.1619C148.669 22.6003 148.895 21.8405 148.895 20.8822C148.895 19.924 148.669 19.1641 148.218 18.6025C147.766 18.0349 147.146 17.7511 146.359 17.7511C145.578 17.7511 144.968 18.0319 144.528 18.5934C144.095 19.1549 143.878 19.9178 143.878 20.8822C143.878 21.8466 144.095 22.6095 144.528 23.171ZM146.359 29.8086C145.083 29.8086 144.046 29.5492 143.246 29.0304C142.453 28.5116 142.01 27.8188 141.919 26.9521H144.198C144.272 27.3 144.501 27.5747 144.885 27.7761C145.276 27.9775 145.779 28.0782 146.396 28.0782C147.171 28.0782 147.775 27.9043 148.208 27.5564C148.642 27.2085 148.859 26.7202 148.859 26.0916V24.1964H148.703C148.416 24.7335 148.007 25.1455 147.476 25.4324C146.951 25.7131 146.341 25.8535 145.645 25.8535C144.388 25.8535 143.39 25.4049 142.651 24.5077C141.913 23.6044 141.543 22.3959 141.543 20.8822C141.543 19.3441 141.916 18.1173 142.66 17.2018C143.405 16.2802 144.412 15.8193 145.682 15.8193C146.365 15.8193 146.985 15.978 147.54 16.2954C148.096 16.6128 148.511 17.0431 148.785 17.5863H148.941V15.9841H151.129V26.0366C151.129 27.1963 150.699 28.1149 149.838 28.7924C148.978 29.4698 147.818 29.8086 146.359 29.8086ZM158.124 17.5863C157.446 17.5863 156.888 17.8091 156.448 18.2546C156.009 18.7002 155.765 19.2892 155.716 20.0216H160.431C160.406 19.277 160.187 18.6849 159.772 18.2455C159.357 17.806 158.807 17.5863 158.124 17.5863ZM160.449 23.2443H162.601C162.387 24.1598 161.883 24.8831 161.09 25.4141C160.303 25.939 159.323 26.2014 158.151 26.2014C156.68 26.2014 155.524 25.7437 154.681 24.8281C153.845 23.9065 153.427 22.64 153.427 21.0287C153.427 19.4174 153.848 18.1417 154.69 17.2018C155.533 16.2557 156.68 15.7827 158.133 15.7827C159.561 15.7827 160.678 16.2313 161.484 17.1285C162.295 18.0197 162.701 19.2556 162.701 20.8364V21.5688H155.707V21.6879C155.737 22.524 155.975 23.1863 156.421 23.6746C156.872 24.1567 157.471 24.3978 158.215 24.3978C159.363 24.3978 160.107 24.0133 160.449 23.2443ZM164.752 18.8497C164.752 17.9464 165.124 17.2109 165.869 16.6433C166.614 16.0696 167.578 15.7827 168.762 15.7827C169.952 15.7827 170.901 16.036 171.609 16.5426C172.323 17.0431 172.72 17.748 172.8 18.6575H170.666C170.581 18.2974 170.373 18.0166 170.044 17.8152C169.72 17.6077 169.296 17.5039 168.771 17.5039C168.246 17.5039 167.813 17.6168 167.471 17.8427C167.129 18.0685 166.958 18.3615 166.958 18.7216C166.958 19.0023 167.078 19.2343 167.316 19.4174C167.56 19.6005 167.935 19.75 168.442 19.866L170.209 20.2688C171.173 20.4885 171.881 20.8151 172.333 21.2484C172.784 21.6818 173.01 22.2646 173.01 22.9971C173.01 23.9553 172.613 24.7305 171.82 25.3225C171.026 25.9084 170.001 26.2014 168.744 26.2014C167.493 26.2014 166.492 25.9451 165.741 25.4324C164.996 24.9197 164.581 24.2086 164.496 23.2992H166.739C166.849 23.6776 167.078 23.9706 167.425 24.1781C167.779 24.3795 168.237 24.4802 168.799 24.4802C169.372 24.4802 169.839 24.3673 170.199 24.1415C170.56 23.9095 170.74 23.6074 170.74 23.2351C170.74 22.6797 170.279 22.3013 169.357 22.0999L167.581 21.6879C166.617 21.4681 165.903 21.1294 165.439 20.6716C164.981 20.2078 164.752 19.6005 164.752 18.8497ZM183.96 19.3533H181.799C181.689 18.8467 181.445 18.4438 181.067 18.1448C180.688 17.8396 180.197 17.687 179.593 17.687C178.812 17.687 178.201 17.9739 177.762 18.5476C177.328 19.1213 177.112 19.927 177.112 20.9646C177.112 22.0144 177.331 22.8323 177.771 23.4182C178.21 24.0042 178.818 24.2971 179.593 24.2971C180.185 24.2971 180.67 24.1598 181.048 23.8851C181.433 23.6105 181.683 23.2137 181.799 22.6949H183.96C183.832 23.7631 183.383 24.6145 182.614 25.2493C181.851 25.884 180.847 26.2014 179.602 26.2014C178.094 26.2014 176.919 25.7406 176.077 24.819C175.235 23.8973 174.814 22.6125 174.814 20.9646C174.814 19.335 175.235 18.0654 176.077 17.156C176.919 16.2405 178.091 15.7827 179.593 15.7827C180.85 15.7827 181.86 16.1093 182.623 16.7623C183.392 17.4093 183.838 18.2729 183.96 19.3533ZM186.221 26V12.1115H188.455V17.6046H188.62C188.858 17.037 189.239 16.5945 189.764 16.2771C190.289 15.9597 190.921 15.801 191.659 15.801C192.74 15.801 193.582 16.1276 194.186 16.7806C194.797 17.4337 195.102 18.3523 195.102 19.5364V26H192.831V20.0765C192.831 19.3197 192.66 18.749 192.319 18.3645C191.977 17.9739 191.476 17.7786 190.817 17.7786C190.085 17.7786 189.514 17.9983 189.105 18.4377C188.696 18.8711 188.492 19.454 188.492 20.1864V26H186.221ZM201.218 24.3795C201.901 24.3795 202.472 24.1842 202.93 23.7936C203.387 23.3969 203.616 22.9086 203.616 22.3287V21.5322L201.355 21.6787C200.11 21.7581 199.487 22.2097 199.487 23.0337C199.487 23.4487 199.646 23.7783 199.963 24.0225C200.287 24.2605 200.705 24.3795 201.218 24.3795ZM200.549 26.1648C199.573 26.1648 198.776 25.8901 198.16 25.3408C197.543 24.7915 197.235 24.0652 197.235 23.1619C197.235 22.2585 197.562 21.5505 198.215 21.0378C198.874 20.5251 199.814 20.2322 201.034 20.1589L203.616 20.0033V19.161C203.616 18.6666 203.454 18.2882 203.131 18.0258C202.807 17.7633 202.341 17.6321 201.73 17.6321C201.205 17.6321 200.772 17.7236 200.43 17.9067C200.088 18.0837 199.866 18.3401 199.762 18.6758H197.62C197.711 17.7908 198.138 17.0889 198.901 16.5701C199.67 16.0452 200.65 15.7827 201.84 15.7827C203.122 15.7827 204.111 16.0787 204.806 16.6708C205.508 17.2628 205.859 18.0929 205.859 19.161V26H203.671V24.6267H203.516C203.235 25.1089 202.832 25.4873 202.307 25.762C201.788 26.0305 201.202 26.1648 200.549 26.1648ZM200.732 14.2629C200.482 14.5071 200.171 14.6292 199.798 14.6292C199.426 14.6292 199.115 14.5071 198.865 14.2629C198.614 14.0127 198.489 13.7045 198.489 13.3383C198.489 12.972 198.614 12.6669 198.865 12.4227C199.115 12.1725 199.426 12.0474 199.798 12.0474C200.171 12.0474 200.482 12.1725 200.732 12.4227C200.983 12.6669 201.108 12.972 201.108 13.3383C201.108 13.7045 200.983 14.0127 200.732 14.2629ZM204.806 14.2629C204.556 14.5071 204.245 14.6292 203.873 14.6292C203.5 14.6292 203.189 14.5071 202.939 14.2629C202.688 14.0127 202.563 13.7045 202.563 13.3383C202.563 12.972 202.688 12.6669 202.939 12.4227C203.189 12.1725 203.5 12.0474 203.873 12.0474C204.245 12.0474 204.556 12.1725 204.806 12.4227C205.057 12.6669 205.182 12.972 205.182 13.3383C205.182 13.7045 205.057 14.0127 204.806 14.2629ZM209.329 26V17.861H207.69V16.0482H209.329V14.9954C209.329 13.9944 209.592 13.2467 210.116 12.7523C210.647 12.2579 211.465 12.0107 212.57 12.0107C213.028 12.0107 213.449 12.0443 213.833 12.1115V13.7777C213.632 13.7472 213.373 13.7319 213.055 13.7319C212.53 13.7319 212.149 13.8479 211.911 14.0798C211.679 14.3057 211.563 14.6597 211.563 15.1418V16.0482H213.742V17.861H211.59V26H209.329ZM216.717 13.5305H218.979V16.0482H221.121V17.861H218.979V22.7773C218.979 23.2717 219.089 23.6349 219.308 23.8668C219.528 24.0927 219.876 24.2056 220.352 24.2056C220.56 24.2056 220.816 24.1903 221.121 24.1598V25.9359C220.743 26.0092 220.346 26.0458 219.931 26.0458C218.783 26.0458 217.959 25.8352 217.459 25.4141C216.965 24.9929 216.717 24.2971 216.717 23.3267V17.861H215.134V16.0482H216.717V13.5305Z" fill="white"/>
</g>
<defs>
<filter id="filter0_d_1928_114429" x="-8" y="0" width="266" height="48" filterUnits="userSpaceOnUse" color-interpolation-filters="sRGB">
<feFlood flood-opacity="0" result="BackgroundImageFix"/>
<feColorMatrix in="SourceAlpha" type="matrix" values="0 0 0 0 0 0 0 0 0 0 0 0 0 0 0 0 0 0 127 0" result="hardAlpha"/>
<feMorphology radius="6" operator="dilate" in="SourceAlpha" result="effect1_dropShadow_1928_114429"/>
<feOffset dy="4"/>
<feGaussianBlur stdDeviation="1"/>
<feComposite in2="hardAlpha" operator="out"/>
<feColorMatrix type="matrix" values="0 0 0 0 0.376645 0 0 0 0 0.306931 0 0 0 0 0.408333 0 0 0 0.5 0"/>
<feBlend mode="normal" in2="BackgroundImageFix" result="effect1_dropShadow_1928_114429"/>
<feBlend mode="normal" in="SourceGraphic" in2="effect1_dropShadow_1928_114429" result="shape"/>
</filter>
</defs>
</svg>
