<svg width="69" height="48" viewBox="0 0 69 48" fill="none" xmlns="http://www.w3.org/2000/svg">
<rect width="68" height="48" transform="translate(0.5)" fill="#DF0404"/>
<path d="M41.7344 32.6768C41.6986 33.5003 41.43 34.1484 40.9287 34.6211C40.4274 35.1009 39.7614 35.3408 38.9307 35.3408H29.0586C28.2279 35.3408 27.5618 35.1045 27.0605 34.6318C26.5592 34.1592 26.2907 33.5111 26.2549 32.6875L25.5244 17.1328H24.5469C24.2747 17.1328 24.0456 17.0397 23.8594 16.8535C23.6732 16.6673 23.5801 16.4417 23.5801 16.1768C23.5801 15.9118 23.6732 15.6898 23.8594 15.5107C24.0456 15.3245 24.2747 15.2314 24.5469 15.2314H29.1016V13.7705C29.1016 12.9398 29.3665 12.2773 29.8965 11.7832C30.4336 11.2891 31.1569 11.042 32.0664 11.042H35.9014C36.8109 11.042 37.5306 11.2891 38.0605 11.7832C38.5977 12.2773 38.8662 12.9398 38.8662 13.7705V15.2314H43.4424C43.7074 15.2314 43.9329 15.3245 44.1191 15.5107C44.3053 15.6898 44.3984 15.9118 44.3984 16.1768C44.3984 16.4417 44.3053 16.6673 44.1191 16.8535C43.9401 17.0397 43.7145 17.1328 43.4424 17.1328H42.4648L41.7344 32.6768ZM31.1211 13.8672L31.1104 15.2314H36.8682L36.8574 13.8672C36.8574 13.5736 36.7572 13.3337 36.5566 13.1475C36.3561 12.9541 36.0983 12.8574 35.7832 12.8574H32.1953C31.8802 12.8574 31.6224 12.9541 31.4219 13.1475C31.2214 13.3337 31.1211 13.5736 31.1211 13.8672ZM29.2842 33.418H38.7051C39.013 33.418 39.2601 33.3177 39.4463 33.1172C39.6396 32.9238 39.7435 32.666 39.7578 32.3438L40.4561 17.1328H27.501L28.2314 32.3438C28.2458 32.6589 28.3496 32.9167 28.543 33.1172C28.7363 33.3177 28.9834 33.418 29.2842 33.418ZM37.1582 31.6455C36.9505 31.6455 36.7786 31.5703 36.6426 31.4199C36.5137 31.2624 36.4528 31.0726 36.46 30.8506L36.7822 19.7754C36.7894 19.5605 36.861 19.3779 36.9971 19.2275C37.1403 19.07 37.305 18.9912 37.4912 18.9912C37.6989 18.9912 37.8672 19.07 37.9961 19.2275C38.1322 19.3779 38.1966 19.5641 38.1895 19.7861L37.8672 30.8613C37.86 31.0905 37.7884 31.2803 37.6523 31.4307C37.5234 31.5739 37.3587 31.6455 37.1582 31.6455ZM30.8311 31.6455C30.6305 31.6455 30.4622 31.5739 30.3262 31.4307C30.1973 31.2803 30.1292 31.0905 30.1221 30.8613L29.7998 19.7861C29.7926 19.5641 29.8535 19.3779 29.9824 19.2275C30.1185 19.07 30.2868 18.9912 30.4873 18.9912C30.6807 18.9912 30.8454 19.07 30.9814 19.2275C31.1247 19.3779 31.1999 19.5605 31.207 19.7754L31.5293 30.8506C31.5365 31.0726 31.472 31.2624 31.3359 31.4199C31.207 31.5703 31.0387 31.6455 30.8311 31.6455ZM34.7197 30.8613C34.7197 31.0762 34.6481 31.2624 34.5049 31.4199C34.3617 31.5703 34.1934 31.6455 34 31.6455C33.7995 31.6455 33.6276 31.5703 33.4844 31.4199C33.3411 31.2624 33.2695 31.0762 33.2695 30.8613V19.7754C33.2695 19.5605 33.3411 19.3779 33.4844 19.2275C33.6276 19.07 33.7995 18.9912 34 18.9912C34.1934 18.9912 34.3617 19.07 34.5049 19.2275C34.6481 19.3779 34.7197 19.5605 34.7197 19.7754V30.8613Z" fill="white"/>
</svg>
