<svg width="24" height="17" viewBox="0 0 24 17" fill="none" xmlns="http://www.w3.org/2000/svg">
<path d="M3.50293 2.7334C3.20931 3.02702 2.85124 3.17383 2.42871 3.17383C2.00618 3.17383 1.64453 3.02702 1.34375 2.7334C1.04297 2.43262 0.892578 2.07096 0.892578 1.64844C0.892578 1.22591 1.04297 0.867839 1.34375 0.574219C1.64453 0.273438 2.00618 0.123047 2.42871 0.123047C2.84408 0.123047 3.20215 0.273438 3.50293 0.574219C3.80371 0.875 3.9541 1.23307 3.9541 1.64844C3.9541 2.07096 3.80371 2.43262 3.50293 2.7334ZM7.47754 2.67969C7.19108 2.67969 6.94759 2.57943 6.74707 2.37891C6.54655 2.17839 6.44629 1.9349 6.44629 1.64844C6.44629 1.36198 6.54655 1.11849 6.74707 0.917969C6.94759 0.717448 7.19108 0.617188 7.47754 0.617188H22.0654C22.3519 0.617188 22.5954 0.717448 22.7959 0.917969C22.9964 1.11849 23.0967 1.36198 23.0967 1.64844C23.0967 1.9349 22.9964 2.17839 22.7959 2.37891C22.5954 2.57943 22.3519 2.67969 22.0654 2.67969H7.47754ZM3.50293 9.33984C3.20931 9.63346 2.85124 9.78027 2.42871 9.78027C2.00618 9.78027 1.64453 9.63346 1.34375 9.33984C1.04297 9.03906 0.892578 8.67741 0.892578 8.25488C0.892578 7.83236 1.04297 7.47428 1.34375 7.18066C1.64453 6.87988 2.00618 6.72949 2.42871 6.72949C2.84408 6.72949 3.20215 6.87988 3.50293 7.18066C3.80371 7.47428 3.9541 7.83236 3.9541 8.25488C3.9541 8.67741 3.80371 9.03906 3.50293 9.33984ZM7.47754 9.28613C7.19108 9.28613 6.94759 9.18945 6.74707 8.99609C6.54655 8.79557 6.44629 8.5485 6.44629 8.25488C6.44629 7.96126 6.54655 7.71777 6.74707 7.52441C6.94759 7.32389 7.19108 7.22363 7.47754 7.22363H22.0654C22.3519 7.22363 22.5954 7.32389 22.7959 7.52441C22.9964 7.71777 23.0967 7.96126 23.0967 8.25488C23.0967 8.5485 22.9964 8.79557 22.7959 8.99609C22.5954 9.18945 22.3519 9.28613 22.0654 9.28613H7.47754ZM3.50293 15.9463C3.20931 16.2399 2.85124 16.3867 2.42871 16.3867C2.00618 16.3867 1.64453 16.2399 1.34375 15.9463C1.04297 15.6455 0.892578 15.2839 0.892578 14.8613C0.892578 14.4388 1.04297 14.0807 1.34375 13.7871C1.64453 13.4863 2.00618 13.3359 2.42871 13.3359C2.84408 13.3359 3.20215 13.4863 3.50293 13.7871C3.80371 14.0879 3.9541 14.446 3.9541 14.8613C3.9541 15.2839 3.80371 15.6455 3.50293 15.9463ZM7.47754 15.8926C7.19108 15.8926 6.94759 15.7923 6.74707 15.5918C6.54655 15.3913 6.44629 15.1478 6.44629 14.8613C6.44629 14.5749 6.54655 14.3314 6.74707 14.1309C6.94759 13.9303 7.19108 13.8301 7.47754 13.8301H22.0654C22.3519 13.8301 22.5954 13.9303 22.7959 14.1309C22.9964 14.3314 23.0967 14.5749 23.0967 14.8613C23.0967 15.1478 22.9964 15.3913 22.7959 15.5918C22.5954 15.7923 22.3519 15.8926 22.0654 15.8926H7.47754Z" fill="#1A645A"/>
</svg>
