<svg width="71" height="71" viewBox="0 0 71 71" fill="none" xmlns="http://www.w3.org/2000/svg">
<circle cx="35.5" cy="35.5" r="34.5" stroke="white" stroke-opacity="0.6" stroke-width="2"/>
<circle cx="35.5" cy="35.5" r="33.5" fill="#1A645A"/>
<path d="M27.8127 44H44.1873C46.0505 44 47 43.0729 47 41.2365V31.903C47 30.0666 46.0505 29.1484 44.1873 29.1484H41.6254C40.9178 29.1484 40.7028 29.0058 40.2997 28.56L39.5831 27.7577C39.1352 27.2674 38.6783 27 37.7557 27H34.1816C33.259 27 32.8021 27.2674 32.3542 27.7577L31.6376 28.56C31.2345 28.9969 31.0106 29.1484 30.3119 29.1484H27.8127C25.9406 29.1484 25 30.0666 25 31.903V41.2365C25 43.0729 25.9406 44 27.8127 44ZM36 41.3702C33.2858 41.3702 31.1091 39.2129 31.1091 36.494C31.1091 33.784 33.2858 31.6266 36 31.6266C38.7142 31.6266 40.8819 33.784 40.8819 36.494C40.8819 39.2129 38.7052 41.3702 36 41.3702ZM41.4821 33.2134C41.4821 32.6072 42.0195 32.0724 42.6466 32.0724C43.2647 32.0724 43.7932 32.6072 43.7932 33.2134C43.7932 33.8464 43.2647 34.3545 42.6466 34.3634C42.0195 34.3634 41.4821 33.8553 41.4821 33.2134ZM36 40.0152C37.9528 40.0152 39.5293 38.4552 39.5293 36.494C39.5293 34.5417 37.9528 32.9727 36 32.9727C34.0472 32.9727 32.4617 34.5417 32.4617 36.494C32.4617 38.4552 34.0562 40.0152 36 40.0152Z" fill="white"/>
</svg>
