<svg width="40" height="40" viewBox="0 0 40 40" fill="none" xmlns="http://www.w3.org/2000/svg">
<path d="M27.2344 28.6768C27.1986 29.5003 26.93 30.1484 26.4287 30.6211C25.9274 31.1009 25.2614 31.3408 24.4307 31.3408H14.5586C13.7279 31.3408 13.0618 31.1045 12.5605 30.6318C12.0592 30.1592 11.7907 29.5111 11.7549 28.6875L11.0244 13.1328H10.0469C9.77474 13.1328 9.54557 13.0397 9.35938 12.8535C9.17318 12.6673 9.08008 12.4417 9.08008 12.1768C9.08008 11.9118 9.17318 11.6898 9.35938 11.5107C9.54557 11.3245 9.77474 11.2314 10.0469 11.2314H14.6016V9.77051C14.6016 8.93978 14.8665 8.27734 15.3965 7.7832C15.9336 7.28906 16.6569 7.04199 17.5664 7.04199H21.4014C22.3109 7.04199 23.0306 7.28906 23.5605 7.7832C24.0977 8.27734 24.3662 8.93978 24.3662 9.77051V11.2314H28.9424C29.2074 11.2314 29.4329 11.3245 29.6191 11.5107C29.8053 11.6898 29.8984 11.9118 29.8984 12.1768C29.8984 12.4417 29.8053 12.6673 29.6191 12.8535C29.4401 13.0397 29.2145 13.1328 28.9424 13.1328H27.9648L27.2344 28.6768ZM16.6211 9.86719L16.6104 11.2314H22.3682L22.3574 9.86719C22.3574 9.57357 22.2572 9.33366 22.0566 9.14746C21.8561 8.9541 21.5983 8.85742 21.2832 8.85742H17.6953C17.3802 8.85742 17.1224 8.9541 16.9219 9.14746C16.7214 9.33366 16.6211 9.57357 16.6211 9.86719ZM14.7842 29.418H24.2051C24.513 29.418 24.7601 29.3177 24.9463 29.1172C25.1396 28.9238 25.2435 28.666 25.2578 28.3438L25.9561 13.1328H13.001L13.7314 28.3438C13.7458 28.6589 13.8496 28.9167 14.043 29.1172C14.2363 29.3177 14.4834 29.418 14.7842 29.418ZM22.6582 27.6455C22.4505 27.6455 22.2786 27.5703 22.1426 27.4199C22.0137 27.2624 21.9528 27.0726 21.96 26.8506L22.2822 15.7754C22.2894 15.5605 22.361 15.3779 22.4971 15.2275C22.6403 15.07 22.805 14.9912 22.9912 14.9912C23.1989 14.9912 23.3672 15.07 23.4961 15.2275C23.6322 15.3779 23.6966 15.5641 23.6895 15.7861L23.3672 26.8613C23.36 27.0905 23.2884 27.2803 23.1523 27.4307C23.0234 27.5739 22.8587 27.6455 22.6582 27.6455ZM16.3311 27.6455C16.1305 27.6455 15.9622 27.5739 15.8262 27.4307C15.6973 27.2803 15.6292 27.0905 15.6221 26.8613L15.2998 15.7861C15.2926 15.5641 15.3535 15.3779 15.4824 15.2275C15.6185 15.07 15.7868 14.9912 15.9873 14.9912C16.1807 14.9912 16.3454 15.07 16.4814 15.2275C16.6247 15.3779 16.6999 15.5605 16.707 15.7754L17.0293 26.8506C17.0365 27.0726 16.972 27.2624 16.8359 27.4199C16.707 27.5703 16.5387 27.6455 16.3311 27.6455ZM20.2197 26.8613C20.2197 27.0762 20.1481 27.2624 20.0049 27.4199C19.8617 27.5703 19.6934 27.6455 19.5 27.6455C19.2995 27.6455 19.1276 27.5703 18.9844 27.4199C18.8411 27.2624 18.7695 27.0762 18.7695 26.8613V15.7754C18.7695 15.5605 18.8411 15.3779 18.9844 15.2275C19.1276 15.07 19.2995 14.9912 19.5 14.9912C19.6934 14.9912 19.8617 15.07 20.0049 15.2275C20.1481 15.3779 20.2197 15.5605 20.2197 15.7754V26.8613Z" fill="#DF0404"/>
</svg>
