<svg width="40" height="41" viewBox="0 0 40 41" fill="none" xmlns="http://www.w3.org/2000/svg">
<path d="M18.1211 28.5547C18.601 28.5547 18.9632 28.3518 19.2258 27.9553L27.7374 14.436C27.9276 14.1409 28 13.8826 28 13.6337C28 12.9973 27.5654 12.5547 26.9315 12.5547C26.4878 12.5547 26.2252 12.7115 25.9536 13.1449L18.0849 25.8711L14.0283 20.5685C13.7657 20.2089 13.4941 20.0613 13.0956 20.0613C12.4618 20.0613 12 20.5224 12 21.1587C12 21.4354 12.0996 21.7028 12.326 21.9887L17.0164 27.9645C17.3333 28.361 17.6684 28.5547 18.1211 28.5547Z" fill="#007E7E"/>
</svg>
