<svg width="22" height="22" viewBox="0 0 22 22" fill="none" xmlns="http://www.w3.org/2000/svg">
<path d="M9.20605 17.6465C8.06738 17.6465 6.97526 17.4245 5.92969 16.9805C4.88411 16.5293 3.98177 15.9277 3.22266 15.1758C2.4707 14.4167 1.86914 13.5143 1.41797 12.4688C0.973958 11.4232 0.751953 10.3311 0.751953 9.19238C0.751953 8.05371 0.973958 6.96159 1.41797 5.91602C1.86914 4.87044 2.4707 3.97168 3.22266 3.21973C3.98177 2.46061 4.88411 1.85905 5.92969 1.41504C6.97526 0.963867 8.06738 0.738281 9.20605 0.738281C10.3447 0.738281 11.4333 0.963867 12.4717 1.41504C13.5173 1.85905 14.4196 2.46061 15.1787 3.21973C15.9378 3.97168 16.5394 4.87044 16.9834 5.91602C17.4346 6.96159 17.6602 8.05371 17.6602 9.19238C17.6602 10.9684 17.1445 12.5833 16.1133 14.0371L20.7969 18.7314C21.0905 19.0251 21.2373 19.3939 21.2373 19.8379C21.2373 20.2819 21.0869 20.6543 20.7861 20.9551C20.4925 21.263 20.1237 21.417 19.6797 21.417C19.2285 21.417 18.8525 21.2666 18.5518 20.9658L13.8467 16.25C12.4359 17.181 10.889 17.6465 9.20605 17.6465ZM9.20605 15.3906C10.3161 15.3906 11.3473 15.1149 12.2998 14.5635C13.2523 14.0049 14.0078 13.2493 14.5664 12.2969C15.125 11.3444 15.4043 10.3096 15.4043 9.19238C15.4043 8.08236 15.125 7.05111 14.5664 6.09863C14.0078 5.14616 13.2523 4.39062 12.2998 3.83203C11.3473 3.27344 10.3161 2.99414 9.20605 2.99414C8.08887 2.99414 7.05404 3.27344 6.10156 3.83203C5.14909 4.39062 4.39355 5.14616 3.83496 6.09863C3.28353 7.05111 3.00781 8.08236 3.00781 9.19238C3.00781 10.0303 3.17253 10.8324 3.50195 11.5986C3.83138 12.3577 4.27181 13.0166 4.82324 13.5752C5.38184 14.1266 6.04069 14.5671 6.7998 14.8965C7.56608 15.2259 8.36816 15.3906 9.20605 15.3906Z" fill="#1A645A"/>
</svg>
