<svg width="40" height="40" viewBox="0 0 40 40" fill="none" xmlns="http://www.w3.org/2000/svg">
<path d="M16.1008 10.9712C16.0901 10.4233 16.4446 10.1118 17.0569 10.1118H25.801C28.0461 10.1118 29.1741 11.2183 29.1741 13.4419V25.1724L30.7639 23.4751L31.7952 22.4653C32.1604 22.1001 32.676 22.0679 33.0413 22.4331C33.3957 22.7983 33.385 23.3247 33.009 23.6899L29.3997 27.2886C28.6907 27.9868 27.9172 27.9868 27.2082 27.2886L23.5881 23.6899C23.2229 23.3247 23.2014 22.7983 23.5666 22.4331C23.9426 22.0679 24.4475 22.1108 24.8127 22.4653L25.844 23.4751L27.4446 25.1938V13.5278C27.4446 12.4106 26.8538 11.8413 25.7795 11.8413H17.0569C16.4446 11.8413 16.1116 11.519 16.1008 10.9712ZM6.95922 17.5562C6.60473 17.2017 6.61547 16.6753 6.99145 16.3101L10.6116 12.7007C11.3098 12.0132 12.094 12.0132 12.7922 12.7007L16.4123 16.3101C16.7776 16.6753 16.7991 17.2017 16.4338 17.5562C16.0686 17.9321 15.553 17.8892 15.1877 17.5347L14.1565 16.5142L12.5559 14.8062V26.4722C12.5559 27.5894 13.1575 28.1587 14.2317 28.1587H22.9436C23.5559 28.1587 23.8889 28.4702 23.8997 29.0288C23.9104 29.5767 23.5559 29.8882 22.9436 29.8882H14.1995C11.9651 29.8882 10.8264 28.7817 10.8264 26.5581V14.8276L9.23657 16.5142L8.20532 17.5347C7.84008 17.8892 7.3352 17.9321 6.95922 17.5562Z" fill="white"/>
</svg>
