<svg width="40" height="40" viewBox="0 0 40 40" fill="none" xmlns="http://www.w3.org/2000/svg">
<path d="M10.6973 19.1567C8.9248 19.1567 8.0332 18.2866 8.0332 16.5142V12.3354C8.0332 10.5737 8.9248 9.70361 10.6973 9.70361H29.3027C31.0752 9.70361 31.9668 10.5737 31.9668 12.3354V16.5142C31.9668 18.2866 31.0752 19.1567 29.3027 19.1567H10.6973ZM10.9551 17.1479H29.0342C29.6357 17.1479 29.9473 16.8364 29.9473 16.2241V12.6362C29.9473 12.0132 29.6357 11.7124 29.0342 11.7124H10.9551C10.3643 11.7124 10.0527 12.0132 10.0527 12.6362V16.2241C10.0527 16.8364 10.3643 17.1479 10.9551 17.1479ZM10.6973 30.2964C8.9248 30.2964 8.0332 29.4263 8.0332 27.6538V23.4751C8.0332 21.7134 8.9248 20.8433 10.6973 20.8433H29.3027C31.0752 20.8433 31.9668 21.7134 31.9668 23.4751V27.6538C31.9668 29.4263 31.0752 30.2964 29.3027 30.2964H10.6973ZM10.9551 28.2769H29.0342C29.6357 28.2769 29.9473 27.9761 29.9473 27.3638V23.7759C29.9473 23.1528 29.6357 22.8521 29.0342 22.8521H10.9551C10.3643 22.8521 10.0527 23.1528 10.0527 23.7759V27.3638C10.0527 27.9761 10.3643 28.2769 10.9551 28.2769Z" fill="#C64E0A"/>
</svg>
