<svg width="32" height="32" viewBox="0 0 32 32" fill="none" xmlns="http://www.w3.org/2000/svg">
<path d="M4.81613 23.2391L9.65011 28.0838C9.98312 28.4168 10.5525 28.4168 10.8855 28.0838C11.2185 27.74 11.2077 27.1922 10.8855 26.8592L7.72726 23.6902L8.83371 22.5838L12.0778 25.8602C12.3571 26.1395 12.8191 26.1395 13.0984 25.8602C13.3777 25.5701 13.3884 25.1082 13.1091 24.8289L9.85421 21.5633L10.9607 20.4568L14.2048 23.7332C14.4948 24.0125 14.9568 24.0125 15.2253 23.7332C15.5046 23.4432 15.5153 22.9813 15.236 22.702L11.9812 19.4363L13.0876 18.3299L16.3318 21.6063C16.611 21.8856 17.073 21.8856 17.3523 21.6063C17.6316 21.3162 17.6423 20.8543 17.363 20.575L14.1081 17.3094L15.2146 16.2029L18.4587 19.4686C18.7487 19.7586 19.2107 19.7586 19.4792 19.4686C19.7585 19.1893 19.7693 18.7166 19.49 18.4481L16.2351 15.1824L17.32 14.0975L20.5749 17.3524C20.865 17.6316 21.3269 17.6316 21.5954 17.3631C21.8855 17.0731 21.8962 16.6111 21.6062 16.3318L18.3513 13.0662L19.447 11.9705L22.7019 15.2147C22.9919 15.5047 23.4538 15.5047 23.7224 15.2254C24.0017 14.9461 24.0124 14.4842 23.7331 14.2049L20.4782 10.9393L21.5739 9.84356L24.8288 13.0877C25.1189 13.3885 25.5808 13.3885 25.8493 13.0984C26.1394 12.8191 26.1501 12.3572 25.8601 12.0672L22.6052 8.81231L23.7116 7.70587L26.8698 10.8641C27.2028 11.1971 27.74 11.2078 28.073 10.8748C28.4167 10.5418 28.4167 9.99395 28.073 9.6502L23.239 4.81622C21.6921 3.26934 19.6941 3.28008 18.1364 4.84844L4.84835 18.1365C3.29074 19.6941 3.26925 21.6922 4.81613 23.2391Z" fill="white"/>
</svg>
