<svg width="16" height="32" viewBox="0 0 16 32" fill="none" xmlns="http://www.w3.org/2000/svg">
<path d="M9.59961 24.9268L6.65625 17.6758C6.41992 17.1064 6.18359 16.5371 6.18359 16C6.18359 15.4629 6.41992 14.8828 6.65625 14.3242L9.59961 7.0625C9.79297 6.58984 10.2119 6.27832 10.6953 6.27832C11.4795 6.27832 12.0381 6.8584 12.0381 7.57812C12.0381 7.96484 11.8232 8.46973 11.6729 8.83496L8.77246 16L11.6729 23.165C11.8232 23.5303 12.0381 24.0244 12.0381 24.4111C12.0381 25.1416 11.4795 25.7109 10.6953 25.7217C10.2119 25.7217 9.79297 25.3994 9.59961 24.9268Z" fill="#D1DBDB"/>
</svg>
