<svg width="12" height="7" viewBox="0 0 12 7" fill="none" xmlns="http://www.w3.org/2000/svg">
<path d="M11.77 1.38356L6.62232 6.71233C6.44194 6.90411 6.2345 7 6 7C5.75197 6.99087 5.54228 6.89498 5.37091 6.71233L0.229989 1.38356C0.0766637 1.22831 7.81715e-07 1.03881 8.11056e-07 0.815067C8.40995e-07 0.586756 0.0789186 0.394976 0.236754 0.239724C0.39008 0.079907 0.577227 -1.83165e-06 0.798197 -1.80268e-06C1.01917 -1.7737e-06 1.21308 0.0844733 1.37993 0.253423L5.99324 5.04795L10.6201 0.253425C10.7869 0.0844745 10.9808 -4.67386e-07 11.2018 -4.3841e-07C11.4228 -4.09433e-07 11.6099 0.0799085 11.7632 0.239726C11.9211 0.394977 12 0.586758 12 0.815068C12 1.03881 11.9233 1.22831 11.77 1.38356Z" fill="white"/>
</svg>
