<svg width="32" height="32" viewBox="0 0 32 32" fill="none" xmlns="http://www.w3.org/2000/svg">
<path d="M4.72168 25.9629H5.97852C6.78418 25.9629 7.40723 25.3398 7.40723 24.5449V22.751C9.79199 22.9014 13.2402 23.0088 16.001 23.0088C18.7617 23.0088 22.2207 22.9014 24.6055 22.751V24.5449C24.6055 25.3398 25.2178 25.9629 26.0234 25.9629H27.291C28.0967 25.9629 28.709 25.3398 28.709 24.5449V18.3574C28.709 16.542 28.3438 15.5322 27.3555 14.2432L26.4424 13.0723C26.0557 11.1387 25.3359 9.1084 24.9707 8.31348C24.3906 7.09961 23.2842 6.37988 21.8555 6.18652C21.1357 6.08984 18.7832 6.03613 16.001 6.03613C13.2295 6.03613 10.877 6.10059 10.1572 6.18652C8.72852 6.3584 7.61133 7.09961 7.04199 8.31348C6.66602 9.1084 5.95703 11.1387 5.55957 13.0723L4.65723 14.2432C3.6582 15.5322 3.29297 16.542 3.29297 18.3574V24.5449C3.29297 25.3398 3.91602 25.9629 4.72168 25.9629ZM7.72949 12.1699C7.97656 10.999 8.50293 9.46289 8.85742 8.83984C9.14746 8.33496 9.45898 8.10938 10.0391 8.03418C10.8555 7.92676 12.6816 7.85156 16.001 7.85156C19.3311 7.85156 21.1572 7.90527 21.9629 8.03418C22.543 8.12012 22.8438 8.33496 23.1445 8.83984C23.5098 9.45215 24.0039 10.999 24.2832 12.1699C24.3799 12.5674 24.208 12.7178 23.7998 12.6963C22.0166 12.5781 19.8896 12.4707 16.001 12.4707C12.123 12.4707 9.99609 12.5781 8.21289 12.6963C7.79395 12.7178 7.63281 12.5674 7.72949 12.1699ZM8.25586 20.1084C7.27832 20.1084 6.52637 19.3564 6.52637 18.3789C6.52637 17.3906 7.27832 16.6494 8.25586 16.6494C9.2334 16.6494 9.98535 17.3906 9.98535 18.3789C9.98535 19.3564 9.2334 20.1084 8.25586 20.1084ZM23.7461 20.1084C22.7686 20.1084 22.0273 19.3564 22.0273 18.3789C22.0273 17.3906 22.7686 16.6494 23.7461 16.6494C24.7344 16.6494 25.4756 17.3906 25.4756 18.3789C25.4756 19.3564 24.7344 20.1084 23.7461 20.1084ZM13.165 19.6787C12.4238 19.6787 11.9189 19.1738 11.9189 18.4326C11.9189 17.7021 12.4238 17.1973 13.165 17.1973H18.8477C19.5781 17.1973 20.083 17.7021 20.083 18.4326C20.083 19.1738 19.5781 19.6787 18.8477 19.6787H13.165Z" fill="white" fill-opacity="0.6"/>
</svg>
