<svg width="24" height="24" viewBox="0 0 24 24" fill="none" xmlns="http://www.w3.org/2000/svg">
<path d="M18.8284 11.6112C21.0965 11.6112 23 9.6549 23 7.30562C23 4.94798 21.1127 3 18.8284 3C16.5442 3 14.6649 4.94798 14.6649 7.30562C14.6649 9.67162 16.5442 11.6112 18.8284 11.6112ZM7.61782 16.8198H17.0464C17.4271 16.8198 17.7592 16.5188 17.7592 16.0841C17.7592 15.6493 17.4271 15.3484 17.0464 15.3484H7.79602C7.39912 15.3484 7.15611 15.0557 7.09941 14.6294L6.97791 13.7599H17.1112C17.905 13.7599 18.4315 13.4255 18.7555 12.7901C17.9293 12.7566 17.1598 12.5058 16.4956 12.0794C16.3822 12.2132 16.2445 12.2801 16.042 12.2801L6.7673 12.2884L6.14359 7.83233H13.5471C13.4904 7.3725 13.5066 6.82072 13.5876 6.36089H5.93299L5.80339 5.44124C5.70619 4.72225 5.43078 4.35439 4.53166 4.35439H1.74521C1.34831 4.35439 1 4.71389 1 5.14027C1 5.55829 1.34831 5.91779 1.74521 5.91779H4.29676L5.56038 14.7966C5.73859 16.0506 6.3866 16.8198 7.61782 16.8198ZM18.8284 10.0311C18.4963 10.0311 18.2776 9.80539 18.2776 9.46261V7.87413H16.7386C16.4146 7.87413 16.1959 7.6484 16.1878 7.30562C16.1878 6.96284 16.4146 6.73711 16.7386 6.73711H18.2776V5.14863C18.2776 4.81421 18.4963 4.58848 18.8284 4.58012C19.1686 4.58012 19.3792 4.81421 19.3792 5.14863V6.73711H20.9183C21.2504 6.73711 21.4691 6.96284 21.4691 7.30562C21.4691 7.6484 21.2504 7.87413 20.9183 7.87413H19.3792V9.46261C19.3792 9.80539 19.1686 10.0311 18.8284 10.0311ZM8.27393 21C9.05965 21 9.67526 20.3562 9.67526 19.5536C9.67526 18.7427 9.05965 18.0989 8.27393 18.0989C7.49632 18.0989 6.87261 18.7427 6.87261 19.5536C6.87261 20.3562 7.49632 21 8.27393 21ZM15.7666 21C16.5523 21 17.176 20.3562 17.176 19.5536C17.176 18.7427 16.5523 18.0989 15.7666 18.0989C14.989 18.0989 14.3571 18.7427 14.3571 19.5536C14.3571 20.3562 14.989 21 15.7666 21Z" fill="#1A645A"/>
</svg>
