<svg width="14" height="21" viewBox="0 0 14 21" fill="none" xmlns="http://www.w3.org/2000/svg">
<path d="M0.359375 12.5552C0.359375 13.3438 0.898926 13.8667 1.7124 13.8667H6.12012V17.8179C6.12012 18.9136 6.75098 20.1836 7 20.1836C7.24902 20.1836 7.87988 18.9136 7.87988 17.8179V13.8667H12.2876C13.1011 13.8667 13.6406 13.3438 13.6406 12.5552C13.6406 10.7456 12.2046 8.91943 9.85547 8.03955L9.58154 4.14648C10.8433 3.43262 11.8145 2.66895 12.2378 2.12109C12.4702 1.82227 12.5864 1.50684 12.5864 1.22461C12.5864 0.643555 12.1465 0.220215 11.4907 0.220215H2.50928C1.85352 0.220215 1.41357 0.643555 1.41357 1.22461C1.41357 1.50684 1.52979 1.82227 1.76221 2.12109C2.18555 2.66895 3.15674 3.44092 4.41846 4.14648L4.14453 8.03955C1.79541 8.91943 0.359375 10.7456 0.359375 12.5552Z" fill="#828282"/>
</svg>
