<svg width="235" height="22" viewBox="0 0 235 22" fill="none" xmlns="http://www.w3.org/2000/svg">
<path d="M6.42969 16.8257C5.62174 16.8257 4.88851 16.6956 4.22998 16.4355C3.57145 16.1699 3.04574 15.7881 2.65283 15.29C2.25993 14.7865 2.04964 14.1777 2.02197 13.4639L2.03027 13.4556L3.95605 13.4473L3.96436 13.4639C4.01416 13.8014 4.1359 14.1003 4.32959 14.3604C4.52327 14.6149 4.79443 14.8141 5.14307 14.958C5.4917 15.1019 5.92887 15.1738 6.45459 15.1738C6.99691 15.1738 7.44238 15.1102 7.79102 14.9829C8.13965 14.8501 8.39697 14.6675 8.56299 14.4351C8.729 14.2026 8.81201 13.9342 8.81201 13.6299V13.6133C8.81201 13.2038 8.66536 12.8745 8.37207 12.6255C8.08431 12.3765 7.55306 12.1606 6.77832 11.978L5.5415 11.6958C4.83317 11.5298 4.23275 11.3084 3.74023 11.0317C3.25326 10.755 2.88249 10.4119 2.62793 10.0024C2.37891 9.5874 2.25439 9.09212 2.25439 8.5166V8.5C2.25439 7.81934 2.43424 7.23275 2.79395 6.74023C3.15918 6.24772 3.65446 5.86865 4.27979 5.60303C4.91064 5.33187 5.62451 5.19629 6.42139 5.19629C7.23486 5.19629 7.95426 5.3374 8.57959 5.61963C9.20492 5.89632 9.70296 6.28923 10.0737 6.79834C10.4445 7.30192 10.641 7.89681 10.6631 8.58301V8.59131L8.7373 8.59961L8.729 8.58301C8.69027 8.20671 8.56852 7.89128 8.36377 7.63672C8.15902 7.37663 7.89339 7.18018 7.56689 7.04736C7.2404 6.91455 6.86686 6.84814 6.44629 6.84814C5.96484 6.84814 5.56087 6.91732 5.23438 7.05566C4.90788 7.19401 4.66162 7.37663 4.49561 7.60352C4.32959 7.8304 4.24658 8.07943 4.24658 8.35059V8.36719C4.24658 8.61068 4.31022 8.82926 4.4375 9.02295C4.57031 9.21663 4.77507 9.38818 5.05176 9.5376C5.33398 9.68701 5.70475 9.81706 6.16406 9.92773L7.40088 10.21C8.50765 10.4645 9.35156 10.8381 9.93262 11.3306C10.5137 11.8231 10.8042 12.5176 10.8042 13.4141V13.4307C10.8042 14.1611 10.6105 14.7809 10.2231 15.29C9.83577 15.7936 9.31006 16.1755 8.646 16.4355C7.98747 16.6956 7.2487 16.8257 6.42969 16.8257ZM5.96484 18.187V3.81836H6.92773V18.187H5.96484ZM17.1693 17.2407C16.295 17.2407 15.5285 17.0941 14.87 16.8008C14.217 16.5075 13.6996 16.1007 13.3178 15.5806C12.9415 15.0549 12.7257 14.4489 12.6703 13.7627L12.662 13.6631H14.704L14.7123 13.7544C14.751 14.092 14.8756 14.3936 15.0858 14.6592C15.2961 14.9193 15.5784 15.124 15.9325 15.2734C16.2867 15.4173 16.699 15.4893 17.1693 15.4893C17.6286 15.4893 18.0299 15.409 18.3729 15.2485C18.7216 15.0881 18.9927 14.8667 19.1864 14.5845C19.3801 14.3022 19.477 13.9757 19.477 13.605V13.5884C19.477 12.9575 19.2584 12.4733 18.8212 12.1357C18.384 11.7982 17.7808 11.6294 17.0116 11.6294H15.5922V10.0356H16.9701C17.4073 10.0356 17.7919 9.95817 18.1239 9.80322C18.456 9.64827 18.7133 9.43799 18.8959 9.17236C19.0785 8.9012 19.1698 8.59131 19.1698 8.24268V8.22607C19.1698 7.85531 19.0896 7.53988 18.9291 7.27979C18.7742 7.01969 18.5445 6.82048 18.2401 6.68213C17.9413 6.54378 17.5788 6.47461 17.1527 6.47461C16.7322 6.47461 16.3586 6.54655 16.0321 6.69043C15.7112 6.83431 15.4538 7.03906 15.2602 7.30469C15.0665 7.56478 14.9503 7.87191 14.9115 8.22607L14.9032 8.30908H12.9193L12.9276 8.20947C12.9885 7.51774 13.1988 6.91732 13.5585 6.4082C13.9237 5.89355 14.4107 5.49512 15.0194 5.21289C15.6337 4.92513 16.3448 4.78125 17.1527 4.78125C17.9773 4.78125 18.6939 4.91683 19.3026 5.18799C19.9114 5.45361 20.3817 5.82161 20.7138 6.29199C21.0513 6.76237 21.2201 7.31299 21.2201 7.94385V7.96045C21.2201 8.45296 21.1094 8.89014 20.8881 9.27197C20.6723 9.64827 20.3734 9.96094 19.9916 10.21C19.6153 10.459 19.1864 10.6333 18.705 10.7329V10.7744C19.5904 10.8574 20.3015 11.1507 20.8383 11.6543C21.3751 12.1523 21.6435 12.8164 21.6435 13.6465V13.6631C21.6435 14.3604 21.4553 14.9801 21.079 15.5225C20.7027 16.0592 20.177 16.4798 19.5019 16.7842C18.8323 17.0885 18.0548 17.2407 17.1693 17.2407ZM27.7513 4.72314C28.3932 4.72314 29.0019 4.84212 29.5774 5.08008C30.153 5.3125 30.6621 5.67773 31.1048 6.17578C31.553 6.66829 31.9044 7.30192 32.159 8.07666C32.4135 8.84587 32.5408 9.77279 32.5408 10.8574V10.874C32.5408 12.2188 32.3471 13.3698 31.9598 14.3271C31.5724 15.2845 31.0162 16.0205 30.2913 16.5352C29.5719 17.0443 28.7114 17.2988 27.7098 17.2988C26.9738 17.2988 26.3097 17.166 25.7176 16.9004C25.131 16.6292 24.644 16.2585 24.2566 15.7881C23.8748 15.3122 23.6175 14.7699 23.4847 14.1611L23.4681 14.0698H25.5682L25.6014 14.1528C25.7065 14.4295 25.8559 14.673 26.0496 14.8833C26.2488 15.0936 26.4868 15.2568 26.7635 15.373C27.0457 15.4837 27.3611 15.5391 27.7098 15.5391C28.3406 15.5391 28.8553 15.3537 29.2537 14.9829C29.6577 14.6066 29.9593 14.1058 30.1585 13.4805C30.3632 12.8496 30.4795 12.1523 30.5071 11.3887C30.5127 11.3057 30.5154 11.2254 30.5154 11.1479C30.5154 11.0649 30.5154 10.9847 30.5154 10.9072L30.1419 8.90674C30.1419 8.45296 30.0368 8.04069 29.8265 7.66992C29.6162 7.29915 29.3312 7.00586 28.9715 6.79004C28.6173 6.57422 28.2161 6.46631 27.7679 6.46631C27.3362 6.46631 26.9406 6.57145 26.5809 6.78174C26.2212 6.99202 25.9334 7.27979 25.7176 7.64502C25.5018 8.00472 25.3938 8.40869 25.3938 8.85693V8.87354C25.3938 9.33838 25.4962 9.75065 25.701 10.1104C25.9057 10.4645 26.1852 10.744 26.5394 10.9487C26.8935 11.1535 27.2975 11.2559 27.7513 11.2559C28.205 11.2559 28.6118 11.1562 28.9715 10.957C29.3312 10.7578 29.6162 10.4811 29.8265 10.127C30.0368 9.77279 30.1419 9.37158 30.1419 8.92334V8.90674H30.6399V11.1147H30.3494C30.2055 11.4302 29.9925 11.7235 29.7103 11.9946C29.428 12.2658 29.0794 12.4844 28.6644 12.6504C28.2549 12.8164 27.7734 12.8994 27.22 12.8994C26.4563 12.8994 25.7812 12.7279 25.1946 12.3848C24.608 12.0417 24.146 11.5713 23.8084 10.9736C23.4764 10.376 23.3104 9.70085 23.3104 8.94824V8.93164C23.3104 8.11816 23.4985 7.396 23.8748 6.76514C24.2566 6.12874 24.7824 5.6307 25.452 5.271C26.1271 4.90576 26.8935 4.72314 27.7513 4.72314ZM35.1955 17.1577C34.8192 17.1577 34.5038 17.0332 34.2492 16.7842C34.0002 16.5296 33.8757 16.2197 33.8757 15.8545C33.8757 15.4837 34.0002 15.1738 34.2492 14.9248C34.5038 14.6702 34.8192 14.543 35.1955 14.543C35.5773 14.543 35.8928 14.6702 36.1418 14.9248C36.3908 15.1738 36.5153 15.4837 36.5153 15.8545C36.5153 16.2197 36.3908 16.5296 36.1418 16.7842C35.8928 17.0332 35.5773 17.1577 35.1955 17.1577ZM42.3907 4.72314C43.0327 4.72314 43.6414 4.84212 44.2169 5.08008C44.7924 5.3125 45.3015 5.67773 45.7442 6.17578C46.1925 6.66829 46.5439 7.30192 46.7984 8.07666C47.053 8.84587 47.1803 9.77279 47.1803 10.8574V10.874C47.1803 12.2188 46.9866 13.3698 46.5992 14.3271C46.2119 15.2845 45.6557 16.0205 44.9308 16.5352C44.2114 17.0443 43.3508 17.2988 42.3492 17.2988C41.6132 17.2988 40.9492 17.166 40.357 16.9004C39.7704 16.6292 39.2835 16.2585 38.8961 15.7881C38.5143 15.3122 38.2569 14.7699 38.1241 14.1611L38.1075 14.0698H40.2076L40.2408 14.1528C40.346 14.4295 40.4954 14.673 40.6891 14.8833C40.8883 15.0936 41.1262 15.2568 41.4029 15.373C41.6852 15.4837 42.0006 15.5391 42.3492 15.5391C42.9801 15.5391 43.4947 15.3537 43.8932 14.9829C44.2971 14.6066 44.5987 14.1058 44.798 13.4805C45.0027 12.8496 45.1189 12.1523 45.1466 11.3887C45.1521 11.3057 45.1549 11.2254 45.1549 11.1479C45.1549 11.0649 45.1549 10.9847 45.1549 10.9072L44.7813 8.90674C44.7813 8.45296 44.6762 8.04069 44.4659 7.66992C44.2556 7.29915 43.9706 7.00586 43.6109 6.79004C43.2568 6.57422 42.8556 6.46631 42.4073 6.46631C41.9757 6.46631 41.58 6.57145 41.2203 6.78174C40.8606 6.99202 40.5729 7.27979 40.357 7.64502C40.1412 8.00472 40.0333 8.40869 40.0333 8.85693V8.87354C40.0333 9.33838 40.1357 9.75065 40.3404 10.1104C40.5452 10.4645 40.8246 10.744 41.1788 10.9487C41.533 11.1535 41.9369 11.2559 42.3907 11.2559C42.8445 11.2559 43.2512 11.1562 43.6109 10.957C43.9706 10.7578 44.2556 10.4811 44.4659 10.127C44.6762 9.77279 44.7813 9.37158 44.7813 8.92334V8.90674H45.2794V11.1147H44.9889C44.845 11.4302 44.6319 11.7235 44.3497 11.9946C44.0675 12.2658 43.7188 12.4844 43.3038 12.6504C42.8943 12.8164 42.4129 12.8994 41.8595 12.8994C41.0958 12.8994 40.4207 12.7279 39.8341 12.3848C39.2475 12.0417 38.7854 11.5713 38.4479 10.9736C38.1158 10.376 37.9498 9.70085 37.9498 8.94824V8.93164C37.9498 8.11816 38.138 7.396 38.5143 6.76514C38.8961 6.12874 39.4218 5.6307 40.0914 5.271C40.7665 4.90576 41.533 4.72314 42.3907 4.72314ZM53.3296 4.72314C53.9715 4.72314 54.5802 4.84212 55.1558 5.08008C55.7313 5.3125 56.2404 5.67773 56.6831 6.17578C57.1313 6.66829 57.4827 7.30192 57.7373 8.07666C57.9919 8.84587 58.1191 9.77279 58.1191 10.8574V10.874C58.1191 12.2188 57.9255 13.3698 57.5381 14.3271C57.1507 15.2845 56.5946 16.0205 55.8696 16.5352C55.1502 17.0443 54.2897 17.2988 53.2881 17.2988C52.5521 17.2988 51.888 17.166 51.2959 16.9004C50.7093 16.6292 50.2223 16.2585 49.835 15.7881C49.4531 15.3122 49.1958 14.7699 49.063 14.1611L49.0464 14.0698H51.1465L51.1797 14.1528C51.2848 14.4295 51.4342 14.673 51.6279 14.8833C51.8271 15.0936 52.0651 15.2568 52.3418 15.373C52.624 15.4837 52.9395 15.5391 53.2881 15.5391C53.9189 15.5391 54.4336 15.3537 54.832 14.9829C55.236 14.6066 55.5376 14.1058 55.7368 13.4805C55.9416 12.8496 56.0578 12.1523 56.0854 11.3887C56.091 11.3057 56.0938 11.2254 56.0938 11.1479C56.0938 11.0649 56.0938 10.9847 56.0938 10.9072L55.7202 8.90674C55.7202 8.45296 55.6151 8.04069 55.4048 7.66992C55.1945 7.29915 54.9095 7.00586 54.5498 6.79004C54.1956 6.57422 53.7944 6.46631 53.3462 6.46631C52.9146 6.46631 52.5189 6.57145 52.1592 6.78174C51.7995 6.99202 51.5117 7.27979 51.2959 7.64502C51.0801 8.00472 50.9722 8.40869 50.9722 8.85693V8.87354C50.9722 9.33838 51.0745 9.75065 51.2793 10.1104C51.484 10.4645 51.7635 10.744 52.1177 10.9487C52.4718 11.1535 52.8758 11.2559 53.3296 11.2559C53.7834 11.2559 54.1901 11.1562 54.5498 10.957C54.9095 10.7578 55.1945 10.4811 55.4048 10.127C55.6151 9.77279 55.7202 9.37158 55.7202 8.92334V8.90674H56.2183V11.1147H55.9277C55.7839 11.4302 55.5708 11.7235 55.2886 11.9946C55.0063 12.2658 54.6577 12.4844 54.2427 12.6504C53.8332 12.8164 53.3517 12.8994 52.7983 12.8994C52.0347 12.8994 51.3595 12.7279 50.7729 12.3848C50.1864 12.0417 49.7243 11.5713 49.3867 10.9736C49.0547 10.376 48.8887 9.70085 48.8887 8.94824V8.93164C48.8887 8.11816 49.0768 7.396 49.4531 6.76514C49.835 6.12874 50.3607 5.6307 51.0303 5.271C51.7054 4.90576 52.4718 4.72314 53.3296 4.72314Z" fill="white" fill-opacity="0.6"/>
<path d="M0.82666 11.646H59.165V13.0073H0.82666V11.646Z" fill="white" fill-opacity="0.6"/>
<path d="M81.7422 10.9902C81.7422 11.2503 81.6481 11.4689 81.46 11.646L77.2183 15.8794C77.0301 16.062 76.8198 16.1533 76.5874 16.1533C76.3328 16.1533 76.1253 16.0731 75.9648 15.9126C75.8044 15.7521 75.7241 15.5501 75.7241 15.3066C75.7241 15.1794 75.7463 15.0632 75.7905 14.958C75.8403 14.8473 75.9067 14.756 75.9897 14.6841L77.2432 13.4058L79.6753 11.1978L80.0073 11.729L77.5337 11.8867H70.1709C69.8942 11.8867 69.6729 11.8037 69.5068 11.6377C69.3408 11.4717 69.2578 11.2559 69.2578 10.9902C69.2578 10.7301 69.3408 10.5171 69.5068 10.3511C69.6729 10.1851 69.8942 10.1021 70.1709 10.1021H77.5337L80.0073 10.2598L79.6753 10.791L77.2432 8.58301L75.9897 7.30469C75.9067 7.22721 75.8403 7.1359 75.7905 7.03076C75.7463 6.92562 75.7241 6.80664 75.7241 6.67383C75.7241 6.43587 75.8044 6.23665 75.9648 6.07617C76.1253 5.91016 76.3328 5.82715 76.5874 5.82715C76.8198 5.82715 77.0301 5.91846 77.2183 6.10107L81.46 10.3345C81.6481 10.5171 81.7422 10.7357 81.7422 10.9902Z" fill="white" fill-opacity="0.6"/>
<path d="M97.5085 16.8257C96.7006 16.8257 95.9673 16.6956 95.3088 16.4355C94.6503 16.1699 94.1245 15.7881 93.7316 15.29C93.3387 14.7865 93.1285 14.1777 93.1008 13.4639L93.1091 13.4556L95.0349 13.4473L95.0432 13.4639C95.093 13.8014 95.2147 14.1003 95.4084 14.3604C95.6021 14.6149 95.8732 14.8141 96.2219 14.958C96.5705 15.1019 97.0077 15.1738 97.5334 15.1738C98.0757 15.1738 98.5212 15.1102 98.8698 14.9829C99.2185 14.8501 99.4758 14.6675 99.6418 14.4351C99.8078 14.2026 99.8908 13.9342 99.8908 13.6299V13.6133C99.8908 13.2038 99.7442 12.8745 99.4509 12.6255C99.1631 12.3765 98.6319 12.1606 97.8571 11.978L96.6203 11.6958C95.912 11.5298 95.3116 11.3084 94.819 11.0317C94.3321 10.755 93.9613 10.4119 93.7067 10.0024C93.4577 9.5874 93.3332 9.09212 93.3332 8.5166V8.5C93.3332 7.81934 93.5131 7.23275 93.8728 6.74023C94.238 6.24772 94.7333 5.86865 95.3586 5.60303C95.9895 5.33187 96.7033 5.19629 97.5002 5.19629C98.3137 5.19629 99.0331 5.3374 99.6584 5.61963C100.284 5.89632 100.782 6.28923 101.153 6.79834C101.523 7.30192 101.72 7.89681 101.742 8.58301V8.59131L99.8161 8.59961L99.8078 8.58301C99.7691 8.20671 99.6473 7.89128 99.4426 7.63672C99.2378 7.37663 98.9722 7.18018 98.6457 7.04736C98.3192 6.91455 97.9457 6.84814 97.5251 6.84814C97.0437 6.84814 96.6397 6.91732 96.3132 7.05566C95.9867 7.19401 95.7404 7.37663 95.5744 7.60352C95.4084 7.8304 95.3254 8.07943 95.3254 8.35059V8.36719C95.3254 8.61068 95.389 8.82926 95.5163 9.02295C95.6491 9.21663 95.8539 9.38818 96.1306 9.5376C96.4128 9.68701 96.7836 9.81706 97.2429 9.92773L98.4797 10.21C99.5865 10.4645 100.43 10.8381 101.011 11.3306C101.592 11.8231 101.883 12.5176 101.883 13.4141V13.4307C101.883 14.1611 101.689 14.7809 101.302 15.29C100.915 15.7936 100.389 16.1755 99.7248 16.4355C99.0663 16.6956 98.3275 16.8257 97.5085 16.8257ZM97.0437 18.187V3.81836H98.0065V18.187H97.0437ZM106.854 17V7.13037H106.704L103.724 9.23047V7.22168L106.854 5.02197H108.987V17H106.854ZM116.157 4.72314C116.799 4.72314 117.408 4.84212 117.983 5.08008C118.559 5.3125 119.068 5.67773 119.511 6.17578C119.959 6.66829 120.31 7.30192 120.565 8.07666C120.82 8.84587 120.947 9.77279 120.947 10.8574V10.874C120.947 12.2188 120.753 13.3698 120.366 14.3271C119.978 15.2845 119.422 16.0205 118.697 16.5352C117.978 17.0443 117.117 17.2988 116.116 17.2988C115.38 17.2988 114.716 17.166 114.124 16.9004C113.537 16.6292 113.05 16.2585 112.663 15.7881C112.281 15.3122 112.023 14.7699 111.891 14.1611L111.874 14.0698H113.974L114.007 14.1528C114.112 14.4295 114.262 14.673 114.456 14.8833C114.655 15.0936 114.893 15.2568 115.169 15.373C115.452 15.4837 115.767 15.5391 116.116 15.5391C116.747 15.5391 117.261 15.3537 117.66 14.9829C118.064 14.6066 118.365 14.1058 118.564 13.4805C118.769 12.8496 118.885 12.1523 118.913 11.3887C118.919 11.3057 118.921 11.2254 118.921 11.1479C118.921 11.0649 118.921 10.9847 118.921 10.9072L118.548 8.90674C118.548 8.45296 118.443 8.04069 118.232 7.66992C118.022 7.29915 117.737 7.00586 117.377 6.79004C117.023 6.57422 116.622 6.46631 116.174 6.46631C115.742 6.46631 115.347 6.57145 114.987 6.78174C114.627 6.99202 114.339 7.27979 114.124 7.64502C113.908 8.00472 113.8 8.40869 113.8 8.85693V8.87354C113.8 9.33838 113.902 9.75065 114.107 10.1104C114.312 10.4645 114.591 10.744 114.945 10.9487C115.299 11.1535 115.703 11.2559 116.157 11.2559C116.611 11.2559 117.018 11.1562 117.377 10.957C117.737 10.7578 118.022 10.4811 118.232 10.127C118.443 9.77279 118.548 9.37158 118.548 8.92334V8.90674H119.046V11.1147H118.755C118.611 11.4302 118.398 11.7235 118.116 11.9946C117.834 12.2658 117.485 12.4844 117.07 12.6504C116.661 12.8164 116.179 12.8994 115.626 12.8994C114.862 12.8994 114.187 12.7279 113.601 12.3848C113.014 12.0417 112.552 11.5713 112.214 10.9736C111.882 10.376 111.716 9.70085 111.716 8.94824V8.93164C111.716 8.11816 111.904 7.396 112.281 6.76514C112.663 6.12874 113.188 5.6307 113.858 5.271C114.533 4.90576 115.299 4.72314 116.157 4.72314ZM123.601 17.1577C123.225 17.1577 122.91 17.0332 122.655 16.7842C122.406 16.5296 122.282 16.2197 122.282 15.8545C122.282 15.4837 122.406 15.1738 122.655 14.9248C122.91 14.6702 123.225 14.543 123.601 14.543C123.983 14.543 124.299 14.6702 124.548 14.9248C124.797 15.1738 124.921 15.4837 124.921 15.8545C124.921 16.2197 124.797 16.5296 124.548 16.7842C124.299 17.0332 123.983 17.1577 123.601 17.1577ZM130.797 4.72314C131.439 4.72314 132.047 4.84212 132.623 5.08008C133.198 5.3125 133.707 5.67773 134.15 6.17578C134.598 6.66829 134.95 7.30192 135.204 8.07666C135.459 8.84587 135.586 9.77279 135.586 10.8574V10.874C135.586 12.2188 135.393 13.3698 135.005 14.3271C134.618 15.2845 134.062 16.0205 133.337 16.5352C132.617 17.0443 131.757 17.2988 130.755 17.2988C130.019 17.2988 129.355 17.166 128.763 16.9004C128.176 16.6292 127.689 16.2585 127.302 15.7881C126.92 15.3122 126.663 14.7699 126.53 14.1611L126.513 14.0698H128.614L128.647 14.1528C128.752 14.4295 128.901 14.673 129.095 14.8833C129.294 15.0936 129.532 15.2568 129.809 15.373C130.091 15.4837 130.407 15.5391 130.755 15.5391C131.386 15.5391 131.901 15.3537 132.299 14.9829C132.703 14.6066 133.005 14.1058 133.204 13.4805C133.409 12.8496 133.525 12.1523 133.553 11.3887C133.558 11.3057 133.561 11.2254 133.561 11.1479C133.561 11.0649 133.561 10.9847 133.561 10.9072L133.187 8.90674C133.187 8.45296 133.082 8.04069 132.872 7.66992C132.662 7.29915 132.377 7.00586 132.017 6.79004C131.663 6.57422 131.262 6.46631 130.813 6.46631C130.382 6.46631 129.986 6.57145 129.626 6.78174C129.267 6.99202 128.979 7.27979 128.763 7.64502C128.547 8.00472 128.439 8.40869 128.439 8.85693V8.87354C128.439 9.33838 128.542 9.75065 128.746 10.1104C128.951 10.4645 129.231 10.744 129.585 10.9487C129.939 11.1535 130.343 11.2559 130.797 11.2559C131.25 11.2559 131.657 11.1562 132.017 10.957C132.377 10.7578 132.662 10.4811 132.872 10.127C133.082 9.77279 133.187 9.37158 133.187 8.92334V8.90674H133.685V11.1147H133.395C133.251 11.4302 133.038 11.7235 132.756 11.9946C132.473 12.2658 132.125 12.4844 131.71 12.6504C131.3 12.8164 130.819 12.8994 130.265 12.8994C129.502 12.8994 128.827 12.7279 128.24 12.3848C127.653 12.0417 127.191 11.5713 126.854 10.9736C126.522 10.376 126.356 9.70085 126.356 8.94824V8.93164C126.356 8.11816 126.544 7.396 126.92 6.76514C127.302 6.12874 127.828 5.6307 128.497 5.271C129.172 4.90576 129.939 4.72314 130.797 4.72314ZM141.736 4.72314C142.377 4.72314 142.986 4.84212 143.562 5.08008C144.137 5.3125 144.646 5.67773 145.089 6.17578C145.537 6.66829 145.889 7.30192 146.143 8.07666C146.398 8.84587 146.525 9.77279 146.525 10.8574V10.874C146.525 12.2188 146.331 13.3698 145.944 14.3271C145.557 15.2845 145.001 16.0205 144.276 16.5352C143.556 17.0443 142.696 17.2988 141.694 17.2988C140.958 17.2988 140.294 17.166 139.702 16.9004C139.115 16.6292 138.628 16.2585 138.241 15.7881C137.859 15.3122 137.602 14.7699 137.469 14.1611L137.452 14.0698H139.552L139.586 14.1528C139.691 14.4295 139.84 14.673 140.034 14.8833C140.233 15.0936 140.471 15.2568 140.748 15.373C141.03 15.4837 141.345 15.5391 141.694 15.5391C142.325 15.5391 142.84 15.3537 143.238 14.9829C143.642 14.6066 143.944 14.1058 144.143 13.4805C144.348 12.8496 144.464 12.1523 144.491 11.3887C144.497 11.3057 144.5 11.2254 144.5 11.1479C144.5 11.0649 144.5 10.9847 144.5 10.9072L144.126 8.90674C144.126 8.45296 144.021 8.04069 143.811 7.66992C143.6 7.29915 143.315 7.00586 142.956 6.79004C142.602 6.57422 142.2 6.46631 141.752 6.46631C141.321 6.46631 140.925 6.57145 140.565 6.78174C140.205 6.99202 139.918 7.27979 139.702 7.64502C139.486 8.00472 139.378 8.40869 139.378 8.85693V8.87354C139.378 9.33838 139.481 9.75065 139.685 10.1104C139.89 10.4645 140.169 10.744 140.524 10.9487C140.878 11.1535 141.282 11.2559 141.736 11.2559C142.189 11.2559 142.596 11.1562 142.956 10.957C143.315 10.7578 143.6 10.4811 143.811 10.127C144.021 9.77279 144.126 9.37158 144.126 8.92334V8.90674H144.624V11.1147H144.334C144.19 11.4302 143.977 11.7235 143.695 11.9946C143.412 12.2658 143.064 12.4844 142.649 12.6504C142.239 12.8164 141.758 12.8994 141.204 12.8994C140.441 12.8994 139.765 12.7279 139.179 12.3848C138.592 12.0417 138.13 11.5713 137.793 10.9736C137.461 10.376 137.295 9.70085 137.295 8.94824V8.93164C137.295 8.11816 137.483 7.396 137.859 6.76514C138.241 6.12874 138.767 5.6307 139.436 5.271C140.111 4.90576 140.878 4.72314 141.736 4.72314ZM155.875 5.96973L152.535 19.6367H151.312L154.651 5.96973H155.875ZM163.71 17.1392C162.958 17.1392 162.311 16.9731 161.769 16.6411C161.232 16.3091 160.817 15.8403 160.524 15.2349C160.236 14.6245 160.092 13.9067 160.092 13.0815V13.0742C160.092 12.2588 160.236 11.5435 160.524 10.9282C160.817 10.313 161.229 9.83203 161.762 9.48535C162.294 9.13867 162.916 8.96533 163.629 8.96533C164.347 8.96533 164.962 9.13135 165.475 9.46338C165.992 9.79541 166.388 10.2593 166.661 10.855C166.94 11.4458 167.079 12.1343 167.079 12.9204V13.4185H160.751V12.4004H166.427L165.797 13.3306V12.8252C165.797 12.2051 165.704 11.6948 165.519 11.2944C165.333 10.894 165.077 10.5962 164.75 10.4009C164.423 10.2007 164.047 10.1006 163.622 10.1006C163.197 10.1006 162.816 10.2056 162.479 10.4155C162.147 10.6206 161.884 10.9258 161.688 11.3311C161.493 11.7363 161.395 12.2344 161.395 12.8252V13.3306C161.395 13.8921 161.491 14.373 161.681 14.7734C161.871 15.1689 162.142 15.4741 162.494 15.689C162.846 15.8989 163.261 16.0039 163.739 16.0039C164.096 16.0039 164.406 15.9551 164.669 15.8574C164.933 15.7598 165.15 15.6353 165.321 15.4839C165.492 15.3325 165.612 15.1787 165.68 15.0225L165.709 14.9565H166.984L166.969 15.0151C166.901 15.2837 166.779 15.5449 166.603 15.7988C166.432 16.0479 166.21 16.2749 165.936 16.48C165.663 16.6802 165.338 16.8413 164.962 16.9634C164.591 17.0806 164.174 17.1392 163.71 17.1392ZM168.656 17V9.10449H169.931V10.2764H170.048C170.199 9.86133 170.456 9.53906 170.817 9.30957C171.178 9.08008 171.625 8.96533 172.157 8.96533C172.279 8.96533 172.399 8.97266 172.516 8.9873C172.638 8.99707 172.731 9.00684 172.795 9.0166V10.2544C172.663 10.23 172.533 10.2129 172.406 10.2031C172.284 10.1885 172.153 10.1812 172.011 10.1812C171.606 10.1812 171.247 10.2617 170.934 10.4229C170.622 10.584 170.375 10.8086 170.195 11.0967C170.019 11.3848 169.931 11.7217 169.931 12.1074V17H168.656ZM176.533 17.1392C175.947 17.1392 175.429 17.0513 174.98 16.8755C174.531 16.6948 174.17 16.4434 173.896 16.1211C173.628 15.7988 173.469 15.4204 173.42 14.9858H174.724C174.831 15.313 175.041 15.5767 175.354 15.7769C175.666 15.9771 176.074 16.0771 176.577 16.0771C176.933 16.0771 177.246 16.0259 177.514 15.9233C177.788 15.8159 178.003 15.6719 178.159 15.4912C178.315 15.3057 178.393 15.0933 178.393 14.854V14.8394C178.393 14.5708 178.286 14.3438 178.071 14.1582C177.856 13.9678 177.504 13.814 177.016 13.6968L175.793 13.4038C175.3 13.2866 174.895 13.1353 174.577 12.9497C174.26 12.7593 174.025 12.5273 173.874 12.2539C173.723 11.9756 173.647 11.6484 173.647 11.2725V11.2651C173.647 10.8257 173.774 10.4326 174.028 10.0859C174.287 9.73926 174.638 9.46582 175.083 9.26562C175.527 9.06543 176.027 8.96533 176.584 8.96533C177.136 8.96533 177.624 9.05322 178.049 9.229C178.479 9.3999 178.823 9.64404 179.082 9.96143C179.345 10.2788 179.506 10.6523 179.565 11.082H178.313C178.23 10.7695 178.039 10.5156 177.741 10.3203C177.443 10.125 177.055 10.0273 176.577 10.0273C176.264 10.0273 175.986 10.0786 175.742 10.1812C175.498 10.2788 175.305 10.4155 175.163 10.5913C175.022 10.7671 174.951 10.9722 174.951 11.2065V11.2212C174.951 11.397 174.997 11.5532 175.09 11.6899C175.183 11.8267 175.327 11.9463 175.522 12.0488C175.717 12.1514 175.969 12.2417 176.276 12.3198L177.492 12.6128C178.234 12.7935 178.786 13.0522 179.148 13.3892C179.514 13.7261 179.697 14.1777 179.697 14.7441V14.7588C179.697 15.2275 179.558 15.6426 179.279 16.0039C179.001 16.3604 178.623 16.6387 178.144 16.8389C177.671 17.0391 177.133 17.1392 176.533 17.1392ZM184.006 17.0586C183.196 17.0586 182.607 16.895 182.241 16.5679C181.88 16.2407 181.699 15.7012 181.699 14.9492V10.1592H180.454V9.10449H181.699V7.06104H183.018V9.10449H184.746V10.1592H183.018V14.627C183.018 15.0908 183.105 15.4253 183.281 15.6304C183.457 15.8306 183.75 15.9307 184.16 15.9307C184.272 15.9307 184.368 15.9282 184.446 15.9233C184.529 15.9185 184.629 15.9111 184.746 15.9014V16.9854C184.624 17.0049 184.502 17.022 184.38 17.0366C184.258 17.0513 184.133 17.0586 184.006 17.0586ZM189.371 17.1392C188.619 17.1392 187.972 16.9731 187.43 16.6411C186.892 16.3091 186.477 15.8403 186.184 15.2349C185.896 14.6245 185.752 13.9067 185.752 13.0815V13.0742C185.752 12.2588 185.896 11.5435 186.184 10.9282C186.477 10.313 186.89 9.83203 187.422 9.48535C187.954 9.13867 188.577 8.96533 189.29 8.96533C190.008 8.96533 190.623 9.13135 191.136 9.46338C191.653 9.79541 192.049 10.2593 192.322 10.855C192.6 11.4458 192.74 12.1343 192.74 12.9204V13.4185H186.412V12.4004H192.088L191.458 13.3306V12.8252C191.458 12.2051 191.365 11.6948 191.18 11.2944C190.994 10.894 190.738 10.5962 190.411 10.4009C190.083 10.2007 189.707 10.1006 189.283 10.1006C188.858 10.1006 188.477 10.2056 188.14 10.4155C187.808 10.6206 187.544 10.9258 187.349 11.3311C187.154 11.7363 187.056 12.2344 187.056 12.8252V13.3306C187.056 13.8921 187.151 14.373 187.342 14.7734C187.532 15.1689 187.803 15.4741 188.155 15.689C188.506 15.8989 188.921 16.0039 189.4 16.0039C189.756 16.0039 190.066 15.9551 190.33 15.8574C190.594 15.7598 190.811 15.6353 190.982 15.4839C191.153 15.3325 191.272 15.1787 191.341 15.0225L191.37 14.9565H192.644L192.63 15.0151C192.561 15.2837 192.439 15.5449 192.264 15.7988C192.093 16.0479 191.871 16.2749 191.597 16.48C191.324 16.6802 190.999 16.8413 190.623 16.9634C190.252 17.0806 189.834 17.1392 189.371 17.1392ZM197.027 17.1392C196.441 17.1392 195.924 17.0513 195.474 16.8755C195.025 16.6948 194.664 16.4434 194.39 16.1211C194.122 15.7988 193.963 15.4204 193.914 14.9858H195.218C195.325 15.313 195.535 15.5767 195.848 15.7769C196.16 15.9771 196.568 16.0771 197.071 16.0771C197.428 16.0771 197.74 16.0259 198.009 15.9233C198.282 15.8159 198.497 15.6719 198.653 15.4912C198.809 15.3057 198.888 15.0933 198.888 14.854V14.8394C198.888 14.5708 198.78 14.3438 198.565 14.1582C198.35 13.9678 197.999 13.814 197.511 13.6968L196.287 13.4038C195.794 13.2866 195.389 13.1353 195.072 12.9497C194.754 12.7593 194.52 12.5273 194.368 12.2539C194.217 11.9756 194.141 11.6484 194.141 11.2725V11.2651C194.141 10.8257 194.268 10.4326 194.522 10.0859C194.781 9.73926 195.133 9.46582 195.577 9.26562C196.021 9.06543 196.522 8.96533 197.078 8.96533C197.63 8.96533 198.118 9.05322 198.543 9.229C198.973 9.3999 199.317 9.64404 199.576 9.96143C199.84 10.2788 200.001 10.6523 200.059 11.082H198.807C198.724 10.7695 198.534 10.5156 198.236 10.3203C197.938 10.125 197.55 10.0273 197.071 10.0273C196.759 10.0273 196.48 10.0786 196.236 10.1812C195.992 10.2788 195.799 10.4155 195.658 10.5913C195.516 10.7671 195.445 10.9722 195.445 11.2065V11.2212C195.445 11.397 195.492 11.5532 195.584 11.6899C195.677 11.8267 195.821 11.9463 196.016 12.0488C196.212 12.1514 196.463 12.2417 196.771 12.3198L197.987 12.6128C198.729 12.7935 199.281 13.0522 199.642 13.3892C200.008 13.7261 200.191 14.1777 200.191 14.7441V14.7588C200.191 15.2275 200.052 15.6426 199.774 16.0039C199.495 16.3604 199.117 16.6387 198.638 16.8389C198.165 17.0391 197.628 17.1392 197.027 17.1392ZM208.012 17.249C207.553 17.249 207.145 17.1831 206.789 17.0513C206.432 16.9194 206.129 16.7339 205.88 16.4946C205.631 16.2554 205.436 15.9746 205.295 15.6523C205.153 15.3301 205.067 14.9785 205.038 14.5977L205.031 14.4951H206.349L206.357 14.5684C206.386 14.832 206.464 15.0762 206.591 15.3008C206.718 15.5205 206.899 15.6987 207.133 15.8354C207.367 15.9673 207.658 16.0332 208.004 16.0332C208.59 16.0332 209.037 15.8647 209.345 15.5278C209.652 15.186 209.806 14.6929 209.806 14.0483V6.43115H211.125V14.063C211.125 14.7271 211 15.2983 210.751 15.7769C210.507 16.2505 210.153 16.6143 209.689 16.8682C209.225 17.1221 208.666 17.249 208.012 17.249ZM215.427 17.1392C214.929 17.1392 214.479 17.0439 214.079 16.8535C213.684 16.6631 213.369 16.3921 213.134 16.0405C212.905 15.689 212.79 15.2739 212.79 14.7954V14.7808C212.79 14.312 212.902 13.9116 213.127 13.5796C213.352 13.2427 213.679 12.979 214.108 12.7886C214.538 12.5981 215.058 12.4858 215.668 12.4517L218.569 12.2759V13.2939L215.822 13.4697C215.222 13.5039 214.782 13.6284 214.504 13.8433C214.23 14.0581 214.094 14.3608 214.094 14.7515V14.7661C214.094 15.1665 214.245 15.479 214.548 15.7036C214.851 15.9233 215.231 16.0332 215.69 16.0332C216.125 16.0332 216.511 15.9478 216.848 15.7769C217.185 15.6011 217.448 15.3643 217.639 15.0664C217.834 14.7686 217.932 14.4316 217.932 14.0557V11.5947C217.932 11.1064 217.783 10.7354 217.485 10.4814C217.192 10.2227 216.75 10.0933 216.159 10.0933C215.686 10.0933 215.297 10.1787 214.995 10.3496C214.692 10.5156 214.489 10.7524 214.387 11.0601L214.379 11.082H213.105L213.112 11.0381C213.181 10.623 213.352 10.2617 213.625 9.9541C213.903 9.6416 214.262 9.3999 214.702 9.229C215.141 9.05322 215.642 8.96533 216.203 8.96533C216.848 8.96533 217.392 9.07031 217.836 9.28027C218.286 9.49023 218.625 9.79297 218.854 10.1885C219.089 10.5791 219.206 11.0479 219.206 11.5947V17H217.932V15.8354H217.814C217.648 16.1138 217.446 16.3506 217.207 16.5459C216.972 16.7412 216.706 16.8901 216.408 16.9927C216.11 17.0903 215.783 17.1392 215.427 17.1392ZM221.208 17V5.96973H222.483V10.291H222.6C222.8 9.87109 223.088 9.54639 223.464 9.31689C223.84 9.08252 224.319 8.96533 224.9 8.96533C225.491 8.96533 225.991 9.08008 226.401 9.30957C226.811 9.53418 227.124 9.86377 227.339 10.2983C227.554 10.7329 227.661 11.2627 227.661 11.8877V17H226.387V12.1953C226.387 11.4824 226.235 10.9551 225.933 10.6133C225.635 10.2666 225.171 10.0933 224.541 10.0933C224.121 10.0933 223.757 10.1836 223.45 10.3643C223.142 10.5449 222.903 10.8013 222.732 11.1333C222.566 11.4653 222.483 11.8633 222.483 12.3271V17H221.208ZM229.568 17V9.10449H230.843V10.2764H230.96C231.111 9.86133 231.367 9.53906 231.729 9.30957C232.09 9.08008 232.537 8.96533 233.069 8.96533C233.191 8.96533 233.311 8.97266 233.428 8.9873C233.55 8.99707 233.643 9.00684 233.706 9.0166V10.2544C233.575 10.23 233.445 10.2129 233.318 10.2031C233.196 10.1885 233.064 10.1812 232.923 10.1812C232.517 10.1812 232.158 10.2617 231.846 10.4229C231.533 10.584 231.287 10.8086 231.106 11.0967C230.93 11.3848 230.843 11.7217 230.843 12.1074V17H229.568Z" fill="#6FF4E1"/>
</svg>
