<svg width="263" height="22" viewBox="0 0 263 22" fill="none" xmlns="http://www.w3.org/2000/svg">
<path d="M5.92969 16.8257C5.12174 16.8257 4.38851 16.6956 3.72998 16.4355C3.07145 16.1699 2.54574 15.7881 2.15283 15.29C1.75993 14.7865 1.54964 14.1777 1.52197 13.4639L1.53027 13.4556L3.45605 13.4473L3.46436 13.4639C3.51416 13.8014 3.6359 14.1003 3.82959 14.3604C4.02327 14.6149 4.29443 14.8141 4.64307 14.958C4.9917 15.1019 5.42887 15.1738 5.95459 15.1738C6.49691 15.1738 6.94238 15.1102 7.29102 14.9829C7.63965 14.8501 7.89697 14.6675 8.06299 14.4351C8.229 14.2026 8.31201 13.9342 8.31201 13.6299V13.6133C8.31201 13.2038 8.16536 12.8745 7.87207 12.6255C7.58431 12.3765 7.05306 12.1606 6.27832 11.978L5.0415 11.6958C4.33317 11.5298 3.73275 11.3084 3.24023 11.0317C2.75326 10.755 2.38249 10.4119 2.12793 10.0024C1.87891 9.5874 1.75439 9.09212 1.75439 8.5166V8.5C1.75439 7.81934 1.93424 7.23275 2.29395 6.74023C2.65918 6.24772 3.15446 5.86865 3.77979 5.60303C4.41064 5.33187 5.12451 5.19629 5.92139 5.19629C6.73486 5.19629 7.45426 5.3374 8.07959 5.61963C8.70492 5.89632 9.20296 6.28923 9.57373 6.79834C9.9445 7.30192 10.141 7.89681 10.1631 8.58301V8.59131L8.2373 8.59961L8.229 8.58301C8.19027 8.20671 8.06852 7.89128 7.86377 7.63672C7.65902 7.37663 7.39339 7.18018 7.06689 7.04736C6.7404 6.91455 6.36686 6.84814 5.94629 6.84814C5.46484 6.84814 5.06087 6.91732 4.73438 7.05566C4.40788 7.19401 4.16162 7.37663 3.99561 7.60352C3.82959 7.8304 3.74658 8.07943 3.74658 8.35059V8.36719C3.74658 8.61068 3.81022 8.82926 3.9375 9.02295C4.07031 9.21663 4.27507 9.38818 4.55176 9.5376C4.83398 9.68701 5.20475 9.81706 5.66406 9.92773L6.90088 10.21C8.00765 10.4645 8.85156 10.8381 9.43262 11.3306C10.0137 11.8231 10.3042 12.5176 10.3042 13.4141V13.4307C10.3042 14.1611 10.1105 14.7809 9.72314 15.29C9.33577 15.7936 8.81006 16.1755 8.146 16.4355C7.48747 16.6956 6.7487 16.8257 5.92969 16.8257ZM5.46484 18.187V3.81836H6.42773V18.187H5.46484ZM16.6693 17.2407C15.795 17.2407 15.0285 17.0941 14.37 16.8008C13.717 16.5075 13.1996 16.1007 12.8178 15.5806C12.4415 15.0549 12.2257 14.4489 12.1703 13.7627L12.162 13.6631H14.204L14.2123 13.7544C14.251 14.092 14.3756 14.3936 14.5858 14.6592C14.7961 14.9193 15.0784 15.124 15.4325 15.2734C15.7867 15.4173 16.199 15.4893 16.6693 15.4893C17.1286 15.4893 17.5299 15.409 17.8729 15.2485C18.2216 15.0881 18.4927 14.8667 18.6864 14.5845C18.8801 14.3022 18.977 13.9757 18.977 13.605V13.5884C18.977 12.9575 18.7584 12.4733 18.3212 12.1357C17.884 11.7982 17.2808 11.6294 16.5116 11.6294H15.0922V10.0356H16.4701C16.9073 10.0356 17.2919 9.95817 17.6239 9.80322C17.956 9.64827 18.2133 9.43799 18.3959 9.17236C18.5785 8.9012 18.6698 8.59131 18.6698 8.24268V8.22607C18.6698 7.85531 18.5896 7.53988 18.4291 7.27979C18.2742 7.01969 18.0445 6.82048 17.7401 6.68213C17.4413 6.54378 17.0788 6.47461 16.6527 6.47461C16.2322 6.47461 15.8586 6.54655 15.5321 6.69043C15.2112 6.83431 14.9538 7.03906 14.7602 7.30469C14.5665 7.56478 14.4503 7.87191 14.4115 8.22607L14.4032 8.30908H12.4193L12.4276 8.20947C12.4885 7.51774 12.6988 6.91732 13.0585 6.4082C13.4237 5.89355 13.9107 5.49512 14.5194 5.21289C15.1337 4.92513 15.8448 4.78125 16.6527 4.78125C17.4773 4.78125 18.1939 4.91683 18.8026 5.18799C19.4114 5.45361 19.8817 5.82161 20.2138 6.29199C20.5513 6.76237 20.7201 7.31299 20.7201 7.94385V7.96045C20.7201 8.45296 20.6094 8.89014 20.3881 9.27197C20.1723 9.64827 19.8734 9.96094 19.4916 10.21C19.1153 10.459 18.6864 10.6333 18.205 10.7329V10.7744C19.0904 10.8574 19.8015 11.1507 20.3383 11.6543C20.8751 12.1523 21.1435 12.8164 21.1435 13.6465V13.6631C21.1435 14.3604 20.9553 14.9801 20.579 15.5225C20.2027 16.0592 19.677 16.4798 19.0019 16.7842C18.3323 17.0885 17.5548 17.2407 16.6693 17.2407ZM27.2513 4.72314C27.8932 4.72314 28.5019 4.84212 29.0774 5.08008C29.653 5.3125 30.1621 5.67773 30.6048 6.17578C31.053 6.66829 31.4044 7.30192 31.659 8.07666C31.9135 8.84587 32.0408 9.77279 32.0408 10.8574V10.874C32.0408 12.2188 31.8471 13.3698 31.4598 14.3271C31.0724 15.2845 30.5162 16.0205 29.7913 16.5352C29.0719 17.0443 28.2114 17.2988 27.2098 17.2988C26.4738 17.2988 25.8097 17.166 25.2176 16.9004C24.631 16.6292 24.144 16.2585 23.7566 15.7881C23.3748 15.3122 23.1175 14.7699 22.9847 14.1611L22.9681 14.0698H25.0682L25.1014 14.1528C25.2065 14.4295 25.3559 14.673 25.5496 14.8833C25.7488 15.0936 25.9868 15.2568 26.2635 15.373C26.5457 15.4837 26.8611 15.5391 27.2098 15.5391C27.8406 15.5391 28.3553 15.3537 28.7537 14.9829C29.1577 14.6066 29.4593 14.1058 29.6585 13.4805C29.8632 12.8496 29.9795 12.1523 30.0071 11.3887C30.0127 11.3057 30.0154 11.2254 30.0154 11.1479C30.0154 11.0649 30.0154 10.9847 30.0154 10.9072L29.6419 8.90674C29.6419 8.45296 29.5368 8.04069 29.3265 7.66992C29.1162 7.29915 28.8312 7.00586 28.4715 6.79004C28.1173 6.57422 27.7161 6.46631 27.2679 6.46631C26.8362 6.46631 26.4406 6.57145 26.0809 6.78174C25.7212 6.99202 25.4334 7.27979 25.2176 7.64502C25.0018 8.00472 24.8938 8.40869 24.8938 8.85693V8.87354C24.8938 9.33838 24.9962 9.75065 25.201 10.1104C25.4057 10.4645 25.6852 10.744 26.0394 10.9487C26.3935 11.1535 26.7975 11.2559 27.2513 11.2559C27.705 11.2559 28.1118 11.1562 28.4715 10.957C28.8312 10.7578 29.1162 10.4811 29.3265 10.127C29.5368 9.77279 29.6419 9.37158 29.6419 8.92334V8.90674H30.1399V11.1147H29.8494C29.7055 11.4302 29.4925 11.7235 29.2103 11.9946C28.928 12.2658 28.5794 12.4844 28.1644 12.6504C27.7549 12.8164 27.2734 12.8994 26.72 12.8994C25.9563 12.8994 25.2812 12.7279 24.6946 12.3848C24.108 12.0417 23.646 11.5713 23.3084 10.9736C22.9764 10.376 22.8104 9.70085 22.8104 8.94824V8.93164C22.8104 8.11816 22.9985 7.396 23.3748 6.76514C23.7566 6.12874 24.2824 5.6307 24.952 5.271C25.6271 4.90576 26.3935 4.72314 27.2513 4.72314ZM34.6955 17.1577C34.3192 17.1577 34.0038 17.0332 33.7492 16.7842C33.5002 16.5296 33.3757 16.2197 33.3757 15.8545C33.3757 15.4837 33.5002 15.1738 33.7492 14.9248C34.0038 14.6702 34.3192 14.543 34.6955 14.543C35.0773 14.543 35.3928 14.6702 35.6418 14.9248C35.8908 15.1738 36.0153 15.4837 36.0153 15.8545C36.0153 16.2197 35.8908 16.5296 35.6418 16.7842C35.3928 17.0332 35.0773 17.1577 34.6955 17.1577ZM41.8907 4.72314C42.5327 4.72314 43.1414 4.84212 43.7169 5.08008C44.2924 5.3125 44.8015 5.67773 45.2442 6.17578C45.6925 6.66829 46.0439 7.30192 46.2984 8.07666C46.553 8.84587 46.6803 9.77279 46.6803 10.8574V10.874C46.6803 12.2188 46.4866 13.3698 46.0992 14.3271C45.7119 15.2845 45.1557 16.0205 44.4308 16.5352C43.7114 17.0443 42.8508 17.2988 41.8492 17.2988C41.1132 17.2988 40.4492 17.166 39.857 16.9004C39.2704 16.6292 38.7835 16.2585 38.3961 15.7881C38.0143 15.3122 37.7569 14.7699 37.6241 14.1611L37.6075 14.0698H39.7076L39.7408 14.1528C39.846 14.4295 39.9954 14.673 40.1891 14.8833C40.3883 15.0936 40.6262 15.2568 40.9029 15.373C41.1852 15.4837 41.5006 15.5391 41.8492 15.5391C42.4801 15.5391 42.9947 15.3537 43.3932 14.9829C43.7971 14.6066 44.0987 14.1058 44.298 13.4805C44.5027 12.8496 44.6189 12.1523 44.6466 11.3887C44.6521 11.3057 44.6549 11.2254 44.6549 11.1479C44.6549 11.0649 44.6549 10.9847 44.6549 10.9072L44.2813 8.90674C44.2813 8.45296 44.1762 8.04069 43.9659 7.66992C43.7556 7.29915 43.4706 7.00586 43.1109 6.79004C42.7568 6.57422 42.3556 6.46631 41.9073 6.46631C41.4757 6.46631 41.08 6.57145 40.7203 6.78174C40.3606 6.99202 40.0729 7.27979 39.857 7.64502C39.6412 8.00472 39.5333 8.40869 39.5333 8.85693V8.87354C39.5333 9.33838 39.6357 9.75065 39.8404 10.1104C40.0452 10.4645 40.3246 10.744 40.6788 10.9487C41.033 11.1535 41.4369 11.2559 41.8907 11.2559C42.3445 11.2559 42.7512 11.1562 43.1109 10.957C43.4706 10.7578 43.7556 10.4811 43.9659 10.127C44.1762 9.77279 44.2813 9.37158 44.2813 8.92334V8.90674H44.7794V11.1147H44.4889C44.345 11.4302 44.1319 11.7235 43.8497 11.9946C43.5675 12.2658 43.2188 12.4844 42.8038 12.6504C42.3943 12.8164 41.9129 12.8994 41.3595 12.8994C40.5958 12.8994 39.9207 12.7279 39.3341 12.3848C38.7475 12.0417 38.2854 11.5713 37.9479 10.9736C37.6158 10.376 37.4498 9.70085 37.4498 8.94824V8.93164C37.4498 8.11816 37.638 7.396 38.0143 6.76514C38.3961 6.12874 38.9218 5.6307 39.5914 5.271C40.2665 4.90576 41.033 4.72314 41.8907 4.72314ZM52.8296 4.72314C53.4715 4.72314 54.0802 4.84212 54.6558 5.08008C55.2313 5.3125 55.7404 5.67773 56.1831 6.17578C56.6313 6.66829 56.9827 7.30192 57.2373 8.07666C57.4919 8.84587 57.6191 9.77279 57.6191 10.8574V10.874C57.6191 12.2188 57.4255 13.3698 57.0381 14.3271C56.6507 15.2845 56.0946 16.0205 55.3696 16.5352C54.6502 17.0443 53.7897 17.2988 52.7881 17.2988C52.0521 17.2988 51.388 17.166 50.7959 16.9004C50.2093 16.6292 49.7223 16.2585 49.335 15.7881C48.9531 15.3122 48.6958 14.7699 48.563 14.1611L48.5464 14.0698H50.6465L50.6797 14.1528C50.7848 14.4295 50.9342 14.673 51.1279 14.8833C51.3271 15.0936 51.5651 15.2568 51.8418 15.373C52.124 15.4837 52.4395 15.5391 52.7881 15.5391C53.4189 15.5391 53.9336 15.3537 54.332 14.9829C54.736 14.6066 55.0376 14.1058 55.2368 13.4805C55.4416 12.8496 55.5578 12.1523 55.5854 11.3887C55.591 11.3057 55.5938 11.2254 55.5938 11.1479C55.5938 11.0649 55.5938 10.9847 55.5938 10.9072L55.2202 8.90674C55.2202 8.45296 55.1151 8.04069 54.9048 7.66992C54.6945 7.29915 54.4095 7.00586 54.0498 6.79004C53.6956 6.57422 53.2944 6.46631 52.8462 6.46631C52.4146 6.46631 52.0189 6.57145 51.6592 6.78174C51.2995 6.99202 51.0117 7.27979 50.7959 7.64502C50.5801 8.00472 50.4722 8.40869 50.4722 8.85693V8.87354C50.4722 9.33838 50.5745 9.75065 50.7793 10.1104C50.984 10.4645 51.2635 10.744 51.6177 10.9487C51.9718 11.1535 52.3758 11.2559 52.8296 11.2559C53.2834 11.2559 53.6901 11.1562 54.0498 10.957C54.4095 10.7578 54.6945 10.4811 54.9048 10.127C55.1151 9.77279 55.2202 9.37158 55.2202 8.92334V8.90674H55.7183V11.1147H55.4277C55.2839 11.4302 55.0708 11.7235 54.7886 11.9946C54.5063 12.2658 54.1577 12.4844 53.7427 12.6504C53.3332 12.8164 52.8517 12.8994 52.2983 12.8994C51.5347 12.8994 50.8595 12.7279 50.2729 12.3848C49.6864 12.0417 49.2243 11.5713 48.8867 10.9736C48.5547 10.376 48.3887 9.70085 48.3887 8.94824V8.93164C48.3887 8.11816 48.5768 7.396 48.9531 6.76514C49.335 6.12874 49.8607 5.6307 50.5303 5.271C51.2054 4.90576 51.9718 4.72314 52.8296 4.72314Z" fill="white" fill-opacity="0.6"/>
<path d="M0.32666 11.646H58.665V13.0073H0.32666V11.646Z" fill="white" fill-opacity="0.6"/>
<path d="M81.2422 10.9902C81.2422 11.2503 81.1481 11.4689 80.96 11.646L76.7183 15.8794C76.5301 16.062 76.3198 16.1533 76.0874 16.1533C75.8328 16.1533 75.6253 16.0731 75.4648 15.9126C75.3044 15.7521 75.2241 15.5501 75.2241 15.3066C75.2241 15.1794 75.2463 15.0632 75.2905 14.958C75.3403 14.8473 75.4067 14.756 75.4897 14.6841L76.7432 13.4058L79.1753 11.1978L79.5073 11.729L77.0337 11.8867H69.6709C69.3942 11.8867 69.1729 11.8037 69.0068 11.6377C68.8408 11.4717 68.7578 11.2559 68.7578 10.9902C68.7578 10.7301 68.8408 10.5171 69.0068 10.3511C69.1729 10.1851 69.3942 10.1021 69.6709 10.1021H77.0337L79.5073 10.2598L79.1753 10.791L76.7432 8.58301L75.4897 7.30469C75.4067 7.22721 75.3403 7.1359 75.2905 7.03076C75.2463 6.92562 75.2241 6.80664 75.2241 6.67383C75.2241 6.43587 75.3044 6.23665 75.4648 6.07617C75.6253 5.91016 75.8328 5.82715 76.0874 5.82715C76.3198 5.82715 76.5301 5.91846 76.7183 6.10107L80.96 10.3345C81.1481 10.5171 81.2422 10.7357 81.2422 10.9902Z" fill="white" fill-opacity="0.6"/>
<path d="M96.6251 16.8257C95.8172 16.8257 95.0839 16.6956 94.4254 16.4355C93.7669 16.1699 93.2411 15.7881 92.8482 15.29C92.4553 14.7865 92.2451 14.1777 92.2174 13.4639L92.2257 13.4556L94.1515 13.4473L94.1598 13.4639C94.2096 13.8014 94.3313 14.1003 94.525 14.3604C94.7187 14.6149 94.9898 14.8141 95.3385 14.958C95.6871 15.1019 96.1243 15.1738 96.65 15.1738C97.1923 15.1738 97.6378 15.1102 97.9864 14.9829C98.3351 14.8501 98.5924 14.6675 98.7584 14.4351C98.9244 14.2026 99.0074 13.9342 99.0074 13.6299V13.6133C99.0074 13.2038 98.8608 12.8745 98.5675 12.6255C98.2797 12.3765 97.7485 12.1606 96.9737 11.978L95.7369 11.6958C95.0286 11.5298 94.4282 11.3084 93.9356 11.0317C93.4487 10.755 93.0779 10.4119 92.8233 10.0024C92.5743 9.5874 92.4498 9.09212 92.4498 8.5166V8.5C92.4498 7.81934 92.6297 7.23275 92.9894 6.74023C93.3546 6.24772 93.8499 5.86865 94.4752 5.60303C95.1061 5.33187 95.8199 5.19629 96.6168 5.19629C97.4303 5.19629 98.1497 5.3374 98.775 5.61963C99.4003 5.89632 99.8984 6.28923 100.269 6.79834C100.64 7.30192 100.836 7.89681 100.858 8.58301V8.59131L98.9327 8.59961L98.9244 8.58301C98.8857 8.20671 98.7639 7.89128 98.5592 7.63672C98.3544 7.37663 98.0888 7.18018 97.7623 7.04736C97.4358 6.91455 97.0623 6.84814 96.6417 6.84814C96.1603 6.84814 95.7563 6.91732 95.4298 7.05566C95.1033 7.19401 94.857 7.37663 94.691 7.60352C94.525 7.8304 94.442 8.07943 94.442 8.35059V8.36719C94.442 8.61068 94.5056 8.82926 94.6329 9.02295C94.7657 9.21663 94.9705 9.38818 95.2472 9.5376C95.5294 9.68701 95.9002 9.81706 96.3595 9.92773L97.5963 10.21C98.7031 10.4645 99.547 10.8381 100.128 11.3306C100.709 11.8231 101 12.5176 101 13.4141V13.4307C101 14.1611 100.806 14.7809 100.419 15.29C100.031 15.7936 99.5055 16.1755 98.8414 16.4355C98.1829 16.6956 97.4441 16.8257 96.6251 16.8257ZM96.1603 18.187V3.81836H97.1231V18.187H96.1603ZM105.97 17V7.13037H105.821L102.841 9.23047V7.22168L105.97 5.02197H108.104V17H105.97ZM115.274 4.72314C115.916 4.72314 116.524 4.84212 117.1 5.08008C117.676 5.3125 118.185 5.67773 118.627 6.17578C119.076 6.66829 119.427 7.30192 119.682 8.07666C119.936 8.84587 120.063 9.77279 120.063 10.8574V10.874C120.063 12.2188 119.87 13.3698 119.482 14.3271C119.095 15.2845 118.539 16.0205 117.814 16.5352C117.094 17.0443 116.234 17.2988 115.232 17.2988C114.496 17.2988 113.832 17.166 113.24 16.9004C112.654 16.6292 112.167 16.2585 111.779 15.7881C111.397 15.3122 111.14 14.7699 111.007 14.1611L110.991 14.0698H113.091L113.124 14.1528C113.229 14.4295 113.378 14.673 113.572 14.8833C113.771 15.0936 114.009 15.2568 114.286 15.373C114.568 15.4837 114.884 15.5391 115.232 15.5391C115.863 15.5391 116.378 15.3537 116.776 14.9829C117.18 14.6066 117.482 14.1058 117.681 13.4805C117.886 12.8496 118.002 12.1523 118.03 11.3887C118.035 11.3057 118.038 11.2254 118.038 11.1479C118.038 11.0649 118.038 10.9847 118.038 10.9072L117.664 8.90674C117.664 8.45296 117.559 8.04069 117.349 7.66992C117.139 7.29915 116.854 7.00586 116.494 6.79004C116.14 6.57422 115.739 6.46631 115.29 6.46631C114.859 6.46631 114.463 6.57145 114.103 6.78174C113.744 6.99202 113.456 7.27979 113.24 7.64502C113.024 8.00472 112.916 8.40869 112.916 8.85693V8.87354C112.916 9.33838 113.019 9.75065 113.224 10.1104C113.428 10.4645 113.708 10.744 114.062 10.9487C114.416 11.1535 114.82 11.2559 115.274 11.2559C115.728 11.2559 116.134 11.1562 116.494 10.957C116.854 10.7578 117.139 10.4811 117.349 10.127C117.559 9.77279 117.664 9.37158 117.664 8.92334V8.90674H118.163V11.1147H117.872C117.728 11.4302 117.515 11.7235 117.233 11.9946C116.951 12.2658 116.602 12.4844 116.187 12.6504C115.777 12.8164 115.296 12.8994 114.743 12.8994C113.979 12.8994 113.304 12.7279 112.717 12.3848C112.131 12.0417 111.669 11.5713 111.331 10.9736C110.999 10.376 110.833 9.70085 110.833 8.94824V8.93164C110.833 8.11816 111.021 7.396 111.397 6.76514C111.779 6.12874 112.305 5.6307 112.975 5.271C113.65 4.90576 114.416 4.72314 115.274 4.72314ZM122.718 17.1577C122.342 17.1577 122.026 17.0332 121.772 16.7842C121.523 16.5296 121.398 16.2197 121.398 15.8545C121.398 15.4837 121.523 15.1738 121.772 14.9248C122.026 14.6702 122.342 14.543 122.718 14.543C123.1 14.543 123.415 14.6702 123.664 14.9248C123.913 15.1738 124.038 15.4837 124.038 15.8545C124.038 16.2197 123.913 16.5296 123.664 16.7842C123.415 17.0332 123.1 17.1577 122.718 17.1577ZM129.913 4.72314C130.555 4.72314 131.164 4.84212 131.739 5.08008C132.315 5.3125 132.824 5.67773 133.267 6.17578C133.715 6.66829 134.066 7.30192 134.321 8.07666C134.576 8.84587 134.703 9.77279 134.703 10.8574V10.874C134.703 12.2188 134.509 13.3698 134.122 14.3271C133.734 15.2845 133.178 16.0205 132.453 16.5352C131.734 17.0443 130.873 17.2988 129.872 17.2988C129.136 17.2988 128.472 17.166 127.88 16.9004C127.293 16.6292 126.806 16.2585 126.419 15.7881C126.037 15.3122 125.779 14.7699 125.647 14.1611L125.63 14.0698H127.73L127.763 14.1528C127.869 14.4295 128.018 14.673 128.212 14.8833C128.411 15.0936 128.649 15.2568 128.925 15.373C129.208 15.4837 129.523 15.5391 129.872 15.5391C130.503 15.5391 131.017 15.3537 131.416 14.9829C131.82 14.6066 132.121 14.1058 132.321 13.4805C132.525 12.8496 132.641 12.1523 132.669 11.3887C132.675 11.3057 132.677 11.2254 132.677 11.1479C132.677 11.0649 132.677 10.9847 132.677 10.9072L132.304 8.90674C132.304 8.45296 132.199 8.04069 131.988 7.66992C131.778 7.29915 131.493 7.00586 131.133 6.79004C130.779 6.57422 130.378 6.46631 129.93 6.46631C129.498 6.46631 129.103 6.57145 128.743 6.78174C128.383 6.99202 128.095 7.27979 127.88 7.64502C127.664 8.00472 127.556 8.40869 127.556 8.85693V8.87354C127.556 9.33838 127.658 9.75065 127.863 10.1104C128.068 10.4645 128.347 10.744 128.701 10.9487C129.056 11.1535 129.46 11.2559 129.913 11.2559C130.367 11.2559 130.774 11.1562 131.133 10.957C131.493 10.7578 131.778 10.4811 131.988 10.127C132.199 9.77279 132.304 9.37158 132.304 8.92334V8.90674H132.802V11.1147H132.511C132.368 11.4302 132.154 11.7235 131.872 11.9946C131.59 12.2658 131.241 12.4844 130.826 12.6504C130.417 12.8164 129.935 12.8994 129.382 12.8994C128.618 12.8994 127.943 12.7279 127.357 12.3848C126.77 12.0417 126.308 11.5713 125.97 10.9736C125.638 10.376 125.472 9.70085 125.472 8.94824V8.93164C125.472 8.11816 125.661 7.396 126.037 6.76514C126.419 6.12874 126.944 5.6307 127.614 5.271C128.289 4.90576 129.056 4.72314 129.913 4.72314ZM140.852 4.72314C141.494 4.72314 142.103 4.84212 142.678 5.08008C143.254 5.3125 143.763 5.67773 144.206 6.17578C144.654 6.66829 145.005 7.30192 145.26 8.07666C145.514 8.84587 145.642 9.77279 145.642 10.8574V10.874C145.642 12.2188 145.448 13.3698 145.061 14.3271C144.673 15.2845 144.117 16.0205 143.392 16.5352C142.673 17.0443 141.812 17.2988 140.811 17.2988C140.075 17.2988 139.411 17.166 138.818 16.9004C138.232 16.6292 137.745 16.2585 137.358 15.7881C136.976 15.3122 136.718 14.7699 136.586 14.1611L136.569 14.0698H138.669L138.702 14.1528C138.807 14.4295 138.957 14.673 139.15 14.8833C139.35 15.0936 139.588 15.2568 139.864 15.373C140.147 15.4837 140.462 15.5391 140.811 15.5391C141.442 15.5391 141.956 15.3537 142.355 14.9829C142.759 14.6066 143.06 14.1058 143.259 13.4805C143.464 12.8496 143.58 12.1523 143.608 11.3887C143.614 11.3057 143.616 11.2254 143.616 11.1479C143.616 11.0649 143.616 10.9847 143.616 10.9072L143.243 8.90674C143.243 8.45296 143.138 8.04069 142.927 7.66992C142.717 7.29915 142.432 7.00586 142.072 6.79004C141.718 6.57422 141.317 6.46631 140.869 6.46631C140.437 6.46631 140.041 6.57145 139.682 6.78174C139.322 6.99202 139.034 7.27979 138.818 7.64502C138.603 8.00472 138.495 8.40869 138.495 8.85693V8.87354C138.495 9.33838 138.597 9.75065 138.802 10.1104C139.007 10.4645 139.286 10.744 139.64 10.9487C139.994 11.1535 140.398 11.2559 140.852 11.2559C141.306 11.2559 141.713 11.1562 142.072 10.957C142.432 10.7578 142.717 10.4811 142.927 10.127C143.138 9.77279 143.243 9.37158 143.243 8.92334V8.90674H143.741V11.1147H143.45C143.306 11.4302 143.093 11.7235 142.811 11.9946C142.529 12.2658 142.18 12.4844 141.765 12.6504C141.356 12.8164 140.874 12.8994 140.321 12.8994C139.557 12.8994 138.882 12.7279 138.296 12.3848C137.709 12.0417 137.247 11.5713 136.909 10.9736C136.577 10.376 136.411 9.70085 136.411 8.94824V8.93164C136.411 8.11816 136.599 7.396 136.976 6.76514C137.358 6.12874 137.883 5.6307 138.553 5.271C139.228 4.90576 139.994 4.72314 140.852 4.72314ZM154.991 5.96973L151.651 19.6367H150.428L153.768 5.96973H154.991ZM159.604 19.6367V9.10449H160.878V10.3643H160.995C161.156 10.0713 161.359 9.82227 161.603 9.61719C161.847 9.40723 162.126 9.24609 162.438 9.13379C162.751 9.02148 163.09 8.96533 163.456 8.96533C164.125 8.96533 164.706 9.13623 165.199 9.47803C165.697 9.81494 166.083 10.2886 166.357 10.8989C166.63 11.5093 166.767 12.2246 166.767 13.0449V13.0596C166.767 13.8848 166.63 14.6025 166.357 15.2129C166.083 15.8232 165.697 16.2969 165.199 16.6338C164.706 16.9707 164.125 17.1392 163.456 17.1392C163.095 17.1392 162.753 17.083 162.431 16.9707C162.113 16.8535 161.83 16.6924 161.581 16.4873C161.337 16.2822 161.142 16.0381 160.995 15.7549H160.878V19.6367H159.604ZM163.163 16.0112C163.647 16.0112 164.059 15.894 164.401 15.6597C164.743 15.4204 165.004 15.0811 165.185 14.6416C165.37 14.1973 165.463 13.6699 165.463 13.0596V13.0449C165.463 12.4297 165.37 11.9023 165.185 11.4629C165.004 11.0234 164.743 10.6865 164.401 10.4521C164.059 10.2129 163.647 10.0933 163.163 10.0933C162.685 10.0933 162.272 10.2129 161.925 10.4521C161.579 10.6914 161.313 11.0308 161.127 11.4702C160.942 11.9097 160.849 12.4346 160.849 13.0449V13.0596C160.849 13.665 160.942 14.1899 161.127 14.6343C161.313 15.0737 161.579 15.4131 161.925 15.6523C162.272 15.8916 162.685 16.0112 163.163 16.0112ZM168.359 17V9.10449H169.633V10.2764H169.751C169.902 9.86133 170.158 9.53906 170.52 9.30957C170.881 9.08008 171.328 8.96533 171.86 8.96533C171.982 8.96533 172.102 8.97266 172.219 8.9873C172.341 8.99707 172.434 9.00684 172.497 9.0166V10.2544C172.365 10.23 172.236 10.2129 172.109 10.2031C171.987 10.1885 171.855 10.1812 171.713 10.1812C171.308 10.1812 170.949 10.2617 170.637 10.4229C170.324 10.584 170.078 10.8086 169.897 11.0967C169.721 11.3848 169.633 11.7217 169.633 12.1074V17H168.359ZM176.675 17.1392C175.923 17.1392 175.276 16.9731 174.734 16.6411C174.197 16.3091 173.782 15.8403 173.489 15.2349C173.201 14.6245 173.057 13.9067 173.057 13.0815V13.0742C173.057 12.2588 173.201 11.5435 173.489 10.9282C173.782 10.313 174.194 9.83203 174.727 9.48535C175.259 9.13867 175.881 8.96533 176.594 8.96533C177.312 8.96533 177.927 9.13135 178.44 9.46338C178.958 9.79541 179.353 10.2593 179.626 10.855C179.905 11.4458 180.044 12.1343 180.044 12.9204V13.4185H173.716V12.4004H179.392L178.762 13.3306V12.8252C178.762 12.2051 178.669 11.6948 178.484 11.2944C178.298 10.894 178.042 10.5962 177.715 10.4009C177.388 10.2007 177.012 10.1006 176.587 10.1006C176.162 10.1006 175.781 10.2056 175.444 10.4155C175.112 10.6206 174.849 10.9258 174.653 11.3311C174.458 11.7363 174.36 12.2344 174.36 12.8252V13.3306C174.36 13.8921 174.456 14.373 174.646 14.7734C174.836 15.1689 175.107 15.4741 175.459 15.689C175.811 15.8989 176.226 16.0039 176.704 16.0039C177.061 16.0039 177.371 15.9551 177.634 15.8574C177.898 15.7598 178.115 15.6353 178.286 15.4839C178.457 15.3325 178.577 15.1787 178.645 15.0225L178.674 14.9565H179.949L179.934 15.0151C179.866 15.2837 179.744 15.5449 179.568 15.7988C179.397 16.0479 179.175 16.2749 178.901 16.48C178.628 16.6802 178.303 16.8413 177.927 16.9634C177.556 17.0806 177.139 17.1392 176.675 17.1392ZM181.621 17V9.10449H182.896V10.3057H183.013C183.189 9.88086 183.457 9.55127 183.819 9.31689C184.185 9.08252 184.627 8.96533 185.144 8.96533C185.501 8.96533 185.821 9.02393 186.104 9.14111C186.387 9.2583 186.631 9.42188 186.836 9.63184C187.041 9.83691 187.205 10.0762 187.327 10.3496H187.444C187.586 10.0713 187.776 9.82959 188.016 9.62451C188.255 9.41455 188.531 9.25342 188.843 9.14111C189.161 9.02393 189.5 8.96533 189.861 8.96533C190.398 8.96533 190.852 9.06543 191.224 9.26562C191.6 9.46582 191.885 9.75879 192.08 10.1445C192.276 10.5254 192.373 10.9917 192.373 11.5435V17H191.099V11.8364C191.099 11.4458 191.038 11.1235 190.916 10.8696C190.799 10.6108 190.618 10.418 190.374 10.291C190.13 10.1592 189.822 10.0933 189.451 10.0933C189.085 10.0933 188.765 10.1763 188.492 10.3423C188.218 10.5083 188.006 10.7305 187.854 11.0088C187.703 11.2822 187.627 11.5874 187.627 11.9243V17H186.353V11.6387C186.353 11.3262 186.285 11.0552 186.148 10.8257C186.016 10.5913 185.826 10.4106 185.577 10.2837C185.332 10.1567 185.044 10.0933 184.712 10.0933C184.371 10.0933 184.06 10.1836 183.782 10.3643C183.509 10.5449 183.291 10.7891 183.13 11.0967C182.974 11.3994 182.896 11.7363 182.896 12.1074V17H181.621ZM194.303 17V9.10449H195.577V17H194.303ZM194.947 7.58105C194.708 7.58105 194.5 7.49561 194.325 7.32471C194.154 7.14893 194.068 6.94141 194.068 6.70215C194.068 6.45801 194.154 6.25049 194.325 6.07959C194.5 5.90869 194.708 5.82324 194.947 5.82324C195.191 5.82324 195.399 5.90869 195.57 6.07959C195.741 6.25049 195.826 6.45801 195.826 6.70215C195.826 6.94141 195.741 7.14893 195.57 7.32471C195.399 7.49561 195.191 7.58105 194.947 7.58105ZM200.802 17.1392C200.05 17.1392 199.403 16.9731 198.861 16.6411C198.324 16.3091 197.909 15.8403 197.616 15.2349C197.328 14.6245 197.184 13.9067 197.184 13.0815V13.0742C197.184 12.2588 197.328 11.5435 197.616 10.9282C197.909 10.313 198.321 9.83203 198.854 9.48535C199.386 9.13867 200.008 8.96533 200.721 8.96533C201.439 8.96533 202.054 9.13135 202.567 9.46338C203.085 9.79541 203.48 10.2593 203.754 10.855C204.032 11.4458 204.171 12.1343 204.171 12.9204V13.4185H197.843V12.4004H203.519L202.889 13.3306V12.8252C202.889 12.2051 202.797 11.6948 202.611 11.2944C202.425 10.894 202.169 10.5962 201.842 10.4009C201.515 10.2007 201.139 10.1006 200.714 10.1006C200.289 10.1006 199.908 10.2056 199.571 10.4155C199.239 10.6206 198.976 10.9258 198.78 11.3311C198.585 11.7363 198.488 12.2344 198.488 12.8252V13.3306C198.488 13.8921 198.583 14.373 198.773 14.7734C198.964 15.1689 199.235 15.4741 199.586 15.689C199.938 15.8989 200.353 16.0039 200.831 16.0039C201.188 16.0039 201.498 15.9551 201.761 15.8574C202.025 15.7598 202.242 15.6353 202.413 15.4839C202.584 15.3325 202.704 15.1787 202.772 15.0225L202.801 14.9565H204.076L204.061 15.0151C203.993 15.2837 203.871 15.5449 203.695 15.7988C203.524 16.0479 203.302 16.2749 203.029 16.48C202.755 16.6802 202.43 16.8413 202.054 16.9634C201.683 17.0806 201.266 17.1392 200.802 17.1392ZM200.26 8.00586L198.568 5.51562H200.077L201.373 8.00586H200.26ZM205.749 17V9.10449H207.023V10.2764H207.14C207.292 9.86133 207.548 9.53906 207.909 9.30957C208.271 9.08008 208.717 8.96533 209.25 8.96533C209.372 8.96533 209.491 8.97266 209.608 8.9873C209.731 8.99707 209.823 9.00684 209.887 9.0166V10.2544C209.755 10.23 209.626 10.2129 209.499 10.2031C209.377 10.1885 209.245 10.1812 209.103 10.1812C208.698 10.1812 208.339 10.2617 208.026 10.4229C207.714 10.584 207.467 10.8086 207.287 11.0967C207.111 11.3848 207.023 11.7217 207.023 12.1074V17H205.749ZM214.064 17.1392C213.312 17.1392 212.666 16.9731 212.124 16.6411C211.586 16.3091 211.171 15.8403 210.878 15.2349C210.59 14.6245 210.446 13.9067 210.446 13.0815V13.0742C210.446 12.2588 210.59 11.5435 210.878 10.9282C211.171 10.313 211.584 9.83203 212.116 9.48535C212.648 9.13867 213.271 8.96533 213.984 8.96533C214.702 8.96533 215.317 9.13135 215.83 9.46338C216.347 9.79541 216.743 10.2593 217.016 10.855C217.294 11.4458 217.434 12.1343 217.434 12.9204V13.4185H211.105V12.4004H216.782L216.152 13.3306V12.8252C216.152 12.2051 216.059 11.6948 215.874 11.2944C215.688 10.894 215.432 10.5962 215.104 10.4009C214.777 10.2007 214.401 10.1006 213.977 10.1006C213.552 10.1006 213.171 10.2056 212.834 10.4155C212.502 10.6206 212.238 10.9258 212.043 11.3311C211.848 11.7363 211.75 12.2344 211.75 12.8252V13.3306C211.75 13.8921 211.845 14.373 212.036 14.7734C212.226 15.1689 212.497 15.4741 212.849 15.689C213.2 15.8989 213.615 16.0039 214.094 16.0039C214.45 16.0039 214.76 15.9551 215.024 15.8574C215.288 15.7598 215.505 15.6353 215.676 15.4839C215.847 15.3325 215.966 15.1787 216.035 15.0225L216.064 14.9565H217.338L217.324 15.0151C217.255 15.2837 217.133 15.5449 216.958 15.7988C216.787 16.0479 216.564 16.2749 216.291 16.48C216.018 16.6802 215.693 16.8413 215.317 16.9634C214.946 17.0806 214.528 17.1392 214.064 17.1392ZM224.998 17.1392C224.5 17.1392 224.051 17.0439 223.65 16.8535C223.255 16.6631 222.94 16.3921 222.705 16.0405C222.476 15.689 222.361 15.2739 222.361 14.7954V14.7808C222.361 14.312 222.473 13.9116 222.698 13.5796C222.923 13.2427 223.25 12.979 223.68 12.7886C224.109 12.5981 224.629 12.4858 225.24 12.4517L228.14 12.2759V13.2939L225.393 13.4697C224.793 13.5039 224.353 13.6284 224.075 13.8433C223.802 14.0581 223.665 14.3608 223.665 14.7515V14.7661C223.665 15.1665 223.816 15.479 224.119 15.7036C224.422 15.9233 224.803 16.0332 225.262 16.0332C225.696 16.0332 226.082 15.9478 226.419 15.7769C226.756 15.6011 227.019 15.3643 227.21 15.0664C227.405 14.7686 227.503 14.4316 227.503 14.0557V11.5947C227.503 11.1064 227.354 10.7354 227.056 10.4814C226.763 10.2227 226.321 10.0933 225.73 10.0933C225.257 10.0933 224.868 10.1787 224.566 10.3496C224.263 10.5156 224.06 10.7524 223.958 11.0601L223.951 11.082H222.676L222.683 11.0381C222.752 10.623 222.923 10.2617 223.196 9.9541C223.474 9.6416 223.833 9.3999 224.273 9.229C224.712 9.05322 225.213 8.96533 225.774 8.96533C226.419 8.96533 226.963 9.07031 227.408 9.28027C227.857 9.49023 228.196 9.79297 228.426 10.1885C228.66 10.5791 228.777 11.0479 228.777 11.5947V17H227.503V15.8354H227.386C227.22 16.1138 227.017 16.3506 226.778 16.5459C226.543 16.7412 226.277 16.8901 225.979 16.9927C225.681 17.0903 225.354 17.1392 224.998 17.1392ZM230.706 17V9.10449H231.981V10.291H232.098C232.298 9.87109 232.586 9.54639 232.962 9.31689C233.338 9.08252 233.817 8.96533 234.398 8.96533C235.286 8.96533 235.967 9.21924 236.441 9.72705C236.92 10.23 237.159 10.9502 237.159 11.8877V17H235.884V12.1953C235.884 11.4824 235.733 10.9551 235.43 10.6133C235.133 10.2666 234.669 10.0933 234.039 10.0933C233.619 10.0933 233.255 10.1836 232.947 10.3643C232.64 10.5449 232.401 10.8013 232.23 11.1333C232.064 11.4653 231.981 11.8633 231.981 12.3271V17H230.706ZM239.066 17V9.10449H240.34V10.291H240.458C240.658 9.87109 240.946 9.54639 241.322 9.31689C241.698 9.08252 242.176 8.96533 242.757 8.96533C243.646 8.96533 244.327 9.21924 244.801 9.72705C245.279 10.23 245.519 10.9502 245.519 11.8877V17H244.244V12.1953C244.244 11.4824 244.093 10.9551 243.79 10.6133C243.492 10.2666 243.028 10.0933 242.399 10.0933C241.979 10.0933 241.615 10.1836 241.307 10.3643C241 10.5449 240.76 10.8013 240.589 11.1333C240.423 11.4653 240.34 11.8633 240.34 12.3271V17H239.066ZM250.648 17.1392C249.896 17.1392 249.25 16.9731 248.708 16.6411C248.17 16.3091 247.755 15.8403 247.462 15.2349C247.174 14.6245 247.03 13.9067 247.03 13.0815V13.0742C247.03 12.2588 247.174 11.5435 247.462 10.9282C247.755 10.313 248.168 9.83203 248.7 9.48535C249.232 9.13867 249.855 8.96533 250.568 8.96533C251.286 8.96533 251.901 9.13135 252.414 9.46338C252.931 9.79541 253.327 10.2593 253.6 10.855C253.878 11.4458 254.018 12.1343 254.018 12.9204V13.4185H247.689V12.4004H253.366L252.736 13.3306V12.8252C252.736 12.2051 252.643 11.6948 252.458 11.2944C252.272 10.894 252.016 10.5962 251.688 10.4009C251.361 10.2007 250.985 10.1006 250.561 10.1006C250.136 10.1006 249.755 10.2056 249.418 10.4155C249.086 10.6206 248.822 10.9258 248.627 11.3311C248.432 11.7363 248.334 12.2344 248.334 12.8252V13.3306C248.334 13.8921 248.429 14.373 248.62 14.7734C248.81 15.1689 249.081 15.4741 249.433 15.689C249.784 15.8989 250.199 16.0039 250.678 16.0039C251.034 16.0039 251.344 15.9551 251.608 15.8574C251.872 15.7598 252.089 15.6353 252.26 15.4839C252.431 15.3325 252.55 15.1787 252.619 15.0225L252.648 14.9565H253.922L253.908 15.0151C253.839 15.2837 253.717 15.5449 253.542 15.7988C253.371 16.0479 253.148 16.2749 252.875 16.48C252.602 16.6802 252.277 16.8413 251.901 16.9634C251.53 17.0806 251.112 17.1392 250.648 17.1392ZM251.073 8.00586H249.96L251.256 5.51562H252.765L251.073 8.00586ZM258.818 17.1392C258.066 17.1392 257.419 16.9731 256.877 16.6411C256.34 16.3091 255.925 15.8403 255.632 15.2349C255.344 14.6245 255.2 13.9067 255.2 13.0815V13.0742C255.2 12.2588 255.344 11.5435 255.632 10.9282C255.925 10.313 256.337 9.83203 256.87 9.48535C257.402 9.13867 258.024 8.96533 258.737 8.96533C259.455 8.96533 260.07 9.13135 260.583 9.46338C261.1 9.79541 261.496 10.2593 261.769 10.855C262.048 11.4458 262.187 12.1343 262.187 12.9204V13.4185H255.859V12.4004H261.535L260.905 13.3306V12.8252C260.905 12.2051 260.812 11.6948 260.627 11.2944C260.441 10.894 260.185 10.5962 259.858 10.4009C259.531 10.2007 259.155 10.1006 258.73 10.1006C258.305 10.1006 257.924 10.2056 257.587 10.4155C257.255 10.6206 256.992 10.9258 256.796 11.3311C256.601 11.7363 256.503 12.2344 256.503 12.8252V13.3306C256.503 13.8921 256.599 14.373 256.789 14.7734C256.979 15.1689 257.25 15.4741 257.602 15.689C257.954 15.8989 258.369 16.0039 258.847 16.0039C259.204 16.0039 259.514 15.9551 259.777 15.8574C260.041 15.7598 260.258 15.6353 260.429 15.4839C260.6 15.3325 260.72 15.1787 260.788 15.0225L260.817 14.9565H262.092L262.077 15.0151C262.009 15.2837 261.887 15.5449 261.711 15.7988C261.54 16.0479 261.318 16.2749 261.044 16.48C260.771 16.6802 260.446 16.8413 260.07 16.9634C259.699 17.0806 259.282 17.1392 258.818 17.1392Z" fill="#6FF4E1"/>
</svg>
