<svg width="219" height="22" viewBox="0 0 219 22" fill="none" xmlns="http://www.w3.org/2000/svg">
<path d="M6.42969 16.8257C5.62174 16.8257 4.88851 16.6956 4.22998 16.4355C3.57145 16.1699 3.04574 15.7881 2.65283 15.29C2.25993 14.7865 2.04964 14.1777 2.02197 13.4639L2.03027 13.4556L3.95605 13.4473L3.96436 13.4639C4.01416 13.8014 4.1359 14.1003 4.32959 14.3604C4.52327 14.6149 4.79443 14.8141 5.14307 14.958C5.4917 15.1019 5.92887 15.1738 6.45459 15.1738C6.99691 15.1738 7.44238 15.1102 7.79102 14.9829C8.13965 14.8501 8.39697 14.6675 8.56299 14.4351C8.729 14.2026 8.81201 13.9342 8.81201 13.6299V13.6133C8.81201 13.2038 8.66536 12.8745 8.37207 12.6255C8.08431 12.3765 7.55306 12.1606 6.77832 11.978L5.5415 11.6958C4.83317 11.5298 4.23275 11.3084 3.74023 11.0317C3.25326 10.755 2.88249 10.4119 2.62793 10.0024C2.37891 9.5874 2.25439 9.09212 2.25439 8.5166V8.5C2.25439 7.81934 2.43424 7.23275 2.79395 6.74023C3.15918 6.24772 3.65446 5.86865 4.27979 5.60303C4.91064 5.33187 5.62451 5.19629 6.42139 5.19629C7.23486 5.19629 7.95426 5.3374 8.57959 5.61963C9.20492 5.89632 9.70296 6.28923 10.0737 6.79834C10.4445 7.30192 10.641 7.89681 10.6631 8.58301V8.59131L8.7373 8.59961L8.729 8.58301C8.69027 8.20671 8.56852 7.89128 8.36377 7.63672C8.15902 7.37663 7.89339 7.18018 7.56689 7.04736C7.2404 6.91455 6.86686 6.84814 6.44629 6.84814C5.96484 6.84814 5.56087 6.91732 5.23438 7.05566C4.90788 7.19401 4.66162 7.37663 4.49561 7.60352C4.32959 7.8304 4.24658 8.07943 4.24658 8.35059V8.36719C4.24658 8.61068 4.31022 8.82926 4.4375 9.02295C4.57031 9.21663 4.77507 9.38818 5.05176 9.5376C5.33398 9.68701 5.70475 9.81706 6.16406 9.92773L7.40088 10.21C8.50765 10.4645 9.35156 10.8381 9.93262 11.3306C10.5137 11.8231 10.8042 12.5176 10.8042 13.4141V13.4307C10.8042 14.1611 10.6105 14.7809 10.2231 15.29C9.83577 15.7936 9.31006 16.1755 8.646 16.4355C7.98747 16.6956 7.2487 16.8257 6.42969 16.8257ZM5.96484 18.187V3.81836H6.92773V18.187H5.96484ZM17.1693 17.2407C16.295 17.2407 15.5285 17.0941 14.87 16.8008C14.217 16.5075 13.6996 16.1007 13.3178 15.5806C12.9415 15.0549 12.7257 14.4489 12.6703 13.7627L12.662 13.6631H14.704L14.7123 13.7544C14.751 14.092 14.8756 14.3936 15.0858 14.6592C15.2961 14.9193 15.5784 15.124 15.9325 15.2734C16.2867 15.4173 16.699 15.4893 17.1693 15.4893C17.6286 15.4893 18.0299 15.409 18.3729 15.2485C18.7216 15.0881 18.9927 14.8667 19.1864 14.5845C19.3801 14.3022 19.477 13.9757 19.477 13.605V13.5884C19.477 12.9575 19.2584 12.4733 18.8212 12.1357C18.384 11.7982 17.7808 11.6294 17.0116 11.6294H15.5922V10.0356H16.9701C17.4073 10.0356 17.7919 9.95817 18.1239 9.80322C18.456 9.64827 18.7133 9.43799 18.8959 9.17236C19.0785 8.9012 19.1698 8.59131 19.1698 8.24268V8.22607C19.1698 7.85531 19.0896 7.53988 18.9291 7.27979C18.7742 7.01969 18.5445 6.82048 18.2401 6.68213C17.9413 6.54378 17.5788 6.47461 17.1527 6.47461C16.7322 6.47461 16.3586 6.54655 16.0321 6.69043C15.7112 6.83431 15.4538 7.03906 15.2602 7.30469C15.0665 7.56478 14.9503 7.87191 14.9115 8.22607L14.9032 8.30908H12.9193L12.9276 8.20947C12.9885 7.51774 13.1988 6.91732 13.5585 6.4082C13.9237 5.89355 14.4107 5.49512 15.0194 5.21289C15.6337 4.92513 16.3448 4.78125 17.1527 4.78125C17.9773 4.78125 18.6939 4.91683 19.3026 5.18799C19.9114 5.45361 20.3817 5.82161 20.7138 6.29199C21.0513 6.76237 21.2201 7.31299 21.2201 7.94385V7.96045C21.2201 8.45296 21.1094 8.89014 20.8881 9.27197C20.6723 9.64827 20.3734 9.96094 19.9916 10.21C19.6153 10.459 19.1864 10.6333 18.705 10.7329V10.7744C19.5904 10.8574 20.3015 11.1507 20.8383 11.6543C21.3751 12.1523 21.6435 12.8164 21.6435 13.6465V13.6631C21.6435 14.3604 21.4553 14.9801 21.079 15.5225C20.7027 16.0592 20.177 16.4798 19.5019 16.7842C18.8323 17.0885 18.0548 17.2407 17.1693 17.2407ZM27.7513 4.72314C28.3932 4.72314 29.0019 4.84212 29.5774 5.08008C30.153 5.3125 30.6621 5.67773 31.1048 6.17578C31.553 6.66829 31.9044 7.30192 32.159 8.07666C32.4135 8.84587 32.5408 9.77279 32.5408 10.8574V10.874C32.5408 12.2188 32.3471 13.3698 31.9598 14.3271C31.5724 15.2845 31.0162 16.0205 30.2913 16.5352C29.5719 17.0443 28.7114 17.2988 27.7098 17.2988C26.9738 17.2988 26.3097 17.166 25.7176 16.9004C25.131 16.6292 24.644 16.2585 24.2566 15.7881C23.8748 15.3122 23.6175 14.7699 23.4847 14.1611L23.4681 14.0698H25.5682L25.6014 14.1528C25.7065 14.4295 25.8559 14.673 26.0496 14.8833C26.2488 15.0936 26.4868 15.2568 26.7635 15.373C27.0457 15.4837 27.3611 15.5391 27.7098 15.5391C28.3406 15.5391 28.8553 15.3537 29.2537 14.9829C29.6577 14.6066 29.9593 14.1058 30.1585 13.4805C30.3632 12.8496 30.4795 12.1523 30.5071 11.3887C30.5127 11.3057 30.5154 11.2254 30.5154 11.1479C30.5154 11.0649 30.5154 10.9847 30.5154 10.9072L30.1419 8.90674C30.1419 8.45296 30.0368 8.04069 29.8265 7.66992C29.6162 7.29915 29.3312 7.00586 28.9715 6.79004C28.6173 6.57422 28.2161 6.46631 27.7679 6.46631C27.3362 6.46631 26.9406 6.57145 26.5809 6.78174C26.2212 6.99202 25.9334 7.27979 25.7176 7.64502C25.5018 8.00472 25.3938 8.40869 25.3938 8.85693V8.87354C25.3938 9.33838 25.4962 9.75065 25.701 10.1104C25.9057 10.4645 26.1852 10.744 26.5394 10.9487C26.8935 11.1535 27.2975 11.2559 27.7513 11.2559C28.205 11.2559 28.6118 11.1562 28.9715 10.957C29.3312 10.7578 29.6162 10.4811 29.8265 10.127C30.0368 9.77279 30.1419 9.37158 30.1419 8.92334V8.90674H30.6399V11.1147H30.3494C30.2055 11.4302 29.9925 11.7235 29.7103 11.9946C29.428 12.2658 29.0794 12.4844 28.6644 12.6504C28.2549 12.8164 27.7734 12.8994 27.22 12.8994C26.4563 12.8994 25.7812 12.7279 25.1946 12.3848C24.608 12.0417 24.146 11.5713 23.8084 10.9736C23.4764 10.376 23.3104 9.70085 23.3104 8.94824V8.93164C23.3104 8.11816 23.4985 7.396 23.8748 6.76514C24.2566 6.12874 24.7824 5.6307 25.452 5.271C26.1271 4.90576 26.8935 4.72314 27.7513 4.72314ZM35.1955 17.1577C34.8192 17.1577 34.5038 17.0332 34.2492 16.7842C34.0002 16.5296 33.8757 16.2197 33.8757 15.8545C33.8757 15.4837 34.0002 15.1738 34.2492 14.9248C34.5038 14.6702 34.8192 14.543 35.1955 14.543C35.5773 14.543 35.8928 14.6702 36.1418 14.9248C36.3908 15.1738 36.5153 15.4837 36.5153 15.8545C36.5153 16.2197 36.3908 16.5296 36.1418 16.7842C35.8928 17.0332 35.5773 17.1577 35.1955 17.1577ZM42.3907 4.72314C43.0327 4.72314 43.6414 4.84212 44.2169 5.08008C44.7924 5.3125 45.3015 5.67773 45.7442 6.17578C46.1925 6.66829 46.5439 7.30192 46.7984 8.07666C47.053 8.84587 47.1803 9.77279 47.1803 10.8574V10.874C47.1803 12.2188 46.9866 13.3698 46.5992 14.3271C46.2119 15.2845 45.6557 16.0205 44.9308 16.5352C44.2114 17.0443 43.3508 17.2988 42.3492 17.2988C41.6132 17.2988 40.9492 17.166 40.357 16.9004C39.7704 16.6292 39.2835 16.2585 38.8961 15.7881C38.5143 15.3122 38.2569 14.7699 38.1241 14.1611L38.1075 14.0698H40.2076L40.2408 14.1528C40.346 14.4295 40.4954 14.673 40.6891 14.8833C40.8883 15.0936 41.1262 15.2568 41.4029 15.373C41.6852 15.4837 42.0006 15.5391 42.3492 15.5391C42.9801 15.5391 43.4947 15.3537 43.8932 14.9829C44.2971 14.6066 44.5987 14.1058 44.798 13.4805C45.0027 12.8496 45.1189 12.1523 45.1466 11.3887C45.1521 11.3057 45.1549 11.2254 45.1549 11.1479C45.1549 11.0649 45.1549 10.9847 45.1549 10.9072L44.7813 8.90674C44.7813 8.45296 44.6762 8.04069 44.4659 7.66992C44.2556 7.29915 43.9706 7.00586 43.6109 6.79004C43.2568 6.57422 42.8556 6.46631 42.4073 6.46631C41.9757 6.46631 41.58 6.57145 41.2203 6.78174C40.8606 6.99202 40.5729 7.27979 40.357 7.64502C40.1412 8.00472 40.0333 8.40869 40.0333 8.85693V8.87354C40.0333 9.33838 40.1357 9.75065 40.3404 10.1104C40.5452 10.4645 40.8246 10.744 41.1788 10.9487C41.533 11.1535 41.9369 11.2559 42.3907 11.2559C42.8445 11.2559 43.2512 11.1562 43.6109 10.957C43.9706 10.7578 44.2556 10.4811 44.4659 10.127C44.6762 9.77279 44.7813 9.37158 44.7813 8.92334V8.90674H45.2794V11.1147H44.9889C44.845 11.4302 44.6319 11.7235 44.3497 11.9946C44.0675 12.2658 43.7188 12.4844 43.3038 12.6504C42.8943 12.8164 42.4129 12.8994 41.8595 12.8994C41.0958 12.8994 40.4207 12.7279 39.8341 12.3848C39.2475 12.0417 38.7854 11.5713 38.4479 10.9736C38.1158 10.376 37.9498 9.70085 37.9498 8.94824V8.93164C37.9498 8.11816 38.138 7.396 38.5143 6.76514C38.8961 6.12874 39.4218 5.6307 40.0914 5.271C40.7665 4.90576 41.533 4.72314 42.3907 4.72314ZM53.3296 4.72314C53.9715 4.72314 54.5802 4.84212 55.1558 5.08008C55.7313 5.3125 56.2404 5.67773 56.6831 6.17578C57.1313 6.66829 57.4827 7.30192 57.7373 8.07666C57.9919 8.84587 58.1191 9.77279 58.1191 10.8574V10.874C58.1191 12.2188 57.9255 13.3698 57.5381 14.3271C57.1507 15.2845 56.5946 16.0205 55.8696 16.5352C55.1502 17.0443 54.2897 17.2988 53.2881 17.2988C52.5521 17.2988 51.888 17.166 51.2959 16.9004C50.7093 16.6292 50.2223 16.2585 49.835 15.7881C49.4531 15.3122 49.1958 14.7699 49.063 14.1611L49.0464 14.0698H51.1465L51.1797 14.1528C51.2848 14.4295 51.4342 14.673 51.6279 14.8833C51.8271 15.0936 52.0651 15.2568 52.3418 15.373C52.624 15.4837 52.9395 15.5391 53.2881 15.5391C53.9189 15.5391 54.4336 15.3537 54.832 14.9829C55.236 14.6066 55.5376 14.1058 55.7368 13.4805C55.9416 12.8496 56.0578 12.1523 56.0854 11.3887C56.091 11.3057 56.0938 11.2254 56.0938 11.1479C56.0938 11.0649 56.0938 10.9847 56.0938 10.9072L55.7202 8.90674C55.7202 8.45296 55.6151 8.04069 55.4048 7.66992C55.1945 7.29915 54.9095 7.00586 54.5498 6.79004C54.1956 6.57422 53.7944 6.46631 53.3462 6.46631C52.9146 6.46631 52.5189 6.57145 52.1592 6.78174C51.7995 6.99202 51.5117 7.27979 51.2959 7.64502C51.0801 8.00472 50.9722 8.40869 50.9722 8.85693V8.87354C50.9722 9.33838 51.0745 9.75065 51.2793 10.1104C51.484 10.4645 51.7635 10.744 52.1177 10.9487C52.4718 11.1535 52.8758 11.2559 53.3296 11.2559C53.7834 11.2559 54.1901 11.1562 54.5498 10.957C54.9095 10.7578 55.1945 10.4811 55.4048 10.127C55.6151 9.77279 55.7202 9.37158 55.7202 8.92334V8.90674H56.2183V11.1147H55.9277C55.7839 11.4302 55.5708 11.7235 55.2886 11.9946C55.0063 12.2658 54.6577 12.4844 54.2427 12.6504C53.8332 12.8164 53.3517 12.8994 52.7983 12.8994C52.0347 12.8994 51.3595 12.7279 50.7729 12.3848C50.1864 12.0417 49.7243 11.5713 49.3867 10.9736C49.0547 10.376 48.8887 9.70085 48.8887 8.94824V8.93164C48.8887 8.11816 49.0768 7.396 49.4531 6.76514C49.835 6.12874 50.3607 5.6307 51.0303 5.271C51.7054 4.90576 52.4718 4.72314 53.3296 4.72314Z" fill="white" fill-opacity="0.6"/>
<path d="M0.82666 11.646H59.165V13.0073H0.82666V11.646Z" fill="white" fill-opacity="0.6"/>
<path d="M81.7422 10.9902C81.7422 11.2503 81.6481 11.4689 81.46 11.646L77.2183 15.8794C77.0301 16.062 76.8198 16.1533 76.5874 16.1533C76.3328 16.1533 76.1253 16.0731 75.9648 15.9126C75.8044 15.7521 75.7241 15.5501 75.7241 15.3066C75.7241 15.1794 75.7463 15.0632 75.7905 14.958C75.8403 14.8473 75.9067 14.756 75.9897 14.6841L77.2432 13.4058L79.6753 11.1978L80.0073 11.729L77.5337 11.8867H70.1709C69.8942 11.8867 69.6729 11.8037 69.5068 11.6377C69.3408 11.4717 69.2578 11.2559 69.2578 10.9902C69.2578 10.7301 69.3408 10.5171 69.5068 10.3511C69.6729 10.1851 69.8942 10.1021 70.1709 10.1021H77.5337L80.0073 10.2598L79.6753 10.791L77.2432 8.58301L75.9897 7.30469C75.9067 7.22721 75.8403 7.1359 75.7905 7.03076C75.7463 6.92562 75.7241 6.80664 75.7241 6.67383C75.7241 6.43587 75.8044 6.23665 75.9648 6.07617C76.1253 5.91016 76.3328 5.82715 76.5874 5.82715C76.8198 5.82715 77.0301 5.91846 77.2183 6.10107L81.46 10.3345C81.6481 10.5171 81.7422 10.7357 81.7422 10.9902Z" fill="white" fill-opacity="0.6"/>
<path d="M97.4237 16.8257C96.6158 16.8257 95.8826 16.6956 95.224 16.4355C94.5655 16.1699 94.0398 15.7881 93.6469 15.29C93.254 14.7865 93.0437 14.1777 93.016 13.4639L93.0243 13.4556L94.9501 13.4473L94.9584 13.4639C95.0082 13.8014 95.1299 14.1003 95.3236 14.3604C95.5173 14.6149 95.7885 14.8141 96.1371 14.958C96.4857 15.1019 96.9229 15.1738 97.4486 15.1738C97.9909 15.1738 98.4364 15.1102 98.7851 14.9829C99.1337 14.8501 99.391 14.6675 99.557 14.4351C99.723 14.2026 99.8061 13.9342 99.8061 13.6299V13.6133C99.8061 13.2038 99.6594 12.8745 99.3661 12.6255C99.0784 12.3765 98.5471 12.1606 97.7724 11.978L96.5355 11.6958C95.8272 11.5298 95.2268 11.3084 94.7343 11.0317C94.2473 10.755 93.8765 10.4119 93.622 10.0024C93.3729 9.5874 93.2484 9.09212 93.2484 8.5166V8.5C93.2484 7.81934 93.4283 7.23275 93.788 6.74023C94.1532 6.24772 94.6485 5.86865 95.2738 5.60303C95.9047 5.33187 96.6186 5.19629 97.4154 5.19629C98.2289 5.19629 98.9483 5.3374 99.5736 5.61963C100.199 5.89632 100.697 6.28923 101.068 6.79834C101.439 7.30192 101.635 7.89681 101.657 8.58301V8.59131L99.7313 8.59961L99.723 8.58301C99.6843 8.20671 99.5626 7.89128 99.3578 7.63672C99.1531 7.37663 98.8874 7.18018 98.5609 7.04736C98.2344 6.91455 97.8609 6.84814 97.4403 6.84814C96.9589 6.84814 96.5549 6.91732 96.2284 7.05566C95.9019 7.19401 95.6557 7.37663 95.4896 7.60352C95.3236 7.8304 95.2406 8.07943 95.2406 8.35059V8.36719C95.2406 8.61068 95.3043 8.82926 95.4315 9.02295C95.5644 9.21663 95.7691 9.38818 96.0458 9.5376C96.328 9.68701 96.6988 9.81706 97.1581 9.92773L98.3949 10.21C99.5017 10.4645 100.346 10.8381 100.927 11.3306C101.508 11.8231 101.798 12.5176 101.798 13.4141V13.4307C101.798 14.1611 101.605 14.7809 101.217 15.29C100.83 15.7936 100.304 16.1755 99.64 16.4355C98.9815 16.6956 98.2427 16.8257 97.4237 16.8257ZM96.9589 18.187V3.81836H97.9218V18.187H96.9589ZM106.769 17V7.13037H106.619L103.639 9.23047V7.22168L106.769 5.02197H108.902V17H106.769ZM116.072 4.72314C116.714 4.72314 117.323 4.84212 117.899 5.08008C118.474 5.3125 118.983 5.67773 119.426 6.17578C119.874 6.66829 120.226 7.30192 120.48 8.07666C120.735 8.84587 120.862 9.77279 120.862 10.8574V10.874C120.862 12.2188 120.668 13.3698 120.281 14.3271C119.894 15.2845 119.337 16.0205 118.612 16.5352C117.893 17.0443 117.033 17.2988 116.031 17.2988C115.295 17.2988 114.631 17.166 114.039 16.9004C113.452 16.6292 112.965 16.2585 112.578 15.7881C112.196 15.3122 111.939 14.7699 111.806 14.1611L111.789 14.0698H113.889L113.923 14.1528C114.028 14.4295 114.177 14.673 114.371 14.8833C114.57 15.0936 114.808 15.2568 115.085 15.373C115.367 15.4837 115.682 15.5391 116.031 15.5391C116.662 15.5391 117.176 15.3537 117.575 14.9829C117.979 14.6066 118.28 14.1058 118.48 13.4805C118.684 12.8496 118.801 12.1523 118.828 11.3887C118.834 11.3057 118.837 11.2254 118.837 11.1479C118.837 11.0649 118.837 10.9847 118.837 10.9072L118.463 8.90674C118.463 8.45296 118.358 8.04069 118.148 7.66992C117.937 7.29915 117.652 7.00586 117.293 6.79004C116.939 6.57422 116.537 6.46631 116.089 6.46631C115.657 6.46631 115.262 6.57145 114.902 6.78174C114.542 6.99202 114.255 7.27979 114.039 7.64502C113.823 8.00472 113.715 8.40869 113.715 8.85693V8.87354C113.715 9.33838 113.817 9.75065 114.022 10.1104C114.227 10.4645 114.506 10.744 114.861 10.9487C115.215 11.1535 115.619 11.2559 116.072 11.2559C116.526 11.2559 116.933 11.1562 117.293 10.957C117.652 10.7578 117.937 10.4811 118.148 10.127C118.358 9.77279 118.463 9.37158 118.463 8.92334V8.90674H118.961V11.1147H118.671C118.527 11.4302 118.314 11.7235 118.031 11.9946C117.749 12.2658 117.401 12.4844 116.986 12.6504C116.576 12.8164 116.095 12.8994 115.541 12.8994C114.778 12.8994 114.102 12.7279 113.516 12.3848C112.929 12.0417 112.467 11.5713 112.13 10.9736C111.798 10.376 111.632 9.70085 111.632 8.94824V8.93164C111.632 8.11816 111.82 7.396 112.196 6.76514C112.578 6.12874 113.104 5.6307 113.773 5.271C114.448 4.90576 115.215 4.72314 116.072 4.72314ZM123.517 17.1577C123.14 17.1577 122.825 17.0332 122.57 16.7842C122.321 16.5296 122.197 16.2197 122.197 15.8545C122.197 15.4837 122.321 15.1738 122.57 14.9248C122.825 14.6702 123.14 14.543 123.517 14.543C123.899 14.543 124.214 14.6702 124.463 14.9248C124.712 15.1738 124.837 15.4837 124.837 15.8545C124.837 16.2197 124.712 16.5296 124.463 16.7842C124.214 17.0332 123.899 17.1577 123.517 17.1577ZM130.712 4.72314C131.354 4.72314 131.963 4.84212 132.538 5.08008C133.114 5.3125 133.623 5.67773 134.065 6.17578C134.514 6.66829 134.865 7.30192 135.12 8.07666C135.374 8.84587 135.501 9.77279 135.501 10.8574V10.874C135.501 12.2188 135.308 13.3698 134.92 14.3271C134.533 15.2845 133.977 16.0205 133.252 16.5352C132.533 17.0443 131.672 17.2988 130.67 17.2988C129.934 17.2988 129.27 17.166 128.678 16.9004C128.092 16.6292 127.605 16.2585 127.217 15.7881C126.835 15.3122 126.578 14.7699 126.445 14.1611L126.429 14.0698H128.529L128.562 14.1528C128.667 14.4295 128.817 14.673 129.01 14.8833C129.209 15.0936 129.447 15.2568 129.724 15.373C130.006 15.4837 130.322 15.5391 130.67 15.5391C131.301 15.5391 131.816 15.3537 132.214 14.9829C132.618 14.6066 132.92 14.1058 133.119 13.4805C133.324 12.8496 133.44 12.1523 133.468 11.3887C133.473 11.3057 133.476 11.2254 133.476 11.1479C133.476 11.0649 133.476 10.9847 133.476 10.9072L133.103 8.90674C133.103 8.45296 132.997 8.04069 132.787 7.66992C132.577 7.29915 132.292 7.00586 131.932 6.79004C131.578 6.57422 131.177 6.46631 130.729 6.46631C130.297 6.46631 129.901 6.57145 129.542 6.78174C129.182 6.99202 128.894 7.27979 128.678 7.64502C128.462 8.00472 128.354 8.40869 128.354 8.85693V8.87354C128.354 9.33838 128.457 9.75065 128.662 10.1104C128.866 10.4645 129.146 10.744 129.5 10.9487C129.854 11.1535 130.258 11.2559 130.712 11.2559C131.166 11.2559 131.572 11.1562 131.932 10.957C132.292 10.7578 132.577 10.4811 132.787 10.127C132.997 9.77279 133.103 9.37158 133.103 8.92334V8.90674H133.601V11.1147H133.31C133.166 11.4302 132.953 11.7235 132.671 11.9946C132.389 12.2658 132.04 12.4844 131.625 12.6504C131.215 12.8164 130.734 12.8994 130.181 12.8994C129.417 12.8994 128.742 12.7279 128.155 12.3848C127.569 12.0417 127.107 11.5713 126.769 10.9736C126.437 10.376 126.271 9.70085 126.271 8.94824V8.93164C126.271 8.11816 126.459 7.396 126.835 6.76514C127.217 6.12874 127.743 5.6307 128.413 5.271C129.088 4.90576 129.854 4.72314 130.712 4.72314ZM141.651 4.72314C142.293 4.72314 142.901 4.84212 143.477 5.08008C144.052 5.3125 144.562 5.67773 145.004 6.17578C145.453 6.66829 145.804 7.30192 146.058 8.07666C146.313 8.84587 146.44 9.77279 146.44 10.8574V10.874C146.44 12.2188 146.247 13.3698 145.859 14.3271C145.472 15.2845 144.916 16.0205 144.191 16.5352C143.471 17.0443 142.611 17.2988 141.609 17.2988C140.873 17.2988 140.209 17.166 139.617 16.9004C139.03 16.6292 138.544 16.2585 138.156 15.7881C137.774 15.3122 137.517 14.7699 137.384 14.1611L137.368 14.0698H139.468L139.501 14.1528C139.606 14.4295 139.755 14.673 139.949 14.8833C140.148 15.0936 140.386 15.2568 140.663 15.373C140.945 15.4837 141.261 15.5391 141.609 15.5391C142.24 15.5391 142.755 15.3537 143.153 14.9829C143.557 14.6066 143.859 14.1058 144.058 13.4805C144.263 12.8496 144.379 12.1523 144.407 11.3887C144.412 11.3057 144.415 11.2254 144.415 11.1479C144.415 11.0649 144.415 10.9847 144.415 10.9072L144.041 8.90674C144.041 8.45296 143.936 8.04069 143.726 7.66992C143.516 7.29915 143.231 7.00586 142.871 6.79004C142.517 6.57422 142.116 6.46631 141.667 6.46631C141.236 6.46631 140.84 6.57145 140.48 6.78174C140.121 6.99202 139.833 7.27979 139.617 7.64502C139.401 8.00472 139.293 8.40869 139.293 8.85693V8.87354C139.293 9.33838 139.396 9.75065 139.6 10.1104C139.805 10.4645 140.085 10.744 140.439 10.9487C140.793 11.1535 141.197 11.2559 141.651 11.2559C142.105 11.2559 142.511 11.1562 142.871 10.957C143.231 10.7578 143.516 10.4811 143.726 10.127C143.936 9.77279 144.041 9.37158 144.041 8.92334V8.90674H144.539V11.1147H144.249C144.105 11.4302 143.892 11.7235 143.61 11.9946C143.328 12.2658 142.979 12.4844 142.564 12.6504C142.154 12.8164 141.673 12.8994 141.12 12.8994C140.356 12.8994 139.681 12.7279 139.094 12.3848C138.508 12.0417 138.045 11.5713 137.708 10.9736C137.376 10.376 137.21 9.70085 137.21 8.94824V8.93164C137.21 8.11816 137.398 7.396 137.774 6.76514C138.156 6.12874 138.682 5.6307 139.351 5.271C140.027 4.90576 140.793 4.72314 141.651 4.72314ZM155.79 5.96973L152.45 19.6367H151.227L154.567 5.96973H155.79ZM160.93 17V10.1592H159.619V9.10449H160.93V8.22559C160.93 7.69824 161.015 7.26367 161.186 6.92188C161.362 6.5752 161.621 6.31885 161.962 6.15283C162.304 5.98193 162.724 5.89648 163.222 5.89648C163.378 5.89648 163.525 5.90381 163.662 5.91846C163.803 5.92822 163.94 5.94531 164.072 5.96973V6.98779C163.994 6.97314 163.903 6.96338 163.801 6.9585C163.698 6.95361 163.591 6.95117 163.479 6.95117C163.024 6.95117 162.697 7.06104 162.497 7.28076C162.302 7.50049 162.204 7.82764 162.204 8.26221V9.10449H163.999V10.1592H162.204V17H160.93ZM165.466 17V9.10449H166.741V17H165.466ZM166.111 7.58105C165.871 7.58105 165.664 7.49561 165.488 7.32471C165.317 7.14893 165.232 6.94141 165.232 6.70215C165.232 6.45801 165.317 6.25049 165.488 6.07959C165.664 5.90869 165.871 5.82324 166.111 5.82324C166.355 5.82324 166.562 5.90869 166.733 6.07959C166.904 6.25049 166.99 6.45801 166.99 6.70215C166.99 6.94141 166.904 7.14893 166.733 7.32471C166.562 7.49561 166.355 7.58105 166.111 7.58105ZM168.743 17V9.10449H170.017V10.2764H170.135C170.286 9.86133 170.542 9.53906 170.904 9.30957C171.265 9.08008 171.712 8.96533 172.244 8.96533C172.366 8.96533 172.486 8.97266 172.603 8.9873C172.725 8.99707 172.818 9.00684 172.881 9.0166V10.2544C172.749 10.23 172.62 10.2129 172.493 10.2031C172.371 10.1885 172.239 10.1812 172.097 10.1812C171.692 10.1812 171.333 10.2617 171.021 10.4229C170.708 10.584 170.462 10.8086 170.281 11.0967C170.105 11.3848 170.017 11.7217 170.017 12.1074V17H168.743ZM176.619 17.1392C176.033 17.1392 175.516 17.0513 175.067 16.8755C174.617 16.6948 174.256 16.4434 173.983 16.1211C173.714 15.7988 173.555 15.4204 173.507 14.9858H174.81C174.918 15.313 175.128 15.5767 175.44 15.7769C175.753 15.9771 176.16 16.0771 176.663 16.0771C177.02 16.0771 177.332 16.0259 177.601 15.9233C177.874 15.8159 178.089 15.6719 178.245 15.4912C178.402 15.3057 178.48 15.0933 178.48 14.854V14.8394C178.48 14.5708 178.372 14.3438 178.157 14.1582C177.943 13.9678 177.591 13.814 177.103 13.6968L175.88 13.4038C175.386 13.2866 174.981 13.1353 174.664 12.9497C174.346 12.7593 174.112 12.5273 173.961 12.2539C173.809 11.9756 173.734 11.6484 173.734 11.2725V11.2651C173.734 10.8257 173.861 10.4326 174.114 10.0859C174.373 9.73926 174.725 9.46582 175.169 9.26562C175.613 9.06543 176.114 8.96533 176.671 8.96533C177.222 8.96533 177.711 9.05322 178.135 9.229C178.565 9.3999 178.909 9.64404 179.168 9.96143C179.432 10.2788 179.593 10.6523 179.652 11.082H178.399C178.316 10.7695 178.126 10.5156 177.828 10.3203C177.53 10.125 177.142 10.0273 176.663 10.0273C176.351 10.0273 176.072 10.0786 175.828 10.1812C175.584 10.2788 175.391 10.4155 175.25 10.5913C175.108 10.7671 175.037 10.9722 175.037 11.2065V11.2212C175.037 11.397 175.084 11.5532 175.176 11.6899C175.269 11.8267 175.413 11.9463 175.609 12.0488C175.804 12.1514 176.055 12.2417 176.363 12.3198L177.579 12.6128C178.321 12.7935 178.873 13.0522 179.234 13.3892C179.6 13.7261 179.783 14.1777 179.783 14.7441V14.7588C179.783 15.2275 179.644 15.6426 179.366 16.0039C179.088 16.3604 178.709 16.6387 178.231 16.8389C177.757 17.0391 177.22 17.1392 176.619 17.1392ZM184.093 17.0586C183.282 17.0586 182.694 16.895 182.328 16.5679C181.966 16.2407 181.786 15.7012 181.786 14.9492V10.1592H180.541V9.10449H181.786V7.06104H183.104V9.10449H184.833V10.1592H183.104V14.627C183.104 15.0908 183.192 15.4253 183.368 15.6304C183.544 15.8306 183.837 15.9307 184.247 15.9307C184.359 15.9307 184.454 15.9282 184.532 15.9233C184.615 15.9185 184.715 15.9111 184.833 15.9014V16.9854C184.711 17.0049 184.588 17.022 184.466 17.0366C184.344 17.0513 184.22 17.0586 184.093 17.0586ZM190.829 19.7686C190.746 19.7686 190.654 19.7637 190.551 19.7539C190.449 19.749 190.353 19.7393 190.266 19.7246V18.6772C190.344 18.6919 190.429 18.7017 190.522 18.7065C190.615 18.7114 190.705 18.7139 190.793 18.7139C191.154 18.7139 191.45 18.6211 191.679 18.4355C191.913 18.25 192.101 17.9302 192.243 17.4761L192.39 17.0073L189.467 9.10449H190.829L193.261 16.3994L192.756 15.6011H193.356L192.851 16.3994L195.275 9.10449H196.616L193.532 17.4834C193.317 18.0742 193.09 18.5356 192.851 18.8677C192.612 19.1997 192.331 19.4316 192.009 19.5635C191.691 19.7002 191.298 19.7686 190.829 19.7686ZM200.83 17.1392C200.078 17.1392 199.431 16.9731 198.889 16.6411C198.352 16.3091 197.937 15.8403 197.644 15.2349C197.356 14.6245 197.212 13.9067 197.212 13.0815V13.0742C197.212 12.2588 197.356 11.5435 197.644 10.9282C197.937 10.313 198.349 9.83203 198.882 9.48535C199.414 9.13867 200.036 8.96533 200.749 8.96533C201.467 8.96533 202.082 9.13135 202.595 9.46338C203.113 9.79541 203.508 10.2593 203.782 10.855C204.06 11.4458 204.199 12.1343 204.199 12.9204V13.4185H197.871V12.4004H203.547L202.917 13.3306V12.8252C202.917 12.2051 202.825 11.6948 202.639 11.2944C202.453 10.894 202.197 10.5962 201.87 10.4009C201.543 10.2007 201.167 10.1006 200.742 10.1006C200.317 10.1006 199.936 10.2056 199.599 10.4155C199.267 10.6206 199.004 10.9258 198.808 11.3311C198.613 11.7363 198.515 12.2344 198.515 12.8252V13.3306C198.515 13.8921 198.611 14.373 198.801 14.7734C198.992 15.1689 199.262 15.4741 199.614 15.689C199.966 15.8989 200.381 16.0039 200.859 16.0039C201.216 16.0039 201.526 15.9551 201.789 15.8574C202.053 15.7598 202.27 15.6353 202.441 15.4839C202.612 15.3325 202.732 15.1787 202.8 15.0225L202.829 14.9565H204.104L204.089 15.0151C204.021 15.2837 203.899 15.5449 203.723 15.7988C203.552 16.0479 203.33 16.2749 203.056 16.48C202.783 16.6802 202.458 16.8413 202.082 16.9634C201.711 17.0806 201.294 17.1392 200.83 17.1392ZM207.945 17.1392C207.446 17.1392 206.997 17.0439 206.597 16.8535C206.201 16.6631 205.886 16.3921 205.652 16.0405C205.423 15.689 205.308 15.2739 205.308 14.7954V14.7808C205.308 14.312 205.42 13.9116 205.645 13.5796C205.869 13.2427 206.196 12.979 206.626 12.7886C207.056 12.5981 207.576 12.4858 208.186 12.4517L211.087 12.2759V13.2939L208.34 13.4697C207.739 13.5039 207.3 13.6284 207.022 13.8433C206.748 14.0581 206.612 14.3608 206.612 14.7515V14.7661C206.612 15.1665 206.763 15.479 207.066 15.7036C207.368 15.9233 207.749 16.0332 208.208 16.0332C208.643 16.0332 209.029 15.9478 209.365 15.7769C209.702 15.6011 209.966 15.3643 210.156 15.0664C210.352 14.7686 210.449 14.4316 210.449 14.0557V11.5947C210.449 11.1064 210.3 10.7354 210.003 10.4814C209.71 10.2227 209.268 10.0933 208.677 10.0933C208.203 10.0933 207.815 10.1787 207.512 10.3496C207.21 10.5156 207.007 10.7524 206.904 11.0601L206.897 11.082H205.623L205.63 11.0381C205.698 10.623 205.869 10.2617 206.143 9.9541C206.421 9.6416 206.78 9.3999 207.219 9.229C207.659 9.05322 208.159 8.96533 208.721 8.96533C209.365 8.96533 209.91 9.07031 210.354 9.28027C210.803 9.49023 211.143 9.79297 211.372 10.1885C211.607 10.5791 211.724 11.0479 211.724 11.5947V17H210.449V15.8354H210.332C210.166 16.1138 209.964 16.3506 209.724 16.5459C209.49 16.7412 209.224 16.8901 208.926 16.9927C208.628 17.0903 208.301 17.1392 207.945 17.1392ZM213.653 17V9.10449H214.927V10.2764H215.045C215.196 9.86133 215.452 9.53906 215.814 9.30957C216.175 9.08008 216.622 8.96533 217.154 8.96533C217.276 8.96533 217.396 8.97266 217.513 8.9873C217.635 8.99707 217.728 9.00684 217.791 9.0166V10.2544C217.659 10.23 217.53 10.2129 217.403 10.2031C217.281 10.1885 217.149 10.1812 217.007 10.1812C216.602 10.1812 216.243 10.2617 215.931 10.4229C215.618 10.584 215.372 10.8086 215.191 11.0967C215.015 11.3848 214.927 11.7217 214.927 12.1074V17H213.653Z" fill="#6FF4E1"/>
</svg>
