<svg width="241" height="22" viewBox="0 0 241 22" fill="none" xmlns="http://www.w3.org/2000/svg">
<path d="M6.42969 16.8257C5.62174 16.8257 4.88851 16.6956 4.22998 16.4355C3.57145 16.1699 3.04574 15.7881 2.65283 15.29C2.25993 14.7865 2.04964 14.1777 2.02197 13.4639L2.03027 13.4556L3.95605 13.4473L3.96436 13.4639C4.01416 13.8014 4.1359 14.1003 4.32959 14.3604C4.52327 14.6149 4.79443 14.8141 5.14307 14.958C5.4917 15.1019 5.92887 15.1738 6.45459 15.1738C6.99691 15.1738 7.44238 15.1102 7.79102 14.9829C8.13965 14.8501 8.39697 14.6675 8.56299 14.4351C8.729 14.2026 8.81201 13.9342 8.81201 13.6299V13.6133C8.81201 13.2038 8.66536 12.8745 8.37207 12.6255C8.08431 12.3765 7.55306 12.1606 6.77832 11.978L5.5415 11.6958C4.83317 11.5298 4.23275 11.3084 3.74023 11.0317C3.25326 10.755 2.88249 10.4119 2.62793 10.0024C2.37891 9.5874 2.25439 9.09212 2.25439 8.5166V8.5C2.25439 7.81934 2.43424 7.23275 2.79395 6.74023C3.15918 6.24772 3.65446 5.86865 4.27979 5.60303C4.91064 5.33187 5.62451 5.19629 6.42139 5.19629C7.23486 5.19629 7.95426 5.3374 8.57959 5.61963C9.20492 5.89632 9.70296 6.28923 10.0737 6.79834C10.4445 7.30192 10.641 7.89681 10.6631 8.58301V8.59131L8.7373 8.59961L8.729 8.58301C8.69027 8.20671 8.56852 7.89128 8.36377 7.63672C8.15902 7.37663 7.89339 7.18018 7.56689 7.04736C7.2404 6.91455 6.86686 6.84814 6.44629 6.84814C5.96484 6.84814 5.56087 6.91732 5.23438 7.05566C4.90788 7.19401 4.66162 7.37663 4.49561 7.60352C4.32959 7.8304 4.24658 8.07943 4.24658 8.35059V8.36719C4.24658 8.61068 4.31022 8.82926 4.4375 9.02295C4.57031 9.21663 4.77507 9.38818 5.05176 9.5376C5.33398 9.68701 5.70475 9.81706 6.16406 9.92773L7.40088 10.21C8.50765 10.4645 9.35156 10.8381 9.93262 11.3306C10.5137 11.8231 10.8042 12.5176 10.8042 13.4141V13.4307C10.8042 14.1611 10.6105 14.7809 10.2231 15.29C9.83577 15.7936 9.31006 16.1755 8.646 16.4355C7.98747 16.6956 7.2487 16.8257 6.42969 16.8257ZM5.96484 18.187V3.81836H6.92773V18.187H5.96484ZM17.1693 17.2407C16.295 17.2407 15.5285 17.0941 14.87 16.8008C14.217 16.5075 13.6996 16.1007 13.3178 15.5806C12.9415 15.0549 12.7257 14.4489 12.6703 13.7627L12.662 13.6631H14.704L14.7123 13.7544C14.751 14.092 14.8756 14.3936 15.0858 14.6592C15.2961 14.9193 15.5784 15.124 15.9325 15.2734C16.2867 15.4173 16.699 15.4893 17.1693 15.4893C17.6286 15.4893 18.0299 15.409 18.3729 15.2485C18.7216 15.0881 18.9927 14.8667 19.1864 14.5845C19.3801 14.3022 19.477 13.9757 19.477 13.605V13.5884C19.477 12.9575 19.2584 12.4733 18.8212 12.1357C18.384 11.7982 17.7808 11.6294 17.0116 11.6294H15.5922V10.0356H16.9701C17.4073 10.0356 17.7919 9.95817 18.1239 9.80322C18.456 9.64827 18.7133 9.43799 18.8959 9.17236C19.0785 8.9012 19.1698 8.59131 19.1698 8.24268V8.22607C19.1698 7.85531 19.0896 7.53988 18.9291 7.27979C18.7742 7.01969 18.5445 6.82048 18.2401 6.68213C17.9413 6.54378 17.5788 6.47461 17.1527 6.47461C16.7322 6.47461 16.3586 6.54655 16.0321 6.69043C15.7112 6.83431 15.4538 7.03906 15.2602 7.30469C15.0665 7.56478 14.9503 7.87191 14.9115 8.22607L14.9032 8.30908H12.9193L12.9276 8.20947C12.9885 7.51774 13.1988 6.91732 13.5585 6.4082C13.9237 5.89355 14.4107 5.49512 15.0194 5.21289C15.6337 4.92513 16.3448 4.78125 17.1527 4.78125C17.9773 4.78125 18.6939 4.91683 19.3026 5.18799C19.9114 5.45361 20.3817 5.82161 20.7138 6.29199C21.0513 6.76237 21.2201 7.31299 21.2201 7.94385V7.96045C21.2201 8.45296 21.1094 8.89014 20.8881 9.27197C20.6723 9.64827 20.3734 9.96094 19.9916 10.21C19.6153 10.459 19.1864 10.6333 18.705 10.7329V10.7744C19.5904 10.8574 20.3015 11.1507 20.8383 11.6543C21.3751 12.1523 21.6435 12.8164 21.6435 13.6465V13.6631C21.6435 14.3604 21.4553 14.9801 21.079 15.5225C20.7027 16.0592 20.177 16.4798 19.5019 16.7842C18.8323 17.0885 18.0548 17.2407 17.1693 17.2407ZM27.7513 4.72314C28.3932 4.72314 29.0019 4.84212 29.5774 5.08008C30.153 5.3125 30.6621 5.67773 31.1048 6.17578C31.553 6.66829 31.9044 7.30192 32.159 8.07666C32.4135 8.84587 32.5408 9.77279 32.5408 10.8574V10.874C32.5408 12.2188 32.3471 13.3698 31.9598 14.3271C31.5724 15.2845 31.0162 16.0205 30.2913 16.5352C29.5719 17.0443 28.7114 17.2988 27.7098 17.2988C26.9738 17.2988 26.3097 17.166 25.7176 16.9004C25.131 16.6292 24.644 16.2585 24.2566 15.7881C23.8748 15.3122 23.6175 14.7699 23.4847 14.1611L23.4681 14.0698H25.5682L25.6014 14.1528C25.7065 14.4295 25.8559 14.673 26.0496 14.8833C26.2488 15.0936 26.4868 15.2568 26.7635 15.373C27.0457 15.4837 27.3611 15.5391 27.7098 15.5391C28.3406 15.5391 28.8553 15.3537 29.2537 14.9829C29.6577 14.6066 29.9593 14.1058 30.1585 13.4805C30.3632 12.8496 30.4795 12.1523 30.5071 11.3887C30.5127 11.3057 30.5154 11.2254 30.5154 11.1479C30.5154 11.0649 30.5154 10.9847 30.5154 10.9072L30.1419 8.90674C30.1419 8.45296 30.0368 8.04069 29.8265 7.66992C29.6162 7.29915 29.3312 7.00586 28.9715 6.79004C28.6173 6.57422 28.2161 6.46631 27.7679 6.46631C27.3362 6.46631 26.9406 6.57145 26.5809 6.78174C26.2212 6.99202 25.9334 7.27979 25.7176 7.64502C25.5018 8.00472 25.3938 8.40869 25.3938 8.85693V8.87354C25.3938 9.33838 25.4962 9.75065 25.701 10.1104C25.9057 10.4645 26.1852 10.744 26.5394 10.9487C26.8935 11.1535 27.2975 11.2559 27.7513 11.2559C28.205 11.2559 28.6118 11.1562 28.9715 10.957C29.3312 10.7578 29.6162 10.4811 29.8265 10.127C30.0368 9.77279 30.1419 9.37158 30.1419 8.92334V8.90674H30.6399V11.1147H30.3494C30.2055 11.4302 29.9925 11.7235 29.7103 11.9946C29.428 12.2658 29.0794 12.4844 28.6644 12.6504C28.2549 12.8164 27.7734 12.8994 27.22 12.8994C26.4563 12.8994 25.7812 12.7279 25.1946 12.3848C24.608 12.0417 24.146 11.5713 23.8084 10.9736C23.4764 10.376 23.3104 9.70085 23.3104 8.94824V8.93164C23.3104 8.11816 23.4985 7.396 23.8748 6.76514C24.2566 6.12874 24.7824 5.6307 25.452 5.271C26.1271 4.90576 26.8935 4.72314 27.7513 4.72314ZM35.1955 17.1577C34.8192 17.1577 34.5038 17.0332 34.2492 16.7842C34.0002 16.5296 33.8757 16.2197 33.8757 15.8545C33.8757 15.4837 34.0002 15.1738 34.2492 14.9248C34.5038 14.6702 34.8192 14.543 35.1955 14.543C35.5773 14.543 35.8928 14.6702 36.1418 14.9248C36.3908 15.1738 36.5153 15.4837 36.5153 15.8545C36.5153 16.2197 36.3908 16.5296 36.1418 16.7842C35.8928 17.0332 35.5773 17.1577 35.1955 17.1577ZM42.3907 4.72314C43.0327 4.72314 43.6414 4.84212 44.2169 5.08008C44.7924 5.3125 45.3015 5.67773 45.7442 6.17578C46.1925 6.66829 46.5439 7.30192 46.7984 8.07666C47.053 8.84587 47.1803 9.77279 47.1803 10.8574V10.874C47.1803 12.2188 46.9866 13.3698 46.5992 14.3271C46.2119 15.2845 45.6557 16.0205 44.9308 16.5352C44.2114 17.0443 43.3508 17.2988 42.3492 17.2988C41.6132 17.2988 40.9492 17.166 40.357 16.9004C39.7704 16.6292 39.2835 16.2585 38.8961 15.7881C38.5143 15.3122 38.2569 14.7699 38.1241 14.1611L38.1075 14.0698H40.2076L40.2408 14.1528C40.346 14.4295 40.4954 14.673 40.6891 14.8833C40.8883 15.0936 41.1262 15.2568 41.4029 15.373C41.6852 15.4837 42.0006 15.5391 42.3492 15.5391C42.9801 15.5391 43.4947 15.3537 43.8932 14.9829C44.2971 14.6066 44.5987 14.1058 44.798 13.4805C45.0027 12.8496 45.1189 12.1523 45.1466 11.3887C45.1521 11.3057 45.1549 11.2254 45.1549 11.1479C45.1549 11.0649 45.1549 10.9847 45.1549 10.9072L44.7813 8.90674C44.7813 8.45296 44.6762 8.04069 44.4659 7.66992C44.2556 7.29915 43.9706 7.00586 43.6109 6.79004C43.2568 6.57422 42.8556 6.46631 42.4073 6.46631C41.9757 6.46631 41.58 6.57145 41.2203 6.78174C40.8606 6.99202 40.5729 7.27979 40.357 7.64502C40.1412 8.00472 40.0333 8.40869 40.0333 8.85693V8.87354C40.0333 9.33838 40.1357 9.75065 40.3404 10.1104C40.5452 10.4645 40.8246 10.744 41.1788 10.9487C41.533 11.1535 41.9369 11.2559 42.3907 11.2559C42.8445 11.2559 43.2512 11.1562 43.6109 10.957C43.9706 10.7578 44.2556 10.4811 44.4659 10.127C44.6762 9.77279 44.7813 9.37158 44.7813 8.92334V8.90674H45.2794V11.1147H44.9889C44.845 11.4302 44.6319 11.7235 44.3497 11.9946C44.0675 12.2658 43.7188 12.4844 43.3038 12.6504C42.8943 12.8164 42.4129 12.8994 41.8595 12.8994C41.0958 12.8994 40.4207 12.7279 39.8341 12.3848C39.2475 12.0417 38.7854 11.5713 38.4479 10.9736C38.1158 10.376 37.9498 9.70085 37.9498 8.94824V8.93164C37.9498 8.11816 38.138 7.396 38.5143 6.76514C38.8961 6.12874 39.4218 5.6307 40.0914 5.271C40.7665 4.90576 41.533 4.72314 42.3907 4.72314ZM53.3296 4.72314C53.9715 4.72314 54.5802 4.84212 55.1558 5.08008C55.7313 5.3125 56.2404 5.67773 56.6831 6.17578C57.1313 6.66829 57.4827 7.30192 57.7373 8.07666C57.9919 8.84587 58.1191 9.77279 58.1191 10.8574V10.874C58.1191 12.2188 57.9255 13.3698 57.5381 14.3271C57.1507 15.2845 56.5946 16.0205 55.8696 16.5352C55.1502 17.0443 54.2897 17.2988 53.2881 17.2988C52.5521 17.2988 51.888 17.166 51.2959 16.9004C50.7093 16.6292 50.2223 16.2585 49.835 15.7881C49.4531 15.3122 49.1958 14.7699 49.063 14.1611L49.0464 14.0698H51.1465L51.1797 14.1528C51.2848 14.4295 51.4342 14.673 51.6279 14.8833C51.8271 15.0936 52.0651 15.2568 52.3418 15.373C52.624 15.4837 52.9395 15.5391 53.2881 15.5391C53.9189 15.5391 54.4336 15.3537 54.832 14.9829C55.236 14.6066 55.5376 14.1058 55.7368 13.4805C55.9416 12.8496 56.0578 12.1523 56.0854 11.3887C56.091 11.3057 56.0938 11.2254 56.0938 11.1479C56.0938 11.0649 56.0938 10.9847 56.0938 10.9072L55.7202 8.90674C55.7202 8.45296 55.6151 8.04069 55.4048 7.66992C55.1945 7.29915 54.9095 7.00586 54.5498 6.79004C54.1956 6.57422 53.7944 6.46631 53.3462 6.46631C52.9146 6.46631 52.5189 6.57145 52.1592 6.78174C51.7995 6.99202 51.5117 7.27979 51.2959 7.64502C51.0801 8.00472 50.9722 8.40869 50.9722 8.85693V8.87354C50.9722 9.33838 51.0745 9.75065 51.2793 10.1104C51.484 10.4645 51.7635 10.744 52.1177 10.9487C52.4718 11.1535 52.8758 11.2559 53.3296 11.2559C53.7834 11.2559 54.1901 11.1562 54.5498 10.957C54.9095 10.7578 55.1945 10.4811 55.4048 10.127C55.6151 9.77279 55.7202 9.37158 55.7202 8.92334V8.90674H56.2183V11.1147H55.9277C55.7839 11.4302 55.5708 11.7235 55.2886 11.9946C55.0063 12.2658 54.6577 12.4844 54.2427 12.6504C53.8332 12.8164 53.3517 12.8994 52.7983 12.8994C52.0347 12.8994 51.3595 12.7279 50.7729 12.3848C50.1864 12.0417 49.7243 11.5713 49.3867 10.9736C49.0547 10.376 48.8887 9.70085 48.8887 8.94824V8.93164C48.8887 8.11816 49.0768 7.396 49.4531 6.76514C49.835 6.12874 50.3607 5.6307 51.0303 5.271C51.7054 4.90576 52.4718 4.72314 53.3296 4.72314Z" fill="white" fill-opacity="0.6"/>
<path d="M0.82666 11.646H59.165V13.0073H0.82666V11.646Z" fill="white" fill-opacity="0.6"/>
<path d="M81.7422 10.9902C81.7422 11.2503 81.6481 11.4689 81.46 11.646L77.2183 15.8794C77.0301 16.062 76.8198 16.1533 76.5874 16.1533C76.3328 16.1533 76.1253 16.0731 75.9648 15.9126C75.8044 15.7521 75.7241 15.5501 75.7241 15.3066C75.7241 15.1794 75.7463 15.0632 75.7905 14.958C75.8403 14.8473 75.9067 14.756 75.9897 14.6841L77.2432 13.4058L79.6753 11.1978L80.0073 11.729L77.5337 11.8867H70.1709C69.8942 11.8867 69.6729 11.8037 69.5068 11.6377C69.3408 11.4717 69.2578 11.2559 69.2578 10.9902C69.2578 10.7301 69.3408 10.5171 69.5068 10.3511C69.6729 10.1851 69.8942 10.1021 70.1709 10.1021H77.5337L80.0073 10.2598L79.6753 10.791L77.2432 8.58301L75.9897 7.30469C75.9067 7.22721 75.8403 7.1359 75.7905 7.03076C75.7463 6.92562 75.7241 6.80664 75.7241 6.67383C75.7241 6.43587 75.8044 6.23665 75.9648 6.07617C76.1253 5.91016 76.3328 5.82715 76.5874 5.82715C76.8198 5.82715 77.0301 5.91846 77.2183 6.10107L81.46 10.3345C81.6481 10.5171 81.7422 10.7357 81.7422 10.9902Z" fill="white" fill-opacity="0.6"/>
<path d="M97.5766 16.8257C96.7686 16.8257 96.0354 16.6956 95.3769 16.4355C94.7183 16.1699 94.1926 15.7881 93.7997 15.29C93.4068 14.7865 93.1965 14.1777 93.1688 13.4639L93.1771 13.4556L95.1029 13.4473L95.1112 13.4639C95.161 13.8014 95.2828 14.1003 95.4765 14.3604C95.6701 14.6149 95.9413 14.8141 96.2899 14.958C96.6386 15.1019 97.0757 15.1738 97.6015 15.1738C98.1438 15.1738 98.5893 15.1102 98.9379 14.9829C99.2865 14.8501 99.5438 14.6675 99.7099 14.4351C99.8759 14.2026 99.9589 13.9342 99.9589 13.6299V13.6133C99.9589 13.2038 99.8122 12.8745 99.5189 12.6255C99.2312 12.3765 98.6999 12.1606 97.9252 11.978L96.6884 11.6958C95.98 11.5298 95.3796 11.3084 94.8871 11.0317C94.4001 10.755 94.0294 10.4119 93.7748 10.0024C93.5258 9.5874 93.4013 9.09212 93.4013 8.5166V8.5C93.4013 7.81934 93.5811 7.23275 93.9408 6.74023C94.3061 6.24772 94.8013 5.86865 95.4267 5.60303C96.0575 5.33187 96.7714 5.19629 97.5683 5.19629C98.3817 5.19629 99.1011 5.3374 99.7265 5.61963C100.352 5.89632 100.85 6.28923 101.221 6.79834C101.591 7.30192 101.788 7.89681 101.81 8.58301V8.59131L99.8842 8.59961L99.8759 8.58301C99.8371 8.20671 99.7154 7.89128 99.5106 7.63672C99.3059 7.37663 99.0403 7.18018 98.7138 7.04736C98.3873 6.91455 98.0137 6.84814 97.5932 6.84814C97.1117 6.84814 96.7077 6.91732 96.3812 7.05566C96.0548 7.19401 95.8085 7.37663 95.6425 7.60352C95.4765 7.8304 95.3935 8.07943 95.3935 8.35059V8.36719C95.3935 8.61068 95.4571 8.82926 95.5844 9.02295C95.7172 9.21663 95.9219 9.38818 96.1986 9.5376C96.4809 9.68701 96.8516 9.81706 97.3109 9.92773L98.5478 10.21C99.6545 10.4645 100.498 10.8381 101.079 11.3306C101.661 11.8231 101.951 12.5176 101.951 13.4141V13.4307C101.951 14.1611 101.757 14.7809 101.37 15.29C100.983 15.7936 100.457 16.1755 99.7929 16.4355C99.1343 16.6956 98.3956 16.8257 97.5766 16.8257ZM97.1117 18.187V3.81836H98.0746V18.187H97.1117ZM106.922 17V7.13037H106.772L103.792 9.23047V7.22168L106.922 5.02197H109.055V17H106.922ZM116.225 4.72314C116.867 4.72314 117.476 4.84212 118.051 5.08008C118.627 5.3125 119.136 5.67773 119.579 6.17578C120.027 6.66829 120.378 7.30192 120.633 8.07666C120.888 8.84587 121.015 9.77279 121.015 10.8574V10.874C121.015 12.2188 120.821 13.3698 120.434 14.3271C120.046 15.2845 119.49 16.0205 118.765 16.5352C118.046 17.0443 117.185 17.2988 116.184 17.2988C115.448 17.2988 114.784 17.166 114.192 16.9004C113.605 16.6292 113.118 16.2585 112.731 15.7881C112.349 15.3122 112.092 14.7699 111.959 14.1611L111.942 14.0698H114.042L114.075 14.1528C114.181 14.4295 114.33 14.673 114.524 14.8833C114.723 15.0936 114.961 15.2568 115.237 15.373C115.52 15.4837 115.835 15.5391 116.184 15.5391C116.815 15.5391 117.329 15.3537 117.728 14.9829C118.132 14.6066 118.433 14.1058 118.633 13.4805C118.837 12.8496 118.953 12.1523 118.981 11.3887C118.987 11.3057 118.989 11.2254 118.989 11.1479C118.989 11.0649 118.989 10.9847 118.989 10.9072L118.616 8.90674C118.616 8.45296 118.511 8.04069 118.3 7.66992C118.09 7.29915 117.805 7.00586 117.446 6.79004C117.091 6.57422 116.69 6.46631 116.242 6.46631C115.81 6.46631 115.415 6.57145 115.055 6.78174C114.695 6.99202 114.407 7.27979 114.192 7.64502C113.976 8.00472 113.868 8.40869 113.868 8.85693V8.87354C113.868 9.33838 113.97 9.75065 114.175 10.1104C114.38 10.4645 114.659 10.744 115.013 10.9487C115.368 11.1535 115.772 11.2559 116.225 11.2559C116.679 11.2559 117.086 11.1562 117.446 10.957C117.805 10.7578 118.09 10.4811 118.3 10.127C118.511 9.77279 118.616 9.37158 118.616 8.92334V8.90674H119.114V11.1147H118.823C118.68 11.4302 118.467 11.7235 118.184 11.9946C117.902 12.2658 117.553 12.4844 117.138 12.6504C116.729 12.8164 116.247 12.8994 115.694 12.8994C114.93 12.8994 114.255 12.7279 113.669 12.3848C113.082 12.0417 112.62 11.5713 112.282 10.9736C111.95 10.376 111.784 9.70085 111.784 8.94824V8.93164C111.784 8.11816 111.973 7.396 112.349 6.76514C112.731 6.12874 113.256 5.6307 113.926 5.271C114.601 4.90576 115.368 4.72314 116.225 4.72314ZM123.67 17.1577C123.293 17.1577 122.978 17.0332 122.723 16.7842C122.474 16.5296 122.35 16.2197 122.35 15.8545C122.35 15.4837 122.474 15.1738 122.723 14.9248C122.978 14.6702 123.293 14.543 123.67 14.543C124.051 14.543 124.367 14.6702 124.616 14.9248C124.865 15.1738 124.989 15.4837 124.989 15.8545C124.989 16.2197 124.865 16.5296 124.616 16.7842C124.367 17.0332 124.051 17.1577 123.67 17.1577ZM130.865 4.72314C131.507 4.72314 132.115 4.84212 132.691 5.08008C133.266 5.3125 133.776 5.67773 134.218 6.17578C134.667 6.66829 135.018 7.30192 135.272 8.07666C135.527 8.84587 135.654 9.77279 135.654 10.8574V10.874C135.654 12.2188 135.461 13.3698 135.073 14.3271C134.686 15.2845 134.13 16.0205 133.405 16.5352C132.685 17.0443 131.825 17.2988 130.823 17.2988C130.087 17.2988 129.423 17.166 128.831 16.9004C128.244 16.6292 127.757 16.2585 127.37 15.7881C126.988 15.3122 126.731 14.7699 126.598 14.1611L126.582 14.0698H128.682L128.715 14.1528C128.82 14.4295 128.969 14.673 129.163 14.8833C129.362 15.0936 129.6 15.2568 129.877 15.373C130.159 15.4837 130.475 15.5391 130.823 15.5391C131.454 15.5391 131.969 15.3537 132.367 14.9829C132.771 14.6066 133.073 14.1058 133.272 13.4805C133.477 12.8496 133.593 12.1523 133.621 11.3887C133.626 11.3057 133.629 11.2254 133.629 11.1479C133.629 11.0649 133.629 10.9847 133.629 10.9072L133.255 8.90674C133.255 8.45296 133.15 8.04069 132.94 7.66992C132.73 7.29915 132.445 7.00586 132.085 6.79004C131.731 6.57422 131.33 6.46631 130.881 6.46631C130.45 6.46631 130.054 6.57145 129.694 6.78174C129.335 6.99202 129.047 7.27979 128.831 7.64502C128.615 8.00472 128.507 8.40869 128.507 8.85693V8.87354C128.507 9.33838 128.61 9.75065 128.814 10.1104C129.019 10.4645 129.299 10.744 129.653 10.9487C130.007 11.1535 130.411 11.2559 130.865 11.2559C131.319 11.2559 131.725 11.1562 132.085 10.957C132.445 10.7578 132.73 10.4811 132.94 10.127C133.15 9.77279 133.255 9.37158 133.255 8.92334V8.90674H133.753V11.1147H133.463C133.319 11.4302 133.106 11.7235 132.824 11.9946C132.542 12.2658 132.193 12.4844 131.778 12.6504C131.368 12.8164 130.887 12.8994 130.333 12.8994C129.57 12.8994 128.895 12.7279 128.308 12.3848C127.722 12.0417 127.259 11.5713 126.922 10.9736C126.59 10.376 126.424 9.70085 126.424 8.94824V8.93164C126.424 8.11816 126.612 7.396 126.988 6.76514C127.37 6.12874 127.896 5.6307 128.565 5.271C129.241 4.90576 130.007 4.72314 130.865 4.72314ZM141.804 4.72314C142.446 4.72314 143.054 4.84212 143.63 5.08008C144.205 5.3125 144.714 5.67773 145.157 6.17578C145.605 6.66829 145.957 7.30192 146.211 8.07666C146.466 8.84587 146.593 9.77279 146.593 10.8574V10.874C146.593 12.2188 146.399 13.3698 146.012 14.3271C145.625 15.2845 145.069 16.0205 144.344 16.5352C143.624 17.0443 142.764 17.2988 141.762 17.2988C141.026 17.2988 140.362 17.166 139.77 16.9004C139.183 16.6292 138.696 16.2585 138.309 15.7881C137.927 15.3122 137.67 14.7699 137.537 14.1611L137.52 14.0698H139.621L139.654 14.1528C139.759 14.4295 139.908 14.673 140.102 14.8833C140.301 15.0936 140.539 15.2568 140.816 15.373C141.098 15.4837 141.413 15.5391 141.762 15.5391C142.393 15.5391 142.908 15.3537 143.306 14.9829C143.71 14.6066 144.012 14.1058 144.211 13.4805C144.416 12.8496 144.532 12.1523 144.559 11.3887C144.565 11.3057 144.568 11.2254 144.568 11.1479C144.568 11.0649 144.568 10.9847 144.568 10.9072L144.194 8.90674C144.194 8.45296 144.089 8.04069 143.879 7.66992C143.669 7.29915 143.384 7.00586 143.024 6.79004C142.67 6.57422 142.268 6.46631 141.82 6.46631C141.389 6.46631 140.993 6.57145 140.633 6.78174C140.274 6.99202 139.986 7.27979 139.77 7.64502C139.554 8.00472 139.446 8.40869 139.446 8.85693V8.87354C139.446 9.33838 139.549 9.75065 139.753 10.1104C139.958 10.4645 140.238 10.744 140.592 10.9487C140.946 11.1535 141.35 11.2559 141.804 11.2559C142.257 11.2559 142.664 11.1562 143.024 10.957C143.384 10.7578 143.669 10.4811 143.879 10.127C144.089 9.77279 144.194 9.37158 144.194 8.92334V8.90674H144.692V11.1147H144.402C144.258 11.4302 144.045 11.7235 143.763 11.9946C143.48 12.2658 143.132 12.4844 142.717 12.6504C142.307 12.8164 141.826 12.8994 141.272 12.8994C140.509 12.8994 139.834 12.7279 139.247 12.3848C138.66 12.0417 138.198 11.5713 137.861 10.9736C137.529 10.376 137.363 9.70085 137.363 8.94824V8.93164C137.363 8.11816 137.551 7.396 137.927 6.76514C138.309 6.12874 138.835 5.6307 139.504 5.271C140.179 4.90576 140.946 4.72314 141.804 4.72314ZM155.943 5.96973L152.603 19.6367H151.38L154.719 5.96973H155.943ZM160.621 17V9.10449H167.008V17H165.733V10.1592H161.896V17H160.621ZM172.343 17.1392C171.591 17.1392 170.944 16.9731 170.402 16.6411C169.865 16.3091 169.45 15.8403 169.157 15.2349C168.869 14.6245 168.725 13.9067 168.725 13.0815V13.0742C168.725 12.2588 168.869 11.5435 169.157 10.9282C169.45 10.313 169.862 9.83203 170.394 9.48535C170.927 9.13867 171.549 8.96533 172.262 8.96533C172.98 8.96533 173.595 9.13135 174.108 9.46338C174.625 9.79541 175.021 10.2593 175.294 10.855C175.573 11.4458 175.712 12.1343 175.712 12.9204V13.4185H169.384V12.4004H175.06L174.43 13.3306V12.8252C174.43 12.2051 174.337 11.6948 174.152 11.2944C173.966 10.894 173.71 10.5962 173.383 10.4009C173.056 10.2007 172.68 10.1006 172.255 10.1006C171.83 10.1006 171.449 10.2056 171.112 10.4155C170.78 10.6206 170.517 10.9258 170.321 11.3311C170.126 11.7363 170.028 12.2344 170.028 12.8252V13.3306C170.028 13.8921 170.123 14.373 170.314 14.7734C170.504 15.1689 170.775 15.4741 171.127 15.689C171.478 15.8989 171.893 16.0039 172.372 16.0039C172.728 16.0039 173.038 15.9551 173.302 15.8574C173.566 15.7598 173.783 15.6353 173.954 15.4839C174.125 15.3325 174.245 15.1787 174.313 15.0225L174.342 14.9565H175.617L175.602 15.0151C175.534 15.2837 175.412 15.5449 175.236 15.7988C175.065 16.0479 174.843 16.2749 174.569 16.48C174.296 16.6802 173.971 16.8413 173.595 16.9634C173.224 17.0806 172.807 17.1392 172.343 17.1392ZM177.436 19.6367V9.10449H178.71V10.3643H178.827C178.989 10.0713 179.191 9.82227 179.435 9.61719C179.679 9.40723 179.958 9.24609 180.27 9.13379C180.583 9.02148 180.922 8.96533 181.288 8.96533C181.957 8.96533 182.538 9.13623 183.032 9.47803C183.53 9.81494 183.915 10.2886 184.189 10.8989C184.462 11.5093 184.599 12.2246 184.599 13.0449V13.0596C184.599 13.8848 184.462 14.6025 184.189 15.2129C183.915 15.8232 183.53 16.2969 183.032 16.6338C182.538 16.9707 181.957 17.1392 181.288 17.1392C180.927 17.1392 180.585 17.083 180.263 16.9707C179.946 16.8535 179.662 16.6924 179.413 16.4873C179.169 16.2822 178.974 16.0381 178.827 15.7549H178.71V19.6367H177.436ZM180.995 16.0112C181.479 16.0112 181.891 15.894 182.233 15.6597C182.575 15.4204 182.836 15.0811 183.017 14.6416C183.202 14.1973 183.295 13.6699 183.295 13.0596V13.0449C183.295 12.4297 183.202 11.9023 183.017 11.4629C182.836 11.0234 182.575 10.6865 182.233 10.4521C181.891 10.2129 181.479 10.0933 180.995 10.0933C180.517 10.0933 180.104 10.2129 179.758 10.4521C179.411 10.6914 179.145 11.0308 178.959 11.4702C178.774 11.9097 178.681 12.4346 178.681 13.0449V13.0596C178.681 13.665 178.774 14.1899 178.959 14.6343C179.145 15.0737 179.411 15.4131 179.758 15.6523C180.104 15.8916 180.517 16.0112 180.995 16.0112ZM186.33 17V9.10449H189.677C190.425 9.10449 191.006 9.29248 191.421 9.66846C191.836 10.0396 192.043 10.5352 192.043 11.1553V11.1699C192.043 11.5605 191.921 11.9194 191.677 12.2466C191.433 12.5688 191.125 12.769 190.754 12.8472V12.9644C191.091 13.0083 191.382 13.1133 191.626 13.2793C191.87 13.4404 192.058 13.6455 192.19 13.8945C192.326 14.1387 192.395 14.4146 192.395 14.7222V14.7368C192.395 15.1909 192.287 15.5889 192.072 15.9307C191.858 16.2676 191.548 16.5312 191.142 16.7217C190.742 16.9072 190.258 17 189.692 17H186.33ZM187.605 15.9453H189.641C190.124 15.9453 190.488 15.8403 190.732 15.6304C190.976 15.4155 191.098 15.1104 191.098 14.7148V14.7002C191.098 14.2803 190.957 13.9751 190.674 13.7847C190.39 13.5942 189.966 13.499 189.399 13.499H187.605V15.9453ZM187.605 12.4443H189.289C189.802 12.4443 190.178 12.3467 190.417 12.1514C190.656 11.9561 190.776 11.6729 190.776 11.3018V11.2871C190.776 10.9502 190.674 10.6792 190.468 10.4741C190.263 10.2642 189.939 10.1592 189.494 10.1592H187.605V12.4443ZM194.148 17V9.10449H195.422V11.6387H196.968C197.871 11.6387 198.591 11.8804 199.129 12.3638C199.666 12.8472 199.934 13.4966 199.934 14.312V14.3267C199.934 15.1421 199.666 15.7915 199.129 16.2749C198.591 16.7583 197.871 17 196.968 17H194.148ZM196.968 12.6934H195.422V15.9453H196.968C197.49 15.9453 197.903 15.7988 198.206 15.5059C198.508 15.208 198.66 14.8149 198.66 14.3267V14.312C198.66 13.8188 198.506 13.4258 198.198 13.1328C197.896 12.8398 197.485 12.6934 196.968 12.6934ZM201.311 17V9.10449H202.586V17H201.311ZM204.69 17V9.10449H205.965V14.9932H206.639L205.774 15.4619L209.986 9.10449H211.26V17H209.986V11.1113H209.312L210.176 10.6426L205.965 17H204.69ZM207.979 8.00586C207.476 8.00586 207.037 7.90088 206.661 7.69092C206.285 7.47607 205.992 7.18799 205.782 6.82666C205.572 6.46533 205.467 6.05762 205.467 5.60352H206.609C206.609 6.00391 206.731 6.36035 206.976 6.67285C207.22 6.98535 207.554 7.1416 207.979 7.1416C208.414 7.1416 208.75 6.98535 208.99 6.67285C209.229 6.36035 209.349 6.00391 209.349 5.60352H210.491C210.491 6.05762 210.386 6.46533 210.176 6.82666C209.966 7.18799 209.673 7.47607 209.297 7.69092C208.921 7.90088 208.482 8.00586 207.979 8.00586ZM222.245 10.1592H218.466V17H217.191V9.10449H222.245V10.1592ZM226.796 17.1392C226.049 17.1392 225.402 16.9756 224.855 16.6484C224.313 16.3164 223.893 15.8452 223.595 15.2349C223.302 14.6245 223.156 13.8994 223.156 13.0596V13.0449C223.156 12.2002 223.302 11.4727 223.595 10.8623C223.893 10.252 224.313 9.7832 224.855 9.45605C225.402 9.12891 226.049 8.96533 226.796 8.96533C227.548 8.96533 228.195 9.12891 228.737 9.45605C229.279 9.7832 229.696 10.252 229.989 10.8623C230.287 11.4727 230.436 12.2002 230.436 13.0449V13.0596C230.436 13.8994 230.287 14.6245 229.989 15.2349C229.696 15.8452 229.279 16.3164 228.737 16.6484C228.195 16.9756 227.548 17.1392 226.796 17.1392ZM226.796 16.0112C227.294 16.0112 227.716 15.894 228.063 15.6597C228.41 15.4253 228.674 15.0884 228.854 14.6489C229.04 14.2095 229.133 13.6797 229.133 13.0596V13.0449C229.133 12.4199 229.04 11.8877 228.854 11.4482C228.674 11.0088 228.41 10.6743 228.063 10.4448C227.716 10.2104 227.294 10.0933 226.796 10.0933C226.298 10.0933 225.876 10.2104 225.529 10.4448C225.182 10.6743 224.916 11.0088 224.731 11.4482C224.55 11.8877 224.46 12.4199 224.46 13.0449V13.0596C224.46 13.6797 224.55 14.2095 224.731 14.6489C224.916 15.0884 225.182 15.4253 225.529 15.6597C225.876 15.894 226.298 16.0112 226.796 16.0112ZM232.263 19.0874H231.076V15.9453H231.735C232.024 15.7549 232.243 15.4351 232.395 14.9858C232.546 14.5317 232.639 14.0386 232.673 13.5063L232.981 9.10449H238.364V15.9453H239.624V19.0874H238.437V17H232.263V19.0874ZM237.089 15.9453V10.1592H234.108L233.859 13.5356C233.825 14.0142 233.754 14.4561 233.647 14.8613C233.54 15.2617 233.393 15.584 233.208 15.8281V15.9453H237.089Z" fill="#6FF4E1"/>
</svg>
