<svg width="11" height="20" viewBox="0 0 11 20" fill="none" xmlns="http://www.w3.org/2000/svg">
<path d="M8.81934 19.4072L0.461914 11.2324C0.161133 10.946 0.0107422 10.6165 0.0107422 10.2441C0.0250651 9.85026 0.175456 9.51725 0.461914 9.24512L8.81934 1.08105C9.06283 0.837565 9.36003 0.71582 9.71094 0.71582C10.069 0.71582 10.3698 0.841146 10.6133 1.0918C10.8639 1.33529 10.9893 1.63249 10.9893 1.9834C10.9893 2.33431 10.8568 2.64225 10.5918 2.90723L3.07227 10.2334L10.5918 17.5811C10.8568 17.846 10.9893 18.154 10.9893 18.5049C10.9893 18.8558 10.8639 19.153 10.6133 19.3965C10.3698 19.6471 10.069 19.7725 9.71094 19.7725C9.36003 19.7725 9.06283 19.6507 8.81934 19.4072Z" fill="#1A645A"/>
</svg>
