<svg width="40" height="40" viewBox="0 0 40 40" fill="none" xmlns="http://www.w3.org/2000/svg">
<path d="M12.2822 19.1567C10.7354 19.1567 9.97266 18.4048 9.97266 16.8149V12.314C9.97266 10.7241 10.7354 9.97217 12.2822 9.97217H16.8477C18.3945 9.97217 19.1572 10.7241 19.1572 12.314V16.8149C19.1572 18.4048 18.3945 19.1567 16.8477 19.1567H12.2822ZM23.1533 19.1567C21.5957 19.1567 20.8438 18.4048 20.8438 16.8149V12.314C20.8438 10.7241 21.5957 9.97217 23.1533 9.97217H27.7188C29.2656 9.97217 30.0283 10.7241 30.0283 12.314V16.8149C30.0283 18.4048 29.2656 19.1567 27.7188 19.1567H23.1533ZM12.293 17.395H16.8262C17.2021 17.395 17.3955 17.2017 17.3955 16.8149V12.314C17.3955 11.9272 17.2021 11.7339 16.8262 11.7339H12.293C11.917 11.7339 11.7344 11.9272 11.7344 12.314V16.8149C11.7344 17.2017 11.917 17.395 12.293 17.395ZM23.1641 17.395H27.708C28.084 17.395 28.2559 17.2017 28.2559 16.8149V12.314C28.2559 11.9272 28.084 11.7339 27.708 11.7339H23.1641C22.7881 11.7339 22.6055 11.9272 22.6055 12.314V16.8149C22.6055 17.2017 22.7881 17.395 23.1641 17.395ZM12.2822 30.0278C10.7354 30.0278 9.97266 29.2759 9.97266 27.6753V23.1851C9.97266 21.5952 10.7354 20.8433 12.2822 20.8433H16.8477C18.3945 20.8433 19.1572 21.5952 19.1572 23.1851V27.6753C19.1572 29.2759 18.3945 30.0278 16.8477 30.0278H12.2822ZM23.1533 30.0278C21.5957 30.0278 20.8438 29.2759 20.8438 27.6753V23.1851C20.8438 21.5952 21.5957 20.8433 23.1533 20.8433H27.7188C29.2656 20.8433 30.0283 21.5952 30.0283 23.1851V27.6753C30.0283 29.2759 29.2656 30.0278 27.7188 30.0278H23.1533ZM12.293 28.2554H16.8262C17.2021 28.2554 17.3955 28.0728 17.3955 27.686V23.1851C17.3955 22.7983 17.2021 22.605 16.8262 22.605H12.293C11.917 22.605 11.7344 22.7983 11.7344 23.1851V27.686C11.7344 28.0728 11.917 28.2554 12.293 28.2554ZM23.1641 28.2554H27.708C28.084 28.2554 28.2559 28.0728 28.2559 27.686V23.1851C28.2559 22.7983 28.084 22.605 27.708 22.605H23.1641C22.7881 22.605 22.6055 22.7983 22.6055 23.1851V27.686C22.6055 28.0728 22.7881 28.2554 23.1641 28.2554Z" fill="#C64E0A"/>
</svg>
