<svg width="32" height="32" viewBox="0 0 32 32" fill="none" xmlns="http://www.w3.org/2000/svg">
<path d="M3.17969 15.3254C3.17969 15.7659 3.52344 16.1848 4.10352 16.1848C4.4043 16.1848 4.65137 16.0237 4.87695 15.8411L15.6299 6.81763C15.8662 6.60278 16.1562 6.60278 16.3926 6.81763L27.1455 15.8411C27.3604 16.0237 27.6074 16.1848 27.9082 16.1848C28.4131 16.1848 28.8213 15.8733 28.8213 15.3577C28.8213 15.0354 28.7139 14.8206 28.4883 14.6272L25.4805 12.092V7.79517C25.4805 7.32251 25.1797 7.02173 24.707 7.02173H23.5576C23.0957 7.02173 22.7842 7.32251 22.7842 7.79517V9.82544L17.3057 5.22778C16.5107 4.55103 15.5225 4.55103 14.7168 5.22778L3.52344 14.6272C3.28711 14.8206 3.17969 15.0784 3.17969 15.3254ZM6.53125 24.9075C6.53125 26.4006 7.43359 27.2815 8.94824 27.2815H23.0742C24.5889 27.2815 25.4805 26.4006 25.4805 24.9075V16.3997L16.6504 8.99829C16.2422 8.65454 15.7588 8.66528 15.3613 8.99829L6.53125 16.3997V24.9075ZM18.7666 25.552H13.2236V18.4514C13.2236 17.9573 13.5566 17.635 14.0508 17.635H17.9502C18.4443 17.635 18.7666 17.9573 18.7666 18.4514V25.552Z" fill="white"/>
</svg>
