<svg width="40" height="40" viewBox="0 0 40 40" fill="none" xmlns="http://www.w3.org/2000/svg">
<path d="M23.9854 16.0737C22.8252 16.0737 21.8262 15.354 21.418 14.3335H9.93457C9.37598 14.3335 8.9248 13.8716 8.9248 13.313C8.9248 12.7544 9.36523 12.2925 9.93457 12.2925H21.418C21.8262 11.272 22.8252 10.5522 23.9854 10.5522C25.1455 10.5522 26.1445 11.272 26.5527 12.2925H30.0977C30.6348 12.2925 31.0752 12.7544 31.0752 13.313C31.0752 13.8716 30.624 14.3335 30.0977 14.3335H26.542C26.1338 15.354 25.1455 16.0737 23.9854 16.0737ZM23.9854 14.6235C24.7266 14.6235 25.2959 14.0435 25.2959 13.313C25.2959 12.561 24.7266 11.9917 23.9854 11.9917C23.2549 11.9917 22.6641 12.561 22.6641 13.313C22.6641 14.0435 23.2549 14.6235 23.9854 14.6235ZM9.8916 18.9849H13.5762C13.9844 17.9644 14.9834 17.2446 16.1436 17.2446C17.293 17.2446 18.292 17.9644 18.7002 18.9849H30.0654C30.6348 18.9849 31.0752 19.436 31.0752 20.0054C31.0752 20.564 30.624 21.0151 30.0654 21.0151H18.7002C18.292 22.0356 17.293 22.7661 16.1436 22.7661C14.9727 22.7661 13.9736 22.0356 13.5762 21.0151H9.8916C9.37598 21.0151 8.9248 20.5532 8.9248 20.0054C8.9248 19.436 9.36523 18.9849 9.8916 18.9849ZM16.1436 21.3159C16.8848 21.3159 17.4541 20.7358 17.4541 20.0054C17.4541 19.2534 16.8848 18.6841 16.1436 18.6841C15.4023 18.6841 14.8223 19.2534 14.8223 20.0054C14.8223 20.7358 15.4023 21.3159 16.1436 21.3159ZM23.9854 29.4478C22.8252 29.4478 21.8262 28.728 21.418 27.7075H9.93457C9.37598 27.7075 8.9248 27.2456 8.9248 26.687C8.9248 26.1284 9.36523 25.6665 9.93457 25.6665H21.418C21.8262 24.646 22.8252 23.9263 23.9854 23.9263C25.1455 23.9263 26.1445 24.646 26.542 25.6665H30.0977C30.6348 25.6665 31.0752 26.1177 31.0752 26.687C31.0752 27.2456 30.624 27.7075 30.0977 27.7075H26.5527C26.1445 28.728 25.1455 29.4478 23.9854 29.4478ZM23.9854 28.0083C24.7266 28.0083 25.2959 27.4175 25.2959 26.687C25.2959 25.9458 24.7266 25.3657 23.9854 25.3657C23.2549 25.3657 22.6641 25.9458 22.6641 26.687C22.6641 27.4175 23.2549 28.0083 23.9854 28.0083Z" fill="#537979"/>
</svg>
