<svg width="40" height="40" viewBox="0 0 40 40" fill="none" xmlns="http://www.w3.org/2000/svg">
<path d="M26.3857 19.7559C26.375 20.1211 26.2461 20.4326 25.9561 20.7119L17.5771 28.9082C17.3516 29.1445 17.0508 29.2627 16.707 29.2627C16.0088 29.2627 15.4609 28.7256 15.4609 28.0273C15.4609 27.6836 15.6006 27.3721 15.8369 27.125L23.3887 19.7559L15.8369 12.3867C15.6006 12.1504 15.4609 11.8389 15.4609 11.4951C15.4609 10.7861 16.0088 10.249 16.707 10.249C17.0508 10.249 17.3516 10.3672 17.5772 10.6035L25.9561 18.7998C26.2461 19.0791 26.3857 19.3906 26.3857 19.7559Z" fill="black"/>
</svg>
