<svg width="16" height="32" viewBox="0 0 16 32" fill="none" xmlns="http://www.w3.org/2000/svg">
<path d="M6.43848 24.9268C6.24512 25.3994 5.82617 25.7217 5.34277 25.7217C4.55859 25.7109 4 25.1416 4 24.4111C4 24.0244 4.21484 23.5303 4.37598 23.165L7.26562 16L4.37598 8.83496C4.21484 8.46973 4 7.96484 4 7.57812C4 6.8584 4.55859 6.27832 5.34277 6.27832C5.82617 6.27832 6.24512 6.58984 6.43848 7.0625L9.39258 14.3242C9.62891 14.8828 9.85449 15.4629 9.85449 16C9.85449 16.5371 9.62891 17.1064 9.39258 17.6758L6.43848 24.9268Z" fill="#D1DBDB"/>
</svg>
