<svg width="40" height="40" viewBox="0 0 40 40" fill="none" xmlns="http://www.w3.org/2000/svg">
<path d="M32 20C32 19.6124 31.8349 19.2248 31.5429 18.9535L23.1873 10.4522C22.8698 10.1292 22.527 10 22.1714 10C21.3841 10 20.8127 10.5685 20.8127 11.3437C20.8127 11.7442 20.9651 12.093 21.219 12.3514L24.0635 15.2842L27.7968 18.7726L24.8508 18.5917H9.40952C8.57143 18.5917 8 19.1602 8 20C8 20.8269 8.57143 21.4083 9.40952 21.4083H24.8508L27.8095 21.2274L24.0635 24.7158L21.219 27.6486C20.9651 27.8941 20.8127 28.2429 20.8127 28.6434C20.8127 29.4186 21.3841 30 22.1714 30C22.527 30 22.8571 29.8579 23.1619 29.5607L31.5429 21.0465C31.8349 20.7623 32 20.3876 32 20Z" fill="#00B59B"/>
</svg>
