<svg width="192" height="189" viewBox="0 0 192 189" fill="none" xmlns="http://www.w3.org/2000/svg">
<g clip-path="url(#clip0_1440_102458)">
<path d="M122.426 -9.18236e-05C115.184 -0.0865085 109.194 6.16873 109.114 13.8864L108.188 103.727C108.108 111.451 113.971 117.839 121.206 117.925C128.448 118.012 134.438 111.757 134.518 104.039L135.444 14.1988C135.524 6.47451 129.667 0.0863249 122.426 -9.18236e-05Z" fill="#E6BE4B"/>
<path d="M135.444 14.1986L134.524 104.039C134.444 111.537 128.795 117.659 121.819 117.925V0.0129951C122.013 0.00634766 122.219 0.00634766 122.426 0.00634766C129.667 0.0994118 135.53 6.4876 135.444 14.2053V14.1986Z" fill="#F4C95D"/>
<path d="M127.909 19.6631H116.496C115.117 19.6631 113.998 20.853 113.998 22.3221C113.998 23.7911 115.117 24.981 116.496 24.981H127.909C129.288 24.981 130.407 23.7911 130.407 22.3221C130.407 20.853 129.288 19.6631 127.909 19.6631Z" fill="#D6943E"/>
<path d="M127.836 34.8926H116.423C115.044 34.8926 113.925 36.0825 113.925 37.5516C113.925 39.0206 115.044 40.2105 116.423 40.2105H127.836C129.215 40.2105 130.334 39.0206 130.334 37.5516C130.334 36.0825 129.215 34.8926 127.836 34.8926Z" fill="#D6943E"/>
<path d="M127.762 50.1216H116.35C114.971 50.1216 113.852 51.3115 113.852 52.7806C113.852 54.2496 114.971 55.4395 116.35 55.4395H127.762C129.141 55.4395 130.261 54.2496 130.261 52.7806C130.261 51.3115 129.141 50.1216 127.762 50.1216Z" fill="#D6943E"/>
<path d="M127.682 65.3574H116.27C114.891 65.3574 113.771 66.5473 113.771 68.0164C113.771 69.4855 114.891 70.6754 116.27 70.6754H127.682C129.061 70.6754 130.181 69.4855 130.181 68.0164C130.181 66.5473 129.061 65.3574 127.682 65.3574Z" fill="#D6943E"/>
<path d="M127.609 80.5869H116.197C114.818 80.5869 113.698 81.7768 113.698 83.2459C113.698 84.715 114.818 85.9049 116.197 85.9049H127.609C128.988 85.9049 130.107 84.715 130.107 83.2459C130.107 81.7768 128.988 80.5869 127.609 80.5869Z" fill="#E5AB5E"/>
<path d="M127.536 95.8159H116.123C114.744 95.8159 113.625 97.0058 113.625 98.4749C113.625 99.944 114.744 101.134 116.123 101.134H127.536C128.915 101.134 130.034 99.944 130.034 98.4749C130.034 97.0058 128.915 95.8159 127.536 95.8159Z" fill="#E5AB5E"/>
<path d="M125.284 52.1426L132.48 64.919H117.123L125.284 52.1426Z" fill="#98B9E0"/>
<path d="M132.486 64.9189H117.123V119.401H132.486V64.9189Z" fill="#91AFCE"/>
<path d="M125.284 52.1426H160.348L166.057 64.919H132.479L125.284 52.1426Z" fill="#B4D5EF"/>
<path d="M166.051 64.9189H132.479V119.401H166.051V64.9189Z" fill="#A6C6E0"/>
<path d="M160.348 46.1201H125.284V52.1427H160.348V46.1201Z" fill="#91AFCE"/>
<path d="M162.173 75.3555H139.495V79.6098H162.173V75.3555Z" fill="#DBDCDD"/>
<path d="M162.173 80.8198H139.495V83.3458H162.173V80.8198Z" fill="#DBDCDD"/>
<path d="M155.657 114.994H142.886V116.417H155.657V114.994Z" fill="#DBDCDD"/>
<path d="M117.123 64.9189L125.904 71.4068V119.401H132.48V64.9189H117.123Z" fill="#8CA9C4"/>
<path d="M93.7716 59.8203H59.7607V106.884H93.7716V59.8203Z" fill="#EDEDED"/>
<path d="M93.7716 59.8203H59.7607V83.3456H93.7716V59.8203Z" fill="#9B5453"/>
<path d="M79.4082 89.867C83.1319 89.867 86.1505 86.9474 86.1505 83.3458C86.1505 79.7443 83.1319 76.8247 79.4082 76.8247C75.6846 76.8247 72.666 79.7443 72.666 83.3458C72.666 86.9474 75.6846 89.867 79.4082 89.867Z" fill="#DDC14E"/>
<path d="M93.7716 82.6079H59.7607V83.8909H93.7716V82.6079Z" fill="#DDC14E"/>
<path d="M63.7179 62.2271C62.8318 62.2271 62.1123 62.925 62.1123 63.7825V79.3907C62.1123 80.2483 62.8318 80.9462 63.7179 80.9462C64.604 80.9462 65.3235 80.2483 65.3235 79.3907V63.7825C65.3235 62.925 64.604 62.2271 63.7179 62.2271Z" fill="#A85D5D"/>
<path d="M63.7179 89.3751C64.7702 89.3751 65.6233 88.5507 65.6233 87.5337C65.6233 86.5168 64.7702 85.6924 63.7179 85.6924C62.6656 85.6924 61.8125 86.5168 61.8125 87.5337C61.8125 88.5507 62.6656 89.3751 63.7179 89.3751Z" fill="#F7F7F7"/>
<path d="M93.9181 106.884H59.4675C58.8212 106.884 58.2949 107.389 58.2949 108.021C58.2949 108.653 58.8212 109.158 59.4675 109.158H93.9181C94.5643 109.158 95.0906 108.653 95.0906 108.021C95.0906 107.389 94.5643 106.884 93.9181 106.884Z" fill="#E0E1E2"/>
<path d="M93.6251 57.5537H59.1745C58.5283 57.5537 58.002 58.0589 58.002 58.6904C58.002 59.3219 58.5283 59.8271 59.1745 59.8271H93.6251C94.2714 59.8271 94.7977 59.3219 94.7977 58.6904C94.7977 58.0589 94.2714 57.5537 93.6251 57.5537Z" fill="#E0E1E2"/>
<path d="M54.0443 63.0443V63.0576L52.1722 63.2238V63.2105C41.0529 63.8885 44.2375 42.1381 43.1115 36.4811C42.1122 31.4756 47.6752 23.8576 49.1076 22.003C49.2009 21.8967 49.2608 21.8036 49.3141 21.7438L49.474 21.7305C49.534 21.7836 49.6139 21.8634 49.7272 21.9498C51.466 23.5186 58.2949 30.0265 58.1949 35.1384C58.095 40.9083 65.117 61.7414 54.051 63.051L54.0443 63.0443Z" fill="#9AAF41"/>
<path d="M51.7594 44.6309L51.6061 43.0621L58.1885 35.1384L51.5129 42.158L49.4742 21.7305L49.3143 21.7438L50.9666 42.2445L43.165 36.5277L51.0398 43.1485L51.1598 44.6708L43.4049 38.9872L51.2464 45.7344L53.5648 74.6241L54.7441 74.5178L51.866 45.6945L58.395 37.6511L51.7594 44.6309Z" fill="#5B3854"/>
<path d="M51.433 63.8889V63.9022L49.6475 64.4606V64.4473C38.9213 67.4653 37.409 45.5354 35.1038 40.244C33.0652 35.5575 36.8826 26.9358 37.8886 24.8286C37.9553 24.7023 37.9952 24.6026 38.0352 24.5294L38.1884 24.4829C38.2617 24.5228 38.355 24.5826 38.4816 24.6491C40.5136 25.8124 48.5749 30.7315 49.5543 35.7437C50.6802 41.4006 61.9727 60.2794 51.4397 63.8956L51.433 63.8889Z" fill="#B0CB4A"/>
<path d="M45.2841 46.3727L44.7977 44.8771L49.5479 35.7368L44.5179 44.0129L38.1821 24.4761L38.0288 24.5226L43.9982 44.2123L35.1641 40.277L44.2647 45.0765L44.7044 46.5389L35.9236 42.6302L45.0176 47.5626L53.4254 75.3024L54.5513 74.9501L45.6172 47.3964L50.2808 38.1499L45.2841 46.3727Z" fill="#5B3854"/>
<path d="M78.2557 90.2587V90.2853C76.297 84.5685 67.9292 79.4168 64.798 77.6552C64.8246 77.4558 64.8313 77.2497 64.798 77.0436L64.5781 75.528C64.3916 74.2251 63.179 73.3211 61.8732 73.5072L47.4494 75.5745C46.1436 75.7607 45.2375 76.9705 45.4241 78.2734L45.6439 79.789C45.6439 79.789 45.6573 79.8422 45.6639 79.8754C43.9117 81.5971 36.1968 89.5342 35.7105 96.1085C35.7105 96.1085 35.1175 101.028 38.2621 104.371C40.6206 107.728 46.1303 112.335 58.9951 115.579L60.1277 115.858L60.141 115.924L60.221 115.878L60.3143 115.898V115.831L61.3136 115.246C73.3057 108.194 77.1098 101.972 78.2291 98.1094C78.2291 98.1094 79.8947 92.9244 78.2624 90.2587H78.2557Z" fill="#CC6C98"/>
<path d="M72.1523 87.2742L65.2168 81.0655C64.2575 80.2079 62.7851 80.2877 61.9257 81.2449C61.0662 82.2022 61.1462 83.6713 62.1055 84.5288L69.041 90.7375C70.0003 91.595 71.4727 91.5152 72.3321 90.558C73.1916 89.6008 73.1116 88.1317 72.1523 87.2742Z" fill="#E085B2"/>
<path d="M74.5445 96.2015C75.733 96.2015 76.6964 95.2402 76.6964 94.0544C76.6964 92.8685 75.733 91.9072 74.5445 91.9072C73.356 91.9072 72.3926 92.8685 72.3926 94.0544C72.3926 95.2402 73.356 96.2015 74.5445 96.2015Z" fill="#E085B2"/>
<path d="M60.0608 122.918L59.7144 121.901C60.3606 121.681 60.8669 121.143 61.0068 120.525C61.1601 119.833 60.8736 119.109 60.1741 118.437C59.6411 117.925 59.3746 117.307 59.4012 116.656C59.4612 115.32 60.7537 114.276 60.807 114.229L61.4799 115.067C61.2134 115.286 60.5072 116.004 60.4739 116.702C60.4605 117.041 60.6071 117.354 60.9202 117.653C61.8929 118.584 62.2927 119.68 62.0528 120.744C61.833 121.734 61.0668 122.565 60.0541 122.904L60.0608 122.918Z" fill="#CC6C98"/>
<path d="M96.6758 116.689L97.7751 117.687H120.793L121.626 116.689H96.6758Z" fill="#515151"/>
<path d="M120.421 72.5106C120.694 72.2713 120.867 71.9256 120.867 71.5401V70.7158C120.867 69.9979 120.267 69.4062 119.528 69.4062H111.646C112.379 69.4062 112.986 69.9912 112.986 70.7158V71.5401C112.986 71.9256 112.812 72.2713 112.539 72.5106C114.804 72.9094 116.537 74.8571 116.537 77.1838V112.402C116.537 115.014 114.351 117.148 111.68 117.148H119.561C122.233 117.148 124.418 115.014 124.418 112.402V77.1838C124.418 74.8571 122.686 72.9094 120.421 72.5106Z" fill="#C9C9C9"/>
<path d="M116.536 112.395V77.1769C116.536 74.8503 114.804 72.9026 112.539 72.5038C112.812 72.2645 112.985 71.9188 112.985 71.5332V70.709C112.985 69.991 112.386 69.3994 111.646 69.3994H98.7612C98.0284 69.3994 97.4221 69.9844 97.4221 70.709V71.5332C97.4221 71.9188 97.5953 72.2645 97.8685 72.5038C95.6033 72.9026 93.8711 74.8503 93.8711 77.1769V112.395C93.8711 115.007 96.0563 117.141 98.7279 117.141H111.679C114.351 117.141 116.536 115.007 116.536 112.395Z" fill="#9E9E9E"/>
<path d="M97.875 72.5103H120.42C120.42 72.5103 110.154 73.4874 97.875 72.5103Z" fill="#EFEFEF"/>
<path d="M120.68 69.1733H97.6084V70.0043H120.68V69.1733Z" fill="#505151"/>
<path d="M112.772 70.0111C112.772 70.0111 112.372 69.1802 112.039 69.1802H120.68V70.0111H112.772Z" fill="#939393"/>
<path d="M123.252 76.3657H119.062V112.741H123.252V76.3657Z" fill="#E0E0E0"/>
<path d="M124.424 83.8975H93.8779V104.272H124.424V83.8975Z" fill="#9B5453"/>
<path d="M124.418 83.8975H116.536V104.272H124.418V83.8975Z" fill="#BF6A6A"/>
<path d="M108.502 101.267C112.744 101.267 116.184 97.955 116.184 93.8688C116.184 89.7827 112.744 86.4702 108.502 86.4702C104.259 86.4702 100.82 89.7827 100.82 93.8688C100.82 97.955 104.259 101.267 108.502 101.267Z" fill="#DDB96F"/>
<path d="M108.501 87.3145L110.04 91.8679H115.01L110.986 94.6798L112.525 99.2333L108.501 96.4214L104.477 99.2333L106.016 94.6798L101.992 91.8679H106.962L108.501 87.3145Z" fill="#9B5453"/>
<path d="M123.252 83.8975H119.062V104.272H123.252V83.8975Z" fill="#D67B7B"/>
<path d="M152.732 122.525L153.425 128.502L146.656 124.912L151.62 122.253L152.732 122.525Z" fill="#5E2E1D"/>
<path d="M150.86 122.818C145.817 120.139 143.678 114.343 146.07 109.856L172.466 60.412C174.012 57.5137 177.063 55.8785 180.387 55.812C182.22 55.7588 184.118 56.1909 185.917 57.1415C190.96 59.8204 193.099 65.617 190.707 70.104L164.311 119.548C162.206 123.49 157.296 125.105 152.712 123.603C152.093 123.39 151.473 123.137 150.86 122.812V122.818Z" fill="#5E2E1D"/>
<path d="M152.713 123.609C148.895 120.611 147.563 115.426 149.801 111.232L177.75 58.8765C178.409 57.6334 179.315 56.5964 180.388 55.812C182.22 55.7588 184.119 56.1909 185.918 57.1415C190.961 59.8204 193.1 65.617 190.708 70.104L164.312 119.548C162.207 123.49 157.296 125.105 152.713 123.603V123.609Z" fill="#7C3B24"/>
<path d="M191.018 69.5249C193.41 65.0435 191.266 59.2407 186.229 56.5639C181.192 53.8872 175.17 55.3501 172.778 59.8315C170.385 64.3129 172.53 70.1157 177.567 72.7925C182.604 75.4692 188.626 74.0063 191.018 69.5249Z" fill="#9F4931"/>
<path d="M188.735 61.4027C189.348 61.7284 189.608 62.4331 189.322 62.9782C189.035 63.5232 188.509 63.5365 187.896 63.2108C187.283 62.8851 187.003 62.4464 187.29 61.9013C187.576 61.3562 188.122 61.077 188.735 61.4027Z" fill="#D28972"/>
<path d="M177.596 67.392C178.016 67.618 178.142 68.1565 177.942 68.5287C177.743 68.901 177.363 69.1735 176.943 68.9542C176.523 68.7348 176.164 68.2429 176.363 67.8706C176.563 67.4984 177.176 67.166 177.596 67.392Z" fill="#D28972"/>
<path d="M183.891 56.5035C184.104 56.6165 184.191 56.8558 184.091 57.0419C183.991 57.228 183.705 57.3543 183.498 57.2413C183.291 57.1283 183.232 56.8225 183.331 56.6364C183.431 56.4503 183.685 56.3904 183.891 56.5035Z" fill="#D28972"/>
<path d="M177.729 60.7296C177.928 60.357 177.749 59.8744 177.33 59.6518C176.912 59.4292 176.411 59.5508 176.212 59.9234C176.013 60.296 176.191 60.7786 176.61 61.0013C177.029 61.2239 177.53 61.1023 177.729 60.7296Z" fill="#D28972"/>
<path d="M183.971 66.8002C184.604 67.1325 184.777 68.0299 184.478 68.5883C184.178 69.1467 183.465 69.2531 182.839 68.9207C182.212 68.5883 182.059 67.9502 182.359 67.3851C182.659 66.8201 183.345 66.4678 183.971 66.8002Z" fill="#D28972"/>
<path d="M189.295 68.9805C189.714 69.1999 189.894 69.6852 189.694 70.0574C189.494 70.4297 188.995 70.5493 188.575 70.33C188.155 70.1106 187.756 69.5057 187.955 69.1334C188.155 68.7612 188.875 68.7545 189.295 68.9805Z" fill="#D28972"/>
<path d="M189.621 66.7672C189.874 66.9001 190.007 67.3655 189.888 67.5915C189.768 67.8175 189.275 67.7909 189.021 67.6513C188.768 67.5117 188.662 67.2259 188.782 66.9999C188.902 66.7738 189.368 66.6276 189.614 66.7606L189.621 66.7672Z" fill="#D28972"/>
<path d="M181.1 59.9135C181.94 60.3589 182.486 61.4291 182.086 62.1737C181.686 62.9182 180.361 63.2439 179.521 62.7985C178.682 62.3531 178.455 61.2031 178.855 60.4586C179.255 59.7141 180.261 59.4681 181.1 59.9135Z" fill="#D28972"/>
<path d="M175.197 63.6625C176.037 64.1079 176.343 64.8325 175.943 65.577C175.544 66.3215 174.771 67.1857 173.931 66.7403C173.092 66.2949 172.559 64.9521 172.952 64.2076C173.345 63.4631 174.358 63.2172 175.197 63.6625Z" fill="#D28972"/>
<path d="M166.456 109.962L181.26 82.2357C181.52 81.7504 181.286 81.1255 180.74 80.8331C180.194 80.5406 179.541 80.7001 179.288 81.1854L164.484 108.912C164.224 109.397 164.458 110.022 165.004 110.314C165.55 110.607 166.203 110.447 166.456 109.962Z" fill="#964532"/>
<path d="M164.963 113.125C165.26 112.567 164.993 111.846 164.367 111.513C163.74 111.179 162.99 111.361 162.693 111.919C162.395 112.476 162.662 113.198 163.289 113.531C163.916 113.864 164.665 113.682 164.963 113.125Z" fill="#964532"/>
<path d="M48.361 64.6859L41.1857 52.6606H21.4787L10.7725 70.6087V119.607H11.2988L14.8431 135.993L17.9611 150.398L19.0337 155.384H50.3797C51.2191 155.384 51.8987 154.699 51.8987 153.855V70.6087L48.3677 64.6859H48.361Z" fill="#EAEBED"/>
<path d="M47.3946 72.5564V150.405H17.9541L14.8428 136V72.5564L19.7662 63.4028H42.4645L47.3946 72.5564Z" fill="#E4CB5B"/>
<path d="M41.1722 46.8975H21.4785V52.6608H41.1722V46.8975Z" fill="#C78459"/>
<path d="M18.5874 74.5776C17.9345 74.5776 17.4082 75.1094 17.4082 75.7675V91.3358C17.4082 91.9939 17.9345 92.5257 18.5874 92.5257C19.2403 92.5257 19.7666 91.9939 19.7666 91.3358V75.7675C19.7666 75.1094 19.2403 74.5776 18.5874 74.5776Z" fill="#EAEBED"/>
<path d="M18.5876 97.2119C19.3382 97.2119 19.9467 96.5988 19.9467 95.8425C19.9467 95.0862 19.3382 94.4731 18.5876 94.4731C17.837 94.4731 17.2285 95.0862 17.2285 95.8425C17.2285 96.5988 17.837 97.2119 18.5876 97.2119Z" fill="#EAEBED"/>
<path d="M51.8991 87.0479H29.4072V133.108H51.8991V87.0479Z" fill="#C78459"/>
<path d="M51.8928 94.4731H37.3291V96.5272H51.8928V94.4731Z" fill="#EFB595"/>
<path d="M51.8928 97.2251H37.3291V98.5878H51.8928V97.2251Z" fill="#EFB595"/>
<path d="M47.3949 106.605C48.7207 105.827 50.2597 105.395 51.8986 105.395V104.531C50.273 104.531 48.7474 104.916 47.3949 105.621C45.7893 106.459 44.4236 107.715 43.4775 109.25C42.5248 110.786 41.9785 112.607 41.9785 114.555C41.9785 116.177 42.3649 117.713 43.0445 119.062C43.1378 119.248 43.231 119.441 43.3376 119.62C44.297 121.262 45.7094 122.605 47.3949 123.483C48.7474 124.187 50.273 124.579 51.8986 124.579V123.715C50.2597 123.715 48.7274 123.277 47.3949 122.505C46.1757 121.794 45.1298 120.81 44.3503 119.627C44.2304 119.448 44.1104 119.261 44.0038 119.069C43.251 117.733 42.8246 116.204 42.8246 114.562C42.8246 112.787 43.3243 111.125 44.2037 109.729C44.9965 108.446 46.0891 107.376 47.3949 106.618V106.605Z" fill="#EFB595"/>
<path d="M170.255 119.056L170.135 119.614L158.696 172.548C157.31 178.956 151.52 183.542 144.811 183.542H36.6294C29.9205 183.542 24.131 178.956 22.7452 172.548L19.0277 155.391L17.955 150.405L14.8371 136L11.2928 119.614L11.1729 119.056H170.248H170.255Z" fill="#D7AA54"/>
<path d="M178.449 106.532V114.536C178.449 117.341 175.424 119.614 171.693 119.614H7.28174C3.55087 119.614 0.519531 117.341 0.519531 114.536V106.532C0.519531 103.727 3.55087 101.454 7.28174 101.454H171.693C175.424 101.454 178.449 103.727 178.449 106.532Z" fill="#293A4C"/>
<path d="M97.9414 99.652V51.591C97.9414 49.6965 96.4691 48.1543 94.657 48.1543H86.7755C84.9633 48.1543 83.491 49.6899 83.491 51.591V99.652C81.9587 101.6 81.1259 104.172 81.4124 106.951C81.872 111.458 85.3431 115.107 89.6536 115.606C95.2965 116.257 100.073 111.651 100.073 105.874C100.073 103.508 99.2739 101.34 97.9414 99.652Z" fill="#D7AA54"/>
<path d="M90.7195 109.431C92.4415 109.431 93.8374 107.969 93.8374 106.167C93.8374 104.364 92.4415 102.903 90.7195 102.903C88.9975 102.903 87.6016 104.364 87.6016 106.167C87.6016 107.969 88.9975 109.431 90.7195 109.431Z" fill="#293A4C"/>
<path d="M45.5092 128.296C42.0848 128.296 39.3066 131.434 39.3066 135.309V160.503C39.3066 164.379 42.0848 167.516 45.5092 167.516C48.9336 167.516 51.7118 164.379 51.7118 160.503V135.309C51.7185 131.434 48.9403 128.296 45.5092 128.296Z" fill="#293A4C"/>
<path d="M68.2543 128.296C64.8299 128.296 62.0518 131.434 62.0518 135.309V160.503C62.0518 164.379 64.8299 167.516 68.2543 167.516C71.6787 167.516 74.4569 164.379 74.4569 160.503V135.309C74.4636 131.434 71.6854 128.296 68.2543 128.296Z" fill="#293A4C"/>
<path d="M90.9994 128.296C87.575 128.296 84.7969 131.434 84.7969 135.309V160.503C84.7969 164.379 87.575 167.516 90.9994 167.516C94.4239 167.516 97.202 164.379 97.202 160.503V135.309C97.2087 131.434 94.4305 128.296 90.9994 128.296Z" fill="#293A4C"/>
<path d="M113.745 128.296C110.32 128.296 107.542 131.434 107.542 135.309V160.503C107.542 164.379 110.32 167.516 113.745 167.516C117.169 167.516 119.947 164.379 119.947 160.503V135.309C119.954 131.434 117.176 128.296 113.745 128.296Z" fill="#293A4C"/>
<path d="M136.49 128.296C133.065 128.296 130.287 131.434 130.287 135.309V160.503C130.287 164.379 133.065 167.516 136.49 167.516C139.914 167.516 142.692 164.379 142.692 160.503V135.309C142.692 131.434 139.914 128.296 136.49 128.296Z" fill="#293A4C"/>
<path d="M18.5875 155.038C18.5875 155.038 0.752561 149.514 0.0396978 164.344C-0.426661 173.997 3.64399 181.049 6.54207 184.799C8.60072 187.458 11.772 189.139 15.1364 188.993C16.3756 188.94 17.6014 188.634 18.5875 187.863V155.038Z" fill="#33962A"/>
<path d="M18.5879 155.038C18.5879 155.038 36.4228 149.514 37.1423 164.344C37.6087 173.997 33.538 181.049 30.6399 184.799C28.5813 187.458 25.4101 189.139 22.0456 188.993C20.8064 188.94 19.5806 188.634 18.5946 187.863V155.038H18.5879Z" fill="#64BA5D"/>
<path d="M31.5199 164.603C33.1057 164.603 34.3913 163.32 34.3913 161.738C34.3913 160.155 33.1057 158.873 31.5199 158.873C29.934 158.873 28.6484 160.155 28.6484 161.738C28.6484 163.32 29.934 164.603 31.5199 164.603Z" fill="#B2E0AE"/>
<path d="M31.2208 168.625C31.9015 168.625 32.4533 168.074 32.4533 167.395C32.4533 166.716 31.9015 166.166 31.2208 166.166C30.5401 166.166 29.9883 166.716 29.9883 167.395C29.9883 168.074 30.5401 168.625 31.2208 168.625Z" fill="#B2E0AE"/>
<path d="M18.5872 155.038C18.5872 155.038 18.2141 144.708 11.1787 143.551C11.1787 143.551 13.5705 141.504 14.3899 141.916C14.3899 141.916 18.7604 148.158 19.2734 154.852L18.5872 155.038Z" fill="#372D20"/>
</g>
<defs>
<clipPath id="clip0_1440_102458">
<rect width="192" height="189" fill="white"/>
</clipPath>
</defs>
</svg>
