<svg width="24" height="24" viewBox="0 0 24 24" fill="none" xmlns="http://www.w3.org/2000/svg">
<path d="M0 12C0 12.8889 0.731183 13.6057 1.60573 13.6057H10.3943V22.3943C10.3943 23.2688 11.1254 24 12 24C12.8746 24 13.6057 23.2688 13.6057 22.3943V13.6057H22.3943C23.2688 13.6057 24 12.8889 24 12C24 11.1254 23.2688 10.3943 22.3943 10.3943H13.6057V1.60573C13.6057 0.731183 12.8746 0 12 0C11.1254 0 10.3943 0.731183 10.3943 1.60573V10.3943H1.60573C0.731183 10.3943 0 11.1254 0 12Z" fill="white"/>
</svg>
