<svg width="40" height="40" viewBox="0 0 40 40" fill="none" xmlns="http://www.w3.org/2000/svg">
<circle cx="20" cy="20" r="16" fill="#1A645A"/>
<path d="M18.1211 28C18.601 28 18.9632 27.7971 19.2258 27.4006L27.7374 13.8813C27.9276 13.5862 28 13.328 28 13.079C28 12.4427 27.5654 12 26.9315 12C26.4878 12 26.2252 12.1568 25.9536 12.5902L18.0849 25.3164L14.0283 20.0138C13.7657 19.6542 13.4941 19.5066 13.0956 19.5066C12.4618 19.5066 12 19.9677 12 20.604C12 20.8807 12.0996 21.1481 12.326 21.434L17.0164 27.4098C17.3333 27.8063 17.6684 28 18.1211 28Z" fill="white"/>
</svg>
