<svg width="32" height="32" viewBox="0 0 32 32" fill="none" xmlns="http://www.w3.org/2000/svg">
<path d="M8.98019 18.1982C7.89155 18.1982 7 17.2978 7 16.1982C7 15.0892 7.89155 14.1982 8.98019 14.1982C10.1064 14.1982 10.9885 15.0798 10.9885 16.1982C10.9885 17.2978 10.0876 18.1982 8.98019 18.1982ZM16 18.1982C14.902 18.1982 14.0198 17.2978 14.0198 16.1982C14.0198 15.0892 14.902 14.1982 16 14.1982C17.1074 14.1982 17.9708 15.0798 17.9708 16.1982C17.9708 17.2978 17.0792 18.1982 16 18.1982ZM23.0104 18.1982C21.903 18.1982 21.0115 17.2978 21.0115 16.1982C21.0115 15.0892 21.903 14.1982 23.0104 14.1982C24.1178 14.1982 25 15.0798 25 16.1982C25 17.2978 24.0991 18.1982 23.0104 18.1982Z" fill="black"/>
</svg>
