<svg width="24" height="24" viewBox="0 0 24 24" fill="none" xmlns="http://www.w3.org/2000/svg">
<path d="M12 20C16.3756 20 20 16.3833 20 12C20 7.62439 16.3756 4 11.9923 4C7.61665 4 4 7.62439 4 12C4 16.3833 7.62439 20 12 20ZM9.45983 15.2836C9.04937 15.2836 8.73185 14.9584 8.73185 14.5402C8.73185 14.3543 8.80929 14.1762 8.94869 14.0368L10.97 12.0077L8.94869 9.98645C8.80929 9.84705 8.73185 9.66893 8.73185 9.47531C8.73185 9.06486 9.04937 8.75508 9.45983 8.75508C9.66893 8.75508 9.83156 8.82478 9.97096 8.96418L12 10.9855L14.0445 8.95644C14.1917 8.80929 14.3543 8.73959 14.5634 8.73959C14.9661 8.73959 15.2836 9.05712 15.2836 9.46757C15.2836 9.66118 15.2217 9.83156 15.0745 9.9787L13.0455 12.0077L15.0668 14.029C15.2062 14.1684 15.2836 14.3466 15.2836 14.5402C15.2836 14.9584 14.9584 15.2836 14.5479 15.2836C14.3388 15.2836 14.153 15.2062 14.0213 15.0668L12 13.0455L9.99419 15.0668C9.84705 15.2062 9.66893 15.2836 9.45983 15.2836Z" fill="white"/>
</svg>
