<svg width="40" height="40" viewBox="0 0 40 40" fill="none" xmlns="http://www.w3.org/2000/svg">
<path d="M12.6094 30.0278C10.2891 30.0278 9.08594 28.8354 9.08594 26.5366V13.4634C9.08594 11.1646 10.2891 9.97217 12.6094 9.97217H27.3906C29.7109 9.97217 30.9141 11.1646 30.9141 13.4634V26.5366C30.9141 28.8247 29.7109 30.0278 27.3906 30.0278H12.6094ZM12.5771 27.9224H27.4014C28.3037 27.9224 28.8086 27.4497 28.8086 26.5151V16.5894C28.8086 15.644 28.3037 15.1821 27.4014 15.1821H12.5771C11.6855 15.1821 11.1914 15.644 11.1914 16.5894V26.5151C11.1914 27.4497 11.6855 27.9224 12.5771 27.9224ZM17.9268 18.9097C17.5508 18.9097 17.4219 18.7915 17.4219 18.4048V17.7817C17.4219 17.395 17.5508 17.2769 17.9268 17.2769H18.5605C18.9473 17.2769 19.0762 17.395 19.0762 17.7817V18.4048C19.0762 18.7915 18.9473 18.9097 18.5605 18.9097H17.9268ZM21.4502 18.9097C21.0635 18.9097 20.9346 18.7915 20.9346 18.4048V17.7817C20.9346 17.395 21.0635 17.2769 21.4502 17.2769H22.0732C22.46 17.2769 22.5889 17.395 22.5889 17.7817V18.4048C22.5889 18.7915 22.46 18.9097 22.0732 18.9097H21.4502ZM24.9629 18.9097C24.5762 18.9097 24.4473 18.7915 24.4473 18.4048V17.7817C24.4473 17.395 24.5762 17.2769 24.9629 17.2769H25.5859C25.9727 17.2769 26.1016 17.395 26.1016 17.7817V18.4048C26.1016 18.7915 25.9727 18.9097 25.5859 18.9097H24.9629ZM14.4141 22.3687C14.0381 22.3687 13.9092 22.2505 13.9092 21.8638V21.2407C13.9092 20.854 14.0381 20.7358 14.4141 20.7358H15.0479C15.4346 20.7358 15.5635 20.854 15.5635 21.2407V21.8638C15.5635 22.2505 15.4346 22.3687 15.0479 22.3687H14.4141ZM17.9268 22.3687C17.5508 22.3687 17.4219 22.2505 17.4219 21.8638V21.2407C17.4219 20.854 17.5508 20.7358 17.9268 20.7358H18.5605C18.9473 20.7358 19.0762 20.854 19.0762 21.2407V21.8638C19.0762 22.2505 18.9473 22.3687 18.5605 22.3687H17.9268ZM21.4502 22.3687C21.0635 22.3687 20.9346 22.2505 20.9346 21.8638V21.2407C20.9346 20.854 21.0635 20.7358 21.4502 20.7358H22.0732C22.46 20.7358 22.5889 20.854 22.5889 21.2407V21.8638C22.5889 22.2505 22.46 22.3687 22.0732 22.3687H21.4502ZM24.9629 22.3687C24.5762 22.3687 24.4473 22.2505 24.4473 21.8638V21.2407C24.4473 20.854 24.5762 20.7358 24.9629 20.7358H25.5859C25.9727 20.7358 26.1016 20.854 26.1016 21.2407V21.8638C26.1016 22.2505 25.9727 22.3687 25.5859 22.3687H24.9629ZM14.4141 25.8276C14.0381 25.8276 13.9092 25.7095 13.9092 25.3228V24.6997C13.9092 24.313 14.0381 24.1948 14.4141 24.1948H15.0479C15.4346 24.1948 15.5635 24.313 15.5635 24.6997V25.3228C15.5635 25.7095 15.4346 25.8276 15.0479 25.8276H14.4141ZM17.9268 25.8276C17.5508 25.8276 17.4219 25.7095 17.4219 25.3228V24.6997C17.4219 24.313 17.5508 24.1948 17.9268 24.1948H18.5605C18.9473 24.1948 19.0762 24.313 19.0762 24.6997V25.3228C19.0762 25.7095 18.9473 25.8276 18.5605 25.8276H17.9268ZM21.4502 25.8276C21.0635 25.8276 20.9346 25.7095 20.9346 25.3228V24.6997C20.9346 24.313 21.0635 24.1948 21.4502 24.1948H22.0732C22.46 24.1948 22.5889 24.313 22.5889 24.6997V25.3228C22.5889 25.7095 22.46 25.8276 22.0732 25.8276H21.4502Z" fill="white"/>
</svg>
