<svg width="14" height="14" viewBox="0 0 14 14" fill="none" xmlns="http://www.w3.org/2000/svg">
<rect width="14" height="14" rx="7" fill="white"/>
<path d="M6.44199 13H7.55801C8.01657 13 8.37569 12.718 8.48066 12.2811L8.70718 11.3023L8.85083 11.247L9.70166 11.7724C10.0884 12.0157 10.5414 11.9548 10.8619 11.6286L11.6354 10.8544C11.9669 10.5281 12.0221 10.0747 11.779 9.69309L11.2541 8.847L11.3039 8.70876L12.2818 8.48203C12.7127 8.37143 13 8.01198 13 7.55853V6.46912C13 6.01567 12.7182 5.65622 12.2818 5.54562L11.3149 5.31336L11.2597 5.16959L11.7845 4.3235C12.0276 3.94194 11.9669 3.49401 11.6409 3.15668L10.8674 2.38249C10.547 2.06175 10.0939 2.00092 9.71271 2.23871L8.86188 2.75853L8.70718 2.6977L8.48066 1.71889C8.37569 1.28203 8.01657 1 7.55801 1H6.44199C5.9779 1 5.62431 1.28203 5.51934 1.71889L5.29282 2.6977L5.13812 2.75853L4.28729 2.23871C3.90055 2.00092 3.44751 2.06175 3.12707 2.38249L2.35359 3.15668C2.02762 3.49401 1.96685 3.94194 2.20994 4.3235L2.74033 5.16959L2.67956 5.31336L1.71823 5.54562C1.27624 5.65622 1 6.01567 1 6.46912V7.55853C1 8.01198 1.28177 8.37143 1.71823 8.48203L2.69061 8.70876L2.74586 8.847L2.21547 9.69309C1.97238 10.0747 2.03315 10.5281 2.35912 10.8544L3.1326 11.6286C3.45856 11.9548 3.9116 12.0157 4.29282 11.7724L5.14365 11.247L5.29282 11.3023L5.51934 12.2811C5.62431 12.718 5.9779 13 6.44199 13ZM6.57459 11.9991C6.48066 11.9991 6.43646 11.9548 6.41989 11.8719L6.09392 10.5115C5.74033 10.4286 5.40884 10.2903 5.13812 10.1189L3.94475 10.8544C3.87845 10.8986 3.81215 10.8931 3.74033 10.8267L3.1547 10.2406C3.09392 10.1797 3.0884 10.1134 3.13812 10.0415L3.87293 8.847C3.71823 8.5871 3.56906 8.2553 3.48619 7.90691L2.12155 7.58065C2.03867 7.56406 2 7.51982 2 7.42581V6.59631C2 6.49677 2.03867 6.45806 2.12155 6.43595L3.48619 6.11521C3.56906 5.7447 3.72928 5.40184 3.86188 5.16406L3.1326 3.97512C3.08287 3.8977 3.08287 3.83134 3.14917 3.76498L3.73481 3.18433C3.80663 3.1235 3.86188 3.11244 3.94475 3.15668L5.1326 3.88111C5.38122 3.7318 5.74586 3.57696 6.09392 3.48848L6.41989 2.12811C6.43646 2.04516 6.48066 2.00092 6.57459 2.00092H7.42541C7.51934 2.00092 7.56354 2.03963 7.57459 2.12811L7.90608 3.49954C8.26519 3.58249 8.59116 3.7318 8.86188 3.88664L10.0497 3.16221C10.1326 3.11797 10.1878 3.1235 10.2541 3.18986L10.8453 3.77051C10.9116 3.83134 10.9116 3.8977 10.8619 3.97512L10.1326 5.16406C10.2652 5.40184 10.4309 5.7447 10.5138 6.11521L11.8729 6.43595C11.9613 6.45806 12 6.49677 12 6.59631V7.42581C12 7.51982 11.9558 7.56406 11.8729 7.58065L10.5083 7.90691C10.4254 8.2553 10.2762 8.5871 10.1271 8.847L10.8564 10.0415C10.9006 10.1134 10.9006 10.1797 10.8398 10.235L10.2541 10.8267C10.1823 10.8931 10.116 10.8986 10.0497 10.8544L8.85635 10.1189C8.58564 10.2903 8.27072 10.4286 7.90608 10.5115L7.57459 11.8719C7.56354 11.9604 7.51934 11.9991 7.42541 11.9991H6.57459ZM7 9.10138C8.14917 9.10138 9.09392 8.15576 9.09392 7C9.09392 5.8553 8.14917 4.90968 7 4.90968C5.85083 4.90968 4.90055 5.8553 4.90055 7C4.90055 8.15576 5.8453 9.10138 7 9.10138ZM7 8.15576C6.37017 8.15576 5.85083 7.63594 5.85083 7C5.85083 6.37512 6.37017 5.86083 7 5.86083C7.61878 5.86083 8.1326 6.37512 8.1326 7C8.1326 7.63041 7.61878 8.15576 7 8.15576Z" fill="#045C5C"/>
</svg>
