<svg width="32" height="32" viewBox="0 0 32 32" fill="none" xmlns="http://www.w3.org/2000/svg">
<path d="M16 32C7.24879 32 0 24.7667 0 16C0 7.24879 7.2333 0 15.9845 0C24.7512 0 32 7.24879 32 16C32 24.7667 24.7512 32 16 32ZM23.2023 8.47241C21.1888 6.45886 18.6486 6.64472 16.2943 8.98354L14.0484 11.2139C11.6476 13.5992 11.4618 16.1549 13.5218 18.1839C14.0329 18.726 14.6525 19.0978 15.0862 19.2217C15.5663 18.8809 16.1394 18.2304 16.3562 17.6883C15.7057 17.5644 15.1481 17.2856 14.7609 16.9293C13.5373 15.6747 13.7386 14.0484 15.365 12.453L17.5024 10.2846C19.0823 8.73572 20.6931 8.53437 21.9322 9.77348C23.1868 10.9816 23.0165 12.6234 21.4211 14.1878L19.9342 15.6592C20.1975 16.2478 20.2594 17.2856 19.9961 18.1065L22.7222 15.4114C25.061 13.0571 25.2469 10.5169 23.2023 8.47241ZM8.25557 23.4966C10.2691 25.5102 12.8093 25.3398 15.1636 22.9855L17.4095 20.7551C19.8103 18.3698 19.9961 15.8141 17.9361 13.8006C17.425 13.2585 16.8054 12.8712 16.3717 12.7628C15.8916 13.1036 15.3185 13.7541 15.1016 14.2962C15.7522 14.4046 16.3098 14.6989 16.697 15.0397C17.9206 16.2943 17.7193 17.9361 16.0929 19.516L13.9555 21.6844C12.3756 23.2333 10.7493 23.4347 9.52565 22.211C8.27106 20.9874 8.44143 19.3456 10.0368 17.7812L11.5237 16.3098C11.2449 15.7212 11.1985 14.6834 11.4618 13.878L8.73572 16.5731C6.3969 18.9274 6.21104 21.4676 8.25557 23.4966Z" fill="#92550B"/>
</svg>
