<svg width="32" height="32" viewBox="0 0 32 32" fill="none" xmlns="http://www.w3.org/2000/svg">
<path d="M10.729 24H21.271C23.0961 24 24 23.0961 24 21.3058V10.6942C24 8.90386 23.0961 8 21.271 8H10.729C8.91255 8 8 8.89517 8 10.6942V21.3058C8 23.1048 8.91255 24 10.729 24ZM10.7463 22.6008C9.87724 22.6008 9.39924 22.1401 9.39924 21.2363V10.7637C9.39924 9.85986 9.87724 9.39924 10.7463 9.39924H21.2537C22.1141 9.39924 22.6008 9.85986 22.6008 10.7637V21.2363C22.6008 22.1401 22.1141 22.6008 21.2537 22.6008H10.7463ZM13.0407 19.6632C13.2406 19.6632 13.4144 19.585 13.5448 19.446L16.0043 16.9777L18.4813 19.446C18.6116 19.5763 18.7768 19.6632 18.9766 19.6632C19.3677 19.6632 19.6719 19.3504 19.6719 18.9593C19.6719 18.7594 19.6024 18.6029 19.4633 18.4639L16.9951 15.9957L19.472 13.51C19.6198 13.3623 19.6806 13.2146 19.6806 13.0234C19.6806 12.641 19.3764 12.3281 18.9853 12.3281C18.8028 12.3281 18.6551 12.3976 18.5073 12.5454L16.0043 15.0223L13.5274 12.554C13.3971 12.415 13.2406 12.3455 13.0407 12.3455C12.6583 12.3455 12.3455 12.6496 12.3455 13.032C12.3455 13.2232 12.4237 13.3884 12.554 13.5187L15.0223 15.9957L12.554 18.4726C12.4237 18.6029 12.3455 18.7681 12.3455 18.9593C12.3455 19.3504 12.6583 19.6632 13.0407 19.6632Z" fill="white"/>
</svg>
