<svg width="316" height="367" viewBox="0 0 316 367" fill="none" xmlns="http://www.w3.org/2000/svg">
<g clip-path="url(#clip0_710_686)">
<path opacity="0.59" d="M132.462 94.3885C132.012 82.6957 131.579 70.8068 134.493 59.4752C137.641 47.2355 144.504 36.3477 150.831 25.4083C151.233 24.7099 151.649 23.9703 151.659 23.1653C151.68 21.8237 150.608 20.7435 149.587 19.8732C146.453 17.2175 142.996 14.9436 139.318 13.1135C141.497 11.3556 143.844 9.80756 146.312 8.49001C148.36 3.40215 155.326 1.05603 160.031 3.86656C162.519 -0.908249 170.403 -1.36922 173.434 3.07879C174.826 2.75198 176.283 2.42518 177.675 2.76918C179.063 3.10975 180.349 4.34473 180.232 5.77236C180.163 6.62894 179.627 7.36855 179.132 8.07032C176.328 12.0574 174.283 16.5776 173.135 21.318C177.445 21.1701 181.589 22.8316 185.541 24.5551C210.54 35.467 234.703 51.0952 248.638 74.5634C259.062 92.118 263.003 112.789 264.529 133.155C230.053 134.699 201.491 163.124 167.107 166.073C159.21 166.75 150.714 165.852 144.432 161.012C142.834 159.781 141.387 158.277 140.545 156.444C138.452 151.879 140.394 146.829 140.755 142.126C141.157 136.928 138.772 133.237 137.129 128.476C133.363 117.554 132.899 105.83 132.455 94.3885H132.462Z" fill="#B2C1DB"/>
<path d="M246.432 108.224C248.356 91.6778 237.765 75.2033 221.303 68.2303C219.423 67.4322 217.32 66.954 215.117 66.7442C214.523 64.4325 213.354 60.2081 211.835 56.2864C208.189 46.8744 195.322 34.2012 177.018 34.8892C156.955 35.6425 138.019 56.8643 140.916 84.66C142.937 104.062 177.042 141.844 199.36 144.49C221.399 147.101 243.968 129.398 246.428 108.231L246.432 108.224ZM155.667 81.7876C155.199 64.2914 168.142 51.2157 181.18 50.4348C190.518 49.8741 195.573 54.0469 197.735 59.0728C199.102 62.2515 199.236 66.0871 199.625 68.1443C196.594 68.9974 193.205 70.4354 189.483 72.7196C183.38 76.4658 179.531 83.5283 178.153 91.9392C174.527 91.6365 170.891 90.7765 167.64 89.28C163.042 87.1678 158.9 84.3367 155.667 81.791V81.7876ZM173.747 116.24C167.492 110.368 163.083 104.471 160.186 98.7471C162.251 99.8961 164.083 100.863 165.231 101.372C169.403 103.216 173.709 104.489 177.95 105.197C178.397 108.892 179.252 112.645 180.534 116.336C181.087 117.929 182.252 121.307 183.672 124.362C180.417 122.449 177.18 119.463 173.747 116.24ZM200.353 129.075C197.817 125.449 194.789 120.45 192.775 114.912C191.703 111.96 191.14 108.758 191.009 105.555C198.783 104.588 205.446 101.386 209.392 95.9847C213.048 90.9794 214.633 85.5648 215.069 80.4528C216.444 81.0548 217.918 81.822 219.485 82.7646C234.373 91.75 234.936 108.507 226.709 117.674C222.681 122.164 213.076 129.632 200.35 129.075H200.353Z" fill="#F7A037"/>
<path d="M177.018 34.8857C158.625 35.5737 141.181 53.4724 140.638 77.8659C143.814 77.4772 147.711 73.5142 148.711 71.3126C151.041 66.18 151.653 61.8214 156.505 57.9858C164.533 51.6388 170.716 40.868 182.496 43.1316C187.909 44.1739 191.841 45.519 195.69 49.5301C197.247 51.1504 198.876 52.6296 199.852 54.5491C200.893 56.5994 201.123 59.0832 202.501 61.0234C205.013 64.5529 210.247 63.8029 213.279 60.8066C213.313 60.7722 213.347 60.7344 213.385 60.7C212.928 59.262 212.406 57.7518 211.839 56.2864C208.192 46.8744 195.325 34.2012 177.022 34.8892L177.018 34.8857Z" fill="#F5892F"/>
<path d="M246.432 108.225C248.356 91.6779 237.765 75.2034 221.303 68.2304C219.478 67.4563 217.447 66.9885 215.316 66.7649C215.43 70.0536 220.09 75.9361 221.626 76.9303C223.946 78.4336 226.18 78.9634 228.005 81.2269C229.63 83.2462 230.613 85.6612 232.294 87.6495C237.132 93.3772 241.16 102.063 238.174 109.81C236.194 114.94 231.019 118.259 227.197 121.851C223.846 124.998 222.867 130.162 217.805 130.54C213.629 130.853 210.261 130.072 206.381 132.46C203.195 134.421 201.116 138.435 204.969 141.366C206.756 142.725 210.746 142.577 212.894 143.007C213.409 143.11 213.918 143.193 214.423 143.262C230.733 138.759 244.542 124.52 246.439 108.228L246.432 108.225Z" fill="#F5892F"/>
<path d="M216.719 67.6284C213.815 67.0986 212.076 67.0436 209.141 68.0894C206.007 69.2039 202.855 69.0835 199.573 69.6546C193.229 70.7588 187.854 74.739 184.39 80.1261C182.888 82.4654 180.39 85.9743 180.51 88.8639C180.61 91.272 183.136 93.2672 185.613 93.9174C188.504 94.6776 191.665 92.8441 193.081 90.6803C195.59 86.8412 197.343 83.0812 200.676 79.8028C203.649 76.8787 206.429 75.9121 210.536 76.834C213.619 77.5289 215.612 78.3648 218.688 77.7663C221.623 77.1952 224.881 79.7512 227.465 78.0999C230.998 75.8433 226.255 72.1589 224.314 70.8483L216.715 67.6284H216.719Z" fill="#F5892F"/>
<path d="M205.711 94.7635C207.883 92.6238 209.512 90.0369 210.653 87.1885C211.787 84.3608 211.873 82.4688 210.986 79.9128L210.742 79.3968C207.367 77.5735 204.78 80.3669 202.408 82.6511C199.398 85.551 197.425 88.8845 194.655 91.867C192.463 94.2303 190.607 96.4182 187.407 97.2817C184.442 98.0832 180.995 97.5294 178.056 96.8069C174.946 96.0433 172.193 94.0515 169.331 92.6685C166.186 91.1515 163.231 89.2594 160.11 87.7527C159.155 87.2917 156.68 86.1496 155.68 86.9924C154.99 87.5704 155.278 90.3431 155.508 91.179C156.426 94.5159 162.038 95.3965 165.028 96.1327C168.674 97.034 171.898 98.9742 175.64 99.6347C179.816 100.371 184.263 101.537 188.49 102.056C191.253 102.397 195.46 101.19 198.106 100.151C200.999 99.0155 203.488 96.9617 205.718 94.7635H205.711Z" fill="#F5892F"/>
<path d="M199.979 132.608C201.048 131.246 200.738 130.84 200.168 129.422C198.109 124.286 194.841 119.935 192.762 114.726C191.834 112.401 192.064 109.088 190.913 106.986C189.456 104.324 185.057 103.818 182.768 105.297C182.421 105.521 181.603 106.419 181.596 106.425L181.465 106.549C179.754 109.759 183.039 113.35 184.593 116.061C185.579 117.785 186.662 119.353 186.851 121.352C187.033 123.278 186.926 124.799 187.669 126.626C188.954 129.78 191.49 134.445 195.363 134.854C197.154 135.043 198.872 134.011 199.972 132.608H199.979Z" fill="#F5892F"/>
<path d="M178.098 128.597C176.5 125.181 172.853 122.9 169.991 120.66C166.413 117.864 163.196 115.528 160.275 111.916C155.433 105.927 152.481 98.9948 150 91.7603C148.594 87.6666 148.532 83.9135 148.357 79.696C148.212 76.2628 146.236 73.2665 147.721 70.0948L147.357 69.1935C147.573 68.3438 146.931 67.7143 146.016 67.7762C145.037 67.845 143.844 69.5753 143.312 70.2668C142.106 71.8286 140.923 73.7412 140.243 75.592C139.308 78.1445 139.415 81.3369 139.714 83.9961C140.398 90.0575 142.972 95.4205 145.855 100.477C147.47 103.312 148.329 106.473 150.395 109.126C152.697 112.081 155.615 114.317 158.285 116.832C160.852 119.25 163.53 121.51 165.959 124.042C167.499 125.645 168.75 127.482 170.465 128.937C171.795 130.062 173.224 131.765 174.726 132.594C175.578 133.062 177.548 133.788 178.489 133.182C180.012 132.209 178.678 129.842 178.094 128.6L178.098 128.597Z" fill="#F5892F"/>
<path d="M185.177 76.4143C180.905 80.0195 178.022 85.4754 176.63 91.8533C177.149 91.9187 177.671 91.9772 178.19 92.0219C179.208 85.8229 181.565 80.3601 185.177 76.4143Z" fill="#DB772C"/>
<path d="M206.044 99.4282C202.123 102.738 196.855 104.767 190.94 105.503C190.961 106.026 190.995 106.549 191.04 107.069C197.14 105.968 202.422 103.415 206.048 99.4282H206.044Z" fill="#DB772C"/>
<path d="M195.848 60.8859C196.985 63.521 197.267 66.6102 197.556 68.7602C198.284 68.5022 198.999 68.2752 199.693 68.0791C199.305 66.0219 199.171 62.1863 197.803 59.0077C195.638 53.9852 190.586 49.8124 181.249 50.3696C175.145 50.7343 169.066 53.7925 164.372 58.7359C168.74 54.9002 174.011 52.5644 179.297 52.2479C188.634 51.6906 193.69 55.8634 195.851 60.8859H195.848Z" fill="#DB772C"/>
<path d="M199.425 144.421C177.108 141.776 143.002 103.993 140.982 84.5913C139.325 68.6845 144.817 54.9345 153.58 45.9353C143.697 54.8313 137.25 69.4103 139.03 86.4696C141.05 105.872 175.156 143.654 197.473 146.299C210.629 147.858 223.97 142.178 233.115 132.845C224.083 141.05 211.674 145.873 199.425 144.421Z" fill="#DB772C"/>
<path d="M180.599 116.271C179.318 112.58 178.462 108.827 178.015 105.132C173.719 104.413 169.386 103.113 165.296 101.307C164.152 100.801 162.176 99.7105 160.11 98.5649C160.808 99.9444 161.554 101.424 162.43 102.82C162.694 102.948 163.124 103.089 163.344 103.185C167.516 105.029 171.822 106.302 176.063 107.01C176.51 110.705 177.366 114.458 178.647 118.149C178.912 118.913 179.397 120.151 179.929 121.386C181.27 122.356 183.294 124.95 184.603 125.721C183.184 122.666 181.153 117.864 180.599 116.271Z" fill="#DB772C"/>
<path d="M226.771 117.613C234.998 108.445 234.435 91.6917 219.547 82.7028C217.983 81.7568 216.509 80.9931 215.131 80.3911C215.055 81.2649 214.945 82.1455 214.798 83.0331C215.695 83.4837 216.626 83.9997 217.592 84.5811C232.483 93.5666 233.043 110.323 224.815 119.491C224.644 119.684 224.458 119.883 224.266 120.086C225.252 119.212 226.09 118.369 226.771 117.613Z" fill="#DB772C"/>
<path d="M215.316 66.7649C215.316 66.7649 209.921 65.8946 206.598 66.2145C203.271 66.531 198.192 68.4127 198.192 68.4127L197.576 67.25C197.576 67.25 200.027 65.4852 204.072 64.8866C209.77 64.0404 214.966 66.0631 214.966 66.0631L215.32 66.7683L215.316 66.7649Z" fill="#DB772C"/>
<path d="M206.529 79.1835C212.079 78.2719 216.069 80.9482 216.069 80.9482L214.798 83.0295C214.798 83.0295 212.894 82.2073 210.811 81.994C204.34 81.337 201.979 83.1808 200.477 84.7495C198.975 86.3182 196.937 89.4074 196.676 89.6585C196.415 89.9096 195.707 90.2158 195.707 90.2158C195.707 90.2158 197.759 86.614 199.26 84.9181C200.762 83.2221 201.78 79.9609 206.526 79.1835H206.529Z" fill="#DB772C"/>
<path d="M182.541 104.145C186.572 104.292 190.94 105.503 190.94 105.503L191.614 106.945C191.614 106.945 186.205 106.006 185.823 105.999C182.263 105.927 176.998 106.718 176.998 106.718L176.52 105.046C176.52 105.046 178.647 104 182.538 104.145H182.541Z" fill="#DB772C"/>
<path d="M177.692 91.0104C179.403 91.6193 183.321 93.6214 186.452 93.6146C192.198 93.6008 195.913 89.7754 195.913 89.7754L196.879 89.3489C196.879 89.3489 192.367 94.6913 187.517 94.595C180.871 94.4643 177.039 91.7672 177.039 91.7672L177.692 91.0139V91.0104Z" fill="#DB772C"/>
<path d="M164.128 102.18L160.804 99.1118C159.962 97.9525 153.9 96.3529 150.927 91.695C148.542 87.9557 149.195 86.1462 149.536 84.636C149.999 82.5685 150.096 82.1901 149.054 83.0914C147.707 84.261 147.494 86.1255 147.711 87.9213C148.123 91.382 151.178 95.0835 153.323 97.3126C154.996 99.0533 157.313 100.257 159.337 101.523C160.251 102.094 161.141 102.462 162.151 102.831C162.629 103.003 164.822 103.481 164.128 102.18Z" fill="#DB772C"/>
<path d="M201.377 130.64C200.735 129.546 200.814 130.585 200.773 131.349C200.731 132.068 200.226 132.811 199.776 133.437C199.401 133.956 198.188 134.72 197.635 134.992C193.257 137.155 190.088 134.888 187.748 131.345C186.724 129.794 184.668 125.659 183.558 123.591C182.864 122.294 182.761 123.282 182.38 121.844L182.019 120.815C181.637 120.702 179.847 118.431 179.819 120.643C179.809 121.455 180.263 122.666 180.744 123.295C181.624 124.448 186.926 133.254 187.878 134.479C189.995 137.204 193.861 138.624 196.198 137.503C201.986 134.73 201.759 131.283 201.381 130.64H201.377Z" fill="#DB772C"/>
<path opacity="0.2" d="M192.724 41.2464C191.81 40.3279 187.772 37.655 180.861 37.4486C178.73 37.3867 176.359 37.6137 174.248 37.999C168.757 39.0001 163.189 40.5756 159.038 44.5799C157.031 46.5132 154.34 49.2927 154.965 52.3441C155.526 55.0893 157.893 54.587 159.546 53.2832C162.028 51.3293 164.062 48.8421 166.856 47.2941C170.279 45.3986 173.561 43.4515 177.517 43.1797C180.445 42.9802 183.466 44.253 186.091 45.4536C188.112 46.379 190.531 47.5933 192.631 46.3584C194.875 45.0374 194.353 42.877 192.731 41.2464H192.724Z" fill="#FFF3AE"/>
<path opacity="0.2" d="M211.55 70.9377C210.749 70.518 207.299 70.7519 207.292 70.6797L206.948 70.8448C204.735 71.722 202.292 71.8527 199.958 72.3859C196.432 73.1909 192.965 75.1174 190.28 77.4841C189.263 78.382 185.184 83.2669 188.38 84.0718C190.198 84.5294 193.363 80.4047 194.525 79.2902C198.793 75.1862 203.601 73.4799 209.378 73.1978C210.584 73.1393 214.261 72.3584 211.553 70.9377H211.55Z" fill="#FFF3AE"/>
<path opacity="0.2" d="M166.427 91.2408C166.925 89.1871 162.433 87.5324 161.076 86.5657C159.131 85.1794 156.914 83.683 155.223 82.1693H155.395C153.831 80.8931 151.608 82.4342 150.996 84.0235C150.158 86.1942 151.704 88.5885 153.635 89.5551C154.608 90.0436 155.862 90.2156 156.907 90.5665C158.151 90.9862 159.21 91.7086 160.413 92.2212C162.121 92.947 165.798 93.8346 166.43 91.2373L166.427 91.2408Z" fill="#FFF3AE"/>
<path opacity="0.2" d="M197.948 130.145C199.233 128.294 197.119 125.948 196.188 124.475C193.817 120.739 191.043 117.262 189.298 113.092C188.875 112.081 188.071 109.054 186.779 109.171C184.919 109.339 185.992 112.958 187.05 112.71C189.012 114.341 189.655 118.459 189.981 120.801C190.404 123.811 190.246 127.241 192.418 129.605C193.769 131.073 196.477 132.26 197.944 130.145H197.948Z" fill="#FFF3AE"/>
<path d="M173.743 42.2992C174.18 42.7705 174.472 43.3278 174.788 43.8851C175.077 44.3908 175.871 43.9607 175.582 43.4551C175.224 42.829 174.888 42.2063 174.396 41.6731C174.001 41.2465 173.348 41.8726 173.747 42.2992H173.743Z" fill="#FFF3AE"/>
<path d="M178.606 41.6283C178.936 41.986 179.146 42.4367 179.476 42.7944C179.871 43.2244 180.52 42.5949 180.125 42.1683C179.795 41.8106 179.586 41.3599 179.256 41.0022C178.86 40.5722 178.211 41.2017 178.606 41.6283Z" fill="#FFF3AE"/>
<path d="M182.397 40.4277C183.053 40.4483 183.682 40.5653 184.321 40.7063C184.888 40.8302 185.139 39.9633 184.569 39.836C183.857 39.6778 183.146 39.5436 182.417 39.5229C181.833 39.5057 181.816 40.4105 182.4 40.4277H182.397Z" fill="#FFF3AE"/>
<path d="M181.984 45.1441C182.386 45.5638 183.039 44.9377 182.634 44.518C182.228 44.0983 181.579 44.7244 181.984 45.1441Z" fill="#FFF3AE"/>
<path d="M182.527 45.2299C183.022 45.0098 183.572 44.9719 184.07 44.7483C184.603 44.511 184.167 43.7163 183.641 43.9537C183.146 44.1738 182.596 44.2117 182.098 44.4353C181.565 44.6726 182.002 45.4673 182.527 45.2299Z" fill="#FFF3AE"/>
<path d="M187.521 42.8255C187.923 43.2452 188.576 42.6191 188.17 42.1994C187.768 41.7797 187.115 42.4058 187.521 42.8255Z" fill="#FFF3AE"/>
<path d="M187.521 42.8255C187.878 43.197 188.212 43.5617 188.445 44.0261C188.706 44.549 189.5 44.1155 189.239 43.5961C188.971 43.0629 188.579 42.626 188.17 42.1994C187.768 41.7797 187.115 42.4058 187.521 42.8255Z" fill="#FFF3AE"/>
<path d="M195.075 48.3468C195.477 48.7664 196.13 48.1404 195.724 47.7207C195.322 47.301 194.669 47.9271 195.075 48.3468Z" fill="#FFF3AE"/>
<path d="M194.961 48.1369C195.143 48.6942 195.418 49.2033 195.813 49.6368C196.209 50.0668 196.858 49.4373 196.463 49.0107C196.178 48.7011 195.968 48.3261 195.834 47.9236C195.655 47.3732 194.776 47.5831 194.958 48.1369H194.961Z" fill="#FFF3AE"/>
<path d="M193.487 51.1263C193.889 51.546 194.542 50.9199 194.136 50.5002C193.731 50.0805 193.081 50.7066 193.487 51.1263Z" fill="#FFF3AE"/>
<path d="M193.813 51.3773C194.497 51.5356 195.109 51.7798 195.824 51.6732C196.401 51.5838 196.181 50.7065 195.611 50.796C195.081 50.8751 194.563 50.6274 194.057 50.5105C193.494 50.3797 193.243 51.2466 193.81 51.3808L193.813 51.3773Z" fill="#FFF3AE"/>
<path d="M199.931 48.1851C200.305 48.5773 200.68 48.966 201.058 49.3582C201.46 49.7779 202.113 49.1518 201.707 48.7321C201.333 48.3399 200.955 47.9512 200.58 47.559C200.178 47.1394 199.525 47.7655 199.931 48.1851Z" fill="#FFF3AE"/>
<path d="M204.653 55.1064C204.814 55.619 205.013 56.0765 205.381 56.4756C205.776 56.9056 206.426 56.2761 206.031 55.8495C205.773 55.5709 205.639 55.2509 205.529 54.8932C205.357 54.3393 204.477 54.5492 204.653 55.1064Z" fill="#FFF3AE"/>
<path d="M204.532 60.6758C204.11 61.0955 203.831 61.6459 204 62.2514C204.158 62.8121 205.037 62.5988 204.876 62.0381C204.8 61.7663 204.917 61.5633 205.154 61.326C205.567 60.9166 204.941 60.263 204.529 60.6758H204.532Z" fill="#FFF3AE"/>
<path d="M157.495 50.8442C157.708 51.4806 158.11 52.0861 158.698 52.4232C159.203 52.7121 159.663 51.9381 159.158 51.6457C158.787 51.4324 158.505 51.0368 158.371 50.6309C158.189 50.0805 157.309 50.2903 157.495 50.8442Z" fill="#FFF3AE"/>
<path d="M162.646 52.0379C163.011 52.1686 163.385 52.3131 163.777 52.3303C164.361 52.3578 164.375 51.4565 163.794 51.4256C163.519 51.4118 163.179 51.2673 162.894 51.1675C162.664 51.085 162.399 51.2535 162.337 51.4806C162.268 51.7283 162.416 51.9553 162.65 52.0379H162.646Z" fill="#FFF3AE"/>
<path d="M163.451 47.7895C164.049 47.449 164.66 47.1428 165.258 46.8022C165.763 46.5133 165.334 45.7186 164.829 46.0076C164.231 46.3481 163.619 46.6543 163.021 46.9949C162.516 47.2838 162.945 48.0785 163.451 47.7895Z" fill="#FFF3AE"/>
<path d="M168.685 46.1588C169.087 46.5785 169.74 45.9524 169.334 45.5327C168.932 45.113 168.279 45.7391 168.685 46.1588Z" fill="#FFF3AE"/>
<path d="M168.935 46.4202C169.31 46.8124 169.685 47.2011 170.063 47.5933C170.465 48.013 171.118 47.3869 170.712 46.9672C170.338 46.575 169.963 46.1863 169.585 45.7942C169.183 45.3745 168.53 46.0006 168.935 46.4202Z" fill="#FFF3AE"/>
<path d="M168.726 50.6344C168.894 50.8099 169.059 50.9819 169.228 51.1573C169.399 51.3362 169.688 51.3397 169.867 51.1711C170.045 50.9991 170.049 50.7101 169.881 50.5312C169.712 50.3558 169.547 50.1838 169.379 50.0083C169.207 49.8295 168.918 49.826 168.74 49.9946C168.561 50.1666 168.557 50.4556 168.726 50.6344Z" fill="#FFF3AE"/>
<path d="M148.443 63.9818C148.797 63.8098 149.123 63.5346 149.494 63.4073C149.728 63.3281 149.89 63.1183 149.828 62.8637C149.773 62.6401 149.515 62.4509 149.281 62.53C148.824 62.6849 148.443 62.9773 148.01 63.1871C147.484 63.4451 147.92 64.2363 148.439 63.9818H148.443Z" fill="#FFF3AE"/>
<path d="M150.766 59.5545C151.168 59.7747 151.488 60.0706 151.804 60.3974C152.206 60.817 152.859 60.191 152.453 59.7713C152.086 59.3894 151.694 59.0351 151.226 58.7771C150.718 58.4984 150.254 59.2725 150.766 59.5545Z" fill="#FFF3AE"/>
<path d="M154.512 65.5608C154.532 65.5814 154.553 65.6055 154.574 65.6261C154.594 65.6502 154.673 65.7603 154.594 65.6468C154.611 65.6743 154.656 65.7947 154.618 65.6812C154.625 65.7052 154.629 65.7259 154.632 65.75C154.625 65.6984 154.625 65.6984 154.629 65.75C154.629 65.9976 154.821 66.204 155.072 66.2109C155.313 66.2144 155.533 66.0148 155.533 65.7672C155.533 65.43 155.392 65.1686 155.161 64.9278C154.99 64.7489 154.701 64.7455 154.522 64.914C154.343 65.086 154.34 65.375 154.508 65.5539L154.512 65.5608Z" fill="#FFF3AE"/>
<path d="M150.91 73.7482C150.786 74.075 150.491 74.3158 150.247 74.5532C149.828 74.9556 150.453 75.6093 150.872 75.2033C151.247 74.8421 151.591 74.4878 151.78 73.9924C151.869 73.7619 151.69 73.4971 151.467 73.4351C151.216 73.3629 150.996 73.5177 150.91 73.7482Z" fill="#FFF3AE"/>
<path d="M146.12 76.6413C146.14 76.662 146.161 76.686 146.181 76.7067C146.202 76.7308 146.281 76.8408 146.202 76.7273C146.219 76.7548 146.264 76.8752 146.226 76.7617C146.233 76.7858 146.236 76.8064 146.24 76.8305C146.233 76.7789 146.233 76.7789 146.236 76.8305C146.236 77.0782 146.429 77.288 146.68 77.2915C146.92 77.2949 147.14 77.0954 147.14 76.8477C147.14 76.5106 146.999 76.2491 146.769 76.0083C146.597 75.8295 146.309 75.826 146.13 75.9946C145.951 76.1666 145.948 76.4556 146.116 76.6344L146.12 76.6413Z" fill="#FFF3AE"/>
<path d="M190.466 84.9283C190.848 85.0624 191.226 85.2 191.607 85.3342C191.837 85.4168 192.102 85.2482 192.164 85.0211C192.232 84.7735 192.085 84.5464 191.851 84.4639C191.47 84.3297 191.092 84.1921 190.71 84.0579C190.48 83.9754 190.215 84.1439 190.153 84.371C190.085 84.6187 190.232 84.8457 190.466 84.9283Z" fill="#FFF3AE"/>
<path d="M190.287 77.264C190.689 77.6837 191.342 77.0576 190.937 76.6379C190.535 76.2182 189.882 76.8443 190.287 77.264Z" fill="#FFF3AE"/>
<path d="M190.298 77.1882C190.48 77.7455 190.755 78.2546 191.15 78.6881C191.545 79.1181 192.195 78.4885 191.799 78.062C191.514 77.7524 191.305 77.3774 191.174 76.9749C190.995 76.4245 190.115 76.6343 190.298 77.1882Z" fill="#FFF3AE"/>
<path d="M194.738 78.2477C195.119 78.6295 195.659 78.7981 196.185 78.6501C196.422 78.5848 196.576 78.3509 196.518 78.1066C196.463 77.8727 196.209 77.7076 195.972 77.7729C195.724 77.8417 195.545 77.7832 195.387 77.625C194.975 77.2156 194.322 77.8383 194.738 78.2511V78.2477Z" fill="#FFF3AE"/>
<path d="M197.236 74.5909C197.638 75.0106 198.291 74.3845 197.886 73.9648C197.484 73.5451 196.831 74.1712 197.236 74.5909Z" fill="#FFF3AE"/>
<path d="M197.236 74.591C197.539 74.8938 197.896 74.9935 198.312 75.0004C198.896 75.0107 198.913 74.1094 198.329 74.0957C198.281 74.0957 198.233 74.0957 198.185 74.0922C198.161 74.0922 198.137 74.0922 198.113 74.0853C197.992 74.075 198.202 74.106 198.082 74.0785C198.058 74.0716 198.034 74.0647 198.009 74.0578C198.058 74.0819 198.058 74.0785 198.009 74.0578C197.985 74.0441 197.961 74.0303 197.937 74.0131C198.013 74.0613 197.896 73.9718 197.889 73.9649C197.714 73.7929 197.432 73.7792 197.25 73.9512C197.075 74.1198 197.061 74.4156 197.236 74.591Z" fill="#FFF3AE"/>
<path d="M205.281 70.69C205.952 71.6669 206.629 72.5958 207.57 73.3354C208.027 73.6931 208.484 72.9122 208.031 72.5579C207.23 71.9284 206.646 71.0924 206.075 70.26C205.749 69.7852 204.952 70.2118 205.281 70.69Z" fill="#FFF3AE"/>
<path d="M214.894 75.1861C215.488 75.0829 216.093 75.0691 216.684 74.9659C217.258 74.8662 217.042 73.9889 216.471 74.0887C215.877 74.1885 215.275 74.2091 214.681 74.3089C214.107 74.4086 214.323 75.2858 214.894 75.1861Z" fill="#FFF3AE"/>
<path d="M216.268 71.636C216.763 71.7495 217.231 71.8974 217.681 72.1313C218.196 72.3962 218.66 71.6222 218.141 71.3539C217.619 71.0856 217.083 70.8964 216.512 70.7656C215.949 70.6384 215.698 71.5053 216.265 71.636H216.268Z" fill="#FFF3AE"/>
<path d="M224.85 79.7924C224.973 80.1571 225.217 80.4632 225.341 80.8244C225.42 81.0584 225.63 81.22 225.888 81.1581C226.111 81.1031 226.3 80.8451 226.221 80.6146C226.097 80.2499 225.853 79.9438 225.73 79.5826C225.65 79.3487 225.441 79.187 225.187 79.2489C224.963 79.3039 224.774 79.5619 224.853 79.7924H224.85Z" fill="#FFF3AE"/>
<path d="M228.317 78.2752C228.609 78.5779 228.902 78.8841 229.194 79.1868C229.596 79.6065 230.249 78.9804 229.843 78.5607C229.551 78.258 229.259 77.9519 228.967 77.6491C228.565 77.2294 227.912 77.8555 228.317 78.2752Z" fill="#FFF3AE"/>
<path d="M235.362 89.8546C235.356 90.5805 235.455 91.3029 235.448 92.0287C235.441 92.6101 236.345 92.6307 236.352 92.0459C236.359 91.3201 236.259 90.5977 236.266 89.8718C236.273 89.2904 235.369 89.2698 235.362 89.8546Z" fill="#FFF3AE"/>
<path d="M230.991 87.7768C231.019 87.7665 231.046 87.7596 231.077 87.7527C231.087 87.7527 231.221 87.7355 231.132 87.7424C231.173 87.7424 231.214 87.7424 231.252 87.7424C231.379 87.7458 231.17 87.7217 231.29 87.7424C231.324 87.7493 231.359 87.7596 231.393 87.7699C231.417 87.7768 231.52 87.8215 231.403 87.7699C231.427 87.7802 231.452 87.7974 231.476 87.8112C231.555 87.8593 231.393 87.7355 231.452 87.794C231.627 87.966 231.909 87.9832 232.091 87.8078C232.263 87.6426 232.28 87.3399 232.104 87.1679C231.768 86.8411 231.221 86.7689 230.781 86.8961C230.544 86.9649 230.39 87.1954 230.448 87.4431C230.503 87.6736 230.757 87.8456 230.991 87.7768Z" fill="#FFF3AE"/>
<path d="M233.517 84.9697C233.926 85.1899 234.235 85.4789 234.555 85.8126C234.957 86.2322 235.61 85.6062 235.204 85.1865C234.833 84.8012 234.452 84.4503 233.977 84.1923C233.469 83.9171 233.001 84.6911 233.517 84.9697Z" fill="#FFF3AE"/>
<path d="M241.528 101.595C241.755 102.325 241.975 103.068 242.294 103.763C242.538 104.292 243.329 103.859 243.088 103.333C242.799 102.707 242.61 102.039 242.404 101.382C242.232 100.828 241.353 101.038 241.528 101.595Z" fill="#FFF3AE"/>
<path d="M236.971 105.545C237.345 105.937 237.72 106.326 238.098 106.718C238.5 107.138 239.153 106.511 238.748 106.092C238.373 105.7 237.998 105.311 237.62 104.919C237.218 104.499 236.565 105.125 236.971 105.545Z" fill="#FFF3AE"/>
<path d="M229.039 119.191C229.372 119.539 229.706 119.886 230.039 120.234C230.441 120.654 231.094 120.027 230.689 119.608C230.355 119.26 230.022 118.913 229.689 118.565C229.286 118.146 228.633 118.772 229.039 119.191Z" fill="#FFF3AE"/>
<path d="M237.029 115.975C236.847 116.477 236.624 116.945 236.6 117.489C236.572 118.073 237.476 118.087 237.503 117.506C237.524 117.052 237.744 116.642 237.899 116.223C238.098 115.676 237.229 115.431 237.029 115.975Z" fill="#FFF3AE"/>
<path d="M229.816 128.93C228.919 129.04 228.025 129.15 227.128 129.26C226.551 129.333 226.771 130.21 227.341 130.138C228.238 130.028 229.132 129.918 230.029 129.807C230.606 129.735 230.386 128.858 229.816 128.93Z" fill="#FFF3AE"/>
<path d="M226.939 125.934C226.31 126.054 225.733 126.309 225.159 126.581C224.633 126.832 225.066 127.623 225.589 127.375C226.097 127.134 226.596 126.918 227.152 126.811C227.726 126.701 227.51 125.82 226.939 125.934Z" fill="#FFF3AE"/>
<path d="M217.475 129.123C217.464 129.57 217.457 130.021 217.251 130.43C216.994 130.946 217.767 131.414 218.028 130.891C218.306 130.334 218.365 129.756 218.379 129.14C218.389 128.555 217.488 128.538 217.475 129.123Z" fill="#FFF3AE"/>
<path d="M213.935 134.434C213.801 134.816 213.663 135.195 213.529 135.577C213.447 135.807 213.615 136.072 213.842 136.134C214.09 136.203 214.316 136.055 214.399 135.821C214.533 135.439 214.67 135.061 214.804 134.679C214.887 134.448 214.718 134.183 214.492 134.121C214.244 134.053 214.017 134.201 213.935 134.434Z" fill="#FFF3AE"/>
<path d="M183.424 111.757C184.057 111.988 184.641 112.287 185.215 112.645C185.71 112.951 186.17 112.177 185.675 111.868C185.04 111.472 184.376 111.145 183.672 110.891C183.125 110.691 182.881 111.561 183.424 111.761V111.757Z" fill="#FFF3AE"/>
<path d="M187.218 110.258C187.06 110.701 186.93 111.166 187.064 111.634C187.129 111.871 187.363 112.026 187.61 111.967C187.844 111.912 188.009 111.658 187.944 111.424C187.858 111.121 187.974 110.829 188.088 110.505C188.17 110.275 188.002 110.01 187.775 109.948C187.528 109.879 187.301 110.027 187.218 110.261V110.258Z" fill="#FFF3AE"/>
<path d="M187.318 117.275C187.311 117.616 187.304 117.956 187.297 118.297C187.287 118.878 188.188 118.899 188.201 118.314C188.208 117.974 188.215 117.633 188.222 117.293C188.232 116.708 187.332 116.691 187.318 117.275Z" fill="#FFF3AE"/>
<path d="M191.748 125.993C192.164 126.426 192.583 126.863 192.999 127.296C193.401 127.716 194.054 127.09 193.648 126.67C193.233 126.237 192.813 125.803 192.397 125.366C191.995 124.947 191.342 125.573 191.748 125.993Z" fill="#FFF3AE"/>
<path d="M194.545 126.557C194.789 126.828 194.916 127.186 195.164 127.465C195.552 127.898 196.202 127.272 195.813 126.839C195.569 126.567 195.439 126.209 195.191 125.93C194.803 125.497 194.154 126.123 194.542 126.557H194.545Z" fill="#FFF3AE"/>
<path d="M156.722 89.2525C157.265 89.8167 157.808 90.3809 158.347 90.945C158.749 91.3647 159.402 90.7386 158.997 90.3189C158.454 89.7548 157.911 89.1906 157.371 88.6264C156.969 88.2067 156.316 88.8328 156.722 89.2525Z" fill="#FFF3AE"/>
<path d="M161.557 93.9378C162.268 94.0961 162.969 94.2233 163.698 94.1098C164.275 94.0169 164.055 93.1397 163.485 93.2326C162.918 93.322 162.354 93.1913 161.801 93.0709C161.237 92.9471 160.983 93.814 161.554 93.9412L161.557 93.9378Z" fill="#FFF3AE"/>
<path d="M167.166 93.3257C167.403 93.8107 167.736 94.2029 168.107 94.5916C168.509 95.0113 169.162 94.3852 168.757 93.9655C168.437 93.6318 168.162 93.3119 167.956 92.8956C167.698 92.3728 166.908 92.8062 167.162 93.3257H167.166Z" fill="#FFF3AE"/>
<path d="M172.221 99.6554C172.623 100.075 173.276 99.4489 172.87 99.0293C172.468 98.6096 171.815 99.2357 172.221 99.6554Z" fill="#FFF3AE"/>
<path d="M172.479 99.6621C172.791 99.9683 173.169 100.047 173.568 100.185C173.802 100.264 174.063 100.099 174.125 99.872C174.194 99.6243 174.046 99.3938 173.812 99.3147C173.561 99.2287 173.293 99.1977 173.128 99.036C172.712 98.6301 172.063 99.2527 172.479 99.6621Z" fill="#FFF3AE"/>
<path d="M187.246 98.0694C187.462 98.5304 187.593 99.0017 187.686 99.5039C187.792 100.078 188.669 99.8617 188.562 99.2906C188.456 98.7127 188.291 98.1692 188.04 97.6394C187.792 97.1096 187.002 97.5465 187.246 98.0694Z" fill="#FFF3AE"/>
<path d="M194.36 96.9652C194.353 97.3058 194.346 97.6463 194.339 97.9869C194.329 98.5717 195.229 98.5889 195.243 98.0041C195.25 97.6635 195.257 97.323 195.264 96.9824C195.274 96.401 194.374 96.3804 194.36 96.9652Z" fill="#FFF3AE"/>
<path d="M201.618 89.2389C202.14 89.4212 202.707 89.5244 203.261 89.5416C203.842 89.5588 203.859 88.6575 203.278 88.6369C202.797 88.6231 202.319 88.5233 201.865 88.3685C201.316 88.1793 201.072 89.0497 201.618 89.2389Z" fill="#FFF3AE"/>
<path d="M208.515 88.4957C208.563 88.4957 208.612 88.4957 208.66 88.4992C208.684 88.4992 208.708 88.4992 208.732 88.506C208.852 88.5164 208.642 88.4854 208.763 88.5129C208.787 88.5198 208.811 88.5267 208.835 88.5336C208.787 88.5095 208.787 88.5095 208.835 88.5336C208.859 88.5473 208.883 88.5611 208.907 88.5783C208.831 88.5301 208.948 88.6196 208.955 88.6264C209.13 88.7984 209.412 88.8122 209.594 88.6402C209.77 88.4716 209.78 88.1758 209.608 88.0003C209.306 87.6976 208.948 87.6013 208.532 87.591C207.948 87.5772 207.931 88.482 208.515 88.4957Z" fill="#FFF3AE"/>
<path d="M203.35 94.33C203.343 94.7325 203.34 95.0043 203.216 95.362C203.137 95.596 203.302 95.8574 203.529 95.9193C203.776 95.9881 204.006 95.8402 204.085 95.6063C204.226 95.1969 204.244 94.7738 204.254 94.3438C204.264 93.759 203.364 93.7418 203.35 94.3266V94.33Z" fill="#FFF3AE"/>
<path d="M206.405 82.775C206.261 83.1913 206.254 83.6041 206.381 84.0272C206.453 84.2646 206.677 84.4194 206.928 84.3609C207.158 84.3058 207.333 84.0513 207.261 83.8174C207.237 83.7382 207.216 83.6591 207.199 83.5766C207.199 83.5594 207.182 83.4355 207.192 83.5456C207.192 83.5112 207.189 83.4734 207.189 83.439C207.189 83.4046 207.189 83.3667 207.196 83.3323C207.206 83.2119 207.178 83.4217 207.199 83.3013C207.216 83.2085 207.247 83.1156 207.278 83.0261C207.357 82.7922 207.192 82.5308 206.965 82.4688C206.718 82.4 206.488 82.548 206.409 82.7819L206.405 82.775Z" fill="#FFF3AE"/>
<path d="M199.621 138.428C199.075 138.624 198.659 139.016 198.247 139.412C197.827 139.815 198.453 140.468 198.872 140.062C199.15 139.794 199.456 139.436 199.831 139.305C200.061 139.223 200.226 139.016 200.164 138.762C200.113 138.542 199.852 138.346 199.621 138.428Z" fill="#FFF3AE"/>
<path d="M207.759 141.081C208.295 141.425 208.732 141.858 209.172 142.312C209.574 142.732 210.227 142.106 209.821 141.686C209.326 141.17 208.821 140.692 208.22 140.303C207.732 139.987 207.268 140.764 207.759 141.081Z" fill="#FFF3AE"/>
<path opacity="0.59" d="M248.772 74.5634C234.837 51.0952 210.674 35.4705 185.675 24.5586C181.723 22.8351 177.579 21.1735 173.269 21.3215C174.417 16.581 176.465 12.0642 179.266 8.07376C179.761 7.36855 180.297 6.63238 180.366 5.7758C180.483 4.34817 179.197 3.11319 177.809 2.77262C176.42 2.43206 174.963 2.75886 173.568 3.08223C170.537 -1.36578 162.653 -0.901367 160.165 3.87C157.045 2.00549 152.934 2.41142 149.92 4.37569C150.601 4.83666 151.199 5.41459 151.677 6.11637C153.068 5.78956 154.526 5.46275 155.917 5.80676C157.309 6.15077 158.591 7.38231 158.474 8.80994C158.406 9.66652 157.869 10.4061 157.375 11.1079C154.869 14.6718 152.972 18.6588 151.776 22.8488C151.79 22.9555 151.797 23.0621 151.793 23.1688C151.787 23.5816 151.677 23.9738 151.515 24.3556C155.773 24.249 159.873 25.8864 163.78 27.5927C188.779 38.5046 212.942 54.1328 226.877 77.5975C237.301 95.1522 241.243 115.824 242.768 136.189C213.481 137.503 188.459 158.209 160.512 166.22C162.76 166.331 165.024 166.265 167.238 166.076C201.621 163.128 230.183 134.703 264.66 133.158C263.134 112.793 259.192 92.1215 248.769 74.5668L248.772 74.5634Z" fill="#B2C1DB"/>
<path d="M0 29.8322C2.7665 28.1122 5.36461 26.1238 7.75308 23.9084C23.9706 39.344 40.1882 54.7762 56.4023 70.2117C59.5537 73.2115 62.8529 76.4589 63.8564 80.6971C64.8599 84.9352 62.3752 90.2811 58.0347 90.5838C54.3231 90.8453 51.426 87.5772 49.1682 84.6187C42.1162 75.3753 36.6175 65.5332 28.6823 57.0776C26.1014 54.329 2.26819 28.4218 0 29.8322Z" fill="#568E4C"/>
<path d="M34.229 25.3395C33.4833 22.6941 28.9503 16.4504 31.1326 14.7785C33.6104 12.8796 37.1467 12.3636 39.707 13.3612C48.7626 36.6195 57.8182 59.8812 66.8772 83.1395C68.623 87.6254 69.3104 98.0832 61.8734 94.1649C56.4573 91.3131 53.2749 80.9344 51.0377 75.8431C43.886 59.5716 39.0438 42.4126 34.2325 25.3395H34.229Z" fill="#73BA65"/>
<path d="M53.4674 30.62C55.282 30.1074 57.0965 29.5914 58.9111 29.0789C66.671 54.3289 73.0838 79.9918 78.1116 105.927C79.5275 113.23 80.83 120.801 79.1357 128.043C78.902 129.044 78.5549 130.107 77.7095 130.692C71.6816 134.84 60.296 105.889 59.0245 100.567C55.8627 87.3261 54.6805 72.8571 53.7836 59.317C53.6117 56.7335 51.6082 31.1463 53.464 30.6234L53.4674 30.62Z" fill="#568E4C"/>
<path d="M11.8186 49.0279C12.53 46.7746 15.3721 45.7976 17.6678 46.3377C19.9669 46.8778 21.833 48.5084 23.5926 50.084C29.1634 55.0652 34.7411 60.0533 39.9133 65.4542C51.4879 77.5426 60.8631 91.5264 70.1798 105.435C74.5135 111.902 81.6273 121.575 79.9159 129.955C78.0463 139.106 72.4618 132.119 69.8259 127.874C58.9179 110.306 47.5632 93.188 34.882 76.827C31.0811 71.9249 27.1977 67.0848 23.2318 62.3168C21.9224 60.7447 11.3788 50.4211 11.8186 49.0313V49.0279Z" fill="#73BA65"/>
<path d="M27.7338 76.0908C31.4247 74.5875 35.1123 73.0877 38.8032 71.5843C53.3609 87.6667 65.8875 105.583 75.9981 124.782C68.3584 103.319 65.2517 80.2499 66.9357 57.5282C70.9875 57.3287 75.0393 57.1292 79.0945 56.9331C78.2869 68.6465 80.7579 80.3118 83.2151 91.7913C88.1742 114.967 93.2192 138.39 103.44 159.77C106.083 165.299 109.107 170.799 109.98 176.861C111.626 188.289 99.8553 201.688 89.2773 190.992C86.0503 187.728 85.7135 182.103 84.2632 177.962C81.7889 170.902 78.3316 164.067 75.1389 157.307C61.736 128.923 45.8552 101.709 27.7303 76.0874L27.7338 76.0908Z" fill="#568E4C"/>
<path d="M64.8324 95.0662C64.5162 83.198 65.6056 71.2885 68.0732 59.6748C66.9391 77.6147 65.8875 96.1773 72.1422 113.03C70.0424 110.426 67.7501 107.461 66.2414 104.461C64.8393 101.671 64.9149 98.121 64.8324 95.0662Z" fill="#73BA65"/>
<path d="M132.837 213.243C134.105 212.217 135.514 211.385 136.961 210.632C140.318 208.877 143.875 207.542 147.425 206.211C154.254 203.652 161.083 201.089 167.911 198.529C170.097 197.711 172.321 196.882 174.647 196.675C175.066 196.637 176.369 196.834 176.524 197.226C176.991 198.423 176.654 197.807 176.579 198.416C176.503 199.025 176.176 199.572 175.829 200.081C172.551 204.89 167.083 207.625 161.911 210.284C157.354 212.627 152.8 215.08 147.862 216.438C142.886 217.808 137.662 217.842 132.827 215.926C132.198 215.678 132.119 215.468 131.871 214.832C131.71 214.416 132.328 213.659 132.844 213.243H132.837Z" fill="#BCBCBB"/>
<path d="M172.998 139.68C166.475 131.844 158.461 134.056 155.79 127.678C151.958 118.52 158.787 116.983 157.629 102.263C156.698 90.4254 135.304 55.9938 131.335 55.691C124.307 55.1544 98.8621 64.7935 98.8621 64.7935C98.8621 64.7935 73.6027 74.9072 68.788 80.0605C66.0696 82.9708 73.5581 122.817 80.8678 132.171C89.9543 143.801 96.0269 140.313 99.3879 149.653C101.728 156.158 94.3292 159.953 94.8138 170.142C94.9856 173.754 104.34 196.744 109.67 202.038C115.004 207.333 128.345 209.163 130.266 210.597C132.187 212.032 134.026 217.673 134.026 217.673L156.309 212.541L176.197 201.244C176.197 201.244 173.743 195.846 174.19 193.486C174.637 191.126 183.232 180.751 183.586 173.242C183.94 165.732 175.307 142.463 172.991 139.684L172.998 139.68Z" fill="#E03822"/>
<path d="M173.417 139.515C166.894 131.679 158.88 133.891 156.21 127.513C152.374 118.355 159.206 116.818 158.048 102.098C157.117 90.2604 135.724 55.8287 131.754 55.526C129.919 55.385 126.826 55.9388 123.262 56.8332C128.675 60.4075 147.896 91.8669 148.779 103.075C149.938 117.795 144.81 118.641 148.642 127.798C151.312 134.173 157.622 132.656 164.145 140.492C166.458 143.272 175.09 166.54 174.74 174.05C174.386 181.56 165.791 191.935 165.344 194.295C164.897 196.655 167.351 202.052 167.351 202.052L147.463 213.349L134.071 216.435C134.311 217.078 134.449 217.505 134.449 217.505L156.732 212.372L176.62 201.075C176.62 201.075 174.166 195.678 174.613 193.318C175.06 190.958 183.655 180.583 184.009 173.073C184.363 165.563 175.73 142.295 173.417 139.515Z" fill="#B7281D"/>
<path d="M166.519 204.639C160.306 207.553 151.051 211.217 144.491 213.222C131.964 217.047 131.868 214.836 131.868 214.836C131.868 214.836 136.669 228.045 138.988 229.827C141.308 231.609 148.195 230.784 152.443 229.748C156.691 228.713 167.997 224.306 171.826 222.197C175.654 220.085 181.287 216.033 181.792 213.15C182.297 210.267 176.524 197.229 176.524 197.229C176.524 197.229 177.606 199.434 166.523 204.639H166.519Z" fill="#E6D8D4"/>
<path d="M145.326 131.187C139.119 116.718 147.243 102.273 142.109 96.6831C137.988 92.1972 124.919 97.0615 124.919 97.0615C124.919 97.0615 123.441 91.2512 117.149 90.1091C110.859 88.967 104.498 91.5127 100.728 96.7106C96.9582 101.912 99.8725 107.141 99.8725 107.141C99.8725 107.141 86.7445 112.968 86.8373 119.078C86.9541 126.691 103.069 131.235 108.498 146.02C113.853 160.606 112.179 175.65 112.179 175.65C112.179 175.65 121.317 177.704 129.373 176.761C135.528 176.039 146.927 171.343 151.879 167.583C158.354 162.664 162.963 154.634 162.963 154.634C162.963 154.634 151.45 145.463 145.326 131.187Z" fill="#E6D8D4"/>
<path d="M124.768 174.552C119.616 174.552 115.76 173.672 115.599 173.634C115.255 173.555 115.018 173.238 115.035 172.887C115.042 172.739 115.657 157.933 110.925 145.147C108.316 138.101 102.433 133.217 97.7074 129.291C93.4288 125.741 90.0506 122.938 89.8512 119.563C89.5419 114.368 99.6113 109.377 102.574 108.025C101.945 106.456 100.835 102.583 103.182 98.84C105.526 95.1075 109.32 92.9644 113.592 92.9644C114.64 92.9644 115.702 93.0985 116.75 93.36C120.998 94.423 122.843 97.9869 123.469 99.5658C125.421 98.8537 130.957 96.9892 135.352 96.9892C137.844 96.9892 139.621 97.6016 140.631 98.809C142.796 101.396 142.394 105.892 141.889 111.585C141.336 117.798 140.648 125.528 143.566 132.415C148.876 144.954 158.863 154.314 158.962 154.407C159.217 154.645 159.272 155.027 159.089 155.322C158.921 155.601 154.883 162.22 148.738 166.671C144.611 169.664 135.043 173.534 130.122 174.202C128.421 174.432 126.62 174.549 124.768 174.549V174.552ZM116.513 172.327C117.767 172.567 120.922 173.09 124.768 173.09C126.555 173.09 128.29 172.977 129.926 172.757C134.576 172.127 143.975 168.326 147.879 165.495C152.838 161.9 156.471 156.674 157.522 155.061C155.498 153.069 147.003 144.3 142.215 132.993C139.157 125.769 139.861 117.836 140.428 111.462C140.885 106.315 141.281 101.874 139.507 99.7551C138.786 98.895 137.387 98.4581 135.349 98.4581C130.311 98.4581 123.355 101.172 123.286 101.2C123.094 101.276 122.877 101.265 122.692 101.172C122.506 101.079 122.369 100.911 122.314 100.711C122.3 100.667 120.943 95.9228 116.392 94.7842C115.461 94.5502 114.52 94.4333 113.588 94.4333C109.828 94.4333 106.488 96.3253 104.416 99.6243C101.89 103.653 104.158 108.015 104.182 108.056C104.278 108.238 104.295 108.448 104.227 108.644C104.158 108.837 104.014 108.995 103.825 109.074C100.261 110.612 91.0678 115.48 91.3049 119.48C91.4699 122.219 94.7897 124.978 98.6353 128.17C103.498 132.205 109.547 137.228 112.293 144.644C116.568 156.2 116.571 169.341 116.509 172.334L116.513 172.327Z" fill="#64995F"/>
<path d="M103.993 117.595L104.883 119.037L103.773 119.725L107.327 125.483L105.457 126.639L101.904 120.88L100.797 121.565L99.9069 120.124L103.993 117.595Z" fill="#B7281D"/>
<path d="M111.519 119.105C111.925 119.852 112.193 120.392 112.327 120.722C112.461 121.053 112.506 121.397 112.458 121.754C112.413 122.112 112.268 122.446 112.028 122.755C111.787 123.065 111.457 123.333 111.038 123.56C110.64 123.777 110.248 123.904 109.859 123.949C109.471 123.99 109.114 123.935 108.777 123.781C108.443 123.626 108.175 123.406 107.973 123.117C107.77 122.831 107.461 122.305 107.045 121.541L106.354 120.268C105.948 119.522 105.68 118.982 105.546 118.651C105.412 118.321 105.368 117.977 105.416 117.619C105.46 117.262 105.605 116.928 105.845 116.618C106.086 116.309 106.416 116.04 106.835 115.813C107.234 115.597 107.626 115.469 108.014 115.425C108.402 115.383 108.763 115.438 109.096 115.593C109.43 115.748 109.698 115.968 109.901 116.257C110.103 116.543 110.413 117.069 110.829 117.836L111.519 119.109V119.105ZM108.261 117.712C108.072 117.365 107.935 117.155 107.842 117.079C107.753 117.004 107.646 116.997 107.526 117.062C107.426 117.117 107.368 117.2 107.358 117.306C107.347 117.413 107.443 117.657 107.653 118.043L109.536 121.514C109.77 121.944 109.932 122.202 110.021 122.284C110.11 122.367 110.22 122.37 110.347 122.301C110.478 122.229 110.533 122.126 110.505 121.988C110.478 121.851 110.347 121.565 110.11 121.128L108.254 117.712H108.261Z" fill="#B7281D"/>
<path d="M116.592 111.375L119.977 119.129L118.217 119.9L115.929 114.668L117.513 120.21L116.265 120.757L113.293 115.965L115.523 121.08L113.763 121.85L110.378 114.097L112.983 112.954C113.265 113.388 113.585 113.9 113.942 114.499L115.09 116.346L113.973 112.524L116.592 111.379V111.375Z" fill="#B7281D"/>
<path d="M121.668 109.714L125.462 117.379L123.324 118.07L122.743 116.66L121.994 116.9L122.334 118.39L120.173 119.088L118.64 110.691L121.664 109.714H121.668ZM122.231 115.249C121.833 114.372 121.362 113.278 120.822 111.971C121.108 113.581 121.338 114.754 121.513 115.483L122.235 115.249H122.231Z" fill="#B7281D"/>
<path d="M127.383 108.214L127.792 109.858L126.527 110.175L128.166 116.742L126.032 117.275L124.393 110.708L123.132 111.025L122.723 109.38L127.383 108.214Z" fill="#B7281D"/>
<path d="M134.167 112.077C134.304 112.917 134.38 113.515 134.397 113.87C134.414 114.224 134.342 114.565 134.181 114.888C134.019 115.211 133.775 115.48 133.445 115.689C133.115 115.903 132.717 116.047 132.246 116.123C131.799 116.195 131.387 116.188 131.005 116.099C130.627 116.009 130.304 115.837 130.039 115.579C129.775 115.321 129.596 115.026 129.496 114.688C129.4 114.351 129.28 113.753 129.142 112.893L128.912 111.465C128.775 110.626 128.699 110.027 128.682 109.673C128.665 109.318 128.737 108.978 128.898 108.654C129.06 108.331 129.304 108.063 129.634 107.853C129.964 107.64 130.362 107.495 130.833 107.42C131.28 107.347 131.692 107.354 132.074 107.444C132.452 107.533 132.775 107.705 133.04 107.963C133.304 108.221 133.483 108.517 133.583 108.854C133.679 109.191 133.799 109.79 133.937 110.65L134.17 112.077H134.167ZM131.552 109.687C131.49 109.298 131.428 109.054 131.366 108.95C131.304 108.851 131.208 108.809 131.074 108.83C130.96 108.847 130.881 108.906 130.833 109.005C130.789 109.102 130.799 109.367 130.868 109.797L131.5 113.698C131.579 114.183 131.648 114.479 131.706 114.585C131.765 114.692 131.864 114.733 132.009 114.709C132.156 114.685 132.239 114.606 132.26 114.468C132.28 114.331 132.249 114.018 132.17 113.526L131.548 109.687H131.552Z" fill="#B7281D"/>
<path d="M114.478 126.711L114.588 128.823L116.148 130.832L115.035 131.266L113.908 129.659L114.599 131.434L113.523 131.854L111.911 127.709L112.987 127.289L113.612 128.899L113.464 127.103L114.475 126.711H114.478Z" fill="black"/>
<path d="M114.722 126.618L116.516 125.92L116.839 126.749L116.121 127.028L116.427 127.816L117.1 127.554L117.406 128.342L116.733 128.603L117.087 129.515L117.877 129.205L118.2 130.034L116.334 130.76L114.722 126.615V126.618Z" fill="black"/>
<path d="M118.997 124.95L119.321 125.779L118.681 126.027L119.97 129.343L118.894 129.763L117.606 126.446L116.97 126.694L116.647 125.865L118.997 124.95Z" fill="black"/>
<path d="M122.458 125.683L121.383 126.102L121.101 125.383C121.018 125.174 120.956 125.046 120.915 125.005C120.874 124.964 120.812 124.957 120.733 124.988C120.644 125.022 120.599 125.077 120.602 125.149C120.602 125.222 120.644 125.363 120.726 125.573L121.475 127.499C121.554 127.699 121.616 127.826 121.664 127.877C121.712 127.929 121.778 127.939 121.86 127.908C121.939 127.877 121.98 127.826 121.98 127.754C121.98 127.681 121.939 127.533 121.85 127.306L121.647 126.787L122.723 126.367L122.785 126.529C122.95 126.959 123.039 127.275 123.049 127.478C123.06 127.681 122.987 127.891 122.833 128.108C122.678 128.325 122.448 128.49 122.145 128.61C121.829 128.734 121.547 128.779 121.3 128.741C121.053 128.703 120.853 128.6 120.709 128.424C120.565 128.249 120.413 127.957 120.255 127.551L119.784 126.34C119.668 126.04 119.592 125.813 119.554 125.655C119.516 125.497 119.523 125.332 119.568 125.153C119.616 124.974 119.712 124.812 119.863 124.661C120.011 124.513 120.204 124.393 120.437 124.3C120.754 124.176 121.039 124.135 121.293 124.179C121.547 124.221 121.743 124.32 121.877 124.479C122.011 124.637 122.156 124.909 122.307 125.297L122.462 125.69L122.458 125.683Z" fill="black"/>
<path d="M124.62 122.762L126.232 126.907L125.156 127.327L124.479 125.586L124.156 125.714L124.833 127.454L123.757 127.874L122.145 123.729L123.221 123.309L123.798 124.792L124.122 124.664L123.544 123.182L124.62 122.762Z" fill="black"/>
<path d="M127.496 121.641L128.572 124.41C128.696 124.723 128.771 124.95 128.799 125.084C128.826 125.218 128.819 125.373 128.768 125.545C128.72 125.717 128.627 125.872 128.489 126.006C128.352 126.14 128.17 126.25 127.946 126.336C127.699 126.433 127.465 126.477 127.245 126.467C127.025 126.46 126.84 126.409 126.696 126.312C126.551 126.216 126.441 126.099 126.369 125.961C126.297 125.82 126.166 125.518 125.984 125.05L125.032 122.597L126.108 122.177L127.318 125.284C127.386 125.466 127.441 125.576 127.483 125.617C127.52 125.659 127.572 125.669 127.63 125.645C127.699 125.617 127.73 125.573 127.73 125.511C127.73 125.449 127.685 125.311 127.606 125.105L126.417 122.05L127.493 121.63L127.496 121.641Z" fill="black"/>
<path d="M127.916 121.479L129.002 121.056C129.294 120.942 129.531 120.877 129.706 120.86C129.881 120.846 130.026 120.863 130.139 120.922C130.253 120.977 130.345 121.063 130.424 121.176C130.5 121.29 130.589 121.475 130.689 121.733L130.83 122.095C130.933 122.36 130.981 122.563 130.974 122.704C130.967 122.845 130.902 122.979 130.782 123.099C130.661 123.22 130.483 123.326 130.249 123.419L129.96 123.533L130.61 125.201L129.534 125.621L127.922 121.475L127.916 121.479ZM129.266 121.768L129.675 122.824C129.706 122.814 129.734 122.803 129.754 122.796C129.854 122.759 129.912 122.707 129.933 122.642C129.954 122.58 129.933 122.47 129.871 122.315L129.737 121.974C129.682 121.833 129.624 121.751 129.562 121.723C129.5 121.699 129.4 121.713 129.259 121.768H129.266Z" fill="black"/>
<path d="M119.685 149.306C119.032 152.006 120.276 154.958 122.424 156.719C124.568 158.48 127.472 159.144 130.242 158.945C133.009 158.745 135.665 157.751 138.146 156.502C138.988 156.079 139.817 155.622 140.562 155.044C142.683 153.403 144.016 150.781 144.099 148.098C144.192 144.999 142.398 141.751 139.466 140.757C137.126 139.962 134.538 140.661 132.29 141.689C129.819 142.821 127.778 143.781 125.149 144.373C122.64 144.937 120.314 146.719 119.692 149.302L119.685 149.306Z" fill="#E03822"/>
<path d="M123.228 143.977C122.493 143.509 121.974 142.715 121.843 141.855C122.077 142.278 122.64 142.357 123.121 142.374C124.228 142.412 125.383 142.388 126.373 142.883C125.482 141.944 125.197 140.475 125.671 139.271C125.744 139.591 126.084 139.766 126.379 139.907C127.376 140.375 128.393 140.97 128.895 141.951C128.682 141.363 128.871 140.695 129.197 140.162C129.524 139.629 129.974 139.185 130.356 138.69C130.737 138.194 131.057 137.61 131.046 136.983C132.05 137.782 132.662 139.051 132.655 140.334C132.6 139.763 132.937 139.219 133.359 138.831C133.782 138.445 134.297 138.17 134.751 137.823C135.205 137.475 135.621 137.014 135.713 136.447C135.813 137.052 135.871 137.678 135.713 138.27C135.545 138.91 135.143 139.464 134.717 139.973C134.242 140.537 133.724 141.074 133.129 141.507C131.569 142.642 129.596 143.01 127.802 143.726C126.342 144.307 124.695 144.92 123.221 143.984L123.228 143.977Z" fill="#63995F"/>
<path opacity="0.23" d="M121.836 147.992C121.252 149.072 121.152 150.365 121.386 151.569C121.534 152.329 121.84 153.107 122.462 153.568C123.084 154.029 124.08 154.036 124.551 153.42C124.709 153.21 124.795 152.956 124.853 152.698C125.152 151.394 124.881 149.866 125.744 148.845C126.221 148.277 126.957 147.998 127.52 147.517C127.761 147.31 127.984 147.008 127.898 146.702C127.84 146.488 127.647 146.34 127.455 146.234C125.524 145.147 122.857 146.103 121.836 147.992Z" fill="white"/>
<path opacity="0.23" d="M76.2936 92.0561C77.0841 97.0958 77.8848 102.166 79.6547 106.924C80.098 108.114 80.6273 109.318 81.5998 110.182C82.5724 111.045 84.0983 111.499 85.4351 110.98C86.638 110.515 87.4421 109.373 87.7308 108.224C88.0195 107.075 87.8752 105.909 87.7033 104.774C86.9198 99.5417 85.6001 94.3919 83.3594 89.6274C82.7649 88.3649 82.0294 87.0542 80.6823 86.4454C76.6236 84.6118 75.9362 89.7822 76.2902 92.0527L76.2936 92.0561Z" fill="white"/>
<path opacity="0.23" d="M75.2902 80.4356C74.4035 81.0479 73.8983 82.1075 74.0392 83.0604C74.077 83.3218 74.1629 83.5764 74.3279 83.7862C74.8331 84.4192 75.895 84.4054 76.7782 84.2162C77.6786 84.0236 78.5825 83.6933 79.2938 83.1189C80.0052 82.5444 80.5035 81.6981 80.4451 80.8725C80.3867 80.0469 79.6753 79.3038 78.768 79.2866C77.9157 79.2729 77.1425 79.837 76.3177 80.1088L75.2902 80.4356Z" fill="white"/>
<path opacity="0.23" d="M106.065 186.018C106.711 187.081 107.413 188.137 108.375 188.921C109.34 189.706 110.615 190.191 111.835 189.943C112.475 189.812 113.09 189.468 113.437 188.918C114.207 187.704 113.458 186.138 112.774 184.873C110.44 180.566 108.804 175.88 107.959 171.054C107.498 168.432 106.753 165.942 103.725 165.532C101.347 165.209 99.8003 166.919 99.6835 169.237C99.5426 172.01 101.041 175.309 102.031 177.848C103.137 180.683 104.488 183.417 106.069 186.018H106.065Z" fill="white"/>
<path opacity="0.81" d="M137.858 218.155C137.583 218.939 137.902 219.796 138.236 220.56C139.098 222.545 140.061 224.488 141.116 226.377C141.315 226.731 141.518 227.089 141.813 227.371C142.514 228.042 143.573 228.145 144.542 228.142C145.388 228.142 146.233 228.08 147.071 227.97C147.432 227.921 147.81 227.856 148.092 227.629C148.7 227.141 148.594 226.201 148.408 225.448C147.8 222.975 146.927 220.563 145.807 218.276C145.508 217.667 145.181 217.051 144.686 216.59C143.157 215.173 138.586 216.091 137.858 218.159V218.155Z" fill="white"/>
<path d="M172.063 182.485C172.063 182.485 171.197 186.479 163.11 192.104C157.57 195.956 138.411 205.726 138.411 205.726L171.269 194.085L173.108 188.072L172.059 182.485H172.063Z" fill="#B7281D"/>
<path d="M299.456 106.491C298.174 103.914 296.518 101.238 295.047 98.7713C293.067 95.4585 291.693 91.6951 289.493 88.5336C286.871 84.7668 282.919 82.8541 279.967 79.6514C279.396 79.0322 278.578 78.0311 278.403 77.3534L277.647 76.9062C277.427 75.4339 275.702 75.6024 274.99 76.6792C274.392 77.5839 274.771 79.1836 274.599 80.2397C274.076 83.4733 274.88 85.3482 276.908 87.9764C281.307 93.6869 284.486 100.261 289.387 105.514C291.5 107.781 293.091 107.901 295.858 108.765C298.263 109.515 301.429 110.45 299.459 106.487L299.456 106.491Z" fill="#D35A57"/>
<path d="M267.973 138.394C273.485 133.523 287.215 122.346 288.373 112.759C289.308 105.032 302.741 97.416 302.741 97.416C302.741 97.416 302.92 98.2347 304.979 98.503C307.037 98.7679 313.069 92.5689 313.976 90.9418C314.653 89.7309 308.347 82.2694 305.075 78.5266C302.295 74.4088 296.689 66.4072 295.346 66.7512C293.541 67.2156 286.015 71.4779 285.751 73.5385C285.486 75.5991 286.232 75.9809 286.232 75.9809C286.232 75.9809 275.454 87.0476 267.749 85.9881C258.192 84.6705 243.899 95.118 237.792 99.2151C231.682 103.312 174.675 144.744 173.681 147.779C169.819 159.568 196.271 190.821 204.738 188.103C207.776 187.129 262.457 143.269 267.966 138.397L267.973 138.394Z" fill="#A2E3ED"/>
<path d="M256.707 94.4507C256.707 94.4507 183.149 146.031 181.978 149.722C180.802 153.41 185.466 161.869 190.181 167.191C194.899 172.513 201.185 181.88 204.213 181.398C207.24 180.917 279.403 123.918 279.403 123.918L256.707 94.4507Z" fill="#E5E5B7"/>
<path d="M271.485 107.106C266.196 100.099 259.309 92.6513 256.707 94.4504C254.106 96.2496 258.398 104.905 264.285 112.404C270.172 119.903 277.499 126.226 279.403 123.921C281.307 121.617 277.073 114.509 271.485 107.11V107.106Z" fill="white"/>
<path d="M301.758 100.732C302.865 101.172 303.673 102.445 305.01 102.287C306.096 102.16 307.429 100.832 308.274 100.109C310.261 98.4135 311.976 96.3323 313.814 94.4712C318.639 89.5829 314.347 86.191 311.756 81.9081C308.982 77.3259 306.494 73.0843 302.556 69.431C299.212 66.3246 296.985 61.9523 292.077 64.1229C290.586 64.7834 289.201 65.7776 288.136 67.0711C286.933 67.8004 285.74 68.6088 284.881 69.4654C283.159 71.182 284.41 73.879 282.565 75.2756C281.262 76.2629 278.595 76.5175 277.08 75.9671C276.379 78.2272 277.111 81.3645 278.114 83.3391C278.853 84.7943 279.444 85.2243 280.943 85.7954C282.104 86.2391 283.331 86.3698 283.256 87.8732C283.201 88.9946 282.039 89.5691 282.228 90.8247C282.393 91.9152 283.799 93.2775 284.503 94.1031C285.311 95.0526 286.383 96.1018 287.624 96.4836C288.909 96.8792 289.782 96.5077 290.528 97.9078C291.325 99.4077 290.974 99.5763 292.569 100.498C293.957 101.303 294.363 101.781 294.731 103.357C295.404 106.247 297.909 107.01 300.03 108.861C300.789 106.25 300.511 103.202 301.758 100.725V100.732ZM285.723 70.8311L285.799 70.7864C285.768 70.8173 285.74 70.8345 285.723 70.8311Z" fill="#EF6A60"/>
<path opacity="0.1" d="M305.432 75.0348C304.353 73.7757 303.188 72.6198 302.037 71.4502C299.446 67.79 296.102 63.8442 292.645 66.9816C290.758 68.6947 289.514 73.0946 293.521 72.1314C295.012 71.7736 295.71 71.2025 297.366 71.839C298.655 72.3343 299.779 73.3285 300.714 74.3158C301.992 75.6677 303.484 77.9932 305.291 78.664C308.378 79.8096 306.48 76.2594 305.432 75.0382V75.0348Z" fill="white"/>
<path opacity="0.3" d="M276.654 90.2846C275.966 89.0737 274.929 88.8364 273.623 88.7263L274.623 88.5405C271.856 88.771 268.361 88.3823 265.749 89.4487C263.113 90.5254 262.649 94.2682 265.124 95.8679C267.316 97.2852 270.987 95.4344 273.221 94.8049C275.475 94.1719 278.197 92.9954 276.654 90.2812V90.2846Z" fill="white"/>
<path opacity="0.1" d="M289.146 81.7738C288.036 81.1787 284.929 82.4928 283.675 82.7302C282.864 82.885 282.015 83.0742 281.204 83.2668C280.111 83.5283 279.506 83.5902 280.252 84.6222C281.304 86.0842 282.905 86.4798 284.52 85.7471C285.476 85.3136 286.338 84.6944 287.259 84.1819C287.813 83.8757 289.641 83.4251 289.878 82.7267C290.184 81.8289 289.167 81.6018 288.448 81.7601L289.143 81.7738H289.146Z" fill="white"/>
<path opacity="0.1" d="M286.94 95.8403C289.287 93.2224 290.321 89.0496 293.277 86.9856C294.597 88.2722 291.686 92.1698 291.077 93.3704C290.394 94.7223 288.514 97.354 286.72 95.7337L286.94 95.8403Z" fill="white"/>
<path opacity="0.1" d="M296.937 91.9394C296.978 90.9384 296.432 90.4602 295.504 91.2858C294.947 91.7812 294.686 93.0127 294.363 93.7179C293.703 95.1593 292.177 97.2577 292.012 98.823C291.899 99.91 292.73 100.763 293.823 100.144H293.81C295.796 99.1739 296.878 93.4358 296.937 91.936V91.9394Z" fill="white"/>
<path d="M289.558 83.7759C292.882 88.1001 296.889 91.5883 299.549 96.4663C300.226 97.7048 300.913 99.3285 301.827 100.725C302.91 101.186 303.711 102.414 305.027 102.259C306.113 102.132 307.446 100.804 308.292 100.082C310.278 98.3859 312.093 96.3975 313.831 94.4436C314.838 93.3084 315.46 92.0734 315.777 90.7902C315.766 90.7833 315.753 90.7765 315.742 90.7696C314.704 90.171 313.526 91.4542 312.663 92.1215C310.409 93.8588 308.505 95.6717 305.559 95.1281C301.992 94.4711 299.786 91.4026 297.779 88.5645C294.16 83.4526 291.961 77.5735 287.331 73.1324C286.94 72.754 285.534 71.4742 284.218 70.4663C283.754 71.574 283.86 72.8572 283.506 73.9201C284.565 77.5597 287.112 80.5835 289.562 83.7725L289.558 83.7759Z" fill="#D35A57"/>
<path d="M303.15 101.516C303.209 100.88 302.521 99.8996 302.178 99.4076C300.624 97.1819 298.875 95.1144 297.325 92.8921C296.105 91.1411 295.067 89.2801 293.755 87.5841C291.335 84.4605 288.988 81.1994 286.751 77.9554C285.919 76.7514 285.122 75.3237 283.933 74.4809C283.441 74.13 282.829 73.6828 282.166 73.9683C281.414 74.2917 282.163 75.4132 282.163 75.4132C282.228 75.5817 283.713 77.0541 284.393 77.921C286.173 80.1845 287.981 82.3999 289.744 84.691C291.507 86.9787 293.194 89.2732 294.713 91.6812C295.906 93.5698 297.463 95.2314 298.738 97.0821C299.786 98.5992 300.377 100.801 301.642 102.101C302.274 102.751 303.044 102.645 303.147 101.513L303.15 101.516Z" fill="#724C41"/>
<path d="M284.909 110.667C285.819 109.697 286.723 108.751 287.823 107.901C289.957 106.253 292.218 104.877 293.947 102.889C294.968 101.716 295.71 100.419 296.579 99.0842C297.043 98.3721 298.339 95.5753 297.758 94.877L295.981 92.4346C295.081 93.4184 293.748 94.0101 292.603 94.7291C290.342 96.1498 288.053 97.8252 286.201 99.7516C284.565 101.454 282.953 103.281 282.005 105.462C281.424 106.797 281.678 106.718 282.915 107.244C283.644 102.277 288.641 98.1554 292.809 95.8024C294.091 95.0765 295.514 94.5399 296.93 94.0858C297.439 95.3999 296.425 97.1303 295.847 98.2758C294.978 100.013 293.696 101.582 292.363 102.975C290.631 104.784 288.696 106.46 286.613 107.905C285.647 108.575 284.692 109.253 283.823 110.058C283.331 110.516 281.74 111.72 281.678 112.459C281.671 112.542 281.63 112.556 281.592 112.621C281.891 113.044 282.458 113.436 282.898 113.639C283.128 112.463 284.122 111.499 284.905 110.663L284.909 110.667Z" fill="#724C41"/>
<path d="M258.69 127.262L261.426 120.478L263.574 126.856L265.832 122.195L267.447 126.873L270.887 122.731L273.148 127.038L274.544 122.515L277.231 126.846C277.231 126.846 279.273 122.191 279.273 122.621C279.273 123.051 280.798 127.399 280.798 127.399L283.036 123.055L284.912 127.644C284.912 127.644 278.09 132.525 278.09 132.849C278.09 133.172 258.69 127.258 258.69 127.258V127.262Z" fill="#E0BD9D"/>
<path d="M51.8041 287.734L53.8248 301.873L77.0703 304.422L81.5345 292.884L51.8041 287.734Z" fill="#E0BD9D"/>
<path d="M258.69 127.262C261.862 126.147 284.912 127.647 284.912 127.647L287.898 300.768L289.919 366.666H253.68L246.243 350.945L212.78 284.697L226.908 191.653L258.687 127.265L258.69 127.262Z" fill="#E0BD9D"/>
<path d="M211.595 165.801C215.53 157.665 207.154 153.396 210.529 146.567C213.986 139.57 221.526 142.247 223.585 134.355C226.458 123.344 221.877 110.86 221.877 110.86L209.185 104.385L196.494 97.9111C196.494 97.9111 183.71 101.53 176.496 110.33C171.324 116.635 177.919 121.169 174.293 128.081C170.753 134.826 162.385 130.55 158.117 138.514C153.625 146.898 139.037 171.078 140.679 174.872C141.862 177.597 145.662 180.786 150.316 183.624C154.972 186.462 174.675 196.514 179.702 198.619C184.73 200.724 189.542 201.932 192.439 201.285C196.473 200.387 207.45 174.363 211.588 165.804L211.595 165.801Z" fill="#684F3E"/>
<path d="M211.997 166.004C215.932 157.868 207.557 153.599 210.931 146.771C214.389 139.773 221.929 142.45 223.987 134.555C226.86 123.543 222.279 111.059 222.279 111.059L219.399 109.59C220.557 114.049 222.056 122.226 220.1 129.725C218.042 137.617 210.502 134.94 207.041 141.937C203.666 148.766 212.041 153.035 208.106 161.171C203.969 169.733 192.989 195.757 188.957 196.652C186.06 197.295 181.249 196.091 176.221 193.985C171.193 191.88 151.491 181.825 146.834 178.99C144.642 177.655 142.638 176.238 141.009 174.831C141.03 174.917 141.054 174.996 141.085 175.069C142.267 177.793 146.068 180.982 150.721 183.82C155.378 186.658 175.08 196.71 180.108 198.815C185.136 200.921 189.947 202.125 192.844 201.481C196.879 200.584 207.855 174.559 211.993 166.001L211.997 166.004Z" fill="#544032"/>
<path d="M223.963 113.11L193.452 97.5398L198.357 87.9076C199.181 86.2873 201.161 85.6441 202.776 86.4697L227.434 99.0534C229.053 99.879 229.695 101.861 228.871 103.477L223.967 113.11H223.963Z" fill="#684F3E"/>
<path d="M227.431 99.0532L224.073 97.3401C225.692 98.1657 226.334 100.147 225.51 101.764L220.605 111.396L223.963 113.109L228.867 103.477C229.692 101.857 229.049 99.8789 227.431 99.0532Z" fill="#544032"/>
<path d="M227.682 80.0504C228.001 78.8154 227.42 77.5254 226.286 76.944L223.808 75.6781L221.327 74.4121C220.193 73.8342 218.805 74.1232 217.997 75.107L206.917 88.5852L215.107 92.7649L223.296 96.9446L227.685 80.0504H227.682Z" fill="#684F3E"/>
<path d="M227.578 79.9987C227.898 78.7637 227.317 77.4703 226.183 76.8923L223.805 75.678C224.939 76.2559 225.52 77.5494 225.2 78.7844L220.812 95.6785L223.19 96.8929L227.578 79.9987Z" fill="#544032"/>
<path d="M195.068 98.3652L222.747 112.49L222.874 117.661L220.956 119.016C220.956 119.016 221.434 116.302 217.887 113.161C214.34 110.017 193.879 98.7987 193.879 98.7987L195.068 98.3687V98.3652Z" fill="#544032"/>
<path d="M200.085 158.735C202.58 151.163 201.281 146.468 203.278 142.013C205.275 137.558 212.598 133.168 214.478 131.294C216.354 129.419 213.663 125.562 208.794 121.665C205.625 119.129 197.735 114.3 192.844 113.171C187.7 111.984 182.149 111.62 181.699 114.238C181.249 116.852 182.108 125.342 179.617 129.543C177.125 133.743 172.314 135.415 167.561 141.817C162.808 148.215 155.285 163.076 155.57 163.744C155.801 164.284 189.607 181.928 190.215 181.797C190.923 181.646 197.597 166.313 200.089 158.742L200.085 158.735Z" fill="#D35A57"/>
<path d="M187.27 114.864C188.823 114.864 190.765 115.108 192.892 115.573C196.91 116.45 203.866 120.592 206.886 123.058C210.079 125.666 212.041 128.156 212.131 129.722C212.151 130.107 212.052 130.399 211.815 130.644C211.364 131.105 210.481 131.799 209.457 132.604C206.605 134.847 202.701 137.919 201.247 141.146C200.267 143.317 200.044 145.46 199.783 147.944C199.518 150.482 199.216 153.362 198.006 156.953C195.865 163.3 190.597 175.406 189.139 177.938C185.232 176.193 162.815 164.494 159.258 162.344C160.261 159.667 166.327 147.916 170.276 142.508C172.516 139.443 174.754 137.527 176.73 135.838C178.654 134.19 180.318 132.77 181.524 130.719C183.301 127.699 183.472 122.8 183.596 119.223C183.644 117.867 183.686 116.698 183.806 116.051C184.005 114.977 186.297 114.861 187.273 114.861L187.27 114.864ZM187.27 113.959C184.936 113.959 183.173 114.482 182.912 115.889C182.455 118.349 183.084 126.285 180.74 130.265C178.397 134.245 173.984 135.9 169.54 141.979C165.097 148.061 157.979 162.117 158.223 162.736C158.423 163.235 188.641 179.025 189.438 179.025H189.445C190.091 178.87 196.446 164.387 198.855 157.246C201.261 150.107 200.164 145.732 202.065 141.521C203.965 137.31 210.715 133.065 212.457 131.277C214.2 129.488 211.818 125.92 207.453 122.36C204.611 120.041 197.515 115.659 193.081 114.692C191.085 114.255 189.016 113.963 187.267 113.963L187.27 113.959Z" fill="#8C6B58"/>
<path d="M181.771 141.187L179.713 143.354L178.974 144.803L178.012 144.311L178.751 142.863L179.321 139.935L180.276 140.424C180.029 141.28 179.843 141.851 179.727 142.13C180.001 141.731 180.366 141.256 180.819 140.699L181.775 141.187H181.771Z" fill="#8C6B58"/>
<path d="M181.947 141.277L183.682 142.161L183.273 142.962L182.579 142.608L182.194 143.368L182.844 143.698L182.455 144.459L181.806 144.128L181.359 145.009L182.122 145.398L181.713 146.199L179.909 145.277L181.947 141.273V141.277Z" fill="#8C6B58"/>
<path d="M185.091 142.88L183.459 146.083L184.091 146.406L183.682 147.207L182.008 146.354L184.046 142.35L185.088 142.88H185.091Z" fill="#8C6B58"/>
<path d="M187.016 143.864L185.383 147.066L186.016 147.39L185.607 148.191L183.933 147.338L185.971 143.334L187.012 143.864H187.016Z" fill="#8C6B58"/>
<path d="M189.005 147.83C188.799 148.233 188.648 148.511 188.542 148.669C188.438 148.828 188.301 148.951 188.129 149.037C187.957 149.123 187.772 149.161 187.562 149.151C187.356 149.137 187.139 149.075 186.913 148.958C186.699 148.848 186.524 148.718 186.39 148.559C186.256 148.401 186.17 148.226 186.139 148.033C186.108 147.84 186.122 147.655 186.187 147.483C186.253 147.307 186.39 147.015 186.6 146.602L186.947 145.917C187.153 145.515 187.308 145.236 187.411 145.078C187.514 144.92 187.651 144.796 187.823 144.71C187.992 144.624 188.181 144.583 188.39 144.596C188.597 144.61 188.813 144.672 189.04 144.789C189.253 144.899 189.428 145.03 189.562 145.188C189.696 145.346 189.779 145.518 189.813 145.714C189.847 145.91 189.83 146.093 189.765 146.265C189.7 146.44 189.566 146.733 189.353 147.145L189.002 147.83H189.005ZM188.634 145.983C188.731 145.797 188.779 145.673 188.786 145.611C188.792 145.549 188.761 145.501 188.7 145.467C188.645 145.439 188.593 145.439 188.542 145.467C188.49 145.494 188.414 145.611 188.308 145.818L187.356 147.686C187.239 147.919 187.174 148.067 187.167 148.129C187.16 148.191 187.187 148.243 187.256 148.277C187.328 148.312 187.387 148.305 187.438 148.253C187.49 148.202 187.576 148.057 187.696 147.82L188.634 145.979V145.983Z" fill="#8C6B58"/>
<path d="M194.504 147.682L192.002 151.449L190.703 150.785C190.899 150.111 191.15 149.357 191.459 148.525C191.246 148.841 190.793 149.491 190.098 150.475L188.806 149.815L190.38 145.573L191.39 146.089L190.789 147.541L190.208 148.945C190.604 148.267 191.164 147.396 191.896 146.344L192.975 146.894C192.93 147.018 192.745 147.479 192.415 148.274L191.755 149.856C192.308 148.917 192.885 148.019 193.494 147.159L194.504 147.675V147.682Z" fill="#8C6B58"/>
<path d="M177.091 147.479L175.053 151.483L174.142 151.019L175.517 148.315L173.778 150.833L173.132 150.503L174.094 147.668L172.747 150.31L171.836 149.846L173.874 145.842L175.221 146.53C175.139 146.791 175.035 147.094 174.912 147.445L174.541 148.539L175.733 146.791L177.087 147.482L177.091 147.479Z" fill="#8C6B58"/>
<path d="M179.871 148.9L178.51 151.576C178.355 151.879 178.238 152.089 178.156 152.199C178.073 152.312 177.95 152.409 177.788 152.488C177.627 152.567 177.448 152.601 177.256 152.587C177.063 152.574 176.857 152.512 176.644 152.402C176.407 152.281 176.214 152.133 176.073 151.961C175.932 151.789 175.847 151.617 175.822 151.442C175.795 151.27 175.812 151.108 175.867 150.957C175.922 150.809 176.066 150.506 176.297 150.056L177.503 147.685L178.544 148.215L177.015 151.218C176.926 151.394 176.878 151.511 176.874 151.569C176.867 151.628 176.895 151.672 176.953 151.7C177.018 151.734 177.077 151.727 177.122 151.683C177.166 151.638 177.242 151.518 177.345 151.318L178.847 148.366L179.888 148.896L179.871 148.9Z" fill="#8C6B58"/>
<path d="M181.861 151.442L180.895 150.95L181.046 150.654C181.115 150.517 181.149 150.42 181.142 150.372C181.136 150.321 181.105 150.283 181.046 150.252C180.984 150.221 180.922 150.221 180.864 150.255C180.806 150.29 180.751 150.358 180.699 150.465C180.63 150.599 180.599 150.709 180.599 150.795C180.599 150.881 180.658 151.012 180.768 151.191C181.091 151.704 181.266 152.078 181.297 152.316C181.328 152.553 181.242 152.87 181.043 153.262C180.898 153.547 180.758 153.74 180.62 153.843C180.486 153.943 180.297 153.991 180.06 153.984C179.823 153.977 179.575 153.912 179.324 153.781C179.046 153.64 178.836 153.465 178.692 153.258C178.548 153.052 178.489 152.853 178.51 152.656C178.531 152.46 178.62 152.216 178.771 151.913L178.905 151.652L179.871 152.144L179.623 152.632C179.548 152.784 179.51 152.887 179.517 152.942C179.524 153 179.558 153.045 179.63 153.08C179.699 153.114 179.764 153.114 179.826 153.08C179.888 153.042 179.946 152.969 180.001 152.863C180.122 152.625 180.166 152.457 180.139 152.35C180.111 152.244 180.008 152.041 179.836 151.738C179.665 151.435 179.558 151.222 179.513 151.102C179.469 150.981 179.455 150.84 179.469 150.675C179.483 150.51 179.544 150.321 179.654 150.107C179.809 149.801 179.964 149.595 180.115 149.495C180.266 149.392 180.448 149.347 180.665 149.357C180.881 149.368 181.111 149.433 181.359 149.56C181.63 149.698 181.837 149.86 181.984 150.045C182.129 150.231 182.201 150.403 182.194 150.568C182.187 150.733 182.105 150.974 181.943 151.291L181.864 151.449L181.861 151.442Z" fill="#8C6B58"/>
<path d="M184.985 151.507L184.576 152.309L183.957 151.992L182.325 155.195L181.283 154.665L182.916 151.463L182.301 151.15L182.71 150.348L184.981 151.507H184.985Z" fill="#8C6B58"/>
<path d="M186.816 152.443L185.373 156.75L184.311 156.207L184.62 155.46L184.249 155.271L183.82 155.959L182.744 155.412L185.315 151.679L186.816 152.447V152.443ZM184.954 154.734C185.132 154.253 185.366 153.668 185.651 152.973C185.153 153.685 184.802 154.211 184.596 154.552L184.954 154.734Z" fill="#8C6B58"/>
<path d="M187.59 152.839L188.325 153.214C188.816 153.465 189.139 153.654 189.294 153.778C189.449 153.905 189.542 154.074 189.573 154.283C189.603 154.497 189.531 154.772 189.356 155.113C189.198 155.426 189.054 155.615 188.92 155.68C188.789 155.749 188.603 155.735 188.363 155.639C188.542 155.794 188.645 155.935 188.672 156.055C188.7 156.176 188.703 156.279 188.682 156.358C188.662 156.437 188.572 156.64 188.407 156.963L187.871 158.019L186.906 157.527L187.583 156.196C187.693 155.983 187.741 155.842 187.734 155.773C187.727 155.704 187.651 155.635 187.507 155.56L186.586 157.366L185.545 156.836L187.583 152.832L187.59 152.839ZM188.28 154.053L187.827 154.944C187.944 155.002 188.033 155.03 188.098 155.02C188.16 155.013 188.239 154.92 188.328 154.744L188.442 154.524C188.507 154.397 188.528 154.304 188.5 154.239C188.476 154.177 188.401 154.115 188.284 154.053H188.28Z" fill="#8C6B58"/>
<path d="M190.315 154.229L191.092 154.624C191.593 154.882 191.923 155.078 192.074 155.212C192.229 155.35 192.325 155.494 192.363 155.646C192.401 155.797 192.401 155.945 192.356 156.086C192.315 156.227 192.195 156.489 192.002 156.867L191.287 158.271C191.105 158.628 190.964 158.862 190.872 158.965C190.775 159.069 190.669 159.134 190.549 159.162C190.428 159.186 190.301 159.182 190.164 159.148C190.026 159.113 189.834 159.031 189.586 158.904L188.273 158.233L190.311 154.229H190.315ZM191.006 155.443L189.665 158.078C189.817 158.154 189.923 158.171 189.988 158.13C190.054 158.088 190.153 157.933 190.291 157.665L191.081 156.11C191.174 155.928 191.226 155.811 191.243 155.752C191.256 155.694 191.25 155.646 191.222 155.598C191.195 155.553 191.122 155.501 191.009 155.443H191.006Z" fill="#8C6B58"/>
<path d="M190.645 165.939L167.052 153.898C166.245 153.486 165.921 152.495 166.334 151.683C166.746 150.875 167.736 150.551 168.547 150.964L192.14 163.004C192.947 163.417 193.27 164.408 192.858 165.22C192.446 166.028 191.456 166.351 190.645 165.939Z" fill="#F6DC4B"/>
<path d="M196.398 119.491L194.36 123.495L193.363 122.986L194.456 120.839C194.614 120.53 194.7 120.34 194.717 120.268C194.734 120.196 194.717 120.131 194.666 120.065C194.614 120 194.477 119.907 194.243 119.79L194.143 119.738L194.38 119.271C194.917 119.412 195.391 119.387 195.807 119.191L196.394 119.491H196.398Z" fill="#8C6B58"/>
<path d="M198.449 122.246L197.769 123.581C197.614 123.884 197.487 124.097 197.384 124.217C197.281 124.338 197.147 124.434 196.982 124.499C196.817 124.568 196.649 124.589 196.473 124.568C196.301 124.548 196.123 124.489 195.941 124.396C195.7 124.276 195.518 124.145 195.387 124.011C195.257 123.877 195.174 123.725 195.14 123.56C195.106 123.395 195.102 123.237 195.126 123.089C195.154 122.941 195.236 122.724 195.38 122.442L196.092 121.046C196.277 120.677 196.449 120.419 196.607 120.268C196.765 120.117 196.965 120.034 197.209 120.02C197.453 120.007 197.71 120.069 197.979 120.206C198.199 120.32 198.374 120.457 198.508 120.622C198.642 120.788 198.724 120.946 198.752 121.101C198.783 121.255 198.776 121.41 198.735 121.562C198.693 121.716 198.597 121.943 198.442 122.246H198.449ZM197.621 121.4C197.728 121.187 197.786 121.049 197.793 120.984C197.8 120.918 197.765 120.867 197.69 120.829C197.614 120.791 197.552 120.794 197.501 120.839C197.449 120.884 197.37 121.008 197.264 121.214L196.271 123.168C196.154 123.402 196.092 123.546 196.088 123.605C196.088 123.663 196.123 123.712 196.195 123.749C196.271 123.787 196.332 123.784 196.384 123.739C196.435 123.694 196.511 123.574 196.611 123.378L197.621 121.393V121.4Z" fill="#8C6B58"/>
<path d="M201.164 123.629L200.484 124.964C200.329 125.266 200.199 125.48 200.096 125.6C199.992 125.721 199.858 125.817 199.693 125.882C199.529 125.951 199.36 125.972 199.185 125.951C199.013 125.93 198.834 125.872 198.652 125.779C198.412 125.659 198.229 125.528 198.099 125.394C197.968 125.256 197.886 125.108 197.851 124.943C197.817 124.778 197.814 124.62 197.838 124.472C197.865 124.324 197.948 124.107 198.092 123.825L198.803 122.428C198.989 122.06 199.161 121.802 199.319 121.651C199.477 121.5 199.676 121.417 199.92 121.403C200.164 121.389 200.422 121.451 200.69 121.589C200.91 121.703 201.085 121.84 201.219 122.005C201.353 122.17 201.436 122.329 201.463 122.483C201.494 122.638 201.487 122.793 201.446 122.944C201.405 123.099 201.309 123.326 201.154 123.629H201.164ZM200.336 122.783C200.443 122.569 200.501 122.432 200.508 122.366C200.515 122.301 200.48 122.25 200.405 122.212C200.329 122.174 200.267 122.177 200.216 122.222C200.164 122.267 200.085 122.391 199.979 122.597L198.986 124.551C198.869 124.785 198.807 124.929 198.803 124.988C198.803 125.046 198.838 125.094 198.91 125.132C198.986 125.17 199.047 125.167 199.099 125.122C199.15 125.077 199.226 124.957 199.326 124.761L200.336 122.776V122.783Z" fill="#8C6B58"/>
<path d="M203.247 123.846L202.896 124.534C202.804 124.713 202.718 124.84 202.639 124.912C202.56 124.984 202.446 125.026 202.302 125.036C202.158 125.046 201.993 125.005 201.81 124.912C201.601 124.806 201.456 124.692 201.377 124.572C201.298 124.451 201.264 124.338 201.271 124.228C201.278 124.118 201.322 123.98 201.408 123.815L201.776 123.096C201.876 122.9 201.972 122.762 202.061 122.687C202.151 122.611 202.268 122.576 202.412 122.573C202.556 122.573 202.714 122.614 202.886 122.704C203.075 122.8 203.209 122.91 203.292 123.034C203.374 123.158 203.412 123.278 203.405 123.392C203.398 123.505 203.347 123.657 203.247 123.846ZM202.704 123.347C202.759 123.24 202.786 123.175 202.786 123.144C202.786 123.113 202.766 123.086 202.718 123.061C202.673 123.037 202.639 123.037 202.611 123.058C202.584 123.079 202.546 123.137 202.494 123.24L201.979 124.248C201.92 124.365 201.89 124.438 201.89 124.465C201.89 124.493 201.914 124.52 201.962 124.548C202.003 124.568 202.037 124.572 202.065 124.548C202.092 124.527 202.127 124.468 202.178 124.372L202.701 123.347H202.704ZM204.797 123.681L201.116 127.038L200.735 126.846L204.422 123.488L204.797 123.681ZM204.116 126.725L203.766 127.417C203.677 127.596 203.591 127.719 203.512 127.795C203.433 127.867 203.319 127.909 203.175 127.919C203.03 127.929 202.866 127.888 202.683 127.795C202.474 127.688 202.329 127.575 202.254 127.454C202.178 127.334 202.14 127.217 202.147 127.11C202.154 127 202.199 126.866 202.285 126.701L202.652 125.979C202.752 125.783 202.845 125.648 202.934 125.573C203.024 125.5 203.14 125.459 203.285 125.459C203.429 125.459 203.587 125.5 203.759 125.586C203.948 125.683 204.086 125.793 204.168 125.92C204.25 126.047 204.288 126.164 204.281 126.278C204.271 126.391 204.22 126.539 204.123 126.732L204.116 126.725ZM203.573 126.23C203.628 126.123 203.656 126.058 203.659 126.027C203.659 125.996 203.639 125.968 203.591 125.944C203.546 125.92 203.512 125.92 203.484 125.941C203.46 125.961 203.419 126.023 203.367 126.127L202.852 127.135C202.793 127.248 202.766 127.32 202.766 127.348C202.766 127.375 202.79 127.403 202.838 127.427C202.883 127.451 202.917 127.451 202.941 127.43C202.965 127.41 203.003 127.351 203.055 127.251L203.577 126.226L203.573 126.23Z" fill="#8C6B58"/>
<path d="M188.988 139.904C190.672 136.615 192.411 133.354 194.212 130.127C194.446 129.708 193.8 129.329 193.566 129.749C191.769 132.976 190.026 136.237 188.342 139.526C188.122 139.952 188.768 140.331 188.988 139.904Z" fill="#8C6B58"/>
<path d="M193.528 130.74C193.023 130.189 193.205 129.316 193.473 128.621C193.621 128.235 193.786 127.853 194.016 127.509C194.446 126.866 195.102 126.378 195.841 126.151C196.109 127.217 195.807 128.383 195.284 129.353C194.906 130.059 194.195 130.764 193.408 130.912L193.528 130.74Z" fill="#8C6B58"/>
<path d="M194.958 131.407C195.813 131.538 196.631 131.865 197.405 132.26C197.192 132.649 196.759 132.859 196.339 133C195.707 133.213 195.03 133.334 194.36 133.272C193.872 133.223 192.992 133.072 192.775 132.549C192.253 131.29 194.322 131.311 194.958 131.411V131.407Z" fill="#8C6B58"/>
<path d="M193.858 133.705C194.714 133.836 195.532 134.163 196.305 134.558C196.092 134.947 195.659 135.157 195.24 135.298C194.607 135.511 193.93 135.632 193.26 135.57C192.772 135.522 191.892 135.37 191.676 134.847C191.153 133.588 193.222 133.609 193.858 133.709V133.705Z" fill="#8C6B58"/>
<path d="M192.442 136.481C193.298 136.612 194.116 136.939 194.889 137.334C194.676 137.723 194.243 137.933 193.824 138.074C193.191 138.287 192.514 138.408 191.844 138.346C191.356 138.298 190.476 138.146 190.26 137.623C189.737 136.364 191.806 136.385 192.442 136.485V136.481Z" fill="#8C6B58"/>
<path d="M192.205 129.945C191.617 129.305 190.892 128.806 190.136 128.383C189.93 128.775 190.002 129.254 190.116 129.68C190.291 130.327 190.566 130.956 190.992 131.476C191.305 131.858 191.92 132.501 192.473 132.391C193.806 132.126 192.641 130.416 192.205 129.942V129.945Z" fill="#8C6B58"/>
<path d="M190.913 132.136C190.325 131.497 189.6 130.998 188.844 130.575C188.638 130.967 188.71 131.445 188.823 131.875C188.999 132.522 189.274 133.151 189.7 133.671C190.012 134.053 190.628 134.696 191.181 134.586C192.514 134.321 191.349 132.611 190.909 132.136H190.913Z" fill="#8C6B58"/>
<path d="M189.394 134.861C188.806 134.221 188.081 133.722 187.325 133.299C187.122 133.691 187.191 134.169 187.304 134.599C187.48 135.246 187.755 135.876 188.181 136.395C188.493 136.777 189.109 137.42 189.662 137.31C190.995 137.045 189.83 135.336 189.394 134.861Z" fill="#8C6B58"/>
<path opacity="0.16" d="M218.64 76.8649C218.145 77.1986 217.822 77.7249 217.485 78.2169C215.227 81.5297 211.856 84.0168 209.921 87.5326C209.814 87.7287 209.708 87.9454 209.739 88.1655C209.78 88.4648 210.055 88.6644 210.313 88.8226C211.01 89.2561 211.907 89.6517 212.622 89.2388C212.859 89.1012 213.045 88.8914 213.224 88.6816C215.822 85.6405 218.159 82.3725 220.2 78.9324C220.973 77.6252 220.423 75.6678 218.64 76.8718V76.8649Z" fill="white"/>
<path opacity="0.16" d="M187.078 105.975C186.49 106.343 185.892 106.745 185.517 107.327C185.143 107.911 185.04 108.727 185.455 109.284C185.888 109.869 186.727 109.989 187.445 109.865C188.243 109.731 188.981 109.367 189.71 109.009C191.631 108.063 193.552 107.113 195.473 106.164C197.886 104.974 196.618 102.18 194.167 102.552C191.786 102.913 189.085 104.712 187.078 105.968V105.975Z" fill="white"/>
<path opacity="0.55" d="M159.23 141.958C156.096 150.152 152.144 158.033 147.453 165.447C146.508 166.943 145.491 168.543 145.542 170.314C145.59 172.086 147.281 173.899 148.962 173.348C150.57 172.822 150.945 170.768 151.192 169.09C152.237 161.986 155.749 155.608 159.234 149.443C160.509 147.19 163.908 143.138 163.77 140.465C163.712 139.361 163.024 138.446 161.825 138.611C160.361 138.814 159.67 140.802 159.23 141.954V141.958Z" fill="white"/>
<path d="M200.154 87.4604C199.676 87.6014 199.288 88.114 199.422 88.5956C199.508 88.8983 199.766 89.1185 200.023 89.2939C201.023 89.9785 202.213 90.3191 203.36 90.7112C208.354 92.4141 212.873 95.2315 217.43 97.8906C217.99 98.2174 218.774 98.5167 219.217 98.042C219.523 97.7118 219.454 97.1614 219.183 96.8001C218.911 96.4389 218.495 96.2291 218.093 96.0296C214.949 94.4712 211.804 92.9129 208.66 91.3545C207.086 90.5736 205.515 89.7962 203.945 89.0153C202.993 88.544 201.274 87.1301 200.157 87.4604H200.154Z" fill="#684F3E"/>
<path d="M53.1065 264.837C53.6942 272.233 51.8041 287.734 51.8041 287.734C51.8041 287.734 67.8463 298.471 75.2558 298.55C70.6197 295.98 53.8214 301.873 53.8214 301.873C53.8214 301.873 52.5979 312.568 54.2475 321.12C55.2545 326.325 59.5812 330.064 59.3681 332.059C57.9797 345.004 54.6221 353.684 53.6289 366.666C144.735 364.341 181.122 368.091 253.676 366.666C258.505 349.906 265.533 321.464 265.533 321.464L261.478 305.595C261.478 305.595 249.497 304.491 239.263 303.785C250.205 300.077 254.233 297.7 257.762 295.932C257.357 292.265 256.951 288.598 256.546 284.93C244.095 284.256 231.644 283.585 219.193 282.911C231.335 279.836 243.858 278.27 256.384 278.264C250.363 228.132 251.144 177.191 258.69 127.265C258.739 126.945 135.621 124.472 124.328 124.73C111.818 125.016 51.8006 129.938 51.8006 129.938C51.8006 129.938 59.3269 152.333 58.0794 159.468C56.258 169.888 54.8317 180.373 53.8007 190.9C51.3985 215.462 51.1511 240.234 53.1031 264.837H53.1065Z" fill="#EBCFA8"/>
<path d="M54.251 321.12C54.4744 318.622 116.362 316.207 114.873 316.703C113.385 317.198 59.3716 332.059 59.3716 332.059L54.251 321.12Z" fill="#E0BD9D"/>
<path opacity="0.55" d="M150.103 49.8913C150.206 58.519 152.295 67.3703 157.557 74.2023C159.856 77.1882 163.688 79.93 167.138 78.4198C169.499 77.3878 170.716 74.6185 170.685 72.0385C170.654 69.4584 169.626 67.0091 168.599 64.6423C166.592 60.0189 164.502 55.3232 163.99 50.3076C163.643 46.9053 164.021 43.3552 162.791 40.1628C161.399 36.5439 156.667 33.6439 153.477 36.5817C150.302 39.5058 150.054 45.9456 150.099 49.8913H150.103Z" fill="white"/>
<path d="M149.841 21.3938C149.841 21.3938 174.475 16.5605 174.63 16.5227C174.785 16.4848 176.63 21.5452 176.63 21.5452L149.841 27.1078V21.3904V21.3938Z" fill="#E03822"/>
<path opacity="0.21" d="M72.1525 159.258C75.1492 181.02 63.2515 202.795 66.2586 224.554C66.7191 227.874 67.7673 231.496 70.6403 233.212C73.4515 234.895 77.0119 234.186 80.2148 233.508C97.3569 229.882 115.001 228.648 132.483 229.852C137.301 230.182 142.401 230.646 146.717 228.482C151.034 226.319 153.828 220.36 150.927 216.497C149.903 215.135 148.367 214.261 146.827 213.539C136.617 208.743 123.864 208.558 115.97 200.497C114.306 198.802 112.928 196.775 112.262 194.495C110.749 189.324 113.141 183.707 116.702 179.668C132.081 162.21 163.701 168.581 178.988 151.043C180.06 149.815 181.07 148.109 180.355 146.643C179.888 145.683 178.826 145.185 177.829 144.803C170.001 141.806 161.43 141.559 153.048 141.346C134.146 140.864 114.705 141.641 95.965 139.113C90.0196 138.311 84.4694 137.235 78.6855 139.952C69.331 144.342 72.1525 150.768 72.1525 159.258Z" fill="white"/>
<path opacity="0.21" d="M115.386 283.21C132.095 284.091 148.065 277.163 163.928 271.838C180.771 266.186 198.181 262.233 215.815 260.059C219.798 259.567 224.015 259.082 227.207 256.646C232.245 252.804 232.977 245.631 233.294 239.298C234.17 221.575 235.046 203.803 233.802 186.101C233.465 181.326 232.916 176.372 230.39 172.306C227.867 168.24 222.805 165.361 218.258 166.836C214.32 168.113 211.914 172.169 210.921 176.19C208.23 187.085 213.048 199.847 206.766 209.142C202.164 215.947 193.373 218.117 185.847 221.403C177.922 224.86 170.85 229.989 163.227 234.069C148.522 241.94 130.527 242.391 116.375 250.296C103.488 257.496 93.659 282.065 115.386 283.21Z" fill="white"/>
<path opacity="0.21" d="M188.318 355.5C201.886 356.456 215.564 357.715 229.036 355.84C233.703 355.19 238.62 354.003 241.868 350.587C245.119 347.171 245.693 340.88 241.902 338.079C239.194 336.077 235.493 336.497 232.139 336.215C228.785 335.933 224.846 334.003 224.877 330.635C224.891 329.235 225.64 327.928 226.599 326.906C232.386 320.738 243.827 324.106 249.927 318.247C233.799 311.058 215.602 309.541 198.013 311.13C180.428 312.716 163.262 317.27 146.195 321.808C129.634 326.211 113.114 331.172 96.4187 335.038C88.0504 336.979 73.022 334.715 65.9012 339.586C62.6089 341.836 61.2617 344.392 62.1415 348.558C63.8186 356.508 70.8844 354.853 77.3831 354.547C94.9443 353.718 112.502 353.195 130.088 353.291C149.501 353.398 168.946 355.496 188.315 355.496L188.318 355.5Z" fill="white"/>
<path d="M63.609 136.67L51.8041 129.938L56.9831 123.495L64.8599 129.25L69.4272 124.709L76.1115 128.259L84.1189 122.315L88.9611 126.849L95.6386 121.145L100.515 126.247L109.127 121.145L115.032 125.198L124.19 121.145L132.538 125.198L140.889 121.145L148.233 125.198L161.258 120.478L166.437 125.239L175.953 121.314L181.795 125.514L189.978 120.478L197.329 125.81L203.835 121.479L214.021 126.849L219.863 121.145L223.87 126.849L229.716 121.648L235.716 126.612L242.573 121.479L245.745 126.849L251.755 121.648L258.69 127.262L82.782 143.544L64.8599 129.25L63.609 136.67Z" fill="#EBCFA8"/>
</g>
<g opacity="0.8">
<rect x="149.945" y="190.456" width="60.7692" height="6.07692" rx="3.03846" fill="white"/>
<rect x="152.533" y="202.497" width="55.7051" height="6.07692" rx="3.03846" fill="white"/>
<rect x="155.347" y="214.539" width="50.3034" height="6.07692" rx="3.03846" fill="white"/>
<rect x="158.047" y="226.579" width="45.1268" height="6.07692" rx="3.03846" fill="white"/>
<rect x="140.454" y="172" width="14.5624" height="6.07692" rx="3.03846" transform="rotate(77.2359 140.454 172)" fill="white"/>
<rect x="128" y="172.562" width="13.0541" height="6.07692" rx="3.03846" fill="white"/>
<circle cx="142.741" cy="193.456" r="3.60114" fill="#0ABF3D"/>
<circle cx="145.443" cy="205.498" r="3.60114" fill="#D20CB3"/>
<circle cx="148.143" cy="217.539" r="3.60114" fill="#176ACD"/>
<circle cx="150.845" cy="229.581" r="3.60114" fill="#E86100"/>
<ellipse cx="149.156" cy="244.529" rx="6.41453" ry="6.47079" fill="white"/>
<ellipse cx="201.823" cy="244.529" rx="6.41453" ry="6.47079" fill="white"/>
</g>
<defs>
<clipPath id="clip0_710_686">
<rect width="316" height="367" fill="white"/>
</clipPath>
</defs>
</svg>
