<svg width="24" height="25" viewBox="0 0 24 25" fill="none" xmlns="http://www.w3.org/2000/svg">
<path d="M17.4127 7.88418L15.5114 5.99355L16.5963 4.91933C17.1442 4.39297 17.735 4.33925 18.2184 4.82265L18.5836 5.18789C19.067 5.68203 19.0456 6.27285 18.4977 6.8207L17.4127 7.88418ZM4.74771 20.517L2.26626 21.473C2.00845 21.5805 1.7399 21.2797 1.83658 21.0219L2.85708 18.6371L14.5876 6.91738L16.4674 8.808L4.74771 20.517ZM5.82193 21.5053L7.56216 19.7758H21.3229C21.7956 19.7758 22.1823 20.1732 22.1823 20.6459C22.1823 21.1186 21.7956 21.5053 21.3229 21.5053H5.82193Z" fill="white"/>
</svg>
