<svg width="222" height="48" viewBox="0 0 222 48" fill="none" xmlns="http://www.w3.org/2000/svg">
<g filter="url(#filter0_d_1928_113669)">
<path d="M-23 4H187.333C193.533 4 196.633 4 199.176 4.68148C206.078 6.53083 211.469 11.9218 213.319 18.8236C214 21.367 214 24.4669 214 30.6667C214 31.9066 214 32.5266 213.864 33.0353C213.494 34.4156 212.416 35.4938 211.035 35.8637C210.527 36 209.907 36 208.667 36H-23V4Z" fill="#58B368" shape-rendering="crispEdges"/>
<path d="M30.4519 26H28.0898V12.7889H36.5127V14.8306H30.4519V18.6758H35.9908V20.6442H30.4519V26ZM38.8931 26V15.9841H41.0812V17.5405H41.2368C41.3772 17.04 41.6915 16.6281 42.1798 16.3046C42.6742 15.9811 43.2418 15.8193 43.8827 15.8193C44.2916 15.8193 44.606 15.8529 44.8257 15.92V18.0258C44.5938 17.9403 44.2062 17.8976 43.663 17.8976C42.9244 17.8976 42.3232 18.1112 41.8594 18.5385C41.3955 18.9596 41.1636 19.5181 41.1636 20.2139V26H38.8931ZM55.4092 15.9841V26H53.2211V24.407H53.0654C52.5588 25.6033 51.5609 26.2014 50.0717 26.2014C48.9791 26.2014 48.1277 25.8779 47.5173 25.231C46.907 24.5779 46.6018 23.6654 46.6018 22.4935V15.9841H48.8723V21.9259C48.8723 22.6949 49.0341 23.2687 49.3575 23.6471C49.681 24.0194 50.1815 24.2056 50.859 24.2056C51.5914 24.2056 52.153 23.995 52.5436 23.5739C52.9403 23.1527 53.1387 22.5668 53.1387 21.816V15.9841H55.4092ZM58.2198 26V15.9841H60.4812V26H58.2198ZM59.3459 14.3545C58.937 14.3545 58.6013 14.2385 58.3389 14.0066C58.0764 13.7686 57.9452 13.4664 57.9452 13.1002C57.9452 12.734 58.0764 12.4349 58.3389 12.203C58.6013 11.965 58.937 11.8459 59.3459 11.8459C59.761 11.8459 60.0967 11.965 60.353 12.203C60.6155 12.4349 60.7467 12.734 60.7467 13.1002C60.7467 13.4664 60.6155 13.7686 60.353 14.0066C60.0967 14.2385 59.761 14.3545 59.3459 14.3545ZM64.0243 13.5305H66.2856V16.0482H68.428V17.861H66.2856V22.7773C66.2856 23.2717 66.3955 23.6349 66.6152 23.8668C66.835 24.0927 67.1829 24.2056 67.6589 24.2056C67.8665 24.2056 68.1228 24.1903 68.428 24.1598V25.9359C68.0496 26.0092 67.6528 26.0458 67.2378 26.0458C66.0903 26.0458 65.2664 25.8352 64.7659 25.4141C64.2715 24.9929 64.0243 24.2971 64.0243 23.3267V17.861H62.4404V16.0482H64.0243V13.5305ZM70.3414 18.8497C70.3414 17.9464 70.7137 17.2109 71.4584 16.6433C72.203 16.0696 73.1674 15.7827 74.3514 15.7827C75.5416 15.7827 76.4907 16.036 77.1987 16.5426C77.9128 17.0431 78.3096 17.748 78.3889 18.6575H76.2557C76.1703 18.2974 75.9628 18.0166 75.6332 17.8152C75.3097 17.6077 74.8855 17.5039 74.3606 17.5039C73.8357 17.5039 73.4023 17.6168 73.0605 17.8427C72.7188 18.0685 72.5479 18.3615 72.5479 18.7216C72.5479 19.0023 72.6669 19.2343 72.9049 19.4174C73.149 19.6005 73.5244 19.75 74.031 19.866L75.798 20.2688C76.7623 20.4885 77.4703 20.8151 77.922 21.2484C78.3737 21.6818 78.5995 22.2646 78.5995 22.9971C78.5995 23.9553 78.2028 24.7305 77.4093 25.3225C76.6158 25.9084 75.5905 26.2014 74.3331 26.2014C73.0819 26.2014 72.0809 25.9451 71.3302 25.4324C70.5856 24.9197 70.1705 24.2086 70.0851 23.2992H72.3281C72.438 23.6776 72.6669 23.9706 73.0148 24.1781C73.3688 24.3795 73.8265 24.4802 74.3881 24.4802C74.9618 24.4802 75.4287 24.3673 75.7888 24.1415C76.1489 23.9095 76.329 23.6074 76.329 23.2351C76.329 22.6797 75.8682 22.3013 74.9465 22.0999L73.1704 21.6879C72.2061 21.4681 71.4919 21.1294 71.0281 20.6716C70.5703 20.2078 70.3414 19.6005 70.3414 18.8497ZM90.0985 17.5863C89.421 17.5863 88.8625 17.8091 88.4231 18.2546C87.9836 18.7002 87.7395 19.2892 87.6907 20.0216H92.4056C92.3812 19.277 92.1615 18.6849 91.7465 18.2455C91.3314 17.806 90.7821 17.5863 90.0985 17.5863ZM92.424 23.2443H94.5754C94.3618 24.1598 93.8583 24.8831 93.0648 25.4141C92.2775 25.939 91.2979 26.2014 90.126 26.2014C88.655 26.2014 87.4984 25.7437 86.6561 24.8281C85.8199 23.9065 85.4019 22.64 85.4019 21.0287C85.4019 19.4174 85.823 18.1417 86.6653 17.2018C87.5076 16.2557 88.655 15.7827 90.1077 15.7827C91.5359 15.7827 92.6528 16.2313 93.4585 17.1285C94.2703 18.0197 94.6761 19.2556 94.6761 20.8364V21.5688H87.6815V21.6879C87.712 22.524 87.9501 23.1863 88.3956 23.6746C88.8473 24.1567 89.4454 24.3978 90.1901 24.3978C91.3375 24.3978 92.0822 24.0133 92.424 23.2443ZM97.6791 13.5305H99.9404V16.0482H102.083V17.861H99.9404V22.7773C99.9404 23.2717 100.05 23.6349 100.27 23.8668C100.49 24.0927 100.838 24.2056 101.314 24.2056C101.521 24.2056 101.778 24.1903 102.083 24.1598V25.9359C101.704 26.0092 101.308 26.0458 100.893 26.0458C99.7451 26.0458 98.9211 25.8352 98.4207 25.4141C97.9263 24.9929 97.6791 24.2971 97.6791 23.3267V17.861H96.0952V16.0482H97.6791V13.5305ZM109.444 26V12.1115H111.714V26H109.444ZM118.791 17.5863C118.114 17.5863 117.555 17.8091 117.116 18.2546C116.676 18.7002 116.432 19.2892 116.383 20.0216H121.098C121.074 19.277 120.854 18.6849 120.439 18.2455C120.024 17.806 119.475 17.5863 118.791 17.5863ZM121.117 23.2443H123.268C123.054 24.1598 122.551 24.8831 121.757 25.4141C120.97 25.939 119.99 26.2014 118.819 26.2014C117.348 26.2014 116.191 25.7437 115.349 24.8281C114.513 23.9065 114.094 22.64 114.094 21.0287C114.094 19.4174 114.516 18.1417 115.358 17.2018C116.2 16.2557 117.348 15.7827 118.8 15.7827C120.229 15.7827 121.345 16.2313 122.151 17.1285C122.963 18.0197 123.369 19.2556 123.369 20.8364V21.5688H116.374V21.6879C116.405 22.524 116.643 23.1863 117.088 23.6746C117.54 24.1567 118.138 24.3978 118.883 24.3978C120.03 24.3978 120.775 24.0133 121.117 23.2443ZM119.734 14.327H117.519L119.798 11.1501H122.334L119.734 14.327ZM128.12 23.171C128.554 23.7264 129.164 24.0042 129.951 24.0042C130.739 24.0042 131.358 23.7234 131.81 23.1619C132.262 22.6003 132.487 21.8405 132.487 20.8822C132.487 19.924 132.262 19.1641 131.81 18.6025C131.358 18.0349 130.739 17.7511 129.951 17.7511C129.17 17.7511 128.56 18.0319 128.12 18.5934C127.687 19.1549 127.47 19.9178 127.47 20.8822C127.47 21.8466 127.687 22.6095 128.12 23.171ZM129.951 29.8086C128.676 29.8086 127.638 29.5492 126.839 29.0304C126.045 28.5116 125.603 27.8188 125.511 26.9521H127.791C127.864 27.3 128.093 27.5747 128.477 27.7761C128.868 27.9775 129.372 28.0782 129.988 28.0782C130.763 28.0782 131.367 27.9043 131.801 27.5564C132.234 27.2085 132.451 26.7202 132.451 26.0916V24.1964H132.295C132.008 24.7335 131.599 25.1455 131.068 25.4324C130.543 25.7131 129.933 25.8535 129.237 25.8535C127.98 25.8535 126.982 25.4049 126.244 24.5077C125.505 23.6044 125.136 22.3959 125.136 20.8822C125.136 19.3441 125.508 18.1173 126.253 17.2018C126.997 16.2802 128.004 15.8193 129.274 15.8193C129.958 15.8193 130.577 15.978 131.132 16.2954C131.688 16.6128 132.103 17.0431 132.378 17.5863H132.533V15.9841H134.721V26.0366C134.721 27.1963 134.291 28.1149 133.43 28.7924C132.57 29.4698 131.41 29.8086 129.951 29.8086ZM146.229 15.9841V26H144.041V24.407H143.886C143.379 25.6033 142.381 26.2014 140.892 26.2014C139.799 26.2014 138.948 25.8779 138.338 25.231C137.727 24.5779 137.422 23.6654 137.422 22.4935V15.9841H139.693V21.9259C139.693 22.6949 139.854 23.2687 140.178 23.6471C140.501 24.0194 141.002 24.2056 141.679 24.2056C142.412 24.2056 142.973 23.995 143.364 23.5739C143.761 23.1527 143.959 22.5668 143.959 21.816V15.9841H146.229ZM149.013 26V15.9841H151.201V17.6046H151.356C151.57 17.0309 151.921 16.5853 152.409 16.2679C152.898 15.9445 153.474 15.7827 154.14 15.7827C154.817 15.7827 155.394 15.9445 155.87 16.2679C156.346 16.5853 156.691 17.0309 156.905 17.6046H157.06C157.31 17.0492 157.707 16.6067 158.25 16.2771C158.794 15.9475 159.41 15.7827 160.1 15.7827C161.101 15.7827 161.885 16.0787 162.453 16.6708C163.026 17.2628 163.313 18.0776 163.313 19.1152V26H161.052V19.692C161.052 18.4042 160.442 17.7603 159.221 17.7603C158.635 17.7603 158.162 17.9495 157.802 18.3279C157.442 18.7063 157.262 19.1854 157.262 19.7653V26H155.055V19.5272C155.055 18.9779 154.893 18.5476 154.57 18.2363C154.246 17.9189 153.804 17.7603 153.242 17.7603C152.681 17.7603 152.214 17.9647 151.842 18.3737C151.469 18.7826 151.283 19.2953 151.283 19.9117V26H149.013ZM170.207 17.5863C169.53 17.5863 168.971 17.8091 168.532 18.2546C168.092 18.7002 167.848 19.2892 167.799 20.0216H172.514C172.49 19.277 172.27 18.6849 171.855 18.2455C171.44 17.806 170.891 17.5863 170.207 17.5863ZM172.533 23.2443H174.684C174.47 24.1598 173.967 24.8831 173.173 25.4141C172.386 25.939 171.406 26.2014 170.235 26.2014C168.764 26.2014 167.607 25.7437 166.765 24.8281C165.929 23.9065 165.51 22.64 165.51 21.0287C165.51 19.4174 165.932 18.1417 166.774 17.2018C167.616 16.2557 168.764 15.7827 170.216 15.7827C171.645 15.7827 172.761 16.2313 173.567 17.1285C174.379 18.0197 174.785 19.2556 174.785 20.8364V21.5688H167.79V21.6879C167.821 22.524 168.059 23.1863 168.504 23.6746C168.956 24.1567 169.554 24.3978 170.299 24.3978C171.446 24.3978 172.191 24.0133 172.533 23.2443ZM176.836 18.8497C176.836 17.9464 177.208 17.2109 177.953 16.6433C178.697 16.0696 179.661 15.7827 180.846 15.7827C182.036 15.7827 182.985 16.036 183.693 16.5426C184.407 17.0431 184.804 17.748 184.883 18.6575H182.75C182.664 18.2974 182.457 18.0166 182.127 17.8152C181.804 17.6077 181.38 17.5039 180.855 17.5039C180.33 17.5039 179.896 17.6168 179.555 17.8427C179.213 18.0685 179.042 18.3615 179.042 18.7216C179.042 19.0023 179.161 19.2343 179.399 19.4174C179.643 19.6005 180.019 19.75 180.525 19.866L182.292 20.2688C183.256 20.4885 183.964 20.8151 184.416 21.2484C184.868 21.6818 185.094 22.2646 185.094 22.9971C185.094 23.9553 184.697 24.7305 183.903 25.3225C183.11 25.9084 182.085 26.2014 180.827 26.2014C179.576 26.2014 178.575 25.9451 177.824 25.4324C177.08 24.9197 176.665 24.2086 176.579 23.2992H178.822C178.932 23.6776 179.161 23.9706 179.509 24.1781C179.863 24.3795 180.321 24.4802 180.882 24.4802C181.456 24.4802 181.923 24.3673 182.283 24.1415C182.643 23.9095 182.823 23.6074 182.823 23.2351C182.823 22.6797 182.362 22.3013 181.441 22.0999L179.665 21.6879C178.7 21.4681 177.986 21.1294 177.522 20.6716C177.064 20.2078 176.836 19.6005 176.836 18.8497Z" fill="white"/>
</g>
<defs>
<filter id="filter0_d_1928_113669" x="-31" y="0" width="253" height="48" filterUnits="userSpaceOnUse" color-interpolation-filters="sRGB">
<feFlood flood-opacity="0" result="BackgroundImageFix"/>
<feColorMatrix in="SourceAlpha" type="matrix" values="0 0 0 0 0 0 0 0 0 0 0 0 0 0 0 0 0 0 127 0" result="hardAlpha"/>
<feMorphology radius="6" operator="dilate" in="SourceAlpha" result="effect1_dropShadow_1928_113669"/>
<feOffset dy="4"/>
<feGaussianBlur stdDeviation="1"/>
<feComposite in2="hardAlpha" operator="out"/>
<feColorMatrix type="matrix" values="0 0 0 0 0.376645 0 0 0 0 0.306931 0 0 0 0 0.408333 0 0 0 0.5 0"/>
<feBlend mode="normal" in2="BackgroundImageFix" result="effect1_dropShadow_1928_113669"/>
<feBlend mode="normal" in="SourceGraphic" in2="effect1_dropShadow_1928_113669" result="shape"/>
</filter>
</defs>
</svg>
