<svg width="225" height="48" viewBox="0 0 225 48" fill="none" xmlns="http://www.w3.org/2000/svg">
<g filter="url(#filter0_d_253_36668)">
<path d="M-20 4H190.333C196.533 4 199.633 4 202.176 4.68148C209.078 6.53083 214.469 11.9218 216.319 18.8236C217 21.367 217 24.4669 217 30.6667C217 31.9066 217 32.5266 216.864 33.0353C216.494 34.4156 215.416 35.4938 214.035 35.8637C213.527 36 212.907 36 211.667 36H-20V4Z" fill="#58B368" shape-rendering="crispEdges"/>
<path d="M32.042 25.5H30.1523V14.9312H36.8906V16.5645H32.042V19.6406H36.4731V21.2153H32.042V25.5ZM38.7949 25.5V17.4873H40.5454V18.7324H40.6699C40.7822 18.332 41.0337 18.0024 41.4243 17.7437C41.8198 17.4849 42.2739 17.3555 42.7866 17.3555C43.1138 17.3555 43.3652 17.3823 43.541 17.436V19.1206C43.3555 19.0522 43.0454 19.0181 42.6108 19.0181C42.02 19.0181 41.5391 19.189 41.168 19.5308C40.7969 19.8677 40.6113 20.3145 40.6113 20.8711V25.5H38.7949ZM52.0078 17.4873V25.5H50.2573V24.2256H50.1328C49.7275 25.1826 48.9292 25.6611 47.7378 25.6611C46.8638 25.6611 46.1826 25.4023 45.6943 24.8848C45.2061 24.3623 44.9619 23.6323 44.9619 22.6948V17.4873H46.7783V22.2407C46.7783 22.856 46.9077 23.3149 47.1665 23.6177C47.4253 23.9155 47.8257 24.0645 48.3677 24.0645C48.9536 24.0645 49.4028 23.896 49.7153 23.5591C50.0327 23.2222 50.1914 22.7534 50.1914 22.1528V17.4873H52.0078ZM54.2563 25.5V17.4873H56.0654V25.5H54.2563ZM55.1572 16.1836C54.8301 16.1836 54.5615 16.0908 54.3516 15.9053C54.1416 15.7148 54.0366 15.4731 54.0366 15.1802C54.0366 14.8872 54.1416 14.6479 54.3516 14.4624C54.5615 14.272 54.8301 14.1768 55.1572 14.1768C55.4893 14.1768 55.7578 14.272 55.9629 14.4624C56.1729 14.6479 56.2778 14.8872 56.2778 15.1802C56.2778 15.4731 56.1729 15.7148 55.9629 15.9053C55.7578 16.0908 55.4893 16.1836 55.1572 16.1836ZM58.8999 15.5244H60.709V17.5386H62.4229V18.9888H60.709V22.9219C60.709 23.3174 60.7969 23.6079 60.9727 23.7935C61.1484 23.9741 61.4268 24.0645 61.8076 24.0645C61.9736 24.0645 62.1787 24.0522 62.4229 24.0278V25.4487C62.1201 25.5073 61.8027 25.5366 61.4707 25.5366C60.5527 25.5366 59.8936 25.3682 59.4932 25.0312C59.0977 24.6943 58.8999 24.1377 58.8999 23.3613V18.9888H57.6328V17.5386H58.8999V15.5244ZM63.9536 19.7798C63.9536 19.0571 64.2515 18.4688 64.8472 18.0146C65.4429 17.5557 66.2144 17.3262 67.1616 17.3262C68.1138 17.3262 68.873 17.5288 69.4395 17.9341C70.0107 18.3345 70.3281 18.8984 70.3916 19.626H68.6851C68.6167 19.3379 68.4507 19.1133 68.187 18.9521C67.9282 18.7861 67.5889 18.7031 67.1689 18.7031C66.749 18.7031 66.4023 18.7935 66.1289 18.9741C65.8555 19.1548 65.7188 19.3892 65.7188 19.6772C65.7188 19.9019 65.814 20.0874 66.0044 20.2339C66.1997 20.3804 66.5 20.5 66.9053 20.5928L68.3188 20.915C69.0903 21.0908 69.6567 21.3521 70.0181 21.6987C70.3794 22.0454 70.5601 22.5117 70.5601 23.0977C70.5601 23.8643 70.2427 24.4844 69.6079 24.958C68.9731 25.4268 68.1528 25.6611 67.147 25.6611C66.146 25.6611 65.3452 25.4561 64.7446 25.0459C64.1489 24.6357 63.8169 24.0669 63.7485 23.3394H65.543C65.6309 23.6421 65.814 23.8765 66.0923 24.0425C66.3755 24.2036 66.7417 24.2842 67.1909 24.2842C67.6499 24.2842 68.0234 24.1938 68.3115 24.0132C68.5996 23.8276 68.7437 23.5859 68.7437 23.2881C68.7437 22.8438 68.375 22.541 67.6377 22.3799L66.2168 22.0503C65.4453 21.8745 64.874 21.6035 64.5029 21.2373C64.1367 20.8662 63.9536 20.3804 63.9536 19.7798ZM79.1367 24.2036C79.6836 24.2036 80.1401 24.0474 80.5063 23.7349C80.8726 23.4175 81.0557 23.0269 81.0557 22.563V21.9258L79.2466 22.043C78.2505 22.1064 77.7524 22.4678 77.7524 23.127C77.7524 23.459 77.8794 23.7227 78.1333 23.918C78.3921 24.1084 78.7266 24.2036 79.1367 24.2036ZM78.6021 25.6318C77.8208 25.6318 77.1836 25.4121 76.6904 24.9727C76.1973 24.5332 75.9507 23.9521 75.9507 23.2295C75.9507 22.5068 76.2119 21.9404 76.7344 21.5303C77.2617 21.1201 78.0137 20.8857 78.9902 20.8271L81.0557 20.7026V20.0288C81.0557 19.6333 80.9263 19.3306 80.6675 19.1206C80.4087 18.9106 80.0352 18.8057 79.5469 18.8057C79.127 18.8057 78.7803 18.8789 78.5068 19.0254C78.2334 19.167 78.0552 19.3721 77.9722 19.6406H76.2583C76.3315 18.9326 76.6733 18.3711 77.2837 17.9561C77.8989 17.5361 78.6826 17.3262 79.6348 17.3262C80.6602 17.3262 81.4512 17.563 82.0078 18.0366C82.5693 18.5103 82.8501 19.1743 82.8501 20.0288V25.5H81.0996V24.4014H80.9751C80.7505 24.7871 80.4282 25.0898 80.0083 25.3096C79.5933 25.5244 79.1245 25.6318 78.6021 25.6318ZM85.04 25.5V17.4873H86.7905V18.769H86.915C87.1104 18.3101 87.4082 17.9561 87.8086 17.707C88.2139 17.4531 88.7095 17.3262 89.2954 17.3262C90.1841 17.3262 90.8652 17.585 91.3389 18.1025C91.8174 18.6201 92.0566 19.3574 92.0566 20.3145V25.5H90.2402V20.7466C90.2402 19.521 89.7007 18.9082 88.6216 18.9082C88.0796 18.9082 87.6499 19.0815 87.3325 19.4282C87.0151 19.7749 86.8564 20.2437 86.8564 20.8345V25.5H85.04ZM97.1104 25.6318C96.0947 25.6318 95.2915 25.2607 94.7007 24.5186C94.1099 23.7715 93.8145 22.7607 93.8145 21.4863C93.8145 20.2217 94.1099 19.2183 94.7007 18.4761C95.2964 17.729 96.0996 17.3555 97.1104 17.3555C97.6572 17.3555 98.1455 17.48 98.5752 17.729C99.0049 17.978 99.3271 18.3223 99.542 18.7617H99.6665V14.3892H101.483V25.5H99.7251V24.2329H99.6006C99.3711 24.6724 99.0366 25.0166 98.5972 25.2656C98.1626 25.5098 97.667 25.6318 97.1104 25.6318ZM99.1465 19.5967C98.7852 19.1328 98.2944 18.9009 97.6743 18.9009C97.0542 18.9009 96.5659 19.1328 96.2095 19.5967C95.853 20.0557 95.6748 20.688 95.6748 21.4937C95.6748 22.3042 95.8506 22.939 96.2021 23.3979C96.5586 23.8569 97.0493 24.0864 97.6743 24.0864C98.2993 24.0864 98.79 23.8569 99.1465 23.3979C99.5078 22.9341 99.6885 22.2993 99.6885 21.4937C99.6885 20.6929 99.5078 20.0605 99.1465 19.5967ZM113.048 25.5H110.873L107.181 14.9312H109.269L111.927 23.2954H112.052L114.688 14.9312H116.703L113.048 25.5ZM120.863 18.769C120.321 18.769 119.874 18.9473 119.522 19.3037C119.171 19.6602 118.976 20.1313 118.937 20.7173H122.708C122.689 20.1216 122.513 19.6479 122.181 19.2964C121.849 18.9448 121.41 18.769 120.863 18.769ZM122.723 23.2954H124.444C124.273 24.0278 123.871 24.6064 123.236 25.0312C122.606 25.4512 121.822 25.6611 120.885 25.6611C119.708 25.6611 118.783 25.2949 118.109 24.5625C117.44 23.8252 117.105 22.812 117.105 21.5229C117.105 20.2339 117.442 19.2134 118.116 18.4614C118.79 17.7046 119.708 17.3262 120.87 17.3262C122.013 17.3262 122.906 17.6851 123.551 18.4028C124.2 19.1157 124.525 20.1045 124.525 21.3691V21.9551H118.929V22.0503C118.954 22.7192 119.144 23.249 119.5 23.6396C119.862 24.0254 120.34 24.2183 120.936 24.2183C121.854 24.2183 122.45 23.9106 122.723 23.2954ZM128.326 23.2368C128.673 23.6812 129.161 23.9033 129.791 23.9033C130.421 23.9033 130.917 23.6787 131.278 23.2295C131.639 22.7803 131.82 22.1724 131.82 21.4058C131.82 20.6392 131.639 20.0312 131.278 19.582C130.917 19.1279 130.421 18.9009 129.791 18.9009C129.166 18.9009 128.678 19.1255 128.326 19.5747C127.979 20.0239 127.806 20.6343 127.806 21.4058C127.806 22.1772 127.979 22.7876 128.326 23.2368ZM129.791 28.5469C128.771 28.5469 127.94 28.3394 127.301 27.9243C126.666 27.5093 126.312 26.9551 126.239 26.2617H128.062C128.121 26.54 128.304 26.7598 128.612 26.9209C128.924 27.082 129.327 27.1626 129.82 27.1626C130.44 27.1626 130.924 27.0234 131.271 26.7451C131.617 26.4668 131.791 26.0762 131.791 25.5732V24.0571H131.666C131.437 24.4868 131.109 24.8164 130.685 25.0459C130.265 25.2705 129.776 25.3828 129.22 25.3828C128.214 25.3828 127.416 25.0239 126.825 24.3062C126.234 23.5835 125.938 22.6167 125.938 21.4058C125.938 20.1753 126.236 19.1938 126.832 18.4614C127.428 17.7241 128.233 17.3555 129.249 17.3555C129.796 17.3555 130.292 17.4824 130.736 17.7363C131.18 17.9902 131.512 18.3345 131.732 18.769H131.856V17.4873H133.607V25.5293C133.607 26.457 133.263 27.1919 132.574 27.7339C131.886 28.2759 130.958 28.5469 129.791 28.5469ZM139.203 18.769C138.661 18.769 138.214 18.9473 137.862 19.3037C137.511 19.6602 137.315 20.1313 137.276 20.7173H141.048C141.029 20.1216 140.853 19.6479 140.521 19.2964C140.189 18.9448 139.75 18.769 139.203 18.769ZM141.063 23.2954H142.784C142.613 24.0278 142.21 24.6064 141.576 25.0312C140.946 25.4512 140.162 25.6611 139.225 25.6611C138.048 25.6611 137.123 25.2949 136.449 24.5625C135.78 23.8252 135.445 22.812 135.445 21.5229C135.445 20.2339 135.782 19.2134 136.456 18.4614C137.13 17.7046 138.048 17.3262 139.21 17.3262C140.353 17.3262 141.246 17.6851 141.891 18.4028C142.54 19.1157 142.865 20.1045 142.865 21.3691V21.9551H137.269V22.0503C137.293 22.7192 137.484 23.249 137.84 23.6396C138.202 24.0254 138.68 24.2183 139.276 24.2183C140.194 24.2183 140.79 23.9106 141.063 23.2954ZM145.267 15.5244H147.076V17.5386H148.79V18.9888H147.076V22.9219C147.076 23.3174 147.164 23.6079 147.34 23.7935C147.516 23.9741 147.794 24.0645 148.175 24.0645C148.341 24.0645 148.546 24.0522 148.79 24.0278V25.4487C148.487 25.5073 148.17 25.5366 147.838 25.5366C146.92 25.5366 146.261 25.3682 145.86 25.0312C145.465 24.6943 145.267 24.1377 145.267 23.3613V18.9888H144V17.5386H145.267V15.5244ZM153.346 24.2036C153.893 24.2036 154.349 24.0474 154.715 23.7349C155.082 23.4175 155.265 23.0269 155.265 22.563V21.9258L153.456 22.043C152.459 22.1064 151.961 22.4678 151.961 23.127C151.961 23.459 152.088 23.7227 152.342 23.918C152.601 24.1084 152.936 24.2036 153.346 24.2036ZM152.811 25.6318C152.03 25.6318 151.393 25.4121 150.899 24.9727C150.406 24.5332 150.16 23.9521 150.16 23.2295C150.16 22.5068 150.421 21.9404 150.943 21.5303C151.471 21.1201 152.223 20.8857 153.199 20.8271L155.265 20.7026V20.0288C155.265 19.6333 155.135 19.3306 154.876 19.1206C154.618 18.9106 154.244 18.8057 153.756 18.8057C153.336 18.8057 152.989 18.8789 152.716 19.0254C152.442 19.167 152.264 19.3721 152.181 19.6406H150.467C150.541 18.9326 150.882 18.3711 151.493 17.9561C152.108 17.5361 152.892 17.3262 153.844 17.3262C154.869 17.3262 155.66 17.563 156.217 18.0366C156.778 18.5103 157.059 19.1743 157.059 20.0288V25.5H155.309V24.4014H155.184C154.959 24.7871 154.637 25.0898 154.217 25.3096C153.802 25.5244 153.333 25.6318 152.811 25.6318ZM163.702 25.6318C163.141 25.6318 162.64 25.5098 162.201 25.2656C161.761 25.0166 161.427 24.6724 161.197 24.2329H161.073V25.5H159.322V14.3892H161.139V18.7617H161.263C161.473 18.3271 161.795 17.9854 162.23 17.7363C162.665 17.4824 163.155 17.3555 163.702 17.3555C164.718 17.3555 165.519 17.7266 166.104 18.4688C166.695 19.2061 166.991 20.2144 166.991 21.4937C166.991 22.7681 166.695 23.7764 166.104 24.5186C165.514 25.2607 164.713 25.6318 163.702 25.6318ZM164.588 19.5967C164.237 19.1328 163.751 18.9009 163.131 18.9009C162.511 18.9009 162.018 19.1353 161.651 19.604C161.29 20.0679 161.109 20.6978 161.109 21.4937C161.109 22.2944 161.29 22.9268 161.651 23.3906C162.018 23.8545 162.511 24.0864 163.131 24.0864C163.751 24.0864 164.237 23.8569 164.588 23.3979C164.945 22.9341 165.123 22.2993 165.123 21.4937C165.123 20.688 164.945 20.0557 164.588 19.5967ZM168.888 25.5V14.3892H170.704V25.5H168.888ZM176.366 18.769C175.824 18.769 175.377 18.9473 175.025 19.3037C174.674 19.6602 174.479 20.1313 174.439 20.7173H178.211C178.192 20.1216 178.016 19.6479 177.684 19.2964C177.352 18.9448 176.913 18.769 176.366 18.769ZM178.226 23.2954H179.947C179.776 24.0278 179.374 24.6064 178.739 25.0312C178.109 25.4512 177.325 25.6611 176.388 25.6611C175.211 25.6611 174.286 25.2949 173.612 24.5625C172.943 23.8252 172.608 22.812 172.608 21.5229C172.608 20.2339 172.945 19.2134 173.619 18.4614C174.293 17.7046 175.211 17.3262 176.373 17.3262C177.516 17.3262 178.409 17.6851 179.054 18.4028C179.703 19.1157 180.028 20.1045 180.028 21.3691V21.9551H174.432V22.0503C174.457 22.7192 174.647 23.249 175.003 23.6396C175.365 24.0254 175.843 24.2183 176.439 24.2183C177.357 24.2183 177.953 23.9106 178.226 23.2954ZM181.668 19.7798C181.668 19.0571 181.966 18.4688 182.562 18.0146C183.158 17.5557 183.929 17.3262 184.876 17.3262C185.829 17.3262 186.588 17.5288 187.154 17.9341C187.726 18.3345 188.043 18.8984 188.106 19.626H186.4C186.332 19.3379 186.166 19.1133 185.902 18.9521C185.643 18.7861 185.304 18.7031 184.884 18.7031C184.464 18.7031 184.117 18.7935 183.844 18.9741C183.57 19.1548 183.434 19.3892 183.434 19.6772C183.434 19.9019 183.529 20.0874 183.719 20.2339C183.915 20.3804 184.215 20.5 184.62 20.5928L186.034 20.915C186.805 21.0908 187.372 21.3521 187.733 21.6987C188.094 22.0454 188.275 22.5117 188.275 23.0977C188.275 23.8643 187.958 24.4844 187.323 24.958C186.688 25.4268 185.868 25.6611 184.862 25.6611C183.861 25.6611 183.06 25.4561 182.459 25.0459C181.864 24.6357 181.532 24.0669 181.463 23.3394H183.258C183.346 23.6421 183.529 23.8765 183.807 24.0425C184.09 24.2036 184.457 24.2842 184.906 24.2842C185.365 24.2842 185.738 24.1938 186.026 24.0132C186.314 23.8276 186.458 23.5859 186.458 23.2881C186.458 22.8438 186.09 22.541 185.353 22.3799L183.932 22.0503C183.16 21.8745 182.589 21.6035 182.218 21.2373C181.852 20.8662 181.668 20.3804 181.668 19.7798Z" fill="white"/>
</g>
<defs>
<filter id="filter0_d_253_36668" x="-28" y="0" width="253" height="48" filterUnits="userSpaceOnUse" color-interpolation-filters="sRGB">
<feFlood flood-opacity="0" result="BackgroundImageFix"/>
<feColorMatrix in="SourceAlpha" type="matrix" values="0 0 0 0 0 0 0 0 0 0 0 0 0 0 0 0 0 0 127 0" result="hardAlpha"/>
<feMorphology radius="6" operator="dilate" in="SourceAlpha" result="effect1_dropShadow_253_36668"/>
<feOffset dy="4"/>
<feGaussianBlur stdDeviation="1"/>
<feComposite in2="hardAlpha" operator="out"/>
<feColorMatrix type="matrix" values="0 0 0 0 0.376645 0 0 0 0 0.306931 0 0 0 0 0.408333 0 0 0 0.5 0"/>
<feBlend mode="normal" in2="BackgroundImageFix" result="effect1_dropShadow_253_36668"/>
<feBlend mode="normal" in="SourceGraphic" in2="effect1_dropShadow_253_36668" result="shape"/>
</filter>
</defs>
</svg>
