<svg width="222" height="48" viewBox="0 0 222 48" fill="none" xmlns="http://www.w3.org/2000/svg">
<g filter="url(#filter0_d_386_38825)">
<path d="M-23 4H187.333C193.533 4 196.633 4 199.176 4.68148C206.078 6.53083 211.469 11.9218 213.319 18.8236C214 21.367 214 24.4669 214 30.6667C214 31.9066 214 32.5266 213.864 33.0353C213.494 34.4156 212.416 35.4938 211.035 35.8637C210.527 36 209.907 36 208.667 36H-23V4Z" fill="#58B368" shape-rendering="crispEdges"/>
<path d="M33.4365 12.4594C29.6005 12.4594 27.1835 15.1235 27.1835 19.3899C27.1835 23.6562 29.5638 26.3296 33.4365 26.3296C37.2909 26.3296 39.6804 23.6471 39.6804 19.3899C39.6804 15.1235 37.2817 12.4594 33.4365 12.4594ZM33.4365 14.5559C35.7803 14.5559 37.2726 16.4327 37.2726 19.3899C37.2726 22.3379 35.7894 24.233 33.4365 24.233C31.0562 24.233 29.6005 22.3379 29.6005 19.3899C29.6005 16.4327 31.0928 14.5559 33.4365 14.5559ZM47.1237 26C49.3484 26 50.7034 24.8464 50.7034 23.1436C50.7034 21.9167 49.8336 21.0012 48.5153 20.8547V20.6991C49.5315 20.5251 50.2548 19.6005 50.2548 18.5476C50.2548 16.9912 49.0737 15.9841 47.0596 15.9841H42.3263V26H47.1237ZM44.5693 17.5771H46.5377C47.5448 17.5771 48.03 18.0807 48.03 18.8497C48.03 19.6829 47.4807 20.1406 46.3546 20.1406H44.5693V17.5771ZM44.5693 21.6787H46.5194C47.7645 21.6787 48.4054 22.1365 48.4054 23.0337C48.4054 23.8943 47.8286 24.407 46.73 24.407H44.5693V21.6787ZM57.4417 26.2014C60.4354 26.2014 62.2573 24.2422 62.2573 20.9921C62.2573 17.7511 60.4263 15.7827 57.4417 15.7827C54.4662 15.7827 52.626 17.7603 52.626 20.9921C52.626 24.2422 54.4387 26.2014 57.4417 26.2014ZM57.4417 24.2971C55.8578 24.2971 54.9514 23.0886 54.9514 20.9921C54.9514 18.9047 55.8578 17.687 57.4417 17.687C59.0164 17.687 59.9227 18.9047 59.9227 20.9921C59.9227 23.0886 59.0255 24.2971 57.4417 24.2971ZM77.922 24.1873V15.9841H75.6515V24.1873H72.4563V15.9841H70.1858V24.1873H66.9906V15.9841H64.7201V26H75.6973H77.3818V28.6093H79.5059V24.1873H77.922ZM83.6807 26L87.947 19.3258H88.1027V26H90.3457V15.9841H88.1027L83.8363 22.6125H83.6807V15.9841H81.4376V26H83.6807ZM100.545 26L104.811 19.3258H104.967V26H107.21V15.9841H104.967L100.7 22.6125H100.545V15.9841H98.3016V26H100.545ZM120 24.3063C118.15 24.2605 116.978 23.0337 116.978 20.9921C116.978 18.9596 118.159 17.7236 120 17.6779V24.3063ZM125.209 20.9921C125.209 23.0245 124.028 24.2605 122.197 24.3063V17.6779C124.037 17.7236 125.209 18.9504 125.209 20.9921ZM119.981 26.1373V29.3325H122.215V26.1373C125.41 26.0732 127.516 24.1049 127.516 20.9921C127.516 17.8518 125.429 15.92 122.215 15.8468V12.7065H119.981V15.8468C116.777 15.9109 114.68 17.8793 114.68 20.9921C114.68 24.1232 116.768 26.0641 119.981 26.1373ZM135.445 15.8193C134.071 15.8193 132.909 16.506 132.332 17.6412H132.176V15.9841H129.988V29.3325H132.259V24.4802H132.414C132.927 25.5422 134.035 26.1648 135.472 26.1648C137.999 26.1648 139.574 24.1873 139.574 20.9921C139.574 17.7786 137.981 15.8193 135.445 15.8193ZM134.73 24.233C133.183 24.233 132.222 22.9971 132.213 20.9921C132.222 18.9962 133.192 17.7511 134.74 17.7511C136.296 17.7511 137.239 18.9688 137.239 20.9921C137.239 23.0154 136.305 24.233 134.73 24.233ZM142.732 29.6346C144.975 29.6346 146.046 28.8107 146.898 26.3204L150.514 15.9841H148.115L145.781 23.8027H145.625L143.281 15.9841H140.791L144.371 26.0458L144.252 26.4852C143.959 27.4099 143.419 27.7761 142.458 27.7761C142.302 27.7761 141.963 27.767 141.835 27.7395V29.598C141.981 29.6255 142.595 29.6346 142.732 29.6346ZM155.44 21.697L158.772 26H161.528L157.289 20.6075L161.336 15.9841H158.717L155.421 19.9941H154.918V15.9841H152.647V26H154.918V21.697H155.44ZM170.766 15.9841H162.324V17.7969H165.41V26H167.68V17.7969H170.766V15.9841ZM182.255 26H184.517V15.9841H182.255V26ZM176.9 20.7906C178.017 20.7906 178.74 21.459 178.74 22.4844C178.74 23.5006 178.026 24.1873 176.9 24.1873H175.188V20.7906H176.9ZM172.917 26H177.174C179.509 26 181.001 24.6359 181.001 22.4935C181.001 20.3512 179.509 18.9871 177.174 18.9871H175.188V15.9841H172.917V26Z" fill="white"/>
</g>
<defs>
<filter id="filter0_d_386_38825" x="-31" y="0" width="253" height="48" filterUnits="userSpaceOnUse" color-interpolation-filters="sRGB">
<feFlood flood-opacity="0" result="BackgroundImageFix"/>
<feColorMatrix in="SourceAlpha" type="matrix" values="0 0 0 0 0 0 0 0 0 0 0 0 0 0 0 0 0 0 127 0" result="hardAlpha"/>
<feMorphology radius="6" operator="dilate" in="SourceAlpha" result="effect1_dropShadow_386_38825"/>
<feOffset dy="4"/>
<feGaussianBlur stdDeviation="1"/>
<feComposite in2="hardAlpha" operator="out"/>
<feColorMatrix type="matrix" values="0 0 0 0 0.376645 0 0 0 0 0.306931 0 0 0 0 0.408333 0 0 0 0.5 0"/>
<feBlend mode="normal" in2="BackgroundImageFix" result="effect1_dropShadow_386_38825"/>
<feBlend mode="normal" in="SourceGraphic" in2="effect1_dropShadow_386_38825" result="shape"/>
</filter>
</defs>
</svg>
