<svg width="245" height="48" viewBox="0 0 245 48" fill="none" xmlns="http://www.w3.org/2000/svg">
<g filter="url(#filter0_d_1928_114433)">
<path d="M0 4H210.333C216.533 4 219.633 4 222.176 4.68148C229.078 6.53083 234.469 11.9218 236.319 18.8236C237 21.367 237 24.4669 237 30.6667C237 31.9066 237 32.5266 236.864 33.0353C236.494 34.4156 235.416 35.4938 234.035 35.8637C233.527 36 232.907 36 231.667 36H0V4Z" fill="#58B368" shape-rendering="crispEdges"/>
<path d="M21.7747 26H19.4126V12.7889H27.8354V14.8306H21.7747V18.6758H27.3136V20.6442H21.7747V26ZM30.2158 26V15.9841H32.4039V17.5405H32.5596C32.7 17.04 33.0143 16.6281 33.5026 16.3046C33.9969 15.9811 34.5646 15.8193 35.2054 15.8193C35.6144 15.8193 35.9287 15.8529 36.1484 15.92V18.0258C35.9165 17.9403 35.5289 17.8976 34.9857 17.8976C34.2472 17.8976 33.646 18.1112 33.1821 18.5385C32.7183 18.9596 32.4863 19.5181 32.4863 20.2139V26H30.2158ZM46.7319 15.9841V26H44.5438V24.407H44.3882C43.8816 25.6033 42.8837 26.2014 41.3944 26.2014C40.3019 26.2014 39.4504 25.8779 38.8401 25.231C38.2297 24.5779 37.9246 23.6654 37.9246 22.4935V15.9841H40.1951V21.9259C40.1951 22.6949 40.3568 23.2687 40.6803 23.6471C41.0038 24.0194 41.5043 24.2056 42.1818 24.2056C42.9142 24.2056 43.4757 23.995 43.8663 23.5739C44.2631 23.1527 44.4614 22.5668 44.4614 21.816V15.9841H46.7319ZM41.2205 14.2629C40.9702 14.5071 40.6589 14.6292 40.2866 14.6292C39.9143 14.6292 39.603 14.5071 39.3528 14.2629C39.1025 14.0127 38.9774 13.7045 38.9774 13.3383C38.9774 12.972 39.1025 12.6669 39.3528 12.4227C39.603 12.1725 39.9143 12.0474 40.2866 12.0474C40.6589 12.0474 40.9702 12.1725 41.2205 12.4227C41.4707 12.6669 41.5958 12.972 41.5958 13.3383C41.5958 13.7045 41.4707 14.0127 41.2205 14.2629ZM45.2946 14.2629C45.0443 14.5071 44.733 14.6292 44.3607 14.6292C43.9884 14.6292 43.6771 14.5071 43.4269 14.2629C43.1766 14.0127 43.0515 13.7045 43.0515 13.3383C43.0515 12.972 43.1766 12.6669 43.4269 12.4227C43.6771 12.1725 43.9884 12.0474 44.3607 12.0474C44.733 12.0474 45.0443 12.1725 45.2946 12.4227C45.5448 12.6669 45.6699 12.972 45.6699 13.3383C45.6699 13.7045 45.5448 14.0127 45.2946 14.2629ZM58.1669 19.3533H56.0062C55.8964 18.8467 55.6522 18.4438 55.2738 18.1448C54.8954 17.8396 54.4041 17.687 53.7998 17.687C53.0186 17.687 52.4082 17.9739 51.9688 18.5476C51.5354 19.1213 51.3187 19.927 51.3187 20.9646C51.3187 22.0144 51.5385 22.8323 51.9779 23.4182C52.4174 24.0042 53.0247 24.2971 53.7998 24.2971C54.3918 24.2971 54.8771 24.1598 55.2555 23.8851C55.64 23.6105 55.8903 23.2137 56.0062 22.6949H58.1669C58.0387 23.7631 57.5901 24.6145 56.821 25.2493C56.0581 25.884 55.0541 26.2014 53.809 26.2014C52.3014 26.2014 51.1265 25.7406 50.2842 24.819C49.4419 23.8973 49.0208 22.6125 49.0208 20.9646C49.0208 19.335 49.4419 18.0654 50.2842 17.156C51.1265 16.2405 52.2983 15.7827 53.7998 15.7827C55.0571 15.7827 56.0673 16.1093 56.8302 16.7623C57.5992 17.4093 58.0448 18.2729 58.1669 19.3533ZM60.4282 26V12.1115H62.6621V17.6046H62.8269C63.0649 17.037 63.4464 16.5945 63.9713 16.2771C64.4962 15.9597 65.1279 15.801 65.8665 15.801C66.9468 15.801 67.7891 16.1276 68.3933 16.7806C69.0037 17.4337 69.3088 18.3523 69.3088 19.5364V26H67.0383V20.0765C67.0383 19.3197 66.8674 18.749 66.5256 18.3645C66.1838 17.9739 65.6833 17.7786 65.0242 17.7786C64.2917 17.7786 63.7211 17.9983 63.3121 18.4377C62.9032 18.8711 62.6987 19.454 62.6987 20.1864V26H60.4282ZM72.7238 13.5305H74.9851V16.0482H77.1274V17.861H74.9851V22.7773C74.9851 23.2717 75.095 23.6349 75.3147 23.8668C75.5344 24.0927 75.8823 24.2056 76.3584 24.2056C76.5659 24.2056 76.8223 24.1903 77.1274 24.1598V25.9359C76.749 26.0092 76.3523 26.0458 75.9373 26.0458C74.7898 26.0458 73.9658 25.8352 73.4653 25.4141C72.9709 24.9929 72.7238 24.2971 72.7238 23.3267V17.861H71.1399V16.0482H72.7238V13.5305ZM83.5087 17.5863C82.8312 17.5863 82.2727 17.8091 81.8333 18.2546C81.3938 18.7002 81.1497 19.2892 81.1008 20.0216H85.8158C85.7914 19.277 85.5717 18.6849 85.1566 18.2455C84.7416 17.806 84.1923 17.5863 83.5087 17.5863ZM85.8341 23.2443H87.9856C87.772 24.1598 87.2684 24.8831 86.475 25.4141C85.6876 25.939 84.708 26.2014 83.5361 26.2014C82.0652 26.2014 80.9086 25.7437 80.0663 24.8281C79.2301 23.9065 78.812 22.64 78.812 21.0287C78.812 19.4174 79.2332 18.1417 80.0754 17.2018C80.9177 16.2557 82.0652 15.7827 83.5178 15.7827C84.946 15.7827 86.063 16.2313 86.8687 17.1285C87.6804 18.0197 88.0863 19.2556 88.0863 20.8364V21.5688H81.0917V21.6879C81.1222 22.524 81.3602 23.1863 81.8058 23.6746C82.2574 24.1567 82.8556 24.3978 83.6002 24.3978C84.7477 24.3978 85.4923 24.0133 85.8341 23.2443ZM104.081 15.9841V26H101.892V24.407H101.737C101.23 25.6033 100.232 26.2014 98.743 26.2014C97.6505 26.2014 96.7991 25.8779 96.1887 25.231C95.5784 24.5779 95.2732 23.6654 95.2732 22.4935V15.9841H97.5437V21.9259C97.5437 22.6949 97.7054 23.2687 98.0289 23.6471C98.3524 24.0194 98.8529 24.2056 99.5304 24.2056C100.263 24.2056 100.824 23.995 101.215 23.5739C101.612 23.1527 101.81 22.5668 101.81 21.816V15.9841H104.081ZM106.864 26V15.9841H109.052V17.5863H109.208C109.452 17.0126 109.824 16.5701 110.324 16.2588C110.831 15.9414 111.451 15.7827 112.183 15.7827C113.294 15.7827 114.145 16.1062 114.737 16.7532C115.335 17.4001 115.635 18.3218 115.635 19.5181V26H113.364V20.0582C113.364 18.5262 112.69 17.7603 111.341 17.7603C110.663 17.7603 110.126 17.9769 109.729 18.4103C109.333 18.8436 109.134 19.4296 109.134 20.1681V26H106.864ZM121.952 26.1648C120.682 26.1648 119.678 25.7009 118.94 24.7732C118.201 23.8394 117.832 22.5759 117.832 20.9829C117.832 19.4021 118.201 18.1478 118.94 17.2201C119.684 16.2863 120.688 15.8193 121.952 15.8193C122.635 15.8193 123.246 15.975 123.783 16.2863C124.32 16.5975 124.723 17.0278 124.991 17.5771H125.147V12.1115H127.417V26H125.22V24.4161H125.064C124.778 24.9655 124.359 25.3958 123.81 25.707C123.267 26.0122 122.647 26.1648 121.952 26.1648ZM124.497 18.6208C124.045 18.041 123.432 17.7511 122.657 17.7511C121.881 17.7511 121.271 18.041 120.826 18.6208C120.38 19.1946 120.157 19.985 120.157 20.9921C120.157 22.0052 120.377 22.7987 120.816 23.3724C121.262 23.9462 121.875 24.233 122.657 24.233C123.438 24.233 124.051 23.9462 124.497 23.3724C124.948 22.7926 125.174 21.9991 125.174 20.9921C125.174 19.9911 124.948 19.2007 124.497 18.6208ZM146.946 20.7083C146.946 22.4233 146.424 23.7905 145.38 24.8098C144.336 25.823 142.932 26.3296 141.169 26.3296C139.252 26.3296 137.738 25.7101 136.628 24.4711C135.517 23.226 134.961 21.5322 134.961 19.3899C134.961 17.2781 135.52 15.5966 136.637 14.3453C137.754 13.088 139.252 12.4594 141.132 12.4594C142.658 12.4594 143.937 12.8622 144.968 13.6678C146 14.4735 146.622 15.5508 146.836 16.8997H144.483C144.245 16.1489 143.836 15.5721 143.256 15.1693C142.682 14.7665 141.974 14.5651 141.132 14.5651C139.978 14.5651 139.063 14.9954 138.385 15.856C137.714 16.7166 137.378 17.8884 137.378 19.3716C137.378 20.873 137.72 22.0571 138.404 22.9238C139.093 23.7905 140.027 24.2239 141.205 24.2239C142.212 24.2239 143.03 23.9431 143.659 23.3816C144.287 22.8201 144.611 22.0846 144.629 21.1752L144.638 20.9005H141.462V19.0511H146.946V20.7083ZM153.656 17.5863C152.979 17.5863 152.42 17.8091 151.981 18.2546C151.542 18.7002 151.297 19.2892 151.249 20.0216H155.964C155.939 19.277 155.719 18.6849 155.304 18.2455C154.889 17.806 154.34 17.5863 153.656 17.5863ZM155.982 23.2443H158.133C157.92 24.1598 157.416 24.8831 156.623 25.4141C155.835 25.939 154.856 26.2014 153.684 26.2014C152.213 26.2014 151.056 25.7437 150.214 24.8281C149.378 23.9065 148.96 22.64 148.96 21.0287C148.96 19.4174 149.381 18.1417 150.223 17.2018C151.065 16.2557 152.213 15.7827 153.666 15.7827C155.094 15.7827 156.211 16.2313 157.016 17.1285C157.828 18.0197 158.234 19.2556 158.234 20.8364V21.5688H151.239V21.6879C151.27 22.524 151.508 23.1863 151.953 23.6746C152.405 24.1567 153.003 24.3978 153.748 24.3978C154.895 24.3978 155.64 24.0133 155.982 23.2443ZM160.514 26V15.9841H162.702V17.6046H162.857C163.071 17.0309 163.422 16.5853 163.91 16.2679C164.399 15.9445 164.975 15.7827 165.641 15.7827C166.318 15.7827 166.895 15.9445 167.371 16.2679C167.847 16.5853 168.192 17.0309 168.406 17.6046H168.561C168.811 17.0492 169.208 16.6067 169.751 16.2771C170.295 15.9475 170.911 15.7827 171.601 15.7827C172.602 15.7827 173.386 16.0787 173.954 16.6708C174.527 17.2628 174.814 18.0776 174.814 19.1152V26H172.553V19.692C172.553 18.4042 171.943 17.7603 170.722 17.7603C170.136 17.7603 169.663 17.9495 169.303 18.3279C168.943 18.7063 168.763 19.1854 168.763 19.7653V26H166.556V19.5272C166.556 18.9779 166.394 18.5476 166.071 18.2363C165.747 17.9189 165.305 17.7603 164.743 17.7603C164.182 17.7603 163.715 17.9647 163.343 18.3737C162.97 18.7826 162.784 19.2953 162.784 19.9117V26H160.514ZM186.222 15.9841V26H184.034V24.407H183.878C183.371 25.6033 182.373 26.2014 180.884 26.2014C179.792 26.2014 178.94 25.8779 178.33 25.231C177.719 24.5779 177.414 23.6654 177.414 22.4935V15.9841H179.685V21.9259C179.685 22.6949 179.847 23.2687 180.17 23.6471C180.494 24.0194 180.994 24.2056 181.672 24.2056C182.404 24.2056 182.965 23.995 183.356 23.5739C183.753 23.1527 183.951 22.5668 183.951 21.816V15.9841H186.222ZM180.71 14.2629C180.46 14.5071 180.149 14.6292 179.776 14.6292C179.404 14.6292 179.093 14.5071 178.843 14.2629C178.592 14.0127 178.467 13.7045 178.467 13.3383C178.467 12.972 178.592 12.6669 178.843 12.4227C179.093 12.1725 179.404 12.0474 179.776 12.0474C180.149 12.0474 180.46 12.1725 180.71 12.4227C180.96 12.6669 181.086 12.972 181.086 13.3383C181.086 13.7045 180.96 14.0127 180.71 14.2629ZM184.784 14.2629C184.534 14.5071 184.223 14.6292 183.85 14.6292C183.478 14.6292 183.167 14.5071 182.917 14.2629C182.666 14.0127 182.541 13.7045 182.541 13.3383C182.541 12.972 182.666 12.6669 182.917 12.4227C183.167 12.1725 183.478 12.0474 183.85 12.0474C184.223 12.0474 184.534 12.1725 184.784 12.4227C185.035 12.6669 185.16 12.972 185.16 13.3383C185.16 13.7045 185.035 14.0127 184.784 14.2629ZM188.776 18.8497C188.776 17.9464 189.148 17.2109 189.893 16.6433C190.638 16.0696 191.602 15.7827 192.786 15.7827C193.976 15.7827 194.925 16.036 195.633 16.5426C196.347 17.0431 196.744 17.748 196.823 18.6575H194.69C194.605 18.2974 194.397 18.0166 194.068 17.8152C193.744 17.6077 193.32 17.5039 192.795 17.5039C192.27 17.5039 191.837 17.6168 191.495 17.8427C191.153 18.0685 190.982 18.3615 190.982 18.7216C190.982 19.0023 191.101 19.2343 191.339 19.4174C191.584 19.6005 191.959 19.75 192.466 19.866L194.233 20.2688C195.197 20.4885 195.905 20.8151 196.357 21.2484C196.808 21.6818 197.034 22.2646 197.034 22.9971C197.034 23.9553 196.637 24.7305 195.844 25.3225C195.05 25.9084 194.025 26.2014 192.768 26.2014C191.516 26.2014 190.516 25.9451 189.765 25.4324C189.02 24.9197 188.605 24.2086 188.52 23.2992H190.763C190.873 23.6776 191.101 23.9706 191.449 24.1781C191.803 24.3795 192.261 24.4802 192.823 24.4802C193.396 24.4802 193.863 24.3673 194.223 24.1415C194.583 23.9095 194.764 23.6074 194.764 23.2351C194.764 22.6797 194.303 22.3013 193.381 22.0999L191.605 21.6879C190.641 21.4681 189.927 21.1294 189.463 20.6716C189.005 20.2078 188.776 19.6005 188.776 18.8497ZM203.534 17.5863C202.857 17.5863 202.298 17.8091 201.859 18.2546C201.419 18.7002 201.175 19.2892 201.126 20.0216H205.841C205.817 19.277 205.597 18.6849 205.182 18.2455C204.767 17.806 204.218 17.5863 203.534 17.5863ZM205.86 23.2443H208.011C207.798 24.1598 207.294 24.8831 206.501 25.4141C205.713 25.939 204.734 26.2014 203.562 26.2014C202.091 26.2014 200.934 25.7437 200.092 24.8281C199.256 23.9065 198.838 22.64 198.838 21.0287C198.838 19.4174 199.259 18.1417 200.101 17.2018C200.943 16.2557 202.091 15.7827 203.543 15.7827C204.972 15.7827 206.089 16.2313 206.894 17.1285C207.706 18.0197 208.112 19.2556 208.112 20.8364V21.5688H201.117V21.6879C201.148 22.524 201.386 23.1863 201.831 23.6746C202.283 24.1567 202.881 24.3978 203.626 24.3978C204.773 24.3978 205.518 24.0133 205.86 23.2443Z" fill="white"/>
</g>
<defs>
<filter id="filter0_d_1928_114433" x="-8" y="0" width="253" height="48" filterUnits="userSpaceOnUse" color-interpolation-filters="sRGB">
<feFlood flood-opacity="0" result="BackgroundImageFix"/>
<feColorMatrix in="SourceAlpha" type="matrix" values="0 0 0 0 0 0 0 0 0 0 0 0 0 0 0 0 0 0 127 0" result="hardAlpha"/>
<feMorphology radius="6" operator="dilate" in="SourceAlpha" result="effect1_dropShadow_1928_114433"/>
<feOffset dy="4"/>
<feGaussianBlur stdDeviation="1"/>
<feComposite in2="hardAlpha" operator="out"/>
<feColorMatrix type="matrix" values="0 0 0 0 0.376645 0 0 0 0 0.306931 0 0 0 0 0.408333 0 0 0 0.5 0"/>
<feBlend mode="normal" in2="BackgroundImageFix" result="effect1_dropShadow_1928_114433"/>
<feBlend mode="normal" in="SourceGraphic" in2="effect1_dropShadow_1928_114433" result="shape"/>
</filter>
</defs>
</svg>
