<svg width="34" height="35" viewBox="0 0 34 35" fill="none" xmlns="http://www.w3.org/2000/svg">
<g clip-path="url(#clip0_4702_101758)">
<circle cx="17.0638" cy="17.483" r="11.4291" fill="#0C695E"/>
<g filter="url(#filter0_dd_4702_101758)">
<path d="M17.0638 29.9511C23.8845 29.9511 29.5318 24.2915 29.5318 17.483C29.5318 10.6623 23.8723 5.01495 17.0515 5.01495C10.243 5.01495 4.5957 10.6623 4.5957 17.483C4.5957 24.2915 10.2552 29.9511 17.0638 29.9511ZM17.0638 27.8731C11.2942 27.8731 6.68594 23.2525 6.68594 17.483C6.68594 11.7135 11.282 7.09296 17.0515 7.09296C22.8211 7.09296 27.4538 11.7135 27.4538 17.483C27.4538 23.2525 22.8333 27.8731 17.0638 27.8731Z" fill="white"/>
</g>
<path d="M15.7197 23.2892C16.1231 23.2892 16.4653 23.0936 16.7098 22.7147L22.296 13.9259C22.4304 13.6815 22.5893 13.4125 22.5893 13.1436C22.5893 12.5936 22.1004 12.2391 21.587 12.2391C21.2814 12.2391 20.9758 12.4347 20.7436 12.7891L15.6708 20.93L13.2628 17.813C12.9694 17.4219 12.7005 17.3241 12.3582 17.3241C11.8326 17.3241 11.417 17.7519 11.417 18.2897C11.417 18.5587 11.527 18.8154 11.6981 19.0476L14.6807 22.7147C14.9863 23.1181 15.3163 23.2892 15.7197 23.2892Z" fill="white"/>
</g>
<defs>
<filter id="filter0_dd_4702_101758" x="-5.79434" y="-1.21907" width="45.7166" height="45.7162" filterUnits="userSpaceOnUse" color-interpolation-filters="sRGB">
<feFlood flood-opacity="0" result="BackgroundImageFix"/>
<feColorMatrix in="SourceAlpha" type="matrix" values="0 0 0 0 0 0 0 0 0 0 0 0 0 0 0 0 0 0 127 0" result="hardAlpha"/>
<feOffset dy="0.519502"/>
<feGaussianBlur stdDeviation="1.039"/>
<feComposite in2="hardAlpha" operator="out"/>
<feColorMatrix type="matrix" values="0 0 0 0 0.0724169 0 0 0 0 0.243082 0 0 0 0 0.366667 0 0 0 0.25 0"/>
<feBlend mode="normal" in2="BackgroundImageFix" result="effect1_dropShadow_4702_101758"/>
<feColorMatrix in="SourceAlpha" type="matrix" values="0 0 0 0 0 0 0 0 0 0 0 0 0 0 0 0 0 0 127 0" result="hardAlpha"/>
<feOffset dy="4.15602"/>
<feGaussianBlur stdDeviation="5.19502"/>
<feComposite in2="hardAlpha" operator="out"/>
<feColorMatrix type="matrix" values="0 0 0 0 0.0226116 0 0 0 0 0.733333 0 0 0 0 0.733333 0 0 0 0.2 0"/>
<feBlend mode="normal" in2="effect1_dropShadow_4702_101758" result="effect2_dropShadow_4702_101758"/>
<feBlend mode="normal" in="SourceGraphic" in2="effect2_dropShadow_4702_101758" result="shape"/>
</filter>
<clipPath id="clip0_4702_101758">
<rect width="33.2481" height="33.2481" fill="white" transform="translate(0.44043 0.858887)"/>
</clipPath>
</defs>
</svg>
