<svg width="11" height="20" viewBox="0 0 11 20" fill="none" xmlns="http://www.w3.org/2000/svg">
<path d="M2.18067 0.592772L10.5381 8.76758C10.8389 9.05404 10.9893 9.38346 10.9893 9.75586C10.9749 10.1497 10.8245 10.4827 10.5381 10.7549L2.18066 18.9189C1.93717 19.1624 1.63997 19.2842 1.28906 19.2842C0.93099 19.2842 0.630209 19.1589 0.386719 18.9082C0.136068 18.6647 0.0107425 18.3675 0.0107425 18.0166C0.0107426 17.6657 0.14323 17.3577 0.408204 17.0928L7.92774 9.7666L0.408205 2.41894C0.143231 2.15397 0.0107439 1.84603 0.010744 1.49512C0.010744 1.1442 0.13607 0.847004 0.386721 0.603514C0.63021 0.352863 0.930991 0.227538 1.28906 0.227538C1.63998 0.227538 1.93718 0.349283 2.18067 0.592772Z" fill="white"/>
</svg>
