<svg width="32" height="32" viewBox="0 0 32 32" fill="none" xmlns="http://www.w3.org/2000/svg">
<path d="M5.67969 14.8613V12.251C5.67969 11.1016 6.37793 10.6504 7.48438 10.6504H9.97656C9.34277 10.0596 8.9668 9.25391 8.9668 8.30859C8.9668 6.22461 10.6211 4.74219 12.6943 4.74219C14.209 4.74219 15.4443 5.56934 15.9922 7.00879C16.54 5.56934 17.7861 4.74219 19.29 4.74219C21.374 4.74219 23.0176 6.22461 23.0176 8.30859C23.0176 9.25391 22.6416 10.0596 22.0186 10.6504H24.5107C25.6709 10.6504 26.3154 11.1016 26.3154 12.251V14.8613C26.3154 16.0107 25.6709 16.4619 24.5107 16.4619H16.873V10.6504H15.1113V9.09277C15.1113 7.50293 14.0801 6.53613 12.8018 6.53613C11.6201 6.53613 10.7607 7.22363 10.7607 8.40527C10.7607 9.58691 11.749 10.6504 13.4355 10.6504H15.1113V16.4619H7.48438C6.32422 16.4619 5.67969 16.0107 5.67969 14.8613ZM19.1826 6.53613C17.9043 6.53613 16.873 7.50293 16.873 9.09277V10.6504H18.5488C20.2461 10.6504 21.2236 9.58691 21.2236 8.40527C21.2236 7.22363 20.3643 6.53613 19.1826 6.53613ZM7.21582 24.5293V17.6113H15.1113V27.2578H10.0625C8.26855 27.2578 7.21582 26.3232 7.21582 24.5293ZM16.873 27.2578V17.6113H24.7793V24.5293C24.7793 26.3232 23.7158 27.2578 21.9326 27.2578H16.873Z" fill="white" fill-opacity="0.6"/>
</svg>
