<svg width="64" height="32" viewBox="0 0 64 32" fill="none" xmlns="http://www.w3.org/2000/svg">
<rect x="6" y="10" width="19" height="15" rx="1" fill="#FEFEEB"/>
<path d="M8.66797 25.8882C6.42285 25.8882 5.29492 24.7817 5.29492 22.5581V9.44189C5.29492 7.21826 6.42285 6.11182 8.66797 6.11182H23.3418C25.5869 6.11182 26.7041 7.229 26.7041 9.44189V22.5581C26.7041 24.771 25.5869 25.8882 23.3418 25.8882H8.66797ZM8.50684 24.1587H23.4814C24.4375 24.1587 24.9746 23.6538 24.9746 22.6548V12.5249C24.9746 11.5366 24.4375 11.021 23.4814 11.021H8.50684C7.55078 11.021 7.02441 11.5366 7.02441 12.5249V22.6548C7.02441 23.6538 7.55078 24.1587 8.50684 24.1587ZM10.376 15.0171C9.97852 15.0171 9.69922 14.7163 9.69922 14.3403C9.69922 13.9751 9.97852 13.6958 10.376 13.6958H21.6553C22.0312 13.6958 22.3213 13.9751 22.3213 14.3403C22.3213 14.7163 22.0312 15.0171 21.6553 15.0171H10.376ZM10.376 18.2505C9.97852 18.2505 9.69922 17.9712 9.69922 17.606C9.69922 17.2192 9.97852 16.9292 10.376 16.9292H21.6553C22.0312 16.9292 22.3213 17.2192 22.3213 17.606C22.3213 17.9712 22.0312 18.2505 21.6553 18.2505H10.376ZM10.376 21.4839C9.97852 21.4839 9.69922 21.2046 9.69922 20.8394C9.69922 20.4634 9.97852 20.1626 10.376 20.1626H17.541C17.917 20.1626 18.207 20.4634 18.207 20.8394C18.207 21.2046 17.917 21.4839 17.541 21.4839H10.376Z" fill="#537979"/>
<path d="M39.1377 16C39.1377 15.4736 39.5781 15.0332 40.0938 15.0332H47.0439V8.09375C47.0439 7.57812 47.4736 7.1377 48 7.1377C48.5264 7.1377 48.9668 7.57812 48.9668 8.09375V15.0332H55.9062C56.4219 15.0332 56.8623 15.4736 56.8623 16C56.8623 16.5264 56.4219 16.9561 55.9062 16.9561H48.9668V23.9062C48.9668 24.4219 48.5264 24.8623 48 24.8623C47.4736 24.8623 47.0439 24.4219 47.0439 23.9062V16.9561H40.0938C39.5781 16.9561 39.1377 16.5264 39.1377 16Z" fill="#537979"/>
</svg>
