<svg width="174" height="75" viewBox="0 0 174 75" fill="none" xmlns="http://www.w3.org/2000/svg">
<g filter="url(#filter0_d_386_38835)">
<path d="M5 54.2C5 36.2783 5 27.3175 8.48779 20.4723C11.5557 14.4511 16.4511 9.55574 22.4723 6.48779C29.3175 3 38.2783 3 56.2 3H169V4C169 26.4021 169 37.6031 164.64 46.1596C160.805 53.6861 154.686 59.8053 147.16 63.6403C138.603 68 127.402 68 105 68H5V54.2Z" fill="#58B368"/>
<path d="M25 35C25 35.8889 25.7312 36.6057 26.6057 36.6057H35.3943V45.3943C35.3943 46.2688 36.1254 47 37 47C37.8746 47 38.6057 46.2688 38.6057 45.3943V36.6057H47.3943C48.2688 36.6057 49 35.8889 49 35C49 34.1254 48.2688 33.3943 47.3943 33.3943H38.6057V24.6057C38.6057 23.7312 37.8746 23 37 23C36.1254 23 35.3943 23.7312 35.3943 24.6057V33.3943H26.6057C25.7312 33.3943 25 34.1254 25 35Z" fill="white"/>
<path d="M62.2373 42.5293V40.2705C62.2373 39.5557 62.5215 39.1572 63.0898 39.0752H63.1953C63.5996 38.8467 63.8926 38.4775 64.0742 37.9678C64.2559 37.458 64.373 36.7285 64.4258 35.7793L64.7949 29.7324C64.8242 29.2812 64.9736 28.9326 65.2432 28.6865C65.5186 28.4404 65.8906 28.3174 66.3594 28.3174H72.3271C72.6846 28.3174 72.9629 28.4229 73.1621 28.6338C73.3613 28.8389 73.4609 29.126 73.4609 29.4951V39.084H74.0059C74.3223 39.084 74.5742 39.1865 74.7617 39.3916C74.9492 39.5967 75.043 39.8721 75.043 40.2178V42.5293C75.043 42.8633 74.9492 43.127 74.7617 43.3203C74.5801 43.5195 74.3311 43.6191 74.0146 43.6191C73.6982 43.6191 73.4463 43.5195 73.2588 43.3203C73.0771 43.1211 72.9863 42.8574 72.9863 42.5293V41H64.3027V42.5293C64.3027 42.8574 64.209 43.1211 64.0215 43.3203C63.8398 43.5195 63.5908 43.6191 63.2744 43.6191C62.958 43.6191 62.7061 43.5195 62.5186 43.3203C62.3311 43.127 62.2373 42.8633 62.2373 42.5293ZM65.665 39.084H71.2021V30.2246H66.8867L66.5264 35.9199C66.4795 36.7227 66.3887 37.3613 66.2539 37.8359C66.125 38.3105 65.9287 38.7031 65.665 39.0137V39.084ZM84.2736 39.8926C83.4591 40.7539 82.3634 41.1846 80.9864 41.1846C79.6095 41.1846 78.5138 40.7539 77.6993 39.8926C76.8849 39.0254 76.4777 37.8418 76.4777 36.3418C76.4777 34.8477 76.8878 33.667 77.7081 32.7998C78.5284 31.9268 79.6212 31.4902 80.9864 31.4902C82.3575 31.4902 83.4503 31.9268 84.2648 32.7998C85.0851 33.667 85.4952 34.8477 85.4952 36.3418C85.4952 37.8418 85.088 39.0254 84.2736 39.8926ZM79.3165 38.6357C79.7267 39.1807 80.2833 39.4531 80.9864 39.4531C81.6896 39.4531 82.2462 39.1807 82.6564 38.6357C83.0665 38.0908 83.2716 37.3262 83.2716 36.3418C83.2716 35.3633 83.0665 34.6016 82.6564 34.0566C82.2462 33.5059 81.6896 33.2305 80.9864 33.2305C80.2892 33.2305 79.7325 33.5059 79.3165 34.0566C78.9064 34.6016 78.7013 35.3633 78.7013 36.3418C78.7013 37.3262 78.9064 38.0908 79.3165 38.6357ZM91.72 41.1846C90.2317 41.1846 89.095 40.7129 88.3098 39.7695C87.5246 38.8262 87.1321 37.4434 87.1321 35.6211C87.1321 33.8867 87.3196 32.4805 87.6946 31.4023C88.0754 30.3242 88.635 29.5361 89.3733 29.0381C90.1116 28.54 91.0666 28.2705 92.2385 28.2295C93.0471 28.2061 93.718 28.1475 94.2512 28.0537C94.5911 28.0068 94.7903 27.9834 94.8489 27.9834C95.1125 27.9834 95.3293 28.0508 95.4993 28.1855C95.675 28.3203 95.7629 28.5254 95.7629 28.8008C95.7629 29.2988 95.4348 29.6328 94.7786 29.8027C94.4211 29.9082 93.6301 29.9785 92.4055 30.0137C91.2571 30.0488 90.4221 30.3418 89.9006 30.8926C89.3791 31.4434 89.0334 32.3867 88.8635 33.7227H88.9338C89.2209 33.166 89.634 32.7383 90.1731 32.4395C90.7121 32.1406 91.3538 31.9912 92.0979 31.9912C93.3577 31.9912 94.3625 32.3955 95.1125 33.2041C95.8625 34.0068 96.2375 35.0908 96.2375 36.4561C96.2375 37.9209 95.8332 39.0752 95.0246 39.9189C94.2219 40.7627 93.1204 41.1846 91.72 41.1846ZM91.6936 39.4092C92.426 39.4092 92.9914 39.1572 93.3899 38.6533C93.7942 38.1436 93.9963 37.4258 93.9963 36.5C93.9963 35.6094 93.7942 34.9209 93.3899 34.4346C92.9856 33.9424 92.4202 33.6963 91.6936 33.6963C90.9612 33.6963 90.3899 33.9424 89.9797 34.4346C89.5754 34.9268 89.3733 35.6152 89.3733 36.5C89.3733 37.4258 89.5754 38.1436 89.9797 38.6533C90.384 39.1572 90.9553 39.4092 91.6936 39.4092ZM100.942 41.1494C100.034 41.1494 99.2865 40.8887 98.7005 40.3672C98.1205 39.8457 97.8304 39.1689 97.8304 38.3369C97.8304 37.5107 98.1351 36.8574 98.7445 36.377C99.3597 35.8965 100.236 35.6211 101.372 35.5508L103.842 35.4102V34.7422C103.842 34.2559 103.687 33.8779 103.376 33.6084C103.072 33.3389 102.647 33.2041 102.102 33.2041C101.668 33.2041 101.302 33.2861 101.003 33.4502C100.704 33.6143 100.42 33.8955 100.151 34.2939C99.9281 34.5869 99.6322 34.7334 99.263 34.7334C98.9935 34.7334 98.7709 34.6543 98.5951 34.4961C98.4252 34.332 98.3402 34.1182 98.3402 33.8545C98.3402 33.667 98.39 33.4678 98.4896 33.2568C98.724 32.7178 99.1752 32.29 99.8431 31.9736C100.517 31.6514 101.299 31.4902 102.19 31.4902C103.344 31.4902 104.267 31.7715 104.958 32.334C105.656 32.8965 106.004 33.6465 106.004 34.584V40.0771C106.004 40.4229 105.905 40.6924 105.705 40.8857C105.512 41.0791 105.257 41.1758 104.941 41.1758C104.636 41.1758 104.39 41.0879 104.202 40.9121C104.015 40.7363 103.912 40.4873 103.895 40.165V39.5146H103.851C103.587 40.0127 103.189 40.4111 102.656 40.71C102.122 41.0029 101.551 41.1494 100.942 41.1494ZM101.61 39.4971C102.231 39.4971 102.758 39.3125 103.192 38.9434C103.625 38.5684 103.842 38.1025 103.842 37.5459V36.834L101.68 36.9658C101.153 37.001 100.743 37.1328 100.45 37.3613C100.162 37.584 100.019 37.8799 100.019 38.249C100.019 38.6299 100.162 38.9346 100.45 39.1631C100.743 39.3857 101.129 39.4971 101.61 39.4971ZM109.434 41C109.077 41 108.798 40.8975 108.599 40.6924C108.4 40.4814 108.3 40.1914 108.3 39.8223V32.8613C108.3 32.4922 108.4 32.2051 108.599 32C108.798 31.7891 109.077 31.6836 109.434 31.6836H112.721C113.659 31.6836 114.394 31.8945 114.927 32.3164C115.46 32.7324 115.727 33.3096 115.727 34.0479C115.727 34.5342 115.569 34.9707 115.252 35.3574C114.942 35.7383 114.555 35.9697 114.092 36.0518V36.1221C114.708 36.2041 115.203 36.4443 115.578 36.8428C115.953 37.2412 116.14 37.7305 116.14 38.3105C116.14 39.1367 115.838 39.793 115.235 40.2793C114.637 40.7598 113.823 41 112.791 41H109.434ZM110.445 35.4893H112.044C113.076 35.4893 113.591 35.0967 113.591 34.3115C113.591 33.9482 113.471 33.667 113.231 33.4678C112.997 33.2686 112.657 33.1689 112.211 33.1689H110.445V35.4893ZM110.445 39.5146H112.352C112.874 39.5146 113.272 39.4033 113.547 39.1807C113.823 38.9521 113.96 38.624 113.96 38.1963C113.96 37.3174 113.366 36.8779 112.176 36.8779H110.445V39.5146ZM119.333 41.1758C118.946 41.1758 118.65 41.0703 118.445 40.8594C118.24 40.6484 118.137 40.3525 118.137 39.9717V32.6152C118.137 32.2637 118.234 31.9912 118.427 31.7979C118.627 31.5986 118.887 31.499 119.21 31.499C119.532 31.499 119.79 31.5986 119.983 31.7979C120.182 31.9971 120.282 32.2725 120.282 32.624V37.9062H120.352L124.017 32.2812C124.199 32 124.389 31.8008 124.588 31.6836C124.788 31.5605 125.037 31.499 125.336 31.499C125.705 31.499 125.998 31.6074 126.214 31.8242C126.437 32.041 126.548 32.334 126.548 32.7031V40.0596C126.548 40.4111 126.449 40.6865 126.25 40.8857C126.056 41.0791 125.798 41.1758 125.476 41.1758C125.154 41.1758 124.893 41.0791 124.694 40.8857C124.501 40.6865 124.404 40.4111 124.404 40.0596V34.7334H124.334L120.66 40.3936C120.484 40.6807 120.294 40.8828 120.088 41C119.889 41.1172 119.637 41.1758 119.333 41.1758ZM132.228 41.1758C131.894 41.1758 131.631 41.0791 131.437 40.8857C131.244 40.6924 131.147 40.4316 131.147 40.1035V33.3711H128.95C128.716 33.3711 128.522 33.2949 128.37 33.1426C128.217 32.9902 128.141 32.7881 128.141 32.5361C128.141 32.2783 128.217 32.0732 128.37 31.9209C128.522 31.7627 128.716 31.6836 128.95 31.6836H135.515C135.75 31.6836 135.943 31.7627 136.095 31.9209C136.248 32.0732 136.324 32.2783 136.324 32.5361C136.324 32.7881 136.248 32.9902 136.095 33.1426C135.943 33.2949 135.75 33.3711 135.515 33.3711H133.318V40.1035C133.318 40.4316 133.218 40.6924 133.019 40.8857C132.82 41.0791 132.556 41.1758 132.228 41.1758ZM139.051 41C138.693 41 138.415 40.8975 138.216 40.6924C138.016 40.4814 137.917 40.1914 137.917 39.8223V32.5801C137.917 32.2461 138.014 31.9824 138.207 31.7891C138.406 31.5957 138.67 31.499 138.998 31.499C139.326 31.499 139.59 31.5986 139.789 31.7979C139.994 31.9912 140.097 32.252 140.097 32.5801V34.4785H141.898C142.988 34.4785 143.855 34.7744 144.5 35.3662C145.144 35.9521 145.467 36.7432 145.467 37.7393C145.467 38.7354 145.144 39.5293 144.5 40.1211C143.855 40.707 142.988 41 141.898 41H139.051ZM140.097 39.3213H141.617C142.127 39.3213 142.534 39.1748 142.839 38.8818C143.143 38.5889 143.296 38.2051 143.296 37.7305C143.296 37.25 143.14 36.8662 142.83 36.5791C142.525 36.2861 142.121 36.1396 141.617 36.1396H140.097V39.3213Z" fill="white"/>
</g>
<defs>
<filter id="filter0_d_386_38835" x="0" y="0" width="174" height="75" filterUnits="userSpaceOnUse" color-interpolation-filters="sRGB">
<feFlood flood-opacity="0" result="BackgroundImageFix"/>
<feColorMatrix in="SourceAlpha" type="matrix" values="0 0 0 0 0 0 0 0 0 0 0 0 0 0 0 0 0 0 127 0" result="hardAlpha"/>
<feMorphology radius="5" operator="dilate" in="SourceAlpha" result="effect1_dropShadow_386_38835"/>
<feOffset dy="2"/>
<feComposite in2="hardAlpha" operator="out"/>
<feColorMatrix type="matrix" values="0 0 0 0 0.811765 0 0 0 0 0.976471 0 0 0 0 0.933333 0 0 0 1 0"/>
<feBlend mode="normal" in2="BackgroundImageFix" result="effect1_dropShadow_386_38835"/>
<feBlend mode="normal" in="SourceGraphic" in2="effect1_dropShadow_386_38835" result="shape"/>
</filter>
</defs>
</svg>
