<svg width="174" height="75" viewBox="0 0 174 75" fill="none" xmlns="http://www.w3.org/2000/svg">
<g filter="url(#filter0_d_253_36678)">
<path d="M5 54.2C5 36.2783 5 27.3175 8.48779 20.4723C11.5557 14.4511 16.4511 9.55574 22.4723 6.48779C29.3175 3 38.2783 3 56.2 3H169V4C169 26.4021 169 37.6031 164.64 46.1596C160.805 53.6861 154.686 59.8053 147.16 63.6403C138.603 68 127.402 68 105 68H5V54.2Z" fill="#58B368"/>
<path d="M25 35C25 35.8889 25.7312 36.6057 26.6057 36.6057H35.3943V45.3943C35.3943 46.2688 36.1254 47 37 47C37.8746 47 38.6057 46.2688 38.6057 45.3943V36.6057H47.3943C48.2688 36.6057 49 35.8889 49 35C49 34.1254 48.2688 33.3943 47.3943 33.3943H38.6057V24.6057C38.6057 23.7312 37.8746 23 37 23C36.1254 23 35.3943 23.7312 35.3943 24.6057V33.3943H26.6057C25.7312 33.3943 25 34.1254 25 35Z" fill="white"/>
<path d="M65.1036 41.1494C65.6925 41.1494 66.0264 40.8594 66.2374 40.1738L67.0723 37.7656H71.8096L72.6446 40.1914C72.8468 40.8682 73.1895 41.1494 73.8048 41.1494C74.4639 41.1494 74.9386 40.7188 74.9386 40.1035C74.9386 39.9014 74.8946 39.6992 74.7891 39.4092L71.0977 29.3896C70.7813 28.5371 70.2716 28.168 69.4366 28.168C68.6104 28.168 68.1007 28.5547 67.793 29.3984L64.1104 39.4092C64.005 39.6816 63.961 39.9277 63.961 40.1035C63.961 40.7451 64.4093 41.1494 65.1036 41.1494ZM67.6085 35.9727L69.3927 30.5586H69.4542L71.2559 35.9727H67.6085ZM79.9328 41.1494C81.3742 41.1494 82.3762 40.4199 82.8244 39.3477H82.8684V40.0771C82.8684 40.7891 83.343 41.1758 83.9758 41.1758C84.6086 41.1758 85.0568 40.7803 85.0568 40.0771V29.293C85.0568 28.5547 84.5998 28.1416 83.9582 28.1416C83.3166 28.1416 82.8684 28.5547 82.8684 29.293V33.248H82.8156C82.3234 32.2197 81.2687 31.5254 79.9328 31.5254C77.5861 31.5254 76.0656 33.3887 76.0656 36.333C76.0656 39.2949 77.5861 41.1494 79.9328 41.1494ZM80.592 39.3564C79.177 39.3564 78.3068 38.1963 78.3068 36.3418C78.3068 34.4961 79.1857 33.3271 80.592 33.3271C81.9719 33.3271 82.8771 34.5137 82.8771 36.3418C82.8771 38.1875 81.9719 39.3564 80.592 39.3564ZM90.7542 41.1494C92.1956 41.1494 93.1976 40.4199 93.6458 39.3477H93.6898V40.0771C93.6898 40.7891 94.1644 41.1758 94.7972 41.1758C95.43 41.1758 95.8782 40.7803 95.8782 40.0771V29.293C95.8782 28.5547 95.4212 28.1416 94.7796 28.1416C94.138 28.1416 93.6898 28.5547 93.6898 29.293V33.248H93.637C93.1448 32.2197 92.0902 31.5254 90.7542 31.5254C88.4075 31.5254 86.887 33.3887 86.887 36.333C86.887 39.2949 88.4075 41.1494 90.7542 41.1494ZM91.4134 39.3564C89.9984 39.3564 89.1282 38.1963 89.1282 36.3418C89.1282 34.4961 90.0071 33.3271 91.4134 33.3271C92.7933 33.3271 93.6986 34.5137 93.6986 36.3418C93.6986 38.1875 92.7933 39.3564 91.4134 39.3564ZM103.432 41.1494C104.144 41.1494 104.566 40.7188 104.566 39.9717V29.3457C104.566 28.5986 104.144 28.168 103.432 28.168C102.729 28.168 102.298 28.5986 102.298 29.3457V39.9717C102.298 40.7188 102.729 41.1494 103.432 41.1494ZM107.565 38.6973C107.565 40.2881 108.391 41.0967 110.017 41.0967H110.105C111.107 41.0967 111.67 40.7539 111.67 40.1123C111.67 39.6025 111.371 39.3564 110.791 39.3037L110.632 39.2861C110 39.2334 109.754 38.9258 109.754 38.2227V33.3711H110.764C111.309 33.3711 111.643 33.0459 111.643 32.5186C111.643 32 111.309 31.6836 110.764 31.6836H109.754V30.4443C109.754 29.7412 109.332 29.3018 108.664 29.3018C107.987 29.3018 107.565 29.7412 107.565 30.4443V31.6836H106.976C106.431 31.6836 106.097 32 106.097 32.5186C106.097 33.0459 106.431 33.3711 106.976 33.3711H107.565V38.6973ZM117.349 41.1846C119.125 41.1846 120.513 40.4902 121.129 39.3037C121.225 39.1104 121.278 38.917 121.278 38.75C121.278 38.2227 120.891 37.9062 120.399 37.9062C120.092 37.9062 119.889 38.0029 119.661 38.2578C118.958 39.1543 118.316 39.4971 117.332 39.4971C115.908 39.4971 115.003 38.4951 115.003 36.9395V36.8691H120.496C121.146 36.8691 121.515 36.4824 121.515 35.832C121.515 33.3008 119.775 31.4902 117.226 31.4902C114.537 31.4902 112.823 33.4062 112.823 36.377C112.823 39.4004 114.502 41.1846 117.349 41.1846ZM115.02 35.4277C115.108 34.0918 116.005 33.1865 117.235 33.1865C118.466 33.1865 119.327 34.0742 119.371 35.4277H115.02ZM124.4 41.1758C125.051 41.1758 125.499 40.7539 125.499 40.0244V35.2959C125.499 34.1709 126.237 33.3535 127.292 33.3535C128.311 33.3535 128.944 33.9951 128.944 35.0322V40.0244C128.944 40.7539 129.349 41.1758 130.008 41.1758C130.658 41.1758 131.071 40.7539 131.071 40.0244V35.2432C131.071 34.127 131.792 33.3535 132.847 33.3535C133.919 33.3535 134.517 34.0039 134.517 35.1465V40.0244C134.517 40.7539 134.956 41.1758 135.615 41.1758C136.266 41.1758 136.705 40.7539 136.705 40.0244V34.6104C136.705 32.7471 135.501 31.5078 133.664 31.5078C132.319 31.5078 131.212 32.2285 130.764 33.3799H130.711C130.368 32.1846 129.428 31.5078 128.109 31.5078C126.844 31.5078 125.859 32.2197 125.455 33.3008H125.411V32.6152C125.411 31.9033 124.972 31.499 124.356 31.499C123.741 31.499 123.31 31.9033 123.31 32.6152V40.0244C123.31 40.7539 123.741 41.1758 124.4 41.1758Z" fill="white"/>
</g>
<defs>
<filter id="filter0_d_253_36678" x="0" y="0" width="174" height="75" filterUnits="userSpaceOnUse" color-interpolation-filters="sRGB">
<feFlood flood-opacity="0" result="BackgroundImageFix"/>
<feColorMatrix in="SourceAlpha" type="matrix" values="0 0 0 0 0 0 0 0 0 0 0 0 0 0 0 0 0 0 127 0" result="hardAlpha"/>
<feMorphology radius="5" operator="dilate" in="SourceAlpha" result="effect1_dropShadow_253_36678"/>
<feOffset dy="2"/>
<feComposite in2="hardAlpha" operator="out"/>
<feColorMatrix type="matrix" values="0 0 0 0 0.811765 0 0 0 0 0.976471 0 0 0 0 0.933333 0 0 0 1 0"/>
<feBlend mode="normal" in2="BackgroundImageFix" result="effect1_dropShadow_253_36678"/>
<feBlend mode="normal" in="SourceGraphic" in2="effect1_dropShadow_253_36678" result="shape"/>
</filter>
</defs>
</svg>
