<svg width="312" height="138" viewBox="0 0 312 138" fill="none" xmlns="http://www.w3.org/2000/svg">
<path d="M1.15274 6.87722C0 9.57154 0 13.0986 0 20.1527V90.0573C0 97.1114 0 100.638 1.15274 103.333C2.16673 105.703 3.78469 107.63 5.77474 108.837C8.03713 110.21 10.9988 110.21 16.922 110.21H267.669C267.815 110.21 267.939 110.329 268.001 110.487L278.512 137.096C278.988 138.301 280.428 138.301 280.905 137.096L291.416 110.487C291.478 110.329 291.602 110.21 291.748 110.21H295.078C301.001 110.21 303.963 110.21 306.225 108.837C308.215 107.63 309.833 105.703 310.847 103.333C312 100.638 312 97.1114 312 90.0573V20.1527C312 13.0986 312 9.57154 310.847 6.87722C309.833 4.50724 308.215 2.58039 306.225 1.37282C303.963 0 301.001 0 295.078 0H16.922C10.9988 0 8.03713 0 5.77474 1.37282C3.78469 2.58039 2.16673 4.50724 1.15274 6.87722Z" fill="#78F6E6"/>
</svg>
