<svg width="32" height="32" viewBox="0 0 32 32" fill="none" xmlns="http://www.w3.org/2000/svg">
<path d="M22.9248 15.5068C22.9141 15.1416 22.7852 14.8301 22.4951 14.5508L14.1162 6.35449C13.8906 6.11816 13.5898 6 13.2461 6C12.5479 6 12 6.53711 12 7.23535C12 7.5791 12.1396 7.89062 12.376 8.1377L19.9277 15.5068L12.376 22.876C12.1396 23.1123 12 23.4238 12 23.7676C12 24.4766 12.5479 25.0137 13.2461 25.0137C13.5898 25.0137 13.8906 24.8955 14.1162 24.6592L22.4951 16.4629C22.7852 16.1836 22.9248 15.8721 22.9248 15.5068Z" fill="#026355"/>
</svg>
