<svg width="40" height="40" viewBox="0 0 40 40" fill="none" xmlns="http://www.w3.org/2000/svg">
<path d="M9.15039 16.6431C9.15039 12.7007 11.8789 9.95068 15.3916 9.95068C17.4326 9.95068 19.0439 10.9067 20 12.314C20.9668 10.896 22.5674 9.95068 24.6084 9.95068C28.1318 9.95068 30.8496 12.7007 30.8496 16.6431C30.8496 21.2407 27.0039 25.7739 20.999 29.6411C20.6768 29.8452 20.2793 30.0493 20 30.0493C19.7314 30.0493 19.3232 29.8452 19.001 29.6411C12.9961 25.7739 9.15039 21.2407 9.15039 16.6431ZM11.3096 16.6431C11.3096 20.4458 15.2734 24.646 19.7959 27.6538C19.8926 27.7183 19.957 27.7612 20 27.7612C20.043 27.7612 20.1074 27.7183 20.2041 27.6538C24.7266 24.646 28.6904 20.4458 28.6904 16.6431C28.6904 13.9146 26.8965 12.0776 24.4902 12.0776C22.5566 12.0776 21.5039 13.27 20.7842 14.2905C20.4619 14.7095 20.2793 14.8599 20 14.8599C19.7207 14.8599 19.5166 14.7202 19.2158 14.2905C18.5391 13.2593 17.4541 12.0776 15.5098 12.0776C13.1035 12.0776 11.3096 13.9146 11.3096 16.6431Z" fill="#C64E0A"/>
</svg>
