<svg width="335" height="463" viewBox="0 0 335 463" fill="none" xmlns="http://www.w3.org/2000/svg">
<g clip-path="url(#clip0_3861_155296)">
<rect y="0.998047" width="335" height="462" rx="8" fill="url(#paint0_linear_3861_155296)"/>
<path d="M10 181.398C10 173.557 10 169.637 11.5259 166.642C12.8681 164.008 15.0099 161.866 17.6441 160.524C20.6389 158.998 24.5593 158.998 32.4 158.998H302.6C310.441 158.998 314.361 158.998 317.356 160.524C319.99 161.866 322.132 164.008 323.474 166.642C325 169.637 325 173.557 325 181.398V384.598C325 392.439 325 396.359 323.474 399.354C322.132 401.988 319.99 404.13 317.356 405.472C314.361 406.998 310.441 406.998 302.6 406.998H32.4C24.5593 406.998 20.6389 406.998 17.6441 405.472C15.0099 404.13 12.8681 401.988 11.5259 399.354C10 396.359 10 392.439 10 384.598V181.398Z" fill="url(#paint1_linear_3861_155296)"/>
<g clip-path="url(#clip1_3861_155296)">
<path d="M165.406 150.748C195.368 120.787 195.368 72.2095 165.406 42.248C135.445 12.2866 86.8677 12.2866 56.9062 42.248C26.9448 72.2095 26.9448 120.787 56.9062 150.748C86.8677 180.709 135.445 180.71 165.406 150.748Z" fill="#EDC142"/>
<path d="M171.051 109.372C158.349 120.524 141.777 126.463 125.101 129.17C115.988 130.645 106.646 131.231 97.5329 129.755C76.2301 126.3 57.2853 110.855 49.6109 90.6868C45.1176 78.8601 44.5985 65.6766 47.6831 53.4199C36.1382 70.4369 31.4224 92.014 36.3755 113.643C45.8442 154.944 86.9964 180.755 128.297 171.286C167.269 162.351 192.443 125.203 187.2 86.3417C183.864 95.1357 178.139 103.159 171.051 109.38V109.372Z" fill="#E2A33E"/>
<path d="M31.3714 88.1587C31.3714 88.1587 31.3269 88.2254 31.3047 88.2477C31.3566 88.1883 31.3714 88.1587 31.3714 88.1587Z" fill="#222221"/>
<path d="M33.6537 77.0234C32.282 76.8009 31.0585 77.624 30.4209 78.7881C30.1984 79.1885 29.9834 79.626 29.8128 80.0486C29.4199 81.0125 29.101 82.021 28.8044 83.0145C28.8044 82.9478 28.8044 82.8885 28.8044 82.8218C28.8044 82.5622 28.8044 82.3027 28.8267 82.0432C28.7748 82.8885 28.8489 81.0496 28.8489 81.4574C28.8489 80.9384 28.8415 80.4268 28.8489 79.9077C28.8489 79.4554 28.8489 79.0105 28.8341 78.5582C28.8193 78.054 28.8637 77.5127 28.7674 77.0234C28.5227 75.7777 27.6848 74.8138 26.3501 74.7619C25.0822 74.7174 24.0219 75.6071 23.7772 76.8454C23.6511 77.4831 23.7179 78.1949 23.7253 78.84C23.7253 79.359 23.7549 79.8632 23.7994 80.3749C23.8884 81.3388 24.0219 82.2879 24.2147 83.237C24.4 84.1713 24.5928 85.1203 24.8597 86.0398C24.2962 85.543 23.666 85.1129 23.0654 84.6903C22.6724 84.4085 22.2868 84.1119 21.8938 83.8302C21.0115 83.1999 20.0475 82.7105 18.9353 82.8366C18.268 82.9107 17.5191 83.2592 17.1113 83.8153C16.7257 84.3344 16.392 85.0684 16.5329 85.7358C16.659 86.3364 16.7776 86.8035 17.1335 87.3151C17.3634 87.6562 17.6451 87.9528 17.9714 88.2049C18.4089 88.546 18.9131 88.8203 19.3876 89.1021C20.0105 89.4803 20.6407 89.8955 21.3229 90.1624C22.1608 90.4961 22.9912 90.763 23.881 90.9187C24.185 90.9706 24.5187 91.0448 24.8301 91.0151C25.0229 92.3498 25.5493 93.5955 26.098 94.8634C26.7579 96.3835 27.5365 97.859 28.3892 99.2826C30.0353 102.011 32.104 104.48 34.4323 106.653C36.7012 108.774 39.4373 110.85 42.5663 111.391C44.3681 111.702 46.2737 111.443 47.8605 110.531C49.4473 109.626 50.3593 108.077 50.7745 106.334C51.1823 104.644 50.6707 102.871 50.122 101.27C49.8403 100.439 49.4769 99.5867 49.0098 98.8378C48.7503 98.4299 48.4314 98.0814 47.9866 97.8738C47.8457 97.8071 47.6974 97.7478 47.5342 97.7181C47.4601 97.7033 46.9856 97.6143 47.1413 97.6736C46.7334 97.5253 46.3553 97.7404 46.2515 98.1556C46.3108 98.074 46.296 98.0963 46.207 98.2223C46.0513 98.4151 45.9549 98.6376 45.9104 98.8822C45.7992 99.3271 45.8437 99.7127 45.9178 100.158C46.0365 100.884 46.1625 101.589 46.1996 102.323C46.2144 102.642 46.1996 102.931 46.1551 103.25C46.1403 103.368 45.9549 104.176 46.029 103.947C46.0142 104.006 45.8659 104.347 45.7843 104.525C45.7102 104.569 45.6435 104.621 45.5693 104.666C46.1403 104.236 45.3469 104.762 45.1318 104.836C45.0206 104.873 44.5461 104.97 44.4274 105.007C44.1753 105.007 43.8565 105.007 43.9232 105.037C43.7898 105.014 43.6563 104.992 43.5228 104.97C43.723 104.992 42.9593 104.792 42.8184 104.733C42.5515 104.614 42.292 104.473 42.0325 104.332C41.9583 104.273 41.4467 103.954 41.3651 103.895C41.0982 103.702 40.8313 103.502 40.5717 103.294C37.8653 101.166 36.4343 99.6608 34.499 96.8135C34.0541 96.161 33.6389 95.4937 33.2385 94.8041C33.1421 94.6336 33.0457 94.463 32.9493 94.2851C32.9345 94.248 32.9196 94.2257 32.8974 94.1813C32.7343 93.8476 32.5712 93.5213 32.4154 93.1877C31.7778 91.8159 31.4219 90.1847 30.6581 88.8574C30.71 88.7907 30.7545 88.7314 30.8138 88.672C30.9325 88.5534 31.3625 88.1011 31.37 88.1233C31.4738 87.9825 31.5627 87.8342 31.6591 87.6933C31.7407 87.5746 31.8148 87.4634 31.8964 87.3448L31.7333 87.456C31.9186 87.1891 32.2227 86.974 32.4229 86.6849C33.5499 85.0684 34.7289 83.4223 35.5593 81.628C35.982 80.7159 36.2415 79.7668 35.8263 78.7733C35.4407 77.8464 34.6621 77.142 33.6537 76.9789V77.0234Z" fill="#222221"/>
<path d="M79.8293 34.7579C78.9247 33.7124 77.4936 33.5048 76.1886 33.3936C75.2543 33.312 74.3127 33.3936 73.3858 33.5196C71.8361 33.7273 70.2271 34.3279 68.9369 35.2028C67.5133 36.1667 66.3195 37.3012 65.3852 38.7619C64.9477 39.4515 64.5918 40.2152 64.2878 40.9715C64.1618 41.2904 64.0728 41.6092 64.0061 41.9429C63.9393 42.284 63.8281 42.6695 63.8133 43.018C63.7984 43.6557 63.9986 44.1896 64.2359 44.7679C64.9996 46.6513 67.6541 46.718 68.974 45.5391C69.6858 44.9088 69.9527 44.0042 70.2938 43.1441C70.3235 43.0773 70.3606 43.0032 70.3902 42.929C70.5163 42.7066 70.6423 42.4767 70.7832 42.2617C70.8944 42.0912 71.0205 41.928 71.1391 41.7649C71.2058 41.6908 71.28 41.6166 71.3467 41.5425C71.5395 41.3497 71.7397 41.1569 71.9473 40.9789C72.0141 40.927 72.0808 40.8677 72.1475 40.8158C72.3403 40.6972 72.5331 40.5711 72.7407 40.4599C72.889 40.3783 73.0447 40.3042 73.2004 40.2375C73.2375 40.2226 73.3265 40.1856 73.3932 40.1559C73.5341 40.1114 73.6824 40.0669 73.8233 40.0298C74.0902 39.9631 74.3497 39.9038 74.6241 39.8667C74.6537 39.8667 74.6982 39.8593 74.7575 39.8519C74.802 39.8519 74.8539 39.8519 74.8762 39.8519C75.1802 39.8445 75.4916 39.8519 75.7956 39.8741C75.8772 39.8741 75.9513 39.889 76.0329 39.8964C76.2183 39.9631 76.7966 40.0224 76.7892 40.0224C77.2637 40.104 77.7828 40.1188 78.2425 39.9557C79.3177 39.5701 80.1704 38.9844 80.5263 37.8425C80.8748 36.7377 80.5633 35.618 79.8219 34.7653L79.8293 34.7579Z" fill="#222221"/>
<path d="M134.765 26.2388C134.409 25.5418 133.846 25.045 133.267 24.5482C132.667 24.0366 132.051 23.5324 131.391 23.1023C128.907 21.4933 125.949 20.7444 123.013 21.167C121.315 21.4117 119.78 22.1977 118.43 23.2358C117.807 23.7177 117.251 24.3035 116.858 24.9857C115.931 26.6169 116.302 29.175 118.378 29.7534C119.765 30.139 120.87 29.6422 121.945 28.7746C122.13 28.6263 122.301 28.4558 122.486 28.3001C122.494 28.3001 122.508 28.2853 122.516 28.2778C122.605 28.2185 122.701 28.1518 122.723 28.1444C122.916 28.0332 123.116 27.9442 123.309 27.8404C123.383 27.8181 123.45 27.7959 123.524 27.7736C123.724 27.7217 123.932 27.6847 124.132 27.6476C124.273 27.6476 124.451 27.6253 124.57 27.6253C124.859 27.6253 125.141 27.6698 125.43 27.6847C125.474 27.6921 125.511 27.6995 125.556 27.7143C125.838 27.781 126.119 27.8626 126.394 27.959C126.527 28.0035 126.661 28.0628 126.794 28.1073C127.246 28.3594 127.699 28.6041 128.121 28.9007C128.299 29.0267 128.47 29.1676 128.648 29.3011C128.759 29.4049 128.87 29.5013 128.974 29.5977C130.02 30.569 131.191 31.3402 132.711 30.9398C134.75 30.3985 135.707 28.0851 134.75 26.2239L134.765 26.2388Z" fill="#222221"/>
<path d="M85.2217 61.949C84.3986 59.2352 82.3373 56.6549 79.364 56.3286C77.3471 56.1062 75.2562 56.9885 74.3145 58.8793C73.6694 60.1621 73.5211 61.6302 73.4173 63.039C73.269 65.1152 73.6027 67.3396 74.3515 69.2897C74.8261 70.528 75.3674 71.6773 76.2127 72.7005C77.1024 73.7831 78.2814 74.7174 79.705 74.9398C81.5068 75.2216 83.3754 74.7025 84.5543 73.2492C85.5776 71.9961 85.9335 70.5725 86.0373 68.9857C86.0892 68.1404 86.0225 67.2729 85.9112 66.435C85.8816 66.2051 85.8445 65.9753 85.8074 65.7454C85.8074 65.6713 85.7926 65.5897 85.7926 65.5082C85.711 64.3218 85.5702 63.0983 85.2291 61.9565L85.2217 61.949Z" fill="#222221"/>
<path d="M135.831 50.3489C135.008 47.6351 132.947 45.0548 129.973 44.7285C127.957 44.5061 125.866 45.3884 124.924 47.2792C124.279 48.562 124.13 50.0301 124.027 51.4389C123.878 53.5151 124.212 55.7395 124.961 57.6896C125.435 58.9279 125.977 60.0772 126.822 61.1004C127.712 62.183 128.891 63.1173 130.314 63.3397C132.116 63.6215 133.985 63.1024 135.164 61.6491C136.187 60.396 136.543 58.9724 136.647 57.3856C136.699 56.5403 136.632 55.6728 136.521 54.8349C136.491 54.605 136.454 54.3752 136.417 54.1453C136.417 54.0712 136.402 53.9896 136.402 53.9081C136.32 52.7217 136.18 51.4982 135.838 50.3564L135.831 50.3489Z" fill="#222221"/>
<path d="M136.65 73.8839C136.65 73.8839 136.62 73.8543 136.605 73.832C136.694 73.9507 136.702 73.9581 136.65 73.8839Z" fill="#222221"/>
<path d="M147.149 70.0444C145.696 69.3325 144.131 68.5688 142.478 68.5762C140.928 68.5762 139.467 69.1027 138.229 70.0295C137.695 70.4299 137.221 70.9267 136.85 71.4754C136.605 71.8387 136.494 72.1798 136.42 72.6099C136.383 72.8175 136.346 73.0029 136.368 73.2179C136.368 73.381 136.412 73.5367 136.494 73.685C136.568 73.7888 136.613 73.8482 136.642 73.8926C136.872 74.2189 137.228 74.3894 137.628 74.3079C137.747 74.2856 137.94 74.2411 137.977 74.2337C138.185 74.1596 138.325 74.0261 138.496 73.8926C138.696 73.7369 138.889 73.5812 139.067 73.4033C139.245 73.2179 139.43 73.0399 139.623 72.8694C139.66 72.8323 139.69 72.8101 139.705 72.7953C139.727 72.7804 139.757 72.7656 139.794 72.7434C139.883 72.6914 139.964 72.6321 140.053 72.5802C140.246 72.469 140.453 72.3726 140.661 72.2836C140.72 72.2614 140.906 72.2021 140.928 72.1947C140.995 72.1798 141.062 72.165 141.121 72.1428C141.054 72.2688 141.002 72.3949 140.958 72.5283C140.617 73.6183 140.876 74.6564 141.002 75.7538C141.002 75.7908 141.024 76.0059 141.039 76.1319C141.047 76.258 141.062 76.4582 141.069 76.4952C141.099 76.9624 141.121 77.4295 141.136 77.8892C141.173 79.4983 141.121 81.1073 140.943 82.7015C140.906 83.0648 140.861 83.4207 140.809 83.784C140.78 83.9916 140.75 84.1918 140.72 84.3994C140.72 84.4217 140.706 84.5032 140.691 84.5774C140.542 85.3782 140.357 86.1716 140.149 86.965C139.734 88.5147 139.215 90.0421 138.578 91.5177C138.563 91.5473 138.466 91.7772 138.414 91.8884C138.377 91.97 138.318 92.0886 138.325 92.0886C138.14 92.4668 137.955 92.8449 137.755 93.2157C137.354 93.972 136.924 94.706 136.457 95.4253C135.449 96.975 134.752 97.8425 133.521 99.0437C132.334 100.2 131.289 101.016 130.095 101.772C128.642 102.699 127.114 103.522 125.542 104.241C119.877 106.837 113.389 108.068 107.013 108.157C100.858 108.245 94.8524 106.674 89.5582 103.522C86.7925 101.876 84.1973 99.9705 82.0025 97.6126C80.9348 96.4708 79.9115 95.2621 79.0143 93.9794C78.0578 92.6076 77.4127 90.9912 76.1671 89.879C76.2783 89.8271 76.3821 89.7678 76.4933 89.7085C76.7009 89.5898 76.8863 89.4415 77.1013 89.3451C77.9021 88.967 78.6807 88.4998 78.5027 87.4469C78.3767 86.7055 77.5759 86.1197 76.8789 85.9269C76.219 85.7489 75.4404 85.66 74.7805 85.8676C73.6386 86.2161 72.5857 86.8167 71.733 87.6545C70.3094 89.0559 69.2713 90.9096 68.9005 92.8746C68.6484 94.2389 68.5817 95.9146 69.5975 97.0046C70.1981 97.6497 71.0731 98.0427 71.9184 97.583C72.6821 97.1678 73.0751 96.2038 73.1789 95.3882C73.1937 95.2547 73.2011 95.099 73.216 94.9507C73.216 94.9507 73.216 94.9507 73.216 94.9433C73.2753 94.6764 73.3272 94.402 73.3643 94.1277C73.3939 93.9275 73.5496 93.275 73.3643 94.0313C73.4236 93.8088 73.4606 93.579 73.52 93.3565C73.5793 93.1489 73.646 92.9487 73.7127 92.7485C73.7869 92.5483 74.1428 91.9329 73.7572 92.5854C73.861 92.4 73.9649 92.2147 74.0612 92.0293C74.1354 92.3333 74.2318 92.6447 74.3801 92.971C74.7286 93.7347 75.1142 94.491 75.5294 95.2251C76.3228 96.6265 77.22 97.9834 78.221 99.2439C80.2081 101.735 82.5957 104.101 85.2057 105.939C90.878 109.936 97.4253 111.975 104.254 112.887C111.425 113.844 118.936 112.635 125.72 110.218C129.391 108.913 132.809 107.259 135.908 104.879C138.874 102.603 141.232 99.6072 142.982 96.315C144.969 92.5631 146.244 88.574 146.89 84.3772C147.186 82.4271 147.327 80.4548 147.26 78.4824C147.223 77.385 147.127 76.2802 147.008 75.1902C146.993 75.0345 146.964 74.8862 146.949 74.7305C147.579 75.1458 148.232 75.5017 148.988 75.6055C149.811 75.7241 150.664 74.8788 150.656 74.078C150.634 72.1279 148.728 70.8377 147.134 70.0666L147.149 70.0444Z" fill="#222221"/>
<path d="M137.637 74.3066C137.482 74.3363 137.534 74.3289 137.637 74.3066V74.3066Z" fill="#222221"/>
<path d="M156.095 57.5301C154.516 56.0768 151.572 55.7653 149.681 56.1954C148.45 56.4772 147.36 56.9072 146.337 57.6561C145.01 58.6275 143.942 60.1475 144.172 61.8677C144.424 63.7288 146.122 64.9078 147.894 65.0783C149.548 65.2341 151.713 64.9078 153.292 64.4407C155.264 63.8623 157.57 61.7194 157.126 59.3541C156.985 58.6126 156.614 58.012 156.095 57.5375V57.5301Z" fill="#D37360"/>
<path d="M66.384 78.0911C64.8047 76.6378 61.861 76.3264 59.9702 76.7564C58.7393 77.0382 57.6494 77.4683 56.6261 78.2171C55.2989 79.1885 54.2311 80.7085 54.461 82.4288C54.7131 84.2899 56.4111 85.4688 58.1832 85.6394C59.8367 85.7951 62.0019 85.4688 63.5812 85.0017C65.5535 84.4233 67.8596 82.2805 67.4147 79.9151C67.2738 79.1737 66.903 78.5731 66.384 78.0985V78.0911Z" fill="#D37360"/>
<path d="M135.208 47.8237C135.208 47.8237 135.194 47.7866 135.186 47.7644C135.186 47.757 135.186 47.7422 135.186 47.7347C135.134 47.4604 135.03 47.2231 134.897 46.9933C134.823 46.8598 134.749 46.7263 134.645 46.6077C134.43 46.2518 134.141 45.97 133.777 45.7624C133.429 45.5251 133.051 45.3917 132.635 45.3546C132.22 45.2434 131.805 45.2508 131.382 45.3546C131.115 45.451 130.849 45.5548 130.589 45.6512C130.1 45.9181 129.707 46.2889 129.41 46.756C129.299 47.0007 129.18 47.2454 129.069 47.4901C128.898 48.0388 128.876 48.5874 129.002 49.1436C129.002 49.1584 129.002 49.1732 129.01 49.188C129.084 49.4698 129.195 49.7516 129.321 50.0185C129.388 50.1446 129.469 50.2558 129.566 50.3596C129.699 50.6043 129.885 50.8045 130.122 50.9528C130.315 51.153 130.537 51.2939 130.804 51.3828C130.93 51.4422 131.056 51.5015 131.182 51.5534C131.219 51.5682 131.953 51.6943 131.998 51.6943C131.998 51.6943 132.005 51.6943 132.013 51.6943C132.027 51.6943 132.035 51.6943 132.05 51.6943C132.109 51.6943 132.828 51.6275 132.888 51.6201H132.902C132.902 51.6201 132.91 51.6201 132.917 51.6201C132.917 51.6201 132.925 51.6201 132.932 51.6201L133.696 51.3309C133.696 51.3309 133.718 51.3235 133.725 51.3161C134.089 51.1381 134.378 50.886 134.608 50.5598C134.882 50.278 135.068 49.9444 135.179 49.5588C135.223 49.2993 135.268 49.0472 135.312 48.7876C135.312 48.7135 135.312 48.6394 135.312 48.5652C135.334 48.3576 135.312 48.15 135.223 47.8163L135.208 47.8237Z" fill="white"/>
<path d="M129.116 60.0384C128.99 59.8085 128.812 59.6157 128.59 59.4749C128.471 59.423 128.36 59.3711 128.241 59.3117C127.981 59.2302 127.722 59.2228 127.455 59.2821C127.255 59.3192 127.069 59.4081 126.921 59.5416C126.751 59.6454 126.617 59.7789 126.521 59.9568C126.41 60.12 126.343 60.3053 126.328 60.4981C126.276 60.6909 126.276 60.8911 126.328 61.0913L126.469 61.4694C126.595 61.6993 126.773 61.8921 126.995 62.033C127.114 62.0849 127.225 62.1442 127.344 62.1961C127.603 62.2777 127.863 62.2851 128.13 62.2258C128.33 62.1887 128.515 62.0997 128.664 61.9662C128.834 61.8624 128.968 61.729 129.064 61.551C129.175 61.3879 129.242 61.2025 129.257 61.0097C129.309 60.8169 129.309 60.6167 129.257 60.4165L129.116 60.0384Z" fill="white"/>
<path d="M83.7241 59.6206C83.7241 59.6206 83.7092 59.5835 83.7018 59.5613C83.7018 59.5539 83.7018 59.539 83.7018 59.5316C83.6499 59.2573 83.5461 59.02 83.4126 58.7901C83.3385 58.6567 83.2643 58.5232 83.1605 58.4046C82.9455 58.0486 82.6563 57.7669 82.293 57.5593C81.9445 57.322 81.5663 57.1885 81.1511 57.1515C80.7359 57.0402 80.3207 57.0477 79.898 57.1515C79.6311 57.2479 79.3641 57.3517 79.1046 57.448C78.6153 57.715 78.2223 58.0857 77.9257 58.5529C77.8144 58.7975 77.6958 59.0422 77.5846 59.2869C77.414 59.8356 77.3918 60.3843 77.5179 60.9404C77.5179 60.9553 77.5179 60.9701 77.5253 60.9849C77.5994 61.2667 77.7106 61.5484 77.8367 61.8154C77.9034 61.9414 77.985 62.0527 78.0814 62.1565C78.2149 62.4011 78.4002 62.6013 78.6375 62.7496C78.8303 62.9498 79.0527 63.0907 79.3197 63.1797C79.4457 63.239 79.5718 63.2983 79.6978 63.3502C79.7349 63.3651 80.469 63.4911 80.5134 63.4911C80.5134 63.4911 80.5209 63.4911 80.5283 63.4911C80.5431 63.4911 80.5505 63.4911 80.5653 63.4911C80.6247 63.4911 81.3439 63.4244 81.4032 63.417H81.4181C81.4181 63.417 81.4255 63.417 81.4329 63.417C81.4329 63.417 81.4403 63.417 81.4477 63.417L82.2114 63.1278C82.2114 63.1278 82.2337 63.1204 82.2411 63.113C82.6044 62.935 82.8936 62.6829 83.1235 62.3567C83.3978 62.0749 83.5832 61.7412 83.6944 61.3557C83.7389 61.0961 83.7834 60.844 83.8279 60.5845C83.8279 60.5104 83.8279 60.4362 83.8279 60.3621C83.8501 60.1545 83.8279 59.9468 83.7389 59.6132L83.7241 59.6206Z" fill="white"/>
<path d="M77.6238 71.847C77.4977 71.6171 77.3198 71.4243 77.0973 71.2835C76.9787 71.2316 76.8675 71.1797 76.7488 71.1203C76.4893 71.0388 76.2298 71.0314 75.9629 71.0907C75.7627 71.1277 75.5773 71.2167 75.429 71.3502C75.2584 71.454 75.125 71.5875 75.0286 71.7654C74.9174 71.9286 74.8506 72.1139 74.8358 72.3067C74.7839 72.4995 74.7839 72.6997 74.8358 72.8999L74.9767 73.278C75.1027 73.5079 75.2807 73.7007 75.5031 73.8416C75.6218 73.8935 75.733 73.9528 75.8516 74.0047C76.1112 74.0863 76.3707 74.0937 76.6376 74.0344C76.8378 73.9973 77.0232 73.9083 77.1715 73.7748C77.342 73.671 77.4755 73.5376 77.5719 73.3596C77.6831 73.1965 77.7498 73.0111 77.7647 72.8183C77.8166 72.6255 77.8166 72.4253 77.7647 72.2251L77.6238 71.847Z" fill="white"/>
<path d="M182.576 76.6578C182.197 75.6419 181.434 75.0858 180.462 74.6706C179.469 74.2405 178.201 74.6854 177.444 75.3602C176.043 76.6207 176.466 78.163 176.332 79.7646C176.325 79.861 176.31 79.9573 176.303 80.0537C176.251 80.2465 176.221 80.4541 176.169 80.6321C176.058 81.0177 175.791 81.4626 175.724 81.8555C175.695 81.9074 175.672 81.9593 175.643 82.0112C175.517 82.2411 175.391 82.4636 175.242 82.6786C175.138 82.8417 174.938 83.0345 174.834 83.2124C174.82 83.2273 174.812 83.2347 174.797 83.2495C174.76 83.2866 174.412 83.598 174.264 83.7315C174.182 83.7834 174.1 83.8279 174.019 83.8798C173.922 83.9391 173.841 84.0058 173.752 84.0651C173.67 84.0874 173.567 84.1171 173.455 84.1615C173.448 84.1541 173.433 84.1393 173.426 84.1319C173.285 83.9836 173.159 83.8279 173.018 83.6722C172.929 83.5758 172.825 83.4645 172.736 83.3533C172.684 83.2347 172.566 82.99 172.536 82.9307C172.306 82.4487 172.054 81.9668 171.809 81.4922C171.349 80.595 171.031 79.4235 170.756 78.3113C170.608 77.7255 170.489 77.1249 170.386 76.5317C170.274 75.8866 170.237 75.1451 169.852 74.589C169.34 73.8475 168.243 73.6622 167.709 74.5149C167.079 75.5233 167.249 76.9988 167.308 78.1407C167.368 79.3567 167.486 80.5654 167.687 81.7666C167.865 82.8269 167.939 83.8946 168.309 84.9104C168.309 84.8956 168.524 85.6519 168.502 85.4814C168.502 85.4888 168.502 85.4962 168.502 85.5036C168.613 85.8595 168.747 86.208 168.888 86.5491C169.103 87.0756 169.466 87.5575 169.844 87.9802C170.215 88.3954 170.675 88.781 171.149 89.0702C171.468 89.2555 171.824 89.4186 172.165 89.5521C172.254 89.5892 172.343 89.6188 172.439 89.6485C172.484 89.6633 172.514 89.6707 172.543 89.6782C172.573 89.693 172.603 89.7078 172.632 89.7226C174.093 90.3974 176.028 90.1008 177.415 89.3148C179.624 88.0543 181.211 85.9559 182.153 83.6277C182.62 82.471 182.872 81.1956 182.961 79.9573C183.006 79.3197 182.968 78.6968 182.917 78.0592C182.872 77.5401 182.753 77.1397 182.568 76.6503L182.576 76.6578Z" fill="#E2A33E"/>
<path d="M181.668 58.7471C181.668 58.7471 181.727 58.799 181.757 58.8138C181.69 58.7693 181.668 58.7471 181.668 58.7471Z" fill="#222221"/>
<path d="M176.347 48.6898C177.6 48.0892 179.001 48.5415 179.943 49.4758C180.269 49.802 180.595 50.158 180.885 50.5139C181.53 51.3221 182.123 52.2119 182.686 53.0794C182.672 53.0201 182.649 52.9533 182.635 52.894C182.56 52.6493 182.486 52.3972 182.397 52.1525C182.679 52.9459 182.093 51.2109 182.212 51.5964C182.064 51.0996 181.93 50.6028 181.782 50.1135C181.656 49.6834 181.53 49.2459 181.418 48.8085C181.292 48.3191 181.092 47.8149 181.048 47.3181C180.937 46.0502 181.47 44.8934 182.738 44.4708C183.94 44.0704 185.207 44.6265 185.793 45.7536C186.09 46.3319 186.231 47.0289 186.401 47.6518C186.542 48.1485 186.661 48.6453 186.757 49.1495C186.943 50.0986 187.076 51.0477 187.165 52.0117C187.247 52.9533 187.328 53.9247 187.328 54.8812C187.729 54.2509 188.218 53.6503 188.67 53.0794C188.974 52.7012 189.256 52.3083 189.553 51.9301C190.22 51.0774 191.013 50.3359 192.118 50.1431C192.778 50.0319 193.594 50.158 194.142 50.5732C194.661 50.9662 195.18 51.5816 195.24 52.2564C195.292 52.8718 195.306 53.3463 195.106 53.9395C194.98 54.3325 194.795 54.6958 194.55 55.0295C194.224 55.4744 193.816 55.8822 193.445 56.29C192.949 56.8313 192.467 57.4096 191.888 57.8545C191.176 58.4107 190.457 58.9 189.649 59.3004C189.367 59.4413 189.071 59.6044 188.767 59.6563C188.959 60.991 188.804 62.3331 188.626 63.7048C188.418 65.3509 188.084 66.9822 187.669 68.5838C186.861 71.6683 185.556 74.6194 183.932 77.3555C182.345 80.0248 180.306 82.7831 177.452 84.1845C175.813 84.9928 173.907 85.2745 172.128 84.8445C170.348 84.4144 169.036 83.1835 168.153 81.6339C167.293 80.1212 167.278 78.2749 167.36 76.5844C167.397 75.702 167.508 74.7826 167.746 73.9373C167.879 73.4776 168.094 73.0475 168.457 72.7287C168.576 72.6248 168.702 72.521 168.843 72.4469C168.91 72.4098 169.34 72.1948 169.206 72.2986C169.555 72.0391 169.977 72.1355 170.192 72.5062C170.111 72.4395 170.133 72.4617 170.252 72.5581C170.452 72.699 170.608 72.8844 170.719 73.1068C170.949 73.5072 171.016 73.8854 171.067 74.3303C171.156 75.0569 171.231 75.7761 171.408 76.488C171.483 76.7994 171.579 77.0737 171.713 77.3629C171.764 77.4741 172.165 78.2008 172.031 78.0006C172.061 78.0525 172.306 78.3343 172.424 78.49C172.506 78.5196 172.587 78.5419 172.669 78.5641C172.002 78.312 172.914 78.5938 173.136 78.6012C173.255 78.6012 173.737 78.5641 173.855 78.5715C174.1 78.5048 174.404 78.4158 174.345 78.4603C174.463 78.401 174.589 78.3491 174.708 78.2824C174.523 78.3565 175.205 77.9561 175.316 77.8597C175.539 77.6743 175.746 77.4667 175.954 77.2517C176.006 77.1775 176.413 76.7252 176.473 76.6511C176.68 76.3916 176.873 76.1246 177.066 75.8503C179.068 73.0475 180.017 71.2086 181.077 67.9313C181.322 67.1824 181.537 66.4187 181.723 65.6475C181.767 65.4547 181.811 65.2619 181.856 65.0692C181.863 65.0321 181.871 65.0024 181.878 64.9505C181.945 64.5872 182.012 64.2239 182.064 63.8605C182.293 62.3627 182.175 60.7018 182.538 59.2115C182.471 59.167 182.405 59.1151 182.338 59.078C182.19 58.9964 181.656 58.685 181.648 58.7072C181.515 58.6034 181.381 58.4848 181.248 58.3736C181.137 58.2846 181.033 58.1956 180.922 58.1066C180.981 58.1289 181.048 58.1511 181.107 58.1734C180.848 57.9658 180.499 57.8471 180.232 57.6321C178.697 56.3938 177.103 55.1481 175.798 53.6578C175.138 52.9014 174.627 52.0636 174.745 50.9958C174.856 50.0022 175.405 49.1051 176.332 48.6602L176.347 48.6898Z" fill="#222221"/>
<path d="M47.126 128.392C47.0073 128.229 46.9109 128.058 46.7626 127.917C46.6811 127.836 46.5995 127.754 46.5179 127.672C46.3622 127.509 46.2139 127.346 46.0731 127.176C45.9322 127.005 45.7987 126.827 45.643 126.671C45.4873 126.508 45.3242 126.353 45.1536 126.197C45.0127 126.063 44.82 125.952 44.6123 125.9C44.3825 125.796 44.1156 125.774 43.8857 125.908C43.6484 126.049 43.4853 126.301 43.4705 126.568C43.4186 126.746 43.4037 126.938 43.4482 127.101C43.5298 127.398 43.6336 127.687 43.7671 127.962C43.9079 128.258 44.1081 128.51 44.3083 128.77C44.6494 129.2 45.0127 129.645 45.4799 129.934C45.9025 130.193 46.5328 130.164 46.8887 129.793C47.0296 129.652 47.1334 129.482 47.2001 129.296C47.2891 129.052 47.2668 128.614 47.1111 128.399L47.126 128.392Z" fill="#EDC142"/>
<path d="M49.53 129.698C49.53 129.698 49.5077 129.639 49.5003 129.609C49.4781 129.55 49.4558 129.498 49.4336 129.438C49.4633 129.527 49.5003 129.609 49.53 129.698Z" fill="#EDC142"/>
<path d="M51.2606 128.332C51.2161 128.221 51.1568 128.117 51.0901 128.021C51.0085 127.902 50.9343 127.783 50.838 127.68C50.7045 127.531 50.5414 127.442 50.3708 127.398C50.1706 127.264 49.9408 127.153 49.7109 127.086C49.2957 126.975 48.8656 127.153 48.6877 127.546C48.5097 127.932 48.6432 128.391 49.0065 128.621C49.0139 128.621 49.0213 128.636 49.0287 128.636C49.051 128.658 49.0658 128.681 49.0881 128.703C49.1029 128.762 49.1326 128.821 49.1622 128.873C49.1622 128.881 49.177 128.888 49.1845 128.903C49.2734 129.029 49.3476 129.17 49.4069 129.318C49.4366 129.415 49.4736 129.504 49.5107 129.6C49.5626 129.733 49.6145 129.859 49.7257 129.963C49.8295 130.067 49.9482 130.141 50.0816 130.193C50.0891 130.201 50.1039 130.215 50.1113 130.223C50.1113 130.223 50.1113 130.223 50.1113 130.23C50.178 130.379 50.356 130.393 50.482 130.341C50.482 130.341 50.4895 130.341 50.4969 130.341C50.6229 130.327 50.7416 130.267 50.8454 130.186C51.2532 130.008 51.4905 129.6 51.4756 129.148C51.4756 129.007 51.4682 128.866 51.4237 128.732C51.3792 128.592 51.3273 128.458 51.268 128.325L51.2606 128.332Z" fill="#EDC142"/>
<path d="M52.9463 135.528C52.8573 135.446 52.7535 135.364 52.6571 135.29C52.3457 135.023 51.9305 134.883 51.5301 134.875C51.493 134.86 51.4634 134.853 51.4263 134.845C51.367 134.823 51.3076 134.801 51.2483 134.786C51.2187 134.764 51.189 134.742 51.1519 134.719C50.8183 134.497 50.3956 134.438 50.0026 134.504C49.8173 134.519 49.6319 134.564 49.4614 134.653C49.2463 134.771 49.0684 134.934 48.9349 135.142C48.8682 135.253 48.8163 135.364 48.7792 135.483C48.7644 135.528 48.7347 135.565 48.7199 135.609C48.6457 135.817 48.6309 136.032 48.668 136.247C48.668 136.469 48.7273 136.677 48.8385 136.877C48.8459 136.899 48.8608 136.922 48.8682 136.944C48.8978 137.011 48.9275 137.07 48.9646 137.137C49.1054 137.389 49.276 137.633 49.4836 137.841C49.5429 137.908 49.6171 137.967 49.6912 138.019C49.7579 138.078 49.8321 138.138 49.9062 138.19C50.062 138.279 50.2325 138.345 50.3956 138.419C50.4549 138.449 50.5143 138.471 50.581 138.486C50.8405 138.553 51.1223 138.612 51.3892 138.605C51.6487 138.627 51.8934 138.583 52.1233 138.471C52.3606 138.405 52.5756 138.279 52.7535 138.101C52.8573 137.974 52.9537 137.856 53.0575 137.73C53.0575 137.73 53.0575 137.715 53.065 137.708C53.0872 137.67 53.1243 137.648 53.1465 137.611C53.2281 137.478 53.2874 137.344 53.3319 137.196C53.5024 136.655 53.3838 135.935 52.9537 135.535L52.9463 135.528Z" fill="#EDC142"/>
<path d="M58.7123 135.78C58.5862 135.542 58.4083 135.357 58.1784 135.216C58.1043 135.179 58.0227 135.142 57.9485 135.098C57.7632 134.994 57.5852 134.875 57.385 134.816C57.2367 134.771 57.0884 134.719 56.9475 134.66C56.8956 134.638 56.8437 134.616 56.7992 134.593L56.4359 134.527C56.4359 134.527 56.3766 134.527 56.3544 134.527C55.9762 134.452 55.5758 134.541 55.2866 134.808C54.9678 135.105 54.8714 135.52 54.9455 135.943C54.953 135.987 54.9678 136.032 54.9752 136.076C54.99 136.262 55.0345 136.447 55.1235 136.618C55.1976 136.721 55.2718 136.825 55.3459 136.929C55.3756 136.973 55.4127 137.018 55.4498 137.055C55.5239 137.137 55.598 137.218 55.6796 137.3C55.7167 137.337 55.7538 137.366 55.7983 137.404C56.08 137.641 56.1467 137.715 56.5027 137.841C56.5249 137.848 56.5546 137.856 56.5768 137.863C56.688 137.9 56.8067 137.93 56.9253 137.945C57.1181 138.012 57.3183 138.034 57.5185 137.997C57.7261 137.997 57.9189 137.945 58.1043 137.834C58.2081 137.759 58.3193 137.678 58.4231 137.604C58.5714 137.47 58.6826 137.315 58.7493 137.129C58.8235 137.018 58.8606 136.892 58.868 136.758C58.9199 136.558 58.9199 136.358 58.868 136.158C58.8235 136.032 58.7716 135.906 58.7271 135.772L58.7123 135.78Z" fill="#EDC142"/>
<path d="M163.439 109.834C163.336 109.515 163.195 109.256 162.928 109.033C162.676 108.826 162.394 108.714 162.06 108.692C161.779 108.67 161.46 108.751 161.208 108.885C161.178 108.9 161.148 108.929 161.119 108.944C160.948 109.026 160.778 109.137 160.652 109.256C160.6 109.308 160.548 109.359 160.496 109.411C160.429 109.471 160.362 109.523 160.296 109.574C160.118 109.686 159.932 109.804 159.784 109.945C159.71 110.019 159.621 110.086 159.539 110.153C159.502 110.175 159.465 110.205 159.421 110.227C159.146 110.39 158.968 110.598 158.813 110.865C158.679 111.095 158.627 111.332 158.65 111.599C158.672 111.836 158.761 112.14 158.954 112.296C159.183 112.489 159.354 112.637 159.643 112.741C159.836 112.815 160.058 112.807 160.266 112.8C160.607 112.778 160.956 112.748 161.289 112.666C161.756 112.548 162.149 112.244 162.52 111.947C162.883 111.658 163.224 111.28 163.351 110.828C163.484 110.509 163.551 110.168 163.439 109.834Z" fill="#E2A33E"/>
<path d="M166.475 102.796C166.445 102.744 166.408 102.707 166.371 102.662C166.245 102.492 166.126 102.336 165.926 102.21C165.793 102.128 165.674 102.076 165.533 102.039C165.422 102.01 165.303 101.995 165.185 101.973C164.933 101.928 164.68 101.928 164.436 102.01C164.25 102.076 164.058 102.143 163.88 102.225C163.531 102.38 163.301 102.677 163.079 102.974C162.997 103.085 162.923 103.204 162.864 103.33C162.812 103.433 162.767 103.537 162.716 103.648C162.656 103.826 162.641 103.997 162.671 104.175C162.701 104.464 162.805 104.775 163.02 104.983C163.19 105.146 163.383 105.272 163.605 105.346C163.917 105.458 164.376 105.413 164.658 105.243C164.71 105.213 164.762 105.191 164.814 105.168C164.829 105.168 164.851 105.161 164.866 105.154C165.103 105.094 165.274 104.99 165.481 104.894C165.867 104.716 166.215 104.405 166.416 104.019C166.497 103.9 166.542 103.767 166.564 103.634C166.608 103.567 166.623 103.493 166.601 103.411C166.601 103.478 166.601 103.426 166.586 103.255C166.586 103.085 166.542 102.929 166.453 102.781L166.475 102.796Z" fill="#E2A33E"/>
<path d="M171.495 103.151C171.487 103.099 171.472 103.055 171.458 103.003C171.443 102.951 171.428 102.899 171.413 102.855C171.361 102.707 171.309 102.618 171.22 102.529C171.213 102.484 171.198 102.44 171.191 102.395C171.131 102.173 170.842 102.128 170.716 102.314C170.701 102.336 170.686 102.351 170.672 102.373C170.597 102.388 170.523 102.417 170.449 102.454C170.42 102.469 170.39 102.484 170.36 102.499C170.308 102.499 170.256 102.499 170.197 102.506C170.034 102.543 169.967 102.588 169.849 102.647C169.797 102.677 169.745 102.699 169.685 102.729C169.448 102.847 169.3 103.025 169.115 103.188C168.825 103.433 168.61 103.722 168.373 104.012C168.432 103.937 168.492 103.863 168.551 103.796C168.41 103.96 168.284 104.1 168.217 104.316C168.195 104.375 168.195 104.442 168.188 104.508C168.025 104.82 168.136 105.198 168.462 105.361C168.662 105.569 168.937 105.695 169.226 105.702C169.307 105.702 169.381 105.702 169.463 105.695C169.611 105.68 169.752 105.68 169.893 105.643C170.027 105.606 170.153 105.546 170.279 105.494C170.464 105.42 170.597 105.339 170.761 105.198C170.961 105.027 171.198 104.805 171.332 104.582C171.569 104.182 171.702 103.581 171.502 103.144L171.495 103.151Z" fill="#E2A33E"/>
<path d="M157.075 39.3982C156.63 37.5815 155.051 36.5657 153.546 35.6537C152.471 35.0012 151.351 34.4228 150.217 33.8667C149.03 33.2809 147.837 32.6952 146.643 32.1168C145.011 31.316 143.299 30.7228 141.519 31.4198C140.548 31.798 139.932 32.6655 140.199 33.7407C140.963 36.8104 144.381 37.9597 146.88 39.324C147.948 39.9024 149.015 40.503 150.039 41.1629C150.513 41.4669 150.98 41.7932 151.433 42.1342C152.278 42.7571 153.197 43.0463 154.235 43.1056C156.193 43.2242 157.491 41.1481 157.061 39.3982H157.075Z" fill="#FCE96B"/>
<path d="M163.153 47.4437C163.138 47.3251 163.123 47.1768 163.101 47.0508C163.056 46.8506 162.923 46.6059 162.834 46.4205C162.678 46.0868 162.508 45.7828 162.241 45.5085C162.115 45.3824 161.981 45.2638 161.84 45.1451C161.774 45.0932 161.714 45.0413 161.648 44.9894C161.484 44.8634 161.314 44.6928 161.136 44.5964C160.921 44.4704 160.698 44.4037 160.461 44.3592C160.498 44.3592 160.543 44.3666 160.58 44.374C160.498 44.3592 160.424 44.3221 160.343 44.2924C159.987 44.1738 159.586 44.159 159.223 44.2628C159.156 44.2702 159.089 44.2702 159.023 44.2924C158.756 44.3666 158.526 44.5001 158.333 44.6928C158.088 44.9375 157.955 45.2415 157.91 45.5678C157.799 45.9311 157.822 46.3241 157.918 46.6948C157.933 46.7393 157.94 46.7838 157.948 46.8209C157.992 47.0582 158.059 47.2732 158.192 47.5327C158.222 47.592 158.252 47.6439 158.281 47.7033C158.341 47.8145 158.392 47.9257 158.444 48.0369C158.467 48.0888 158.489 48.1407 158.518 48.1926C158.63 48.4447 158.711 48.5189 158.949 48.8006C158.949 48.8006 158.949 48.8081 158.956 48.8155C159.082 48.9934 159.201 49.1714 159.371 49.3049C159.764 49.6089 159.898 49.7646 160.387 49.898C160.609 49.9574 160.802 49.9796 160.995 49.9796C161.025 49.9796 161.054 49.9796 161.077 49.9796C161.418 49.9648 161.811 49.898 162.1 49.7053C162.382 49.5199 162.663 49.2752 162.826 48.9712C162.834 48.9564 162.841 48.9341 162.849 48.9193C162.96 48.7413 163.042 48.556 163.101 48.3632C163.205 48.0073 163.19 47.7774 163.145 47.4437H163.153Z" fill="#FCE96B"/>
<path d="M62.1089 27.5108C61.7604 27.1104 61.3007 26.8361 60.878 26.5098C61.0189 26.621 61.1672 26.7323 61.3081 26.8435C61.0337 26.6285 60.7816 26.4134 60.4702 26.2651C60.2997 26.1836 60.0995 26.0798 59.9215 26.0279C59.751 25.9834 59.4989 25.9611 59.3209 25.9537C59.0243 25.9389 58.75 26.0056 58.4905 26.1242C58.2235 26.1984 57.9714 26.3244 57.7935 26.5246C57.5191 26.8287 57.267 27.2587 57.3115 27.6814C57.2522 28.1559 57.3337 28.6527 57.5784 29.0679C57.6971 29.2755 57.9418 29.5647 58.1345 29.7575C58.3125 29.9429 58.6239 30.1357 58.8612 30.3062C58.965 30.3804 59.0762 30.4545 59.18 30.5286C59.6397 30.8401 60.2774 31.0254 60.8335 31.0403C61.4119 31.0551 61.9828 31.0032 62.4277 30.6176C62.576 30.5064 62.7021 30.3804 62.7985 30.2246C62.9097 30.0319 62.9542 29.8317 62.9616 29.6315C63.0654 28.8603 62.5908 28.0743 62.1015 27.5108H62.1089Z" fill="#EDC142"/>
<path d="M67.7187 24.4142C67.6964 24.3623 67.6816 24.3104 67.6668 24.2659C67.6074 23.9174 67.4814 23.569 67.3257 23.2946C67.3034 23.2501 67.2738 23.2056 67.2515 23.1537C67.1922 23.0277 67.1477 22.9684 67.0439 22.8349C66.9994 22.7756 66.9475 22.7162 66.8956 22.6569C66.866 22.6199 66.8437 22.5828 66.814 22.5457C66.5768 22.175 66.2357 21.8487 65.813 21.7004C65.7241 21.6485 65.6277 21.604 65.509 21.5744C65.383 21.5373 65.2421 21.515 65.1086 21.515C64.8565 21.4631 64.5896 21.5373 64.3746 21.6856C64.3894 21.6708 64.4042 21.6633 64.4265 21.6485C64.1225 21.7746 63.8852 22.0118 63.7147 22.2936C63.6553 22.39 63.6108 22.5012 63.5664 22.6124C63.5145 22.7237 63.47 22.8349 63.4403 22.9387C63.3439 23.2427 63.3587 23.6431 63.4551 23.9545C63.4774 24.0287 63.507 24.0954 63.5293 24.1621C63.6924 24.5774 63.8704 25.0593 64.204 25.3782C64.2633 25.4375 64.3301 25.4894 64.3894 25.5413C64.5303 25.6525 64.7082 25.8231 64.8343 25.8824C64.99 25.9639 65.168 26.0233 65.3237 26.09C65.3904 26.1122 65.4571 26.1419 65.5239 26.1641C65.6648 26.2086 65.8946 26.2383 66.0429 26.2383C66.0652 26.2383 66.0874 26.2309 66.1022 26.2309C66.1764 26.2309 66.2505 26.2383 66.3173 26.2457C66.7621 26.2679 67.1774 26.0233 67.4369 25.6822C67.6964 25.3485 67.8447 24.8517 67.689 24.4365L67.7187 24.4142Z" fill="#EDC142"/>
<path d="M133.05 14.9454C132.798 14.8194 132.554 14.7378 132.272 14.7378C131.738 14.7378 131.204 15.027 130.945 15.5015C130.678 15.9761 130.596 16.5173 130.433 17.029C130.351 17.2811 130.248 17.5183 130.211 17.7853C130.174 18.0374 130.174 18.2895 130.144 18.549C130.122 18.7492 130.218 19.0236 130.314 19.1941C130.455 19.4314 130.67 19.6093 130.922 19.7131C131.412 19.9207 131.923 19.7947 132.316 19.4462C132.517 19.2757 132.702 19.1051 132.865 18.8975C133.028 18.6825 133.132 18.4378 133.243 18.1857C133.503 17.5925 133.814 16.9474 133.807 16.2801C133.799 15.761 133.525 15.1975 133.043 14.9528L133.05 14.9454Z" fill="#EDC142"/>
<path d="M138.876 16.7338C138.757 16.6448 138.638 16.5558 138.52 16.4594C138.32 16.3334 138.105 16.2666 137.875 16.2518C137.482 16.1999 137.118 16.2666 136.762 16.4594C136.273 16.7189 135.991 17.2009 135.85 17.7199C135.821 17.8386 135.776 17.9498 135.732 18.061L135.776 17.9646C135.739 18.061 135.702 18.1648 135.68 18.2761C135.658 18.3576 135.635 18.4392 135.613 18.5208C135.584 18.6246 135.546 18.7284 135.517 18.8322C135.517 18.8322 135.517 18.8322 135.517 18.8396C135.346 19.1362 135.25 19.4624 135.28 19.7887C135.257 20.026 135.294 20.2855 135.42 20.4783C135.584 20.7304 135.799 20.8787 136.08 20.9899C136.088 20.9899 136.103 20.9899 136.11 20.9973C136.688 21.3013 137.348 21.1011 137.882 20.7823C138.156 20.6191 138.438 20.4264 138.638 20.1817C138.95 19.7961 139.239 19.4179 139.343 18.9212C139.395 18.669 139.424 18.4095 139.447 18.1574C139.491 17.6606 139.276 17.0526 138.883 16.7264L138.876 16.7338Z" fill="#EDC142"/>
<path d="M180.759 115.416C180.655 115.253 180.529 115.104 180.403 114.956C180.322 114.889 180.24 114.83 180.151 114.763C180.01 114.674 179.855 114.622 179.692 114.615C179.439 114.578 179.121 114.608 178.906 114.763C178.861 114.793 178.817 114.823 178.765 114.852C178.742 114.867 178.713 114.882 178.683 114.897C178.438 115.045 178.283 115.253 178.112 115.475L178.349 115.164C178.231 115.319 178.09 115.46 177.957 115.609C177.897 115.683 177.83 115.757 177.756 115.824C177.66 115.92 177.571 116.031 177.489 116.142C177.415 116.231 177.341 116.328 177.252 116.409C176.993 116.661 176.778 116.965 176.681 117.314C176.637 117.455 176.607 117.714 176.614 117.863C176.614 117.892 176.614 117.915 176.614 117.944C176.629 118.322 176.74 118.663 176.978 118.967C177.208 119.264 177.489 119.457 177.853 119.568C177.882 119.575 177.919 119.59 177.949 119.598C178.32 119.694 178.394 119.672 178.713 119.627C178.883 119.627 179.039 119.583 179.18 119.501C179.336 119.457 179.477 119.375 179.588 119.264C179.743 119.145 179.884 119.027 180.018 118.878C180.196 118.686 180.359 118.463 180.515 118.256C180.67 118.041 180.759 117.781 180.841 117.529C180.952 117.18 181.011 116.81 180.989 116.439C180.967 116.09 180.937 115.712 180.744 115.416H180.759Z" fill="#EDC142"/>
<path d="M179.415 122.252C179.415 122.252 179.4 122.23 179.393 122.223C179.267 122.067 179.03 121.985 178.844 121.963C178.651 121.933 178.429 121.963 178.251 122.067C178.095 122.126 177.954 122.215 177.836 122.334C177.791 122.378 177.754 122.43 177.71 122.475C177.673 122.519 177.628 122.556 177.584 122.601C177.45 122.727 177.346 122.868 177.228 123.016L177.45 122.727C177.369 122.823 177.287 122.92 177.205 123.009C177.028 123.186 176.887 123.379 176.731 123.579C176.812 123.476 176.894 123.364 176.976 123.261C176.798 123.483 176.583 123.676 176.397 123.891C176.353 123.943 176.308 123.987 176.264 124.032C176.056 124.262 175.915 124.506 175.826 124.81C175.767 125.018 175.723 125.218 175.73 125.426C175.73 125.455 175.722 125.478 175.715 125.5C175.7 125.537 175.678 125.581 175.671 125.604C175.611 125.715 175.619 125.863 175.715 125.952C175.782 126.012 175.849 126.063 175.923 126.115C175.96 126.152 176.012 126.197 176.056 126.227C176.227 126.405 176.449 126.538 176.686 126.612C176.827 126.657 177.02 126.664 177.183 126.679C177.569 126.716 177.94 126.59 178.273 126.397C178.763 126.101 179.081 125.715 179.408 125.255C179.645 124.922 179.771 124.521 179.845 124.121C179.949 123.535 179.912 122.675 179.415 122.26V122.252Z" fill="#EDC142"/>
<path d="M173.636 120.524C173.636 120.465 173.636 120.413 173.629 120.354C173.599 119.924 173.555 119.457 173.191 119.167L173.228 119.219C173.11 119.078 172.984 118.967 172.784 118.908C172.784 118.908 172.769 118.908 172.761 118.908C172.502 118.811 172.22 118.811 171.946 118.871C171.894 118.878 171.849 118.893 171.797 118.908C171.694 118.93 171.597 118.945 171.493 118.96C171.538 118.96 171.582 118.945 171.627 118.945C171.375 118.982 171.167 119.034 170.937 119.175C170.87 119.212 170.811 119.256 170.744 119.293C170.492 119.449 170.24 119.553 170.033 119.79C169.981 119.85 169.929 119.909 169.884 119.968C169.654 120.228 169.469 120.48 169.388 120.828C169.284 121.303 169.299 121.822 169.573 122.237C169.595 122.274 169.825 122.571 169.862 122.608C170.025 122.786 170.225 122.912 170.448 122.986C170.663 123.097 170.9 123.157 171.152 123.142C171.545 123.142 171.886 123.016 172.227 122.838C172.428 122.734 172.62 122.608 172.776 122.437C172.924 122.274 173.05 122.089 173.169 121.911C173.295 121.725 173.384 121.548 173.473 121.34C173.577 121.095 173.621 120.902 173.621 120.621C173.621 120.591 173.621 120.554 173.621 120.524H173.636Z" fill="#EDC142"/>
<path d="M171.145 128.07C171.048 127.951 170.959 127.825 170.863 127.699C170.7 127.521 170.507 127.395 170.277 127.321C170.136 127.24 169.98 127.195 169.817 127.195C169.573 127.143 169.335 127.151 169.091 127.225C168.994 127.247 168.905 127.284 168.824 127.321C168.46 127.44 168.297 127.551 168.03 127.773C167.763 127.959 167.689 128.033 167.504 128.218C167.081 128.648 166.696 129.316 166.725 129.939C166.725 129.983 166.711 130.028 166.703 130.079C166.703 130.435 166.792 130.762 166.97 131.066C167.141 131.362 167.378 131.592 167.674 131.77C167.882 131.896 168.112 131.955 168.349 131.992C168.416 132.007 168.475 132.022 168.542 132.03C168.868 132.074 169.061 132.111 169.424 131.985C169.654 131.903 169.899 131.822 170.092 131.703C170.292 131.585 170.485 131.422 170.648 131.244C170.67 131.221 170.692 131.199 170.715 131.169C171.085 130.739 171.085 130.695 171.293 130.161C171.404 129.879 171.471 129.59 171.463 129.279C171.463 128.915 171.33 128.359 171.13 128.048L171.145 128.07Z" fill="#EDC142"/>
<path d="M261.107 150.337L265.85 154.097L258.497 156.343L260.128 150.928L261.107 150.337Z" fill="#5E2E1D"/>
<path d="M259.987 151.87C254.502 153.544 248.861 150.938 247.367 146.049L230.931 92.1449C229.966 88.9863 230.969 85.6575 233.281 83.2507C234.543 81.9126 236.198 80.8723 238.151 80.2718C243.636 78.5979 249.277 81.2033 250.771 86.0925L267.207 139.997C268.517 144.295 266.181 148.929 261.86 151.113C261.269 151.402 260.649 151.662 259.982 151.865L259.987 151.87Z" fill="#5E2E1D"/>
<path d="M261.864 151.119C257.022 151.695 252.388 148.953 250.994 144.381L233.588 87.3036C233.172 85.9512 233.077 84.5705 233.281 83.2513C234.543 81.9131 236.198 80.8729 238.151 80.2724C243.636 78.5985 249.277 81.2039 250.771 86.0931L267.207 139.997C268.517 144.295 266.181 148.929 261.859 151.114L261.864 151.119Z" fill="#7C3B24"/>
<path d="M250.577 85.4553C249.087 80.5698 243.438 77.9638 237.959 79.6347C232.48 81.3056 229.246 86.6206 230.736 91.5061C232.226 96.3916 237.875 98.9975 243.354 97.3266C248.833 95.6557 252.067 90.3407 250.577 85.4553Z" fill="#9F4931"/>
<path d="M243.182 81.3111C243.848 81.1078 244.534 81.4246 244.718 82.0157C244.903 82.6067 244.539 82.9897 243.872 83.1931C243.205 83.3964 242.695 83.2829 242.51 82.6918C242.326 82.1008 242.515 81.5145 243.182 81.3111Z" fill="#D28972"/>
<path d="M239.534 93.4757C239.993 93.3386 240.465 93.6318 240.588 94.0384C240.711 94.445 240.636 94.9084 240.182 95.0503C239.728 95.1921 239.122 95.0976 239 94.6909C238.877 94.2843 239.075 93.6128 239.534 93.4757Z" fill="#D28972"/>
<path d="M236.26 81.2593C236.492 81.1884 236.724 81.2972 236.785 81.5005C236.847 81.7038 236.733 81.997 236.506 82.0632C236.279 82.1294 236.019 81.9544 235.958 81.7511C235.896 81.5478 236.033 81.3255 236.26 81.2593Z" fill="#D28972"/>
<path d="M234.887 88.6323C234.763 88.226 234.293 88.0094 233.837 88.1483C233.382 88.2873 233.113 88.7293 233.237 89.1355C233.361 89.5418 233.83 89.7584 234.286 89.6195C234.742 89.4805 235.011 89.0385 234.887 88.6323Z" fill="#D28972"/>
<path d="M243.641 88.526C244.327 88.3133 245.088 88.8287 245.272 89.4386C245.457 90.0486 245.026 90.6302 244.346 90.8383C243.665 91.0463 243.102 90.7011 242.913 90.0864C242.728 89.4765 242.96 88.7341 243.641 88.526Z" fill="#D28972"/>
<path d="M248.963 86.3026C249.417 86.1608 249.89 86.3783 250.013 86.7849C250.136 87.1916 249.866 87.6313 249.413 87.7732C248.959 87.915 248.245 87.7684 248.122 87.3618C247.999 86.9552 248.505 86.4398 248.963 86.3026Z" fill="#D28972"/>
<path d="M247.628 84.4916C247.903 84.4064 248.328 84.6429 248.404 84.8887C248.48 85.1346 248.111 85.4656 247.832 85.546C247.553 85.6264 247.274 85.4987 247.198 85.2528C247.123 85.0069 247.349 84.5719 247.619 84.4915L247.628 84.4916Z" fill="#D28972"/>
<path d="M236.7 85.6686C237.613 85.3896 238.762 85.7632 239.008 86.5765C239.253 87.3898 238.544 88.5624 237.632 88.8414C236.719 89.1204 235.74 88.4631 235.494 87.6498C235.248 86.8365 235.788 85.9476 236.7 85.6686Z" fill="#D28972"/>
<path d="M235.185 92.5208C236.097 92.2418 236.83 92.5397 237.076 93.353C237.322 94.1663 237.388 95.3295 236.476 95.6084C235.563 95.8874 234.23 95.3106 233.979 94.502C233.729 93.6934 234.272 92.7998 235.185 92.5208Z" fill="#D28972"/>
<path d="M261.916 131.655L252.701 101.426C252.54 100.896 251.93 100.617 251.334 100.797C250.738 100.977 250.389 101.554 250.554 102.079L259.77 132.307C259.931 132.837 260.54 133.116 261.136 132.936C261.732 132.757 262.082 132.18 261.916 131.655Z" fill="#964532"/>
<path d="M263.094 134.972C262.909 134.364 262.206 134.04 261.524 134.248C260.843 134.456 260.44 135.117 260.625 135.725C260.811 136.332 261.514 136.656 262.195 136.448C262.877 136.24 263.28 135.579 263.094 134.972Z" fill="#964532"/>
<path d="M316.035 71.0692C309.439 68.9246 302.386 72.6241 300.364 79.2776L276.83 156.732C274.806 163.391 278.551 170.593 285.142 172.735C291.738 174.88 298.791 171.181 300.813 164.527L324.347 87.0731C326.371 80.4138 322.626 73.2119 316.035 71.0692Z" fill="#E4C362"/>
<path d="M324.298 86.8036L300.426 164.493C298.431 170.976 291.623 174.668 285.087 172.899L315.299 70.5893C315.48 70.6389 315.671 70.6981 315.863 70.7573C322.554 72.9141 326.354 80.1377 324.296 86.8094L324.298 86.8036Z" fill="#F4C95D"/>
<path d="M316.208 89.5158L306.196 86.3366C304.986 85.9524 303.723 86.6171 303.377 87.8227C303.03 89.0284 303.731 90.3167 304.941 90.7008L314.953 93.8801C316.163 94.2642 317.426 93.5995 317.773 92.3939C318.119 91.1883 317.418 89.9 316.208 89.5158Z" fill="#E5AB5E"/>
<path d="M312.134 102.754L302.122 99.5749C300.912 99.1907 299.649 99.8554 299.302 101.061C298.956 102.267 299.657 103.555 300.867 103.939L310.879 107.118C312.089 107.503 313.352 106.838 313.698 105.632C314.045 104.427 313.344 103.138 312.134 102.754Z" fill="#E5AB5E"/>
<path d="M308.064 115.989L298.051 112.81C296.841 112.426 295.579 113.091 295.232 114.296C294.885 115.502 295.587 116.79 296.796 117.174L306.809 120.354C308.019 120.738 309.281 120.073 309.628 118.868C309.975 117.662 309.273 116.374 308.064 115.989Z" fill="#E5AB5E"/>
<path d="M303.989 129.232L293.977 126.052C292.767 125.668 291.504 126.333 291.158 127.539C290.811 128.744 291.512 130.032 292.722 130.417L302.735 133.596C303.944 133.98 305.207 133.315 305.554 132.11C305.9 130.904 305.199 129.616 303.989 129.232Z" fill="#E5AB5E"/>
<path d="M299.915 142.467L289.903 139.288C288.693 138.904 287.43 139.568 287.084 140.774C286.737 141.98 287.438 143.268 288.648 143.652L298.66 146.831C299.87 147.215 301.133 146.551 301.48 145.345C301.826 144.139 301.125 142.851 299.915 142.467Z" fill="#E5AB5E"/>
<path d="M275.595 102.583L280.724 111.71H269.773L275.595 102.583Z" fill="#98B9E0"/>
<path d="M280.724 111.711H269.773V150.631H280.724V111.711Z" fill="#91AFCE"/>
<path d="M275.59 102.583H300.577L304.651 111.71H280.718L275.59 102.583Z" fill="#B4D5EF"/>
<path d="M304.651 111.711H280.723V150.631H304.651V111.711Z" fill="#A6C6E0"/>
<path d="M300.582 98.2822H275.59V102.584H300.582V98.2822Z" fill="#91AFCE"/>
<path d="M301.891 119.166H285.727V122.205H301.891V119.166Z" fill="#DBDCDD"/>
<path d="M301.891 123.069H285.727V124.874H301.891V123.069Z" fill="#DBDCDD"/>
<path d="M297.24 147.482H288.137V148.499H297.24V147.482Z" fill="#DBDCDD"/>
<path d="M269.773 111.711L276.037 116.346V150.631H280.724V111.711H269.773Z" fill="#8CA9C4"/>
<path d="M222.966 107.301L222.971 107.31L221.743 108.263L221.737 108.255C214.31 113.712 207.262 97.7444 204.072 94.471C201.248 91.576 201.866 83.9818 202.071 82.0979C202.09 81.9848 202.092 81.8957 202.104 81.8317L202.209 81.7508C202.273 81.7594 202.363 81.7767 202.478 81.7835C204.352 82.0492 211.861 83.3247 213.968 86.7855C216.354 90.6862 230.095 101.447 222.973 107.302L222.966 107.301Z" fill="#9AAF41"/>
<path d="M213.601 96.0429L212.819 95.0639L214.023 86.781L212.372 94.4972L202.221 81.7294L202.115 81.8105L212.024 94.8046L204.149 94.4917L212.461 95.3773L213.2 96.3402L205.367 96.0315L213.71 97.0168L227.679 115.325L228.455 114.722L214.13 96.7075L215.241 88.3715L213.601 96.0429Z" fill="#5B3854"/>
<path d="M221.626 108.925L221.632 108.934L220.633 110.108L220.627 110.099C214.485 116.93 204.132 102.988 200.292 100.495C196.892 98.2865 195.876 90.8232 195.678 88.9663C195.67 88.8522 195.656 88.7678 195.652 88.7011L195.738 88.6012C195.806 88.5949 195.896 88.5929 196.012 88.5803C197.912 88.4431 205.578 88.1016 208.383 91.0034C211.562 94.2693 227.389 101.784 221.634 108.926L221.626 108.925Z" fill="#B0CB4A"/>
<path d="M210.005 100.039L209.03 99.2577L208.431 91.0091L208.467 98.8059L195.737 88.5999L195.655 88.6971L208.191 99.1734L200.376 100.522L208.74 99.6342L209.673 100.411L201.902 101.756L210.322 100.957L227.986 115.715L228.618 114.972L210.668 100.576L209.973 92.2894L210.005 100.039Z" fill="#5B3854"/>
<path d="M251.526 115.18L251.537 115.198C247.782 112.279 239.87 112.587 236.98 112.813C236.914 112.669 236.832 112.529 236.722 112.407L235.932 111.5C235.254 110.719 234.041 110.659 233.225 111.364L224.208 119.154C223.391 119.859 223.28 121.064 223.958 121.845L224.748 122.752C224.748 122.752 224.78 122.782 224.798 122.801C224.324 124.722 222.383 133.419 224.824 137.994C224.824 137.994 226.493 141.52 230.06 142.337C233.094 143.514 238.815 144.116 249.005 140.541L249.899 140.222L249.936 140.26L249.971 140.194L250.044 140.166L250.016 140.122L250.454 139.289C255.7 129.275 255.683 123.456 254.82 120.397C254.82 120.397 253.774 116.218 251.53 115.177L251.526 115.18Z" fill="#CC6C98"/>
<path d="M245.856 115.926L238.484 114.911C237.465 114.771 236.488 115.481 236.301 116.497C236.114 117.514 236.786 118.45 237.806 118.59L245.177 119.605C246.196 119.744 247.173 119.035 247.361 118.018C247.548 117.002 246.875 116.066 245.856 115.926Z" fill="#E085B2"/>
<path d="M251.278 120.968C252.094 120.438 252.351 119.371 251.852 118.586C251.353 117.801 250.286 117.594 249.47 118.125C248.654 118.655 248.397 119.721 248.896 120.507C249.395 121.292 250.462 121.498 251.278 120.968Z" fill="#E085B2"/>
<path d="M253.088 145.303L252.412 144.777C252.768 144.34 252.889 143.751 252.722 143.274C252.533 142.742 252.024 142.385 251.251 142.25C250.662 142.147 250.213 141.852 249.953 141.404C249.423 140.482 249.875 139.201 249.892 139.146L250.717 139.404C250.626 139.671 250.442 140.47 250.718 140.953C250.853 141.186 251.089 141.329 251.434 141.389C252.508 141.575 253.254 142.13 253.542 142.951C253.813 143.713 253.636 144.615 253.078 145.297L253.088 145.303Z" fill="#CC6C98"/>
<path d="M239.21 107.51L231.086 99.9007L215.264 104.361L210.195 120.566L219.823 158.189L220.245 158.07L226.311 169.85L231.644 180.205L233.485 183.791L258.652 176.696C259.326 176.506 259.737 175.827 259.571 175.178L243.214 111.258L239.215 107.509L239.21 107.51Z" fill="#EAEBED"/>
<path d="M240.02 113.772L255.34 173.582L231.672 180.248L226.33 169.886L213.844 121.143L216.007 112.994L234.259 107.854L240.02 113.772Z" fill="#E4CB5B"/>
<path d="M229.082 95.2354L213.746 99.5308L214.844 103.795L230.18 99.5L229.082 95.2354Z" fill="#C78459"/>
<path d="M217.335 121.411C216.797 121.56 216.471 122.091 216.603 122.599L219.742 134.628C219.875 135.137 220.416 135.428 220.954 135.279C221.491 135.13 221.818 134.599 221.685 134.091L218.546 122.062C218.413 121.553 217.873 121.262 217.335 121.411Z" fill="#EAEBED"/>
<path d="M221.968 138.914C222.56 138.746 222.922 138.144 222.776 137.57C222.63 136.995 222.031 136.666 221.439 136.834C220.847 137.002 220.486 137.604 220.632 138.178C220.778 138.752 221.376 139.082 221.968 138.914Z" fill="#EAEBED"/>
<path d="M246.476 124.135L228.234 129.415L236.983 164.518L255.224 159.238L246.476 124.135Z" fill="#C78459"/>
<path d="M247.234 129.893L235.914 133.061L236.288 134.512L247.608 131.344L247.234 129.893Z" fill="#EFB595"/>
<path d="M247.786 132.025L236.484 135.156L236.732 136.107L248.034 132.976L247.786 132.025Z" fill="#EFB595"/>
<path d="M246.386 140.329C247.313 139.425 248.479 138.734 249.808 138.35L249.644 137.691C248.326 138.073 247.162 138.725 246.2 139.579C245.057 140.594 244.188 141.872 243.713 143.264C243.232 144.658 243.135 146.174 243.505 147.658C243.813 148.894 244.418 149.973 245.225 150.842C245.336 150.962 245.448 151.087 245.568 151.198C246.658 152.224 248.058 152.916 249.591 153.189C250.821 153.408 252.132 153.349 253.45 152.968L253.286 152.309C251.957 152.694 250.632 152.719 249.405 152.444C248.282 152.188 247.247 151.684 246.391 150.966C246.259 150.857 246.127 150.743 246.004 150.622C245.14 149.78 244.504 148.715 244.192 147.464C243.855 146.112 243.945 144.728 244.392 143.458C244.792 142.295 245.474 141.223 246.389 140.339L246.386 140.329Z" fill="#EFB595"/>
<path d="M317.552 133.74L317.502 134.096L312.727 167.86C312.148 171.948 308.672 175.151 304.39 175.539L235.341 181.795C231.059 182.183 227.145 179.65 225.954 175.722L222.763 165.208L221.84 162.153L219.163 153.325L216.119 143.283L216.016 142.94L317.548 133.741L317.552 133.74Z" fill="#A83131"/>
<path d="M321.837 125.164L322.218 130.017C322.351 131.718 320.534 133.266 318.159 133.475L213.482 142.695C211.107 142.904 209.069 141.695 208.935 139.994L208.554 135.141C208.421 133.441 210.242 131.892 212.618 131.683L317.294 122.463C319.67 122.254 321.703 123.463 321.837 125.164Z" fill="#293A4C"/>
<path d="M270.243 125.069L268.048 94.5709C267.961 93.3687 266.915 92.4838 265.714 92.5991L260.493 93.1005C259.292 93.2158 258.387 94.2839 258.474 95.4903L260.669 125.988C259.743 127.322 259.309 129.007 259.626 130.752C260.136 133.583 262.602 135.678 265.481 135.72C269.25 135.774 272.204 132.547 271.94 128.881C271.832 127.38 271.203 126.055 270.243 125.069Z" fill="#C76565"/>
<path d="M266.083 131.783C267.194 131.675 268.029 130.669 267.949 129.537C267.869 128.405 266.903 127.576 265.792 127.684C264.682 127.792 263.846 128.798 263.926 129.93C264.007 131.062 264.972 131.891 266.083 131.783Z" fill="#293A4C"/>
<path d="M36.2394 38.3144C35.8602 37.8471 35.4723 37.3886 35.0931 36.9212C35.534 36.1629 35.9396 35.4046 36.3276 34.6286C36.4775 34.3288 36.2482 33.9232 35.9661 33.738C35.6222 33.5264 35.2254 33.5175 34.8374 33.6763C34.2289 33.9143 33.6117 34.1524 33.0033 34.3905C32.4918 33.7644 31.9716 33.1472 31.4601 32.5211C31.2132 32.2213 30.79 32.045 30.3491 32.142C29.9699 32.2301 29.5731 32.5828 29.626 32.9356C29.7583 33.8262 29.8288 34.7168 29.8729 35.6162C29.2292 35.8719 28.5855 36.1188 27.9506 36.3745C27.1306 36.7008 27.3775 37.7766 28.1975 37.9529C28.7883 38.0764 29.3615 38.2351 29.9258 38.4114C29.917 38.773 29.8994 39.1345 29.8729 39.5048C29.8377 39.9986 29.7759 40.4836 29.82 40.9598C29.7759 41.1097 29.7318 41.2596 29.6878 41.4095C29.4056 42.3706 30.9046 42.8468 31.5571 42.062C32.1656 41.3213 32.7299 40.563 33.2766 39.7958C34.3348 40.4043 35.7544 41.2331 36.7068 40.272C37.3681 39.6018 36.742 38.9052 36.257 38.3233L36.2394 38.3144Z" fill="#EDC142"/>
<path d="M204.81 114.998C204.701 114.406 204.581 113.818 204.472 113.226C205.222 112.772 205.942 112.3 206.654 111.805C206.929 111.614 206.922 111.148 206.763 110.85C206.563 110.5 206.219 110.302 205.802 110.255C205.154 110.173 204.498 110.086 203.85 110.003C203.701 109.209 203.541 108.418 203.392 107.623C203.319 107.242 203.032 106.884 202.598 106.758C202.223 106.653 201.706 106.773 201.583 107.108C201.273 107.953 200.908 108.768 200.515 109.579C199.828 109.495 199.145 109.403 198.465 109.323C197.589 109.217 197.29 110.279 197.925 110.827C198.385 111.218 198.812 111.632 199.222 112.058C199.041 112.371 198.853 112.68 198.652 112.992C198.384 113.408 198.098 113.805 197.908 114.244C197.798 114.354 197.687 114.464 197.577 114.575C196.868 115.283 197.956 116.42 198.905 116.043C199.794 115.685 200.652 115.29 201.5 114.878C202.137 115.92 202.986 117.327 204.282 116.94C205.184 116.669 204.968 115.758 204.821 115.014L204.81 114.998Z" fill="#EDC142"/>
<path d="M12.9983 140.632C12.9542 140.658 12.9101 140.694 12.866 140.729C12.866 140.729 12.8307 140.746 12.8131 140.746C12.7426 140.738 12.6456 140.711 12.5662 140.667C12.3987 140.57 12.2752 140.376 12.1959 140.165C12.0812 139.865 12.0371 139.547 11.9754 139.239C11.8872 138.815 11.7726 138.401 11.6932 137.978C11.6139 137.599 11.1642 137.369 10.8026 137.475C10.3882 137.59 10.2383 137.978 10.3 138.366C10.3 138.419 10.3177 138.471 10.3177 138.524C10.2912 138.586 10.2736 138.657 10.2736 138.736C10.2736 139.309 10.1413 139.838 9.75331 140.279C9.50641 140.561 9.18897 140.773 8.84507 140.896C8.54527 140.914 8.24546 140.976 7.95447 141.108C7.28432 141.399 7.64585 142.466 8.316 142.44C8.58936 142.431 8.86271 142.378 9.12724 142.298C9.5505 142.369 9.96494 142.695 10.1854 143.004C10.688 143.7 10.7938 144.635 10.9173 145.464C10.9878 145.852 11.4552 146.072 11.8167 145.975C12.2311 145.861 12.3898 145.473 12.3281 145.076C12.1077 143.868 12.7249 142.572 13.7654 141.937C13.7654 141.937 13.7654 141.937 13.7654 141.928C13.8183 141.893 13.8712 141.866 13.9241 141.822C14.5767 141.267 13.7302 140.191 13.0159 140.641L12.9983 140.632Z" fill="#FCE96B"/>
<path d="M8.34033 64.9628C8.20807 64.4513 7.72308 64.1339 7.22047 64.1074C7.17638 64.1074 7.13229 64.1074 7.0882 64.1074C6.85894 64.1074 6.58558 64.1691 6.39159 64.2926C6.28578 64.3631 6.17996 64.4513 6.08297 64.5307C5.97715 64.6189 5.86252 64.707 5.76552 64.804C5.57153 64.998 5.40399 65.2273 5.21882 65.4301C4.97192 65.6946 4.6633 65.9327 4.47812 66.2413C4.30176 66.5323 4.1695 66.841 4.04605 67.1584C3.93142 67.4406 4.04605 67.7845 4.2224 68.0049C4.38994 68.2254 4.68975 68.4193 4.98074 68.3841C5.18355 68.3664 5.38636 68.3576 5.58035 68.3047C5.71262 68.2694 5.83607 68.2254 5.95952 68.1813C6.08297 68.1372 6.22405 68.0843 6.32987 68.0137C6.43568 67.9432 6.53268 67.855 6.63849 67.7756C6.6914 67.7316 6.74431 67.6875 6.80603 67.6434C6.92066 67.5552 7.03529 67.4582 7.14111 67.3612C7.35274 67.176 7.56436 66.9997 7.75836 66.7969C7.9259 66.6205 8.05816 66.3912 8.19043 66.1884C8.42851 65.8093 8.44615 65.386 8.33152 64.9628H8.34033Z" fill="#222221"/>
<path d="M13.3212 65.95C13.2771 65.7737 13.1978 65.6238 13.0831 65.4915C12.9861 65.3416 12.8627 65.227 12.704 65.1476C12.3953 64.9801 12.0162 64.9007 11.6723 65.0154C11.3548 65.1212 11.0198 65.324 10.8699 65.6326C10.8258 65.7208 10.7729 65.7913 10.7288 65.8707C10.667 65.9412 10.6053 66.003 10.5348 66.0647C10.526 66.0647 10.5083 66.0823 10.4995 66.0911C10.4466 66.1176 10.4025 66.1529 10.3584 66.1969C10.2614 66.2587 10.1821 66.3292 10.1292 66.4262C10.0586 66.5144 10.0322 66.5497 9.98807 66.6378C9.93516 66.7348 9.88225 66.823 9.81171 66.9112C9.7588 66.9906 9.72353 67.0699 9.69708 67.1581C9.66181 67.2815 9.65299 67.405 9.67944 67.5196C9.71471 67.8018 9.86462 68.0311 10.1115 68.1898C10.2967 68.3044 10.4995 68.3926 10.7111 68.4455C10.7905 68.4631 10.8699 68.4719 10.958 68.4896C11.1256 68.5249 11.3019 68.516 11.4695 68.4631C11.5753 68.419 11.6723 68.375 11.7781 68.3309C11.7957 68.322 11.8134 68.3132 11.8398 68.3044C11.9192 68.2691 11.9897 68.225 12.0603 68.1721C12.2807 68.0222 12.5012 67.8547 12.6863 67.6607C12.8715 67.4579 13.0567 67.2374 13.1801 66.9994C13.3477 66.6819 13.4094 66.3116 13.3124 65.9677L13.3212 65.95Z" fill="#222221"/>
<path d="M7.90055 72.3689C7.90055 72.2543 7.8741 72.1485 7.81237 72.0515C7.75947 71.8927 7.67129 71.7605 7.54784 71.6459C7.38912 71.4959 7.19513 71.3901 6.99232 71.3196C6.82478 71.2667 6.65724 71.2579 6.4897 71.2931C6.32216 71.2931 6.16344 71.3549 6.02235 71.443C5.80191 71.5489 5.60792 71.7781 5.43156 71.9457C5.24638 72.122 5.06121 72.2896 4.93776 72.5188C4.86722 72.6511 4.79667 72.7833 4.72613 72.9244C4.62914 73.1272 4.56741 73.2948 4.55859 73.524C4.55859 73.5505 4.55859 73.577 4.55859 73.6034C4.55859 73.6651 4.55859 73.7269 4.55859 73.7886C4.55859 74.2471 4.9554 74.6615 5.42274 74.6527C5.47565 74.6527 5.53737 74.6527 5.59028 74.6527C5.61673 74.6527 5.652 74.6527 5.67846 74.6527C5.8989 74.6351 6.07526 74.591 6.27807 74.4852C6.41034 74.4147 6.54261 74.3441 6.67487 74.2736C6.90414 74.1501 7.07168 73.9649 7.24803 73.7798C7.41557 73.6034 7.64484 73.4006 7.75065 73.189C7.79474 73.092 7.83883 72.9862 7.8741 72.8892C7.92701 72.7216 7.93582 72.5541 7.90055 72.3865V72.3689Z" fill="#222221"/>
<path d="M12.5736 72.0517C12.5207 71.8753 12.4237 71.7166 12.3091 71.5755C12.2826 71.5314 12.2561 71.505 12.2209 71.4697C12.1768 71.4256 12.1327 71.3903 12.0798 71.3551C12.0445 71.311 12.0181 71.2757 11.9828 71.2404C11.8682 71.1258 11.7183 71.1258 11.586 71.1963C11.1892 71.1522 10.7748 71.2757 10.5014 71.5755C10.4661 71.6108 10.422 71.6461 10.3868 71.6813C10.3779 71.6813 10.3603 71.699 10.3515 71.7078C10.1663 71.8224 10.0164 71.9811 9.90178 72.1575C9.77833 72.3515 9.77833 72.4397 9.75188 72.6425C9.75188 72.6513 9.75188 72.6601 9.75188 72.6689C9.75188 72.6954 9.74306 72.713 9.72543 72.7395C9.72543 72.7218 9.73425 72.713 9.74306 72.6954C9.74306 72.7218 9.74306 72.7483 9.73425 72.7747C9.72543 72.81 9.69897 72.8453 9.69897 72.8894C9.67252 73.0128 9.68134 73.1274 9.71661 73.2509C9.78715 73.4713 9.91942 73.6742 10.131 73.7888C10.184 73.8152 10.2457 73.8329 10.3074 73.8593C10.3074 73.8593 10.3162 73.8593 10.325 73.8593C10.422 73.9211 10.5279 73.974 10.6425 74.0092C10.7042 74.018 10.7659 74.0269 10.8277 74.0357C10.9952 74.071 11.1627 74.0621 11.3303 74.0092C11.5684 73.9475 11.7183 73.8152 11.9034 73.6741C11.974 73.6212 12.0445 73.5595 12.1062 73.489C12.2385 73.3479 12.3531 73.198 12.459 73.0481C12.5736 72.8805 12.6441 72.6072 12.6353 72.4132C12.6353 72.325 12.6089 72.1575 12.5824 72.0693L12.5736 72.0517Z" fill="#222221"/>
<path d="M26.5664 21.8811C26.5488 21.793 26.5312 21.6342 26.4959 21.4579C26.4959 21.405 26.4959 21.3256 26.4959 21.211C26.3989 17.1195 22.3956 14.7122 18.7803 16.079C18.745 16.079 18.7097 16.0878 18.6833 16.0966C18.7274 16.079 18.7626 16.0614 18.7979 16.0437C18.7097 16.0702 18.5863 16.1055 18.4364 16.1231C18.5157 16.1143 18.5951 16.1055 18.6833 16.0878C18.4187 16.1319 18.1542 16.1848 17.8985 16.2554C17.44 16.3788 16.2848 16.8991 15.6411 17.2253C14.486 17.7985 13.7894 18.6979 12.9517 19.5797C10.4827 22.1986 10.1741 26.149 12.3873 29.0236C14.4154 31.6513 18.7185 32.9475 21.6637 30.8753C23.8153 29.3587 25.5259 27.8773 26.2843 25.2319C26.6017 24.1297 26.7075 23.0098 26.5752 21.89L26.5664 21.8811Z" fill="white"/>
<path d="M26.5508 21.7495C26.5508 21.7495 26.5508 21.8289 26.5596 21.873C26.5772 21.9788 26.5772 21.9788 26.5508 21.7495Z" fill="#F0F0F0"/>
<path d="M18.7812 16.0342C18.9576 15.9813 18.9841 15.946 18.7812 16.0342V16.0342Z" fill="#F0F0F0"/>
<path d="M43.4391 14.8978C43.1041 13.7074 42.2752 12.8168 41.1553 12.3406C40.106 11.8997 38.6158 11.8027 37.6458 12.5434C37.2667 12.8344 36.8787 13.0813 36.5701 13.4429C36.2262 13.8485 35.9175 14.2717 35.7059 14.7479L35.6618 14.8008C35.3708 15.2593 35.2121 15.762 35.1856 16.2998C35.071 17.1552 35.1856 18.1163 35.6618 18.8658C36.041 19.4478 36.526 19.9328 37.1079 20.312C37.8839 20.8146 39.33 21.0615 40.2118 20.7176C41.3581 20.2679 42.3457 19.6859 42.9806 18.5748C43.6155 17.4638 43.7919 16.1323 43.448 14.889L43.4391 14.8978Z" fill="white"/>
<path d="M17.2154 116.206C16.2719 115.254 14.5436 114.628 13.2209 115.148C12.7888 115.316 12.3656 115.492 11.9423 115.677C11.4838 115.889 11.5543 115.862 12.1628 115.598C11.1928 116.003 10.505 116.418 9.75549 117.15C8.79434 118.102 8.15064 119.248 8.01837 120.518C7.38349 122.758 9.3675 125.262 11.6513 125.297C14.7111 125.835 17.5328 123.181 18.2647 120.192C18.6174 118.755 18.2647 117.255 17.2066 116.197L17.2154 116.206Z" fill="#F0F0F0"/>
<path d="M175.36 20.4932C175.4 19.9632 175.44 19.4332 175.49 18.9032C176.23 18.6932 176.96 18.4632 177.68 18.2032C177.96 18.1032 178.07 17.7132 177.99 17.4232C177.9 17.0732 177.65 16.8332 177.32 16.6932C176.79 16.4732 176.25 16.2432 175.72 16.0232C175.78 15.3132 175.83 14.6032 175.89 13.8932C175.92 13.5432 175.76 13.1832 175.42 12.9732C175.12 12.7932 174.66 12.7732 174.48 13.0332C174.02 13.6732 173.52 14.2832 173 14.8832C172.44 14.6532 171.88 14.4132 171.32 14.1832C170.6 13.8932 170.1 14.7232 170.51 15.3332C170.8 15.7732 171.07 16.2232 171.32 16.6732C171.09 16.8932 170.86 17.1132 170.62 17.3332C170.3 17.6232 169.96 17.8932 169.7 18.2232C169.58 18.2932 169.46 18.3632 169.34 18.4232C168.57 18.8532 169.23 20.0832 170.12 19.9832C170.96 19.8832 171.78 19.7532 172.59 19.5932C172.89 20.6232 173.28 22.0132 174.47 21.9932C175.3 21.9732 175.32 21.1532 175.38 20.4932H175.36Z" fill="#EDC142"/>
<path d="M220.209 61.3636C219.701 60.7293 219.193 60.095 218.696 59.45C219.316 58.4305 219.903 57.3993 220.449 56.3451C220.662 55.9364 220.379 55.3842 219.985 55.1452C219.518 54.8498 218.983 54.847 218.463 55.0407C217.632 55.3572 216.779 55.6732 215.948 55.9897C215.275 55.1331 214.59 54.2872 213.916 53.4306C213.585 53.0079 213.027 52.7756 212.422 52.9018C211.894 53.019 211.351 53.4846 211.419 53.9659C211.566 55.1686 211.636 56.3803 211.673 57.602C210.797 57.9392 209.911 58.2652 209.036 58.6024C207.917 59.0423 208.216 60.4996 209.319 60.7459C210.107 60.9297 210.883 61.1458 211.637 61.3832C211.606 61.8728 211.575 62.3625 211.532 62.8628C211.472 63.5261 211.369 64.1883 211.419 64.8327C211.356 65.0381 211.293 65.2436 211.219 65.4379C210.795 66.735 212.828 67.4085 213.733 66.3527C214.582 65.3499 215.376 64.3349 216.127 63.2969C217.543 64.129 219.438 65.2676 220.767 63.9829C221.687 63.0801 220.853 62.1431 220.232 61.3424L220.209 61.3636Z" fill="#EDC142"/>
<path d="M317.218 45.1849C316.928 44.7449 316.638 44.2949 316.348 43.8549C316.808 43.2349 317.248 42.6149 317.658 41.9749C317.818 41.7249 317.658 41.3449 317.428 41.1649C317.148 40.9449 316.798 40.9049 316.448 40.9949C315.888 41.1449 315.328 41.2849 314.768 41.4349C314.378 40.8349 313.998 40.2449 313.608 39.6449C313.418 39.3549 313.068 39.1549 312.668 39.2049C312.328 39.2449 311.948 39.5149 311.958 39.8249C311.978 40.6149 311.958 41.4049 311.908 42.1949C311.318 42.3549 310.738 42.5049 310.148 42.6649C309.398 42.8649 309.508 43.8349 310.208 44.0649C310.708 44.2349 311.198 44.4249 311.668 44.6349C311.618 44.9549 311.568 45.2649 311.508 45.5849C311.428 46.0049 311.318 46.4349 311.318 46.8549C311.268 46.9849 311.208 47.1049 311.158 47.2349C310.808 48.0449 312.078 48.6149 312.728 47.9949C313.338 47.4049 313.908 46.8049 314.458 46.1849C315.318 46.8149 316.478 47.6849 317.408 46.9449C318.058 46.4249 317.578 45.7549 317.208 45.1949L317.218 45.1849Z" fill="#EDC142"/>
<path d="M258.8 74.1861C258.692 73.6702 258.588 73.145 258.481 72.6291C259.137 72.2222 259.774 71.8078 260.391 71.3639C260.632 71.1904 260.623 70.7782 260.476 70.5261C260.296 70.2184 259.986 70.0523 259.627 70.0071C259.051 69.9402 258.479 69.8641 257.903 69.7973C257.762 69.0958 257.626 68.4073 257.484 67.7058C257.414 67.3663 257.163 67.0514 256.772 66.9505C256.442 66.8625 255.989 66.9735 255.884 67.2654C255.612 68.0072 255.302 68.7343 254.965 69.4503C254.357 69.3817 253.763 69.3075 253.155 69.239C252.384 69.1486 252.129 70.0909 252.695 70.5626C253.097 70.9048 253.483 71.262 253.843 71.6303C253.678 71.9094 253.518 72.1792 253.344 72.4546C253.115 72.8156 252.854 73.1748 252.699 73.5653C252.605 73.6678 252.505 73.7572 252.411 73.8597C251.787 74.4838 252.758 75.4815 253.59 75.1445C254.375 74.8207 255.126 74.4729 255.865 74.0991C256.433 75.0016 257.191 76.2377 258.328 75.8923C259.124 75.6483 258.924 74.8486 258.787 74.1917L258.8 74.1861Z" fill="#EDC142"/>
<path d="M232.843 23.1152C232.793 23.1452 232.743 23.1852 232.693 23.2252C232.693 23.2252 232.653 23.2452 232.633 23.2452C232.553 23.2352 232.443 23.2052 232.353 23.1552C232.163 23.0452 232.023 22.8252 231.933 22.5852C231.803 22.2452 231.753 21.8852 231.683 21.5352C231.583 21.0552 231.453 20.5852 231.363 20.1052C231.273 19.6752 230.763 19.4152 230.353 19.5352C229.883 19.6652 229.713 20.1052 229.783 20.5452C229.783 20.6052 229.803 20.6652 229.803 20.7252C229.773 20.7952 229.753 20.8752 229.753 20.9652C229.753 21.6152 229.603 22.2152 229.163 22.7152C228.883 23.0352 228.523 23.2752 228.133 23.4152C227.793 23.4352 227.453 23.5052 227.123 23.6552C226.363 23.9852 226.773 25.1952 227.533 25.1652C227.843 25.1552 228.153 25.0952 228.453 25.0052C228.933 25.0852 229.403 25.4552 229.653 25.8052C230.223 26.5952 230.343 27.6552 230.483 28.5952C230.563 29.0352 231.093 29.2852 231.503 29.1752C231.973 29.0452 232.153 28.6052 232.083 28.1552C231.833 26.7852 232.533 25.3152 233.713 24.5952C233.713 24.5952 233.713 24.5952 233.713 24.5852C233.773 24.5452 233.833 24.5152 233.893 24.4652C234.633 23.8352 233.673 22.6152 232.863 23.1252L232.843 23.1152Z" fill="#FCE96B"/>
<path d="M204.146 14.344C204.146 14.344 204.146 14.254 204.146 14.204C204.146 14.114 204.146 14.024 204.146 13.934C204.156 13.814 204.156 13.704 204.136 13.584C204.116 13.404 204.046 13.224 203.966 13.064C203.876 12.834 203.666 12.604 203.476 12.504C203.386 12.464 203.286 12.424 203.196 12.384C203.086 12.354 202.966 12.344 202.856 12.344C202.686 12.324 202.506 12.334 202.336 12.374C202.086 12.444 201.876 12.564 201.696 12.744C201.496 12.914 201.336 13.124 201.176 13.334C200.926 13.674 200.856 14.104 200.836 14.514C200.836 14.644 200.856 14.774 200.876 14.904C200.896 15.034 200.906 15.164 200.946 15.294C201.066 15.674 201.286 16.024 201.566 16.294C201.856 16.574 202.306 16.794 202.726 16.774L203.166 16.714C203.376 16.664 203.566 16.564 203.726 16.424C203.846 16.354 203.946 16.254 204.016 16.134C204.156 15.974 204.256 15.794 204.306 15.574C204.406 15.154 204.366 14.714 204.146 14.334V14.344Z" fill="#222221"/>
<path d="M206.969 18.2328C206.969 18.2328 206.959 18.1628 206.949 18.1328C206.939 18.0528 206.919 17.9828 206.909 17.9028C206.889 17.7728 206.869 17.7228 206.779 17.5628C206.619 17.2828 206.389 17.1528 206.109 17.0428C205.689 16.8828 205.279 17.1228 204.919 17.3028C204.649 17.4328 204.449 17.6328 204.239 17.8428C204.099 17.9928 203.949 18.1628 203.849 18.3428C203.799 18.4328 203.759 18.5328 203.709 18.6228C203.619 18.7928 203.529 18.9728 203.449 19.1428C203.389 19.2728 203.339 19.4028 203.279 19.5328L203.219 19.9728L203.279 20.4128C203.339 20.5427 203.389 20.6728 203.449 20.8028C203.539 20.9128 203.619 21.0228 203.709 21.1328C203.819 21.2228 203.929 21.3028 204.039 21.3928C204.169 21.4528 204.299 21.5028 204.429 21.5628C204.649 21.6328 204.869 21.6428 205.079 21.5928C205.229 21.5928 205.369 21.5528 205.489 21.4828C205.629 21.4428 205.749 21.3728 205.849 21.2728C205.969 21.2028 206.069 21.1028 206.139 20.9828C206.199 20.9228 206.219 20.8528 206.259 20.7828C206.259 20.7928 206.259 20.8028 206.269 20.8128L206.549 20.2528C206.699 19.9628 206.839 19.6828 206.899 19.3628C206.929 19.2128 206.959 19.0628 206.979 18.9028C207.009 18.6428 206.989 18.5128 206.949 18.2328H206.969Z" fill="#222221"/>
<path d="M213.245 12.0627C213.185 11.9127 213.125 11.7327 213.025 11.6027C212.965 11.5227 212.895 11.4327 212.835 11.3527C212.725 11.2327 212.595 11.1527 212.435 11.1027C212.335 11.0427 212.235 11.0227 212.125 11.0227C211.965 10.9827 211.795 10.9927 211.635 11.0427C211.605 11.0527 211.585 11.0627 211.555 11.0727C211.605 11.0727 211.655 11.0627 211.705 11.0527C211.505 11.0727 211.275 11.1527 211.145 11.3027C211.125 11.3227 211.115 11.3527 211.095 11.3727C211.055 11.4127 211.015 11.4427 210.985 11.4927C210.875 11.6127 210.805 11.7527 210.765 11.9127C210.765 11.9527 210.745 12.0027 210.745 12.0527C210.735 12.1027 210.725 12.1627 210.705 12.2127C210.705 12.2227 210.705 12.2327 210.695 12.2427C210.675 12.3027 210.665 12.3727 210.665 12.4527C210.665 12.4527 210.665 12.4627 210.665 12.4727C210.625 12.5727 210.605 12.6727 210.595 12.7827C210.555 12.9527 210.565 13.1327 210.615 13.3027C210.655 13.4027 210.705 13.5127 210.745 13.6127C210.825 13.7627 210.935 13.8827 211.085 13.9827C211.165 14.0627 211.265 14.1227 211.375 14.1527C211.535 14.2327 211.695 14.2727 211.875 14.2627C211.995 14.2427 212.105 14.2327 212.225 14.2127C212.445 14.1527 212.635 14.0427 212.805 13.8727C212.905 13.7527 213.035 13.6027 213.105 13.4527C213.235 13.1727 213.345 12.9327 213.345 12.6127C213.345 12.4327 213.315 12.2427 213.245 12.0827V12.0627Z" fill="#222221"/>
<path d="M214.209 18.8825C214.199 18.8125 214.179 18.7525 214.159 18.6825C214.119 18.5925 214.079 18.4925 214.039 18.4025C213.969 18.2625 213.869 18.1525 213.739 18.0725C213.559 17.9325 213.289 17.8025 213.059 17.8225C212.919 17.8025 212.779 17.8025 212.639 17.8625C212.609 17.8725 212.579 17.9125 212.549 17.9225C212.329 18.0225 212.139 18.2025 212.019 18.4025C212.019 18.4225 212.009 18.4425 211.999 18.4525C211.959 18.5425 211.909 18.6225 211.859 18.6925C211.859 18.6825 211.879 18.6725 211.889 18.6625C211.819 18.7625 211.759 18.8625 211.709 19.0425C211.709 19.0425 211.709 19.0425 211.709 19.0525C211.709 19.0625 211.699 19.0725 211.689 19.0825C211.559 19.3025 211.509 19.5525 211.529 19.7925C211.509 19.9425 211.509 20.0825 211.549 20.2325C211.579 20.3625 211.639 20.4825 211.739 20.5825C211.929 20.8325 212.229 21.0025 212.549 20.9925C212.589 20.9925 212.629 20.9825 212.669 20.9725C213.039 21.0025 213.439 20.8925 213.689 20.6125C213.919 20.3625 214.149 20.0525 214.239 19.7125C214.319 19.4125 214.279 19.1625 214.239 18.8625L214.209 18.8825Z" fill="#222221"/>
<path d="M198.616 19.7243C198.826 19.3043 198.796 18.7743 198.566 18.3743C198.436 18.1543 198.266 17.9843 198.046 17.8543C197.816 17.7243 197.576 17.6543 197.316 17.6543C197.136 17.6743 196.906 17.6843 196.716 17.7543C196.556 17.8143 196.396 17.8743 196.246 17.9543C196.216 17.9643 196.186 17.9843 196.156 18.0043C196.006 18.0943 195.856 18.2043 195.746 18.3343C195.636 18.4743 195.516 18.6143 195.416 18.7643C195.216 19.0743 195.096 19.4543 195.086 19.8243C195.086 20.0543 195.126 20.2843 195.166 20.5043C195.166 20.5443 195.186 20.5843 195.196 20.6243C195.246 20.7643 195.326 20.9743 195.376 21.0543C195.536 21.3243 195.726 21.4943 195.986 21.6643C195.996 21.6643 196.006 21.6843 196.026 21.6843C196.086 21.7243 196.156 21.7543 196.226 21.7743C196.416 21.8743 196.616 21.9243 196.836 21.9143C197.096 21.9143 197.416 21.8443 197.636 21.6943C197.746 21.6143 197.846 21.5243 197.956 21.4443C198.056 21.3443 198.146 21.2343 198.206 21.1143C198.326 20.9143 198.386 20.7143 198.426 20.4943C198.436 20.4343 198.446 20.3743 198.466 20.3143C198.516 20.1743 198.526 20.0343 198.536 19.8843C198.536 19.8543 198.536 19.8243 198.546 19.8043C198.546 19.8043 198.546 19.7843 198.556 19.7743C198.556 19.7943 198.556 19.8243 198.556 19.8443C198.556 19.8043 198.576 19.7643 198.586 19.7243H198.616Z" fill="#222221"/>
<path d="M208.746 24.2944C208.676 24.0344 208.506 23.8044 208.276 23.6544C208.086 23.4444 207.806 23.3444 207.526 23.3744C207.316 23.4044 207.126 23.5144 206.986 23.6744C206.846 23.7844 206.716 23.9244 206.626 24.0844C206.626 24.0844 206.626 24.0944 206.616 24.1044C206.566 24.1644 206.516 24.2244 206.456 24.2844C206.416 24.3344 206.366 24.3844 206.316 24.4244C206.216 24.5244 206.136 24.6344 206.056 24.7544C206.106 24.6944 206.156 24.6244 206.206 24.5644C206.106 24.6944 205.996 24.8044 205.866 24.9044C205.846 24.9244 205.816 24.9444 205.786 24.9644C205.766 24.9844 205.746 25.0144 205.726 25.0444C205.696 25.0844 205.666 25.1244 205.626 25.1644C205.466 25.3444 205.336 25.5144 205.276 25.7444C205.276 25.7544 205.276 25.7744 205.276 25.7844C205.166 25.9044 205.086 26.0544 205.086 26.2144C205.086 26.4644 205.216 26.6344 205.406 26.7744C205.426 26.7844 205.436 26.7944 205.456 26.8044C205.486 26.8444 205.526 26.8844 205.566 26.9144C205.576 26.9344 205.596 26.9544 205.606 26.9644C205.756 27.1244 205.966 27.2344 206.176 27.2944C206.316 27.3344 206.476 27.3444 206.616 27.3344C206.946 27.3144 207.226 27.2644 207.516 27.0944C207.696 26.9944 207.856 26.8544 208.016 26.7244C208.096 26.6644 208.166 26.5944 208.236 26.5144C208.806 25.9144 208.946 25.0444 208.746 24.2644V24.2944Z" fill="#222221"/>
<path d="M202.358 25.7932C202.358 25.7332 202.358 25.6732 202.328 25.6132C202.238 25.2332 201.898 24.8532 201.528 24.7632C201.278 24.7032 201.038 24.6932 200.788 24.7532C200.618 24.7932 200.438 24.9032 200.278 25.0032C200.058 25.1432 199.878 25.3332 199.748 25.5532C199.728 25.5932 199.698 25.6332 199.678 25.6732C199.628 25.7532 199.578 25.8432 199.528 25.9232C199.428 26.0732 199.378 26.2432 199.368 26.4132C199.328 26.5932 199.338 26.7632 199.388 26.9432C199.428 27.0532 199.478 27.1532 199.518 27.2632C199.598 27.4132 199.718 27.5432 199.858 27.6332C199.938 27.7132 200.038 27.7732 200.148 27.8032C200.308 27.8832 200.478 27.9232 200.658 27.9132C200.778 27.8932 200.898 27.8832 201.008 27.8632C201.238 27.8032 201.428 27.6832 201.598 27.5232C201.668 27.4432 201.728 27.3632 201.798 27.2832C201.828 27.2432 201.868 27.2032 201.898 27.1632C201.898 27.1632 201.908 27.1432 201.918 27.1432C202.048 27.0232 202.148 26.8732 202.198 26.7032C202.248 26.5932 202.258 26.5732 202.278 26.4832C202.278 26.4332 202.298 26.3832 202.308 26.3432C202.308 26.3232 202.308 26.3032 202.318 26.2832C202.368 26.1132 202.378 25.9532 202.338 25.7832L202.358 25.7932Z" fill="#222221"/>
<path d="M283.138 15.6024L284.188 15.9924C283.428 15.6724 282.678 15.3524 281.918 15.0324C280.438 14.5324 279.008 14.5324 277.498 14.7324C275.438 15.0124 273.648 15.4224 271.828 16.5524C267.148 19.4724 264.898 26.1024 268.048 30.9824C270.968 35.5024 277.608 38.1024 282.478 34.7624C284.498 33.3824 286.268 31.7624 287.478 29.6124C288.678 27.4624 288.618 25.4624 288.848 23.1024C289.188 19.6224 286.168 16.6024 283.138 15.5924V15.6024Z" fill="white"/>
<path d="M298.355 34.7249C298.335 34.6649 298.325 34.6049 298.295 34.5449C298.065 33.7249 297.645 33.0049 297.045 32.3949C296.435 31.7949 295.725 31.3749 294.895 31.1449C293.615 30.8549 292.305 30.9649 291.145 31.6349C290.575 31.9449 290.125 32.3549 289.785 32.8849C289.355 33.3549 289.065 33.9049 288.915 34.5349C288.685 35.3949 288.685 36.2549 288.915 37.1249C289.055 37.6149 289.255 38.0549 289.525 38.4649C289.545 38.4949 289.565 38.5249 289.585 38.5549L289.635 38.6149C289.715 38.7349 289.805 38.8449 289.905 38.9649C290.055 39.1549 290.195 39.3449 290.345 39.5349C290.785 40.0049 291.295 40.3349 291.895 40.5249C292.265 40.7449 292.675 40.8549 293.105 40.8549C293.745 40.9949 294.385 40.9649 295.025 40.7649C295.405 40.6049 295.795 40.4449 296.175 40.2849L297.145 39.5349C297.615 39.0949 297.945 38.5849 298.135 37.9849C298.435 37.4149 298.575 36.7949 298.545 36.1349C298.495 35.6949 298.455 35.1549 298.355 34.7249Z" fill="white"/>
<path d="M320.357 16.8259C319.427 15.4259 318.037 14.5059 316.307 14.5059C314.687 14.5059 313.047 15.3959 312.257 16.8259C311.677 17.8859 311.377 18.9459 311.427 20.1459C311.527 22.1759 312.837 24.2759 314.937 24.7559C316.967 25.2159 319.307 24.4659 320.337 22.5559C321.317 20.7459 321.527 18.5959 320.337 16.8159L320.357 16.8259Z" fill="white"/>
<path d="M171.807 31.6561C171.567 29.1761 169.647 27.5761 167.127 28.0961C166.927 28.1361 166.867 28.1461 166.937 28.1461C166.727 28.1761 166.517 28.1961 166.307 28.2361C165.357 28.5161 164.737 29.0561 164.047 29.7061C163.207 30.5061 162.407 31.2561 162.117 32.4561C161.707 34.1361 162.397 35.8261 163.857 36.7361C165.487 37.7561 167.677 37.4061 169.237 36.4261C170.937 35.3461 171.997 33.6961 171.797 31.6461L171.807 31.6561Z" fill="white"/>
</g>
</g>
<defs>
<linearGradient id="paint0_linear_3861_155296" x1="167.5" y1="0.998047" x2="167.5" y2="462.998" gradientUnits="userSpaceOnUse">
<stop stop-color="#BCFFF7"/>
<stop offset="1" stop-color="#2DA798"/>
</linearGradient>
<linearGradient id="paint1_linear_3861_155296" x1="167.5" y1="158.998" x2="167.5" y2="406.998" gradientUnits="userSpaceOnUse">
<stop stop-color="#829D9A" stop-opacity="0.25"/>
<stop offset="1" stop-color="#2B6C65"/>
</linearGradient>
<clipPath id="clip0_3861_155296">
<rect y="0.998047" width="335" height="462" rx="8" fill="white"/>
</clipPath>
<clipPath id="clip1_3861_155296">
<rect width="335" height="150" fill="white" transform="translate(0 0.998047)"/>
</clipPath>
</defs>
</svg>
