<svg width="33" height="32" viewBox="0 0 33 32" fill="none" xmlns="http://www.w3.org/2000/svg">
<path d="M16.022 20.5271C14.7759 20.2908 13.9272 19.8181 13.2935 19.1951C10.6294 16.531 10.6509 12.7927 13.2827 10.1609L17.021 6.41187C19.6528 3.78003 23.3911 3.75854 26.0552 6.43335C28.7192 9.09741 28.7085 12.8357 26.0659 15.4675L22.9829 18.5398C23.1655 17.7126 23.0581 16.7566 22.7144 15.9724L24.562 14.1248C26.3667 12.3201 26.3774 9.76343 24.5513 7.92651C22.7358 6.11108 20.1685 6.11108 18.353 7.92651L14.7866 11.4929C12.9819 13.2976 12.9819 15.8757 14.7974 17.6912C15.4634 18.3572 16.3657 18.7654 17.6548 18.8835L16.022 20.5271ZM16.9673 11.4714C18.2241 11.7078 19.0728 12.1804 19.6958 12.8142C22.3599 15.4675 22.3491 19.2058 19.7065 21.8484L15.979 25.5867C13.3472 28.2185 9.60889 28.24 6.94482 25.5759C4.28076 22.9119 4.2915 19.1628 6.93408 16.531L10.0063 13.4587C9.82373 14.2966 9.94189 15.2419 10.2749 16.0261L8.43799 17.8738C6.62256 19.6785 6.61182 22.2458 8.43799 24.072C10.2642 25.8875 12.8208 25.8875 14.6362 24.072L18.2026 20.5056C20.0181 18.7009 20.0181 16.1335 18.1919 14.3074C17.5366 13.6521 16.6235 13.2332 15.3452 13.115L16.9673 11.4714Z" fill="#8667C7"/>
</svg>
