<svg width="16" height="16" viewBox="0 0 16 16" fill="none" xmlns="http://www.w3.org/2000/svg">
<path d="M8.01025 13.8696C4.79124 13.8696 2.14062 11.219 2.14062 8C2.14062 4.78662 4.79124 2.13037 8.00463 2.13037C8.77561 2.13037 9.50721 2.28232 10.1769 2.55807C9.92365 2.92387 9.78859 3.33469 9.76045 3.76801C9.2202 3.54854 8.62929 3.4191 8.00463 3.4191C5.46656 3.4191 3.43498 5.46193 3.43498 8C3.43498 10.5381 5.47219 12.5809 8.01025 12.5809C10.5483 12.5809 12.5968 10.5381 12.5912 8C12.5912 7.57793 12.5292 7.17274 12.4167 6.78443C12.8388 6.82382 13.2777 6.75066 13.6885 6.54807C13.8124 7.00954 13.8799 7.49914 13.8799 8C13.8799 11.219 11.2293 13.8696 8.01025 13.8696ZM12.4617 6.01907C11.4037 6.01907 10.5258 5.14679 10.5258 4.08316C10.5258 3.01954 11.4037 2.14725 12.4617 2.14725C13.5197 2.14725 14.4033 3.01954 14.4033 4.08316C14.4033 5.14679 13.5197 6.01907 12.4617 6.01907ZM5.24145 8.77099C4.9657 8.77099 4.75185 8.55151 4.75185 8.28138C4.75185 8.00563 4.9657 7.79178 5.24145 7.79178H7.52065V4.67406C7.52065 4.39831 7.7345 4.18446 8.00463 4.18446C8.28038 4.18446 8.49423 4.39831 8.49423 4.67406V8.28138C8.49423 8.55151 8.28038 8.77099 8.00463 8.77099H5.24145Z" fill="white"/>
</svg>
