<svg width="16" height="16" viewBox="0 0 16 16" fill="none" xmlns="http://www.w3.org/2000/svg">
<path d="M6.12111 16C6.60102 16 6.96321 15.7971 7.22581 15.4006L15.7374 1.88127C15.9276 1.58617 16 1.32795 16 1.07896C16 0.442651 15.5654 0 14.9315 0C14.4878 0 14.2252 0.156772 13.9536 0.590202L6.08489 13.3164L2.0283 8.01383C1.7657 7.65418 1.49406 7.50663 1.09564 7.50663C0.4618 7.50663 0 7.96772 0 8.60403C0 8.88069 0.0996038 9.14813 0.325976 9.43401L5.01641 15.4098C5.33333 15.8063 5.66836 16 6.12111 16Z" fill="white"/>
</svg>
