<svg width="32" height="32" viewBox="0 0 32 32" fill="none" xmlns="http://www.w3.org/2000/svg">
<rect width="32" height="32" rx="4" fill="black" fill-opacity="0.6"/>
<path d="M16.9947 26.148L17.0023 26.1433L17.0097 26.1385C22.7055 22.3958 26.5 17.9293 26.5 13.2505C26.5 9.35557 23.8716 6.5 20.3907 6.5C18.5051 6.5 17.0092 7.43417 16.002 8.86894C15.0025 7.43889 13.4916 6.5 11.6093 6.5C8.12844 6.5 5.5 9.35557 5.5 13.2505C5.5 17.9295 9.29466 22.396 15.0007 26.1387L15.0007 26.1387L15.0066 26.1425C15.1322 26.2224 15.2865 26.3068 15.4466 26.3729C15.5967 26.4349 15.7969 26.5 16 26.5C16.203 26.5 16.4031 26.4349 16.5531 26.3735C16.7132 26.308 16.868 26.2249 16.9947 26.148Z" stroke="#ACB4B4"/>
</svg>
