<svg width="32" height="32" viewBox="0 0 32 32" fill="none" xmlns="http://www.w3.org/2000/svg">
<path d="M4.91812 27.2204C3.05973 25.3513 3.03824 22.8376 4.89664 21.0007C6.34683 19.5613 7.92594 19.1638 10.6652 17.3376L4.37027 11.0534C2.86637 9.54953 2.86637 7.93821 4.33805 6.46653L5.76676 5.03782C7.23844 3.56614 8.84976 3.56614 10.3644 5.07004L16.799 11.5476C15.9718 9.34543 16.4123 6.82102 18.131 5.10227C20.0646 3.15793 23.1046 2.83567 25.5539 4.26438L24.5011 5.31711L22.6212 7.17551C22.3312 7.46555 22.3634 7.84153 22.675 8.16379L23.9855 9.48508C24.297 9.79661 24.6623 9.77512 24.9523 9.48508L26.8322 7.61594L27.8742 6.56321C29.3136 9.03391 28.9806 12.0847 27.047 14.0183C25.1994 15.8552 22.4171 16.2204 20.1183 15.1355C19.506 15.7478 18.9582 16.3279 18.464 16.8757L23.4484 21.8601L24.5871 21.9138C24.9416 21.9245 25.3068 22.1609 25.5002 22.5154L27.4445 26.0925C27.6271 26.4363 27.6701 26.6941 27.466 26.8982L26.2091 28.155C25.9943 28.3698 25.7365 28.3161 25.4142 28.155L21.8156 26.1892C21.4503 26.0066 21.2248 25.6306 21.214 25.2976L21.1603 24.1589L16.3478 19.3464C13.1037 23.4607 12.9103 25.4372 11.1271 27.2419C9.29019 29.0896 6.78726 29.0681 4.91812 27.2204ZM21.5363 9.02317C20.7091 8.2175 20.6877 7.20774 21.4826 6.42356L23.0509 4.84446C21.633 4.62961 20.172 5.07004 19.13 6.10129C17.3039 7.90598 17.3791 10.9353 19.2912 12.8474C21.214 14.7488 24.2218 14.8347 26.0373 13.0193C27.0793 11.9665 27.5089 10.5056 27.2834 9.05539L25.6935 10.656C24.9416 11.4187 23.9211 11.3972 23.1261 10.6023L21.5363 9.02317ZM12.2013 12.1169C12.3625 12.2888 12.6632 12.2673 12.8029 12.1169C12.9748 11.9236 12.9748 11.655 12.8136 11.4939L8.54898 7.23996C8.37711 7.06809 8.09781 7.07883 7.94742 7.23996C7.77555 7.41184 7.78629 7.66965 7.94742 7.83078L12.2013 12.1169ZM10.7941 13.5027C10.966 13.6745 11.2453 13.6745 11.4064 13.5027C11.5675 13.3415 11.5783 13.0837 11.4064 12.9118L7.13101 8.63645C6.98062 8.4968 6.70133 8.47532 6.52945 8.63645C6.36832 8.81907 6.35758 9.08762 6.52945 9.2595L10.7941 13.5027ZM18.2814 13.8464C18.0773 13.6316 17.8839 13.4167 17.7121 13.1911C10.0851 20.6247 8.54898 19.5183 5.94937 22.1072C4.76773 23.2995 4.74625 24.9001 5.9816 26.157C7.22769 27.3816 8.83902 27.3708 10.0314 26.1677C12.6203 23.5896 11.5138 22.0534 18.9474 14.4265C18.7111 14.2546 18.4962 14.0505 18.2814 13.8464ZM7.97965 25.5124C7.24918 25.5124 6.65836 24.9109 6.65836 24.1804C6.65836 23.4499 7.24918 22.8591 7.97965 22.8591C8.71012 22.8591 9.31168 23.4499 9.31168 24.1804C9.31168 24.9109 8.71012 25.5124 7.97965 25.5124Z" fill="white" fill-opacity="0.6"/>
</svg>
