<svg width="64" height="32" viewBox="0 0 64 32" fill="none" xmlns="http://www.w3.org/2000/svg">
<path d="M12.3028 28.4556C11.4005 28.4556 10.8526 27.9507 10.8634 27.0698L11.0675 15.0063C11.0675 14.6304 10.9063 14.3511 10.5733 14.2007C9.15537 13.5776 8.54306 12.9224 8.629 11.0425L8.91904 4.44678C8.94053 3.97412 9.21982 3.70557 9.66025 3.70557C10.0899 3.70557 10.337 3.98486 10.337 4.46826L10.2618 10.8813C10.2618 11.2573 10.5089 11.4937 10.8634 11.4937C11.2286 11.4937 11.4864 11.2681 11.4864 10.9136L11.5938 4.2749C11.6046 3.81299 11.8624 3.54443 12.3028 3.54443C12.7433 3.54443 13.0118 3.81299 13.0226 4.2749L13.13 10.9136C13.13 11.2681 13.3878 11.4937 13.753 11.4937C14.1075 11.4937 14.3438 11.2573 14.3438 10.8813L14.2687 4.46826C14.2687 3.98486 14.5265 3.70557 14.9454 3.70557C15.3858 3.70557 15.6651 3.97412 15.6866 4.44678L15.9874 11.0425C16.0626 12.9224 15.4503 13.5776 14.0323 14.2007C13.6993 14.3511 13.5382 14.6304 13.5382 15.0063L13.753 27.0698C13.7638 27.9507 13.2052 28.4556 12.3028 28.4556ZM20.7032 19.0884C20.7247 18.7017 20.5528 18.4009 20.1661 18.1323L19.5323 17.7026C18.9952 17.3481 18.7267 16.8003 18.7267 16.0591V15.5327C18.7267 11.2358 19.8653 6.69189 21.5948 4.26416C21.9386 3.75928 22.2071 3.54443 22.6153 3.54443C23.002 3.54443 23.378 3.80225 23.378 4.3501V27.1343C23.378 27.9937 22.8194 28.4556 21.9063 28.4556C21.0147 28.4556 20.4454 27.9507 20.4776 27.0161L20.7032 19.0884Z" fill="#045C5C"/>
<path d="M39.1377 16C39.1377 15.4736 39.5781 15.0332 40.0938 15.0332H47.0439V8.09375C47.0439 7.57812 47.4736 7.1377 48 7.1377C48.5264 7.1377 48.9668 7.57812 48.9668 8.09375V15.0332H55.9062C56.4219 15.0332 56.8623 15.4736 56.8623 16C56.8623 16.5264 56.4219 16.9561 55.9062 16.9561H48.9668V23.9062C48.9668 24.4219 48.5264 24.8623 48 24.8623C47.4736 24.8623 47.0439 24.4219 47.0439 23.9062V16.9561H40.0938C39.5781 16.9561 39.1377 16.5264 39.1377 16Z" fill="#045C5C"/>
</svg>
