<svg width="32" height="32" viewBox="0 0 32 32" fill="none" xmlns="http://www.w3.org/2000/svg">
<path d="M26.833 25.6294L5.16602 25.6294C4.72559 25.6294 4.41406 25.9731 4.41406 26.4458C4.41406 26.9185 4.72559 27.2515 5.16602 27.2515L26.833 27.2515C27.2842 27.2515 27.585 26.9185 27.585 26.4458C27.585 25.9731 27.2842 25.6294 26.833 25.6294ZM25.4902 17.0786H23.1484C21.8379 17.0786 21.1826 17.7339 21.1826 19.0981V21.3433C21.1826 22.7075 21.8379 23.3521 23.1484 23.3521H25.4902C26.8008 23.3521 27.4561 22.7075 27.4561 21.3433V19.0981C27.4561 17.7339 26.8008 17.0786 25.4902 17.0786ZM17.1758 17.0786H14.834C13.5234 17.0786 12.8682 17.7339 12.8682 19.0981L12.8682 21.3433C12.8682 22.7075 13.5234 23.3521 14.834 23.3521H17.1758C18.4863 23.3521 19.1416 22.7075 19.1416 21.3433L19.1416 19.0981C19.1416 17.7339 18.4863 17.0786 17.1758 17.0786ZM8.86133 17.0786H6.53027C5.21973 17.0786 4.56445 17.7339 4.56445 19.0981L4.56445 21.3433C4.56445 22.7075 5.21973 23.3521 6.53027 23.3521H8.86133C10.1826 23.3521 10.8379 22.7075 10.8379 21.3433V19.0981C10.8379 17.7339 10.1826 17.0786 8.86133 17.0786ZM26.833 13.2974L5.16602 13.2974C4.72559 13.2974 4.41406 13.6304 4.41406 14.103C4.41406 14.5757 4.72559 14.9194 5.16602 14.9194L26.833 14.9194C27.2842 14.9194 27.585 14.5757 27.585 14.103C27.585 13.6304 27.2842 13.2974 26.833 13.2974ZM25.4795 4.74658L23.1377 4.74658C21.8272 4.74658 21.1719 5.39111 21.1719 6.75537V9.01123C21.1719 10.3755 21.8272 11.02 23.1377 11.02H25.4795C26.79 11.02 27.4453 10.3755 27.4453 9.01123V6.75537C27.4453 5.39112 26.79 4.74658 25.4795 4.74658ZM17.165 4.74658L14.8232 4.74658C13.5127 4.74658 12.8574 5.39111 12.8574 6.75537V9.01123C12.8574 10.3755 13.5127 11.02 14.8232 11.02H17.165C18.4756 11.02 19.1309 10.3755 19.1309 9.01123V6.75537C19.1309 5.39111 18.4756 4.74658 17.165 4.74658ZM8.85059 4.74658L6.51953 4.74658C5.19824 4.74658 4.54297 5.39111 4.54297 6.75537L4.54297 9.01123C4.54297 10.3755 5.19824 11.02 6.51953 11.02H8.85059C10.1611 11.02 10.8164 10.3755 10.8164 9.01123L10.8164 6.75537C10.8164 5.39111 10.1611 4.74658 8.85059 4.74658Z" fill="white"/>
</svg>
