<svg width="16" height="16" viewBox="0 0 16 16" fill="none" xmlns="http://www.w3.org/2000/svg">
<rect width="16" height="16" rx="8" fill="white"/>
<path d="M7.16065 12C6.85086 12 6.60806 11.8899 6.40293 11.639L4.24699 8.96643C4.06279 8.74628 4 8.55696 4 8.32801C4 7.82168 4.36002 7.44744 4.854 7.44744C5.13448 7.44744 5.33961 7.54871 5.51544 7.76885L7.1439 9.81618L10.3883 4.4623C10.5934 4.12768 10.8069 4 11.1376 4C11.6274 4 12 4.37424 12 4.87177C12 5.05669 11.9456 5.25482 11.8158 5.45735L7.94767 11.5861C7.76766 11.8679 7.50392 12 7.16065 12Z" fill="#FF5C00"/>
</svg>
