<svg width="40" height="40" viewBox="0 0 40 40" fill="none" xmlns="http://www.w3.org/2000/svg">
<rect x="7" y="7" width="26" height="26" rx="4" fill="#045C5C"/>
<path d="M13.0941 16.2346C13.6916 16.2346 14.1804 15.7336 14.1804 15.1133C14.1804 14.501 13.6916 14 13.0941 14C12.4888 14 12 14.501 12 15.1133C12 15.7336 12.4888 16.2346 13.0941 16.2346ZM16.7177 15.8688H27.2629C27.6741 15.8688 28 15.5348 28 15.1133C28 14.6918 27.6741 14.3579 27.2629 14.3579H16.7177C16.3065 14.3579 15.9806 14.6918 15.9806 15.1133C15.9806 15.5348 16.3065 15.8688 16.7177 15.8688ZM13.0941 21.1173C13.6916 21.1173 14.1804 20.6163 14.1804 19.996C14.1804 19.3837 13.6916 18.8827 13.0941 18.8827C12.4888 18.8827 12 19.3837 12 19.996C12 20.6163 12.4888 21.1173 13.0941 21.1173ZM16.7177 20.7515H27.2629C27.6741 20.7515 28 20.4175 28 19.996C28 19.5746 27.6741 19.2406 27.2629 19.2406H16.7177C16.3065 19.2406 15.9806 19.5746 15.9806 19.996C15.9806 20.4175 16.3065 20.7515 16.7177 20.7515ZM13.0941 26C13.6916 26 14.1804 25.499 14.1804 24.8787C14.1804 24.2664 13.6916 23.7654 13.0941 23.7654C12.4888 23.7654 12 24.2664 12 24.8787C12 25.499 12.4888 26 13.0941 26ZM16.7177 25.6342H27.2629C27.6741 25.6342 28 25.3002 28 24.8787C28 24.4573 27.6741 24.1233 27.2629 24.1233H16.7177C16.3065 24.1233 15.9806 24.4573 15.9806 24.8787C15.9806 25.3002 16.3065 25.6342 16.7177 25.6342Z" fill="white"/>
</svg>
