<svg width="32" height="32" viewBox="0 0 32 32" fill="none" xmlns="http://www.w3.org/2000/svg">
<path d="M16.9609 26.7593C8.67871 26.7593 3.06055 22.5054 3.06055 16.189C3.06055 9.62549 8.97949 5.24268 17.7559 5.24268C24.4375 5.24268 28.9385 8.12158 28.9385 12.4829C28.9385 16.8979 22.6973 17.2417 22.6973 18.9604C22.6973 20.2065 24.502 20.6792 24.502 22.7954C24.502 25.1587 21.4834 26.7593 16.9609 26.7593ZM17.9922 11.9995C19.002 11.9995 19.7969 11.1938 19.7969 10.1948C19.7969 9.1958 19.002 8.39014 17.9922 8.39014C17.0039 8.39014 16.166 9.1958 16.166 10.1948C16.166 11.1938 17.0039 11.9995 17.9922 11.9995ZM12.2666 13.6968C13.502 13.6968 14.5117 12.7085 14.5117 11.4409C14.5117 10.2056 13.4912 9.21729 12.2666 9.21729C10.999 9.21729 9.98926 10.2056 9.98926 11.4409C9.98926 12.7085 10.999 13.6968 12.2666 13.6968ZM23.0518 12.9448C23.8574 12.9448 24.502 12.3003 24.502 11.4839C24.502 10.6782 23.8574 10.0122 23.0518 10.0122C22.2354 10.0122 21.5693 10.6782 21.5693 11.4839C21.5693 12.3003 22.2354 12.9448 23.0518 12.9448ZM8.1416 17.4995C9.12988 17.4995 9.9248 16.6831 9.9248 15.6948C9.9248 14.7065 9.12988 13.9224 8.1416 13.9224C7.19629 13.9224 6.34766 14.7495 6.34766 15.6948C6.34766 16.6831 7.16406 17.4995 8.1416 17.4995ZM16.7246 22.6558C18.3037 22.6558 19.5928 21.3774 19.5928 19.7983C19.5928 18.23 18.3037 16.9409 16.7246 16.9409C15.1562 16.9409 13.8672 18.23 13.8672 19.7983C13.8672 21.3774 15.1562 22.6558 16.7246 22.6558Z" fill="white"/>
</svg>
