<svg width="40" height="40" viewBox="0 0 40 40" fill="none" xmlns="http://www.w3.org/2000/svg">
<path d="M10.5947 28.8271C9.49186 28.8271 8.65039 28.5443 8.07031 27.9785C7.4974 27.4056 7.21094 26.5713 7.21094 25.4756V15.6143C7.21094 14.5329 7.50814 13.7057 8.10254 13.1328C8.69694 12.5599 9.52767 12.2734 10.5947 12.2734H11.5723V11.6826C11.5723 10.6156 11.848 9.82064 12.3994 9.29785C12.9508 8.7679 13.7422 8.50293 14.7734 8.50293H24.2266C25.2865 8.50293 26.0814 8.76432 26.6113 9.28711C27.1484 9.80273 27.417 10.6012 27.417 11.6826V12.2734H28.4053C29.501 12.2734 30.3389 12.5563 30.9189 13.1221C31.499 13.6878 31.7891 14.5186 31.7891 15.6143V25.4756C31.7891 26.5713 31.499 27.4056 30.9189 27.9785C30.346 28.5443 29.5081 28.8271 28.4053 28.8271H27.2881V29.8799C27.2881 30.6676 27.0983 31.2477 26.7188 31.6201C26.3392 31.9925 25.7627 32.1787 24.9893 32.1787H14.0107C13.2373 32.1787 12.6608 31.9925 12.2812 31.6201C11.9017 31.2477 11.7119 30.6676 11.7119 29.8799V28.8271H10.5947ZM13.5703 11.5322V12.2734H25.4297V11.5322C25.4297 10.7301 25.0286 10.3291 24.2266 10.3291H14.7734C13.9714 10.3291 13.5703 10.7301 13.5703 11.5322ZM10.5947 26.9043H11.7119V20.8457C11.7119 19.3132 12.4782 18.5469 14.0107 18.5469H24.9893C25.7627 18.5469 26.3392 18.7331 26.7188 19.1055C27.0983 19.4779 27.2881 20.0579 27.2881 20.8457V26.9043H28.4053C28.8421 26.9043 29.1751 26.7897 29.4043 26.5605C29.6335 26.3314 29.748 25.9984 29.748 25.5615V15.5391C29.748 14.6439 29.3005 14.1963 28.4053 14.1963H10.5947C9.69954 14.1963 9.25195 14.6439 9.25195 15.5391V25.5615C9.25195 25.9984 9.36654 26.3314 9.5957 26.5605C9.82487 26.7897 10.1579 26.9043 10.5947 26.9043ZM14.4512 30.3096H24.5596C25.068 30.3096 25.3223 30.0518 25.3223 29.5361V21.1895C25.3223 20.681 25.068 20.4268 24.5596 20.4268H14.4512C13.9284 20.4268 13.667 20.681 13.667 21.1895V29.5361C13.667 30.0518 13.9284 30.3096 14.4512 30.3096ZM15.9658 24.2188C15.7653 24.2188 15.597 24.1543 15.4609 24.0254C15.332 23.8893 15.2676 23.721 15.2676 23.5205C15.2676 23.3343 15.332 23.1768 15.4609 23.0479C15.597 22.9189 15.7653 22.8545 15.9658 22.8545H23.0557C23.249 22.8545 23.4102 22.9189 23.5391 23.0479C23.6751 23.1768 23.7432 23.3343 23.7432 23.5205C23.7432 23.721 23.6751 23.8893 23.5391 24.0254C23.4102 24.1543 23.249 24.2188 23.0557 24.2188H15.9658ZM15.9658 27.9141C15.7653 27.9141 15.597 27.8496 15.4609 27.7207C15.332 27.5846 15.2676 27.4235 15.2676 27.2373C15.2676 27.0439 15.332 26.8828 15.4609 26.7539C15.597 26.6178 15.7653 26.5498 15.9658 26.5498H23.0557C23.249 26.5498 23.4102 26.6178 23.5391 26.7539C23.6751 26.8828 23.7432 27.0439 23.7432 27.2373C23.7432 27.4235 23.6751 27.5846 23.5391 27.7207C23.4102 27.8496 23.249 27.9141 23.0557 27.9141H15.9658Z" fill="black"/>
</svg>
