<svg width="35" height="35" viewBox="0 0 35 35" fill="none" xmlns="http://www.w3.org/2000/svg">
<g clip-path="url(#clip0_4702_113173)">
<g filter="url(#filter0_dd_4702_113173)">
<path d="M17.4466 29.9511C24.2673 29.9511 29.9146 24.2915 29.9146 17.483C29.9146 10.6623 24.2551 5.01495 17.4343 5.01495C10.6258 5.01495 4.97852 10.6623 4.97852 17.483C4.97852 24.2915 10.638 29.9511 17.4466 29.9511ZM17.4466 27.8731C11.677 27.8731 7.06875 23.2525 7.06875 17.483C7.06875 11.7135 11.6648 7.09296 17.4343 7.09296C23.2039 7.09296 27.8366 11.7135 27.8366 17.483C27.8366 23.2525 23.2161 27.8731 17.4466 27.8731Z" fill="white"/>
</g>
</g>
<defs>
<filter id="filter0_dd_4702_113173" x="-5.41153" y="-1.21907" width="45.7166" height="45.7162" filterUnits="userSpaceOnUse" color-interpolation-filters="sRGB">
<feFlood flood-opacity="0" result="BackgroundImageFix"/>
<feColorMatrix in="SourceAlpha" type="matrix" values="0 0 0 0 0 0 0 0 0 0 0 0 0 0 0 0 0 0 127 0" result="hardAlpha"/>
<feOffset dy="0.519502"/>
<feGaussianBlur stdDeviation="1.039"/>
<feComposite in2="hardAlpha" operator="out"/>
<feColorMatrix type="matrix" values="0 0 0 0 0.0724169 0 0 0 0 0.243082 0 0 0 0 0.366667 0 0 0 0.25 0"/>
<feBlend mode="normal" in2="BackgroundImageFix" result="effect1_dropShadow_4702_113173"/>
<feColorMatrix in="SourceAlpha" type="matrix" values="0 0 0 0 0 0 0 0 0 0 0 0 0 0 0 0 0 0 127 0" result="hardAlpha"/>
<feOffset dy="4.15602"/>
<feGaussianBlur stdDeviation="5.19502"/>
<feComposite in2="hardAlpha" operator="out"/>
<feColorMatrix type="matrix" values="0 0 0 0 0.0226116 0 0 0 0 0.733333 0 0 0 0 0.733333 0 0 0 0.2 0"/>
<feBlend mode="normal" in2="effect1_dropShadow_4702_113173" result="effect2_dropShadow_4702_113173"/>
<feBlend mode="normal" in="SourceGraphic" in2="effect2_dropShadow_4702_113173" result="shape"/>
</filter>
<clipPath id="clip0_4702_113173">
<rect width="33.2481" height="33.2481" fill="white" transform="translate(0.823242 0.858887)"/>
</clipPath>
</defs>
</svg>
