<svg width="28" height="28" viewBox="0 0 28 28" fill="none" xmlns="http://www.w3.org/2000/svg">
<g clip-path="url(#clip0_4624_224152)">
<path d="M23 1H5C2.79086 1 1 2.79086 1 5V23C1 25.2091 2.79086 27 5 27H23C25.2091 27 27 25.2091 27 23V5C27 2.79086 25.2091 1 23 1Z" stroke="#ACB4B4" stroke-width="2"/>
<path d="M7.29075 20.7285C7.67321 21.1023 8.29905 21.1023 8.66413 20.7372L14.0099 15.3915L19.3556 20.7372C19.7294 21.1023 20.3552 21.111 20.729 20.7285C21.1028 20.3547 21.1028 19.7289 20.7377 19.3638L15.3919 14.0094L20.7377 8.66364C21.1028 8.29856 21.1115 7.66403 20.729 7.29895C20.3465 6.92518 19.7294 6.92518 19.3556 7.29026L14.0099 12.636L8.66413 7.29026C8.29905 6.92518 7.66452 6.91649 7.29075 7.29026C6.91698 7.67272 6.92567 8.30726 7.29075 8.66364L12.6365 14.0094L7.29075 19.3638C6.92567 19.7202 6.91698 20.3634 7.29075 20.7285Z" fill="#ACB4B4"/>
</g>
<defs>
<clipPath id="clip0_4624_224152">
<rect width="28" height="28" fill="white"/>
</clipPath>
</defs>
</svg>
