<svg width="32" height="32" viewBox="0 0 32 32" fill="none" xmlns="http://www.w3.org/2000/svg">
<path d="M6.96875 24.1533C6.96875 26.3984 8.0752 27.5156 10.2988 27.5156H21.707C23.9307 27.5156 25.0371 26.3984 25.0371 24.1533V7.85742C25.0371 5.62305 23.9307 4.48438 21.707 4.48438H10.2988C8.0752 4.48438 6.96875 5.62305 6.96875 7.85742V24.1533ZM11.1904 10.2959C10.6318 10.2959 10.1592 9.83398 10.1592 9.26465C10.1592 8.7168 10.6318 8.2334 11.1904 8.2334C11.7598 8.2334 12.2217 8.70605 12.2217 9.26465C12.2217 9.84473 11.7598 10.2959 11.1904 10.2959ZM14.3164 9.97363C13.9297 9.97363 13.6182 9.66211 13.6182 9.26465C13.6182 8.88867 13.9297 8.57715 14.3164 8.57715H21.1592C21.5352 8.57715 21.8467 8.88867 21.8467 9.26465C21.8467 9.66211 21.5352 9.97363 21.1592 9.97363H14.3164ZM11.1904 13.6904C10.6211 13.6904 10.1592 13.2178 10.1592 12.6592C10.1592 12.0898 10.6211 11.6387 11.1904 11.6387C11.7598 11.6387 12.2217 12.0791 12.2217 12.6592C12.2217 13.2178 11.7598 13.6904 11.1904 13.6904ZM14.3164 13.3467C13.9189 13.3467 13.6182 13.0459 13.6182 12.6592C13.6182 12.2617 13.9189 11.9609 14.3164 11.9609H21.1592C21.5459 11.9609 21.8467 12.2617 21.8467 12.6592C21.8467 13.0459 21.5459 13.3467 21.1592 13.3467H14.3164ZM11.1904 17.2354C10.6318 17.2354 10.1592 16.752 10.1592 16.2041C10.1592 15.6348 10.6318 15.1729 11.1904 15.1729C11.7598 15.1729 12.2217 15.624 12.2217 16.2041C12.2217 16.7627 11.7598 17.2354 11.1904 17.2354ZM14.3164 16.8916C13.9297 16.8916 13.6182 16.5801 13.6182 16.2041C13.6182 15.8174 13.9189 15.5059 14.3164 15.5059H21.1592C21.5459 15.5059 21.8467 15.8174 21.8467 16.2041C21.8467 16.5801 21.5352 16.8916 21.1592 16.8916H14.3164Z" fill="#045C5C"/>
</svg>
