<svg width="29" height="24" viewBox="0 0 29 24" fill="none" xmlns="http://www.w3.org/2000/svg">
<path d="M23.5011 11.4817C26.4908 11.4817 29 8.8732 29 5.74083C29 2.59731 26.5121 0 23.5011 0C20.4901 0 18.0129 2.59731 18.0129 5.74083C18.0129 8.89549 20.4901 11.4817 23.5011 11.4817ZM8.72349 18.4264H21.1521C21.6539 18.4264 22.0917 18.0251 22.0917 17.4454C22.0917 16.8658 21.6539 16.4645 21.1521 16.4645H8.95839C8.4352 16.4645 8.11487 16.0743 8.04013 15.5058L7.87997 14.3465H21.2375C22.2839 14.3465 22.9779 13.9006 23.405 13.0534C22.3159 13.0088 21.3015 12.6744 20.426 12.1059C20.2765 12.2843 20.095 12.3734 19.8281 12.3734L7.60236 12.3846L6.78019 6.4431H16.5394C16.4647 5.83 16.486 5.09429 16.5928 4.48119H6.50258L6.33174 3.25499C6.20361 2.29633 5.84057 1.80585 4.65538 1.80585H0.982327C0.459131 1.80585 0 2.28518 0 2.85369C0 3.41105 0.459131 3.89039 0.982327 3.89039H4.34573L6.01141 15.7288C6.24632 17.4008 7.10052 18.4264 8.72349 18.4264ZM23.5011 9.37483C23.0633 9.37483 22.775 9.07385 22.775 8.61681V6.49884H20.7463C20.3192 6.49884 20.0309 6.19786 20.0202 5.74083C20.0202 5.28379 20.3192 4.98281 20.7463 4.98281H22.775V2.86484C22.775 2.41895 23.0633 2.11797 23.5011 2.10683C23.9496 2.10683 24.2272 2.41895 24.2272 2.86484V4.98281H26.2559C26.6937 4.98281 26.982 5.28379 26.982 5.74083C26.982 6.19786 26.6937 6.49884 26.2559 6.49884H24.2272V8.61681C24.2272 9.07385 23.9496 9.37483 23.5011 9.37483ZM9.58837 24C10.6241 24 11.4356 23.1417 11.4356 22.0715C11.4356 20.9902 10.6241 20.1319 9.58837 20.1319C8.56333 20.1319 7.74116 20.9902 7.74116 22.0715C7.74116 23.1417 8.56333 24 9.58837 24ZM19.465 24C20.5007 24 21.3229 23.1417 21.3229 22.0715C21.3229 20.9902 20.5007 20.1319 19.465 20.1319C18.44 20.1319 17.6071 20.9902 17.6071 22.0715C17.6071 23.1417 18.44 24 19.465 24Z" fill="white"/>
</svg>
