<svg width="40" height="40" viewBox="0 0 40 40" fill="none" xmlns="http://www.w3.org/2000/svg">
<rect width="40" height="40" rx="16" fill="black" fill-opacity="0.3"/>
<path d="M12.8987 26.7368H24.966C24.6891 26.2828 24.4891 25.7672 24.3968 25.2286H12.9909C12.2834 25.2286 11.8834 24.8515 11.8834 24.1052V16.295C11.8834 15.5486 12.2834 15.1716 12.9909 15.1716H15.4059C16.0905 15.1716 16.4519 15.0562 16.8365 14.6253L17.4287 13.9789C17.8594 13.5095 18.0901 13.3864 18.767 13.3864H20.9512C21.628 13.3864 21.8588 13.5095 22.2895 13.9712L22.8817 14.6253C23.2662 15.0485 23.6277 15.1716 24.3122 15.1716H26.7734C27.481 15.1716 27.8732 15.5486 27.8732 16.295V19.3729C28.35 19.1959 28.8577 19.1036 29.3806 19.1036V16.1642C29.3806 14.5252 28.5192 13.6634 26.858 13.6634H24.7506C24.1507 13.6634 23.9584 13.5634 23.5893 13.1709L22.974 12.5092C22.574 12.0937 22.1741 11.8782 21.3896 11.8782H18.3286C17.5441 11.8782 17.1441 12.0937 16.7442 12.5092L16.1289 13.1709C15.7674 13.5557 15.5675 13.6634 14.9676 13.6634H12.8987C11.2374 13.6634 10.376 14.5252 10.376 16.1642V24.236C10.376 25.8749 11.2374 26.7368 12.8987 26.7368ZM19.8822 24.2206C22.1818 24.2206 24.0353 22.3738 24.0353 20.0577C24.0353 17.7416 22.1895 15.8949 19.8822 15.8949C17.5748 15.8949 15.729 17.7416 15.729 20.0577C15.729 22.3738 17.5748 24.2206 19.8822 24.2206ZM24.2968 17.2722C24.2968 17.834 24.7506 18.2649 25.3044 18.2649C25.8351 18.2649 26.2965 17.8263 26.2965 17.2722C26.2965 16.7413 25.8351 16.2796 25.3044 16.2796C24.7583 16.2796 24.2968 16.7413 24.2968 17.2722ZM19.8822 22.8432C18.3439 22.8432 17.098 21.6044 17.098 20.0577C17.098 18.5034 18.3439 17.2645 19.8822 17.2645C21.4204 17.2645 22.6663 18.5034 22.6663 20.0577C22.6663 21.6044 21.4204 22.8432 19.8822 22.8432ZM29.3037 28.1218C31.4572 28.1218 33.2646 26.3212 33.2646 24.159C33.2646 21.9891 31.4803 20.1962 29.3037 20.1962C27.1349 20.1962 25.3505 21.9891 25.3505 24.159C25.3505 26.3366 27.1349 28.1218 29.3037 28.1218ZM31.4419 24.8054C31.0804 24.8054 30.7958 24.5053 30.7958 24.159C30.7958 23.8051 31.0804 23.505 31.4419 23.505C31.788 23.505 32.0802 23.8128 32.0802 24.159C32.0802 24.5053 31.788 24.8054 31.4419 24.8054ZM27.1733 24.7977C26.8272 24.7977 26.5349 24.5053 26.5349 24.159C26.5349 23.8128 26.8272 23.5127 27.1733 23.5127C27.5271 23.5127 27.8194 23.8128 27.8117 24.159C27.8117 24.5053 27.5271 24.7977 27.1733 24.7977ZM29.3114 24.7977C28.9653 24.7977 28.6654 24.5053 28.6654 24.159C28.6654 23.8128 28.9653 23.5127 29.3114 23.5127C29.6575 23.5127 29.9575 23.8128 29.9575 24.159C29.9498 24.5053 29.6575 24.7977 29.3114 24.7977Z" fill="white"/>
</svg>
