<svg width="40" height="40" viewBox="0 0 40 40" fill="none" xmlns="http://www.w3.org/2000/svg">
<path d="M13.6143 20.2441C13.625 19.8789 13.7539 19.5674 14.0439 19.2881L22.4229 11.0918C22.6484 10.8555 22.9492 10.7373 23.293 10.7373C23.9912 10.7373 24.5391 11.2744 24.5391 11.9727C24.5391 12.3164 24.3994 12.6279 24.1631 12.875L16.6113 20.2441L24.1631 27.6133C24.3994 27.8496 24.5391 28.1611 24.5391 28.5049C24.5391 29.2139 23.9912 29.751 23.293 29.751C22.9492 29.751 22.6484 29.6328 22.4229 29.3965L14.0439 21.2002C13.7539 20.9209 13.6143 20.6094 13.6143 20.2441Z" fill="#0C695E"/>
</svg>
