<svg width="32" height="32" viewBox="0 0 32 32" fill="none" xmlns="http://www.w3.org/2000/svg">
<path d="M5.17369 15.7564L3.36901 8.99955C2.87487 7.13041 3.60533 5.88432 5.47447 5.39018L15.0243 2.84428C16.9042 2.35014 18.1717 3.05912 18.6766 4.89603L20.2235 10.6216C18.9559 12.0611 17.7313 13.5757 16.8612 14.6714C16.9579 14.3706 17.0008 14.0269 17.0116 13.6402C17.0223 13.1675 16.6249 12.9956 16.2059 13.3072C15.1102 14.0913 13.7997 14.4888 13.037 14.7037C12.2206 14.94 10.8671 15.2622 9.45983 15.1011C8.98717 15.0367 8.71862 15.3912 8.96569 15.7886C9.99694 17.4214 11.8876 17.9693 13.7352 17.4966C14.4549 17.3033 15.0887 16.981 15.5721 16.5835C15.3143 17.1851 15.1102 17.9156 15.0243 18.6675C14.3046 18.9683 13.6708 19.4517 13.1766 20.0855C12.5536 20.6441 12.1991 21.3531 11.952 21.9976C8.6649 21.8472 6.20494 19.6451 5.17369 15.7564ZM25.5194 7.21635C27.1952 5.79838 29.4188 7.27006 28.6024 9.5474C28.3231 10.3208 26.8514 15.0796 24.2733 19.2476C23.0917 16.9595 20.8895 15.4341 18.3758 15.1011C21.2333 11.2876 24.9286 7.73197 25.5194 7.21635ZM14.7772 9.90189C15.4862 9.69779 15.8407 10.0415 16.1307 9.96635C16.3563 9.91264 16.453 9.63334 16.3456 9.27885C16.12 8.38725 15.1962 7.88236 14.3153 8.11869C13.413 8.35502 12.8544 9.25736 13.1122 10.1382C13.2196 10.5142 13.4344 10.6968 13.6493 10.6431C13.9608 10.5572 14.0682 10.0738 14.7772 9.90189ZM8.87975 11.4917C9.58873 11.3199 9.94322 11.6421 10.2333 11.5669C10.4696 11.5025 10.5555 11.2447 10.4588 10.8687C10.2333 9.96635 9.28795 9.45072 8.42858 9.70853C7.51549 9.94486 6.97838 10.8472 7.22545 11.7173C7.33287 12.104 7.54772 12.2974 7.76256 12.2437C8.06334 12.147 8.18151 11.6851 8.87975 11.4917ZM19.2997 20.064C18.3973 19.4302 17.2587 19.0435 16.41 19.0542C16.3993 18.2163 16.6786 17.4107 17.2157 16.6265C17.3231 16.4654 17.4413 16.3042 17.5594 16.1646C20.1483 16.1861 22.6512 17.9048 23.5643 20.3755C23.4784 20.5259 23.371 20.6763 23.2743 20.816C22.7264 21.6001 22.0926 22.1372 21.2547 22.438C20.9647 21.6216 20.202 20.6978 19.2997 20.064ZM10.534 27.5406C10.0936 27.1001 10.1151 26.6597 10.4266 26.3697C10.8563 25.9507 11.5653 26.2408 12.3602 25.4351C13.3055 24.479 12.285 22.8892 13.8212 21.3316C15.1532 19.9781 17.5702 20.0855 19.1708 21.6968C20.954 23.4908 20.8895 25.897 19.0096 27.7662C16.8075 29.9468 12.7469 29.7642 10.534 27.5406Z" fill="white" fill-opacity="0.6"/>
</svg>
