<svg width="40" height="40" viewBox="0 0 40 40" fill="none" xmlns="http://www.w3.org/2000/svg">
<path d="M10.1123 30.7207C8.01758 30.7207 6.85742 29.5713 6.85742 27.4873V12.5127C6.85742 10.4395 8.01758 9.2793 10.1123 9.2793H29.8779C31.9834 9.2793 33.1436 10.4395 33.1436 12.5127V27.4873C33.1436 29.5713 31.9834 30.7207 29.8779 30.7207H10.1123ZM10.209 28.6904H29.8027C30.6299 28.6904 31.1025 28.2178 31.1025 27.3691V12.6309C31.1025 11.7822 30.6299 11.3096 29.8027 11.3096H10.209C9.38184 11.3096 8.89844 11.793 8.89844 12.6523V27.3477C8.89844 28.207 9.38184 28.6904 10.209 28.6904ZM14.0117 19.2158C12.2393 19.2158 10.8105 17.7764 10.8105 16.0146C10.8105 14.2422 12.2393 12.8135 14.0117 12.8135C15.7734 12.8135 17.2021 14.2422 17.2021 16.0146C17.2021 17.7764 15.7734 19.2158 14.0117 19.2158ZM22.2188 19.2158C20.4463 19.2158 19.0176 17.7764 19.0176 16.0146C19.0176 14.2422 20.4463 12.8135 22.2188 12.8135C23.9805 12.8135 25.4199 14.2422 25.4199 16.0146C25.4199 17.7764 23.9805 19.2158 22.2188 19.2158ZM14.0117 18.1309C15.1719 18.1309 16.1172 17.1855 16.1172 16.0146C16.1172 14.8438 15.1719 13.8877 14.0117 13.8877C12.8301 13.8877 11.8848 14.8438 11.8848 16.0146C11.8848 17.1855 12.8301 18.1309 14.0117 18.1309ZM22.2188 18.1309C23.3896 18.1309 24.335 17.1855 24.335 16.0146C24.335 14.8438 23.3896 13.8877 22.2188 13.8877C21.0479 13.8877 20.0918 14.8438 20.0918 16.0146C20.0918 17.1855 21.0479 18.1309 22.2188 18.1309ZM14.0117 17.6152C13.0986 17.6152 12.4004 16.917 12.4004 16.0146C12.4004 15.1123 13.0986 14.4141 14.0117 14.4141C14.9033 14.4141 15.6016 15.1123 15.6016 16.0146C15.6016 16.917 14.9033 17.6152 14.0117 17.6152ZM22.2188 17.6152C21.3057 17.6152 20.6182 16.917 20.6182 16.0146C20.6182 15.1123 21.3057 14.4141 22.2188 14.4141C23.1211 14.4141 23.8193 15.1123 23.8193 16.0146C23.8193 16.917 23.1211 17.6152 22.2188 17.6152ZM28.6748 16.3584C28.127 16.3584 27.6973 15.9287 27.6973 15.3809C27.6973 14.8545 28.127 14.4248 28.6748 14.4248C29.2012 14.4248 29.6309 14.8545 29.6309 15.3809C29.6309 15.9287 29.2012 16.3584 28.6748 16.3584ZM28.6748 19.4307C28.127 19.4307 27.6973 19.001 27.6973 18.4531C27.6973 17.916 28.127 17.4863 28.6748 17.4863C29.2012 17.4863 29.6309 17.916 29.6309 18.4531C29.6309 19.001 29.2012 19.4307 28.6748 19.4307ZM28.6748 22.4922C28.127 22.4922 27.6973 22.0625 27.6973 21.5254C27.6973 20.9883 28.127 20.5586 28.6748 20.5586C29.2012 20.5586 29.6309 20.9883 29.6309 21.5254C29.6309 22.0625 29.2012 22.4922 28.6748 22.4922ZM14.0117 27.1543C12.2393 27.1543 10.8105 25.7256 10.8105 23.9531C10.8105 22.1914 12.2393 20.752 14.0117 20.752C15.7734 20.752 17.2021 22.1914 17.2021 23.9531C17.2021 25.7256 15.7734 27.1543 14.0117 27.1543ZM22.2188 27.1543C20.4463 27.1543 19.0176 25.7256 19.0176 23.9531C19.0176 22.1914 20.4463 20.752 22.2188 20.752C23.9805 20.752 25.4199 22.1914 25.4199 23.9531C25.4199 25.7256 23.9805 27.1543 22.2188 27.1543ZM14.0117 26.0801C15.1719 26.0801 16.1172 25.1348 16.1172 23.9531C16.1172 22.7822 15.1719 21.8369 14.0117 21.8369C12.8301 21.8369 11.8848 22.7822 11.8848 23.9531C11.8848 25.1348 12.8301 26.0801 14.0117 26.0801ZM22.2188 26.0801C23.3896 26.0801 24.335 25.1348 24.335 23.9531C24.335 22.7822 23.3896 21.8369 22.2188 21.8369C21.0479 21.8369 20.0918 22.7822 20.0918 23.9531C20.0918 25.1348 21.0479 26.0801 22.2188 26.0801ZM14.0117 25.5645C13.0986 25.5645 12.4004 24.8662 12.4004 23.9531C12.4004 23.0508 13.0986 22.3525 14.0117 22.3525C14.9033 22.3525 15.6016 23.0508 15.6016 23.9531C15.6016 24.8662 14.9033 25.5645 14.0117 25.5645ZM22.2188 25.5645C21.3057 25.5645 20.6182 24.8662 20.6182 23.9531C20.6182 23.0508 21.3057 22.3525 22.2188 22.3525C23.1211 22.3525 23.8193 23.0508 23.8193 23.9531C23.8193 24.8662 23.1211 25.5645 22.2188 25.5645ZM28.6748 25.5645C28.127 25.5645 27.6973 25.1348 27.6973 24.5869C27.6973 24.0605 28.127 23.6201 28.6748 23.6201C29.2012 23.6201 29.6309 24.0605 29.6309 24.5869C29.6309 25.1348 29.2012 25.5645 28.6748 25.5645Z" fill="#C64E0A"/>
</svg>
