<svg width="40" height="40" viewBox="0 0 40 40" fill="none" xmlns="http://www.w3.org/2000/svg">
<path d="M17.7607 21.7695C17.4814 21.7695 17.2415 21.6729 17.041 21.4795C16.8477 21.2861 16.751 21.0534 16.751 20.7812V10.0283L16.8369 8.42773L16.1709 9.22266L14.667 10.8232C14.4951 11.0166 14.2695 11.1133 13.9902 11.1133C13.7396 11.1133 13.5283 11.0345 13.3564 10.877C13.1846 10.7122 13.0986 10.5046 13.0986 10.2539C13.0986 10.0176 13.1953 9.80273 13.3887 9.60938L16.9873 6.13965C17.2236 5.91048 17.4814 5.7959 17.7607 5.7959C18.04 5.7959 18.2943 5.91048 18.5234 6.13965L22.1221 9.60938C22.3154 9.80273 22.4121 10.0176 22.4121 10.2539C22.4121 10.5046 22.3226 10.7122 22.1436 10.877C21.9717 11.0345 21.7604 11.1133 21.5098 11.1133C21.2376 11.1133 21.0156 11.0166 20.8438 10.8232L19.3398 9.22266L18.6846 8.43848L18.7598 10.0283V20.7812C18.7598 21.0534 18.6595 21.2861 18.459 21.4795C18.2656 21.6729 18.0329 21.7695 17.7607 21.7695ZM11.5625 30.2988C10.3952 30.2988 9.51074 30.0016 8.90918 29.4072C8.31478 28.82 8.01758 27.9499 8.01758 26.7969V16.3662C8.01758 15.2132 8.31478 14.3431 8.90918 13.7559C9.51074 13.1615 10.3952 12.8643 11.5625 12.8643H14.4844V15.002H11.6914C10.6745 15.002 10.166 15.5176 10.166 16.5488V26.6035C10.166 27.6419 10.6745 28.1611 11.6914 28.1611H23.7871C24.8112 28.1611 25.3232 27.6419 25.3232 26.6035V16.5488C25.3232 15.5176 24.8112 15.002 23.7871 15.002H21.0264V12.8643H23.9268C25.0941 12.8643 25.9749 13.1615 26.5693 13.7559C27.1637 14.3431 27.4609 15.2132 27.4609 16.3662V17.1396H29.4375C30.6048 17.1396 31.4857 17.4368 32.0801 18.0312C32.6816 18.6185 32.9824 19.4886 32.9824 20.6416V32.0068C32.9824 33.1598 32.6816 34.0299 32.0801 34.6172C31.4857 35.2116 30.6048 35.5088 29.4375 35.5088H17.9004C16.7402 35.5088 15.8594 35.2116 15.2578 34.6172C14.6634 34.0299 14.3662 33.1598 14.3662 32.0068V30.2988H11.5625ZM18.04 33.3711H29.2979C30.3219 33.3711 30.834 32.8555 30.834 31.8242V20.835C30.834 19.8037 30.3219 19.2881 29.2979 19.2881H27.4609V26.7969C27.4609 27.9499 27.1637 28.82 26.5693 29.4072C25.9749 30.0016 25.0941 30.2988 23.9268 30.2988H16.5039V31.8242C16.5039 32.3327 16.6364 32.7158 16.9014 32.9736C17.1663 33.2386 17.5459 33.3711 18.04 33.3711Z" fill="black"/>
</svg>
