<svg width="24" height="24" viewBox="0 0 24 24" fill="none" xmlns="http://www.w3.org/2000/svg">
<path d="M8.05089 15.1145C7.79974 15.1145 7.59044 15.026 7.423 14.849C7.25997 14.672 7.17845 14.4458 7.17845 14.1705C7.17845 13.8509 7.2842 13.5633 7.4957 13.3076L9.51157 10.8664C9.58207 10.7828 9.63054 10.7066 9.65697 10.6377C9.68341 10.564 9.69002 10.4657 9.6768 10.3427L9.37938 7.82039C9.36616 7.72697 9.34854 7.65813 9.3265 7.61388C9.30888 7.56471 9.27143 7.52046 9.21414 7.48113L7.58824 6.18308C7.19608 5.87332 7 5.49718 7 5.05466C7 4.76457 7.09033 4.51627 7.27098 4.30976C7.45605 4.10325 7.68958 4 7.97158 4H16.0284C16.3148 4 16.5484 4.10325 16.729 4.30976C16.9097 4.51627 17 4.76457 17 5.05466C17 5.49718 16.8039 5.87332 16.4118 6.18308L14.7859 7.48113C14.7286 7.52046 14.6889 7.56471 14.6669 7.61388C14.6493 7.65813 14.6338 7.72697 14.6206 7.82039L14.3232 10.3427C14.31 10.4657 14.3166 10.564 14.343 10.6377C14.3695 10.7066 14.4179 10.7828 14.4884 10.8664L16.5043 13.3076C16.7158 13.5633 16.8215 13.8509 16.8215 14.1705C16.8215 14.4458 16.74 14.672 16.577 14.849C16.414 15.026 16.2069 15.1145 15.9557 15.1145H12.6576V18.9202C12.6576 19.2398 12.6158 19.5667 12.5321 19.9011C12.4483 20.2354 12.3558 20.5009 12.2545 20.6976C12.1531 20.8992 12.0694 21 12.0033 21C11.9372 21 11.8535 20.8992 11.7521 20.6976C11.6508 20.5009 11.5583 20.2354 11.4746 19.9011C11.3908 19.5667 11.349 19.2398 11.349 18.9202V15.1145H8.05089Z" fill="black"/>
</svg>
