<svg width="14" height="20" viewBox="0 0 14 20" fill="none" xmlns="http://www.w3.org/2000/svg">
<path d="M4.33516 1.12932L11.5434 2.45348C12.3084 2.59472 12.946 2.81541 13.473 3.11556L13.4645 2.53293C13.4305 0.617313 12.1469 -0.30077 10.0474 0.0876497L4.33516 1.12932ZM1.75106 18.2286L11.1269 19.9412C12.9035 20.2678 14 19.2173 14 17.2046V6.54954C14 4.70455 13.133 3.9895 11.3309 3.66288L2.24408 1.99444C0.909532 1.75609 0 2.54175 0 3.91888V16.1188C0 17.3017 0.603522 18.0167 1.75106 18.2286ZM3.44262 7.26458C3.11111 7.21162 2.9241 6.94679 2.9241 6.59368C2.9241 6.16995 3.24712 5.88746 3.69763 5.96691L10.2344 7.15865C10.5829 7.22927 10.7699 7.44114 10.7699 7.82956C10.7699 8.25329 10.4724 8.5446 10.0219 8.47398L3.44262 7.26458ZM3.44262 10.8839C3.11961 10.8222 2.9241 10.5662 2.9241 10.213C2.9241 9.79814 3.24712 9.51565 3.69763 9.5951L10.2344 10.7868C10.5829 10.8575 10.7699 11.0693 10.7699 11.4401C10.7699 11.8815 10.4724 12.1728 10.0219 12.1022L3.44262 10.8839Z" fill="#0C695E"/>
</svg>
