<svg width="236" height="88" viewBox="0 0 236 88" fill="none" xmlns="http://www.w3.org/2000/svg">
<path d="M235.128 83.2823C236 81.571 236 79.3308 236 74.8504L236 30.4504C236 25.97 236 23.7298 235.128 22.0185C234.361 20.5132 233.137 19.2893 231.632 18.5223C229.921 17.6504 227.68 17.6504 223.2 17.6504L205.107 17.6504C204.996 17.6504 204.903 17.5745 204.856 17.4747L196.905 0.573872C196.545 -0.191883 195.455 -0.191883 195.095 0.573872L187.144 17.4747C187.097 17.5745 187.004 17.6504 186.893 17.6504L12.8 17.6504C8.31959 17.6504 6.07938 17.6504 4.36808 18.5223C2.86278 19.2893 1.63894 20.5131 0.871954 22.0184C5.58812e-06 23.7297 5.39227e-06 25.97 5.00058e-06 30.4504L1.11901e-06 74.8504C7.27321e-07 79.3308 5.31475e-07 81.571 0.871949 83.2823C1.63893 84.7876 2.86278 86.0114 4.36807 86.7784C6.07938 87.6504 8.31958 87.6504 12.8 87.6504L223.2 87.6504C227.68 87.6504 229.921 87.6504 231.632 86.7784C233.137 86.0115 234.361 84.7876 235.128 83.2823Z" fill="#78F6E6"/>
</svg>
