<svg width="40" height="40" viewBox="0 0 40 40" fill="none" xmlns="http://www.w3.org/2000/svg">
<path d="M11.519 23.7695C11.519 24.7363 12.1743 25.3809 13.1948 25.3809H18.9419V30.4619C18.9419 31.9766 19.7046 33.502 20.0054 33.502C20.2954 33.502 21.0581 31.9766 21.0581 30.4619V25.3809H26.8052C27.8257 25.3809 28.481 24.7363 28.481 23.7695C28.481 21.46 26.644 19.0859 23.6147 17.9688L23.2603 12.9736C24.8608 12.0605 26.1284 11.0615 26.687 10.3525C26.9771 9.96582 27.1274 9.5791 27.1274 9.23535C27.1274 8.52637 26.5796 8 25.7739 8H14.2261C13.4204 8 12.8726 8.52637 12.8726 9.23535C12.8726 9.5791 13.0229 9.96582 13.313 10.3525C13.8716 11.0615 15.1392 12.0605 16.7397 12.9736L16.396 17.9688C13.356 19.0859 11.519 21.46 11.519 23.7695Z" fill="black"/>
</svg>
