<svg width="32" height="32" viewBox="0 0 32 32" fill="none" xmlns="http://www.w3.org/2000/svg">
<path d="M10.417 28.3105C10.9541 28.3105 11.3086 27.9453 11.3086 27.4082V26.3232H20.6865V27.4082C20.6865 27.9453 21.041 28.3105 21.5781 28.3105C22.1152 28.3105 22.4697 27.9453 22.4697 27.4082V26.3125C23.834 26.2158 24.7256 25.2168 24.7256 23.7559V6.25684C24.7256 4.70996 23.7266 3.68945 22.2441 3.68945H9.75098C8.26855 3.68945 7.26953 4.70996 7.26953 6.25684V23.7559C7.26953 25.2168 8.16113 26.2158 9.52539 26.3125V27.4082C9.52539 27.9453 9.87988 28.3105 10.417 28.3105ZM9.83691 24.5938C9.33203 24.5938 8.99902 24.2607 8.99902 23.7451V6.26758C8.99902 5.75195 9.33203 5.41895 9.83691 5.41895H15.2939V24.5938H9.83691ZM22.1582 5.41895C22.6631 5.41895 22.9961 5.75195 22.9961 6.26758V23.7451C22.9961 24.2607 22.6631 24.5938 22.1582 24.5938H16.7012V5.41895H22.1582ZM13.21 16.5371C13.833 16.5371 14.3486 16.0322 14.3486 15.4092C14.3486 14.7754 13.833 14.2705 13.21 14.2705C12.5869 14.2705 12.0713 14.7754 12.0713 15.4092C12.0713 16.0322 12.5869 16.5371 13.21 16.5371ZM18.7744 16.5371C19.3975 16.5371 19.9131 16.0322 19.9131 15.4092C19.9131 14.7754 19.3975 14.2705 18.7744 14.2705C18.1514 14.2705 17.6357 14.7754 17.6357 15.4092C17.6357 16.0322 18.1514 16.5371 18.7744 16.5371Z" fill="#537979"/>
</svg>
