<svg width="32" height="32" viewBox="0 0 32 32" fill="none" xmlns="http://www.w3.org/2000/svg">
<path d="M6.88574 26.4102H25.1152C27.3389 26.4102 28.4346 25.3359 28.4346 23.1338V12.6816C28.4346 10.4795 27.3389 9.40527 25.1152 9.40527H21.4414V8.55664C21.4414 6.53711 20.3779 5.5918 18.4336 5.5918H13.5566C11.7197 5.5918 10.5488 6.53711 10.5488 8.55664V9.40527H6.88574C4.67285 9.40527 3.56641 10.4795 3.56641 12.6816V23.1338C3.56641 25.3359 4.67285 26.4102 6.88574 26.4102ZM12.2139 8.43848C12.2139 7.62207 12.6973 7.16016 13.5352 7.16016H18.4658C19.3037 7.16016 19.7764 7.62207 19.7764 8.43848V9.40527H12.2139V8.43848ZM10.9463 18.8691V16.9248C10.9463 16.3662 11.3223 15.9795 11.8916 15.9795H14.0938V13.7988C14.0938 13.2188 14.4697 12.8428 15.0391 12.8428H16.9727C17.5312 12.8428 17.918 13.2188 17.918 13.7988V15.9795H20.1094C20.6787 15.9795 21.0654 16.3662 21.0654 16.9248V18.8691C21.0654 19.4277 20.6787 19.8145 20.1094 19.8145H17.918V22.0059C17.918 22.5752 17.5312 22.9512 16.9727 22.9512H15.0391C14.4697 22.9512 14.0938 22.5752 14.0938 22.0059V19.8145H11.8916C11.333 19.8145 10.9463 19.4277 10.9463 18.8691Z" fill="white" fill-opacity="0.6"/>
</svg>
