<svg width="428" height="32" viewBox="0 0 428 32" fill="none" xmlns="http://www.w3.org/2000/svg">
<path d="M24.9181 27.2202C23.0597 25.351 23.0382 22.8374 24.8966 21.0005C26.3468 19.561 27.9259 19.1635 30.6652 17.3374L24.3703 11.0532C22.8664 9.54929 22.8664 7.93796 24.338 6.46628L25.7668 5.03757C27.2384 3.56589 28.8498 3.56589 30.3644 5.0698L36.799 11.5473C35.9718 9.34519 36.4123 6.82078 38.131 5.10203C40.0646 3.15769 43.1046 2.83542 45.5539 4.26413L44.5011 5.31687L42.6212 7.17527C42.3312 7.46531 42.3634 7.84128 42.675 8.16355L43.9855 9.48484C44.297 9.79636 44.6623 9.77488 44.9523 9.48484L46.8322 7.6157L47.8742 6.56296C49.3136 9.03367 48.9806 12.0844 47.047 14.018C45.1994 15.855 42.4171 16.2202 40.1183 15.1352C39.506 15.7475 38.9582 16.3276 38.464 16.8755L43.4484 21.8598L44.5871 21.9135C44.9416 21.9243 45.3068 22.1606 45.5002 22.5151L47.4445 26.0923C47.6271 26.436 47.6701 26.6938 47.466 26.8979L46.2091 28.1548C45.9943 28.3696 45.7365 28.3159 45.4142 28.1548L41.8156 26.1889C41.4503 26.0063 41.2248 25.6303 41.214 25.2973L41.1603 24.1587L36.3478 19.3462C33.1037 23.4604 32.9103 25.437 31.1271 27.2417C29.2902 29.0893 26.7873 29.0678 24.9181 27.2202ZM41.5363 9.02292C40.7091 8.21726 40.6877 7.20749 41.4826 6.42331L43.0509 4.84421C41.633 4.62937 40.172 5.0698 39.13 6.10105C37.3039 7.90574 37.3791 10.935 39.2912 12.8471C41.214 14.7485 44.2218 14.8344 46.0373 13.019C47.0793 11.9663 47.5089 10.5053 47.2834 9.05515L45.6935 10.6557C44.9416 11.4184 43.9211 11.3969 43.1261 10.602L41.5363 9.02292ZM32.2013 12.1167C32.3625 12.2885 32.6632 12.2671 32.8029 12.1167C32.9748 11.9233 32.9748 11.6548 32.8136 11.4936L28.549 7.23972C28.3771 7.06785 28.0978 7.07859 27.9474 7.23972C27.7755 7.4116 27.7863 7.66941 27.9474 7.83054L32.2013 12.1167ZM30.7941 13.5024C30.966 13.6743 31.2453 13.6743 31.4064 13.5024C31.5675 13.3413 31.5783 13.0835 31.4064 12.9116L27.131 8.6362C26.9806 8.49656 26.7013 8.47507 26.5295 8.6362C26.3683 8.81882 26.3576 9.08738 26.5295 9.25925L30.7941 13.5024ZM38.2814 13.8462C38.0773 13.6313 37.8839 13.4165 37.7121 13.1909C30.0851 20.6245 28.549 19.518 25.9494 22.1069C24.7677 23.2993 24.7462 24.8999 25.9816 26.1567C27.2277 27.3813 28.839 27.3706 30.0314 26.1675C32.6203 23.5893 31.5138 22.0532 38.9474 14.4262C38.7111 14.2544 38.4962 14.0503 38.2814 13.8462ZM27.9796 25.5122C27.2492 25.5122 26.6584 24.9106 26.6584 24.1802C26.6584 23.4497 27.2492 22.8589 27.9796 22.8589C28.7101 22.8589 29.3117 23.4497 29.3117 24.1802C29.3117 24.9106 28.7101 25.5122 27.9796 25.5122Z" fill="#46A5C4"/>
<path d="M89.7606 16.1396C91.6405 16.9883 92.4354 19.2334 91.576 21.0918C91.1356 22.0156 90.3729 22.6816 89.449 22.9932C88.8797 20.9199 87.3114 19.4482 85.41 19.4482C83.0037 19.4482 81.1239 21.8115 81.1239 24.7656C81.1239 26.0762 81.4998 27.2686 82.1121 28.2031C81.0916 28.332 79.8992 28.3428 78.8895 28.2031C79.5018 27.2686 79.8778 26.0762 79.8778 24.7656C79.8778 21.8115 77.9979 19.4482 75.5916 19.4482C73.6903 19.4482 72.1219 20.9199 71.5526 22.9932C70.6287 22.6816 69.866 22.0156 69.4256 21.0918C68.5662 19.2334 69.3612 16.9883 71.241 16.1396L74.5926 14.625C73.7332 13.4326 73.2283 11.9717 73.2283 10.3926C73.2283 10.2422 73.2283 10.1025 73.2391 9.95215C71.4451 9.76953 70.0487 8.25488 70.0487 6.40723C70.0487 4.45215 71.6385 2.8623 73.6043 2.8623C74.786 2.8623 75.8387 3.44238 76.4832 4.34473C77.6326 3.57129 79.0076 3.13086 80.4901 3.13086C81.9725 3.13086 83.3475 3.57129 84.4969 4.34473C85.1414 3.44238 86.1942 2.8623 87.3758 2.8623C89.3416 2.8623 90.9315 4.45215 90.9315 6.40723C90.9315 8.25488 89.535 9.76953 87.741 9.95215C87.7518 10.1025 87.7518 10.2422 87.7518 10.3926C87.7518 11.9717 87.2469 13.4219 86.3983 14.6143L89.7606 16.1396ZM73.6043 4.39844C72.4979 4.39844 71.5955 5.30078 71.5955 6.40723C71.5955 7.41699 72.3367 8.24414 73.3143 8.38379C73.368 8.39453 73.4324 8.40527 73.5076 8.40527C73.8299 7.23438 74.4637 6.1709 75.2908 5.33301C74.9364 4.76367 74.3133 4.39844 73.6043 4.39844ZM87.3758 4.39844C86.6668 4.39844 86.0438 4.76367 85.6893 5.33301C86.5164 6.1709 87.1502 7.23438 87.4725 8.40527C87.5155 8.40527 87.6014 8.39453 87.6658 8.38379C88.6434 8.25488 89.3846 7.40625 89.3846 6.40723C89.3846 5.30078 88.4823 4.39844 87.3758 4.39844ZM77.6864 9.90918C78.202 9.90918 78.6209 9.49023 78.6209 8.97461C78.6209 8.45898 78.202 8.04004 77.6864 8.04004C77.1922 8.04004 76.7625 8.45898 76.7625 8.97461C76.7625 9.49023 77.1922 9.90918 77.6864 9.90918ZM83.3045 9.90918C83.7987 9.90918 84.2283 9.49023 84.2283 8.97461C84.2283 8.45898 83.7987 8.04004 83.3045 8.04004C82.7889 8.04004 82.3699 8.45898 82.3699 8.97461C82.3699 9.49023 82.7889 9.90918 83.3045 9.90918ZM80.5115 16.752C82.327 16.752 83.8309 15.2588 83.8309 13.4326C83.8309 11.5957 82.3377 10.1133 80.5115 10.1133C78.6746 10.1133 77.1922 11.6064 77.1922 13.4326C77.1922 15.2695 78.6639 16.752 80.5115 16.752ZM80.4901 13.8516C79.8563 13.8516 78.7821 12.8848 78.7821 12.6162C78.7821 12.1758 79.5233 11.5635 80.4901 11.5635C81.4569 11.5635 82.1658 12.1758 82.1658 12.6162C82.1658 12.8848 81.1346 13.8516 80.4901 13.8516ZM75.5916 29.1377C73.7332 29.1377 72.283 27.1826 72.283 24.7656C72.283 22.3809 73.7332 20.4258 75.5916 20.4258C77.45 20.4258 78.9002 22.3809 78.9002 24.7656C78.9002 27.1826 77.45 29.1377 75.5916 29.1377ZM85.41 29.1377C83.5516 29.1377 82.1014 27.1826 82.1014 24.7656C82.1014 22.3809 83.5516 20.4258 85.41 20.4258C87.2684 20.4258 88.7186 22.3809 88.7186 24.7656C88.7186 27.1826 87.2684 29.1377 85.41 29.1377Z" fill="#EF7463"/>
<path d="M113.722 25.9629H114.979C115.784 25.9629 116.407 25.3398 116.407 24.5449V22.751C118.792 22.9014 122.24 23.0088 125.001 23.0088C127.762 23.0088 131.221 22.9014 133.605 22.751V24.5449C133.605 25.3398 134.218 25.9629 135.023 25.9629H136.291C137.097 25.9629 137.709 25.3398 137.709 24.5449V18.3574C137.709 16.542 137.344 15.5322 136.355 14.2432L135.442 13.0723C135.056 11.1387 134.336 9.1084 133.971 8.31348C133.391 7.09961 132.284 6.37988 130.855 6.18652C130.136 6.08984 127.783 6.03613 125.001 6.03613C122.229 6.03613 119.877 6.10059 119.157 6.18652C117.729 6.3584 116.611 7.09961 116.042 8.31348C115.666 9.1084 114.957 11.1387 114.56 13.0723L113.657 14.2432C112.658 15.5322 112.293 16.542 112.293 18.3574V24.5449C112.293 25.3398 112.916 25.9629 113.722 25.9629ZM116.729 12.1699C116.977 10.999 117.503 9.46289 117.857 8.83984C118.147 8.33496 118.459 8.10938 119.039 8.03418C119.855 7.92676 121.682 7.85156 125.001 7.85156C128.331 7.85156 130.157 7.90527 130.963 8.03418C131.543 8.12012 131.844 8.33496 132.145 8.83984C132.51 9.45215 133.004 10.999 133.283 12.1699C133.38 12.5674 133.208 12.7178 132.8 12.6963C131.017 12.5781 128.89 12.4707 125.001 12.4707C121.123 12.4707 118.996 12.5781 117.213 12.6963C116.794 12.7178 116.633 12.5674 116.729 12.1699ZM117.256 20.1084C116.278 20.1084 115.526 19.3564 115.526 18.3789C115.526 17.3906 116.278 16.6494 117.256 16.6494C118.233 16.6494 118.985 17.3906 118.985 18.3789C118.985 19.3564 118.233 20.1084 117.256 20.1084ZM132.746 20.1084C131.769 20.1084 131.027 19.3564 131.027 18.3789C131.027 17.3906 131.769 16.6494 132.746 16.6494C133.734 16.6494 134.476 17.3906 134.476 18.3789C134.476 19.3564 133.734 20.1084 132.746 20.1084ZM122.165 19.6787C121.424 19.6787 120.919 19.1738 120.919 18.4326C120.919 17.7021 121.424 17.1973 122.165 17.1973H127.848C128.578 17.1973 129.083 17.7021 129.083 18.4326C129.083 19.1738 128.578 19.6787 127.848 19.6787H122.165Z" fill="#6597A0"/>
<path d="M159.18 14.8613V12.251C159.18 11.1016 159.878 10.6504 160.984 10.6504H163.477C162.843 10.0596 162.467 9.25391 162.467 8.30859C162.467 6.22461 164.121 4.74219 166.194 4.74219C167.709 4.74219 168.944 5.56934 169.492 7.00879C170.04 5.56934 171.286 4.74219 172.79 4.74219C174.874 4.74219 176.518 6.22461 176.518 8.30859C176.518 9.25391 176.142 10.0596 175.519 10.6504H178.011C179.171 10.6504 179.815 11.1016 179.815 12.251V14.8613C179.815 16.0107 179.171 16.4619 178.011 16.4619H170.373V10.6504H168.611V9.09277C168.611 7.50293 167.58 6.53613 166.302 6.53613C165.12 6.53613 164.261 7.22363 164.261 8.40527C164.261 9.58691 165.249 10.6504 166.936 10.6504H168.611V16.4619H160.984C159.824 16.4619 159.18 16.0107 159.18 14.8613ZM172.683 6.53613C171.404 6.53613 170.373 7.50293 170.373 9.09277V10.6504H172.049C173.746 10.6504 174.724 9.58691 174.724 8.40527C174.724 7.22363 173.864 6.53613 172.683 6.53613ZM160.716 24.5293V17.6113H168.611V27.2578H163.562C161.769 27.2578 160.716 26.3232 160.716 24.5293ZM170.373 27.2578V17.6113H178.279V24.5293C178.279 26.3232 177.216 27.2578 175.433 27.2578H170.373Z" fill="#EE982F"/>
<path d="M204.24 26.5488C202.124 26.5488 201.039 25.4639 201.039 23.3799V8.62012C201.039 6.53613 202.124 5.45117 204.24 5.45117H223.759C225.886 5.45117 226.96 6.53613 226.96 8.62012V23.3799C226.96 25.4639 225.886 26.5488 223.759 26.5488H204.24ZM207.646 15.1621C209.482 15.1621 210.976 13.6582 210.976 11.832C210.976 10.0059 209.482 8.50195 207.646 8.50195C205.819 8.50195 204.326 10.0059 204.326 11.832C204.326 13.6582 205.819 15.1621 207.646 15.1621ZM216.239 15.1621C218.076 15.1621 219.559 13.6582 219.559 11.832C219.559 10.0059 218.076 8.50195 216.239 8.50195C214.402 8.50195 212.909 10.0059 212.909 11.832C212.909 13.6582 214.402 15.1621 216.239 15.1621ZM207.646 14.0986C206.399 14.0986 205.39 13.0889 205.39 11.832C205.39 10.5752 206.399 9.56543 207.646 9.56543C208.902 9.56543 209.923 10.5752 209.923 11.832C209.923 13.0889 208.902 14.0986 207.646 14.0986ZM216.239 14.0986C214.993 14.0986 213.973 13.0889 213.973 11.832C213.973 10.5752 214.993 9.56543 216.239 9.56543C217.496 9.56543 218.506 10.5752 218.506 11.832C218.506 13.0889 217.496 14.0986 216.239 14.0986ZM207.646 13.583C208.634 13.583 209.386 12.8203 209.386 11.832C209.386 10.8438 208.634 10.0918 207.646 10.0918C206.679 10.0918 205.916 10.8438 205.916 11.832C205.916 12.8203 206.679 13.583 207.646 13.583ZM216.239 13.583C217.217 13.583 217.979 12.8203 217.979 11.832C217.979 10.8438 217.217 10.0918 216.239 10.0918C215.251 10.0918 214.488 10.8438 214.488 11.832C214.488 12.8203 215.251 13.583 216.239 13.583ZM223.071 12.1865C223.608 12.1865 224.038 11.7568 224.038 11.209C224.038 10.6826 223.608 10.2422 223.071 10.2422C222.523 10.2422 222.094 10.6826 222.094 11.209C222.094 11.7568 222.523 12.1865 223.071 12.1865ZM223.071 15.3662C223.608 15.3662 224.038 14.9473 224.038 14.3887C224.038 13.8623 223.608 13.4219 223.071 13.4219C222.523 13.4219 222.094 13.8623 222.094 14.3887C222.094 14.9473 222.523 15.3662 223.071 15.3662ZM223.071 18.5674C223.608 18.5674 224.038 18.127 224.038 17.5898C224.038 17.042 223.608 16.623 223.071 16.623C222.523 16.623 222.094 17.042 222.094 17.5898C222.094 18.127 222.523 18.5674 223.071 18.5674ZM207.646 23.4658C209.482 23.4658 210.976 21.9727 210.976 20.1357C210.976 18.3096 209.482 16.8164 207.646 16.8164C205.819 16.8164 204.326 18.3096 204.326 20.1357C204.326 21.9727 205.819 23.4658 207.646 23.4658ZM216.239 23.4658C218.076 23.4658 219.559 21.9727 219.559 20.1357C219.559 18.3096 218.076 16.8164 216.239 16.8164C214.402 16.8164 212.909 18.3096 212.909 20.1357C212.909 21.9727 214.402 23.4658 216.239 23.4658ZM207.646 22.4023C206.399 22.4023 205.39 21.4033 205.39 20.1357C205.39 18.8789 206.399 17.8799 207.646 17.8799C208.902 17.8799 209.923 18.8789 209.923 20.1357C209.923 21.4033 208.902 22.4023 207.646 22.4023ZM216.239 22.4023C214.993 22.4023 213.973 21.4033 213.973 20.1357C213.973 18.8789 214.993 17.8799 216.239 17.8799C217.496 17.8799 218.506 18.8789 218.506 20.1357C218.506 21.4033 217.496 22.4023 216.239 22.4023ZM207.646 21.8867C208.634 21.8867 209.386 21.124 209.386 20.1357C209.386 19.1582 208.634 18.3955 207.646 18.3955C206.679 18.3955 205.916 19.1582 205.916 20.1357C205.916 21.124 206.679 21.8867 207.646 21.8867ZM216.239 21.8867C217.217 21.8867 217.979 21.124 217.979 20.1357C217.979 19.1582 217.217 18.3955 216.239 18.3955C215.251 18.3955 214.488 19.1582 214.488 20.1357C214.488 21.124 215.251 21.8867 216.239 21.8867ZM223.071 21.7471C223.608 21.7471 224.038 21.3066 224.038 20.7695C224.038 20.2324 223.608 19.8027 223.071 19.8027C222.523 19.8027 222.094 20.2324 222.094 20.7695C222.094 21.3066 222.523 21.7471 223.071 21.7471Z" fill="#6C7AC8"/>
<path d="M250.131 27.5156C250.969 27.0537 251.237 26.4092 251.237 25.2598V7.81445C251.237 5.60156 252.365 4.48438 254.61 4.48438H267.125C269.381 4.48438 270.498 5.60156 270.498 7.81445V24.1963C270.498 26.4092 269.381 27.5156 267.125 27.5156H250.131ZM255.545 10.8867H266.212C266.588 10.8867 266.878 10.5859 266.878 10.21C266.878 9.84473 266.588 9.56543 266.212 9.56543H255.545C255.158 9.56543 254.868 9.84473 254.868 10.21C254.868 10.5859 255.158 10.8867 255.545 10.8867ZM246.5 14.958C246.5 13.6797 247.306 12.9385 248.616 12.9385H249.143V24.5508C249.143 25.335 248.573 25.8291 247.821 25.8398C247.069 25.8398 246.5 25.335 246.5 24.5508V14.958ZM255.545 14.668H266.212C266.588 14.668 266.878 14.3779 266.878 14.0127C266.878 13.6367 266.588 13.3467 266.212 13.3467H255.545C255.158 13.3467 254.868 13.6367 254.868 14.0127C254.868 14.3779 255.158 14.668 255.545 14.668ZM262.205 18.46H266.212C266.588 18.46 266.867 18.1807 266.867 17.8154C266.867 17.4287 266.588 17.1387 266.212 17.1387H262.205C261.818 17.1387 261.539 17.4287 261.539 17.8154C261.539 18.1807 261.818 18.46 262.205 18.46ZM256.125 22.3809H258.811C259.595 22.3809 260.067 21.9082 260.067 21.124V18.4062C260.067 17.6113 259.595 17.1387 258.811 17.1387H256.125C255.33 17.1387 254.857 17.6113 254.857 18.4062V21.124C254.857 21.9082 255.33 22.3809 256.125 22.3809ZM262.205 22.3271H266.212C266.588 22.3271 266.867 22.0479 266.867 21.6826C266.867 21.3066 266.588 21.0059 266.212 21.0059H262.205C261.818 21.0059 261.539 21.3066 261.539 21.6826C261.539 22.0479 261.818 22.3271 262.205 22.3271Z" fill="#CA5DB8"/>
<path d="M293.886 26.4102H312.115C314.339 26.4102 315.435 25.3359 315.435 23.1338V12.6816C315.435 10.4795 314.339 9.40527 312.115 9.40527H308.441V8.55664C308.441 6.53711 307.378 5.5918 305.434 5.5918H300.557C298.72 5.5918 297.549 6.53711 297.549 8.55664V9.40527H293.886C291.673 9.40527 290.566 10.4795 290.566 12.6816V23.1338C290.566 25.3359 291.673 26.4102 293.886 26.4102ZM299.214 8.43848C299.214 7.62207 299.697 7.16016 300.535 7.16016H305.466C306.304 7.16016 306.776 7.62207 306.776 8.43848V9.40527H299.214V8.43848ZM297.946 18.8691V16.9248C297.946 16.3662 298.322 15.9795 298.892 15.9795H301.094V13.7988C301.094 13.2188 301.47 12.8428 302.039 12.8428H303.973C304.531 12.8428 304.918 13.2188 304.918 13.7988V15.9795H307.109C307.679 15.9795 308.065 16.3662 308.065 16.9248V18.8691C308.065 19.4277 307.679 19.8145 307.109 19.8145H304.918V22.0059C304.918 22.5752 304.531 22.9512 303.973 22.9512H302.039C301.47 22.9512 301.094 22.5752 301.094 22.0059V19.8145H298.892C298.333 19.8145 297.946 19.4277 297.946 18.8691Z" fill="#E45366"/>
<path d="M340.542 23.9492C339.124 23.9492 338.125 22.9932 338.125 21.6396V10.3711C338.125 9.00684 339.124 8.05078 340.542 8.05078C341.971 8.05078 342.97 9.00684 342.97 10.3711V21.6396C342.97 22.9932 341.971 23.9492 340.542 23.9492ZM354.561 23.9492C353.143 23.9492 352.144 22.9932 352.144 21.6396V10.3711C352.144 9.00684 353.143 8.05078 354.561 8.05078C355.989 8.05078 356.988 9.00684 356.988 10.3711V21.6396C356.988 22.9932 355.989 23.9492 354.561 23.9492ZM335.439 21.5752C334.58 21.5752 333.914 20.9092 333.914 20.0605V11.9395C333.914 11.0801 334.58 10.4033 335.439 10.4033C336.31 10.4033 336.976 11.0801 336.976 11.9395V20.0605C336.976 20.9092 336.31 21.5752 335.439 21.5752ZM359.556 21.5752C358.696 21.5752 358.03 20.9092 358.03 20.0605V11.9395C358.03 11.0801 358.696 10.4033 359.556 10.4033C360.415 10.4033 361.092 11.0801 361.092 11.9395V20.0605C361.092 20.9092 360.415 21.5752 359.556 21.5752ZM344.216 18.0732V13.9268H350.887V18.0732H344.216Z" fill="#95A7AC"/>
<path d="M381.174 15.7564L379.369 8.99955C378.875 7.13041 379.605 5.88432 381.474 5.39018L391.024 2.84428C392.904 2.35014 394.172 3.05912 394.677 4.89603L396.223 10.6216C394.956 12.0611 393.731 13.5757 392.861 14.6714C392.958 14.3706 393.001 14.0269 393.012 13.6402C393.022 13.1675 392.625 12.9956 392.206 13.3072C391.11 14.0913 389.8 14.4888 389.037 14.7037C388.221 14.94 386.867 15.2622 385.46 15.1011C384.987 15.0367 384.719 15.3912 384.966 15.7886C385.997 17.4214 387.888 17.9693 389.735 17.4966C390.455 17.3033 391.089 16.981 391.572 16.5835C391.314 17.1851 391.11 17.9156 391.024 18.6675C390.305 18.9683 389.671 19.4517 389.177 20.0855C388.554 20.6441 388.199 21.3531 387.952 21.9976C384.665 21.8472 382.205 19.6451 381.174 15.7564ZM401.519 7.21635C403.195 5.79838 405.419 7.27006 404.602 9.5474C404.323 10.3208 402.851 15.0796 400.273 19.2476C399.092 16.9595 396.89 15.4341 394.376 15.1011C397.233 11.2876 400.929 7.73197 401.519 7.21635ZM390.777 9.90189C391.486 9.69779 391.841 10.0415 392.131 9.96635C392.356 9.91264 392.453 9.63334 392.346 9.27885C392.12 8.38725 391.196 7.88236 390.315 8.11869C389.413 8.35502 388.854 9.25736 389.112 10.1382C389.22 10.5142 389.434 10.6968 389.649 10.6431C389.961 10.5572 390.068 10.0738 390.777 9.90189ZM384.88 11.4917C385.589 11.3199 385.943 11.6421 386.233 11.5669C386.47 11.5025 386.556 11.2447 386.459 10.8687C386.233 9.96635 385.288 9.45072 384.429 9.70853C383.515 9.94486 382.978 10.8472 383.225 11.7173C383.333 12.104 383.548 12.2974 383.763 12.2437C384.063 12.147 384.182 11.6851 384.88 11.4917ZM395.3 20.064C394.397 19.4302 393.259 19.0435 392.41 19.0542C392.399 18.2163 392.679 17.4107 393.216 16.6265C393.323 16.4654 393.441 16.3042 393.559 16.1646C396.148 16.1861 398.651 17.9048 399.564 20.3755C399.478 20.5259 399.371 20.6763 399.274 20.816C398.726 21.6001 398.093 22.1372 397.255 22.438C396.965 21.6216 396.202 20.6978 395.3 20.064ZM386.534 27.5406C386.094 27.1001 386.115 26.6597 386.427 26.3697C386.856 25.9507 387.565 26.2408 388.36 25.4351C389.306 24.479 388.285 22.8892 389.821 21.3316C391.153 19.9781 393.57 20.0855 395.171 21.6968C396.954 23.4908 396.89 25.897 395.01 27.7662C392.807 29.9468 388.747 29.7642 386.534 27.5406Z" fill="#58B168"/>
</svg>
