<svg width="32" height="32" viewBox="0 0 32 32" fill="none" xmlns="http://www.w3.org/2000/svg">
<rect x="7" y="7" width="18" height="18" fill="white"/>
<path d="M8.09343 28H23.9066C26.6442 28 28 26.6442 28 23.9587V8.04128C28 5.35578 26.6442 4 23.9066 4H8.09343C5.36882 4 4 5.34275 4 8.04128V23.9587C4 26.6573 5.36882 28 8.09343 28ZM9.64476 15.9935C9.64476 15.3156 10.1141 14.8463 10.792 14.8463H14.8724V10.7659C14.8724 10.088 15.3286 9.60565 15.9935 9.60565C16.6714 9.60565 17.1407 10.088 17.1407 10.7659V14.8463H21.2341C21.899 14.8463 22.3813 15.3156 22.3813 15.9935C22.3813 16.6583 21.899 17.1016 21.2341 17.1016H17.1407V21.195C17.1407 21.8729 16.6714 22.3422 15.9935 22.3422C15.3286 22.3422 14.8724 21.8599 14.8724 21.195V17.1016H10.792C10.1141 17.1016 9.64476 16.6583 9.64476 15.9935Z" fill="#1A645A"/>
</svg>
