<svg width="30" height="31" viewBox="0 0 30 31" fill="none" xmlns="http://www.w3.org/2000/svg">
<path d="M15.2954 9.23252C16.2699 9.23252 17.4915 8.57367 18.219 7.69521C18.8779 6.89911 19.3583 5.78731 19.3583 4.6755C19.3583 4.52452 19.3445 4.37353 19.3171 4.25C18.2327 4.29118 16.9288 4.97748 16.1464 5.89711C15.5287 6.59714 14.966 7.69521 14.966 8.82074C14.966 8.98545 14.9934 9.15016 15.0072 9.20507C15.0758 9.21879 15.1856 9.23252 15.2954 9.23252ZM11.8639 25.8409C13.1953 25.8409 13.7855 24.9487 15.4464 24.9487C17.1347 24.9487 17.5053 25.8135 18.9877 25.8135C20.4426 25.8135 21.4172 24.4683 22.3368 23.1506C23.3662 21.6408 23.7918 20.1584 23.8192 20.0897C23.7231 20.0623 20.9368 18.923 20.9368 15.7249C20.9368 12.9522 23.1329 11.7032 23.2564 11.6071C21.8015 9.52076 19.5916 9.46586 18.9877 9.46586C17.3543 9.46586 16.0229 10.4541 15.1856 10.4541C14.2797 10.4541 13.0855 9.52076 11.6717 9.52076C8.98146 9.52076 6.25 11.7444 6.25 15.9445C6.25 18.5524 7.26572 21.3113 8.51478 23.0957C9.5854 24.6056 10.5188 25.8409 11.8639 25.8409Z" fill="white"/>
</svg>
