<svg width="60" height="73" viewBox="0 0 60 73" fill="none" xmlns="http://www.w3.org/2000/svg">
<g filter="url(#filter0_b_5352_213119)">
<path fill-rule="evenodd" clip-rule="evenodd" d="M6 60.0019C7.71249 60.0019 9.42448 59.9934 11.137 60.0119C12.776 60.0299 14.6104 60.0555 16.2055 60.657C17.9284 61.307 19.0691 62.4435 20.2168 63.781C21.043 64.7431 22.666 66.7956 23.4563 67.7866C24.1031 68.5991 25.3692 70.2052 26.0605 70.9822C26.9308 71.9597 28.0064 72.9987 29.5005 72.9987C30.9946 72.9987 32.0697 71.9597 32.9395 70.9832C33.6308 70.2067 34.8969 68.5996 35.5442 67.7876C36.3335 66.7966 37.9565 64.7441 38.7832 63.782C39.9329 62.4445 41.0716 61.308 42.794 60.658C44.3896 60.058 46.2245 60.0309 47.8625 60.0129C49.5755 59.9944 51.2875 60.0029 53 60.0029" fill="#7E19FF"/>
</g>
<path d="M0 12.8C0 8.31958 0 6.07937 0.871948 4.36808C1.63893 2.86278 2.86278 1.63893 4.36808 0.871948C6.07937 0 8.31958 0 12.8 0H47.2C51.6804 0 53.9206 0 55.6319 0.871948C57.1372 1.63893 58.3611 2.86278 59.1281 4.36808C60 6.07937 60 8.31958 60 12.8V47.2C60 51.6804 60 53.9206 59.1281 55.6319C58.3611 57.1372 57.1372 58.3611 55.6319 59.1281C53.9206 60 51.6804 60 47.2 60H12.8C8.31958 60 6.07937 60 4.36808 59.1281C2.86278 58.3611 1.63893 57.1372 0.871948 55.6319C0 53.9206 0 51.6804 0 47.2V12.8Z" fill="#7E19FF"/>
<defs>
<filter id="filter0_b_5352_213119" x="-124" y="-70" width="307" height="272.999" filterUnits="userSpaceOnUse" color-interpolation-filters="sRGB">
<feFlood flood-opacity="0" result="BackgroundImageFix"/>
<feGaussianBlur in="BackgroundImageFix" stdDeviation="65"/>
<feComposite in2="SourceAlpha" operator="in" result="effect1_backgroundBlur_5352_213119"/>
<feBlend mode="normal" in="SourceGraphic" in2="effect1_backgroundBlur_5352_213119" result="shape"/>
</filter>
</defs>
</svg>
