<svg width="40" height="40" viewBox="0 0 40 40" fill="none" xmlns="http://www.w3.org/2000/svg">
<path d="M29.0664 19.4951C28.071 19.4951 27.1471 19.248 26.2949 18.7539C25.4427 18.2526 24.766 17.5758 24.2646 16.7236C23.7705 15.8714 23.5234 14.9476 23.5234 13.9521C23.5234 12.9567 23.7705 12.0365 24.2646 11.1914C24.766 10.3392 25.4427 9.66602 26.2949 9.17188C27.1471 8.67057 28.071 8.41992 29.0664 8.41992C30.0618 8.41992 30.9821 8.67057 31.8271 9.17188C32.6794 9.66602 33.3525 10.3392 33.8467 11.1914C34.348 12.0365 34.5986 12.9567 34.5986 13.9521C34.5986 14.9404 34.348 15.8643 33.8467 16.7236C33.3454 17.5758 32.6686 18.2526 31.8164 18.7539C30.9714 19.248 30.0547 19.4951 29.0664 19.4951ZM14.1777 26.1875C12.6022 26.1875 11.6891 25.3174 11.4385 23.5771L9.77344 12.2119H6.41113C6.139 12.2119 5.90267 12.1117 5.70215 11.9111C5.50163 11.7035 5.40137 11.46 5.40137 11.1807C5.40137 10.9085 5.50163 10.6722 5.70215 10.4717C5.90267 10.264 6.139 10.1602 6.41113 10.1602H10.0957C10.6686 10.1602 11.0768 10.2712 11.3203 10.4932C11.571 10.7152 11.7321 11.0732 11.8037 11.5674L11.9648 12.7275H22.1055C21.9909 13.3864 21.9766 14.0273 22.0625 14.6504H12.2441L13.0713 20.3223L25.3174 20.3115C25.568 20.3115 25.765 20.2256 25.9082 20.0537C26.8392 20.6481 27.8525 20.9668 28.9482 21.0098C28.5114 21.8333 27.7845 22.2451 26.7676 22.2451H13.3506L13.5117 23.3623C13.5475 23.6416 13.6442 23.8636 13.8018 24.0283C13.9665 24.1859 14.1742 24.2646 14.4248 24.2646H26.6816C26.9395 24.2646 27.165 24.3577 27.3584 24.5439C27.5518 24.723 27.6484 24.9486 27.6484 25.2207C27.6484 25.5 27.5518 25.7327 27.3584 25.9189C27.165 26.098 26.9395 26.1875 26.6816 26.1875H14.1777ZM29.0664 17.5723C29.2812 17.5723 29.4639 17.5042 29.6143 17.3682C29.7646 17.2249 29.8398 17.0459 29.8398 16.8311V14.6934H31.8379C32.0384 14.6934 32.2103 14.6217 32.3535 14.4785C32.5039 14.3281 32.5791 14.1527 32.5791 13.9521C32.5791 13.7516 32.5039 13.5798 32.3535 13.4365C32.2103 13.2861 32.0384 13.2109 31.8379 13.2109H29.8398V11.0732C29.8398 10.8584 29.7646 10.6829 29.6143 10.5469C29.4639 10.4108 29.2812 10.3428 29.0664 10.3428C28.8587 10.3428 28.6761 10.4108 28.5186 10.5469C28.3682 10.6829 28.293 10.8584 28.293 11.0732V13.2109H26.2949C26.0944 13.2109 25.9189 13.2861 25.7686 13.4365C25.6253 13.5798 25.5537 13.7516 25.5537 13.9521C25.5537 14.1527 25.6253 14.3281 25.7686 14.4785C25.9189 14.6217 26.0944 14.6934 26.2949 14.6934H28.293V16.8311C28.293 17.0387 28.3682 17.2142 28.5186 17.3574C28.6761 17.5007 28.8587 17.5723 29.0664 17.5723ZM16.3906 31.0322C16.0254 31.3975 15.5814 31.5801 15.0586 31.5801C14.5358 31.5801 14.0918 31.3975 13.7266 31.0322C13.3613 30.667 13.1787 30.223 13.1787 29.7002C13.1787 29.1774 13.3613 28.7334 13.7266 28.3682C14.0918 28.0029 14.5358 27.8203 15.0586 27.8203C15.5814 27.8203 16.0254 28.0029 16.3906 28.3682C16.7559 28.7334 16.9385 29.1774 16.9385 29.7002C16.9385 30.223 16.7559 30.667 16.3906 31.0322ZM26.3057 31.0322C25.9476 31.3975 25.5072 31.5801 24.9844 31.5801C24.4616 31.5801 24.014 31.3975 23.6416 31.0322C23.2764 30.667 23.0938 30.223 23.0938 29.7002C23.0938 29.1774 23.2764 28.7334 23.6416 28.3682C24.014 28.0029 24.4616 27.8203 24.9844 27.8203C25.5072 27.8203 25.9476 28.0029 26.3057 28.3682C26.6709 28.7334 26.8535 29.1774 26.8535 29.7002C26.8535 30.223 26.6709 30.667 26.3057 31.0322Z" fill="#C64E0A"/>
</svg>
