<svg width="41" height="40" viewBox="0 0 41 40" fill="none" xmlns="http://www.w3.org/2000/svg">
<path d="M24.4854 16.0737C23.3252 16.0737 22.3262 15.354 21.918 14.3335H10.4346C9.87598 14.3335 9.4248 13.8716 9.4248 13.313C9.4248 12.7544 9.86523 12.2925 10.4346 12.2925H21.918C22.3262 11.272 23.3252 10.5522 24.4854 10.5522C25.6455 10.5522 26.6445 11.272 27.0527 12.2925H30.5977C31.1348 12.2925 31.5752 12.7544 31.5752 13.313C31.5752 13.8716 31.124 14.3335 30.5977 14.3335H27.042C26.6338 15.354 25.6455 16.0737 24.4854 16.0737ZM24.4854 14.6235C25.2266 14.6235 25.7959 14.0435 25.7959 13.313C25.7959 12.561 25.2266 11.9917 24.4854 11.9917C23.7549 11.9917 23.1641 12.561 23.1641 13.313C23.1641 14.0435 23.7549 14.6235 24.4854 14.6235ZM10.3916 18.9849H14.0762C14.4844 17.9644 15.4834 17.2446 16.6436 17.2446C17.793 17.2446 18.792 17.9644 19.2002 18.9849H30.5654C31.1348 18.9849 31.5752 19.436 31.5752 20.0054C31.5752 20.564 31.124 21.0151 30.5654 21.0151H19.2002C18.792 22.0356 17.793 22.7661 16.6436 22.7661C15.4727 22.7661 14.4736 22.0356 14.0762 21.0151H10.3916C9.87598 21.0151 9.4248 20.5532 9.4248 20.0054C9.4248 19.436 9.86523 18.9849 10.3916 18.9849ZM16.6436 21.3159C17.3848 21.3159 17.9541 20.7358 17.9541 20.0054C17.9541 19.2534 17.3848 18.6841 16.6436 18.6841C15.9023 18.6841 15.3223 19.2534 15.3223 20.0054C15.3223 20.7358 15.9023 21.3159 16.6436 21.3159ZM24.4854 29.4478C23.3252 29.4478 22.3262 28.728 21.918 27.7075H10.4346C9.87598 27.7075 9.4248 27.2456 9.4248 26.687C9.4248 26.1284 9.86523 25.6665 10.4346 25.6665H21.918C22.3262 24.646 23.3252 23.9263 24.4854 23.9263C25.6455 23.9263 26.6445 24.646 27.042 25.6665H30.5977C31.1348 25.6665 31.5752 26.1177 31.5752 26.687C31.5752 27.2456 31.124 27.7075 30.5977 27.7075H27.0527C26.6445 28.728 25.6455 29.4478 24.4854 29.4478ZM24.4854 28.0083C25.2266 28.0083 25.7959 27.4175 25.7959 26.687C25.7959 25.9458 25.2266 25.3657 24.4854 25.3657C23.7549 25.3657 23.1641 25.9458 23.1641 26.687C23.1641 27.4175 23.7549 28.0083 24.4854 28.0083Z" fill="#537979"/>
</svg>
