<svg width="159" height="48" viewBox="0 0 159 48" fill="none" xmlns="http://www.w3.org/2000/svg">
<g filter="url(#filter0_d_253_36660)">
<path d="M-20 4H124.333C130.533 4 133.633 4 136.176 4.68148C143.078 6.53083 148.469 11.9218 150.319 18.8236C151 21.367 151 24.4669 151 30.6667V30.6667C151 31.9066 151 32.5266 150.864 33.0353C150.494 34.4156 149.416 35.4938 148.035 35.8637C147.527 36 146.907 36 145.667 36H-20V4Z" fill="#58B368" shape-rendering="crispEdges"/>
<path d="M30.1289 14.9312H34.0913C35.6636 14.9312 36.8843 15.3901 37.7534 16.3081C38.6274 17.2212 39.0645 18.5078 39.0645 20.168C39.0645 21.8623 38.6299 23.1758 37.7607 24.1084C36.8965 25.0361 35.6733 25.5 34.0913 25.5H30.1289V14.9312ZM32.0186 16.5645V23.8667H33.8423C34.897 23.8667 35.71 23.5493 36.2812 22.9146C36.8525 22.2798 37.1382 21.374 37.1382 20.1973C37.1382 19.0449 36.8477 18.1514 36.2666 17.5166C35.6904 16.8818 34.8823 16.5645 33.8423 16.5645H32.0186ZM43.7227 24.2036C44.2695 24.2036 44.7261 24.0474 45.0923 23.7349C45.4585 23.4175 45.6416 23.0269 45.6416 22.563V21.9258L43.8325 22.043C42.8364 22.1064 42.3384 22.4678 42.3384 23.127C42.3384 23.459 42.4653 23.7227 42.7192 23.918C42.978 24.1084 43.3125 24.2036 43.7227 24.2036ZM43.188 25.6318C42.4067 25.6318 41.7695 25.4121 41.2764 24.9727C40.7832 24.5332 40.5366 23.9521 40.5366 23.2295C40.5366 22.5068 40.7979 21.9404 41.3203 21.5303C41.8477 21.1201 42.5996 20.8857 43.5762 20.8271L45.6416 20.7026V20.0288C45.6416 19.6333 45.5122 19.3306 45.2534 19.1206C44.9946 18.9106 44.6211 18.8057 44.1328 18.8057C43.7129 18.8057 43.3662 18.8789 43.0928 19.0254C42.8193 19.167 42.6411 19.3721 42.5581 19.6406H40.8442C40.9175 18.9326 41.2593 18.3711 41.8696 17.9561C42.4849 17.5361 43.2686 17.3262 44.2207 17.3262C45.2461 17.3262 46.0371 17.563 46.5938 18.0366C47.1553 18.5103 47.436 19.1743 47.436 20.0288V25.5H45.6855V24.4014H45.561C45.3364 24.7871 45.0142 25.0898 44.5942 25.3096C44.1792 25.5244 43.7104 25.6318 43.188 25.6318ZM49.6479 25.5V17.4873H51.457V25.5H49.6479ZM50.5488 16.1836C50.2217 16.1836 49.9531 16.0908 49.7432 15.9053C49.5332 15.7148 49.4282 15.4731 49.4282 15.1802C49.4282 14.8872 49.5332 14.6479 49.7432 14.4624C49.9531 14.272 50.2217 14.1768 50.5488 14.1768C50.8809 14.1768 51.1494 14.272 51.3545 14.4624C51.5645 14.6479 51.6694 14.8872 51.6694 15.1802C51.6694 15.4731 51.5645 15.7148 51.3545 15.9053C51.1494 16.0908 50.8809 16.1836 50.5488 16.1836ZM53.7129 25.5V17.4873H55.4634V18.7324H55.5879C55.7002 18.332 55.9517 18.0024 56.3423 17.7437C56.7378 17.4849 57.1919 17.3555 57.7046 17.3555C58.0317 17.3555 58.2832 17.3823 58.459 17.436V19.1206C58.2734 19.0522 57.9634 19.0181 57.5288 19.0181C56.938 19.0181 56.457 19.189 56.0859 19.5308C55.7148 19.8677 55.5293 20.3145 55.5293 20.8711V25.5H53.7129ZM60.9053 28.4077C60.5293 28.4077 60.29 28.3979 60.1875 28.3784V26.8916C60.2803 26.9111 60.4463 26.9209 60.6855 26.9209C61.0713 26.9209 61.3765 26.8403 61.6011 26.6792C61.8306 26.5181 62.0039 26.2544 62.1211 25.8882L62.2163 25.5366L59.3525 17.4873H61.3447L63.2197 23.7422H63.3442L65.2119 17.4873H67.1309L64.2378 25.7563C63.9009 26.7476 63.4858 27.436 62.9927 27.8218C62.5044 28.2124 61.8086 28.4077 60.9053 28.4077ZM80.2485 25.5L79.377 24.5698C78.9619 24.9263 78.4639 25.2046 77.8828 25.4048C77.3018 25.6001 76.689 25.6978 76.0444 25.6978C74.9458 25.6978 74.062 25.4268 73.3931 24.8848C72.7241 24.3379 72.3896 23.6152 72.3896 22.7168C72.3896 22.1064 72.5532 21.5693 72.8804 21.1055C73.2075 20.6416 73.7153 20.2241 74.4038 19.853C74.4233 19.8433 74.4941 19.8042 74.6162 19.7358C74.7432 19.6675 74.8213 19.626 74.8506 19.6113C74.3721 19.1133 74.0327 18.6787 73.8325 18.3076C73.6323 17.9365 73.5322 17.5581 73.5322 17.1724C73.5322 16.4692 73.8057 15.8882 74.3525 15.4292C74.9043 14.9653 75.5952 14.7334 76.4253 14.7334C77.2603 14.7334 77.9463 14.9604 78.4834 15.4146C79.0205 15.8638 79.2891 16.4424 79.2891 17.1504C79.2891 17.6924 79.1133 18.1855 78.7617 18.6299C78.4102 19.0693 77.8535 19.4917 77.0918 19.897L79.3403 22.2773C79.6187 21.7598 79.7578 21.0054 79.7578 20.0142V19.6187H81.3472V20.1021C81.3472 21.4985 81.0518 22.6216 80.4609 23.4712L82.3726 25.5H80.2485ZM75.4219 20.8052C74.5674 21.2593 74.1401 21.8477 74.1401 22.5703C74.1401 23.0781 74.3306 23.4907 74.7114 23.8081C75.0972 24.1206 75.6025 24.2769 76.2275 24.2769C76.6475 24.2769 77.0503 24.2036 77.436 24.0571C77.8267 23.9106 78.1416 23.7129 78.3809 23.4639L75.7515 20.644C75.6587 20.6782 75.5488 20.7319 75.4219 20.8052ZM76.1982 18.9741C76.7402 18.7007 77.126 18.4321 77.3555 18.1685C77.5898 17.9048 77.707 17.6045 77.707 17.2676C77.707 16.9062 77.5874 16.6133 77.3481 16.3887C77.1138 16.1641 76.8086 16.0518 76.4326 16.0518C76.0615 16.0518 75.7563 16.1665 75.5171 16.396C75.2827 16.6206 75.1655 16.9111 75.1655 17.2676C75.1655 17.5264 75.2412 17.7827 75.3926 18.0366C75.5488 18.2905 75.8174 18.603 76.1982 18.9741ZM94.7139 23.8667V25.5H87.873V14.9312H94.7139V16.5645H89.7627V19.3696H94.4429V20.9077H89.7627V23.8667H94.7139ZM98.8447 23.2368C99.1914 23.6812 99.6797 23.9033 100.31 23.9033C100.939 23.9033 101.435 23.6787 101.796 23.2295C102.158 22.7803 102.338 22.1724 102.338 21.4058C102.338 20.6392 102.158 20.0312 101.796 19.582C101.435 19.1279 100.939 18.9009 100.31 18.9009C99.6846 18.9009 99.1963 19.1255 98.8447 19.5747C98.498 20.0239 98.3247 20.6343 98.3247 21.4058C98.3247 22.1772 98.498 22.7876 98.8447 23.2368ZM100.31 28.5469C99.2891 28.5469 98.459 28.3394 97.8193 27.9243C97.1846 27.5093 96.8306 26.9551 96.7573 26.2617H98.5811C98.6396 26.54 98.8228 26.7598 99.1304 26.9209C99.4429 27.082 99.8457 27.1626 100.339 27.1626C100.959 27.1626 101.442 27.0234 101.789 26.7451C102.136 26.4668 102.309 26.0762 102.309 25.5732V24.0571H102.185C101.955 24.4868 101.628 24.8164 101.203 25.0459C100.783 25.2705 100.295 25.3828 99.7383 25.3828C98.7324 25.3828 97.9341 25.0239 97.3433 24.3062C96.7524 23.5835 96.457 22.6167 96.457 21.4058C96.457 20.1753 96.7549 19.1938 97.3506 18.4614C97.9463 17.7241 98.752 17.3555 99.7676 17.3555C100.314 17.3555 100.81 17.4824 101.254 17.7363C101.699 17.9902 102.031 18.3345 102.25 18.769H102.375V17.4873H104.125V25.5293C104.125 26.457 103.781 27.1919 103.093 27.7339C102.404 28.2759 101.477 28.5469 100.31 28.5469ZM108.337 23.2368C108.684 23.6812 109.172 23.9033 109.802 23.9033C110.432 23.9033 110.927 23.6787 111.289 23.2295C111.65 22.7803 111.831 22.1724 111.831 21.4058C111.831 20.6392 111.65 20.0312 111.289 19.582C110.927 19.1279 110.432 18.9009 109.802 18.9009C109.177 18.9009 108.688 19.1255 108.337 19.5747C107.99 20.0239 107.817 20.6343 107.817 21.4058C107.817 22.1772 107.99 22.7876 108.337 23.2368ZM109.802 28.5469C108.781 28.5469 107.951 28.3394 107.312 27.9243C106.677 27.5093 106.323 26.9551 106.25 26.2617H108.073C108.132 26.54 108.315 26.7598 108.623 26.9209C108.935 27.082 109.338 27.1626 109.831 27.1626C110.451 27.1626 110.935 27.0234 111.281 26.7451C111.628 26.4668 111.801 26.0762 111.801 25.5732V24.0571H111.677C111.447 24.4868 111.12 24.8164 110.695 25.0459C110.275 25.2705 109.787 25.3828 109.23 25.3828C108.225 25.3828 107.426 25.0239 106.835 24.3062C106.245 23.5835 105.949 22.6167 105.949 21.4058C105.949 20.1753 106.247 19.1938 106.843 18.4614C107.438 17.7241 108.244 17.3555 109.26 17.3555C109.807 17.3555 110.302 17.4824 110.747 17.7363C111.191 17.9902 111.523 18.3345 111.743 18.769H111.867V17.4873H113.618V25.5293C113.618 26.457 113.273 27.1919 112.585 27.7339C111.896 28.2759 110.969 28.5469 109.802 28.5469ZM115.668 19.7798C115.668 19.0571 115.966 18.4688 116.562 18.0146C117.158 17.5557 117.929 17.3262 118.876 17.3262C119.829 17.3262 120.588 17.5288 121.154 17.9341C121.726 18.3345 122.043 18.8984 122.106 19.626H120.4C120.332 19.3379 120.166 19.1133 119.902 18.9521C119.643 18.7861 119.304 18.7031 118.884 18.7031C118.464 18.7031 118.117 18.7935 117.844 18.9741C117.57 19.1548 117.434 19.3892 117.434 19.6772C117.434 19.9019 117.529 20.0874 117.719 20.2339C117.915 20.3804 118.215 20.5 118.62 20.5928L120.034 20.915C120.805 21.0908 121.372 21.3521 121.733 21.6987C122.094 22.0454 122.275 22.5117 122.275 23.0977C122.275 23.8643 121.958 24.4844 121.323 24.958C120.688 25.4268 119.868 25.6611 118.862 25.6611C117.861 25.6611 117.06 25.4561 116.459 25.0459C115.864 24.6357 115.532 24.0669 115.463 23.3394H117.258C117.346 23.6421 117.529 23.8765 117.807 24.0425C118.09 24.2036 118.457 24.2842 118.906 24.2842C119.365 24.2842 119.738 24.1938 120.026 24.0132C120.314 23.8276 120.458 23.5859 120.458 23.2881C120.458 22.8438 120.09 22.541 119.353 22.3799L117.932 22.0503C117.16 21.8745 116.589 21.6035 116.218 21.2373C115.852 20.8662 115.668 20.3804 115.668 19.7798Z" fill="white"/>
</g>
<defs>
<filter id="filter0_d_253_36660" x="-28" y="0" width="187" height="48" filterUnits="userSpaceOnUse" color-interpolation-filters="sRGB">
<feFlood flood-opacity="0" result="BackgroundImageFix"/>
<feColorMatrix in="SourceAlpha" type="matrix" values="0 0 0 0 0 0 0 0 0 0 0 0 0 0 0 0 0 0 127 0" result="hardAlpha"/>
<feMorphology radius="6" operator="dilate" in="SourceAlpha" result="effect1_dropShadow_253_36660"/>
<feOffset dy="4"/>
<feGaussianBlur stdDeviation="1"/>
<feComposite in2="hardAlpha" operator="out"/>
<feColorMatrix type="matrix" values="0 0 0 0 0.376645 0 0 0 0 0.306931 0 0 0 0 0.408333 0 0 0 0.5 0"/>
<feBlend mode="normal" in2="BackgroundImageFix" result="effect1_dropShadow_253_36660"/>
<feBlend mode="normal" in="SourceGraphic" in2="effect1_dropShadow_253_36660" result="shape"/>
</filter>
</defs>
</svg>
