<svg width="264" height="48" viewBox="0 0 264 48" fill="none" xmlns="http://www.w3.org/2000/svg">
<g filter="url(#filter0_d_1928_114425)">
<path d="M0 4H229.333C235.533 4 238.633 4 241.176 4.68148C248.078 6.53083 253.469 11.9218 255.319 18.8236C256 21.367 256 24.4669 256 30.6667C256 31.9066 256 32.5266 255.864 33.0353C255.494 34.4156 254.416 35.4938 253.035 35.8637C252.527 36 251.907 36 250.667 36H0V4Z" fill="#58B368" shape-rendering="crispEdges"/>
<path d="M29.77 26H27.5728V16.7074H27.4446L23.7916 25.4873H22.1071L18.4541 16.7074H18.3259V26H16.1287V12.7889H18.8936L22.8669 22.4111H23.0317L27.0051 12.7889H29.77V26ZM32.8187 26V15.9841H35.0801V26H32.8187ZM33.9448 14.3545C33.5359 14.3545 33.2002 14.2385 32.9377 14.0066C32.6753 13.7686 32.5441 13.4664 32.5441 13.1002C32.5441 12.734 32.6753 12.4349 32.9377 12.203C33.2002 11.965 33.5359 11.8459 33.9448 11.8459C34.3599 11.8459 34.6956 11.965 34.9519 12.203C35.2144 12.4349 35.3456 12.734 35.3456 13.1002C35.3456 13.4664 35.2144 13.7686 34.9519 14.0066C34.6956 14.2385 34.3599 14.3545 33.9448 14.3545ZM37.9915 26V12.1115H40.262V26H37.9915ZM51.7885 19.3533H49.6278C49.5179 18.8467 49.2738 18.4438 48.8954 18.1448C48.517 17.8396 48.0256 17.687 47.4214 17.687C46.6401 17.687 46.0298 17.9739 45.5903 18.5476C45.157 19.1213 44.9403 19.927 44.9403 20.9646C44.9403 22.0144 45.16 22.8323 45.5995 23.4182C46.0389 24.0042 46.6462 24.2971 47.4214 24.2971C48.0134 24.2971 48.4987 24.1598 48.8771 23.8851C49.2616 23.6105 49.5118 23.2137 49.6278 22.6949H51.7885C51.6603 23.7631 51.2117 24.6145 50.4426 25.2493C49.6797 25.884 48.6757 26.2014 47.4305 26.2014C45.923 26.2014 44.748 25.7406 43.9058 24.819C43.0635 23.8973 42.6423 22.6125 42.6423 20.9646C42.6423 19.335 43.0635 18.0654 43.9058 17.156C44.748 16.2405 45.9199 15.7827 47.4214 15.7827C48.6787 15.7827 49.6888 16.1093 50.4518 16.7623C51.2208 17.4093 51.6664 18.2729 51.7885 19.3533ZM54.0498 26V12.1115H56.2837V17.6046H56.4485C56.6865 17.037 57.068 16.5945 57.5929 16.2771C58.1178 15.9597 58.7495 15.801 59.488 15.801C60.5684 15.801 61.4106 16.1276 62.0149 16.7806C62.6252 17.4337 62.9304 18.3523 62.9304 19.5364V26H60.6599V20.0765C60.6599 19.3197 60.489 18.749 60.1472 18.3645C59.8054 17.9739 59.3049 17.7786 58.6458 17.7786C57.9133 17.7786 57.3427 17.9983 56.9337 18.4377C56.5248 18.8711 56.3203 19.454 56.3203 20.1864V26H54.0498ZM71.0786 15.8193C72.3481 15.8193 73.3522 16.2802 74.0907 17.2018C74.8353 18.1234 75.2076 19.3868 75.2076 20.9921C75.2076 22.5912 74.8384 23.8546 74.0999 24.7823C73.3674 25.704 72.3695 26.1648 71.1061 26.1648C70.392 26.1648 69.7664 26.0183 69.2292 25.7253C68.6982 25.4263 68.3046 25.0112 68.0482 24.4802H67.8926V29.3325H65.6221V15.9841H67.8102V17.6412H67.9658C68.2527 17.0736 68.6708 16.6281 69.2201 16.3046C69.7755 15.9811 70.395 15.8193 71.0786 15.8193ZM70.3645 24.233C71.1519 24.233 71.7653 23.9462 72.2047 23.3724C72.6503 22.7987 72.873 22.0052 72.873 20.9921C72.873 19.9789 72.6503 19.1854 72.2047 18.6117C71.7653 18.038 71.1549 17.7511 70.3737 17.7511C69.5985 17.7511 68.9851 18.041 68.5334 18.6208C68.0818 19.2007 67.8529 19.9911 67.8468 20.9921C67.8529 21.993 68.0787 22.7834 68.5243 23.3633C68.976 23.9431 69.5894 24.233 70.3645 24.233ZM77.4873 26V15.9841H79.6754V17.5405H79.8311C79.9714 17.04 80.2858 16.6281 80.774 16.3046C81.2684 15.9811 81.8361 15.8193 82.4769 15.8193C82.8859 15.8193 83.2002 15.8529 83.4199 15.92V18.0258C83.188 17.9403 82.8004 17.8976 82.2572 17.8976C81.5187 17.8976 80.9175 18.1112 80.4536 18.5385C79.9897 18.9596 79.7578 19.5181 79.7578 20.2139V26H77.4873ZM89.3525 26.2014C87.8511 26.2014 86.6731 25.7406 85.8186 24.819C84.9641 23.8912 84.5369 22.6156 84.5369 20.9921C84.5369 19.3807 84.9672 18.1112 85.8278 17.1835C86.6884 16.2496 87.8633 15.7827 89.3525 15.7827C90.8479 15.7827 92.0228 16.2466 92.8773 17.1743C93.7379 18.1021 94.1682 19.3746 94.1682 20.9921C94.1682 22.6156 93.7379 23.8912 92.8773 24.819C92.0228 25.7406 90.8479 26.2014 89.3525 26.2014ZM87.5123 23.4365C87.9457 24.0103 88.5591 24.2971 89.3525 24.2971C90.146 24.2971 90.7563 24.0103 91.1836 23.4365C91.6169 22.8567 91.8336 22.0419 91.8336 20.9921C91.8336 19.9484 91.6169 19.1366 91.1836 18.5568C90.7502 17.9769 90.1399 17.687 89.3525 17.687C88.5591 17.687 87.9457 17.9769 87.5123 18.5568C87.079 19.1366 86.8623 19.9484 86.8623 20.9921C86.8623 22.0419 87.079 22.8567 87.5123 23.4365ZM100.083 26.1648C98.813 26.1648 97.809 25.7009 97.0704 24.7732C96.3319 23.8394 95.9626 22.5759 95.9626 20.9829C95.9626 19.4021 96.3319 18.1478 97.0704 17.2201C97.8151 16.2863 98.8191 15.8193 100.083 15.8193C100.766 15.8193 101.376 15.975 101.914 16.2863C102.451 16.5975 102.854 17.0278 103.122 17.5771H103.278V12.1115H105.548V26H103.351V24.4161H103.195C102.908 24.9655 102.49 25.3958 101.941 25.707C101.398 26.0122 100.778 26.1648 100.083 26.1648ZM102.628 18.6208C102.176 18.041 101.563 17.7511 100.787 17.7511C100.012 17.7511 99.402 18.041 98.9564 18.6208C98.5109 19.1946 98.2881 19.985 98.2881 20.9921C98.2881 22.0052 98.5078 22.7987 98.9473 23.3724C99.3928 23.9462 100.006 24.233 100.787 24.233C101.569 24.233 102.182 23.9462 102.628 23.3724C103.079 22.7926 103.305 21.9991 103.305 20.9921C103.305 19.9911 103.079 19.2007 102.628 18.6208ZM117.13 15.9841V26H114.942V24.407H114.786C114.279 25.6033 113.281 26.2014 111.792 26.2014C110.7 26.2014 109.848 25.8779 109.238 25.231C108.627 24.5779 108.322 23.6654 108.322 22.4935V15.9841H110.593V21.9259C110.593 22.6949 110.755 23.2687 111.078 23.6471C111.401 24.0194 111.902 24.2056 112.579 24.2056C113.312 24.2056 113.873 23.995 114.264 23.5739C114.661 23.1527 114.859 22.5668 114.859 21.816V15.9841H117.13ZM122.431 20.0674L126.129 15.9841H128.766L124.774 20.278L129.041 26H126.294L123.081 21.7062L122.275 22.5118V26H120.004V12.1115H122.275V20.0674H122.431ZM131.384 13.5305H133.646V16.0482H135.788V17.861H133.646V22.7773C133.646 23.2717 133.756 23.6349 133.975 23.8668C134.195 24.0927 134.543 24.2056 135.019 24.2056C135.227 24.2056 135.483 24.1903 135.788 24.1598V25.9359C135.41 26.0092 135.013 26.0458 134.598 26.0458C133.45 26.0458 132.626 25.8352 132.126 25.4141C131.632 24.9929 131.384 24.2971 131.384 23.3267V17.861H129.801V16.0482H131.384V13.5305ZM142.169 17.5863C141.492 17.5863 140.933 17.8091 140.494 18.2546C140.054 18.7002 139.81 19.2892 139.761 20.0216H144.476C144.452 19.277 144.232 18.6849 143.817 18.2455C143.402 17.806 142.853 17.5863 142.169 17.5863ZM144.495 23.2443H146.646C146.433 24.1598 145.929 24.8831 145.136 25.4141C144.348 25.939 143.369 26.2014 142.197 26.2014C140.726 26.2014 139.569 25.7437 138.727 24.8281C137.891 23.9065 137.473 22.64 137.473 21.0287C137.473 19.4174 137.894 18.1417 138.736 17.2018C139.578 16.2557 140.726 15.7827 142.178 15.7827C143.607 15.7827 144.724 16.2313 145.529 17.1285C146.341 18.0197 146.747 19.2556 146.747 20.8364V21.5688H139.752V21.6879C139.783 22.524 140.021 23.1863 140.466 23.6746C140.918 24.1567 141.516 24.3978 142.261 24.3978C143.408 24.3978 144.153 24.0133 144.495 23.2443ZM162.741 15.9841V26H160.553V24.407H160.397C159.891 25.6033 158.893 26.2014 157.404 26.2014C156.311 26.2014 155.46 25.8779 154.849 25.231C154.239 24.5779 153.934 23.6654 153.934 22.4935V15.9841H156.204V21.9259C156.204 22.6949 156.366 23.2687 156.69 23.6471C157.013 24.0194 157.514 24.2056 158.191 24.2056C158.923 24.2056 159.485 23.995 159.876 23.5739C160.272 23.1527 160.471 22.5668 160.471 21.816V15.9841H162.741ZM165.524 26V15.9841H167.713V17.5863H167.868C168.112 17.0126 168.485 16.5701 168.985 16.2588C169.492 15.9414 170.111 15.7827 170.844 15.7827C171.954 15.7827 172.806 16.1062 173.398 16.7532C173.996 17.4001 174.295 18.3218 174.295 19.5181V26H172.025V20.0582C172.025 18.5262 171.35 17.7603 170.001 17.7603C169.324 17.7603 168.787 17.9769 168.39 18.4103C167.993 18.8436 167.795 19.4296 167.795 20.1681V26H165.524ZM180.612 26.1648C179.343 26.1648 178.339 25.7009 177.6 24.7732C176.862 23.8394 176.492 22.5759 176.492 20.9829C176.492 19.4021 176.862 18.1478 177.6 17.2201C178.345 16.2863 179.349 15.8193 180.612 15.8193C181.296 15.8193 181.906 15.975 182.443 16.2863C182.98 16.5975 183.383 17.0278 183.652 17.5771H183.807V12.1115H186.078V26H183.881V24.4161H183.725C183.438 24.9655 183.02 25.3958 182.471 25.707C181.928 26.0122 181.308 26.1648 180.612 26.1648ZM183.157 18.6208C182.706 18.041 182.092 17.7511 181.317 17.7511C180.542 17.7511 179.932 18.041 179.486 18.6208C179.041 19.1946 178.818 19.985 178.818 20.9921C178.818 22.0052 179.038 22.7987 179.477 23.3724C179.923 23.9462 180.536 24.233 181.317 24.233C182.099 24.233 182.712 23.9462 183.157 23.3724C183.609 22.7926 183.835 21.9991 183.835 20.9921C183.835 19.9911 183.609 19.2007 183.157 18.6208ZM202.731 23.9584V26H194.18V12.7889H202.731V14.8306H196.542V18.337H202.393V20.2596H196.542V23.9584H202.731ZM205.451 26V15.9841H207.712V26H205.451ZM206.577 14.3545C206.168 14.3545 205.832 14.2385 205.57 14.0066C205.307 13.7686 205.176 13.4664 205.176 13.1002C205.176 12.734 205.307 12.4349 205.57 12.203C205.832 11.965 206.168 11.8459 206.577 11.8459C206.992 11.8459 207.327 11.965 207.584 12.203C207.846 12.4349 207.977 12.734 207.977 13.1002C207.977 13.4664 207.846 13.7686 207.584 14.0066C207.327 14.2385 206.992 14.3545 206.577 14.3545ZM214.734 17.5863C214.057 17.5863 213.498 17.8091 213.059 18.2546C212.619 18.7002 212.375 19.2892 212.326 20.0216H217.041C217.017 19.277 216.797 18.6849 216.382 18.2455C215.967 17.806 215.418 17.5863 214.734 17.5863ZM217.059 23.2443H219.211C218.997 24.1598 218.494 24.8831 217.7 25.4141C216.913 25.939 215.933 26.2014 214.761 26.2014C213.291 26.2014 212.134 25.7437 211.292 24.8281C210.455 23.9065 210.037 22.64 210.037 21.0287C210.037 19.4174 210.458 18.1417 211.301 17.2018C212.143 16.2557 213.291 15.7827 214.743 15.7827C216.171 15.7827 217.288 16.2313 218.094 17.1285C218.906 18.0197 219.312 19.2556 219.312 20.8364V21.5688H212.317V21.6879C212.348 22.524 212.586 23.1863 213.031 23.6746C213.483 24.1567 214.081 24.3978 214.826 24.3978C215.973 24.3978 216.718 24.0133 217.059 23.2443ZM221.591 26V15.9841H223.779V17.5405H223.935C224.075 17.04 224.39 16.6281 224.878 16.3046C225.372 15.9811 225.94 15.8193 226.581 15.8193C226.99 15.8193 227.304 15.8529 227.524 15.92V18.0258C227.292 17.9403 226.904 17.8976 226.361 17.8976C225.623 17.8976 225.021 18.1112 224.558 18.5385C224.094 18.9596 223.862 19.5181 223.862 20.2139V26H221.591Z" fill="white"/>
</g>
<defs>
<filter id="filter0_d_1928_114425" x="-8" y="0" width="272" height="48" filterUnits="userSpaceOnUse" color-interpolation-filters="sRGB">
<feFlood flood-opacity="0" result="BackgroundImageFix"/>
<feColorMatrix in="SourceAlpha" type="matrix" values="0 0 0 0 0 0 0 0 0 0 0 0 0 0 0 0 0 0 127 0" result="hardAlpha"/>
<feMorphology radius="6" operator="dilate" in="SourceAlpha" result="effect1_dropShadow_1928_114425"/>
<feOffset dy="4"/>
<feGaussianBlur stdDeviation="1"/>
<feComposite in2="hardAlpha" operator="out"/>
<feColorMatrix type="matrix" values="0 0 0 0 0.376645 0 0 0 0 0.306931 0 0 0 0 0.408333 0 0 0 0.5 0"/>
<feBlend mode="normal" in2="BackgroundImageFix" result="effect1_dropShadow_1928_114425"/>
<feBlend mode="normal" in="SourceGraphic" in2="effect1_dropShadow_1928_114425" result="shape"/>
</filter>
</defs>
</svg>
