<svg width="252" height="48" viewBox="0 0 252 48" fill="none" xmlns="http://www.w3.org/2000/svg">
<g filter="url(#filter0_d_386_38817)">
<path d="M0 4H217.333C223.533 4 226.633 4 229.176 4.68148C236.078 6.53083 241.469 11.9218 243.319 18.8236C244 21.367 244 24.4669 244 30.6667C244 31.9066 244 32.5266 243.864 33.0353C243.494 34.4156 242.416 35.4938 241.035 35.8637C240.527 36 239.907 36 238.667 36H0V4Z" fill="#58B368" shape-rendering="crispEdges"/>
<path d="M33.0227 26V12.7889H30.2578L26.2844 22.4752H26.1196L22.1462 12.7889H19.3813V26H21.5786V16.7074H21.7068L25.3597 25.5422H27.0443L30.6973 16.7074H30.8254V26H33.0227ZM40.5483 26.2014C43.5421 26.2014 45.364 24.2422 45.364 20.9921C45.364 17.7511 43.533 15.7827 40.5483 15.7827C37.5729 15.7827 35.7327 17.7603 35.7327 20.9921C35.7327 24.2422 37.5454 26.2014 40.5483 26.2014ZM40.5483 24.2971C38.9645 24.2971 38.0581 23.0886 38.0581 20.9921C38.0581 18.9047 38.9645 17.687 40.5483 17.687C42.123 17.687 43.0294 18.9047 43.0294 20.9921C43.0294 23.0886 42.1322 24.2971 40.5483 24.2971ZM50.7015 21.34L50.9487 17.7969H53.8876V26H56.1489V15.9841H48.9712L48.6416 21.2118C48.5409 22.8781 48.2113 24.0408 47.2408 24.0408C46.9937 24.0408 46.7922 24.0042 46.6915 23.9767V25.9908C46.8197 26.0366 47.076 26.1007 47.4514 26.1007C49.7677 26.1007 50.5093 24.233 50.7015 21.34ZM63.4365 26.2014C66.4303 26.2014 68.2522 24.2422 68.2522 20.9921C68.2522 17.7511 66.4211 15.7827 63.4365 15.7827C60.4611 15.7827 58.6208 17.7603 58.6208 20.9921C58.6208 24.2422 60.4336 26.2014 63.4365 26.2014ZM63.4365 24.2971C61.8527 24.2971 60.9463 23.0886 60.9463 20.9921C60.9463 18.9047 61.8527 17.687 63.4365 17.687C65.0112 17.687 65.9176 18.9047 65.9176 20.9921C65.9176 23.0886 65.0204 24.2971 63.4365 24.2971ZM78.8906 26V15.9841H76.6201V20.0857C76.2539 20.4611 75.5398 20.7174 74.5419 20.7174C73.2968 20.7174 72.6559 20.0125 72.6559 18.7765V15.9841H70.3854V18.9871C70.3854 21.2301 71.7312 22.6675 74.1116 22.6675C75.137 22.6675 75.9335 22.4203 76.4645 22.0083H76.6201V26H78.8906ZM88.3572 26H90.6277V15.9841H88.3572V19.9392H84.1183V15.9841H81.8478V26H84.1183V21.752H88.3572V26ZM102.923 26H105.185V15.9841H102.923V26ZM97.5674 20.7906C98.6843 20.7906 99.4076 21.459 99.4076 22.4844C99.4076 23.5006 98.6935 24.1873 97.5674 24.1873H95.8553V20.7906H97.5674ZM93.5848 26H97.842C100.177 26 101.669 24.6359 101.669 22.4935C101.669 20.3512 100.177 18.9871 97.842 18.9871H95.8553V15.9841H93.5848V26ZM112.353 17.5863C113.717 17.5863 114.615 18.5385 114.66 20.0216H109.945C110.046 18.5568 110.998 17.5863 112.353 17.5863ZM114.679 23.2443C114.349 23.9858 113.571 24.3978 112.445 24.3978C110.952 24.3978 109.991 23.3541 109.936 21.6879V21.5688H116.931V20.8364C116.931 17.6779 115.219 15.7827 112.362 15.7827C109.46 15.7827 107.656 17.806 107.656 21.0287C107.656 24.2513 109.433 26.2014 112.381 26.2014C114.743 26.2014 116.418 25.0662 116.83 23.2443H114.679ZM130.801 26H133.072V15.9841H124.383V26H126.654V17.7969H130.801V26ZM141.494 15.8193C140.121 15.8193 138.958 16.506 138.382 17.6412H138.226V15.9841H136.038V29.3325H138.308V24.4802H138.464C138.977 25.5422 140.084 26.1648 141.522 26.1648C144.049 26.1648 145.623 24.1873 145.623 20.9921C145.623 17.7786 144.03 15.8193 141.494 15.8193ZM140.78 24.233C139.233 24.233 138.272 22.9971 138.263 20.9921C138.272 18.9962 139.242 17.7511 140.789 17.7511C142.346 17.7511 143.289 18.9688 143.289 20.9921C143.289 23.0154 142.355 24.233 140.78 24.233ZM152.407 26.2014C155.401 26.2014 157.223 24.2422 157.223 20.9921C157.223 17.7511 155.392 15.7827 152.407 15.7827C149.432 15.7827 147.592 17.7603 147.592 20.9921C147.592 24.2422 149.405 26.2014 152.407 26.2014ZM152.407 24.2971C150.824 24.2971 149.917 23.0886 149.917 20.9921C149.917 18.9047 150.824 17.687 152.407 17.687C153.982 17.687 154.889 18.9047 154.889 20.9921C154.889 23.0886 153.991 24.2971 152.407 24.2971ZM165.957 24.1873H161.636V24.0225C162.075 23.3999 162.304 22.4294 162.387 21.34L162.643 17.7877H165.957V24.1873ZM160.501 28.6093V26H167.678V28.6093H169.766V24.1873H168.228V15.9841H160.693L160.345 21.2118C160.254 22.5576 159.942 23.7478 159.201 24.1873H158.413V28.6093H160.501ZM172.732 29.6346C174.975 29.6346 176.046 28.8107 176.898 26.3204L180.514 15.9841H178.115L175.781 23.8027H175.625L173.281 15.9841H170.791L174.371 26.0458L174.252 26.4852C173.959 27.4099 173.419 27.7761 172.458 27.7761C172.302 27.7761 171.963 27.767 171.835 27.7395V29.598C171.981 29.6255 172.595 29.6346 172.732 29.6346ZM185.44 21.697L188.772 26H191.528L187.289 20.6075L191.336 15.9841H188.717L185.421 19.9941H184.918V15.9841H182.647V26H184.918V21.697H185.44ZM200.766 15.9841H192.324V17.7969H195.41V26H197.68V17.7969H200.766V15.9841ZM212.255 26H214.517V15.9841H212.255V26ZM206.9 20.7906C208.017 20.7906 208.74 21.459 208.74 22.4844C208.74 23.5006 208.026 24.1873 206.9 24.1873H205.188V20.7906H206.9ZM202.917 26H207.174C209.509 26 211.001 24.6359 211.001 22.4935C211.001 20.3512 209.509 18.9871 207.174 18.9871H205.188V15.9841H202.917V26Z" fill="white"/>
</g>
<defs>
<filter id="filter0_d_386_38817" x="-8" y="0" width="260" height="48" filterUnits="userSpaceOnUse" color-interpolation-filters="sRGB">
<feFlood flood-opacity="0" result="BackgroundImageFix"/>
<feColorMatrix in="SourceAlpha" type="matrix" values="0 0 0 0 0 0 0 0 0 0 0 0 0 0 0 0 0 0 127 0" result="hardAlpha"/>
<feMorphology radius="6" operator="dilate" in="SourceAlpha" result="effect1_dropShadow_386_38817"/>
<feOffset dy="4"/>
<feGaussianBlur stdDeviation="1"/>
<feComposite in2="hardAlpha" operator="out"/>
<feColorMatrix type="matrix" values="0 0 0 0 0.376645 0 0 0 0 0.306931 0 0 0 0 0.408333 0 0 0 0.5 0"/>
<feBlend mode="normal" in2="BackgroundImageFix" result="effect1_dropShadow_386_38817"/>
<feBlend mode="normal" in="SourceGraphic" in2="effect1_dropShadow_386_38817" result="shape"/>
</filter>
</defs>
</svg>
