<svg width="222" height="48" viewBox="0 0 222 48" fill="none" xmlns="http://www.w3.org/2000/svg">
<g filter="url(#filter0_d_1928_113661)">
<path d="M-30 4H187.333C193.533 4 196.633 4 199.176 4.68148C206.078 6.53083 211.469 11.9218 213.319 18.8236C214 21.367 214 24.4669 214 30.6667C214 31.9066 214 32.5266 213.864 33.0353C213.494 34.4156 212.416 35.4938 211.035 35.8637C210.527 36 209.907 36 208.667 36H-30V4Z" fill="#58B368" shape-rendering="crispEdges"/>
<path d="M42.5002 12.7889H47.8286C49.147 12.7889 50.2151 13.2009 51.033 14.0249C51.8569 14.8489 52.2689 15.9261 52.2689 17.2567C52.2689 18.5629 51.8447 19.6249 50.9963 20.4427C50.1541 21.2606 49.0646 21.6696 47.7279 21.6696H44.8623V26H42.5002V12.7889ZM44.8623 14.7665V19.7103H47.1969C48.0453 19.7103 48.7014 19.4967 49.1653 19.0695C49.6353 18.6422 49.8702 18.038 49.8702 17.2567C49.8702 16.451 49.6383 15.8346 49.1744 15.4073C48.7167 14.9801 48.0605 14.7665 47.2061 14.7665H44.8623ZM54.6401 26V15.9841H56.8282V17.5405H56.9839C57.1243 17.04 57.4386 16.6281 57.9269 16.3046C58.4213 15.9811 58.9889 15.8193 59.6298 15.8193C60.0387 15.8193 60.353 15.8529 60.5728 15.92V18.0258C60.3408 17.9403 59.9532 17.8976 59.41 17.8976C58.6715 17.8976 58.0703 18.1112 57.6064 18.5385C57.1426 18.9596 56.9106 19.5181 56.9106 20.2139V26H54.6401ZM66.5054 26.2014C65.0039 26.2014 63.8259 25.7406 62.9714 24.819C62.1169 23.8912 61.6897 22.6156 61.6897 20.9921C61.6897 19.3807 62.12 18.1112 62.9806 17.1835C63.8412 16.2496 65.0161 15.7827 66.5054 15.7827C68.0007 15.7827 69.1757 16.2466 70.0302 17.1743C70.8907 18.1021 71.321 19.3746 71.321 20.9921C71.321 22.6156 70.8907 23.8912 70.0302 24.819C69.1757 25.7406 68.0007 26.2014 66.5054 26.2014ZM64.6652 23.4365C65.0985 24.0103 65.7119 24.2971 66.5054 24.2971C67.2988 24.2971 67.9092 24.0103 68.3364 23.4365C68.7698 22.8567 68.9865 22.0419 68.9865 20.9921C68.9865 19.9484 68.7698 19.1366 68.3364 18.5568C67.9031 17.9769 67.2927 17.687 66.5054 17.687C65.7119 17.687 65.0985 17.9769 64.6652 18.5568C64.2318 19.1366 64.0151 19.9484 64.0151 20.9921C64.0151 22.0419 64.2318 22.8567 64.6652 23.4365ZM77.2354 26.1648C75.9658 26.1648 74.9618 25.7009 74.2233 24.7732C73.4847 23.8394 73.1155 22.5759 73.1155 20.9829C73.1155 19.4021 73.4847 18.1478 74.2233 17.2201C74.9679 16.2863 75.9719 15.8193 77.2354 15.8193C77.9189 15.8193 78.5293 15.975 79.0664 16.2863C79.6035 16.5975 80.0063 17.0278 80.2749 17.5771H80.4305V12.1115H82.701V26H80.5038V24.4161H80.3481C80.0613 24.9655 79.6432 25.3958 79.0939 25.707C78.5507 26.0122 77.9312 26.1648 77.2354 26.1648ZM79.7805 18.6208C79.3289 18.041 78.7155 17.7511 77.9403 17.7511C77.1652 17.7511 76.5548 18.041 76.1093 18.6208C75.6637 19.1946 75.4409 19.985 75.4409 20.9921C75.4409 22.0052 75.6606 22.7987 76.1001 23.3724C76.5457 23.9462 77.1591 24.233 77.9403 24.233C78.7216 24.233 79.335 23.9462 79.7805 23.3724C80.2322 22.7926 80.458 21.9991 80.458 20.9921C80.458 19.9911 80.2322 19.2007 79.7805 18.6208ZM94.2825 15.9841V26H92.0944V24.407H91.9387C91.4321 25.6033 90.4342 26.2014 88.9449 26.2014C87.8524 26.2014 87.001 25.8779 86.3906 25.231C85.7803 24.5779 85.4751 23.6654 85.4751 22.4935V15.9841H87.7456V21.9259C87.7456 22.6949 87.9073 23.2687 88.2308 23.6471C88.5543 24.0194 89.0548 24.2056 89.7323 24.2056C90.4647 24.2056 91.0262 23.995 91.4169 23.5739C91.8136 23.1527 92.012 22.5668 92.012 21.816V15.9841H94.2825ZM97.0931 26V15.9841H99.3545V26H97.0931ZM98.2192 14.3545C97.8103 14.3545 97.4746 14.2385 97.2122 14.0066C96.9497 13.7686 96.8185 13.4664 96.8185 13.1002C96.8185 12.734 96.9497 12.4349 97.2122 12.203C97.4746 11.965 97.8103 11.8459 98.2192 11.8459C98.6343 11.8459 98.97 11.965 99.2263 12.203C99.4888 12.4349 99.62 12.734 99.62 13.1002C99.62 13.4664 99.4888 13.7686 99.2263 14.0066C98.97 14.2385 98.6343 14.3545 98.2192 14.3545ZM102.898 13.5305H105.159V16.0482H107.301V17.861H105.159V22.7773C105.159 23.2717 105.269 23.6349 105.489 23.8668C105.708 24.0927 106.056 24.2056 106.532 24.2056C106.74 24.2056 106.996 24.1903 107.301 24.1598V25.9359C106.923 26.0092 106.526 26.0458 106.111 26.0458C104.964 26.0458 104.14 25.8352 103.639 25.4141C103.145 24.9929 102.898 24.2971 102.898 23.3267V17.861H101.314V16.0482H102.898V13.5305ZM109.215 18.8497C109.215 17.9464 109.587 17.2109 110.332 16.6433C111.076 16.0696 112.041 15.7827 113.225 15.7827C114.415 15.7827 115.364 16.036 116.072 16.5426C116.786 17.0431 117.183 17.748 117.262 18.6575H115.129C115.044 18.2974 114.836 18.0166 114.506 17.8152C114.183 17.6077 113.759 17.5039 113.234 17.5039C112.709 17.5039 112.276 17.6168 111.934 17.8427C111.592 18.0685 111.421 18.3615 111.421 18.7216C111.421 19.0023 111.54 19.2343 111.778 19.4174C112.022 19.6005 112.398 19.75 112.904 19.866L114.671 20.2688C115.636 20.4885 116.344 20.8151 116.795 21.2484C117.247 21.6818 117.473 22.2646 117.473 22.9971C117.473 23.9553 117.076 24.7305 116.283 25.3225C115.489 25.9084 114.464 26.2014 113.206 26.2014C111.955 26.2014 110.954 25.9451 110.203 25.4324C109.459 24.9197 109.044 24.2086 108.958 23.2992H111.201C111.311 23.6776 111.54 23.9706 111.888 24.1781C112.242 24.3795 112.7 24.4802 113.261 24.4802C113.835 24.4802 114.302 24.3673 114.662 24.1415C115.022 23.9095 115.202 23.6074 115.202 23.2351C115.202 22.6797 114.741 22.3013 113.82 22.0999L112.044 21.6879C111.079 21.4681 110.365 21.1294 109.901 20.6716C109.444 20.2078 109.215 19.6005 109.215 18.8497ZM124.861 26V12.1115H127.132V26H124.861ZM133.43 24.3795C134.114 24.3795 134.685 24.1842 135.142 23.7936C135.6 23.3969 135.829 22.9086 135.829 22.3287V21.5322L133.568 21.6787C132.323 21.7581 131.7 22.2097 131.7 23.0337C131.7 23.4487 131.859 23.7783 132.176 24.0225C132.5 24.2605 132.918 24.3795 133.43 24.3795ZM132.762 26.1648C131.786 26.1648 130.989 25.8901 130.373 25.3408C129.756 24.7915 129.448 24.0652 129.448 23.1619C129.448 22.2585 129.774 21.5505 130.427 21.0378C131.087 20.5251 132.027 20.2322 133.247 20.1589L135.829 20.0033V19.161C135.829 18.6666 135.667 18.2882 135.344 18.0258C135.02 17.7633 134.553 17.6321 133.943 17.6321C133.418 17.6321 132.985 17.7236 132.643 17.9067C132.301 18.0837 132.078 18.3401 131.975 18.6758H129.832C129.924 17.7908 130.351 17.0889 131.114 16.5701C131.883 16.0452 132.863 15.7827 134.053 15.7827C135.335 15.7827 136.323 16.0787 137.019 16.6708C137.721 17.2628 138.072 18.0929 138.072 19.161V26H135.884V24.6267H135.728C135.448 25.1089 135.045 25.4873 134.52 25.762C134.001 26.0305 133.415 26.1648 132.762 26.1648ZM140.837 26V15.9841H143.098V26H140.837ZM141.963 14.3545C141.554 14.3545 141.219 14.2385 140.956 14.0066C140.694 13.7686 140.562 13.4664 140.562 13.1002C140.562 12.734 140.694 12.4349 140.956 12.203C141.219 11.965 141.554 11.8459 141.963 11.8459C142.378 11.8459 142.714 11.965 142.97 12.203C143.233 12.4349 143.364 12.734 143.364 13.1002C143.364 13.4664 143.233 13.7686 142.97 14.0066C142.714 14.2385 142.378 14.3545 141.963 14.3545ZM146.641 13.5305H148.903V16.0482H151.045V17.861H148.903V22.7773C148.903 23.2717 149.013 23.6349 149.232 23.8668C149.452 24.0927 149.8 24.2056 150.276 24.2056C150.484 24.2056 150.74 24.1903 151.045 24.1598V25.9359C150.667 26.0092 150.27 26.0458 149.855 26.0458C148.708 26.0458 147.884 25.8352 147.383 25.4141C146.889 24.9929 146.641 24.2971 146.641 23.3267V17.861H145.058V16.0482H146.641V13.5305ZM153.343 26V15.9841H155.604V26H153.343ZM154.469 14.3545C154.06 14.3545 153.725 14.2385 153.462 14.0066C153.2 13.7686 153.068 13.4664 153.068 13.1002C153.068 12.734 153.2 12.4349 153.462 12.203C153.725 11.965 154.06 11.8459 154.469 11.8459C154.884 11.8459 155.22 11.965 155.476 12.203C155.739 12.4349 155.87 12.734 155.87 13.1002C155.87 13.4664 155.739 13.7686 155.476 14.0066C155.22 14.2385 154.884 14.3545 154.469 14.3545ZM162.627 17.5863C161.949 17.5863 161.391 17.8091 160.951 18.2546C160.512 18.7002 160.268 19.2892 160.219 20.0216H164.934C164.909 19.277 164.69 18.6849 164.275 18.2455C163.859 17.806 163.31 17.5863 162.627 17.5863ZM164.952 23.2443H167.104C166.89 24.1598 166.386 24.8831 165.593 25.4141C164.806 25.939 163.826 26.2014 162.654 26.2014C161.183 26.2014 160.026 25.7437 159.184 24.8281C158.348 23.9065 157.93 22.64 157.93 21.0287C157.93 19.4174 158.351 18.1417 159.193 17.2018C160.036 16.2557 161.183 15.7827 162.636 15.7827C164.064 15.7827 165.181 16.2313 165.987 17.1285C166.798 18.0197 167.204 19.2556 167.204 20.8364V21.5688H160.21V21.6879C160.24 22.524 160.478 23.1863 160.924 23.6746C161.375 24.1567 161.974 24.3978 162.718 24.3978C163.866 24.3978 164.61 24.0133 164.952 23.2443ZM169.484 26V15.9841H171.672V17.5405H171.828C171.968 17.04 172.282 16.6281 172.771 16.3046C173.265 15.9811 173.833 15.8193 174.474 15.8193C174.882 15.8193 175.197 15.8529 175.417 15.92V18.0258C175.185 17.9403 174.797 17.8976 174.254 17.8976C173.515 17.8976 172.914 18.1112 172.45 18.5385C171.986 18.9596 171.754 19.5181 171.754 20.2139V26H169.484ZM176.836 18.8497C176.836 17.9464 177.208 17.2109 177.953 16.6433C178.697 16.0696 179.661 15.7827 180.846 15.7827C182.036 15.7827 182.985 16.036 183.693 16.5426C184.407 17.0431 184.804 17.748 184.883 18.6575H182.75C182.664 18.2974 182.457 18.0166 182.127 17.8152C181.804 17.6077 181.38 17.5039 180.855 17.5039C180.33 17.5039 179.896 17.6168 179.555 17.8427C179.213 18.0685 179.042 18.3615 179.042 18.7216C179.042 19.0023 179.161 19.2343 179.399 19.4174C179.643 19.6005 180.019 19.75 180.525 19.866L182.292 20.2688C183.256 20.4885 183.964 20.8151 184.416 21.2484C184.868 21.6818 185.094 22.2646 185.094 22.9971C185.094 23.9553 184.697 24.7305 183.903 25.3225C183.11 25.9084 182.085 26.2014 180.827 26.2014C179.576 26.2014 178.575 25.9451 177.824 25.4324C177.08 24.9197 176.665 24.2086 176.579 23.2992H178.822C178.932 23.6776 179.161 23.9706 179.509 24.1781C179.863 24.3795 180.321 24.4802 180.882 24.4802C181.456 24.4802 181.923 24.3673 182.283 24.1415C182.643 23.9095 182.823 23.6074 182.823 23.2351C182.823 22.6797 182.362 22.3013 181.441 22.0999L179.665 21.6879C178.7 21.4681 177.986 21.1294 177.522 20.6716C177.064 20.2078 176.836 19.6005 176.836 18.8497Z" fill="white"/>
</g>
<defs>
<filter id="filter0_d_1928_113661" x="-38" y="0" width="260" height="48" filterUnits="userSpaceOnUse" color-interpolation-filters="sRGB">
<feFlood flood-opacity="0" result="BackgroundImageFix"/>
<feColorMatrix in="SourceAlpha" type="matrix" values="0 0 0 0 0 0 0 0 0 0 0 0 0 0 0 0 0 0 127 0" result="hardAlpha"/>
<feMorphology radius="6" operator="dilate" in="SourceAlpha" result="effect1_dropShadow_1928_113661"/>
<feOffset dy="4"/>
<feGaussianBlur stdDeviation="1"/>
<feComposite in2="hardAlpha" operator="out"/>
<feColorMatrix type="matrix" values="0 0 0 0 0.376645 0 0 0 0 0.306931 0 0 0 0 0.408333 0 0 0 0.5 0"/>
<feBlend mode="normal" in2="BackgroundImageFix" result="effect1_dropShadow_1928_113661"/>
<feBlend mode="normal" in="SourceGraphic" in2="effect1_dropShadow_1928_113661" result="shape"/>
</filter>
</defs>
</svg>
