<svg width="32" height="32" viewBox="0 0 32 32" fill="none" xmlns="http://www.w3.org/2000/svg">
<path d="M10.417 28.5264C10.9541 28.5264 11.3086 28.1611 11.3086 27.624V26.5391H15.2617V3.47559H9.75098C8.26855 3.47559 7.26953 4.49609 7.26953 6.04297V23.9717C7.26953 25.4326 8.16113 26.4316 9.52539 26.5283V27.624C9.52539 28.1611 9.87988 28.5264 10.417 28.5264ZM21.5781 28.5264C22.1152 28.5264 22.4697 28.1611 22.4697 27.624V26.5283C23.834 26.4316 24.7256 25.4326 24.7256 23.9717V6.04297C24.7256 4.49609 23.7266 3.47559 22.2441 3.47559H16.7334V26.5391H20.6865V27.624C20.6865 28.1611 21.041 28.5264 21.5781 28.5264ZM12.6406 16.5381C12.0176 16.5381 11.502 16.0332 11.502 15.4102C11.502 14.7764 12.0176 14.2715 12.6406 14.2715C13.2637 14.2715 13.7793 14.7764 13.7793 15.4102C13.7793 16.0332 13.2637 16.5381 12.6406 16.5381ZM19.3438 16.5381C18.7207 16.5381 18.2051 16.0332 18.2051 15.4102C18.2051 14.7764 18.7207 14.2715 19.3438 14.2715C19.9668 14.2715 20.4824 14.7764 20.4824 15.4102C20.4824 16.0332 19.9668 16.5381 19.3438 16.5381Z" fill="#537979"/>
</svg>
