<svg width="337" height="464" viewBox="0 0 337 464" fill="none" xmlns="http://www.w3.org/2000/svg">
<g clip-path="url(#clip0_5503_217929)">
<rect x="1" y="1" width="335" height="462" rx="8" fill="url(#paint0_linear_5503_217929)"/>
<path d="M11 181.4C11 173.559 11 169.639 12.5259 166.644C13.8681 164.01 16.0099 161.868 18.6441 160.526C21.6389 159 25.5593 159 33.4 159H303.6C311.441 159 315.361 159 318.356 160.526C320.99 161.868 323.132 164.01 324.474 166.644C326 169.639 326 173.559 326 181.4V371.6C326 379.441 326 383.361 324.474 386.356C323.132 388.99 320.99 391.132 318.356 392.474C315.361 394 311.441 394 303.6 394H33.4C25.5593 394 21.6389 394 18.6441 392.474C16.0099 391.132 13.8681 388.99 12.5259 386.356C11 383.361 11 379.441 11 371.6V181.4Z" fill="url(#paint1_linear_5503_217929)"/>
<g clip-path="url(#clip1_5503_217929)">
<path d="M166.406 150.75C196.368 120.789 196.368 72.2114 166.406 42.25C136.445 12.2885 87.8677 12.2886 57.9062 42.25C27.9448 72.2115 27.9448 120.789 57.9062 150.75C87.8677 180.711 136.445 180.711 166.406 150.75Z" fill="#EDC142"/>
<path d="M172.052 109.374C159.351 120.526 142.779 126.465 126.103 129.172C116.99 130.647 107.647 131.233 98.5343 129.757C77.2316 126.302 58.2867 110.857 50.6124 90.6887C46.119 78.8621 45.6 65.6786 48.6846 53.4219C37.1397 70.4389 32.4239 92.016 37.377 113.645C46.8457 154.946 87.9979 180.756 129.298 171.288C168.271 162.353 193.444 125.205 188.202 86.3436C184.865 95.1376 179.141 103.16 172.052 109.381V109.374Z" fill="#E2A33E"/>
<path d="M32.368 88.1602C32.368 88.1602 32.3235 88.2269 32.3013 88.2491C32.3532 88.1898 32.368 88.1602 32.368 88.1602Z" fill="#222221"/>
<path d="M34.6518 77.0248C33.28 76.8024 32.0566 77.6254 31.4189 78.7896C31.1965 79.19 30.9814 79.6274 30.8109 80.0501C30.4179 81.014 30.0991 82.0224 29.8025 83.016C29.8025 82.9493 29.8025 82.8899 29.8025 82.8232C29.8025 82.5637 29.8025 82.3042 29.8247 82.0447C29.7728 82.89 29.847 81.0511 29.847 81.4589C29.847 80.9399 29.8395 80.4282 29.847 79.9092C29.847 79.4569 29.847 79.012 29.8321 78.5597C29.8173 78.0555 29.8618 77.5142 29.7654 77.0248C29.5207 75.7791 28.6828 74.8152 27.3482 74.7633C26.0802 74.7188 25.0199 75.6086 24.7752 76.8469C24.6492 77.4846 24.7159 78.1964 24.7233 78.8415C24.7233 79.3605 24.753 79.8647 24.7975 80.3763C24.8865 81.3403 25.0199 82.2894 25.2127 83.2384C25.3981 84.1727 25.5909 85.1218 25.8578 86.0412C25.2943 85.5445 24.664 85.1144 24.0634 84.6918C23.6704 84.41 23.2849 84.1134 22.8919 83.8316C22.0095 83.2014 21.0456 82.712 19.9334 82.838C19.266 82.9122 18.5171 83.2607 18.1093 83.8168C17.7237 84.3358 17.3901 85.0699 17.531 85.7372C17.657 86.3378 17.7756 86.805 18.1316 87.3166C18.3614 87.6577 18.6432 87.9543 18.9694 88.2064C19.4069 88.5475 19.9111 88.8218 20.3857 89.1036C21.0085 89.4817 21.6388 89.897 22.3209 90.1639C23.1588 90.4976 23.9893 90.7645 24.879 90.9202C25.183 90.9721 25.5167 91.0462 25.8281 91.0166C26.0209 92.3513 26.5474 93.5969 27.0961 94.8649C27.756 96.3849 28.5345 97.8605 29.3872 99.2841C31.0333 102.013 33.1021 104.482 35.4303 106.654C37.6992 108.775 40.4353 110.851 43.5644 111.392C45.3662 111.704 47.2718 111.444 48.8585 110.532C50.4453 109.628 51.3573 108.078 51.7726 106.336C52.1804 104.645 51.6688 102.873 51.1201 101.271C50.8383 100.441 50.475 99.5881 50.0078 98.8392C49.7483 98.4314 49.4295 98.0829 48.9846 97.8753C48.8437 97.8086 48.6954 97.7492 48.5323 97.7196C48.4581 97.7047 47.9836 97.6158 48.1393 97.6751C47.7315 97.5268 47.3533 97.7418 47.2495 98.1571C47.3089 98.0755 47.294 98.0977 47.205 98.2238C47.0493 98.4166 46.9529 98.639 46.9085 98.8837C46.7972 99.3286 46.8417 99.7142 46.9159 100.159C47.0345 100.886 47.1606 101.59 47.1976 102.324C47.2125 102.643 47.1976 102.932 47.1531 103.251C47.1383 103.37 46.9529 104.178 47.0271 103.948C47.0123 104.007 46.864 104.348 46.7824 104.526C46.7082 104.571 46.6415 104.623 46.5674 104.667C47.1383 104.237 46.3449 104.764 46.1299 104.838C46.0187 104.875 45.5441 104.971 45.4255 105.008C45.1734 105.008 44.8545 105.008 44.9213 105.038C44.7878 105.016 44.6543 104.994 44.5209 104.971C44.7211 104.994 43.9574 104.793 43.8165 104.734C43.5495 104.615 43.29 104.474 43.0305 104.334C42.9564 104.274 42.4447 103.955 42.3632 103.896C42.0962 103.703 41.8293 103.503 41.5698 103.296C38.8634 101.167 37.4323 99.6623 35.497 96.815C35.0522 96.1625 34.6369 95.4951 34.2365 94.8056C34.1401 94.635 34.0437 94.4645 33.9474 94.2865C33.9325 94.2495 33.9177 94.2272 33.8955 94.1827C33.7323 93.8491 33.5692 93.5228 33.4135 93.1891C32.7758 91.8174 32.4199 90.1861 31.6562 88.8589C31.7081 88.7921 31.7526 88.7328 31.8119 88.6735C31.9305 88.5549 32.3606 88.1026 32.368 88.1248C32.4718 87.9839 32.5608 87.8356 32.6572 87.6947C32.7387 87.5761 32.8129 87.4649 32.8945 87.3463L32.7313 87.4575C32.9167 87.1905 33.2207 86.9755 33.4209 86.6863C34.548 85.0699 35.7269 83.4238 36.5574 81.6294C36.98 80.7174 37.2395 79.7683 36.8243 78.7747C36.4387 77.8479 35.6602 77.1435 34.6518 76.9803V77.0248Z" fill="#222221"/>
<path d="M80.8302 34.7604C79.9256 33.7149 78.4946 33.5073 77.1896 33.396C76.2553 33.3145 75.3136 33.396 74.3868 33.5221C72.8371 33.7297 71.2281 34.3303 69.9379 35.2052C68.5142 36.1692 67.3205 37.3036 66.3862 38.7644C65.9487 39.4539 65.5928 40.2177 65.2888 40.974C65.1627 41.2928 65.0738 41.6116 65.007 41.9453C64.9403 42.2864 64.8291 42.672 64.8143 43.0205C64.7994 43.6581 64.9996 44.192 65.2369 44.7704C66.0006 46.6537 68.6551 46.7205 69.975 45.5415C70.6868 44.9112 70.9537 44.0066 71.2948 43.1465C71.3245 43.0798 71.3615 43.0056 71.3912 42.9315C71.5172 42.709 71.6433 42.4792 71.7842 42.2642C71.8954 42.0936 72.0215 41.9305 72.1401 41.7674C72.2068 41.6932 72.281 41.6191 72.3477 41.5449C72.5405 41.3521 72.7407 41.1593 72.9483 40.9814C73.015 40.9295 73.0818 40.8702 73.1485 40.8183C73.3413 40.6996 73.5341 40.5736 73.7417 40.4624C73.89 40.3808 74.0457 40.3066 74.2014 40.2399C74.2385 40.2251 74.3275 40.188 74.3942 40.1583C74.5351 40.1139 74.6834 40.0694 74.8243 40.0323C75.0912 39.9656 75.3507 39.9062 75.6251 39.8692C75.6547 39.8692 75.6992 39.8618 75.7585 39.8543C75.803 39.8543 75.8549 39.8543 75.8772 39.8543C76.1812 39.8469 76.4926 39.8543 76.7966 39.8766C76.8782 39.8766 76.9523 39.8914 77.0339 39.8988C77.2192 39.9656 77.7976 40.0249 77.7902 40.0249C78.2647 40.1064 78.7838 40.1213 79.2435 39.9581C80.3186 39.5726 81.1713 38.9868 81.5272 37.8449C81.8757 36.7401 81.5643 35.6205 80.8228 34.7678L80.8302 34.7604Z" fill="#222221"/>
<path d="M135.767 26.2407C135.411 25.5437 134.848 25.0469 134.269 24.5501C133.669 24.0385 133.053 23.5343 132.393 23.1043C129.909 21.4952 126.951 20.7463 124.015 21.169C122.317 21.4137 120.782 22.1996 119.432 23.2377C118.809 23.7197 118.253 24.3055 117.86 24.9876C116.933 26.6189 117.304 29.177 119.38 29.7553C120.767 30.1409 121.872 29.6441 122.947 28.7766C123.132 28.6283 123.303 28.4577 123.488 28.302C123.495 28.302 123.51 28.2872 123.518 28.2798C123.607 28.2205 123.703 28.1537 123.725 28.1463C123.918 28.0351 124.118 27.9461 124.311 27.8423C124.385 27.8201 124.452 27.7978 124.526 27.7756C124.726 27.7237 124.934 27.6866 125.134 27.6495C125.275 27.6495 125.453 27.6273 125.572 27.6273C125.861 27.6273 126.143 27.6718 126.432 27.6866C126.476 27.694 126.513 27.7014 126.558 27.7163C126.84 27.783 127.121 27.8646 127.396 27.961C127.529 28.0054 127.663 28.0648 127.796 28.1093C128.248 28.3614 128.701 28.606 129.123 28.9026C129.301 29.0287 129.472 29.1696 129.65 29.303C129.761 29.4068 129.872 29.5032 129.976 29.5996C131.022 30.571 132.193 31.3421 133.713 30.9417C135.752 30.4004 136.709 28.087 135.752 26.2259L135.767 26.2407Z" fill="#222221"/>
<path d="M86.2226 61.951C85.3996 59.2372 83.3383 56.6568 80.3649 56.3306C78.3481 56.1081 76.2571 56.9905 75.3155 58.8813C74.6704 60.164 74.5221 61.6322 74.4183 63.041C74.27 65.1171 74.6036 67.3416 75.3525 69.2917C75.8271 70.5299 76.3684 71.6792 77.2136 72.7025C78.1034 73.785 79.2824 74.7193 80.706 74.9417C82.5078 75.2235 84.3764 74.7045 85.5553 73.2512C86.5786 71.9981 86.9345 70.5744 87.0383 68.9877C87.0902 68.1424 87.0234 67.2748 86.9122 66.437C86.8826 66.2071 86.8455 65.9772 86.8084 65.7474C86.8084 65.6732 86.7936 65.5917 86.7936 65.5101C86.712 64.3237 86.5711 63.1003 86.2301 61.9584L86.2226 61.951Z" fill="#222221"/>
<path d="M136.83 50.3514C136.007 47.6376 133.945 45.0572 130.972 44.731C128.955 44.5085 126.864 45.3909 125.922 47.2816C125.277 48.5644 125.129 50.0325 125.025 51.4414C124.877 53.5175 125.211 55.742 125.959 57.692C126.434 58.9303 126.975 60.0796 127.821 61.1029C128.71 62.1854 129.889 63.1197 131.313 63.3421C133.115 63.6239 134.983 63.1049 136.162 61.6516C137.185 60.3985 137.541 58.9748 137.645 57.388C137.697 56.5428 137.63 55.6752 137.519 54.8373C137.489 54.6075 137.452 54.3776 137.415 54.1478C137.415 54.0736 137.401 53.9921 137.401 53.9105C137.319 52.7241 137.178 51.5007 136.837 50.3588L136.83 50.3514Z" fill="#222221"/>
<path d="M137.65 73.8859C137.65 73.8859 137.621 73.8562 137.606 73.834C137.695 73.9526 137.702 73.96 137.65 73.8859Z" fill="#222221"/>
<path d="M148.149 70.0463C146.695 69.3345 145.131 68.5708 143.477 68.5782C141.928 68.5782 140.467 69.1046 139.229 70.0315C138.695 70.4319 138.22 70.9287 137.849 71.4774C137.605 71.8407 137.493 72.1818 137.419 72.6118C137.382 72.8195 137.345 73.0048 137.367 73.2199C137.367 73.383 137.412 73.5387 137.494 73.687C137.568 73.7908 137.612 73.8501 137.642 73.8946C137.872 74.2209 138.228 74.3914 138.628 74.3098C138.747 74.2876 138.939 74.2431 138.976 74.2357C139.184 74.1615 139.325 74.0281 139.496 73.8946C139.696 73.7389 139.888 73.5832 140.066 73.4052C140.244 73.2199 140.43 73.0419 140.623 72.8714C140.66 72.8343 140.689 72.812 140.704 72.7972C140.726 72.7824 140.756 72.7676 140.793 72.7453C140.882 72.6934 140.964 72.6341 141.053 72.5822C141.245 72.471 141.453 72.3746 141.661 72.2856C141.72 72.2633 141.905 72.204 141.928 72.1966C141.994 72.1818 142.061 72.167 142.12 72.1447C142.054 72.2708 142.002 72.3968 141.957 72.5303C141.616 73.6203 141.876 74.6583 142.002 75.7557C142.002 75.7928 142.024 76.0078 142.039 76.1339C142.046 76.2599 142.061 76.4601 142.068 76.4972C142.098 76.9643 142.12 77.4315 142.135 77.8912C142.172 79.5002 142.12 81.1092 141.942 82.7034C141.905 83.0667 141.861 83.4226 141.809 83.786C141.779 83.9936 141.75 84.1938 141.72 84.4014C141.72 84.4236 141.705 84.5052 141.69 84.5794C141.542 85.3801 141.357 86.1735 141.149 86.9669C140.734 88.5166 140.215 90.0441 139.577 91.5196C139.562 91.5493 139.466 91.7791 139.414 91.8904C139.377 91.9719 139.318 92.0906 139.325 92.0906C139.14 92.4687 138.954 92.8469 138.754 93.2176C138.354 93.9739 137.924 94.708 137.456 95.4272C136.448 96.9769 135.751 97.8445 134.52 99.0457C133.334 100.202 132.288 101.018 131.095 101.774C129.641 102.701 128.114 103.524 126.542 104.243C120.877 106.839 114.389 108.069 108.012 108.158C101.858 108.247 95.8519 106.675 90.5577 103.524C87.792 101.878 85.1968 99.9725 83.002 97.6146C81.9343 96.4727 80.911 95.2641 80.0139 93.9813C79.0573 92.6096 78.4123 90.9932 77.1666 89.8809C77.2778 89.829 77.3816 89.7697 77.4928 89.7104C77.7004 89.5918 77.8858 89.4435 78.1008 89.3471C78.9016 88.9689 79.6802 88.5018 79.5022 87.4489C79.3762 86.7074 78.5754 86.1216 77.8784 85.9288C77.2185 85.7509 76.4399 85.6619 75.78 85.8695C74.6381 86.218 73.5852 86.8186 72.7325 87.6565C71.3089 89.0579 70.2708 90.9116 69.9 92.8765C69.6479 94.2409 69.5812 95.9166 70.597 97.0066C71.1976 97.6517 72.0726 98.0447 72.9179 97.5849C73.6816 97.1697 74.0746 96.2058 74.1784 95.3901C74.1932 95.2567 74.2006 95.101 74.2155 94.9527C74.2155 94.9527 74.2155 94.9527 74.2155 94.9453C74.2748 94.6783 74.3267 94.404 74.3638 94.1296C74.3934 93.9294 74.5491 93.2769 74.3638 94.0332C74.4231 93.8108 74.4602 93.5809 74.5195 93.3585C74.5788 93.1509 74.6455 92.9507 74.7123 92.7505C74.7864 92.5503 75.1423 91.9348 74.7568 92.5873C74.8606 92.402 74.9644 92.2166 75.0608 92.0312C75.1349 92.3352 75.2313 92.6467 75.3796 92.9729C75.7281 93.7366 76.1137 94.493 76.5289 95.227C77.3223 96.6284 78.2195 97.9853 79.2205 99.2459C81.2076 101.737 83.5952 104.103 86.2052 105.941C91.8776 109.938 98.4248 111.977 105.254 112.889C112.424 113.846 119.935 112.637 126.72 110.22C130.39 108.915 133.808 107.261 136.908 104.881C139.874 102.605 142.232 99.6092 143.981 96.317C145.969 92.5651 147.244 88.5759 147.889 84.3792C148.186 82.4291 148.327 80.4567 148.26 78.4844C148.223 77.387 148.126 76.2822 148.008 75.1922C147.993 75.0365 147.963 74.8882 147.948 74.7325C148.579 75.1477 149.231 75.5036 149.987 75.6074C150.811 75.7261 151.663 74.8808 151.656 74.08C151.634 72.1299 149.728 70.8397 148.134 70.0686L148.149 70.0463Z" fill="#222221"/>
<path d="M138.638 74.3086C138.483 74.3383 138.535 74.3308 138.638 74.3086V74.3086Z" fill="#222221"/>
<path d="M157.097 57.5325C155.518 56.0792 152.574 55.7678 150.683 56.1978C149.452 56.4796 148.362 56.9097 147.339 57.6586C146.012 58.6299 144.944 60.1499 145.174 61.8702C145.426 63.7313 147.124 64.9102 148.896 65.0808C150.55 65.2365 152.715 64.9102 154.294 64.4431C156.266 63.8648 158.572 61.7219 158.128 59.3565C157.987 58.6151 157.616 58.0145 157.097 57.5399V57.5325Z" fill="#D37360"/>
<path d="M67.383 78.0931C65.8037 76.6397 62.86 76.3283 60.9692 76.7584C59.7384 77.0401 58.6484 77.4702 57.6251 78.2191C56.2979 79.1904 55.2302 80.7105 55.46 82.4307C55.7121 84.2918 57.4101 85.4708 59.1822 85.6413C60.8358 85.797 63.0009 85.4708 64.5802 85.0037C66.5526 84.4253 68.8586 82.2824 68.4137 79.9171C68.2728 79.1756 67.9021 78.575 67.383 78.1005V78.0931Z" fill="#D37360"/>
<path d="M136.209 47.8252C136.209 47.8252 136.194 47.7881 136.187 47.7659C136.187 47.7585 136.187 47.7436 136.187 47.7362C136.135 47.4619 136.031 47.2246 135.897 46.9947C135.823 46.8613 135.749 46.7278 135.645 46.6092C135.43 46.2532 135.141 45.9715 134.778 45.7639C134.429 45.5266 134.051 45.3931 133.636 45.3561C133.221 45.2448 132.806 45.2522 132.383 45.3561C132.116 45.4524 131.849 45.5563 131.589 45.6526C131.1 45.9196 130.707 46.2903 130.411 46.7575C130.299 47.0021 130.181 47.2468 130.069 47.4915C129.899 48.0402 129.877 48.5889 130.003 49.145C130.003 49.1599 130.003 49.1747 130.01 49.1895C130.084 49.4713 130.196 49.753 130.322 50.02C130.388 50.146 130.47 50.2572 130.566 50.3611C130.7 50.6057 130.885 50.8059 131.122 50.9542C131.315 51.1544 131.538 51.2953 131.805 51.3843C131.931 51.4436 132.057 51.5029 132.183 51.5548C132.22 51.5697 132.954 51.6957 132.998 51.6957C132.998 51.6957 133.006 51.6957 133.013 51.6957C133.028 51.6957 133.035 51.6957 133.05 51.6957C133.11 51.6957 133.829 51.629 133.888 51.6216H133.903C133.903 51.6216 133.91 51.6216 133.918 51.6216C133.918 51.6216 133.925 51.6216 133.933 51.6216L134.696 51.3324C134.696 51.3324 134.719 51.325 134.726 51.3176C135.089 51.1396 135.378 50.8875 135.608 50.5613C135.883 50.2795 136.068 49.9458 136.179 49.5602C136.224 49.3007 136.268 49.0486 136.313 48.7891C136.313 48.715 136.313 48.6408 136.313 48.5667C136.335 48.3591 136.313 48.1514 136.224 47.8178L136.209 47.8252Z" fill="white"/>
<path d="M130.117 60.0413C129.991 59.8115 129.813 59.6187 129.591 59.4778C129.472 59.4259 129.361 59.374 129.242 59.3147C128.983 59.2331 128.723 59.2257 128.457 59.285C128.256 59.3221 128.071 59.4111 127.923 59.5445C127.752 59.6483 127.619 59.7818 127.522 59.9598C127.411 60.1229 127.344 60.3083 127.329 60.501C127.278 60.6938 127.278 60.894 127.329 61.0942L127.47 61.4724C127.596 61.7022 127.774 61.895 127.997 62.0359C128.115 62.0878 128.227 62.1471 128.345 62.199C128.605 62.2806 128.864 62.288 129.131 62.2287C129.331 62.1916 129.517 62.1026 129.665 61.9692C129.836 61.8654 129.969 61.7319 130.066 61.5539C130.177 61.3908 130.243 61.2054 130.258 61.0127C130.31 60.8199 130.31 60.6197 130.258 60.4195L130.117 60.0413Z" fill="white"/>
<path d="M84.7226 59.6221C84.7226 59.6221 84.7078 59.585 84.7003 59.5627C84.7003 59.5553 84.7003 59.5405 84.7003 59.5331C84.6484 59.2587 84.5446 59.0215 84.4112 58.7916C84.337 58.6581 84.2629 58.5247 84.1591 58.406C83.944 58.0501 83.6549 57.7684 83.2915 57.5607C82.943 57.3235 82.5649 57.19 82.1497 57.1529C81.7344 57.0417 81.3192 57.0491 80.8965 57.1529C80.6296 57.2493 80.3627 57.3531 80.1032 57.4495C79.6138 57.7164 79.2208 58.0872 78.9242 58.5543C78.813 58.799 78.6943 59.0437 78.5831 59.2884C78.4126 59.8371 78.3903 60.3858 78.5164 60.9419C78.5164 60.9567 78.5164 60.9716 78.5238 60.9864C78.598 61.2681 78.7092 61.5499 78.8352 61.8168C78.902 61.9429 78.9835 62.0541 79.0799 62.1579C79.2134 62.4026 79.3988 62.6028 79.636 62.7511C79.8288 62.9513 80.0513 63.0922 80.3182 63.1812C80.4442 63.2405 80.5703 63.2998 80.6963 63.3517C80.7334 63.3665 81.4675 63.4926 81.512 63.4926C81.512 63.4926 81.5194 63.4926 81.5268 63.4926C81.5416 63.4926 81.5491 63.4926 81.5639 63.4926C81.6232 63.4926 82.3424 63.4259 82.4018 63.4184H82.4166C82.4166 63.4184 82.424 63.4184 82.4314 63.4184C82.4314 63.4184 82.4388 63.4184 82.4462 63.4184L83.21 63.1293C83.21 63.1293 83.2322 63.1219 83.2396 63.1144C83.603 62.9365 83.8921 62.6844 84.122 62.3581C84.3963 62.0764 84.5817 61.7427 84.6929 61.3571C84.7374 61.0976 84.7819 60.8455 84.8264 60.586C84.8264 60.5118 84.8264 60.4377 84.8264 60.3635C84.8486 60.1559 84.8264 59.9483 84.7374 59.6146L84.7226 59.6221Z" fill="white"/>
<path d="M78.6233 71.8499C78.4972 71.6201 78.3193 71.4273 78.0968 71.2864C77.9782 71.2345 77.867 71.1826 77.7483 71.1233C77.4888 71.0417 77.2293 71.0343 76.9624 71.0936C76.7622 71.1307 76.5768 71.2197 76.4285 71.3531C76.258 71.4569 76.1245 71.5904 76.0281 71.7684C75.9169 71.9315 75.8501 72.1168 75.8353 72.3096C75.7834 72.5024 75.7834 72.7026 75.8353 72.9028L75.9762 73.281C76.1022 73.5108 76.2802 73.7036 76.5026 73.8445C76.6213 73.8964 76.7325 73.9557 76.8511 74.0076C77.1107 74.0892 77.3702 74.0966 77.6371 74.0373C77.8373 74.0002 78.0227 73.9112 78.171 73.7778C78.3415 73.674 78.475 73.5405 78.5714 73.3625C78.6826 73.1994 78.7493 73.014 78.7642 72.8213C78.8161 72.6285 78.8161 72.4283 78.7642 72.2281L78.6233 71.8499Z" fill="white"/>
<path d="M183.576 76.6587C183.197 75.6429 182.434 75.0868 181.462 74.6716C180.469 74.2415 179.201 74.6864 178.444 75.3611C177.043 76.6217 177.466 78.1639 177.332 79.7655C177.325 79.8619 177.31 79.9583 177.303 80.0547C177.251 80.2475 177.221 80.4551 177.169 80.6331C177.058 81.0186 176.791 81.4635 176.724 81.8565C176.695 81.9084 176.672 81.9603 176.643 82.0122C176.517 82.2421 176.391 82.4645 176.242 82.6796C176.138 82.8427 175.938 83.0355 175.834 83.2134C175.82 83.2282 175.812 83.2357 175.797 83.2505C175.76 83.2876 175.412 83.599 175.264 83.7325C175.182 83.7844 175.1 83.8289 175.019 83.8808C174.922 83.9401 174.841 84.0068 174.752 84.0661C174.67 84.0884 174.567 84.118 174.455 84.1625C174.448 84.1551 174.433 84.1403 174.426 84.1329C174.285 83.9846 174.159 83.8289 174.018 83.6731C173.929 83.5767 173.825 83.4655 173.736 83.3543C173.684 83.2357 173.566 82.991 173.536 82.9317C173.306 82.4497 173.054 81.9677 172.809 81.4932C172.349 80.596 172.031 79.4245 171.756 78.3122C171.608 77.7265 171.489 77.1259 171.386 76.5327C171.274 75.8876 171.237 75.1461 170.852 74.59C170.34 73.8485 169.243 73.6631 168.709 74.5158C168.079 75.5243 168.249 76.9998 168.308 78.1417C168.368 79.3577 168.486 80.5663 168.687 81.7675C168.865 82.8279 168.939 83.8956 169.309 84.9114C169.309 84.8966 169.524 85.6529 169.502 85.4824C169.502 85.4898 169.502 85.4972 169.502 85.5046C169.613 85.8605 169.747 86.209 169.888 86.5501C170.103 87.0765 170.466 87.5585 170.844 87.9811C171.215 88.3964 171.675 88.782 172.149 89.0711C172.468 89.2565 172.824 89.4196 173.165 89.5531C173.254 89.5902 173.343 89.6198 173.439 89.6495C173.484 89.6643 173.514 89.6717 173.543 89.6791C173.573 89.694 173.603 89.7088 173.632 89.7236C175.093 90.3984 177.028 90.1018 178.415 89.3158C180.624 88.0553 182.211 85.9569 183.153 83.6287C183.62 82.4719 183.872 81.1966 183.961 79.9583C184.006 79.3206 183.968 78.6978 183.917 78.0601C183.872 77.5411 183.753 77.1407 183.568 76.6513L183.576 76.6587Z" fill="#E2A33E"/>
<path d="M182.667 58.75C182.667 58.75 182.726 58.8019 182.756 58.8167C182.689 58.7722 182.667 58.75 182.667 58.75Z" fill="#222221"/>
<path d="M177.346 48.6923C178.599 48.0917 180 48.544 180.942 49.4782C181.268 49.8045 181.594 50.1604 181.884 50.5163C182.529 51.3245 183.122 52.2143 183.685 53.0818C183.671 53.0225 183.648 52.9558 183.634 52.8965C183.559 52.6518 183.485 52.3997 183.396 52.155C183.678 52.9484 183.092 51.2133 183.211 51.5989C183.063 51.1021 182.929 50.6053 182.781 50.1159C182.655 49.6859 182.529 49.2484 182.418 48.8109C182.291 48.3215 182.091 47.8173 182.047 47.3205C181.936 46.0526 182.469 44.8959 183.737 44.4732C184.939 44.0728 186.206 44.629 186.792 45.756C187.089 46.3344 187.23 47.0313 187.4 47.6542C187.541 48.151 187.66 48.6478 187.756 49.152C187.942 50.1011 188.075 51.0502 188.164 52.0141C188.246 52.9558 188.327 53.9271 188.327 54.8836C188.728 54.2534 189.217 53.6528 189.669 53.0818C189.973 52.7037 190.255 52.3107 190.552 51.9325C191.219 51.0798 192.012 50.3384 193.117 50.1456C193.777 50.0343 194.593 50.1604 195.141 50.5756C195.66 50.9686 196.179 51.584 196.239 52.2588C196.291 52.8742 196.305 53.3488 196.105 53.942C195.979 54.3349 195.794 54.6983 195.549 55.0319C195.223 55.4768 194.815 55.8846 194.444 56.2925C193.948 56.8337 193.466 57.4121 192.887 57.857C192.175 58.4131 191.456 58.9025 190.648 59.3029C190.366 59.4437 190.07 59.6069 189.766 59.6588C189.958 60.9934 189.803 62.3355 189.625 63.7073C189.417 65.3534 189.083 66.9846 188.668 68.5862C187.86 71.6708 186.555 74.6219 184.931 77.3579C183.344 80.0273 181.305 82.7856 178.451 84.187C176.812 84.9952 174.906 85.277 173.127 84.8469C171.347 84.4168 170.035 83.186 169.152 81.6363C168.292 80.1237 168.277 78.2774 168.359 76.5868C168.396 75.7044 168.507 74.785 168.745 73.9397C168.878 73.48 169.093 73.0499 169.456 72.7311C169.575 72.6273 169.701 72.5235 169.842 72.4493C169.909 72.4123 170.339 72.1972 170.205 72.301C170.554 72.0415 170.976 72.1379 171.191 72.5087C171.11 72.4419 171.132 72.4642 171.251 72.5606C171.451 72.7014 171.607 72.8868 171.718 73.1093C171.948 73.5097 172.015 73.8878 172.066 74.3327C172.155 75.0594 172.23 75.7786 172.408 76.4904C172.482 76.8018 172.578 77.0762 172.712 77.3654C172.763 77.4766 173.164 78.2032 173.03 78.003C173.06 78.0549 173.305 78.3367 173.423 78.4924C173.505 78.5221 173.586 78.5443 173.668 78.5666C173.001 78.3145 173.913 78.5962 174.135 78.6036C174.254 78.6036 174.736 78.5666 174.854 78.574C175.099 78.5072 175.403 78.4183 175.344 78.4627C175.462 78.4034 175.588 78.3515 175.707 78.2848C175.522 78.3589 176.204 77.9585 176.315 77.8622C176.538 77.6768 176.745 77.4692 176.953 77.2541C177.005 77.18 177.413 76.7277 177.472 76.6535C177.679 76.394 177.872 76.1271 178.065 75.8527C180.067 73.0499 181.016 71.2111 182.076 67.9337C182.321 67.1848 182.536 66.4211 182.722 65.65C182.766 65.4572 182.81 65.2644 182.855 65.0716C182.862 65.0345 182.87 65.0049 182.877 64.953C182.944 64.5896 183.011 64.2263 183.063 63.863C183.292 62.3652 183.174 60.7043 183.537 59.2139C183.47 59.1694 183.404 59.1175 183.337 59.0804C183.189 58.9989 182.655 58.6874 182.647 58.7097C182.514 58.6059 182.38 58.4872 182.247 58.376C182.136 58.287 182.032 58.1981 181.921 58.1091C181.98 58.1313 182.047 58.1536 182.106 58.1758C181.847 57.9682 181.498 57.8496 181.231 57.6345C179.696 56.3963 178.102 55.1506 176.797 53.6602C176.137 52.9039 175.626 52.066 175.744 50.9983C175.855 50.0047 176.404 49.1075 177.331 48.6626L177.346 48.6923Z" fill="#222221"/>
<path d="M48.1269 128.393C48.0083 128.23 47.9119 128.059 47.7636 127.919C47.6821 127.837 47.6005 127.755 47.5189 127.674C47.3632 127.511 47.2149 127.348 47.074 127.177C46.9332 127.007 46.7997 126.829 46.644 126.673C46.4883 126.51 46.3251 126.354 46.1546 126.198C46.0137 126.065 45.8209 125.954 45.6133 125.902C45.3835 125.798 45.1165 125.776 44.8867 125.909C44.6494 126.05 44.4863 126.302 44.4714 126.569C44.4195 126.747 44.4047 126.94 44.4492 127.103C44.5308 127.4 44.6346 127.689 44.768 127.963C44.9089 128.26 45.1091 128.512 45.3093 128.771C45.6504 129.201 46.0137 129.646 46.4809 129.935C46.9035 130.195 47.5338 130.165 47.8897 129.795C48.0305 129.654 48.1344 129.483 48.2011 129.298C48.2901 129.053 48.2678 128.616 48.1121 128.401L48.1269 128.393Z" fill="#EDC142"/>
<path d="M50.5319 129.701C50.5319 129.701 50.5097 129.642 50.5023 129.612C50.48 129.553 50.4578 129.501 50.4355 129.441C50.4652 129.53 50.5023 129.612 50.5319 129.701Z" fill="#EDC142"/>
<path d="M52.2611 128.335C52.2166 128.224 52.1573 128.12 52.0906 128.024C52.009 127.905 51.9348 127.786 51.8384 127.682C51.705 127.534 51.5419 127.445 51.3713 127.401C51.1711 127.267 50.9413 127.156 50.7114 127.089C50.2962 126.978 49.8661 127.156 49.6881 127.549C49.5102 127.935 49.6437 128.394 50.007 128.624C50.0144 128.624 50.0218 128.639 50.0292 128.639C50.0515 128.661 50.0663 128.683 50.0885 128.706C50.1034 128.765 50.133 128.824 50.1627 128.876C50.1627 128.884 50.1775 128.891 50.1849 128.906C50.2739 129.032 50.3481 129.173 50.4074 129.321C50.437 129.418 50.4741 129.507 50.5112 129.603C50.5631 129.736 50.615 129.862 50.7262 129.966C50.83 130.07 50.9487 130.144 51.0821 130.196C51.0896 130.203 51.1044 130.218 51.1118 130.226C51.1118 130.226 51.1118 130.226 51.1118 130.233C51.1785 130.381 51.3565 130.396 51.4825 130.344C51.4825 130.344 51.4899 130.344 51.4974 130.344C51.6234 130.33 51.7421 130.27 51.8459 130.189C52.2537 130.011 52.4909 129.603 52.4761 129.151C52.4761 129.01 52.4687 128.869 52.4242 128.735C52.3797 128.594 52.3278 128.461 52.2685 128.328L52.2611 128.335Z" fill="#EDC142"/>
<path d="M53.9458 135.53C53.8569 135.448 53.753 135.366 53.6567 135.292C53.3452 135.025 52.93 134.884 52.5296 134.877C52.4925 134.862 52.4629 134.855 52.4258 134.847C52.3665 134.825 52.3072 134.803 52.2478 134.788C52.2182 134.766 52.1885 134.744 52.1514 134.721C51.8178 134.499 51.3951 134.44 51.0022 134.506C50.8168 134.521 50.6314 134.566 50.4609 134.655C50.2458 134.773 50.0679 134.936 49.9344 135.144C49.8677 135.255 49.8158 135.366 49.7787 135.485C49.7639 135.53 49.7342 135.567 49.7194 135.611C49.6452 135.819 49.6304 136.034 49.6675 136.249C49.6675 136.471 49.7268 136.679 49.838 136.879C49.8454 136.901 49.8603 136.924 49.8677 136.946C49.8973 137.013 49.927 137.072 49.9641 137.139C50.105 137.391 50.2755 137.635 50.4831 137.843C50.5424 137.91 50.6166 137.969 50.6907 138.021C50.7575 138.08 50.8316 138.14 50.9058 138.191C51.0615 138.28 51.232 138.347 51.3951 138.421C51.4545 138.451 51.5138 138.473 51.5805 138.488C51.84 138.555 52.1218 138.614 52.3887 138.607C52.6482 138.629 52.8929 138.584 53.1228 138.473C53.3601 138.407 53.5751 138.28 53.753 138.103C53.8569 137.976 53.9532 137.858 54.0571 137.732C54.0571 137.732 54.0571 137.717 54.0645 137.71C54.0867 137.672 54.1238 137.65 54.146 137.613C54.2276 137.48 54.2869 137.346 54.3314 137.198C54.5019 136.657 54.3833 135.937 53.9532 135.537L53.9458 135.53Z" fill="#EDC142"/>
<path d="M59.7128 135.782C59.5867 135.545 59.4088 135.359 59.1789 135.219C59.1047 135.182 59.0232 135.144 58.949 135.1C58.7637 134.996 58.5857 134.878 58.3855 134.818C58.2372 134.774 58.0889 134.722 57.948 134.662C57.8961 134.64 57.8442 134.618 57.7997 134.596L57.4364 134.529C57.4364 134.529 57.3771 134.529 57.3548 134.529C56.9767 134.455 56.5763 134.544 56.2871 134.811C55.9683 135.107 55.8719 135.523 55.946 135.945C55.9534 135.99 55.9683 136.034 55.9757 136.079C55.9905 136.264 56.035 136.449 56.124 136.62C56.1981 136.724 56.2723 136.828 56.3464 136.931C56.3761 136.976 56.4132 137.02 56.4502 137.057C56.5244 137.139 56.5985 137.221 56.6801 137.302C56.7172 137.339 56.7542 137.369 56.7987 137.406C57.0805 137.643 57.1472 137.717 57.5031 137.843C57.5254 137.851 57.5551 137.858 57.5773 137.866C57.6885 137.903 57.8072 137.932 57.9258 137.947C58.1186 138.014 58.3188 138.036 58.519 137.999C58.7266 137.999 58.9194 137.947 59.1047 137.836C59.2086 137.762 59.3198 137.68 59.4236 137.606C59.5719 137.473 59.6831 137.317 59.7498 137.132C59.824 137.02 59.8611 136.894 59.8685 136.761C59.9204 136.561 59.9204 136.36 59.8685 136.16C59.824 136.034 59.7721 135.908 59.7276 135.775L59.7128 135.782Z" fill="#EDC142"/>
<path d="M164.439 109.837C164.336 109.518 164.195 109.259 163.928 109.036C163.676 108.829 163.394 108.717 163.06 108.695C162.779 108.673 162.46 108.754 162.208 108.888C162.178 108.903 162.148 108.932 162.119 108.947C161.948 109.029 161.778 109.14 161.652 109.259C161.6 109.31 161.548 109.362 161.496 109.414C161.429 109.474 161.362 109.526 161.296 109.577C161.118 109.689 160.932 109.807 160.784 109.948C160.71 110.022 160.621 110.089 160.539 110.156C160.502 110.178 160.465 110.208 160.421 110.23C160.146 110.393 159.968 110.601 159.813 110.868C159.679 111.097 159.627 111.335 159.65 111.602C159.672 111.839 159.761 112.143 159.954 112.299C160.183 112.491 160.354 112.64 160.643 112.744C160.836 112.818 161.058 112.81 161.266 112.803C161.607 112.781 161.956 112.751 162.289 112.669C162.756 112.551 163.149 112.247 163.52 111.95C163.883 111.661 164.224 111.283 164.351 110.831C164.484 110.512 164.551 110.171 164.439 109.837Z" fill="#E2A33E"/>
<path d="M167.476 102.798C167.447 102.746 167.41 102.709 167.373 102.665C167.246 102.494 167.128 102.338 166.928 102.212C166.794 102.131 166.676 102.079 166.535 102.042C166.423 102.012 166.305 101.997 166.186 101.975C165.934 101.931 165.682 101.931 165.437 102.012C165.252 102.079 165.059 102.146 164.881 102.227C164.533 102.383 164.303 102.679 164.08 102.976C163.999 103.087 163.925 103.206 163.865 103.332C163.813 103.436 163.769 103.54 163.717 103.651C163.658 103.829 163.643 103.999 163.673 104.177C163.702 104.466 163.806 104.778 164.021 104.985C164.192 105.149 164.384 105.275 164.607 105.349C164.918 105.46 165.378 105.416 165.66 105.245C165.712 105.215 165.764 105.193 165.815 105.171C165.83 105.171 165.852 105.163 165.867 105.156C166.105 105.097 166.275 104.993 166.483 104.897C166.868 104.719 167.217 104.407 167.417 104.022C167.499 103.903 167.543 103.769 167.565 103.636C167.61 103.569 167.625 103.495 167.602 103.414C167.602 103.48 167.602 103.428 167.588 103.258C167.588 103.087 167.543 102.932 167.454 102.783L167.476 102.798Z" fill="#E2A33E"/>
<path d="M172.496 103.153C172.488 103.101 172.473 103.056 172.459 103.005C172.444 102.953 172.429 102.901 172.414 102.856C172.362 102.708 172.31 102.619 172.221 102.53C172.214 102.486 172.199 102.441 172.192 102.397C172.132 102.174 171.843 102.13 171.717 102.315C171.702 102.337 171.687 102.352 171.673 102.374C171.598 102.389 171.524 102.419 171.45 102.456C171.421 102.471 171.391 102.486 171.361 102.5C171.309 102.5 171.257 102.5 171.198 102.508C171.035 102.545 170.968 102.589 170.85 102.649C170.798 102.678 170.746 102.701 170.686 102.73C170.449 102.849 170.301 103.027 170.115 103.19C169.826 103.435 169.611 103.724 169.374 104.013C169.433 103.939 169.493 103.865 169.552 103.798C169.411 103.961 169.285 104.102 169.218 104.317C169.196 104.376 169.196 104.443 169.189 104.51C169.026 104.821 169.137 105.199 169.463 105.362C169.663 105.57 169.938 105.696 170.227 105.704C170.308 105.704 170.382 105.704 170.464 105.696C170.612 105.681 170.753 105.681 170.894 105.644C171.028 105.607 171.154 105.548 171.28 105.496C171.465 105.422 171.598 105.34 171.762 105.199C171.962 105.029 172.199 104.806 172.333 104.584C172.57 104.184 172.703 103.583 172.503 103.145L172.496 103.153Z" fill="#E2A33E"/>
<path d="M158.075 39.4001C157.63 37.5835 156.051 36.5677 154.546 35.6556C153.471 35.0031 152.351 34.4248 151.217 33.8687C150.03 33.2829 148.837 32.6971 147.643 32.1188C146.011 31.318 144.299 30.7248 142.519 31.4218C141.548 31.7999 140.932 32.6675 141.199 33.7426C141.963 36.8123 145.381 37.9616 147.88 39.326C148.948 39.9043 150.015 40.5049 151.039 41.1648C151.513 41.4688 151.98 41.7951 152.433 42.1362C153.278 42.759 154.197 43.0482 155.235 43.1075C157.193 43.2262 158.491 41.15 158.061 39.4001H158.075Z" fill="#FCE96B"/>
<path d="M164.151 47.4457C164.136 47.3271 164.121 47.1788 164.099 47.0527C164.054 46.8525 163.921 46.6078 163.832 46.4224C163.676 46.0888 163.506 45.7848 163.239 45.5104C163.113 45.3844 162.979 45.2657 162.838 45.1471C162.772 45.0952 162.712 45.0433 162.646 44.9914C162.482 44.8653 162.312 44.6948 162.134 44.5984C161.919 44.4723 161.696 44.4056 161.459 44.3611C161.496 44.3611 161.541 44.3685 161.578 44.376C161.496 44.3611 161.422 44.3241 161.341 44.2944C160.985 44.1758 160.584 44.1609 160.221 44.2647C160.154 44.2721 160.087 44.2721 160.021 44.2944C159.754 44.3685 159.524 44.502 159.331 44.6948C159.086 44.9395 158.953 45.2435 158.909 45.5697C158.797 45.9331 158.82 46.326 158.916 46.6968C158.931 46.7413 158.938 46.7858 158.946 46.8228C158.99 47.0601 159.057 47.2751 159.19 47.5347C159.22 47.594 159.25 47.6459 159.279 47.7052C159.339 47.8164 159.39 47.9277 159.442 48.0389C159.465 48.0908 159.487 48.1427 159.517 48.1946C159.628 48.4467 159.709 48.5208 159.947 48.8026C159.947 48.8026 159.947 48.81 159.954 48.8174C160.08 48.9954 160.199 49.1733 160.369 49.3068C160.762 49.6108 160.896 49.7665 161.385 49.9C161.608 49.9593 161.8 49.9816 161.993 49.9816C162.023 49.9816 162.052 49.9816 162.075 49.9816C162.416 49.9667 162.809 49.9 163.098 49.7072C163.38 49.5218 163.661 49.2772 163.825 48.9731C163.832 48.9583 163.839 48.9361 163.847 48.9212C163.958 48.7433 164.04 48.5579 164.099 48.3651C164.203 48.0092 164.188 47.7794 164.143 47.4457H164.151Z" fill="#FCE96B"/>
<path d="M63.1079 27.5123C62.7594 27.1119 62.2997 26.8375 61.877 26.5113C62.0179 26.6225 62.1662 26.7337 62.3071 26.8449C62.0328 26.6299 61.7807 26.4149 61.4692 26.2666C61.2987 26.185 61.0985 26.0812 60.9205 26.0293C60.75 25.9848 60.4979 25.9626 60.3199 25.9552C60.0233 25.9403 59.749 26.0071 59.4895 26.1257C59.2225 26.1999 58.9704 26.3259 58.7925 26.5261C58.5181 26.8301 58.266 27.2602 58.3105 27.6828C58.2512 28.1574 58.3328 28.6542 58.5775 29.0694C58.6961 29.277 58.9408 29.5662 59.1336 29.759C59.3115 29.9443 59.6229 30.1371 59.8602 30.3077C59.964 30.3818 60.0752 30.456 60.1791 30.5301C60.6388 30.8415 61.2764 31.0269 61.8326 31.0417C62.4109 31.0566 62.9819 31.0047 63.4267 30.6191C63.575 30.5079 63.7011 30.3818 63.7975 30.2261C63.9087 30.0333 63.9532 29.8331 63.9606 29.6329C64.0644 28.8618 63.5899 28.0758 63.1005 27.5123H63.1079Z" fill="#EDC142"/>
<path d="M68.7172 24.4157C68.6949 24.3638 68.6801 24.3119 68.6653 24.2674C68.606 23.9189 68.4799 23.5704 68.3242 23.2961C68.302 23.2516 68.2723 23.2071 68.2501 23.1552C68.1907 23.0291 68.1462 22.9698 68.0424 22.8363C67.998 22.777 67.946 22.7177 67.8941 22.6584C67.8645 22.6213 67.8422 22.5842 67.8126 22.5472C67.5753 22.1764 67.2342 21.8502 66.8116 21.7019C66.7226 21.65 66.6262 21.6055 66.5076 21.5758C66.3815 21.5388 66.2406 21.5165 66.1072 21.5165C65.8551 21.4646 65.5881 21.5388 65.3731 21.6871C65.3879 21.6722 65.4028 21.6648 65.425 21.65C65.121 21.776 64.8837 22.0133 64.7132 22.2951C64.6539 22.3915 64.6094 22.5027 64.5649 22.6139C64.513 22.7251 64.4685 22.8363 64.4388 22.9402C64.3424 23.2442 64.3573 23.6446 64.4537 23.956C64.4759 24.0301 64.5056 24.0969 64.5278 24.1636C64.6909 24.5788 64.8689 25.0608 65.2026 25.3796C65.2619 25.4389 65.3286 25.4909 65.3879 25.5428C65.5288 25.654 65.7068 25.8245 65.8328 25.8838C65.9885 25.9654 66.1665 26.0247 66.3222 26.0915C66.3889 26.1137 66.4557 26.1434 66.5224 26.1656C66.6633 26.2101 66.8931 26.2397 67.0414 26.2397C67.0637 26.2397 67.0859 26.2323 67.1008 26.2323C67.1749 26.2323 67.2491 26.2397 67.3158 26.2472C67.7607 26.2694 68.1759 26.0247 68.4354 25.6836C68.6949 25.35 68.8432 24.8532 68.6875 24.4379L68.7172 24.4157Z" fill="#EDC142"/>
<path d="M134.052 14.9478C133.8 14.8218 133.555 14.7402 133.273 14.7402C132.74 14.7402 132.206 15.0294 131.946 15.504C131.679 15.9785 131.598 16.5198 131.435 17.0314C131.353 17.2835 131.249 17.5208 131.212 17.7877C131.175 18.0398 131.175 18.2919 131.145 18.5515C131.123 18.7517 131.219 19.026 131.316 19.1965C131.457 19.4338 131.672 19.6118 131.924 19.7156C132.413 19.9232 132.925 19.7971 133.318 19.4486C133.518 19.2781 133.703 19.1076 133.867 18.8999C134.03 18.6849 134.133 18.4402 134.245 18.1881C134.504 17.5949 134.816 16.9498 134.808 16.2825C134.801 15.7635 134.526 15.2 134.045 14.9553L134.052 14.9478Z" fill="#EDC142"/>
<path d="M139.877 16.7352C139.758 16.6463 139.639 16.5573 139.521 16.4609C139.321 16.3348 139.106 16.2681 138.876 16.2533C138.483 16.2014 138.119 16.2681 137.763 16.4609C137.274 16.7204 136.992 17.2024 136.851 17.7214C136.822 17.8401 136.777 17.9513 136.733 18.0625L136.777 17.9661C136.74 18.0625 136.703 18.1663 136.681 18.2775C136.659 18.3591 136.636 18.4407 136.614 18.5222C136.584 18.626 136.547 18.7298 136.518 18.8336C136.518 18.8336 136.518 18.8336 136.518 18.8411C136.347 19.1376 136.251 19.4639 136.28 19.7901C136.258 20.0274 136.295 20.2869 136.421 20.4797C136.584 20.7318 136.8 20.8801 137.081 20.9913C137.089 20.9913 137.104 20.9913 137.111 20.9988C137.689 21.3028 138.349 21.1026 138.883 20.7837C139.157 20.6206 139.439 20.4278 139.639 20.1831C139.951 19.7976 140.24 19.4194 140.344 18.9226C140.396 18.6705 140.425 18.411 140.448 18.1589C140.492 17.6621 140.277 17.0541 139.884 16.7278L139.877 16.7352Z" fill="#EDC142"/>
<path d="M181.758 115.419C181.654 115.256 181.528 115.107 181.402 114.959C181.32 114.892 181.239 114.833 181.15 114.766C181.009 114.677 180.853 114.625 180.69 114.618C180.438 114.581 180.119 114.61 179.904 114.766C179.86 114.796 179.815 114.825 179.763 114.855C179.741 114.87 179.711 114.885 179.682 114.9C179.437 115.048 179.281 115.256 179.111 115.478L179.348 115.167C179.229 115.322 179.089 115.463 178.955 115.611C178.896 115.686 178.829 115.76 178.755 115.827C178.658 115.923 178.569 116.034 178.488 116.145C178.414 116.234 178.34 116.331 178.251 116.412C177.991 116.664 177.776 116.968 177.68 117.317C177.635 117.458 177.606 117.717 177.613 117.866C177.613 117.895 177.613 117.917 177.613 117.947C177.628 118.325 177.739 118.666 177.976 118.97C178.206 119.267 178.488 119.46 178.851 119.571C178.881 119.578 178.918 119.593 178.948 119.601C179.318 119.697 179.393 119.675 179.711 119.63C179.882 119.63 180.038 119.586 180.178 119.504C180.334 119.46 180.475 119.378 180.586 119.267C180.742 119.148 180.883 119.03 181.016 118.881C181.194 118.689 181.357 118.466 181.513 118.259C181.669 118.044 181.758 117.784 181.839 117.532C181.951 117.183 182.01 116.813 181.988 116.442C181.965 116.093 181.936 115.715 181.743 115.419H181.758Z" fill="#EDC142"/>
<path d="M180.414 122.253C180.414 122.253 180.399 122.231 180.392 122.224C180.266 122.068 180.029 121.986 179.843 121.964C179.65 121.934 179.428 121.964 179.25 122.068C179.094 122.127 178.953 122.216 178.835 122.335C178.79 122.379 178.753 122.431 178.709 122.476C178.672 122.52 178.627 122.557 178.583 122.602C178.449 122.728 178.345 122.869 178.227 123.017L178.449 122.728C178.368 122.824 178.286 122.921 178.204 123.01C178.027 123.187 177.886 123.38 177.73 123.58C177.811 123.477 177.893 123.365 177.975 123.262C177.797 123.484 177.582 123.677 177.396 123.892C177.352 123.944 177.307 123.988 177.263 124.033C177.055 124.263 176.914 124.507 176.825 124.811C176.766 125.019 176.722 125.219 176.729 125.427C176.729 125.456 176.722 125.479 176.714 125.501C176.699 125.538 176.677 125.582 176.67 125.605C176.61 125.716 176.618 125.864 176.714 125.953C176.781 126.013 176.848 126.064 176.922 126.116C176.959 126.153 177.011 126.198 177.055 126.228C177.226 126.405 177.448 126.539 177.685 126.613C177.826 126.658 178.019 126.665 178.182 126.68C178.568 126.717 178.939 126.591 179.272 126.398C179.762 126.101 180.08 125.716 180.407 125.256C180.644 124.923 180.77 124.522 180.844 124.122C180.948 123.536 180.911 122.676 180.414 122.261V122.253Z" fill="#EDC142"/>
<path d="M174.634 120.526C174.634 120.467 174.634 120.415 174.627 120.356C174.597 119.926 174.553 119.458 174.189 119.169L174.226 119.221C174.108 119.08 173.982 118.969 173.782 118.91C173.782 118.91 173.767 118.91 173.759 118.91C173.5 118.813 173.218 118.813 172.944 118.873C172.892 118.88 172.847 118.895 172.795 118.91C172.692 118.932 172.595 118.947 172.491 118.962C172.536 118.962 172.58 118.947 172.625 118.947C172.373 118.984 172.165 119.036 171.935 119.177C171.869 119.214 171.809 119.258 171.742 119.295C171.49 119.451 171.238 119.555 171.031 119.792C170.979 119.851 170.927 119.911 170.882 119.97C170.653 120.23 170.467 120.482 170.386 120.83C170.282 121.305 170.297 121.824 170.571 122.239C170.593 122.276 170.823 122.573 170.86 122.61C171.023 122.788 171.223 122.914 171.446 122.988C171.661 123.099 171.898 123.158 172.15 123.144C172.543 123.144 172.884 123.018 173.225 122.84C173.426 122.736 173.618 122.61 173.774 122.439C173.922 122.276 174.048 122.091 174.167 121.913C174.293 121.727 174.382 121.549 174.471 121.342C174.575 121.097 174.619 120.904 174.619 120.623C174.619 120.593 174.619 120.556 174.619 120.526H174.634Z" fill="#EDC142"/>
<path d="M172.144 128.072C172.047 127.954 171.958 127.828 171.862 127.702C171.699 127.524 171.506 127.398 171.276 127.324C171.135 127.242 170.98 127.198 170.816 127.198C170.572 127.146 170.334 127.153 170.09 127.227C169.993 127.249 169.904 127.287 169.823 127.324C169.459 127.442 169.296 127.553 169.029 127.776C168.762 127.961 168.688 128.035 168.503 128.221C168.08 128.651 167.695 129.318 167.724 129.941C167.724 129.985 167.71 130.03 167.702 130.082C167.702 130.438 167.791 130.764 167.969 131.068C168.14 131.365 168.377 131.595 168.673 131.772C168.881 131.899 169.111 131.958 169.348 131.995C169.415 132.01 169.474 132.025 169.541 132.032C169.867 132.076 170.06 132.114 170.423 131.987C170.653 131.906 170.898 131.824 171.091 131.706C171.291 131.587 171.484 131.424 171.647 131.246C171.669 131.224 171.691 131.202 171.714 131.172C172.084 130.742 172.084 130.697 172.292 130.163C172.403 129.882 172.47 129.593 172.462 129.281C172.462 128.918 172.329 128.362 172.129 128.05L172.144 128.072Z" fill="#EDC142"/>
<path d="M262.107 150.339L266.85 154.098L259.497 156.345L261.128 150.93L262.107 150.339Z" fill="#5E2E1D"/>
<path d="M260.987 151.872C255.502 153.546 249.861 150.94 248.367 146.051L231.931 92.1469C230.966 88.9883 231.969 85.6594 234.281 83.2527C235.543 81.9145 237.198 80.8743 239.151 80.2738C244.636 78.5999 250.277 81.2053 251.771 86.0945L268.207 139.999C269.517 144.297 267.181 148.931 262.86 151.115C262.269 151.404 261.649 151.664 260.982 151.867L260.987 151.872Z" fill="#5E2E1D"/>
<path d="M262.867 151.12C258.025 151.697 253.391 148.954 251.996 144.382L234.591 87.305C234.175 85.9527 234.08 84.572 234.284 83.2527C235.546 81.9146 237.201 80.8743 239.154 80.2738C244.639 78.6 250.28 81.2053 251.774 86.0945L268.21 139.999C269.52 144.297 267.184 148.931 262.862 151.115L262.867 151.12Z" fill="#7C3B24"/>
<path d="M251.578 85.4567C250.088 80.5713 244.439 77.9653 238.96 79.6362C233.481 81.3071 230.247 86.6221 231.737 91.5076C233.227 96.3931 238.876 98.999 244.355 97.3281C249.834 95.6572 253.068 90.3422 251.578 85.4567Z" fill="#9F4931"/>
<path d="M244.183 81.3111C244.85 81.1078 245.535 81.4246 245.72 82.0157C245.904 82.6067 245.54 82.9897 244.873 83.1931C244.207 83.3964 243.696 83.2829 243.512 82.6918C243.327 82.1008 243.516 81.5145 244.183 81.3111Z" fill="#D28972"/>
<path d="M240.537 93.4772C240.996 93.34 241.469 93.6332 241.592 94.0399C241.715 94.4465 241.639 94.9099 241.185 95.0517C240.731 95.1936 240.126 95.099 240.003 94.6924C239.88 94.2857 240.079 93.6143 240.537 93.4772Z" fill="#D28972"/>
<path d="M237.264 81.2603C237.496 81.1894 237.728 81.2981 237.789 81.5015C237.851 81.7048 237.737 81.998 237.51 82.0642C237.283 82.1304 237.023 81.9554 236.962 81.7521C236.9 81.5488 237.037 81.3265 237.264 81.2603Z" fill="#D28972"/>
<path d="M235.89 88.6342C235.766 88.228 235.297 88.0113 234.841 88.1503C234.385 88.2892 234.116 88.7312 234.24 89.1375C234.364 89.5437 234.834 89.7604 235.289 89.6214C235.745 89.4824 236.014 89.0404 235.89 88.6342Z" fill="#D28972"/>
<path d="M244.644 88.527C245.33 88.3142 246.091 88.8297 246.275 89.4396C246.46 90.0496 246.029 90.6312 245.348 90.8392C244.668 91.0473 244.105 90.7021 243.916 90.0874C243.731 89.4775 243.963 88.7351 244.644 88.527Z" fill="#D28972"/>
<path d="M249.967 86.3036C250.421 86.1618 250.894 86.3793 251.017 86.7859C251.14 87.1926 250.87 87.6323 250.416 87.7742C249.962 87.916 249.249 87.7694 249.126 87.3628C249.003 86.9561 249.509 86.4407 249.967 86.3036Z" fill="#D28972"/>
<path d="M248.633 84.492C248.907 84.4069 249.333 84.6434 249.408 84.8892C249.484 85.1351 249.115 85.4661 248.836 85.5465C248.557 85.6269 248.278 85.4992 248.203 85.2533C248.127 85.0074 248.354 84.5724 248.623 84.492L248.633 84.492Z" fill="#D28972"/>
<path d="M237.703 85.6706C238.616 85.3916 239.765 85.7652 240.011 86.5784C240.256 87.3917 239.547 88.5644 238.635 88.8434C237.722 89.1223 236.743 88.4651 236.497 87.6518C236.251 86.8385 236.79 85.9496 237.703 85.6706Z" fill="#D28972"/>
<path d="M236.187 92.5218C237.1 92.2428 237.833 92.5407 238.079 93.354C238.325 94.1673 238.391 95.3304 237.478 95.6094C236.566 95.8884 235.232 95.3115 234.982 94.503C234.731 93.6944 235.275 92.8007 236.187 92.5218Z" fill="#D28972"/>
<path d="M262.917 131.658L253.702 101.429C253.541 100.899 252.931 100.62 252.335 100.8C251.739 100.98 251.39 101.557 251.555 102.081L260.771 132.31C260.932 132.84 261.541 133.119 262.137 132.939C262.733 132.76 263.083 132.183 262.917 131.658Z" fill="#964532"/>
<path d="M264.096 134.973C263.911 134.365 263.208 134.041 262.526 134.249C261.845 134.457 261.442 135.118 261.627 135.726C261.813 136.334 262.516 136.658 263.197 136.45C263.879 136.242 264.282 135.581 264.096 134.973Z" fill="#964532"/>
<path d="M317.038 71.0721C310.441 68.9276 303.388 72.627 301.366 79.2805L277.832 156.734C275.809 163.394 279.553 170.596 286.144 172.738C292.741 174.883 299.794 171.184 301.816 164.53L325.35 87.076C327.373 80.4168 323.628 73.2148 317.038 71.0721Z" fill="#E4C362"/>
<path d="M325.299 86.806L301.427 164.495C299.432 170.978 292.624 174.671 286.088 172.902L316.3 70.5917C316.481 70.6413 316.672 70.7005 316.864 70.7597C323.555 72.9165 327.355 80.1402 325.297 86.8118L325.299 86.806Z" fill="#F4C95D"/>
<path d="M317.211 89.5178L307.198 86.3386C305.988 85.9544 304.726 86.6191 304.379 87.8247C304.032 89.0303 304.734 90.3186 305.943 90.7028L315.956 93.882C317.166 94.2662 318.428 93.6015 318.775 92.3959C319.122 91.1902 318.42 89.9019 317.211 89.5178Z" fill="#E5AB5E"/>
<path d="M313.137 102.756L303.125 99.5768C301.915 99.1927 300.652 99.8574 300.306 101.063C299.959 102.269 300.66 103.557 301.87 103.941L311.883 107.12C313.092 107.504 314.355 106.84 314.702 105.634C315.048 104.429 314.347 103.14 313.137 102.756Z" fill="#E5AB5E"/>
<path d="M309.064 115.992L299.051 112.813C297.841 112.429 296.579 113.094 296.232 114.299C295.885 115.505 296.587 116.793 297.796 117.177L307.809 120.357C309.019 120.741 310.281 120.076 310.628 118.87C310.975 117.665 310.273 116.377 309.064 115.992Z" fill="#E5AB5E"/>
<path d="M304.99 129.235L294.978 126.055C293.768 125.671 292.505 126.336 292.159 127.541C291.812 128.747 292.513 130.035 293.723 130.42L303.736 133.599C304.945 133.983 306.208 133.318 306.555 132.113C306.901 130.907 306.2 129.619 304.99 129.235Z" fill="#E5AB5E"/>
<path d="M300.917 142.469L290.904 139.29C289.694 138.906 288.432 139.57 288.085 140.776C287.738 141.981 288.44 143.27 289.649 143.654L299.662 146.833C300.872 147.217 302.134 146.553 302.481 145.347C302.828 144.141 302.126 142.853 300.917 142.469Z" fill="#E5AB5E"/>
<path d="M276.594 102.584L281.722 111.711H270.772L276.594 102.584Z" fill="#98B9E0"/>
<path d="M281.722 111.713H270.772V150.632H281.722V111.713Z" fill="#91AFCE"/>
<path d="M276.59 102.584H301.578L305.652 111.711H281.719L276.59 102.584Z" fill="#B4D5EF"/>
<path d="M305.651 111.713H281.723V150.632H305.651V111.713Z" fill="#A6C6E0"/>
<path d="M301.582 98.2832H276.59V102.585H301.582V98.2832Z" fill="#91AFCE"/>
<path d="M302.89 119.166H286.726V122.205H302.89V119.166Z" fill="#DBDCDD"/>
<path d="M302.89 123.07H286.726V124.875H302.89V123.07Z" fill="#DBDCDD"/>
<path d="M298.239 147.484H289.136V148.501H298.239V147.484Z" fill="#DBDCDD"/>
<path d="M270.772 111.713L277.035 116.348V150.632H281.722V111.713H270.772Z" fill="#8CA9C4"/>
<path d="M223.963 107.303L223.968 107.312L222.74 108.265L222.734 108.257C215.307 113.714 208.259 97.7464 205.069 94.473C202.245 91.5779 202.863 83.9838 203.068 82.0998C203.087 81.9868 203.089 81.8976 203.101 81.8336L203.206 81.7528C203.27 81.7614 203.36 81.7787 203.475 81.7854C205.349 82.0512 212.858 83.3266 214.965 86.7875C217.351 90.6881 231.092 101.449 223.97 107.304L223.963 107.303Z" fill="#9AAF41"/>
<path d="M214.6 96.0444L213.818 95.0653L215.023 86.7824L213.372 94.4986L203.22 81.7309L203.114 81.812L213.023 94.8061L205.148 94.4932L213.461 95.3788L214.2 96.3417L206.367 96.033L214.71 97.0183L228.678 115.327L229.454 114.723L215.129 96.7089L216.241 88.3729L214.6 96.0444Z" fill="#5B3854"/>
<path d="M222.625 108.927L222.631 108.936L221.632 110.11L221.627 110.101C215.484 116.932 205.131 102.99 201.291 100.497C197.891 98.2884 196.875 90.8252 196.677 88.9683C196.669 88.8542 196.655 88.7697 196.651 88.703L196.738 88.6032C196.805 88.5968 196.895 88.5948 197.011 88.5823C198.911 88.4451 206.577 88.1035 209.382 91.0054C212.561 94.2713 228.388 101.786 222.633 108.928L222.625 108.927Z" fill="#B0CB4A"/>
<path d="M211.003 100.041L210.028 99.2602L209.429 91.0115L209.465 98.8084L196.735 88.6023L196.653 88.6995L209.189 99.1758L201.374 100.524L209.738 99.6366L210.671 100.413L202.9 101.759L211.32 100.96L228.984 115.717L229.617 114.975L211.666 100.579L210.971 92.2918L211.003 100.041Z" fill="#5B3854"/>
<path d="M252.525 115.18L252.536 115.198C248.781 112.279 240.87 112.587 237.98 112.813C237.914 112.669 237.831 112.529 237.722 112.407L236.931 111.5C236.254 110.719 235.041 110.659 234.224 111.364L225.207 119.154C224.39 119.859 224.28 121.064 224.957 121.845L225.748 122.752C225.748 122.752 225.779 122.782 225.798 122.801C225.323 124.722 223.383 133.419 225.824 137.994C225.824 137.994 227.493 141.52 231.06 142.337C234.093 143.514 239.815 144.116 250.004 140.541L250.899 140.222L250.936 140.26L250.971 140.194L251.043 140.166L251.015 140.122L251.454 139.289C256.699 129.275 256.682 123.456 255.82 120.397C255.82 120.397 254.774 116.218 252.53 115.177L252.525 115.18Z" fill="#CC6C98"/>
<path d="M246.858 115.927L239.486 114.912C238.467 114.772 237.49 115.482 237.303 116.498C237.115 117.515 237.788 118.451 238.807 118.591L246.179 119.606C247.198 119.745 248.175 119.036 248.363 118.019C248.55 117.003 247.877 116.067 246.858 115.927Z" fill="#E085B2"/>
<path d="M252.278 120.969C253.094 120.439 253.351 119.372 252.852 118.587C252.353 117.802 251.286 117.595 250.47 118.126C249.654 118.656 249.397 119.722 249.896 120.508C250.395 121.293 251.462 121.499 252.278 120.969Z" fill="#E085B2"/>
<path d="M254.086 145.304L253.411 144.778C253.766 144.34 253.888 143.752 253.72 143.275C253.531 142.742 253.023 142.386 252.25 142.25C251.661 142.147 251.211 141.853 250.951 141.404C250.422 140.482 250.873 139.201 250.89 139.146L251.716 139.405C251.624 139.672 251.441 140.47 251.716 140.953C251.852 141.186 252.087 141.33 252.433 141.389C253.506 141.575 254.253 142.131 254.541 142.951C254.812 143.714 254.635 144.615 254.076 145.298L254.086 145.304Z" fill="#CC6C98"/>
<path d="M240.208 107.513L232.084 99.9037L216.262 104.364L211.193 120.569L220.821 158.192L221.243 158.073L227.309 169.853L232.642 180.208L234.483 183.794L259.65 176.699C260.324 176.509 260.735 175.829 260.569 175.181L244.212 111.261L240.213 107.512L240.208 107.513Z" fill="#EAEBED"/>
<path d="M241.02 113.774L256.34 173.584L232.672 180.25L227.33 169.889L214.844 121.146L217.007 112.997L235.259 107.857L241.02 113.774Z" fill="#E4CB5B"/>
<path d="M230.083 95.2379L214.747 99.5332L215.845 103.798L231.181 99.5025L230.083 95.2379Z" fill="#C78459"/>
<path d="M218.332 121.413C217.794 121.562 217.468 122.093 217.601 122.601L220.74 134.63C220.872 135.139 221.413 135.43 221.951 135.281C222.489 135.132 222.815 134.601 222.683 134.093L219.544 122.064C219.411 121.555 218.87 121.264 218.332 121.413Z" fill="#EAEBED"/>
<path d="M222.967 138.916C223.559 138.748 223.921 138.146 223.775 137.572C223.629 136.998 223.03 136.668 222.438 136.836C221.846 137.004 221.485 137.606 221.631 138.18C221.777 138.755 222.375 139.084 222.967 138.916Z" fill="#EAEBED"/>
<path d="M247.475 124.138L229.234 129.418L237.983 164.521L256.224 159.241L247.475 124.138Z" fill="#C78459"/>
<path d="M248.232 129.897L236.912 133.064L237.286 134.515L248.606 131.347L248.232 129.897Z" fill="#EFB595"/>
<path d="M248.784 132.027L237.482 135.158L237.73 136.109L249.032 132.978L248.784 132.027Z" fill="#EFB595"/>
<path d="M247.386 140.331C248.313 139.427 249.479 138.736 250.808 138.352L250.644 137.693C249.326 138.075 248.162 138.727 247.2 139.581C246.057 140.596 245.188 141.874 244.713 143.266C244.232 144.66 244.135 146.176 244.505 147.66C244.813 148.896 245.418 149.975 246.225 150.844C246.336 150.963 246.448 151.088 246.568 151.2C247.658 152.226 249.058 152.918 250.591 153.191C251.821 153.41 253.132 153.351 254.45 152.97L254.286 152.311C252.957 152.696 251.632 152.721 250.405 152.446C249.282 152.19 248.247 151.686 247.391 150.968C247.259 150.859 247.127 150.745 247.004 150.623C246.14 149.782 245.504 148.717 245.192 147.466C244.855 146.114 244.945 144.73 245.392 143.46C245.792 142.296 246.474 141.225 247.389 140.341L247.386 140.331Z" fill="#EFB595"/>
<path d="M318.554 133.743L318.504 134.099L313.729 167.863C313.15 171.95 309.674 175.154 305.392 175.542L236.343 181.798C232.061 182.186 228.146 179.653 226.956 175.725L223.765 165.211L222.842 162.155L220.165 153.328L217.121 143.286L217.018 142.943L318.55 133.744L318.554 133.743Z" fill="#A83131"/>
<path d="M322.836 125.166L323.217 130.019C323.351 131.72 321.533 133.268 319.158 133.478L214.482 142.697C212.106 142.906 210.068 141.698 209.935 139.997L209.554 135.144C209.42 133.443 211.242 131.894 213.617 131.685L318.294 122.466C320.669 122.257 322.703 123.465 322.836 125.166Z" fill="#293A4C"/>
<path d="M271.245 125.071L269.05 94.5729C268.963 93.3707 267.917 92.4857 266.716 92.601L261.495 93.1025C260.294 93.2178 259.389 94.2859 259.476 95.4923L261.671 125.99C260.745 127.324 260.311 129.009 260.627 130.754C261.138 133.585 263.604 135.68 266.483 135.722C270.251 135.776 273.206 132.549 272.942 128.883C272.834 127.382 272.205 126.057 271.245 125.071Z" fill="#C76565"/>
<path d="M267.083 131.785C268.194 131.677 269.03 130.672 268.949 129.54C268.869 128.408 267.904 127.578 266.793 127.687C265.682 127.795 264.847 128.8 264.927 129.932C265.007 131.064 265.973 131.894 267.083 131.785Z" fill="#293A4C"/>
<path d="M37.2394 38.3164C36.8602 37.849 36.4723 37.3905 36.0931 36.9232C36.534 36.1648 36.9396 35.4065 37.3276 34.6305C37.4775 34.3307 37.2482 33.9251 36.9661 33.7399C36.6222 33.5283 36.2254 33.5195 35.8374 33.6782C35.2289 33.9163 34.6117 34.1544 34.0033 34.3925C33.4918 33.7664 32.9716 33.1491 32.4601 32.5231C32.2132 32.2233 31.79 32.0469 31.3491 32.1439C30.9699 32.2321 30.5731 32.5848 30.626 32.9375C30.7583 33.8281 30.8288 34.7187 30.8729 35.6181C30.2292 35.8739 29.5855 36.1208 28.9506 36.3765C28.1306 36.7027 28.3775 37.7785 29.1975 37.9549C29.7883 38.0783 30.3615 38.237 30.9258 38.4134C30.917 38.7749 30.8994 39.1365 30.8729 39.5068C30.8377 40.0006 30.7759 40.4856 30.82 40.9617C30.7759 41.1116 30.7318 41.2615 30.6878 41.4115C30.4056 42.3726 31.9046 42.8488 32.5571 42.064C33.1656 41.3233 33.7299 40.5649 34.2766 39.7978C35.3348 40.4062 36.7544 41.2351 37.7068 40.274C38.3681 39.6038 37.742 38.9072 37.257 38.3252L37.2394 38.3164Z" fill="#EDC142"/>
<path d="M205.809 114.999C205.7 114.407 205.58 113.819 205.471 113.227C206.221 112.773 206.941 112.301 207.653 111.806C207.928 111.615 207.921 111.149 207.762 110.851C207.562 110.501 207.218 110.303 206.801 110.256C206.153 110.174 205.497 110.087 204.849 110.004C204.7 109.21 204.54 108.419 204.391 107.624C204.318 107.243 204.031 106.885 203.597 106.759C203.222 106.654 202.705 106.774 202.582 107.109C202.272 107.954 201.907 108.769 201.514 109.58C200.827 109.496 200.144 109.404 199.464 109.324C198.588 109.218 198.289 110.28 198.924 110.828C199.384 111.219 199.811 111.633 200.221 112.059C200.04 112.372 199.852 112.681 199.651 112.993C199.383 113.409 199.097 113.806 198.907 114.245C198.797 114.355 198.686 114.465 198.576 114.576C197.867 115.284 198.955 116.421 199.904 116.044C200.793 115.686 201.651 115.291 202.499 114.879C203.136 115.921 203.985 117.328 205.281 116.941C206.183 116.67 205.967 115.759 205.82 115.015L205.809 114.999Z" fill="#EDC142"/>
<path d="M13.9968 140.634C13.9527 140.66 13.9086 140.696 13.8645 140.731C13.8645 140.731 13.8293 140.748 13.8116 140.748C13.7411 140.74 13.6441 140.713 13.5647 140.669C13.3972 140.572 13.2737 140.378 13.1944 140.166C13.0798 139.867 13.0357 139.549 12.9739 139.241C12.8858 138.817 12.7711 138.403 12.6918 137.98C12.6124 137.6 12.1627 137.371 11.8012 137.477C11.3867 137.592 11.2368 137.98 11.2986 138.368C11.2986 138.421 11.3162 138.473 11.3162 138.526C11.2897 138.588 11.2721 138.659 11.2721 138.738C11.2721 139.311 11.1398 139.84 10.7518 140.281C10.5049 140.563 10.1875 140.775 9.84361 140.898C9.5438 140.916 9.244 140.978 8.95301 141.11C8.28285 141.401 8.64438 142.468 9.31454 142.441C9.58789 142.433 9.86124 142.38 10.1258 142.3C10.549 142.371 10.9635 142.697 11.1839 143.006C11.6865 143.702 11.7924 144.637 11.9158 145.466C11.9863 145.854 12.4537 146.074 12.8152 145.977C13.2297 145.863 13.3884 145.475 13.3267 145.078C13.1062 143.87 13.7235 142.574 14.764 141.939C14.764 141.939 14.764 141.939 14.764 141.93C14.8169 141.895 14.8698 141.868 14.9227 141.824C15.5752 141.269 14.7287 140.193 14.0144 140.643L13.9968 140.634Z" fill="#FCE96B"/>
<path d="M9.34033 64.9647C9.20807 64.4533 8.72308 64.1358 8.22047 64.1094C8.17638 64.1094 8.13229 64.1094 8.0882 64.1094C7.85894 64.1094 7.58558 64.1711 7.39159 64.2945C7.28578 64.3651 7.17996 64.4533 7.08297 64.5326C6.97715 64.6208 6.86252 64.709 6.76552 64.806C6.57153 65 6.40399 65.2292 6.21882 65.4321C5.97192 65.6966 5.6633 65.9347 5.47812 66.2433C5.30176 66.5343 5.1695 66.8429 5.04605 67.1603C4.93142 67.4425 5.04605 67.7864 5.2224 68.0069C5.38994 68.2273 5.68975 68.4213 5.98074 68.386C6.18355 68.3684 6.38636 68.3596 6.58035 68.3067C6.71262 68.2714 6.83607 68.2273 6.95952 68.1832C7.08297 68.1391 7.22405 68.0862 7.32987 68.0157C7.43568 67.9451 7.53268 67.857 7.63849 67.7776C7.6914 67.7335 7.74431 67.6894 7.80603 67.6453C7.92066 67.5572 8.03529 67.4602 8.14111 67.3632C8.35274 67.178 8.56436 67.0016 8.75836 66.7988C8.9259 66.6225 9.05816 66.3932 9.19043 66.1904C9.42851 65.8112 9.44615 65.388 9.33152 64.9647H9.34033Z" fill="#222221"/>
<path d="M14.3197 65.9515C14.2757 65.7752 14.1963 65.6252 14.0817 65.493C13.9847 65.3431 13.8612 65.2284 13.7025 65.1491C13.3939 64.9815 13.0147 64.9022 12.6708 65.0168C12.3534 65.1226 12.0183 65.3254 11.8684 65.6341C11.8243 65.7222 11.7714 65.7928 11.7273 65.8721C11.6656 65.9427 11.6039 66.0044 11.5333 66.0661C11.5245 66.0661 11.5069 66.0838 11.498 66.0926C11.4451 66.119 11.401 66.1543 11.357 66.1984C11.26 66.2601 11.1806 66.3307 11.1277 66.4277C11.0571 66.5159 11.0307 66.5511 10.9866 66.6393C10.9337 66.7363 10.8808 66.8245 10.8102 66.9127C10.7573 66.992 10.7221 67.0714 10.6956 67.1596C10.6603 67.283 10.6515 67.4065 10.678 67.5211C10.7133 67.8033 10.8632 68.0325 11.1101 68.1912C11.2952 68.3059 11.498 68.3941 11.7097 68.447C11.789 68.4646 11.8684 68.4734 11.9566 68.491C12.1241 68.5263 12.3005 68.5175 12.468 68.4646C12.5738 68.4205 12.6708 68.3764 12.7766 68.3323C12.7943 68.3235 12.8119 68.3147 12.8383 68.3059C12.9177 68.2706 12.9883 68.2265 13.0588 68.1736C13.2792 68.0237 13.4997 67.8562 13.6849 67.6622C13.87 67.4594 14.0552 67.2389 14.1787 67.0008C14.3462 66.6834 14.4079 66.313 14.3109 65.9691L14.3197 65.9515Z" fill="#222221"/>
<path d="M8.90007 72.3704C8.90007 72.2557 8.87361 72.1499 8.81189 72.0529C8.75898 71.8942 8.6708 71.7619 8.54735 71.6473C8.38863 71.4974 8.19464 71.3916 7.99183 71.3211C7.82429 71.2681 7.65675 71.2593 7.48921 71.2946C7.32167 71.2946 7.16295 71.3563 7.02187 71.4445C6.80142 71.5503 6.60743 71.7796 6.43107 71.9471C6.2459 72.1235 6.06072 72.291 5.93727 72.5203C5.86673 72.6525 5.79619 72.7848 5.72564 72.9259C5.62865 73.1287 5.56692 73.2962 5.55811 73.5255C5.55811 73.552 5.55811 73.5784 5.55811 73.6049C5.55811 73.6666 5.55811 73.7283 5.55811 73.7901C5.55811 74.2486 5.95491 74.663 6.42225 74.6542C6.47516 74.6542 6.53689 74.6542 6.58979 74.6542C6.61625 74.6542 6.65152 74.6542 6.67797 74.6542C6.89842 74.6366 7.07477 74.5925 7.27758 74.4867C7.40985 74.4161 7.54212 74.3456 7.67439 74.275C7.90365 74.1516 8.07119 73.9664 8.24755 73.7812C8.41508 73.6049 8.64435 73.4021 8.75016 73.1904C8.79425 73.0934 8.83834 72.9876 8.87361 72.8906C8.92652 72.7231 8.93534 72.5555 8.90007 72.388V72.3704Z" fill="#222221"/>
<path d="M13.5736 72.0541C13.5207 71.8778 13.4237 71.719 13.3091 71.5779C13.2826 71.5339 13.2561 71.5074 13.2209 71.4721C13.1768 71.428 13.1327 71.3928 13.0798 71.3575C13.0445 71.3134 13.0181 71.2781 12.9828 71.2429C12.8682 71.1282 12.7183 71.1282 12.586 71.1988C12.1892 71.1547 11.7748 71.2781 11.5014 71.5779C11.4661 71.6132 11.422 71.6485 11.3868 71.6838C11.3779 71.6838 11.3603 71.7014 11.3515 71.7102C11.1663 71.8248 11.0164 71.9836 10.9018 72.1599C10.7783 72.3539 10.7783 72.4421 10.7519 72.6449C10.7519 72.6537 10.7519 72.6625 10.7519 72.6714C10.7519 72.6978 10.7431 72.7154 10.7254 72.7419C10.7254 72.7243 10.7342 72.7155 10.7431 72.6978C10.7431 72.7243 10.7431 72.7507 10.7342 72.7772C10.7254 72.8124 10.699 72.8477 10.699 72.8918C10.6725 73.0153 10.6813 73.1299 10.7166 73.2533C10.7872 73.4738 10.9194 73.6766 11.131 73.7912C11.184 73.8177 11.2457 73.8353 11.3074 73.8618C11.3074 73.8618 11.3162 73.8618 11.325 73.8618C11.422 73.9235 11.5279 73.9764 11.6425 74.0117C11.7042 74.0205 11.7659 74.0293 11.8277 74.0381C11.9952 74.0734 12.1627 74.0646 12.3303 74.0117C12.5684 73.9499 12.7183 73.8177 12.9034 73.6766C12.974 73.6237 13.0445 73.562 13.1062 73.4914C13.2385 73.3503 13.3531 73.2004 13.459 73.0505C13.5736 72.883 13.6441 72.6096 13.6353 72.4156C13.6353 72.3275 13.6089 72.1599 13.5824 72.0717L13.5736 72.0541Z" fill="#222221"/>
<path d="M27.5674 21.8841C27.5498 21.7959 27.5321 21.6372 27.4969 21.4608C27.4969 21.4079 27.4969 21.3286 27.4969 21.2139C27.3999 17.1224 23.3966 14.7152 19.7812 16.0819C19.746 16.0819 19.7107 16.0908 19.6843 16.0996C19.7283 16.0819 19.7636 16.0643 19.7989 16.0467C19.7107 16.0731 19.5873 16.1084 19.4374 16.126C19.5167 16.1172 19.5961 16.1084 19.6843 16.0908C19.4197 16.1348 19.1552 16.1878 18.8995 16.2583C18.4409 16.3817 17.2858 16.902 16.6421 17.2283C15.487 17.8014 14.7904 18.7008 13.9527 19.5826C11.4837 22.2015 11.175 26.1519 13.3883 29.0265C15.4164 31.6542 19.7195 32.9505 22.6647 30.8783C24.8162 29.3616 26.5269 27.8802 27.2852 25.2349C27.6027 24.1326 27.7085 23.0128 27.5762 21.8929L27.5674 21.8841Z" fill="white"/>
<path d="M27.5513 21.752C27.5513 21.752 27.5513 21.8313 27.5601 21.8754C27.5777 21.9812 27.5777 21.9812 27.5513 21.752Z" fill="#F0F0F0"/>
<path d="M19.7803 16.0361C19.9566 15.9832 19.9831 15.948 19.7803 16.0361V16.0361Z" fill="#F0F0F0"/>
<path d="M44.4396 14.8998C44.1046 13.7093 43.2757 12.8187 42.1558 12.3426C41.1065 11.9017 39.6163 11.8047 38.6463 12.5454C38.2671 12.8364 37.8792 13.0833 37.5705 13.4448C37.2266 13.8504 36.918 14.2737 36.7064 14.7499L36.6623 14.8028C36.3713 15.2613 36.2126 15.7639 36.1861 16.3018C36.0715 17.1571 36.1861 18.1183 36.6623 18.8678C37.0415 19.4498 37.5264 19.9347 38.1084 20.3139C38.8844 20.8165 40.3305 21.0634 41.2123 20.7195C42.3586 20.2698 43.3462 19.6878 43.9811 18.5768C44.616 17.4657 44.7923 16.1343 44.4485 14.8909L44.4396 14.8998Z" fill="white"/>
<path d="M18.2159 116.209C17.2724 115.257 15.5441 114.631 14.2214 115.151C13.7893 115.318 13.3661 115.495 12.9428 115.68C12.4843 115.892 12.5548 115.865 13.1632 115.601C12.1933 116.006 11.5055 116.421 10.756 117.153C9.79483 118.105 9.15113 119.251 9.01886 120.521C8.38398 122.761 10.368 125.265 12.6518 125.3C15.7116 125.838 18.5333 123.184 19.2652 120.195C19.6179 118.757 19.2652 117.258 18.207 116.2L18.2159 116.209Z" fill="#F0F0F0"/>
<path d="M176.36 20.4952C176.4 19.9652 176.44 19.4352 176.49 18.9052C177.23 18.6952 177.96 18.4652 178.68 18.2052C178.96 18.1052 179.07 17.7152 178.99 17.4252C178.9 17.0752 178.65 16.8352 178.32 16.6952C177.79 16.4752 177.25 16.2452 176.72 16.0252C176.78 15.3152 176.83 14.6052 176.89 13.8952C176.92 13.5452 176.76 13.1852 176.42 12.9752C176.12 12.7952 175.66 12.7752 175.48 13.0352C175.02 13.6752 174.52 14.2852 174 14.8852C173.44 14.6552 172.88 14.4152 172.32 14.1852C171.6 13.8952 171.1 14.7252 171.51 15.3352C171.8 15.7752 172.07 16.2252 172.32 16.6752C172.09 16.8952 171.86 17.1152 171.62 17.3352C171.3 17.6252 170.96 17.8952 170.7 18.2252C170.58 18.2952 170.46 18.3652 170.34 18.4252C169.57 18.8552 170.23 20.0852 171.12 19.9852C171.96 19.8852 172.78 19.7552 173.59 19.5952C173.89 20.6252 174.28 22.0152 175.47 21.9952C176.3 21.9752 176.32 21.1552 176.38 20.4952H176.36Z" fill="#EDC142"/>
<path d="M221.209 61.3656C220.701 60.7312 220.193 60.0969 219.696 59.452C220.316 58.4325 220.903 57.4012 221.449 56.3471C221.662 55.9384 221.379 55.3861 220.985 55.1471C220.518 54.8517 219.983 54.8489 219.463 55.0426C218.632 55.3592 217.779 55.6751 216.948 55.9917C216.275 55.1351 215.59 54.2891 214.916 53.4326C214.585 53.0099 214.027 52.7776 213.422 52.9037C212.894 53.0209 212.351 53.4866 212.419 53.9679C212.566 55.1706 212.636 56.3822 212.673 57.6039C211.797 57.9411 210.911 58.2671 210.036 58.6043C208.917 59.0442 209.216 60.5016 210.319 60.7479C211.107 60.9316 211.883 61.1478 212.637 61.3851C212.606 61.8748 212.575 62.3645 212.532 62.8648C212.472 63.5281 212.369 64.1903 212.419 64.8346C212.356 65.0401 212.293 65.2456 212.219 65.4399C211.795 66.7369 213.828 67.4104 214.733 66.3546C215.582 65.3519 216.376 64.3368 217.127 63.2989C218.543 64.1309 220.438 65.2695 221.767 63.9848C222.687 63.082 221.853 62.1451 221.232 61.3444L221.209 61.3656Z" fill="#EDC142"/>
<path d="M318.218 45.1869C317.928 44.7469 317.638 44.2969 317.348 43.8569C317.808 43.2369 318.248 42.6169 318.658 41.9769C318.818 41.7269 318.658 41.3469 318.428 41.1669C318.148 40.9469 317.798 40.9069 317.448 40.9969C316.888 41.1469 316.328 41.2869 315.768 41.4369C315.378 40.8369 314.998 40.2469 314.608 39.6469C314.418 39.3569 314.068 39.1569 313.668 39.2069C313.328 39.2469 312.948 39.5169 312.958 39.8269C312.978 40.6169 312.958 41.4069 312.908 42.1969C312.318 42.3569 311.738 42.5069 311.148 42.6669C310.398 42.8669 310.508 43.8369 311.208 44.0669C311.708 44.2369 312.198 44.4269 312.668 44.6369C312.618 44.9569 312.568 45.2669 312.508 45.5869C312.428 46.0069 312.318 46.4369 312.318 46.8569C312.268 46.9869 312.208 47.1069 312.158 47.2369C311.808 48.0469 313.078 48.6169 313.728 47.9969C314.338 47.4069 314.908 46.8069 315.458 46.1869C316.318 46.8169 317.478 47.6869 318.408 46.9469C319.058 46.4269 318.578 45.7569 318.208 45.1969L318.218 45.1869Z" fill="#EDC142"/>
<path d="M259.8 74.189C259.692 73.6731 259.588 73.1479 259.481 72.6321C260.137 72.2251 260.774 71.8108 261.391 71.3668C261.632 71.1933 261.623 70.7811 261.476 70.529C261.296 70.2214 260.986 70.0553 260.627 70.01C260.051 69.9432 259.479 69.867 258.903 69.8002C258.762 69.0987 258.626 68.4102 258.484 67.7088C258.414 67.3692 258.163 67.0543 257.772 66.9535C257.442 66.8654 256.989 66.9764 256.884 67.2683C256.612 68.0101 256.302 68.7372 255.965 69.4533C255.357 69.3847 254.763 69.3105 254.155 69.2419C253.384 69.1516 253.129 70.0939 253.695 70.5655C254.097 70.9078 254.483 71.2649 254.843 71.6333C254.678 71.9123 254.518 72.1821 254.344 72.4575C254.115 72.8185 253.854 73.1778 253.699 73.5682C253.605 73.6707 253.505 73.7601 253.411 73.8626C252.787 74.4867 253.758 75.4844 254.59 75.1475C255.375 74.8237 256.126 74.4758 256.865 74.102C257.433 75.0045 258.191 76.2406 259.328 75.8952C260.124 75.6512 259.924 74.8515 259.787 74.1946L259.8 74.189Z" fill="#EDC142"/>
<path d="M233.843 23.1171C233.793 23.1471 233.743 23.1871 233.693 23.2271C233.693 23.2271 233.653 23.2471 233.633 23.2471C233.553 23.2371 233.443 23.2071 233.353 23.1571C233.163 23.0471 233.023 22.8271 232.933 22.5871C232.803 22.2471 232.753 21.8871 232.683 21.5371C232.583 21.0571 232.453 20.5871 232.363 20.1071C232.273 19.6771 231.763 19.4171 231.353 19.5371C230.883 19.6671 230.713 20.1071 230.783 20.5471C230.783 20.6071 230.803 20.6671 230.803 20.7271C230.773 20.7971 230.753 20.8771 230.753 20.9671C230.753 21.6171 230.603 22.2171 230.163 22.7171C229.883 23.0371 229.523 23.2771 229.133 23.4171C228.793 23.4371 228.453 23.5071 228.123 23.6571C227.363 23.9871 227.773 25.1971 228.533 25.1671C228.843 25.1571 229.153 25.0971 229.453 25.0071C229.933 25.0871 230.403 25.4571 230.653 25.8071C231.223 26.5971 231.343 27.6571 231.483 28.5971C231.563 29.0371 232.093 29.2871 232.503 29.1771C232.973 29.0471 233.153 28.6071 233.083 28.1571C232.833 26.7871 233.533 25.3171 234.713 24.5971C234.713 24.5971 234.713 24.5971 234.713 24.5871C234.773 24.5471 234.833 24.5171 234.893 24.4671C235.633 23.8371 234.673 22.6171 233.863 23.1271L233.843 23.1171Z" fill="#FCE96B"/>
<path d="M205.146 14.3459C205.146 14.3459 205.146 14.2559 205.146 14.2059C205.146 14.1159 205.146 14.0259 205.146 13.9359C205.156 13.8159 205.156 13.7059 205.136 13.5859C205.116 13.4059 205.046 13.2259 204.966 13.0659C204.876 12.8359 204.666 12.6059 204.476 12.5059C204.386 12.4659 204.286 12.4259 204.196 12.3859C204.086 12.3559 203.966 12.3459 203.856 12.3459C203.686 12.3259 203.506 12.3359 203.336 12.3759C203.086 12.4459 202.876 12.5659 202.696 12.7459C202.496 12.9159 202.336 13.1259 202.176 13.3359C201.926 13.6759 201.856 14.1059 201.836 14.5159C201.836 14.6459 201.856 14.7759 201.876 14.9059C201.896 15.0359 201.906 15.1659 201.946 15.2959C202.066 15.6759 202.286 16.0259 202.566 16.2959C202.856 16.5759 203.306 16.7959 203.726 16.7759L204.166 16.7159C204.376 16.6659 204.566 16.5659 204.726 16.4259C204.846 16.3559 204.946 16.2559 205.016 16.1359C205.156 15.9759 205.256 15.7959 205.306 15.5759C205.406 15.1559 205.366 14.7159 205.146 14.3359V14.3459Z" fill="#222221"/>
<path d="M207.969 18.2347C207.969 18.2347 207.959 18.1647 207.949 18.1347C207.939 18.0547 207.919 17.9847 207.909 17.9047C207.889 17.7747 207.869 17.7247 207.779 17.5647C207.619 17.2847 207.389 17.1547 207.109 17.0447C206.689 16.8847 206.279 17.1247 205.919 17.3047C205.649 17.4347 205.449 17.6347 205.239 17.8447C205.099 17.9947 204.949 18.1647 204.849 18.3447C204.799 18.4347 204.759 18.5347 204.709 18.6247C204.619 18.7947 204.529 18.9747 204.449 19.1447C204.389 19.2747 204.339 19.4047 204.279 19.5347L204.219 19.9747L204.279 20.4147C204.339 20.5447 204.389 20.6747 204.449 20.8047C204.539 20.9147 204.619 21.0247 204.709 21.1347C204.819 21.2247 204.929 21.3047 205.039 21.3947C205.169 21.4547 205.299 21.5047 205.429 21.5647C205.649 21.6347 205.869 21.6447 206.079 21.5947C206.229 21.5947 206.369 21.5547 206.489 21.4847C206.629 21.4447 206.749 21.3747 206.849 21.2747C206.969 21.2047 207.069 21.1047 207.139 20.9847C207.199 20.9247 207.219 20.8547 207.259 20.7847C207.259 20.7947 207.259 20.8047 207.269 20.8147L207.549 20.2547C207.699 19.9647 207.839 19.6847 207.899 19.3647C207.929 19.2147 207.959 19.0647 207.979 18.9047C208.009 18.6447 207.989 18.5147 207.949 18.2347H207.969Z" fill="#222221"/>
<path d="M214.245 12.0647C214.185 11.9147 214.125 11.7347 214.025 11.6047C213.965 11.5247 213.895 11.4347 213.835 11.3547C213.725 11.2347 213.595 11.1547 213.435 11.1047C213.335 11.0447 213.235 11.0247 213.125 11.0247C212.965 10.9847 212.795 10.9947 212.635 11.0447C212.605 11.0547 212.585 11.0647 212.555 11.0747C212.605 11.0747 212.655 11.0647 212.705 11.0547C212.505 11.0747 212.275 11.1547 212.145 11.3047C212.125 11.3247 212.115 11.3547 212.095 11.3747C212.055 11.4147 212.015 11.4447 211.985 11.4947C211.875 11.6147 211.805 11.7547 211.765 11.9147C211.765 11.9547 211.745 12.0047 211.745 12.0547C211.735 12.1047 211.725 12.1647 211.705 12.2147C211.705 12.2247 211.705 12.2347 211.695 12.2447C211.675 12.3047 211.665 12.3747 211.665 12.4547C211.665 12.4547 211.665 12.4647 211.665 12.4747C211.625 12.5747 211.605 12.6747 211.595 12.7847C211.555 12.9547 211.565 13.1347 211.615 13.3047C211.655 13.4047 211.705 13.5147 211.745 13.6147C211.825 13.7647 211.935 13.8847 212.085 13.9847C212.165 14.0647 212.265 14.1247 212.375 14.1547C212.535 14.2347 212.695 14.2747 212.875 14.2647C212.995 14.2447 213.105 14.2347 213.225 14.2147C213.445 14.1547 213.635 14.0447 213.805 13.8747C213.905 13.7547 214.035 13.6047 214.105 13.4547C214.235 13.1747 214.345 12.9347 214.345 12.6147C214.345 12.4347 214.315 12.2447 214.245 12.0847V12.0647Z" fill="#222221"/>
<path d="M215.209 18.8845C215.199 18.8145 215.179 18.7545 215.159 18.6845C215.119 18.5945 215.079 18.4945 215.039 18.4045C214.969 18.2645 214.869 18.1545 214.739 18.0745C214.559 17.9345 214.289 17.8045 214.059 17.8245C213.919 17.8045 213.779 17.8045 213.639 17.8645C213.609 17.8745 213.579 17.9145 213.549 17.9245C213.329 18.0245 213.139 18.2045 213.019 18.4045C213.019 18.4245 213.009 18.4445 212.999 18.4545C212.959 18.5445 212.909 18.6245 212.859 18.6945C212.859 18.6845 212.879 18.6745 212.889 18.6645C212.819 18.7645 212.759 18.8645 212.709 19.0445C212.709 19.0445 212.709 19.0445 212.709 19.0545C212.709 19.0645 212.699 19.0745 212.689 19.0845C212.559 19.3045 212.509 19.5545 212.529 19.7945C212.509 19.9445 212.509 20.0845 212.549 20.2345C212.579 20.3645 212.639 20.4845 212.739 20.5845C212.929 20.8345 213.229 21.0045 213.549 20.9945C213.589 20.9945 213.629 20.9845 213.669 20.9745C214.039 21.0045 214.439 20.8945 214.689 20.6145C214.919 20.3645 215.149 20.0545 215.239 19.7145C215.319 19.4145 215.279 19.1645 215.239 18.8645L215.209 18.8845Z" fill="#222221"/>
<path d="M199.616 19.7262C199.826 19.3062 199.796 18.7763 199.566 18.3763C199.436 18.1563 199.266 17.9863 199.046 17.8563C198.816 17.7263 198.576 17.6562 198.316 17.6562C198.136 17.6762 197.906 17.6862 197.716 17.7562C197.556 17.8162 197.396 17.8762 197.246 17.9562C197.216 17.9662 197.186 17.9862 197.156 18.0062C197.006 18.0962 196.856 18.2063 196.746 18.3363C196.636 18.4763 196.516 18.6163 196.416 18.7663C196.216 19.0763 196.096 19.4563 196.086 19.8263C196.086 20.0563 196.126 20.2862 196.166 20.5062C196.166 20.5462 196.186 20.5863 196.196 20.6263C196.246 20.7663 196.326 20.9763 196.376 21.0563C196.536 21.3263 196.726 21.4962 196.986 21.6662C196.996 21.6662 197.006 21.6862 197.026 21.6862C197.086 21.7262 197.156 21.7562 197.226 21.7762C197.416 21.8762 197.616 21.9262 197.836 21.9162C198.096 21.9162 198.416 21.8463 198.636 21.6963C198.746 21.6163 198.846 21.5263 198.956 21.4463C199.056 21.3463 199.146 21.2362 199.206 21.1162C199.326 20.9162 199.386 20.7163 199.426 20.4963C199.436 20.4363 199.446 20.3762 199.466 20.3162C199.516 20.1762 199.526 20.0362 199.536 19.8862C199.536 19.8562 199.536 19.8263 199.546 19.8063C199.546 19.8063 199.546 19.7862 199.556 19.7762C199.556 19.7962 199.556 19.8262 199.556 19.8462C199.556 19.8062 199.576 19.7662 199.586 19.7262H199.616Z" fill="#222221"/>
<path d="M209.746 24.2963C209.676 24.0363 209.506 23.8063 209.276 23.6563C209.086 23.4463 208.806 23.3463 208.526 23.3763C208.316 23.4063 208.126 23.5163 207.986 23.6763C207.846 23.7863 207.716 23.9263 207.626 24.0863C207.626 24.0863 207.626 24.0963 207.616 24.1063C207.566 24.1663 207.516 24.2263 207.456 24.2863C207.416 24.3363 207.366 24.3863 207.316 24.4263C207.216 24.5263 207.136 24.6363 207.056 24.7563C207.106 24.6963 207.156 24.6263 207.206 24.5663C207.106 24.6963 206.996 24.8063 206.866 24.9063C206.846 24.9263 206.816 24.9463 206.786 24.9663C206.766 24.9863 206.746 25.0163 206.726 25.0463C206.696 25.0863 206.666 25.1263 206.626 25.1663C206.466 25.3463 206.336 25.5163 206.276 25.7463C206.276 25.7563 206.276 25.7763 206.276 25.7863C206.166 25.9063 206.086 26.0563 206.086 26.2163C206.086 26.4663 206.216 26.6363 206.406 26.7763C206.426 26.7863 206.436 26.7963 206.456 26.8063C206.486 26.8463 206.526 26.8863 206.566 26.9163C206.576 26.9363 206.596 26.9563 206.606 26.9663C206.756 27.1263 206.966 27.2363 207.176 27.2963C207.316 27.3363 207.476 27.3463 207.616 27.3363C207.946 27.3163 208.226 27.2663 208.516 27.0963C208.696 26.9963 208.856 26.8563 209.016 26.7263C209.096 26.6663 209.166 26.5963 209.236 26.5163C209.806 25.9163 209.946 25.0463 209.746 24.2663V24.2963Z" fill="#222221"/>
<path d="M203.358 25.7952C203.358 25.7352 203.358 25.6752 203.328 25.6152C203.238 25.2352 202.898 24.8552 202.528 24.7652C202.278 24.7052 202.038 24.6952 201.788 24.7552C201.618 24.7952 201.438 24.9052 201.278 25.0052C201.058 25.1452 200.878 25.3352 200.748 25.5552C200.728 25.5952 200.698 25.6352 200.678 25.6752C200.628 25.7552 200.578 25.8452 200.528 25.9252C200.428 26.0752 200.378 26.2452 200.368 26.4152C200.328 26.5952 200.338 26.7652 200.388 26.9452C200.428 27.0552 200.478 27.1552 200.518 27.2652C200.598 27.4152 200.718 27.5452 200.858 27.6352C200.938 27.7152 201.038 27.7752 201.148 27.8052C201.308 27.8852 201.478 27.9252 201.658 27.9152C201.778 27.8952 201.898 27.8852 202.008 27.8652C202.238 27.8052 202.428 27.6852 202.598 27.5252C202.668 27.4452 202.728 27.3652 202.798 27.2852C202.828 27.2452 202.868 27.2052 202.898 27.1652C202.898 27.1652 202.908 27.1452 202.918 27.1452C203.048 27.0252 203.148 26.8752 203.198 26.7052C203.248 26.5952 203.258 26.5752 203.278 26.4852C203.278 26.4352 203.298 26.3852 203.308 26.3452C203.308 26.3252 203.308 26.3052 203.318 26.2852C203.368 26.1152 203.378 25.9552 203.338 25.7852L203.358 25.7952Z" fill="#222221"/>
<path d="M284.138 15.6043L285.188 15.9943C284.428 15.6743 283.678 15.3543 282.918 15.0343C281.438 14.5343 280.008 14.5343 278.498 14.7343C276.438 15.0143 274.648 15.4243 272.828 16.5543C268.148 19.4743 265.898 26.1043 269.048 30.9843C271.968 35.5043 278.608 38.1043 283.478 34.7643C285.498 33.3843 287.268 31.7643 288.478 29.6143C289.678 27.4643 289.618 25.4643 289.848 23.1043C290.188 19.6243 287.168 16.6043 284.138 15.5943V15.6043Z" fill="white"/>
<path d="M299.355 34.7269C299.335 34.6669 299.325 34.6069 299.295 34.5469C299.065 33.7269 298.645 33.0069 298.045 32.3969C297.435 31.7969 296.725 31.3769 295.895 31.1469C294.615 30.8569 293.305 30.9669 292.145 31.6369C291.575 31.9469 291.125 32.3569 290.785 32.8869C290.355 33.3569 290.065 33.9069 289.915 34.5369C289.685 35.3969 289.685 36.2569 289.915 37.1269C290.055 37.6169 290.255 38.0569 290.525 38.4669C290.545 38.4969 290.565 38.5269 290.585 38.5569L290.635 38.6169C290.715 38.7369 290.805 38.8469 290.905 38.9669C291.055 39.1569 291.195 39.3469 291.345 39.5369C291.785 40.0069 292.295 40.3369 292.895 40.5269C293.265 40.7469 293.675 40.8569 294.105 40.8569C294.745 40.9969 295.385 40.9669 296.025 40.7669C296.405 40.6069 296.795 40.4469 297.175 40.2869L298.145 39.5369C298.615 39.0969 298.945 38.5869 299.135 37.9869C299.435 37.4169 299.575 36.7969 299.545 36.1369C299.495 35.6969 299.455 35.1569 299.355 34.7269Z" fill="white"/>
<path d="M321.357 16.8278C320.427 15.4278 319.037 14.5078 317.307 14.5078C315.687 14.5078 314.047 15.3978 313.257 16.8278C312.677 17.8878 312.377 18.9478 312.427 20.1478C312.527 22.1778 313.837 24.2778 315.937 24.7578C317.967 25.2178 320.307 24.4678 321.337 22.5578C322.317 20.7478 322.527 18.5978 321.337 16.8178L321.357 16.8278Z" fill="white"/>
<path d="M172.807 31.6581C172.567 29.1781 170.647 27.5781 168.127 28.0981C167.927 28.1381 167.867 28.1481 167.937 28.1481C167.727 28.1781 167.517 28.1981 167.307 28.2381C166.357 28.5181 165.737 29.0581 165.047 29.7081C164.207 30.5081 163.407 31.2581 163.117 32.4581C162.707 34.1381 163.397 35.8281 164.857 36.7381C166.487 37.7581 168.677 37.4081 170.237 36.4281C171.937 35.3481 172.997 33.6981 172.797 31.6481L172.807 31.6581Z" fill="white"/>
</g>
</g>
<rect x="1" y="1" width="335" height="462" rx="8" stroke="white" stroke-opacity="0.5"/>
<defs>
<linearGradient id="paint0_linear_5503_217929" x1="168.5" y1="1" x2="168.5" y2="463" gradientUnits="userSpaceOnUse">
<stop stop-color="#BCFFF7"/>
<stop offset="1" stop-color="#2DA798"/>
</linearGradient>
<linearGradient id="paint1_linear_5503_217929" x1="168.5" y1="159" x2="168.5" y2="394" gradientUnits="userSpaceOnUse">
<stop stop-color="#829D9A" stop-opacity="0.25"/>
<stop offset="1" stop-color="#2B6C65"/>
</linearGradient>
<clipPath id="clip0_5503_217929">
<rect x="1" y="1" width="335" height="462" rx="8" fill="white"/>
</clipPath>
<clipPath id="clip1_5503_217929">
<rect width="335" height="150" fill="white" transform="translate(1 1)"/>
</clipPath>
</defs>
</svg>
