<svg width="72" height="72" viewBox="0 0 72 72" fill="none" xmlns="http://www.w3.org/2000/svg">
<rect width="72" height="72" fill="#DF0404"/>
<path d="M43.2344 44.6768C43.1986 45.5003 42.93 46.1484 42.4287 46.6211C41.9274 47.1009 41.2614 47.3408 40.4307 47.3408H30.5586C29.7279 47.3408 29.0618 47.1045 28.5605 46.6318C28.0592 46.1592 27.7907 45.5111 27.7549 44.6875L27.0244 29.1328H26.0469C25.7747 29.1328 25.5456 29.0397 25.3594 28.8535C25.1732 28.6673 25.0801 28.4417 25.0801 28.1768C25.0801 27.9118 25.1732 27.6898 25.3594 27.5107C25.5456 27.3245 25.7747 27.2314 26.0469 27.2314H30.6016V25.7705C30.6016 24.9398 30.8665 24.2773 31.3965 23.7832C31.9336 23.2891 32.6569 23.042 33.5664 23.042H37.4014C38.3109 23.042 39.0306 23.2891 39.5605 23.7832C40.0977 24.2773 40.3662 24.9398 40.3662 25.7705V27.2314H44.9424C45.2074 27.2314 45.4329 27.3245 45.6191 27.5107C45.8053 27.6898 45.8984 27.9118 45.8984 28.1768C45.8984 28.4417 45.8053 28.6673 45.6191 28.8535C45.4401 29.0397 45.2145 29.1328 44.9424 29.1328H43.9648L43.2344 44.6768ZM32.6211 25.8672L32.6104 27.2314H38.3682L38.3574 25.8672C38.3574 25.5736 38.2572 25.3337 38.0566 25.1475C37.8561 24.9541 37.5983 24.8574 37.2832 24.8574H33.6953C33.3802 24.8574 33.1224 24.9541 32.9219 25.1475C32.7214 25.3337 32.6211 25.5736 32.6211 25.8672ZM30.7842 45.418H40.2051C40.513 45.418 40.7601 45.3177 40.9463 45.1172C41.1396 44.9238 41.2435 44.666 41.2578 44.3438L41.9561 29.1328H29.001L29.7314 44.3438C29.7458 44.6589 29.8496 44.9167 30.043 45.1172C30.2363 45.3177 30.4834 45.418 30.7842 45.418ZM38.6582 43.6455C38.4505 43.6455 38.2786 43.5703 38.1426 43.4199C38.0137 43.2624 37.9528 43.0726 37.96 42.8506L38.2822 31.7754C38.2894 31.5605 38.361 31.3779 38.4971 31.2275C38.6403 31.07 38.805 30.9912 38.9912 30.9912C39.1989 30.9912 39.3672 31.07 39.4961 31.2275C39.6322 31.3779 39.6966 31.5641 39.6895 31.7861L39.3672 42.8613C39.36 43.0905 39.2884 43.2803 39.1523 43.4307C39.0234 43.5739 38.8587 43.6455 38.6582 43.6455ZM32.3311 43.6455C32.1305 43.6455 31.9622 43.5739 31.8262 43.4307C31.6973 43.2803 31.6292 43.0905 31.6221 42.8613L31.2998 31.7861C31.2926 31.5641 31.3535 31.3779 31.4824 31.2275C31.6185 31.07 31.7868 30.9912 31.9873 30.9912C32.1807 30.9912 32.3454 31.07 32.4814 31.2275C32.6247 31.3779 32.6999 31.5605 32.707 31.7754L33.0293 42.8506C33.0365 43.0726 32.972 43.2624 32.8359 43.4199C32.707 43.5703 32.5387 43.6455 32.3311 43.6455ZM36.2197 42.8613C36.2197 43.0762 36.1481 43.2624 36.0049 43.4199C35.8617 43.5703 35.6934 43.6455 35.5 43.6455C35.2995 43.6455 35.1276 43.5703 34.9844 43.4199C34.8411 43.2624 34.7695 43.0762 34.7695 42.8613V31.7754C34.7695 31.5605 34.8411 31.3779 34.9844 31.2275C35.1276 31.07 35.2995 30.9912 35.5 30.9912C35.6934 30.9912 35.8617 31.07 36.0049 31.2275C36.1481 31.3779 36.2197 31.5605 36.2197 31.7754V42.8613Z" fill="white"/>
</svg>
