<svg width="40" height="40" viewBox="0 0 40 40" fill="none" xmlns="http://www.w3.org/2000/svg">
<rect width="40" height="40" rx="8" fill="#D1D5DB"/>
<rect x="10" y="11" width="19" height="19" fill="white"/>
<path d="M12.0934 32H27.9066C30.6442 32 32 30.6442 32 27.9587V12.0413C32 9.35578 30.6442 8 27.9066 8H12.0934C9.36882 8 8 9.34275 8 12.0413V27.9587C8 30.6573 9.36882 32 12.0934 32ZM14.7529 21.1276C13.9967 21.1276 13.4622 20.7235 13.4622 20.0065C13.4622 19.2765 13.9576 18.8593 14.7529 18.8593H25.2863C26.0684 18.8593 26.5638 19.2765 26.5638 20.0065C26.5638 20.7235 26.0424 21.1276 25.2863 21.1276H14.7529Z" fill="#D1D5DB"/>
<rect x="11" y="11" width="18" height="18" fill="white"/>
<path d="M12.0934 32H27.9066C30.6442 32 32 30.6442 32 27.9587V12.0413C32 9.35578 30.6442 8 27.9066 8H12.0934C9.36882 8 8 9.34275 8 12.0413V27.9587C8 30.6573 9.36882 32 12.0934 32ZM13.6448 19.9935C13.6448 19.3156 14.1141 18.8463 14.792 18.8463H18.8724V14.7659C18.8724 14.088 19.3286 13.6056 19.9935 13.6056C20.6714 13.6056 21.1407 14.088 21.1407 14.7659V18.8463H25.2341C25.899 18.8463 26.3813 19.3156 26.3813 19.9935C26.3813 20.6583 25.899 21.1016 25.2341 21.1016H21.1407V25.195C21.1407 25.8729 20.6714 26.3422 19.9935 26.3422C19.3286 26.3422 18.8724 25.8599 18.8724 25.195V21.1016H14.792C14.1141 21.1016 13.6448 20.6583 13.6448 19.9935Z" fill="#D1D5DB"/>
</svg>
