<svg width="269" height="34" viewBox="0 0 269 34" fill="none" xmlns="http://www.w3.org/2000/svg">
<g clip-path="url(#clip0_625_62541)">
<path d="M6.40835 17.0308C8.05294 17.0308 9.43928 15.5666 9.43928 13.6665C9.43928 11.8072 8.0393 10.3906 6.40835 10.3906C4.77738 10.3906 3.37747 11.8344 3.37747 13.6801C3.37747 15.5666 4.76379 17.0308 6.40835 17.0308ZM1.46108 24.9173H11.3488C12.375 24.9173 12.8031 24.5087 12.8031 23.7187C12.8031 21.2737 10.3431 18.3793 6.40156 18.3793C2.46005 18.3793 0 21.2737 0 23.7187C0 24.5087 0.42813 24.9173 1.46108 24.9173Z" fill="#0C5151"/>
<path d="M26.612 17.0308C28.2565 17.0308 29.6361 15.5666 29.6361 13.6665C29.6361 11.8072 28.2429 10.3906 26.612 10.3906C24.9742 10.3906 23.5743 11.8344 23.5743 13.6801C23.5743 15.5666 24.9674 17.0308 26.612 17.0308ZM21.6578 24.9173H31.5456C32.5718 24.9173 32.9999 24.5087 32.9999 23.7187C32.9999 21.2737 30.5399 18.3793 26.5984 18.3793C22.6569 18.3793 20.1968 21.2737 20.1968 23.7187C20.1968 24.5087 20.625 24.9173 21.6578 24.9173Z" fill="#0C5151"/>
<path d="M10.5945 25.9998H22.4394C24.016 25.9998 24.9539 25.0123 24.9539 23.7864C24.9539 20.9056 21.6376 17.3232 16.5136 17.3232C11.3964 17.3232 8.08008 20.9056 8.08008 23.7864C8.08008 25.0123 9.0111 25.9998 10.5945 25.9998Z" fill="#E6F6F4"/>
<path d="M16.5204 16.8333C18.4163 16.8333 20.0066 15.1511 20.0066 12.9649C20.0066 10.8333 18.4028 9.20557 16.5204 9.20557C14.6447 9.20557 13.0409 10.8605 13.0409 12.9786C13.0409 15.1511 14.6312 16.8333 16.5204 16.8333ZM10.5945 24.9173H22.4394C23.3229 24.9173 23.8666 24.4882 23.8666 23.7867C23.8666 21.5257 21.0463 18.4065 16.5136 18.4065C11.9808 18.4065 9.16064 21.5257 9.16064 23.7867C9.16064 24.4882 9.70427 24.9173 10.5945 24.9173Z" fill="#0C5151"/>
</g>
<path d="M50.5299 14.1758C47.5416 14.1758 45.6739 12.0811 45.6739 8.71191C45.6739 5.36475 47.5636 3.25537 50.5152 3.25537C52.4562 3.25537 54.0089 4.2002 54.6681 5.76025C54.7706 5.97266 54.8219 6.19238 54.8219 6.39014C54.8219 6.82959 54.5289 7.11523 54.0895 7.11523C53.7013 7.11523 53.4449 6.9248 53.2618 6.5C52.7711 5.3208 51.7311 4.69092 50.5152 4.69092C48.5963 4.69092 47.3512 6.26562 47.3512 8.71191C47.3512 11.1802 48.5816 12.7402 50.5226 12.7402C51.8116 12.7402 52.8004 12.1909 53.2911 11.0483C53.4669 10.6602 53.6793 10.499 54.0382 10.499C54.485 10.499 54.7926 10.8066 54.7926 11.2388C54.7926 11.4658 54.734 11.6782 54.6168 11.9199C53.9356 13.3481 52.4928 14.1758 50.5299 14.1758ZM59.9157 14.1465C57.5939 14.1465 56.2316 12.6743 56.2316 10.1841C56.2316 7.73779 57.6232 6.15576 59.8059 6.15576C61.8566 6.15576 63.2702 7.63525 63.2702 9.7373C63.2702 10.25 62.9772 10.543 62.4865 10.543H57.8283V10.5796C57.8283 11.9858 58.6193 12.8647 59.8791 12.8647C60.7434 12.8647 61.2854 12.5645 61.8713 11.7661C62.0397 11.5684 62.2009 11.4878 62.4279 11.4878C62.8088 11.4878 63.0871 11.7368 63.0871 12.1323C63.0871 12.2568 63.0432 12.4033 62.9772 12.5571C62.4719 13.5679 61.3513 14.1465 59.9157 14.1465ZM57.8356 9.43701H61.6882C61.6516 8.22852 60.8972 7.43018 59.7985 7.43018C58.7072 7.43018 57.9162 8.23584 57.8356 9.43701ZM65.5442 14.1392C65.0828 14.1392 64.7752 13.8462 64.7752 13.3994V7.26904C64.7752 6.58057 65.1927 6.15576 65.8812 6.15576C66.4964 6.15576 66.804 6.39746 67.0823 7.07861L69.2283 11.9419H69.2869L71.4549 7.07861C71.7332 6.39746 72.0335 6.15576 72.6194 6.15576C73.3152 6.15576 73.7107 6.55859 73.7107 7.26172V13.3994C73.7107 13.8535 73.4031 14.1392 72.9417 14.1392C72.4876 14.1392 72.1727 13.8462 72.1727 13.3994V8.65332H72.1214L70.0633 13.1284C69.8802 13.5312 69.6385 13.7144 69.2356 13.7144C68.8328 13.7144 68.5911 13.5532 68.408 13.1431L66.3499 8.65332H66.2986V13.3994C66.2986 13.8535 65.9983 14.1392 65.5442 14.1392ZM78.9071 14.1465C76.5854 14.1465 75.223 12.6743 75.223 10.1841C75.223 7.73779 76.6147 6.15576 78.7973 6.15576C80.848 6.15576 82.2616 7.63525 82.2616 9.7373C82.2616 10.25 81.9687 10.543 81.4779 10.543H76.8197V10.5796C76.8197 11.9858 77.6107 12.8647 78.8705 12.8647C79.7348 12.8647 80.2768 12.5645 80.8627 11.7661C81.0312 11.5684 81.1923 11.4878 81.4193 11.4878C81.8002 11.4878 82.0785 11.7368 82.0785 12.1323C82.0785 12.2568 82.0346 12.4033 81.9687 12.5571C81.4633 13.5679 80.3427 14.1465 78.9071 14.1465ZM76.8271 9.43701H80.6796C80.643 8.22852 79.8886 7.43018 78.7899 7.43018C77.6986 7.43018 76.9076 8.23584 76.8271 9.43701ZM87.1431 5.23291C85.876 5.23291 84.9751 4.53711 84.7847 3.58496C84.7627 3.4751 84.748 3.37256 84.748 3.27002C84.748 2.94043 84.9458 2.72803 85.2461 2.72803C85.5317 2.72803 85.6855 2.87451 85.7734 3.22607C85.9492 3.91455 86.4326 4.33203 87.1357 4.33203C87.8608 4.33203 88.3516 3.8999 88.5127 3.22607C88.6006 2.87451 88.7471 2.72803 89.0327 2.72803C89.3403 2.72803 89.5308 2.94775 89.5308 3.27002C89.5308 3.35791 89.5161 3.46045 89.5015 3.54834C89.3257 4.52246 88.4102 5.23291 87.1431 5.23291ZM84.6309 14.1392C84.0669 14.1392 83.7666 13.8022 83.7666 13.2603V6.96875C83.7666 6.46338 84.0889 6.15576 84.543 6.15576C84.9971 6.15576 85.3267 6.46338 85.3267 6.96875V11.6929H85.3853L88.6445 6.75635C88.9302 6.31689 89.2012 6.15576 89.6333 6.15576C90.1606 6.15576 90.5049 6.49268 90.5049 7.03467V13.3262C90.5049 13.8389 90.1753 14.1392 89.7212 14.1392C89.2671 14.1392 88.9448 13.8389 88.9448 13.3262V8.5874H88.8862L85.6196 13.5459C85.334 13.9854 85.063 14.1392 84.6309 14.1392ZM93.1378 14.1392C92.6617 14.1392 92.3541 13.8096 92.3541 13.3042V6.99805C92.3541 6.48535 92.6617 6.15576 93.1378 6.15576C93.6139 6.15576 93.9288 6.48535 93.9288 6.99805V9.40039H97.4151V6.99805C97.4151 6.48535 97.7228 6.15576 98.2062 6.15576C98.6822 6.15576 98.9898 6.48535 98.9898 6.99805V13.3042C98.9898 13.8096 98.6822 14.1392 98.2062 14.1392C97.7228 14.1392 97.4151 13.8096 97.4151 13.3042V10.6455H93.9288V13.3042C93.9288 13.8096 93.6139 14.1392 93.1378 14.1392ZM101.674 14C101.161 14 100.854 13.6777 100.854 13.1504V6.9248C100.854 6.45605 101.161 6.15576 101.63 6.15576C102.106 6.15576 102.428 6.45605 102.428 6.9248V8.67529H103.901C105.68 8.67529 106.83 9.70801 106.83 11.334C106.83 12.9673 105.68 14 103.901 14H101.674ZM108.493 14.1392C108.017 14.1392 107.702 13.8096 107.702 13.3042V6.99805C107.702 6.48535 108.017 6.15576 108.493 6.15576C108.969 6.15576 109.284 6.48535 109.284 6.99805V13.3042C109.284 13.8096 108.969 14.1392 108.493 14.1392ZM102.428 12.7549H103.761C104.67 12.7549 105.256 12.1836 105.256 11.334C105.256 10.4771 104.662 9.91309 103.761 9.91309H102.428V12.7549ZM114.517 5.23291C113.25 5.23291 112.349 4.53711 112.159 3.58496C112.137 3.4751 112.122 3.37256 112.122 3.27002C112.122 2.94043 112.32 2.72803 112.62 2.72803C112.906 2.72803 113.059 2.87451 113.147 3.22607C113.323 3.91455 113.806 4.33203 114.51 4.33203C115.235 4.33203 115.725 3.8999 115.887 3.22607C115.974 2.87451 116.121 2.72803 116.407 2.72803C116.714 2.72803 116.905 2.94775 116.905 3.27002C116.905 3.35791 116.89 3.46045 116.875 3.54834C116.7 4.52246 115.784 5.23291 114.517 5.23291ZM112.005 14.1392C111.441 14.1392 111.14 13.8022 111.14 13.2603V6.96875C111.14 6.46338 111.463 6.15576 111.917 6.15576C112.371 6.15576 112.7 6.46338 112.7 6.96875V11.6929H112.759L116.018 6.75635C116.304 6.31689 116.575 6.15576 117.007 6.15576C117.534 6.15576 117.879 6.49268 117.879 7.03467V13.3262C117.879 13.8389 117.549 14.1392 117.095 14.1392C116.641 14.1392 116.319 13.8389 116.319 13.3262V8.5874H116.26L112.993 13.5459C112.708 13.9854 112.437 14.1392 112.005 14.1392ZM123.701 14.1392C123.232 14.1392 122.925 13.8389 122.925 13.3774V7.15186C122.925 6.61719 123.232 6.29492 123.745 6.29492H128.674C129.18 6.29492 129.495 6.61719 129.495 7.15186V13.3774C129.495 13.8389 129.187 14.1392 128.711 14.1392C128.242 14.1392 127.913 13.8389 127.913 13.3774V7.54736H124.5V13.3774C124.5 13.8389 124.177 14.1392 123.701 14.1392ZM131.564 14.0439C130.941 14.0439 130.538 13.729 130.538 13.2749C130.538 12.9087 130.758 12.6743 131.124 12.6743H131.19C131.805 12.6597 132.12 12.0664 132.223 10.5942L132.457 7.15186C132.486 6.60254 132.765 6.29492 133.277 6.29492H137.02C137.525 6.29492 137.84 6.61719 137.84 7.15186V13.3774C137.84 13.8389 137.533 14.1392 137.057 14.1392C136.588 14.1392 136.266 13.8389 136.266 13.3774V7.54736H133.893L133.673 10.6382C133.512 12.9673 132.845 14.0439 131.564 14.0439ZM141.953 14.1318C140.444 14.1318 139.382 13.1943 139.382 11.8101C139.382 10.4624 140.422 9.63477 142.246 9.53223L144.363 9.40771V8.81445C144.363 7.95752 143.784 7.44482 142.817 7.44482C142.055 7.44482 141.55 7.71582 141.111 8.41895C140.949 8.65332 140.744 8.75586 140.466 8.75586C140.071 8.75586 139.785 8.49219 139.785 8.09668C139.785 7.93555 139.829 7.75977 139.924 7.58398C140.327 6.7124 141.491 6.15576 142.876 6.15576C144.743 6.15576 145.937 7.14453 145.937 8.68994V13.3408C145.937 13.8389 145.622 14.1392 145.175 14.1392C144.736 14.1392 144.436 13.8535 144.421 13.3848V12.7329H144.384C143.938 13.5898 142.956 14.1318 141.953 14.1318ZM142.385 12.8794C143.491 12.8794 144.363 12.1177 144.363 11.1143V10.5063L142.458 10.6235C141.513 10.6895 140.979 11.1069 140.979 11.7661C140.979 12.4399 141.543 12.8794 142.385 12.8794ZM148.534 14.1392C148.057 14.1392 147.75 13.8096 147.75 13.3042V6.99805C147.75 6.48535 148.057 6.15576 148.534 6.15576C149.01 6.15576 149.325 6.48535 149.325 6.99805V9.40039H152.811V6.99805C152.811 6.48535 153.118 6.15576 153.602 6.15576C154.078 6.15576 154.386 6.48535 154.386 6.99805V13.3042C154.386 13.8096 154.078 14.1392 153.602 14.1392C153.118 14.1392 152.811 13.8096 152.811 13.3042V10.6455H149.325V13.3042C149.325 13.8096 149.01 14.1392 148.534 14.1392ZM160.223 5.13037C159.717 5.13037 159.307 4.72021 159.307 4.22217C159.307 3.7168 159.717 3.32129 160.223 3.32129C160.735 3.32129 161.146 3.7168 161.146 4.22217C161.146 4.72021 160.735 5.13037 160.223 5.13037ZM160.223 14.1392C159.747 14.1392 159.432 13.8096 159.432 13.3042V6.99805C159.432 6.48535 159.747 6.15576 160.223 6.15576C160.699 6.15576 161.014 6.48535 161.014 6.99805V13.3042C161.014 13.8096 160.699 14.1392 160.223 14.1392ZM167.448 14.1758C164.46 14.1758 162.592 12.0811 162.592 8.71191C162.592 5.36475 164.482 3.25537 167.433 3.25537C169.374 3.25537 170.927 4.2002 171.586 5.76025C171.689 5.97266 171.74 6.19238 171.74 6.39014C171.74 6.82959 171.447 7.11523 171.007 7.11523C170.619 7.11523 170.363 6.9248 170.18 6.5C169.689 5.3208 168.649 4.69092 167.433 4.69092C165.514 4.69092 164.269 6.26562 164.269 8.71191C164.269 11.1802 165.5 12.7402 167.441 12.7402C168.73 12.7402 169.718 12.1909 170.209 11.0483C170.385 10.6602 170.597 10.499 170.956 10.499C171.403 10.499 171.711 10.8066 171.711 11.2388C171.711 11.4658 171.652 11.6782 171.535 11.9199C170.854 13.3481 169.411 14.1758 167.448 14.1758ZM174.212 14.1392C173.75 14.1392 173.421 13.8242 173.421 13.3042V4.12695C173.421 3.60693 173.75 3.29199 174.212 3.29199C174.673 3.29199 175.003 3.60693 175.003 4.12695V13.3042C175.003 13.8242 174.673 14.1392 174.212 14.1392ZM180.089 14.1465C177.885 14.1465 176.434 12.6304 176.434 10.1475C176.434 7.67188 177.892 6.15576 180.089 6.15576C182.286 6.15576 183.744 7.67188 183.744 10.1475C183.744 12.6304 182.294 14.1465 180.089 14.1465ZM180.089 12.8428C181.334 12.8428 182.133 11.8613 182.133 10.1475C182.133 8.44092 181.327 7.45947 180.089 7.45947C178.851 7.45947 178.046 8.44092 178.046 10.1475C178.046 11.8613 178.851 12.8428 180.089 12.8428ZM187.783 14.1392C186.106 14.1392 185.08 13.0479 185.08 11.2827V6.99805C185.08 6.4707 185.403 6.15576 185.871 6.15576C186.333 6.15576 186.663 6.4707 186.663 6.99805V10.9751C186.663 12.147 187.219 12.7769 188.31 12.7769C189.453 12.7769 190.142 11.9858 190.142 10.7847V6.99805C190.142 6.4707 190.471 6.15576 190.933 6.15576C191.401 6.15576 191.724 6.4707 191.724 6.99805V13.3335C191.724 13.8242 191.423 14.1392 190.969 14.1392C190.515 14.1392 190.207 13.8242 190.207 13.3408V12.6963H190.171C189.746 13.6191 188.962 14.1392 187.783 14.1392ZM196.334 14.1318C194.386 14.1318 193.097 12.5791 193.097 10.1475C193.097 7.71582 194.386 6.17041 196.319 6.17041C197.425 6.17041 198.304 6.72705 198.736 7.57666H198.766V4.12695C198.766 3.60693 199.095 3.29199 199.564 3.29199C200.025 3.29199 200.355 3.60693 200.355 4.12695V13.3481C200.355 13.8462 200.033 14.1392 199.571 14.1392C199.125 14.1392 198.766 13.8462 198.766 13.3481V12.6304H198.744C198.348 13.5312 197.535 14.1318 196.334 14.1318ZM196.751 12.7915C197.967 12.7915 198.78 11.7588 198.78 10.1475C198.78 8.55078 197.967 7.50342 196.751 7.50342C195.499 7.50342 194.715 8.52881 194.715 10.1475C194.715 11.7734 195.499 12.7915 196.751 12.7915ZM206.214 14C205.701 14 205.394 13.6777 205.394 13.1504V7.15186C205.394 6.61719 205.701 6.29492 206.214 6.29492H208.895C210.396 6.29492 211.304 7.04199 211.304 8.25781C211.304 9.05615 210.733 9.78125 209.993 9.92041V9.979C210.989 10.1108 211.649 10.814 211.649 11.7808C211.649 13.1357 210.609 14 208.939 14H206.214ZM206.954 9.46631H208.419C209.312 9.46631 209.759 9.12207 209.759 8.44092C209.759 7.80371 209.341 7.44482 208.572 7.44482H206.954V9.46631ZM206.954 12.8501H208.697C209.591 12.8501 210.074 12.4546 210.074 11.7148C210.074 10.9531 209.561 10.5723 208.521 10.5723H206.954V12.8501ZM213.981 14.1392C213.513 14.1392 213.205 13.8389 213.205 13.3774V6.9248C213.205 6.45605 213.513 6.15576 213.981 6.15576C214.457 6.15576 214.78 6.45605 214.78 6.9248V9.59082H214.838L217.951 6.44141C218.149 6.229 218.303 6.15576 218.537 6.15576C218.932 6.15576 219.24 6.43408 219.24 6.81494C219.24 7.02002 219.189 7.15186 218.991 7.34229L216.332 9.91309L219.116 12.8647C219.284 13.0552 219.35 13.2163 219.35 13.4141C219.35 13.8242 219.042 14.1392 218.625 14.1392C218.317 14.1392 218.112 14.0146 217.922 13.7876L214.838 10.4478H214.78V13.3774C214.78 13.8389 214.457 14.1392 213.981 14.1392ZM221.17 14.0439C220.547 14.0439 220.144 13.729 220.144 13.2749C220.144 12.9087 220.364 12.6743 220.73 12.6743H220.796C221.412 12.6597 221.726 12.0664 221.829 10.5942L222.063 7.15186C222.093 6.60254 222.371 6.29492 222.884 6.29492H226.626C227.132 6.29492 227.447 6.61719 227.447 7.15186V13.3774C227.447 13.8389 227.139 14.1392 226.663 14.1392C226.194 14.1392 225.872 13.8389 225.872 13.3774V7.54736H223.499L223.279 10.6382C223.118 12.9673 222.452 14.0439 221.17 14.0439ZM230.087 14.1392C229.611 14.1392 229.296 13.8096 229.296 13.3042V6.99805C229.296 6.48535 229.611 6.15576 230.087 6.15576C230.563 6.15576 230.878 6.48535 230.878 6.99805V9.40039H232.182C232.438 7.36426 233.749 6.15576 235.727 6.15576C237.953 6.15576 239.33 7.65723 239.33 10.1475C239.33 12.645 237.96 14.1465 235.727 14.1465C233.661 14.1465 232.328 12.8428 232.152 10.6455H230.878V13.3042C230.878 13.8096 230.563 14.1392 230.087 14.1392ZM235.727 12.8208C236.986 12.8208 237.711 11.8467 237.711 10.1475C237.711 8.44824 236.986 7.48145 235.727 7.48145C234.467 7.48145 233.749 8.44824 233.749 10.1475C233.749 11.8467 234.467 12.8208 235.727 12.8208ZM243.428 11.3779C241.611 11.3779 240.608 10.272 240.608 8.5874V6.9248C240.608 6.45605 240.916 6.15576 241.384 6.15576C241.86 6.15576 242.183 6.45605 242.183 6.9248V8.47021C242.183 9.42969 242.703 10.0303 243.677 10.0303C244.534 10.0303 245.112 9.70801 245.435 9.32715V6.9248C245.435 6.45605 245.742 6.15576 246.211 6.15576C246.687 6.15576 247.002 6.45605 247.002 6.9248V13.3774C247.002 13.8389 246.687 14.1392 246.211 14.1392C245.742 14.1392 245.435 13.8389 245.435 13.3774V10.7188H245.332C244.915 11.1143 244.277 11.3779 243.428 11.3779ZM252.206 14.1465C249.884 14.1465 248.522 12.6743 248.522 10.1841C248.522 7.73779 249.913 6.15576 252.096 6.15576C254.147 6.15576 255.56 7.63525 255.56 9.7373C255.56 10.25 255.267 10.543 254.777 10.543H250.118V10.5796C250.118 11.9858 250.909 12.8647 252.169 12.8647C253.033 12.8647 253.575 12.5645 254.161 11.7661C254.33 11.5684 254.491 11.4878 254.718 11.4878C255.099 11.4878 255.377 11.7368 255.377 12.1323C255.377 12.2568 255.333 12.4033 255.267 12.5571C254.762 13.5679 253.641 14.1465 252.206 14.1465ZM250.126 9.43701H253.978C253.942 8.22852 253.187 7.43018 252.089 7.43018C250.997 7.43018 250.206 8.23584 250.126 9.43701ZM257.849 14.1392C257.373 14.1392 257.065 13.8096 257.065 13.3042V6.99805C257.065 6.48535 257.373 6.15576 257.849 6.15576C258.325 6.15576 258.64 6.48535 258.64 6.99805V9.40039H262.126V6.99805C262.126 6.48535 262.434 6.15576 262.917 6.15576C263.393 6.15576 263.701 6.48535 263.701 6.99805V13.3042C263.701 13.8096 263.393 14.1392 262.917 14.1392C262.434 14.1392 262.126 13.8096 262.126 13.3042V10.6455H258.64V13.3042C258.64 13.8096 258.325 14.1392 257.849 14.1392ZM266.847 10.6089C266.4 10.6089 266.151 10.3232 266.136 9.86182L266.048 4.17822C266.048 4.14893 266.048 4.11963 266.048 4.09766C266.048 3.60693 266.378 3.29199 266.854 3.29199C267.323 3.29199 267.652 3.60693 267.652 4.09766C267.652 4.11963 267.652 4.14893 267.652 4.17822L267.564 9.86182C267.55 10.3232 267.301 10.6089 266.847 10.6089ZM266.847 14.1099C266.312 14.1099 265.887 13.6997 265.887 13.165C265.887 12.6304 266.312 12.2202 266.847 12.2202C267.396 12.2202 267.813 12.6304 267.813 13.165C267.813 13.6997 267.396 14.1099 266.847 14.1099Z" fill="#1A645A"/>
<path d="M45.5135 32.1016V30.5488C45.5135 30.127 45.7127 29.8926 46.0702 29.8633H46.1463C46.7264 29.5469 46.9373 28.8613 47.0077 27.6719L47.2655 23.418C47.3006 22.8613 47.6698 22.5449 48.2616 22.5449H52.1698C52.5799 22.5449 52.826 22.8027 52.826 23.2246V29.8633H53.2596C53.6405 29.8633 53.8807 30.1211 53.8807 30.5254V32.1016C53.8807 32.4824 53.6522 32.7402 53.283 32.7402C52.9139 32.7402 52.6795 32.4824 52.6795 32.1016V31H46.7205V32.1016C46.7205 32.4824 46.4862 32.7402 46.117 32.7402C45.7537 32.7402 45.5135 32.4824 45.5135 32.1016ZM47.6463 29.8633H51.5135V23.6758H48.4842L48.2264 27.7305C48.162 28.8145 48.0096 29.3828 47.6463 29.8164V29.8633ZM57.6628 31.1172C55.8991 31.1172 54.739 29.9043 54.739 27.918C54.739 25.9375 55.905 24.7246 57.6628 24.7246C59.4206 24.7246 60.5866 25.9375 60.5866 27.918C60.5866 29.9043 59.4265 31.1172 57.6628 31.1172ZM57.6628 30.0742C58.6589 30.0742 59.2976 29.2891 59.2976 27.918C59.2976 26.5527 58.653 25.7676 57.6628 25.7676C56.6726 25.7676 56.028 26.5527 56.028 27.918C56.028 29.2891 56.6726 30.0742 57.6628 30.0742ZM67.5122 31.1641C66.2173 31.1641 65.1919 30.4961 64.6352 29.2715C64.3364 28.6152 64.1899 27.8301 64.1899 26.8867C64.1899 24.0566 65.4438 22.3809 67.5591 22.3809C68.7602 22.3809 69.7212 22.9199 70.1723 23.7344C70.2661 23.9043 70.313 24.0566 70.313 24.2207C70.313 24.5312 70.0845 24.7598 69.7388 24.7598C69.4751 24.7598 69.3052 24.6367 69.0942 24.3379C68.6958 23.752 68.2153 23.4824 67.5473 23.4824C66.2231 23.4824 65.4848 24.6777 65.4497 26.7402V26.8164H65.4731C65.813 26.0488 66.6684 25.4512 67.8169 25.4512C69.4341 25.4512 70.6001 26.6348 70.6001 28.2344C70.6001 29.9336 69.2993 31.1641 67.5122 31.1641ZM67.4946 30.0566C68.5024 30.0566 69.2934 29.2715 69.2934 28.2812C69.2934 27.2559 68.5493 26.5176 67.5122 26.5176C66.4751 26.5176 65.7075 27.25 65.7075 28.252C65.7075 29.2598 66.4927 30.0566 67.4946 30.0566ZM75.1819 33.2969C74.5959 33.2969 74.2737 33.0801 74.2737 32.6875C74.2737 32.418 74.4612 32.2422 74.7659 32.2422C74.9006 32.2422 74.9475 32.248 75.094 32.248C75.4455 32.248 75.803 32.0547 76.0315 31.4219L76.1487 31.0645L74.0862 25.668C74.0393 25.5391 74.0159 25.4102 74.0159 25.3105C74.0159 24.9648 74.2913 24.7246 74.6604 24.7246C74.9768 24.7246 75.1584 24.8594 75.2698 25.2109L76.8401 29.8516H76.8577L78.4338 25.2109C78.5393 24.8652 78.7151 24.7246 79.0373 24.7246C79.4006 24.7246 79.6526 24.9648 79.6526 25.3047C79.6526 25.4043 79.6291 25.5332 79.5881 25.6562L77.4495 31.3105C76.9045 32.793 76.3245 33.2969 75.1819 33.2969ZM82.837 28.9023C81.3839 28.9023 80.5812 28.0176 80.5812 26.6699V25.3398C80.5812 24.9648 80.8273 24.7246 81.2023 24.7246C81.5831 24.7246 81.8409 24.9648 81.8409 25.3398V26.5762C81.8409 27.3438 82.257 27.8242 83.0363 27.8242C83.7218 27.8242 84.1847 27.5664 84.4425 27.2617V25.3398C84.4425 24.9648 84.6886 24.7246 85.0636 24.7246C85.4445 24.7246 85.6964 24.9648 85.6964 25.3398V30.502C85.6964 30.8711 85.4445 31.1113 85.0636 31.1113C84.6886 31.1113 84.4425 30.8711 84.4425 30.502V28.375H84.3605C84.0265 28.6914 83.5167 28.9023 82.837 28.9023ZM88.9922 31.1055C87.7852 31.1055 86.9355 30.3555 86.9355 29.248C86.9355 28.1699 87.7676 27.5078 89.2266 27.4258L90.9199 27.3262V26.8516C90.9199 26.166 90.457 25.7559 89.6836 25.7559C89.0742 25.7559 88.6699 25.9727 88.3184 26.5352C88.1895 26.7227 88.0254 26.8047 87.8027 26.8047C87.4863 26.8047 87.2578 26.5938 87.2578 26.2773C87.2578 26.1484 87.293 26.0078 87.3691 25.8672C87.6914 25.1699 88.623 24.7246 89.7305 24.7246C91.2246 24.7246 92.1797 25.5156 92.1797 26.752V30.4727C92.1797 30.8711 91.9277 31.1113 91.5703 31.1113C91.2188 31.1113 90.9785 30.8828 90.9668 30.5078V29.9863H90.9375C90.5801 30.6719 89.7949 31.1055 88.9922 31.1055ZM89.3379 30.1035C90.2227 30.1035 90.9199 29.4941 90.9199 28.6914V28.2051L89.3965 28.2988C88.6406 28.3516 88.2129 28.6855 88.2129 29.2129C88.2129 29.752 88.6641 30.1035 89.3379 30.1035ZM96.2665 31.1172C94.5028 31.1172 93.3544 29.8926 93.3544 27.9297C93.3544 25.9785 94.497 24.7246 96.2548 24.7246C97.4442 24.7246 98.4637 25.3574 98.7333 26.2188C98.7743 26.3184 98.7919 26.4238 98.7919 26.5117C98.7919 26.834 98.5634 27.0332 98.2528 27.0332C97.9833 27.0332 97.8309 26.9277 97.6786 26.6465C97.3622 26.0605 96.9286 25.7793 96.2841 25.7793C95.288 25.7793 94.6434 26.6055 94.6434 27.918C94.6434 29.2598 95.2997 30.0566 96.2782 30.0566C96.9637 30.0566 97.3798 29.752 97.6786 29.2188C97.8544 28.9141 97.995 28.8086 98.2645 28.8086C98.5751 28.8086 98.8036 29.0195 98.8036 29.3359C98.8036 29.4355 98.7802 29.541 98.7333 29.6641C98.411 30.5137 97.4091 31.1172 96.2665 31.1172ZM102.029 31.1113C101.654 31.1113 101.408 30.8711 101.408 30.502V25.8379H99.8611C99.5857 25.8379 99.3806 25.6504 99.3806 25.3457C99.3806 25.0469 99.5857 24.8359 99.8611 24.8359H104.215C104.484 24.8359 104.695 25.0469 104.695 25.3457C104.695 25.6504 104.484 25.8379 104.215 25.8379H102.668V30.502C102.668 30.8711 102.41 31.1113 102.029 31.1113ZM106.274 31.1113C105.893 31.1113 105.647 30.8477 105.647 30.4434V25.3984C105.647 24.9883 105.893 24.7246 106.274 24.7246C106.655 24.7246 106.907 24.9883 106.907 25.3984V27.3203H109.696V25.3984C109.696 24.9883 109.942 24.7246 110.329 24.7246C110.71 24.7246 110.956 24.9883 110.956 25.3984V30.4434C110.956 30.8477 110.71 31.1113 110.329 31.1113C109.942 31.1113 109.696 30.8477 109.696 30.4434V28.3164H106.907V30.4434C106.907 30.8477 106.655 31.1113 106.274 31.1113ZM113.138 31.1113C112.687 31.1113 112.447 30.8418 112.447 30.4082V25.375C112.447 24.9707 112.705 24.7246 113.068 24.7246C113.431 24.7246 113.695 24.9707 113.695 25.375V29.1543H113.742L116.349 25.2051C116.578 24.8535 116.794 24.7246 117.14 24.7246C117.562 24.7246 117.837 24.9941 117.837 25.4277V30.4609C117.837 30.8711 117.574 31.1113 117.21 31.1113C116.847 31.1113 116.589 30.8711 116.589 30.4609V26.6699H116.542L113.929 30.6367C113.701 30.9883 113.484 31.1113 113.138 31.1113ZM119.938 31.1113C119.563 31.1113 119.317 30.8711 119.317 30.502V25.3398C119.317 24.9648 119.563 24.7246 119.938 24.7246C120.319 24.7246 120.577 24.9648 120.577 25.3398V27.4727H120.623L123.114 24.9531C123.272 24.7832 123.395 24.7246 123.582 24.7246C123.899 24.7246 124.145 24.9473 124.145 25.252C124.145 25.416 124.104 25.5215 123.946 25.6738L121.819 27.7305L124.045 30.0918C124.18 30.2441 124.233 30.373 124.233 30.5312C124.233 30.8594 123.987 31.1113 123.653 31.1113C123.407 31.1113 123.243 31.0117 123.09 30.8301L120.623 28.1582H120.577V30.502C120.577 30.8711 120.319 31.1113 119.938 31.1113ZM128.068 31.1172C126.304 31.1172 125.144 29.9043 125.144 27.918C125.144 25.9375 126.31 24.7246 128.068 24.7246C129.825 24.7246 130.991 25.9375 130.991 27.918C130.991 29.9043 129.831 31.1172 128.068 31.1172ZM128.068 30.0742C129.064 30.0742 129.702 29.2891 129.702 27.918C129.702 26.5527 129.058 25.7676 128.068 25.7676C127.077 25.7676 126.433 26.5527 126.433 27.918C126.433 29.2891 127.077 30.0742 128.068 30.0742ZM132.858 31C132.447 31 132.201 30.7422 132.201 30.3203V25.5215C132.201 25.0938 132.447 24.8359 132.858 24.8359H135.002C136.203 24.8359 136.93 25.4336 136.93 26.4062C136.93 27.0449 136.473 27.625 135.881 27.7363V27.7832C136.678 27.8887 137.205 28.4512 137.205 29.2246C137.205 30.3086 136.373 31 135.037 31H132.858ZM133.449 27.373H134.621C135.336 27.373 135.694 27.0977 135.694 26.5527C135.694 26.043 135.36 25.7559 134.744 25.7559H133.449V27.373ZM133.449 30.0801H134.844C135.559 30.0801 135.945 29.7637 135.945 29.1719C135.945 28.5625 135.535 28.2578 134.703 28.2578H133.449V30.0801Z" fill="#617774"/>
<defs>
<clipPath id="clip0_625_62541">
<rect width="33" height="18" fill="white" transform="translate(0 8)"/>
</clipPath>
</defs>
</svg>
