<svg width="250" height="34" viewBox="0 0 250 34" fill="none" xmlns="http://www.w3.org/2000/svg">
<g clip-path="url(#clip0_625_60510)">
<path d="M6.40835 17.0308C8.05294 17.0308 9.43928 15.5666 9.43928 13.6665C9.43928 11.8072 8.0393 10.3906 6.40835 10.3906C4.77738 10.3906 3.37747 11.8344 3.37747 13.6801C3.37747 15.5666 4.76379 17.0308 6.40835 17.0308ZM1.46108 24.9173H11.3488C12.375 24.9173 12.8031 24.5087 12.8031 23.7187C12.8031 21.2737 10.3431 18.3793 6.40156 18.3793C2.46005 18.3793 0 21.2737 0 23.7187C0 24.5087 0.42813 24.9173 1.46108 24.9173Z" fill="#0C5151"/>
<path d="M26.612 17.0308C28.2565 17.0308 29.6361 15.5666 29.6361 13.6665C29.6361 11.8072 28.2429 10.3906 26.612 10.3906C24.9742 10.3906 23.5743 11.8344 23.5743 13.6801C23.5743 15.5666 24.9674 17.0308 26.612 17.0308ZM21.6578 24.9173H31.5456C32.5718 24.9173 32.9999 24.5087 32.9999 23.7187C32.9999 21.2737 30.5399 18.3793 26.5984 18.3793C22.6569 18.3793 20.1968 21.2737 20.1968 23.7187C20.1968 24.5087 20.625 24.9173 21.6578 24.9173Z" fill="#0C5151"/>
<path d="M10.5945 25.9998H22.4394C24.016 25.9998 24.9539 25.0123 24.9539 23.7864C24.9539 20.9056 21.6376 17.3232 16.5136 17.3232C11.3964 17.3232 8.08008 20.9056 8.08008 23.7864C8.08008 25.0123 9.0111 25.9998 10.5945 25.9998Z" fill="#E6F6F4"/>
<path d="M16.5204 16.8328C18.4163 16.8328 20.0066 15.1506 20.0066 12.9644C20.0066 10.8328 18.4028 9.20508 16.5204 9.20508C14.6447 9.20508 13.0409 10.86 13.0409 12.9781C13.0409 15.1506 14.6312 16.8328 16.5204 16.8328ZM10.5945 24.9168H22.4394C23.3229 24.9168 23.8666 24.4878 23.8666 23.7862C23.8666 21.5252 21.0463 18.406 16.5136 18.406C11.9808 18.406 9.16064 21.5252 9.16064 23.7862C9.16064 24.4878 9.70427 24.9168 10.5945 24.9168Z" fill="#0C5151"/>
</g>
<path d="M46.8676 5.13037C46.3622 5.13037 45.952 4.72021 45.952 4.22217C45.952 3.7168 46.3622 3.32129 46.8676 3.32129C47.3803 3.32129 47.7904 3.7168 47.7904 4.22217C47.7904 4.72021 47.3803 5.13037 46.8676 5.13037ZM46.8676 14.1392C46.3915 14.1392 46.0766 13.8096 46.0766 13.3042V6.99805C46.0766 6.48535 46.3915 6.15576 46.8676 6.15576C47.3437 6.15576 47.6586 6.48535 47.6586 6.99805V13.3042C47.6586 13.8096 47.3437 14.1392 46.8676 14.1392ZM54.0928 14.1758C51.1045 14.1758 49.2368 12.0811 49.2368 8.71191C49.2368 5.36475 51.1265 3.25537 54.0781 3.25537C56.019 3.25537 57.5718 4.2002 58.231 5.76025C58.3335 5.97266 58.3848 6.19238 58.3848 6.39014C58.3848 6.82959 58.0918 7.11523 57.6523 7.11523C57.2642 7.11523 57.0078 6.9248 56.8247 6.5C56.334 5.3208 55.2939 4.69092 54.0781 4.69092C52.1592 4.69092 50.9141 6.26562 50.9141 8.71191C50.9141 11.1802 52.1445 12.7402 54.0854 12.7402C55.3745 12.7402 56.3633 12.1909 56.854 11.0483C57.0298 10.6602 57.2422 10.499 57.6011 10.499C58.0479 10.499 58.3555 10.8066 58.3555 11.2388C58.3555 11.4658 58.2969 11.6782 58.1797 11.9199C57.4985 13.3481 56.0557 14.1758 54.0928 14.1758ZM60.8565 14.1392C60.3951 14.1392 60.0655 13.8242 60.0655 13.3042V4.12695C60.0655 3.60693 60.3951 3.29199 60.8565 3.29199C61.318 3.29199 61.6476 3.60693 61.6476 4.12695V13.3042C61.6476 13.8242 61.318 14.1392 60.8565 14.1392ZM66.7341 14.1465C64.5295 14.1465 63.0793 12.6304 63.0793 10.1475C63.0793 7.67188 64.5368 6.15576 66.7341 6.15576C68.9313 6.15576 70.3889 7.67188 70.3889 10.1475C70.3889 12.6304 68.9387 14.1465 66.7341 14.1465ZM66.7341 12.8428C67.9792 12.8428 68.7775 11.8613 68.7775 10.1475C68.7775 8.44092 67.9719 7.45947 66.7341 7.45947C65.4963 7.45947 64.6906 8.44092 64.6906 10.1475C64.6906 11.8613 65.4963 12.8428 66.7341 12.8428ZM74.428 14.1392C72.7508 14.1392 71.7254 13.0479 71.7254 11.2827V6.99805C71.7254 6.4707 72.0477 6.15576 72.5164 6.15576C72.9778 6.15576 73.3074 6.4707 73.3074 6.99805V10.9751C73.3074 12.147 73.8641 12.7769 74.9554 12.7769C76.0979 12.7769 76.7864 11.9858 76.7864 10.7847V6.99805C76.7864 6.4707 77.116 6.15576 77.5774 6.15576C78.0462 6.15576 78.3685 6.4707 78.3685 6.99805V13.3335C78.3685 13.8242 78.0682 14.1392 77.6141 14.1392C77.16 14.1392 76.8523 13.8242 76.8523 13.3408V12.6963H76.8157C76.3909 13.6191 75.6072 14.1392 74.428 14.1392ZM82.9789 14.1318C81.0307 14.1318 79.7416 12.5791 79.7416 10.1475C79.7416 7.71582 81.0307 6.17041 82.9643 6.17041C84.0702 6.17041 84.9491 6.72705 85.3812 7.57666H85.4105V4.12695C85.4105 3.60693 85.7401 3.29199 86.2089 3.29199C86.6703 3.29199 86.9999 3.60693 86.9999 4.12695V13.3481C86.9999 13.8462 86.6776 14.1392 86.2162 14.1392C85.7694 14.1392 85.4105 13.8462 85.4105 13.3481V12.6304H85.3886C84.9931 13.5312 84.1801 14.1318 82.9789 14.1318ZM83.3964 12.7915C84.6122 12.7915 85.4252 11.7588 85.4252 10.1475C85.4252 8.55078 84.6122 7.50342 83.3964 7.50342C82.1439 7.50342 81.3603 8.52881 81.3603 10.1475C81.3603 11.7734 82.1439 12.7915 83.3964 12.7915ZM92.9835 14.1172C92.4708 14.1172 92.1632 13.7949 92.1632 13.2676V4.28076C92.1632 3.75342 92.4708 3.43115 92.9835 3.43115H98.1104C98.5719 3.43115 98.8795 3.70947 98.8795 4.1416C98.8795 4.57373 98.5645 4.85205 98.1104 4.85205H93.8038V8.19189H97.7223C98.1617 8.19189 98.462 8.46289 98.462 8.88037C98.462 9.30518 98.1617 9.57617 97.7223 9.57617H93.8038V13.2676C93.8038 13.7949 93.4889 14.1172 92.9835 14.1172ZM101.952 14.1318C100.443 14.1318 99.3811 13.1943 99.3811 11.8101C99.3811 10.4624 100.421 9.63477 102.245 9.53223L104.362 9.40771V8.81445C104.362 7.95752 103.783 7.44482 102.816 7.44482C102.054 7.44482 101.549 7.71582 101.11 8.41895C100.948 8.65332 100.743 8.75586 100.465 8.75586C100.07 8.75586 99.7839 8.49219 99.7839 8.09668C99.7839 7.93555 99.8278 7.75977 99.923 7.58398C100.326 6.7124 101.49 6.15576 102.875 6.15576C104.742 6.15576 105.936 7.14453 105.936 8.68994V13.3408C105.936 13.8389 105.621 14.1392 105.175 14.1392C104.735 14.1392 104.435 13.8535 104.42 13.3848V12.7329H104.383C103.937 13.5898 102.955 14.1318 101.952 14.1318ZM102.384 12.8794C103.49 12.8794 104.362 12.1177 104.362 11.1143V10.5063L102.457 10.6235C101.512 10.6895 100.978 11.1069 100.978 11.7661C100.978 12.4399 101.542 12.8794 102.384 12.8794ZM108.415 14.1392C107.939 14.1392 107.624 13.8096 107.624 13.3042V6.96143C107.624 6.46338 107.932 6.15576 108.379 6.15576C108.818 6.15576 109.133 6.45605 109.133 6.96143V7.59131H109.17C109.514 6.73438 110.32 6.16309 111.36 6.16309C112.429 6.16309 113.205 6.7124 113.513 7.67188H113.55C113.945 6.73438 114.853 6.16309 115.952 6.16309C117.475 6.16309 118.471 7.17383 118.471 8.70459V13.3042C118.471 13.8096 118.149 14.1392 117.673 14.1392C117.197 14.1392 116.882 13.8096 116.882 13.3042V9.08545C116.882 8.08936 116.347 7.51807 115.41 7.51807C114.472 7.51807 113.821 8.21387 113.821 9.18799V13.3042C113.821 13.8096 113.52 14.1392 113.044 14.1392C112.568 14.1392 112.268 13.8096 112.268 13.3042V8.96826C112.268 8.08203 111.704 7.51807 110.81 7.51807C109.873 7.51807 109.206 8.25049 109.206 9.23926V13.3042C109.206 13.8096 108.891 14.1392 108.415 14.1392ZM120.995 5.13037C120.489 5.13037 120.079 4.72021 120.079 4.22217C120.079 3.7168 120.489 3.32129 120.995 3.32129C121.507 3.32129 121.917 3.7168 121.917 4.22217C121.917 4.72021 121.507 5.13037 120.995 5.13037ZM120.995 14.1392C120.518 14.1392 120.204 13.8096 120.204 13.3042V6.99805C120.204 6.48535 120.518 6.15576 120.995 6.15576C121.471 6.15576 121.786 6.48535 121.786 6.99805V13.3042C121.786 13.8096 121.471 14.1392 120.995 14.1392ZM124.404 14.1392C123.942 14.1392 123.613 13.8242 123.613 13.3042V4.12695C123.613 3.60693 123.942 3.29199 124.404 3.29199C124.865 3.29199 125.195 3.60693 125.195 4.12695V13.3042C125.195 13.8242 124.865 14.1392 124.404 14.1392ZM127.923 16.8711C127.191 16.8711 126.788 16.6001 126.788 16.1094C126.788 15.7725 127.022 15.5527 127.403 15.5527C127.571 15.5527 127.63 15.5601 127.813 15.5601C128.253 15.5601 128.699 15.3184 128.985 14.5273L129.131 14.0806L126.553 7.33496C126.495 7.17383 126.465 7.0127 126.465 6.88818C126.465 6.45605 126.81 6.15576 127.271 6.15576C127.667 6.15576 127.894 6.32422 128.033 6.76367L129.996 12.5645H130.018L131.988 6.76367C132.12 6.33154 132.339 6.15576 132.742 6.15576C133.196 6.15576 133.511 6.45605 133.511 6.88086C133.511 7.00537 133.482 7.1665 133.431 7.32031L130.757 14.3882C130.076 16.2412 129.351 16.8711 127.923 16.8711ZM138.931 14.1172C138.418 14.1172 138.111 13.7949 138.111 13.2676V4.28076C138.111 3.75342 138.418 3.43115 138.931 3.43115H142.073C144.124 3.43115 145.552 4.84473 145.552 6.90283C145.552 8.96826 144.095 10.3892 142.022 10.3892H139.751V13.2676C139.751 13.7949 139.436 14.1172 138.931 14.1172ZM139.751 9.01221H141.634C143.062 9.01221 143.875 8.24316 143.875 6.91016C143.875 5.57715 143.062 4.81543 141.641 4.81543H139.751V9.01221ZM147.797 14.1392C147.335 14.1392 147.006 13.8242 147.006 13.3042V4.12695C147.006 3.60693 147.335 3.29199 147.797 3.29199C148.258 3.29199 148.588 3.60693 148.588 4.12695V13.3042C148.588 13.8242 148.258 14.1392 147.797 14.1392ZM152.62 14.1318C151.111 14.1318 150.049 13.1943 150.049 11.8101C150.049 10.4624 151.089 9.63477 152.913 9.53223L155.029 9.40771V8.81445C155.029 7.95752 154.451 7.44482 153.484 7.44482C152.722 7.44482 152.217 7.71582 151.777 8.41895C151.616 8.65332 151.411 8.75586 151.133 8.75586C150.737 8.75586 150.452 8.49219 150.452 8.09668C150.452 7.93555 150.496 7.75977 150.591 7.58398C150.994 6.7124 152.158 6.15576 153.542 6.15576C155.41 6.15576 156.604 7.14453 156.604 8.68994V13.3408C156.604 13.8389 156.289 14.1392 155.842 14.1392C155.403 14.1392 155.103 13.8535 155.088 13.3848V12.7329H155.051C154.604 13.5898 153.623 14.1318 152.62 14.1318ZM153.052 12.8794C154.158 12.8794 155.029 12.1177 155.029 11.1143V10.5063L153.125 10.6235C152.18 10.6895 151.646 11.1069 151.646 11.7661C151.646 12.4399 152.209 12.8794 153.052 12.8794ZM159.083 14.1392C158.614 14.1392 158.292 13.8242 158.292 13.3042V6.9541C158.292 6.4707 158.585 6.15576 159.046 6.15576C159.501 6.15576 159.816 6.4707 159.816 6.96143V7.56934H159.852C160.27 6.69043 161.075 6.16309 162.262 6.16309C163.961 6.16309 164.935 7.24707 164.935 9.01221V13.3042C164.935 13.8242 164.606 14.1392 164.137 14.1392C163.675 14.1392 163.346 13.8242 163.346 13.3042V9.31982C163.346 8.1626 162.804 7.52539 161.705 7.52539C160.592 7.52539 159.874 8.31641 159.874 9.51025V13.3042C159.874 13.8242 159.545 14.1392 159.083 14.1392ZM170.655 5.13037C170.15 5.13037 169.74 4.72021 169.74 4.22217C169.74 3.7168 170.15 3.32129 170.655 3.32129C171.168 3.32129 171.578 3.7168 171.578 4.22217C171.578 4.72021 171.168 5.13037 170.655 5.13037ZM170.655 14.1392C170.179 14.1392 169.864 13.8096 169.864 13.3042V6.99805C169.864 6.48535 170.179 6.15576 170.655 6.15576C171.131 6.15576 171.446 6.48535 171.446 6.99805V13.3042C171.446 13.8096 171.131 14.1392 170.655 14.1392ZM176.057 14.1465C174.54 14.1465 173.427 13.5239 173.061 12.5791C173.01 12.4619 172.995 12.3521 172.995 12.2495C172.995 11.854 173.281 11.6196 173.676 11.6196C173.94 11.6196 174.167 11.7441 174.365 12.0371C174.76 12.6597 175.222 12.938 176.137 12.938C177.038 12.938 177.646 12.5498 177.646 11.9126C177.646 11.4072 177.346 11.1362 176.518 10.9385L175.302 10.6528C173.808 10.3013 173.076 9.56885 173.076 8.47021C173.076 7.07861 174.284 6.15576 176.115 6.15576C177.507 6.15576 178.649 6.86621 178.869 7.77441C178.884 7.8623 178.898 7.93555 178.898 8.00879C178.898 8.36035 178.679 8.59473 178.283 8.59473C178.027 8.59473 177.8 8.50684 177.646 8.25781C177.302 7.67188 176.833 7.36426 176.057 7.36426C175.207 7.36426 174.621 7.78174 174.621 8.38232C174.621 8.86572 174.995 9.20264 175.808 9.39307L177.001 9.67139C178.62 10.0449 179.243 10.6235 179.243 11.7661C179.243 13.1943 177.961 14.1465 176.057 14.1465ZM181.077 12.1543V7.54736H180.521C180.11 7.54736 179.861 7.31299 179.861 6.9248C179.861 6.5293 180.11 6.29492 180.521 6.29492H181.077V5.15234C181.077 4.64697 181.392 4.31006 181.875 4.31006C182.352 4.31006 182.667 4.64697 182.667 5.15234V6.29492H183.567C183.978 6.29492 184.227 6.53662 184.227 6.9248C184.227 7.31299 183.978 7.54736 183.567 7.54736H182.667V11.8027C182.667 12.418 182.879 12.6963 183.45 12.7402L183.575 12.7476C184.029 12.7915 184.256 12.9746 184.256 13.3481C184.256 13.8242 183.89 14.0659 183.113 14.0659H183.033C181.736 14.0659 181.077 13.4287 181.077 12.1543ZM189.624 5.13037C189.119 5.13037 188.709 4.72021 188.709 4.22217C188.709 3.7168 189.119 3.32129 189.624 3.32129C190.137 3.32129 190.547 3.7168 190.547 4.22217C190.547 4.72021 190.137 5.13037 189.624 5.13037ZM189.624 14.1392C189.148 14.1392 188.833 13.8096 188.833 13.3042V6.99805C188.833 6.48535 189.148 6.15576 189.624 6.15576C190.1 6.15576 190.415 6.48535 190.415 6.99805V13.3042C190.415 13.8096 190.1 14.1392 189.624 14.1392ZM192.975 14.1392C192.506 14.1392 192.184 13.8242 192.184 13.3042V6.9541C192.184 6.4707 192.477 6.15576 192.938 6.15576C193.392 6.15576 193.707 6.4707 193.707 6.96143V7.56934H193.744C194.161 6.69043 194.967 6.16309 196.154 6.16309C197.853 6.16309 198.827 7.24707 198.827 9.01221V13.3042C198.827 13.8242 198.497 14.1392 198.029 14.1392C197.567 14.1392 197.238 13.8242 197.238 13.3042V9.31982C197.238 8.1626 196.696 7.52539 195.597 7.52539C194.484 7.52539 193.766 8.31641 193.766 9.51025V13.3042C193.766 13.8242 193.436 14.1392 192.975 14.1392ZM201.357 14.1392C200.896 14.1392 200.566 13.8242 200.566 13.3042V4.12695C200.566 3.60693 200.896 3.29199 201.357 3.29199C201.819 3.29199 202.148 3.60693 202.148 4.12695V9.5835H202.163L205.364 6.44873C205.561 6.23633 205.73 6.15576 205.964 6.15576C206.352 6.15576 206.653 6.45605 206.653 6.82959C206.653 7.05664 206.587 7.20312 206.382 7.39355L204.001 9.64941L206.616 12.8867C206.785 13.0991 206.829 13.2456 206.829 13.4434C206.829 13.8462 206.514 14.1392 206.089 14.1392C205.796 14.1392 205.62 14.0439 205.408 13.751L202.851 10.5869L202.148 11.2461V13.3042C202.148 13.8242 201.819 14.1392 201.357 14.1392ZM209.081 14.1392C208.619 14.1392 208.29 13.8242 208.29 13.3042V4.12695C208.29 3.60693 208.619 3.29199 209.081 3.29199C209.542 3.29199 209.872 3.60693 209.872 4.12695V13.3042C209.872 13.8242 209.542 14.1392 209.081 14.1392ZM214.314 14.1392C212.636 14.1392 211.611 13.0479 211.611 11.2827V6.99805C211.611 6.4707 211.933 6.15576 212.402 6.15576C212.863 6.15576 213.193 6.4707 213.193 6.99805V10.9751C213.193 12.147 213.75 12.7769 214.841 12.7769C215.983 12.7769 216.672 11.9858 216.672 10.7847V6.99805C216.672 6.4707 217.002 6.15576 217.463 6.15576C217.932 6.15576 218.254 6.4707 218.254 6.99805V13.3335C218.254 13.8242 217.954 14.1392 217.5 14.1392C217.046 14.1392 216.738 13.8242 216.738 13.3408V12.6963H216.701C216.276 13.6191 215.493 14.1392 214.314 14.1392ZM222.813 14.1465C221.297 14.1465 220.184 13.5239 219.818 12.5791C219.766 12.4619 219.752 12.3521 219.752 12.2495C219.752 11.854 220.037 11.6196 220.433 11.6196C220.696 11.6196 220.924 11.7441 221.121 12.0371C221.517 12.6597 221.978 12.938 222.894 12.938C223.795 12.938 224.403 12.5498 224.403 11.9126C224.403 11.4072 224.102 11.1362 223.275 10.9385L222.059 10.6528C220.565 10.3013 219.832 9.56885 219.832 8.47021C219.832 7.07861 221.041 6.15576 222.872 6.15576C224.263 6.15576 225.406 6.86621 225.626 7.77441C225.64 7.8623 225.655 7.93555 225.655 8.00879C225.655 8.36035 225.435 8.59473 225.04 8.59473C224.783 8.59473 224.556 8.50684 224.403 8.25781C224.058 7.67188 223.59 7.36426 222.813 7.36426C221.964 7.36426 221.378 7.78174 221.378 8.38232C221.378 8.86572 221.751 9.20264 222.564 9.39307L223.758 9.67139C225.377 10.0449 225.999 10.6235 225.999 11.7661C225.999 13.1943 224.717 14.1465 222.813 14.1465ZM228.215 5.13037C227.709 5.13037 227.299 4.72021 227.299 4.22217C227.299 3.7168 227.709 3.32129 228.215 3.32129C228.727 3.32129 229.138 3.7168 229.138 4.22217C229.138 4.72021 228.727 5.13037 228.215 5.13037ZM228.215 14.1392C227.739 14.1392 227.424 13.8096 227.424 13.3042V6.99805C227.424 6.48535 227.739 6.15576 228.215 6.15576C228.691 6.15576 229.006 6.48535 229.006 6.99805V13.3042C229.006 13.8096 228.691 14.1392 228.215 14.1392ZM233.741 14.1392C233.177 14.1392 232.869 13.9048 232.649 13.3335L230.364 7.32031C230.313 7.18115 230.276 7.02734 230.276 6.88086C230.276 6.44141 230.613 6.15576 231.075 6.15576C231.441 6.15576 231.69 6.35352 231.822 6.77832L233.733 12.4546H233.763L235.674 6.76367C235.806 6.35352 236.055 6.15576 236.414 6.15576C236.868 6.15576 237.19 6.45605 237.19 6.87354C237.19 7.0127 237.161 7.1665 237.11 7.29834L234.825 13.3335C234.62 13.8901 234.283 14.1392 233.741 14.1392ZM241.53 14.1465C239.208 14.1465 237.846 12.6743 237.846 10.1841C237.846 7.73779 239.237 6.15576 241.42 6.15576C243.471 6.15576 244.884 7.63525 244.884 9.7373C244.884 10.25 244.591 10.543 244.101 10.543H239.442V10.5796C239.442 11.9858 240.233 12.8647 241.493 12.8647C242.357 12.8647 242.899 12.5645 243.485 11.7661C243.654 11.5684 243.815 11.4878 244.042 11.4878C244.423 11.4878 244.701 11.7368 244.701 12.1323C244.701 12.2568 244.657 12.4033 244.591 12.5571C244.086 13.5679 242.965 14.1465 241.53 14.1465ZM239.45 9.43701H243.302C243.266 8.22852 242.511 7.43018 241.413 7.43018C240.321 7.43018 239.53 8.23584 239.45 9.43701ZM247.612 10.6089C247.166 10.6089 246.917 10.3232 246.902 9.86182L246.814 4.17822C246.814 4.14893 246.814 4.11963 246.814 4.09766C246.814 3.60693 247.144 3.29199 247.62 3.29199C248.088 3.29199 248.418 3.60693 248.418 4.09766C248.418 4.11963 248.418 4.14893 248.418 4.17822L248.33 9.86182C248.316 10.3232 248.066 10.6089 247.612 10.6089ZM247.612 14.1099C247.078 14.1099 246.653 13.6997 246.653 13.165C246.653 12.6304 247.078 12.2202 247.612 12.2202C248.162 12.2202 248.579 12.6304 248.579 13.165C248.579 13.6997 248.162 14.1099 247.612 14.1099Z" fill="#1A645A"/>
<path d="M46.5118 31C46.1016 31 45.8555 30.7422 45.8555 30.3203V23.2246C45.8555 22.8027 46.1016 22.5449 46.5118 22.5449H49.2305C50.7305 22.5449 51.7149 23.377 51.7149 24.6543C51.7149 25.5508 51.0528 26.3535 50.2091 26.4941V26.541C51.3575 26.6699 52.1309 27.4844 52.1309 28.6094C52.1309 30.0977 51.047 31 49.2481 31H46.5118ZM47.168 26.1426H48.6387C49.7755 26.1426 50.4024 25.6738 50.4024 24.8359C50.4024 24.0508 49.8634 23.6172 48.9141 23.6172H47.168V26.1426ZM47.168 29.9277H48.9786C50.1622 29.9277 50.7891 29.4414 50.7891 28.5273C50.7891 27.6133 50.1446 27.1445 48.9024 27.1445H47.168V29.9277ZM53.9033 23.9043C53.499 23.9043 53.1709 23.5762 53.1709 23.1777C53.1709 22.7734 53.499 22.457 53.9033 22.457C54.3134 22.457 54.6416 22.7734 54.6416 23.1777C54.6416 23.5762 54.3134 23.9043 53.9033 23.9043ZM53.9033 31.1113C53.5224 31.1113 53.2705 30.8477 53.2705 30.4434V25.3984C53.2705 24.9883 53.5224 24.7246 53.9033 24.7246C54.2841 24.7246 54.5361 24.9883 54.5361 25.3984V30.4434C54.5361 30.8477 54.2841 31.1113 53.9033 31.1113ZM58.2245 31.1172C57.0116 31.1172 56.1209 30.6191 55.828 29.8633C55.787 29.7695 55.7752 29.6816 55.7752 29.5996C55.7752 29.2832 56.0037 29.0957 56.3202 29.0957C56.5311 29.0957 56.7127 29.1953 56.8709 29.4297C57.1873 29.9277 57.5565 30.1504 58.2889 30.1504C59.0096 30.1504 59.4959 29.8398 59.4959 29.3301C59.4959 28.9258 59.2557 28.709 58.5936 28.5508L57.6209 28.3223C56.4256 28.041 55.8397 27.4551 55.8397 26.5762C55.8397 25.4629 56.8065 24.7246 58.2713 24.7246C59.3846 24.7246 60.2987 25.293 60.4745 26.0195C60.4862 26.0898 60.4979 26.1484 60.4979 26.207C60.4979 26.4883 60.3221 26.6758 60.0057 26.6758C59.8006 26.6758 59.619 26.6055 59.4959 26.4062C59.2205 25.9375 58.8455 25.6914 58.2245 25.6914C57.5448 25.6914 57.076 26.0254 57.076 26.5059C57.076 26.8926 57.3748 27.1621 58.0252 27.3145L58.9803 27.5371C60.2752 27.8359 60.7733 28.2988 60.7733 29.2129C60.7733 30.3555 59.7479 31.1172 58.2245 31.1172ZM64.9098 31C64.5406 31 64.2945 30.7773 64.2945 30.4316C64.2945 30.2383 64.3473 30.1152 64.4937 29.9336L67.5875 25.8672V25.8438H64.7926C64.4527 25.8438 64.2535 25.6621 64.2535 25.3398C64.2535 25.0234 64.4469 24.8359 64.7926 24.8359H68.3668C68.7945 24.8359 69.0523 25.0645 69.0523 25.4453C69.0523 25.6445 68.982 25.7969 68.8004 26.043L65.8355 29.9688V29.9922H68.6129C68.9586 29.9922 69.152 30.1738 69.152 30.4961C69.152 30.8184 68.9527 31 68.6129 31H64.9098ZM72.4595 31.1113C71.1177 31.1113 70.2973 30.2383 70.2973 28.8262V25.3984C70.2973 24.9766 70.5552 24.7246 70.9302 24.7246C71.2993 24.7246 71.563 24.9766 71.563 25.3984V28.5801C71.563 29.5176 72.0083 30.0215 72.8813 30.0215C73.7954 30.0215 74.3462 29.3887 74.3462 28.4277V25.3984C74.3462 24.9766 74.6098 24.7246 74.979 24.7246C75.354 24.7246 75.6118 24.9766 75.6118 25.3984V30.4668C75.6118 30.8594 75.3716 31.1113 75.0083 31.1113C74.645 31.1113 74.3989 30.8594 74.3989 30.4727V29.957H74.3696C74.0298 30.6953 73.4028 31.1113 72.4595 31.1113ZM82.7541 31.1641C81.4592 31.1641 80.4338 30.4961 79.8772 29.2715C79.5784 28.6152 79.4319 27.8301 79.4319 26.8867C79.4319 24.0566 80.6858 22.3809 82.801 22.3809C84.0022 22.3809 84.9631 22.9199 85.4143 23.7344C85.508 23.9043 85.5549 24.0566 85.5549 24.2207C85.5549 24.5312 85.3264 24.7598 84.9807 24.7598C84.717 24.7598 84.5471 24.6367 84.3362 24.3379C83.9377 23.752 83.4573 23.4824 82.7893 23.4824C81.4651 23.4824 80.7268 24.6777 80.6916 26.7402V26.8164H80.7151C81.0549 26.0488 81.9104 25.4512 83.0588 25.4512C84.676 25.4512 85.842 26.6348 85.842 28.2344C85.842 29.9336 84.5412 31.1641 82.7541 31.1641ZM82.7366 30.0566C83.7444 30.0566 84.5354 29.2715 84.5354 28.2812C84.5354 27.2559 83.7912 26.5176 82.7541 26.5176C81.717 26.5176 80.9495 27.25 80.9495 28.252C80.9495 29.2598 81.7346 30.0566 82.7366 30.0566ZM90.3535 31.0938C89.9785 31.0938 89.7559 30.8594 89.7559 30.4668V23.2832C89.7559 22.7734 90.0781 22.4512 90.5996 22.4512C91.0449 22.4512 91.3086 22.6504 91.5078 23.1426L94.0098 29.2188H94.0566L96.5527 23.1426C96.752 22.6562 97.0215 22.4512 97.4785 22.4512C97.9883 22.4512 98.3105 22.7676 98.3105 23.2832V30.4668C98.3105 30.8594 98.082 31.0938 97.7129 31.0938C97.3379 31.0938 97.1094 30.8594 97.1094 30.4668V24.7773H97.0684L94.7129 30.4551C94.5723 30.7949 94.3613 30.9473 94.0332 30.9473C93.7051 30.9473 93.4883 30.7949 93.3535 30.4668L90.9922 24.7773H90.9512V30.4668C90.9512 30.8594 90.7285 31.0938 90.3535 31.0938ZM100.511 23.9043C100.106 23.9043 99.7782 23.5762 99.7782 23.1777C99.7782 22.7734 100.106 22.457 100.511 22.457C100.921 22.457 101.249 22.7734 101.249 23.1777C101.249 23.5762 100.921 23.9043 100.511 23.9043ZM100.511 31.1113C100.13 31.1113 99.8778 30.8477 99.8778 30.4434V25.3984C99.8778 24.9883 100.13 24.7246 100.511 24.7246C100.891 24.7246 101.143 24.9883 101.143 25.3984V30.4434C101.143 30.8477 100.891 31.1113 100.511 31.1113ZM102.927 29.5234V25.8379H102.482C102.154 25.8379 101.955 25.6504 101.955 25.3398C101.955 25.0234 102.154 24.8359 102.482 24.8359H102.927V23.9219C102.927 23.5176 103.179 23.248 103.566 23.248C103.947 23.248 104.199 23.5176 104.199 23.9219V24.8359H104.92C105.248 24.8359 105.447 25.0293 105.447 25.3398C105.447 25.6504 105.248 25.8379 104.92 25.8379H104.199V29.2422C104.199 29.7344 104.369 29.957 104.826 29.9922L104.926 29.998C105.289 30.0332 105.47 30.1797 105.47 30.4785C105.47 30.8594 105.177 31.0527 104.556 31.0527H104.492C103.455 31.0527 102.927 30.543 102.927 29.5234ZM108.965 33.3203C107.846 33.3086 106.962 32.875 106.54 32.207C106.458 32.0664 106.422 31.9375 106.422 31.791C106.422 31.498 106.639 31.2871 106.962 31.2871C107.155 31.2871 107.278 31.3516 107.448 31.5215C107.952 32.0488 108.385 32.2773 108.989 32.2891C110.02 32.3008 110.647 31.7148 110.647 30.8535V29.875H110.618C110.272 30.543 109.546 30.9824 108.667 30.9824C107.114 30.9824 106.106 29.7695 106.106 27.8652C106.106 25.9375 107.102 24.7363 108.696 24.7363C109.569 24.7363 110.249 25.1758 110.624 25.873H110.647V25.375C110.647 24.9648 110.922 24.7246 111.286 24.7246C111.649 24.7246 111.919 24.9648 111.919 25.375V30.8301C111.919 32.3535 110.799 33.3379 108.965 33.3203ZM109.006 29.9512C109.997 29.9512 110.653 29.1426 110.653 27.877C110.653 26.6113 109.997 25.7793 109.006 25.7793C108.034 25.7793 107.401 26.5879 107.401 27.8711C107.401 29.1602 108.034 29.9512 109.006 29.9512ZM113.966 31.1113C113.597 31.1113 113.334 30.8594 113.334 30.4434V23.1016C113.334 22.6855 113.597 22.4336 113.966 22.4336C114.335 22.4336 114.599 22.6855 114.599 23.1016V30.4434C114.599 30.8594 114.335 31.1113 113.966 31.1113ZM116.694 23.9043C116.289 23.9043 115.961 23.5762 115.961 23.1777C115.961 22.7734 116.289 22.457 116.694 22.457C117.104 22.457 117.432 22.7734 117.432 23.1777C117.432 23.5762 117.104 23.9043 116.694 23.9043ZM116.694 31.1113C116.313 31.1113 116.061 30.8477 116.061 30.4434V25.3984C116.061 24.9883 116.313 24.7246 116.694 24.7246C117.075 24.7246 117.327 24.9883 117.327 25.3984V30.4434C117.327 30.8477 117.075 31.1113 116.694 31.1113ZM121.413 31.1172C119.556 31.1172 118.466 29.9395 118.466 27.9473C118.466 25.9902 119.579 24.7246 121.325 24.7246C122.966 24.7246 124.097 25.9082 124.097 27.5898C124.097 28 123.863 28.2344 123.47 28.2344H119.743V28.2637C119.743 29.3887 120.376 30.0918 121.384 30.0918C122.075 30.0918 122.509 29.8516 122.978 29.2129C123.113 29.0547 123.241 28.9902 123.423 28.9902C123.728 28.9902 123.95 29.1895 123.95 29.5059C123.95 29.6055 123.915 29.7227 123.863 29.8457C123.458 30.6543 122.562 31.1172 121.413 31.1172ZM119.749 27.3496H122.831C122.802 26.3828 122.199 25.7441 121.32 25.7441C120.447 25.7441 119.814 26.3887 119.749 27.3496ZM127.516 31.1055C125.957 31.1055 124.926 29.8633 124.926 27.918C124.926 25.9727 125.957 24.7363 127.504 24.7363C128.389 24.7363 129.092 25.1816 129.438 25.8613H129.461V23.1016C129.461 22.6855 129.725 22.4336 130.1 22.4336C130.469 22.4336 130.733 22.6855 130.733 23.1016V30.4785C130.733 30.877 130.475 31.1113 130.106 31.1113C129.748 31.1113 129.461 30.877 129.461 30.4785V29.9043H129.444C129.127 30.625 128.477 31.1055 127.516 31.1055ZM127.85 30.0332C128.822 30.0332 129.473 29.207 129.473 27.918C129.473 26.6406 128.822 25.8027 127.85 25.8027C126.848 25.8027 126.221 26.623 126.221 27.918C126.221 29.2188 126.848 30.0332 127.85 30.0332ZM134.825 31.1172C132.968 31.1172 131.878 29.9395 131.878 27.9473C131.878 25.9902 132.991 24.7246 134.737 24.7246C136.378 24.7246 137.509 25.9082 137.509 27.5898C137.509 28 137.274 28.2344 136.882 28.2344H133.155V28.2637C133.155 29.3887 133.788 30.0918 134.796 30.0918C135.487 30.0918 135.921 29.8516 136.39 29.2129C136.524 29.0547 136.653 28.9902 136.835 28.9902C137.14 28.9902 137.362 29.1895 137.362 29.5059C137.362 29.6055 137.327 29.7227 137.274 29.8457C136.87 30.6543 135.974 31.1172 134.825 31.1172ZM133.161 27.3496H136.243C136.214 26.3828 135.61 25.7441 134.731 25.7441C133.858 25.7441 133.226 26.3887 133.161 27.3496ZM139.246 31.1113C138.865 31.1113 138.613 30.8535 138.613 30.4434V25.3633C138.613 24.9766 138.859 24.7246 139.217 24.7246C139.568 24.7246 139.814 24.9766 139.814 25.3633V25.8906H139.844C140.014 25.1992 140.582 24.7363 141.197 24.7363C141.42 24.7363 141.59 24.7891 141.695 24.8887C141.812 24.9824 141.865 25.1348 141.865 25.334C141.865 25.5332 141.801 25.6797 141.678 25.7793C141.549 25.8906 141.361 25.9434 141.098 25.9434C140.23 25.9492 139.879 26.5293 139.879 27.2969V30.4434C139.879 30.8535 139.621 31.1113 139.246 31.1113Z" fill="#617774"/>
<defs>
<clipPath id="clip0_625_60510">
<rect width="33" height="18" fill="white" transform="translate(0 8)"/>
</clipPath>
</defs>
</svg>
