<svg width="263" height="34" viewBox="0 0 263 34" fill="none" xmlns="http://www.w3.org/2000/svg">
<g clip-path="url(#clip0_625_62552)">
<path d="M6.90835 17.0308C8.55294 17.0308 9.93928 15.5666 9.93928 13.6665C9.93928 11.8072 8.5393 10.3906 6.90835 10.3906C5.27738 10.3906 3.87747 11.8344 3.87747 13.6801C3.87747 15.5666 5.26379 17.0308 6.90835 17.0308ZM1.96108 24.9173H11.8488C12.875 24.9173 13.3031 24.5087 13.3031 23.7187C13.3031 21.2737 10.8431 18.3793 6.90156 18.3793C2.96005 18.3793 0.5 21.2737 0.5 23.7187C0.5 24.5087 0.92813 24.9173 1.96108 24.9173Z" fill="#0C5151"/>
<path d="M27.112 17.0308C28.7565 17.0308 30.1361 15.5666 30.1361 13.6665C30.1361 11.8072 28.7429 10.3906 27.112 10.3906C25.4742 10.3906 24.0743 11.8344 24.0743 13.6801C24.0743 15.5666 25.4674 17.0308 27.112 17.0308ZM22.1578 24.9173H32.0456C33.0718 24.9173 33.4999 24.5087 33.4999 23.7187C33.4999 21.2737 31.0399 18.3793 27.0984 18.3793C23.1569 18.3793 20.6968 21.2737 20.6968 23.7187C20.6968 24.5087 21.125 24.9173 22.1578 24.9173Z" fill="#0C5151"/>
<path d="M11.0945 25.9998H22.9394C24.516 25.9998 25.4539 25.0123 25.4539 23.7864C25.4539 20.9056 22.1376 17.3232 17.0136 17.3232C11.8964 17.3232 8.58008 20.9056 8.58008 23.7864C8.58008 25.0123 9.5111 25.9998 11.0945 25.9998Z" fill="#E6F6F4"/>
<path d="M17.0204 16.8328C18.9163 16.8328 20.5066 15.1506 20.5066 12.9644C20.5066 10.8328 18.9028 9.20508 17.0204 9.20508C15.1447 9.20508 13.5409 10.86 13.5409 12.9781C13.5409 15.1506 15.1312 16.8328 17.0204 16.8328ZM11.0945 24.9168H22.9394C23.8229 24.9168 24.3666 24.4878 24.3666 23.7862C24.3666 21.5252 21.5463 18.406 17.0136 18.406C12.4808 18.406 9.66064 21.5252 9.66064 23.7862C9.66064 24.4878 10.2043 24.9168 11.0945 24.9168Z" fill="#0C5151"/>
</g>
<path d="M47.6421 14C47.1294 14 46.8218 13.6777 46.8218 13.1504V4.16357C46.8218 3.63623 47.1294 3.31396 47.6421 3.31396C48.1475 3.31396 48.4624 3.63623 48.4624 4.16357V12.5791H52.7397C53.1938 12.5791 53.5015 12.8574 53.5015 13.2896C53.5015 13.7217 53.1938 14 52.7397 14H47.6421ZM57.8995 14.1465C55.5777 14.1465 54.2154 12.6743 54.2154 10.1841C54.2154 7.73779 55.607 6.15576 57.7896 6.15576C59.8404 6.15576 61.254 7.63525 61.254 9.7373C61.254 10.25 60.961 10.543 60.4703 10.543H55.8121V10.5796C55.8121 11.9858 56.6031 12.8647 57.8629 12.8647C58.7271 12.8647 59.2691 12.5645 59.8551 11.7661C60.0235 11.5684 60.1847 11.4878 60.4117 11.4878C60.7926 11.4878 61.0709 11.7368 61.0709 12.1323C61.0709 12.2568 61.027 12.4033 60.961 12.5571C60.4557 13.5679 59.3351 14.1465 57.8995 14.1465ZM55.8194 9.43701H59.672C59.6354 8.22852 58.881 7.43018 57.7823 7.43018C56.691 7.43018 55.9 8.23584 55.8194 9.43701ZM66.6224 16.7319C66.1536 16.7319 65.8313 16.4097 65.8313 15.8896V6.96875C65.8313 6.46338 66.1463 6.15576 66.5931 6.15576C67.0398 6.15576 67.3621 6.46338 67.3621 6.96875V7.62061H67.3914C67.8455 6.73438 68.7317 6.17041 69.845 6.17041C71.8006 6.17041 73.0896 7.7085 73.0896 10.1475C73.0896 12.5864 71.8079 14.1318 69.8743 14.1318C68.7684 14.1318 67.8895 13.5898 67.45 12.7329H67.4134V15.8896C67.4134 16.4097 67.0838 16.7319 66.6224 16.7319ZM69.4275 12.7915C70.68 12.7915 71.4637 11.7661 71.4637 10.1475C71.4637 8.53613 70.68 7.50342 69.4275 7.50342C68.219 7.50342 67.4061 8.55811 67.4061 10.1475C67.4061 11.7515 68.2117 12.7915 69.4275 12.7915ZM75.3124 14.1392C74.851 14.1392 74.5214 13.8242 74.5214 13.3042V4.12695C74.5214 3.60693 74.851 3.29199 75.3124 3.29199C75.7738 3.29199 76.1034 3.60693 76.1034 4.12695V13.3042C76.1034 13.8242 75.7738 14.1392 75.3124 14.1392ZM80.1353 14.1318C78.6265 14.1318 77.5645 13.1943 77.5645 11.8101C77.5645 10.4624 78.6045 9.63477 80.4282 9.53223L82.5449 9.40771V8.81445C82.5449 7.95752 81.9663 7.44482 80.9995 7.44482C80.2378 7.44482 79.7324 7.71582 79.293 8.41895C79.1318 8.65332 78.9268 8.75586 78.6484 8.75586C78.2529 8.75586 77.9673 8.49219 77.9673 8.09668C77.9673 7.93555 78.0112 7.75977 78.1064 7.58398C78.5093 6.7124 79.6738 6.15576 81.0581 6.15576C82.9258 6.15576 84.1196 7.14453 84.1196 8.68994V13.3408C84.1196 13.8389 83.8047 14.1392 83.3579 14.1392C82.9185 14.1392 82.6182 13.8535 82.6035 13.3848V12.7329H82.5669C82.1201 13.5898 81.1387 14.1318 80.1353 14.1318ZM80.5674 12.8794C81.6733 12.8794 82.5449 12.1177 82.5449 11.1143V10.5063L80.6406 10.6235C79.6958 10.6895 79.1611 11.1069 79.1611 11.7661C79.1611 12.4399 79.7251 12.8794 80.5674 12.8794ZM86.5987 14.1392C86.13 14.1392 85.8077 13.8242 85.8077 13.3042V6.9541C85.8077 6.4707 86.1007 6.15576 86.5621 6.15576C87.0162 6.15576 87.3312 6.4707 87.3312 6.96143V7.56934H87.3678C87.7853 6.69043 88.5909 6.16309 89.7774 6.16309C91.4767 6.16309 92.4508 7.24707 92.4508 9.01221V13.3042C92.4508 13.8242 92.1212 14.1392 91.6524 14.1392C91.191 14.1392 90.8614 13.8242 90.8614 13.3042V9.31982C90.8614 8.1626 90.3194 7.52539 89.2208 7.52539C88.1075 7.52539 87.3897 8.31641 87.3897 9.51025V13.3042C87.3897 13.8242 87.0602 14.1392 86.5987 14.1392ZM98.5882 14.1392C98.1048 14.1392 97.7898 13.8389 97.7898 13.3115V7.54736H97.2405C96.867 7.54736 96.6106 7.32764 96.6106 6.93213C96.6106 6.55127 96.867 6.30957 97.2405 6.30957H97.7898V5.55518C97.7898 4.06104 98.5149 3.36523 99.8406 3.35791C100.683 3.35791 101.086 3.62891 101.086 4.05371C101.086 4.31006 100.961 4.46387 100.705 4.53711C100.595 4.56641 100.463 4.58838 100.302 4.58838C99.6355 4.5957 99.3572 4.91064 99.3572 5.61377V6.30957H100.397C100.771 6.30957 101.027 6.55127 101.027 6.93213C101.027 7.32764 100.771 7.54736 100.397 7.54736H99.3792V13.3115C99.3792 13.8389 99.0643 14.1392 98.5882 14.1392ZM104.143 14.1318C102.635 14.1318 101.573 13.1943 101.573 11.8101C101.573 10.4624 102.613 9.63477 104.436 9.53223L106.553 9.40771V8.81445C106.553 7.95752 105.975 7.44482 105.008 7.44482C104.246 7.44482 103.741 7.71582 103.301 8.41895C103.14 8.65332 102.935 8.75586 102.657 8.75586C102.261 8.75586 101.975 8.49219 101.975 8.09668C101.975 7.93555 102.019 7.75977 102.115 7.58398C102.517 6.7124 103.682 6.15576 105.066 6.15576C106.934 6.15576 108.128 7.14453 108.128 8.68994V13.3408C108.128 13.8389 107.813 14.1392 107.366 14.1392C106.927 14.1392 106.626 13.8535 106.612 13.3848V12.7329H106.575C106.128 13.5898 105.147 14.1318 104.143 14.1318ZM104.576 12.8794C105.682 12.8794 106.553 12.1177 106.553 11.1143V10.5063L104.649 10.6235C103.704 10.6895 103.169 11.1069 103.169 11.7661C103.169 12.4399 103.733 12.8794 104.576 12.8794ZM110.607 14.1392C110.131 14.1392 109.816 13.8096 109.816 13.3042V6.96143C109.816 6.46338 110.124 6.15576 110.57 6.15576C111.01 6.15576 111.325 6.45605 111.325 6.96143V7.59131H111.361C111.706 6.73438 112.511 6.16309 113.551 6.16309C114.621 6.16309 115.397 6.7124 115.705 7.67188H115.741C116.137 6.73438 117.045 6.16309 118.144 6.16309C119.667 6.16309 120.663 7.17383 120.663 8.70459V13.3042C120.663 13.8096 120.341 14.1392 119.865 14.1392C119.389 14.1392 119.074 13.8096 119.074 13.3042V9.08545C119.074 8.08936 118.539 7.51807 117.602 7.51807C116.664 7.51807 116.012 8.21387 116.012 9.18799V13.3042C116.012 13.8096 115.712 14.1392 115.236 14.1392C114.76 14.1392 114.459 13.8096 114.459 13.3042V8.96826C114.459 8.08203 113.896 7.51807 113.002 7.51807C112.064 7.51807 111.398 8.25049 111.398 9.23926V13.3042C111.398 13.8096 111.083 14.1392 110.607 14.1392ZM123.186 5.13037C122.681 5.13037 122.271 4.72021 122.271 4.22217C122.271 3.7168 122.681 3.32129 123.186 3.32129C123.699 3.32129 124.109 3.7168 124.109 4.22217C124.109 4.72021 123.699 5.13037 123.186 5.13037ZM123.186 14.1392C122.71 14.1392 122.395 13.8096 122.395 13.3042V6.99805C122.395 6.48535 122.71 6.15576 123.186 6.15576C123.662 6.15576 123.977 6.48535 123.977 6.99805V13.3042C123.977 13.8096 123.662 14.1392 123.186 14.1392ZM126.595 14.1392C126.134 14.1392 125.804 13.8242 125.804 13.3042V4.12695C125.804 3.60693 126.134 3.29199 126.595 3.29199C127.057 3.29199 127.386 3.60693 127.386 4.12695V13.3042C127.386 13.8242 127.057 14.1392 126.595 14.1392ZM130.005 5.13037C129.499 5.13037 129.089 4.72021 129.089 4.22217C129.089 3.7168 129.499 3.32129 130.005 3.32129C130.517 3.32129 130.928 3.7168 130.928 4.22217C130.928 4.72021 130.517 5.13037 130.005 5.13037ZM130.005 14.1392C129.529 14.1392 129.214 13.8096 129.214 13.3042V6.99805C129.214 6.48535 129.529 6.15576 130.005 6.15576C130.481 6.15576 130.796 6.48535 130.796 6.99805V13.3042C130.796 13.8096 130.481 14.1392 130.005 14.1392ZM134.82 14.1318C133.311 14.1318 132.249 13.1943 132.249 11.8101C132.249 10.4624 133.289 9.63477 135.113 9.53223L137.23 9.40771V8.81445C137.23 7.95752 136.651 7.44482 135.684 7.44482C134.923 7.44482 134.417 7.71582 133.978 8.41895C133.817 8.65332 133.612 8.75586 133.333 8.75586C132.938 8.75586 132.652 8.49219 132.652 8.09668C132.652 7.93555 132.696 7.75977 132.791 7.58398C133.194 6.7124 134.359 6.15576 135.743 6.15576C137.611 6.15576 138.805 7.14453 138.805 8.68994V13.3408C138.805 13.8389 138.49 14.1392 138.043 14.1392C137.603 14.1392 137.303 13.8535 137.288 13.3848V12.7329H137.252C136.805 13.5898 135.824 14.1318 134.82 14.1318ZM135.252 12.8794C136.358 12.8794 137.23 12.1177 137.23 11.1143V10.5063L135.326 10.6235C134.381 10.6895 133.846 11.1069 133.846 11.7661C133.846 12.4399 134.41 12.8794 135.252 12.8794ZM141.342 14.1392C140.881 14.1392 140.551 13.8242 140.551 13.3042V4.12695C140.551 3.60693 140.881 3.29199 141.342 3.29199C141.804 3.29199 142.133 3.60693 142.133 4.12695V13.3042C142.133 13.8242 141.804 14.1392 141.342 14.1392ZM147.948 5.13037C147.443 5.13037 147.033 4.72021 147.033 4.22217C147.033 3.7168 147.443 3.32129 147.948 3.32129C148.461 3.32129 148.871 3.7168 148.871 4.22217C148.871 4.72021 148.461 5.13037 147.948 5.13037ZM147.948 14.1392C147.472 14.1392 147.157 13.8096 147.157 13.3042V6.99805C147.157 6.48535 147.472 6.15576 147.948 6.15576C148.425 6.15576 148.739 6.48535 148.739 6.99805V13.3042C148.739 13.8096 148.425 14.1392 147.948 14.1392ZM155.174 14.1758C152.185 14.1758 150.318 12.0811 150.318 8.71191C150.318 5.36475 152.207 3.25537 155.159 3.25537C157.1 3.25537 158.653 4.2002 159.312 5.76025C159.414 5.97266 159.466 6.19238 159.466 6.39014C159.466 6.82959 159.173 7.11523 158.733 7.11523C158.345 7.11523 158.089 6.9248 157.906 6.5C157.415 5.3208 156.375 4.69092 155.159 4.69092C153.24 4.69092 151.995 6.26562 151.995 8.71191C151.995 11.1802 153.225 12.7402 155.166 12.7402C156.455 12.7402 157.444 12.1909 157.935 11.0483C158.111 10.6602 158.323 10.499 158.682 10.499C159.129 10.499 159.436 10.8066 159.436 11.2388C159.436 11.4658 159.378 11.6782 159.261 11.9199C158.579 13.3481 157.137 14.1758 155.174 14.1758ZM161.937 14.1392C161.476 14.1392 161.146 13.8242 161.146 13.3042V4.12695C161.146 3.60693 161.476 3.29199 161.937 3.29199C162.399 3.29199 162.728 3.60693 162.728 4.12695V13.3042C162.728 13.8242 162.399 14.1392 161.937 14.1392ZM167.815 14.1465C165.61 14.1465 164.16 12.6304 164.16 10.1475C164.16 7.67188 165.618 6.15576 167.815 6.15576C170.012 6.15576 171.47 7.67188 171.47 10.1475C171.47 12.6304 170.02 14.1465 167.815 14.1465ZM167.815 12.8428C169.06 12.8428 169.858 11.8613 169.858 10.1475C169.858 8.44092 169.053 7.45947 167.815 7.45947C166.577 7.45947 165.771 8.44092 165.771 10.1475C165.771 11.8613 166.577 12.8428 167.815 12.8428ZM175.509 14.1392C173.832 14.1392 172.806 13.0479 172.806 11.2827V6.99805C172.806 6.4707 173.129 6.15576 173.597 6.15576C174.059 6.15576 174.388 6.4707 174.388 6.99805V10.9751C174.388 12.147 174.945 12.7769 176.036 12.7769C177.179 12.7769 177.867 11.9858 177.867 10.7847V6.99805C177.867 6.4707 178.197 6.15576 178.658 6.15576C179.127 6.15576 179.449 6.4707 179.449 6.99805V13.3335C179.449 13.8242 179.149 14.1392 178.695 14.1392C178.241 14.1392 177.933 13.8242 177.933 13.3408V12.6963H177.897C177.472 13.6191 176.688 14.1392 175.509 14.1392ZM184.06 14.1318C182.112 14.1318 180.822 12.5791 180.822 10.1475C180.822 7.71582 182.112 6.17041 184.045 6.17041C185.151 6.17041 186.03 6.72705 186.462 7.57666H186.491V4.12695C186.491 3.60693 186.821 3.29199 187.29 3.29199C187.751 3.29199 188.081 3.60693 188.081 4.12695V13.3481C188.081 13.8462 187.758 14.1392 187.297 14.1392C186.85 14.1392 186.491 13.8462 186.491 13.3481V12.6304H186.469C186.074 13.5312 185.261 14.1318 184.06 14.1318ZM184.477 12.7915C185.693 12.7915 186.506 11.7588 186.506 10.1475C186.506 8.55078 185.693 7.50342 184.477 7.50342C183.225 7.50342 182.441 8.52881 182.441 10.1475C182.441 11.7734 183.225 12.7915 184.477 12.7915ZM196.393 14.1465C194.072 14.1465 192.709 12.6743 192.709 10.1841C192.709 7.73779 194.101 6.15576 196.284 6.15576C198.334 6.15576 199.748 7.63525 199.748 9.7373C199.748 10.25 199.455 10.543 198.964 10.543H194.306V10.5796C194.306 11.9858 195.097 12.8647 196.357 12.8647C197.221 12.8647 197.763 12.5645 198.349 11.7661C198.517 11.5684 198.679 11.4878 198.906 11.4878C199.287 11.4878 199.565 11.7368 199.565 12.1323C199.565 12.2568 199.521 12.4033 199.455 12.5571C198.95 13.5679 197.829 14.1465 196.393 14.1465ZM194.313 9.43701H198.166C198.129 8.22852 197.375 7.43018 196.276 7.43018C195.185 7.43018 194.394 8.23584 194.313 9.43701ZM203.97 14.1465C202.454 14.1465 201.341 13.5239 200.975 12.5791C200.923 12.4619 200.909 12.3521 200.909 12.2495C200.909 11.854 201.194 11.6196 201.59 11.6196C201.854 11.6196 202.081 11.7441 202.278 12.0371C202.674 12.6597 203.135 12.938 204.051 12.938C204.952 12.938 205.56 12.5498 205.56 11.9126C205.56 11.4072 205.259 11.1362 204.432 10.9385L203.216 10.6528C201.722 10.3013 200.989 9.56885 200.989 8.47021C200.989 7.07861 202.198 6.15576 204.029 6.15576C205.42 6.15576 206.563 6.86621 206.783 7.77441C206.797 7.8623 206.812 7.93555 206.812 8.00879C206.812 8.36035 206.592 8.59473 206.197 8.59473C205.94 8.59473 205.713 8.50684 205.56 8.25781C205.215 7.67188 204.747 7.36426 203.97 7.36426C203.121 7.36426 202.535 7.78174 202.535 8.38232C202.535 8.86572 202.908 9.20264 203.721 9.39307L204.915 9.67139C206.534 10.0449 207.156 10.6235 207.156 11.7661C207.156 13.1943 205.875 14.1465 203.97 14.1465ZM208.991 12.1543V7.54736H208.434C208.024 7.54736 207.775 7.31299 207.775 6.9248C207.775 6.5293 208.024 6.29492 208.434 6.29492H208.991V5.15234C208.991 4.64697 209.306 4.31006 209.789 4.31006C210.265 4.31006 210.58 4.64697 210.58 5.15234V6.29492H211.481C211.891 6.29492 212.14 6.53662 212.14 6.9248C212.14 7.31299 211.891 7.54736 211.481 7.54736H210.58V11.8027C210.58 12.418 210.793 12.6963 211.364 12.7402L211.488 12.7476C211.942 12.7915 212.17 12.9746 212.17 13.3481C212.17 13.8242 211.803 14.0659 211.027 14.0659H210.946C209.65 14.0659 208.991 13.4287 208.991 12.1543ZM217.538 5.13037C217.033 5.13037 216.622 4.72021 216.622 4.22217C216.622 3.7168 217.033 3.32129 217.538 3.32129C218.051 3.32129 218.461 3.7168 218.461 4.22217C218.461 4.72021 218.051 5.13037 217.538 5.13037ZM217.538 14.1392C217.062 14.1392 216.747 13.8096 216.747 13.3042V6.99805C216.747 6.48535 217.062 6.15576 217.538 6.15576C218.014 6.15576 218.329 6.48535 218.329 6.99805V13.3042C218.329 13.8096 218.014 14.1392 217.538 14.1392ZM220.889 14.1392C220.42 14.1392 220.098 13.8242 220.098 13.3042V6.9541C220.098 6.4707 220.391 6.15576 220.852 6.15576C221.306 6.15576 221.621 6.4707 221.621 6.96143V7.56934H221.658C222.075 6.69043 222.881 6.16309 224.067 6.16309C225.767 6.16309 226.741 7.24707 226.741 9.01221V13.3042C226.741 13.8242 226.411 14.1392 225.942 14.1392C225.481 14.1392 225.151 13.8242 225.151 13.3042V9.31982C225.151 8.1626 224.609 7.52539 223.511 7.52539C222.397 7.52539 221.68 8.31641 221.68 9.51025V13.3042C221.68 13.8242 221.35 14.1392 220.889 14.1392ZM231.717 14.1465C229.513 14.1465 228.077 12.6157 228.077 10.1621C228.077 7.72314 229.505 6.15576 231.703 6.15576C233.189 6.15576 234.464 6.94678 234.801 8.02344C234.845 8.14795 234.874 8.27979 234.874 8.38965C234.874 8.79248 234.588 9.0415 234.2 9.0415C233.863 9.0415 233.673 8.90967 233.482 8.55811C233.087 7.82568 232.545 7.47412 231.732 7.47412C230.494 7.47412 229.688 8.50684 229.688 10.1475C229.688 11.8247 230.509 12.8208 231.732 12.8208C232.589 12.8208 233.109 12.4399 233.482 11.7734C233.702 11.3926 233.871 11.2607 234.215 11.2607C234.603 11.2607 234.889 11.5244 234.889 11.9199C234.889 12.0444 234.859 12.1763 234.801 12.3301C234.398 13.3921 233.146 14.1465 231.717 14.1465ZM237.17 14.1392C236.709 14.1392 236.379 13.8242 236.379 13.3042V4.12695C236.379 3.60693 236.709 3.29199 237.17 3.29199C237.631 3.29199 237.961 3.60693 237.961 4.12695V13.3042C237.961 13.8242 237.631 14.1392 237.17 14.1392ZM242.403 14.1392C240.726 14.1392 239.7 13.0479 239.7 11.2827V6.99805C239.7 6.4707 240.023 6.15576 240.491 6.15576C240.953 6.15576 241.282 6.4707 241.282 6.99805V10.9751C241.282 12.147 241.839 12.7769 242.93 12.7769C244.073 12.7769 244.761 11.9858 244.761 10.7847V6.99805C244.761 6.4707 245.091 6.15576 245.552 6.15576C246.021 6.15576 246.343 6.4707 246.343 6.99805V13.3335C246.343 13.8242 246.043 14.1392 245.589 14.1392C245.135 14.1392 244.827 13.8242 244.827 13.3408V12.6963H244.791C244.366 13.6191 243.582 14.1392 242.403 14.1392ZM250.903 14.1465C249.387 14.1465 248.273 13.5239 247.907 12.5791C247.856 12.4619 247.841 12.3521 247.841 12.2495C247.841 11.854 248.127 11.6196 248.522 11.6196C248.786 11.6196 249.013 11.7441 249.211 12.0371C249.606 12.6597 250.068 12.938 250.983 12.938C251.884 12.938 252.492 12.5498 252.492 11.9126C252.492 11.4072 252.192 11.1362 251.364 10.9385L250.148 10.6528C248.654 10.3013 247.922 9.56885 247.922 8.47021C247.922 7.07861 249.13 6.15576 250.961 6.15576C252.353 6.15576 253.495 6.86621 253.715 7.77441C253.73 7.8623 253.744 7.93555 253.744 8.00879C253.744 8.36035 253.525 8.59473 253.129 8.59473C252.873 8.59473 252.646 8.50684 252.492 8.25781C252.148 7.67188 251.679 7.36426 250.903 7.36426C250.053 7.36426 249.467 7.78174 249.467 8.38232C249.467 8.86572 249.841 9.20264 250.654 9.39307L251.847 9.67139C253.466 10.0449 254.089 10.6235 254.089 11.7661C254.089 13.1943 252.807 14.1465 250.903 14.1465ZM260.006 10.6089C259.56 10.6089 259.311 10.3232 259.296 9.86182L259.208 4.17822C259.208 4.14893 259.208 4.11963 259.208 4.09766C259.208 3.60693 259.538 3.29199 260.014 3.29199C260.482 3.29199 260.812 3.60693 260.812 4.09766C260.812 4.11963 260.812 4.14893 260.812 4.17822L260.724 9.86182C260.709 10.3232 260.46 10.6089 260.006 10.6089ZM260.006 14.1099C259.472 14.1099 259.047 13.6997 259.047 13.165C259.047 12.6304 259.472 12.2202 260.006 12.2202C260.556 12.2202 260.973 12.6304 260.973 13.165C260.973 13.6997 260.556 14.1099 260.006 14.1099Z" fill="#1A645A"/>
<path d="M48.4463 31.1406C47.292 31.1406 46.3779 30.5723 46.0322 29.6523C45.956 29.4414 45.9091 29.2715 45.9091 29.0371C45.9091 28.6387 46.1494 28.3926 46.5244 28.3926C46.8584 28.3926 47.0576 28.5625 47.163 28.9492C47.3447 29.6055 47.7959 29.9688 48.4345 29.9688C49.2959 29.9688 49.7646 29.4473 49.7646 28.4863V23.1309C49.7646 22.709 50.0107 22.4512 50.4209 22.4512C50.8252 22.4512 51.0771 22.709 51.0771 23.1309V28.4922C51.0771 30.168 50.0927 31.1406 48.4463 31.1406ZM54.7538 31.1113C53.412 31.1113 52.5916 30.2383 52.5916 28.8262V25.3984C52.5916 24.9766 52.8495 24.7246 53.2245 24.7246C53.5936 24.7246 53.8573 24.9766 53.8573 25.3984V28.5801C53.8573 29.5176 54.3026 30.0215 55.1756 30.0215C56.0897 30.0215 56.6405 29.3887 56.6405 28.4277V25.3984C56.6405 24.9766 56.9041 24.7246 57.2733 24.7246C57.6483 24.7246 57.9061 24.9766 57.9061 25.3984V30.4668C57.9061 30.8594 57.6659 31.1113 57.3026 31.1113C56.9393 31.1113 56.6932 30.8594 56.6932 30.4727V29.957H56.6639C56.3241 30.6953 55.6971 31.1113 54.7538 31.1113ZM61.5534 31.1172C60.3405 31.1172 59.4499 30.6191 59.157 29.8633C59.1159 29.7695 59.1042 29.6816 59.1042 29.5996C59.1042 29.2832 59.3327 29.0957 59.6491 29.0957C59.8601 29.0957 60.0417 29.1953 60.1999 29.4297C60.5163 29.9277 60.8855 30.1504 61.6179 30.1504C62.3386 30.1504 62.8249 29.8398 62.8249 29.3301C62.8249 28.9258 62.5847 28.709 61.9226 28.5508L60.9499 28.3223C59.7546 28.041 59.1687 27.4551 59.1687 26.5762C59.1687 25.4629 60.1355 24.7246 61.6003 24.7246C62.7136 24.7246 63.6277 25.293 63.8034 26.0195C63.8152 26.0898 63.8269 26.1484 63.8269 26.207C63.8269 26.4883 63.6511 26.6758 63.3347 26.6758C63.1296 26.6758 62.948 26.6055 62.8249 26.4062C62.5495 25.9375 62.1745 25.6914 61.5534 25.6914C60.8738 25.6914 60.405 26.0254 60.405 26.5059C60.405 26.8926 60.7038 27.1621 61.3542 27.3145L62.3093 27.5371C63.6042 27.8359 64.1023 28.2988 64.1023 29.2129C64.1023 30.3555 63.0769 31.1172 61.5534 31.1172ZM67.4859 31.1055C65.9391 31.1055 64.9254 29.8633 64.9254 27.918C64.9254 25.9727 65.9391 24.7363 67.5152 24.7363C68.4059 24.7363 69.109 25.1875 69.4723 25.8965H69.5016V25.375C69.5016 24.9824 69.7359 24.7246 70.1168 24.7246C70.4977 24.7246 70.732 24.9883 70.732 25.375V32.5117C70.732 32.9277 70.4684 33.1855 70.0992 33.1855C69.7242 33.1855 69.4605 32.9277 69.4605 32.5117V29.9629H69.4371C69.0855 30.6543 68.3648 31.1055 67.4859 31.1055ZM67.8258 30.0332C68.7984 30.0332 69.4664 29.2012 69.4664 27.918C69.4664 26.6406 68.7984 25.8027 67.8258 25.8027C66.8355 25.8027 66.2203 26.6113 66.2203 27.918C66.2203 29.2246 66.8355 30.0332 67.8258 30.0332ZM74.2388 31.1113C72.897 31.1113 72.0766 30.2383 72.0766 28.8262V25.3984C72.0766 24.9766 72.3345 24.7246 72.7095 24.7246C73.0786 24.7246 73.3423 24.9766 73.3423 25.3984V28.5801C73.3423 29.5176 73.7876 30.0215 74.6606 30.0215C75.5747 30.0215 76.1255 29.3887 76.1255 28.4277V25.3984C76.1255 24.9766 76.3891 24.7246 76.7583 24.7246C77.1333 24.7246 77.3911 24.9766 77.3911 25.3984V30.4668C77.3911 30.8594 77.1509 31.1113 76.7876 31.1113C76.4243 31.1113 76.1782 30.8594 76.1782 30.4727V29.957H76.1489C75.8091 30.6953 75.1821 31.1113 74.2388 31.1113ZM79.4388 25.7559C79.1107 25.7559 78.8705 25.5215 78.8705 25.1816V23.0078C78.8705 22.6621 79.1107 22.4336 79.4388 22.4336C79.767 22.4336 80.0013 22.6621 80.0013 23.0078V25.1816C80.0013 25.5215 79.767 25.7559 79.4388 25.7559ZM83.7776 24.1328C83.5959 24.1328 83.4846 24.0742 83.3498 23.9043L82.4241 22.7734C82.3245 22.6562 82.2834 22.5449 82.2834 22.4102C82.2834 22.1465 82.4827 21.9648 82.7698 21.9648C82.9866 21.9648 83.0979 22.0352 83.2854 22.2988L84.094 23.4531C84.1702 23.5586 84.1936 23.6348 84.1936 23.752C84.1936 23.9688 84.0178 24.1328 83.7776 24.1328ZM83.2913 31.1055C82.0842 31.1055 81.2346 30.3555 81.2346 29.248C81.2346 28.1699 82.0666 27.5078 83.5256 27.4258L85.219 27.3262V26.8516C85.219 26.166 84.7561 25.7559 83.9827 25.7559C83.3733 25.7559 82.969 25.9727 82.6174 26.5352C82.4885 26.7227 82.3245 26.8047 82.1018 26.8047C81.7854 26.8047 81.5569 26.5938 81.5569 26.2773C81.5569 26.1484 81.592 26.0078 81.6682 25.8672C81.9905 25.1699 82.9221 24.7246 84.0295 24.7246C85.5237 24.7246 86.4788 25.5156 86.4788 26.752V30.4727C86.4788 30.8711 86.2268 31.1113 85.8694 31.1113C85.5178 31.1113 85.2776 30.8828 85.2659 30.5078V29.9863H85.2366C84.8791 30.6719 84.094 31.1055 83.2913 31.1055ZM83.637 30.1035C84.5217 30.1035 85.219 29.4941 85.219 28.6914V28.2051L83.6955 28.2988C82.9397 28.3516 82.512 28.6855 82.512 29.2129C82.512 29.752 82.9631 30.1035 83.637 30.1035ZM93.5977 31.1641C92.3027 31.1641 91.2773 30.4961 90.7207 29.2715C90.4219 28.6152 90.2754 27.8301 90.2754 26.8867C90.2754 24.0566 91.5293 22.3809 93.6445 22.3809C94.8457 22.3809 95.8066 22.9199 96.2578 23.7344C96.3516 23.9043 96.3984 24.0566 96.3984 24.2207C96.3984 24.5312 96.1699 24.7598 95.8242 24.7598C95.5605 24.7598 95.3906 24.6367 95.1797 24.3379C94.7812 23.752 94.3008 23.4824 93.6328 23.4824C92.3086 23.4824 91.5703 24.6777 91.5352 26.7402V26.8164H91.5586C91.8984 26.0488 92.7539 25.4512 93.9023 25.4512C95.5195 25.4512 96.6855 26.6348 96.6855 28.2344C96.6855 29.9336 95.3848 31.1641 93.5977 31.1641ZM93.5801 30.0566C94.5879 30.0566 95.3789 29.2715 95.3789 28.2812C95.3789 27.2559 94.6348 26.5176 93.5977 26.5176C92.5605 26.5176 91.793 27.25 91.793 28.252C91.793 29.2598 92.5781 30.0566 93.5801 30.0566ZM101.08 31.1113C100.699 31.1113 100.447 30.8477 100.447 30.4434V25.3691C100.447 24.9707 100.693 24.7246 101.051 24.7246C101.402 24.7246 101.654 24.9648 101.654 25.3691V25.873H101.683C101.959 25.1875 102.603 24.7305 103.435 24.7305C104.291 24.7305 104.912 25.1699 105.158 25.9375H105.187C105.504 25.1875 106.23 24.7305 107.109 24.7305C108.328 24.7305 109.125 25.5391 109.125 26.7637V30.4434C109.125 30.8477 108.867 31.1113 108.486 31.1113C108.105 31.1113 107.853 30.8477 107.853 30.4434V27.0684C107.853 26.2715 107.426 25.8145 106.676 25.8145C105.926 25.8145 105.404 26.3711 105.404 27.1504V30.4434C105.404 30.8477 105.164 31.1113 104.783 31.1113C104.402 31.1113 104.162 30.8477 104.162 30.4434V26.9746C104.162 26.2656 103.711 25.8145 102.996 25.8145C102.246 25.8145 101.713 26.4004 101.713 27.1914V30.4434C101.713 30.8477 101.461 31.1113 101.08 31.1113ZM113.141 31.1172C111.284 31.1172 110.194 29.9395 110.194 27.9473C110.194 25.9902 111.307 24.7246 113.053 24.7246C114.694 24.7246 115.825 25.9082 115.825 27.5898C115.825 28 115.59 28.2344 115.198 28.2344H111.471V28.2637C111.471 29.3887 112.104 30.0918 113.112 30.0918C113.803 30.0918 114.237 29.8516 114.706 29.2129C114.84 29.0547 114.969 28.9902 115.151 28.9902C115.456 28.9902 115.678 29.1895 115.678 29.5059C115.678 29.6055 115.643 29.7227 115.59 29.8457C115.186 30.6543 114.29 31.1172 113.141 31.1172ZM111.477 27.3496H114.559C114.53 26.3828 113.926 25.7441 113.048 25.7441C112.174 25.7441 111.542 26.3887 111.477 27.3496ZM117.562 31.1113C117.181 31.1113 116.929 30.8477 116.929 30.4434V25.3691C116.929 24.9707 117.175 24.7246 117.533 24.7246C117.884 24.7246 118.136 24.9648 118.136 25.3691V25.873H118.166C118.441 25.1875 119.085 24.7305 119.918 24.7305C120.773 24.7305 121.394 25.1699 121.64 25.9375H121.669C121.986 25.1875 122.712 24.7305 123.591 24.7305C124.81 24.7305 125.607 25.5391 125.607 26.7637V30.4434C125.607 30.8477 125.349 31.1113 124.968 31.1113C124.587 31.1113 124.335 30.8477 124.335 30.4434V27.0684C124.335 26.2715 123.908 25.8145 123.158 25.8145C122.408 25.8145 121.886 26.3711 121.886 27.1504V30.4434C121.886 30.8477 121.646 31.1113 121.265 31.1113C120.884 31.1113 120.644 30.8477 120.644 30.4434V26.9746C120.644 26.2656 120.193 25.8145 119.478 25.8145C118.728 25.8145 118.195 26.4004 118.195 27.1914V30.4434C118.195 30.8477 117.943 31.1113 117.562 31.1113ZM127.602 31.1113C127.239 31.1113 126.998 30.877 126.998 30.4785V23.1016C126.998 22.6855 127.262 22.4336 127.631 22.4336C128 22.4336 128.264 22.6855 128.264 23.1016V25.8848H128.293C128.662 25.1699 129.371 24.7363 130.245 24.7363C131.797 24.7363 132.811 25.9668 132.811 27.918C132.811 29.875 131.803 31.1055 130.233 31.1055C129.336 31.1055 128.633 30.666 128.252 29.9512H128.229V30.4785C128.229 30.877 127.971 31.1113 127.602 31.1113ZM129.893 30.0332C130.895 30.0332 131.51 29.2246 131.51 27.918C131.51 26.623 130.889 25.8027 129.893 25.8027C128.938 25.8027 128.258 26.6465 128.258 27.918C128.258 29.2012 128.938 30.0332 129.893 30.0332ZM134.548 31.1113C134.167 31.1113 133.915 30.8535 133.915 30.4434V25.3633C133.915 24.9766 134.161 24.7246 134.519 24.7246C134.87 24.7246 135.116 24.9766 135.116 25.3633V25.8906H135.146C135.316 25.1992 135.884 24.7363 136.499 24.7363C136.722 24.7363 136.892 24.7891 136.997 24.8887C137.115 24.9824 137.167 25.1348 137.167 25.334C137.167 25.5332 137.103 25.6797 136.98 25.7793C136.851 25.8906 136.663 25.9434 136.4 25.9434C135.533 25.9492 135.181 26.5293 135.181 27.2969V30.4434C135.181 30.8535 134.923 31.1113 134.548 31.1113ZM140.375 31.1172C138.518 31.1172 137.428 29.9395 137.428 27.9473C137.428 25.9902 138.541 24.7246 140.287 24.7246C141.928 24.7246 143.059 25.9082 143.059 27.5898C143.059 28 142.824 28.2344 142.432 28.2344H138.705V28.2637C138.705 29.3887 139.338 30.0918 140.346 30.0918C141.037 30.0918 141.471 29.8516 141.94 29.2129C142.074 29.0547 142.203 28.9902 142.385 28.9902C142.69 28.9902 142.912 29.1895 142.912 29.5059C142.912 29.6055 142.877 29.7227 142.824 29.8457C142.42 30.6543 141.524 31.1172 140.375 31.1172ZM138.711 27.3496H141.793C141.764 26.3828 141.16 25.7441 140.281 25.7441C139.408 25.7441 138.776 26.3887 138.711 27.3496ZM146.437 31.1172C145.224 31.1172 144.333 30.6191 144.04 29.8633C143.999 29.7695 143.987 29.6816 143.987 29.5996C143.987 29.2832 144.216 29.0957 144.532 29.0957C144.743 29.0957 144.925 29.1953 145.083 29.4297C145.399 29.9277 145.769 30.1504 146.501 30.1504C147.222 30.1504 147.708 29.8398 147.708 29.3301C147.708 28.9258 147.468 28.709 146.806 28.5508L145.833 28.3223C144.638 28.041 144.052 27.4551 144.052 26.5762C144.052 25.4629 145.019 24.7246 146.483 24.7246C147.597 24.7246 148.511 25.293 148.687 26.0195C148.698 26.0898 148.71 26.1484 148.71 26.207C148.71 26.4883 148.534 26.6758 148.218 26.6758C148.013 26.6758 147.831 26.6055 147.708 26.4062C147.433 25.9375 147.058 25.6914 146.437 25.6914C145.757 25.6914 145.288 26.0254 145.288 26.5059C145.288 26.8926 145.587 27.1621 146.237 27.3145L147.192 27.5371C148.487 27.8359 148.985 28.2988 148.985 29.2129C148.985 30.3555 147.96 31.1172 146.437 31.1172Z" fill="#617774"/>
<defs>
<clipPath id="clip0_625_62552">
<rect width="33" height="18" fill="white" transform="translate(0.5 8)"/>
</clipPath>
</defs>
</svg>
