<svg width="244" height="34" viewBox="0 0 244 34" fill="none" xmlns="http://www.w3.org/2000/svg">
<g clip-path="url(#clip0_622_45290)">
<path d="M6.40835 17.0308C8.05294 17.0308 9.43928 15.5666 9.43928 13.6665C9.43928 11.8072 8.0393 10.3906 6.40835 10.3906C4.77738 10.3906 3.37747 11.8344 3.37747 13.6801C3.37747 15.5666 4.76379 17.0308 6.40835 17.0308ZM1.46108 24.9173H11.3488C12.375 24.9173 12.8031 24.5087 12.8031 23.7187C12.8031 21.2737 10.3431 18.3793 6.40156 18.3793C2.46005 18.3793 0 21.2737 0 23.7187C0 24.5087 0.42813 24.9173 1.46108 24.9173Z" fill="#0C5151"/>
<path d="M26.612 17.0308C28.2565 17.0308 29.6361 15.5666 29.6361 13.6665C29.6361 11.8072 28.2429 10.3906 26.612 10.3906C24.9742 10.3906 23.5743 11.8344 23.5743 13.6801C23.5743 15.5666 24.9674 17.0308 26.612 17.0308ZM21.6578 24.9173H31.5456C32.5718 24.9173 32.9999 24.5087 32.9999 23.7187C32.9999 21.2737 30.5399 18.3793 26.5984 18.3793C22.6569 18.3793 20.1968 21.2737 20.1968 23.7187C20.1968 24.5087 20.625 24.9173 21.6578 24.9173Z" fill="#0C5151"/>
<path d="M10.5945 25.9998H22.4394C24.016 25.9998 24.9539 25.0123 24.9539 23.7864C24.9539 20.9056 21.6376 17.3232 16.5136 17.3232C11.3964 17.3232 8.08008 20.9056 8.08008 23.7864C8.08008 25.0123 9.0111 25.9998 10.5945 25.9998Z" fill="#E6F6F4"/>
<path d="M16.5204 16.8333C18.4163 16.8333 20.0066 15.1511 20.0066 12.9649C20.0066 10.8333 18.4028 9.20557 16.5204 9.20557C14.6447 9.20557 13.0409 10.8605 13.0409 12.9786C13.0409 15.1511 14.6312 16.8333 16.5204 16.8333ZM10.5945 24.9173H22.4394C23.3229 24.9173 23.8666 24.4882 23.8666 23.7867C23.8666 21.5257 21.0463 18.4065 16.5136 18.4065C11.9808 18.4065 9.16064 21.5257 9.16064 23.7867C9.16064 24.4882 9.70427 24.9173 10.5945 24.9173Z" fill="#0C5151"/>
</g>
<path d="M46.6836 5.13037C46.1782 5.13037 45.7681 4.72021 45.7681 4.22217C45.7681 3.7168 46.1782 3.32129 46.6836 3.32129C47.1963 3.32129 47.6064 3.7168 47.6064 4.22217C47.6064 4.72021 47.1963 5.13037 46.6836 5.13037ZM46.6836 14.1392C46.2075 14.1392 45.8926 13.8096 45.8926 13.3042V6.99805C45.8926 6.48535 46.2075 6.15576 46.6836 6.15576C47.1597 6.15576 47.4746 6.48535 47.4746 6.99805V13.3042C47.4746 13.8096 47.1597 14.1392 46.6836 14.1392ZM53.9088 14.1758C50.9205 14.1758 49.0528 12.0811 49.0528 8.71191C49.0528 5.36475 50.9425 3.25537 53.8941 3.25537C55.8351 3.25537 57.3878 4.2002 58.047 5.76025C58.1495 5.97266 58.2008 6.19238 58.2008 6.39014C58.2008 6.82959 57.9078 7.11523 57.4684 7.11523C57.0802 7.11523 56.8238 6.9248 56.6407 6.5C56.15 5.3208 55.11 4.69092 53.8941 4.69092C51.9752 4.69092 50.7301 6.26562 50.7301 8.71191C50.7301 11.1802 51.9605 12.7402 53.9015 12.7402C55.1905 12.7402 56.1793 12.1909 56.67 11.0483C56.8458 10.6602 57.0582 10.499 57.4171 10.499C57.8639 10.499 58.1715 10.8066 58.1715 11.2388C58.1715 11.4658 58.1129 11.6782 57.9957 11.9199C57.3146 13.3481 55.8717 14.1758 53.9088 14.1758ZM60.6726 14.1392C60.2111 14.1392 59.8815 13.8242 59.8815 13.3042V4.12695C59.8815 3.60693 60.2111 3.29199 60.6726 3.29199C61.134 3.29199 61.4636 3.60693 61.4636 4.12695V13.3042C61.4636 13.8242 61.134 14.1392 60.6726 14.1392ZM66.5501 14.1465C64.3455 14.1465 62.8953 12.6304 62.8953 10.1475C62.8953 7.67188 64.3528 6.15576 66.5501 6.15576C68.7474 6.15576 70.2049 7.67188 70.2049 10.1475C70.2049 12.6304 68.7547 14.1465 66.5501 14.1465ZM66.5501 12.8428C67.7952 12.8428 68.5936 11.8613 68.5936 10.1475C68.5936 8.44092 67.7879 7.45947 66.5501 7.45947C65.3123 7.45947 64.5066 8.44092 64.5066 10.1475C64.5066 11.8613 65.3123 12.8428 66.5501 12.8428ZM74.244 14.1392C72.5668 14.1392 71.5414 13.0479 71.5414 11.2827V6.99805C71.5414 6.4707 71.8637 6.15576 72.3324 6.15576C72.7938 6.15576 73.1234 6.4707 73.1234 6.99805V10.9751C73.1234 12.147 73.6801 12.7769 74.7714 12.7769C75.914 12.7769 76.6024 11.9858 76.6024 10.7847V6.99805C76.6024 6.4707 76.932 6.15576 77.3935 6.15576C77.8622 6.15576 78.1845 6.4707 78.1845 6.99805V13.3335C78.1845 13.8242 77.8842 14.1392 77.4301 14.1392C76.976 14.1392 76.6684 13.8242 76.6684 13.3408V12.6963H76.6317C76.2069 13.6191 75.4232 14.1392 74.244 14.1392ZM82.7949 14.1318C80.8467 14.1318 79.5576 12.5791 79.5576 10.1475C79.5576 7.71582 80.8467 6.17041 82.7803 6.17041C83.8862 6.17041 84.7651 6.72705 85.1973 7.57666H85.2266V4.12695C85.2266 3.60693 85.5562 3.29199 86.0249 3.29199C86.4863 3.29199 86.8159 3.60693 86.8159 4.12695V13.3481C86.8159 13.8462 86.4937 14.1392 86.0322 14.1392C85.5854 14.1392 85.2266 13.8462 85.2266 13.3481V12.6304H85.2046C84.8091 13.5312 83.9961 14.1318 82.7949 14.1318ZM83.2124 12.7915C84.4282 12.7915 85.2412 11.7588 85.2412 10.1475C85.2412 8.55078 84.4282 7.50342 83.2124 7.50342C81.96 7.50342 81.1763 8.52881 81.1763 10.1475C81.1763 11.7734 81.96 12.7915 83.2124 12.7915ZM92.7995 14.1172C92.2868 14.1172 91.9792 13.7949 91.9792 13.2676V4.28076C91.9792 3.75342 92.2868 3.43115 92.7995 3.43115H97.9265C98.3879 3.43115 98.6955 3.70947 98.6955 4.1416C98.6955 4.57373 98.3806 4.85205 97.9265 4.85205H93.6198V8.19189H97.5383C97.9777 8.19189 98.278 8.46289 98.278 8.88037C98.278 9.30518 97.9777 9.57617 97.5383 9.57617H93.6198V13.2676C93.6198 13.7949 93.3049 14.1172 92.7995 14.1172ZM101.768 14.1318C100.259 14.1318 99.1971 13.1943 99.1971 11.8101C99.1971 10.4624 100.237 9.63477 102.061 9.53223L104.178 9.40771V8.81445C104.178 7.95752 103.599 7.44482 102.632 7.44482C101.87 7.44482 101.365 7.71582 100.926 8.41895C100.764 8.65332 100.559 8.75586 100.281 8.75586C99.8855 8.75586 99.5999 8.49219 99.5999 8.09668C99.5999 7.93555 99.6438 7.75977 99.7391 7.58398C100.142 6.7124 101.306 6.15576 102.691 6.15576C104.558 6.15576 105.752 7.14453 105.752 8.68994V13.3408C105.752 13.8389 105.437 14.1392 104.991 14.1392C104.551 14.1392 104.251 13.8535 104.236 13.3848V12.7329H104.2C103.753 13.5898 102.771 14.1318 101.768 14.1318ZM102.2 12.8794C103.306 12.8794 104.178 12.1177 104.178 11.1143V10.5063L102.273 10.6235C101.328 10.6895 100.794 11.1069 100.794 11.7661C100.794 12.4399 101.358 12.8794 102.2 12.8794ZM108.231 14.1392C107.755 14.1392 107.44 13.8096 107.44 13.3042V6.96143C107.44 6.46338 107.748 6.15576 108.195 6.15576C108.634 6.15576 108.949 6.45605 108.949 6.96143V7.59131H108.986C109.33 6.73438 110.136 6.16309 111.176 6.16309C112.245 6.16309 113.021 6.7124 113.329 7.67188H113.366C113.761 6.73438 114.669 6.16309 115.768 6.16309C117.291 6.16309 118.287 7.17383 118.287 8.70459V13.3042C118.287 13.8096 117.965 14.1392 117.489 14.1392C117.013 14.1392 116.698 13.8096 116.698 13.3042V9.08545C116.698 8.08936 116.163 7.51807 115.226 7.51807C114.288 7.51807 113.637 8.21387 113.637 9.18799V13.3042C113.637 13.8096 113.336 14.1392 112.86 14.1392C112.384 14.1392 112.084 13.8096 112.084 13.3042V8.96826C112.084 8.08203 111.52 7.51807 110.626 7.51807C109.689 7.51807 109.022 8.25049 109.022 9.23926V13.3042C109.022 13.8096 108.707 14.1392 108.231 14.1392ZM120.811 5.13037C120.305 5.13037 119.895 4.72021 119.895 4.22217C119.895 3.7168 120.305 3.32129 120.811 3.32129C121.323 3.32129 121.733 3.7168 121.733 4.22217C121.733 4.72021 121.323 5.13037 120.811 5.13037ZM120.811 14.1392C120.334 14.1392 120.02 13.8096 120.02 13.3042V6.99805C120.02 6.48535 120.334 6.15576 120.811 6.15576C121.287 6.15576 121.602 6.48535 121.602 6.99805V13.3042C121.602 13.8096 121.287 14.1392 120.811 14.1392ZM124.22 14.1392C123.758 14.1392 123.429 13.8242 123.429 13.3042V4.12695C123.429 3.60693 123.758 3.29199 124.22 3.29199C124.681 3.29199 125.011 3.60693 125.011 4.12695V13.3042C125.011 13.8242 124.681 14.1392 124.22 14.1392ZM127.739 16.8711C127.007 16.8711 126.604 16.6001 126.604 16.1094C126.604 15.7725 126.838 15.5527 127.219 15.5527C127.387 15.5527 127.446 15.5601 127.629 15.5601C128.069 15.5601 128.515 15.3184 128.801 14.5273L128.947 14.0806L126.369 7.33496C126.311 7.17383 126.281 7.0127 126.281 6.88818C126.281 6.45605 126.626 6.15576 127.087 6.15576C127.483 6.15576 127.71 6.32422 127.849 6.76367L129.812 12.5645H129.834L131.804 6.76367C131.936 6.33154 132.155 6.15576 132.558 6.15576C133.012 6.15576 133.327 6.45605 133.327 6.88086C133.327 7.00537 133.298 7.1665 133.247 7.32031L130.573 14.3882C129.892 16.2412 129.167 16.8711 127.739 16.8711ZM138.747 14.1172C138.234 14.1172 137.927 13.7949 137.927 13.2676V4.28076C137.927 3.75342 138.234 3.43115 138.747 3.43115H141.889C143.94 3.43115 145.368 4.84473 145.368 6.90283C145.368 8.96826 143.911 10.3892 141.838 10.3892H139.567V13.2676C139.567 13.7949 139.252 14.1172 138.747 14.1172ZM139.567 9.01221H141.45C142.878 9.01221 143.691 8.24316 143.691 6.91016C143.691 5.57715 142.878 4.81543 141.457 4.81543H139.567V9.01221ZM147.613 14.1392C147.151 14.1392 146.822 13.8242 146.822 13.3042V4.12695C146.822 3.60693 147.151 3.29199 147.613 3.29199C148.074 3.29199 148.404 3.60693 148.404 4.12695V13.3042C148.404 13.8242 148.074 14.1392 147.613 14.1392ZM152.436 14.1318C150.927 14.1318 149.865 13.1943 149.865 11.8101C149.865 10.4624 150.905 9.63477 152.729 9.53223L154.845 9.40771V8.81445C154.845 7.95752 154.267 7.44482 153.3 7.44482C152.538 7.44482 152.033 7.71582 151.593 8.41895C151.432 8.65332 151.227 8.75586 150.949 8.75586C150.553 8.75586 150.268 8.49219 150.268 8.09668C150.268 7.93555 150.312 7.75977 150.407 7.58398C150.81 6.7124 151.974 6.15576 153.358 6.15576C155.226 6.15576 156.42 7.14453 156.42 8.68994V13.3408C156.42 13.8389 156.105 14.1392 155.658 14.1392C155.219 14.1392 154.919 13.8535 154.904 13.3848V12.7329H154.867C154.421 13.5898 153.439 14.1318 152.436 14.1318ZM152.868 12.8794C153.974 12.8794 154.845 12.1177 154.845 11.1143V10.5063L152.941 10.6235C151.996 10.6895 151.462 11.1069 151.462 11.7661C151.462 12.4399 152.025 12.8794 152.868 12.8794ZM158.899 14.1392C158.43 14.1392 158.108 13.8242 158.108 13.3042V6.9541C158.108 6.4707 158.401 6.15576 158.863 6.15576C159.317 6.15576 159.632 6.4707 159.632 6.96143V7.56934H159.668C160.086 6.69043 160.891 6.16309 162.078 6.16309C163.777 6.16309 164.751 7.24707 164.751 9.01221V13.3042C164.751 13.8242 164.422 14.1392 163.953 14.1392C163.491 14.1392 163.162 13.8242 163.162 13.3042V9.31982C163.162 8.1626 162.62 7.52539 161.521 7.52539C160.408 7.52539 159.69 8.31641 159.69 9.51025V13.3042C159.69 13.8242 159.361 14.1392 158.899 14.1392ZM170.471 5.13037C169.966 5.13037 169.556 4.72021 169.556 4.22217C169.556 3.7168 169.966 3.32129 170.471 3.32129C170.984 3.32129 171.394 3.7168 171.394 4.22217C171.394 4.72021 170.984 5.13037 170.471 5.13037ZM170.471 14.1392C169.995 14.1392 169.68 13.8096 169.68 13.3042V6.99805C169.68 6.48535 169.995 6.15576 170.471 6.15576C170.947 6.15576 171.262 6.48535 171.262 6.99805V13.3042C171.262 13.8096 170.947 14.1392 170.471 14.1392ZM175.873 14.1465C174.356 14.1465 173.243 13.5239 172.877 12.5791C172.826 12.4619 172.811 12.3521 172.811 12.2495C172.811 11.854 173.097 11.6196 173.492 11.6196C173.756 11.6196 173.983 11.7441 174.181 12.0371C174.576 12.6597 175.038 12.938 175.953 12.938C176.854 12.938 177.462 12.5498 177.462 11.9126C177.462 11.4072 177.162 11.1362 176.334 10.9385L175.118 10.6528C173.624 10.3013 172.892 9.56885 172.892 8.47021C172.892 7.07861 174.1 6.15576 175.931 6.15576C177.323 6.15576 178.465 6.86621 178.685 7.77441C178.7 7.8623 178.714 7.93555 178.714 8.00879C178.714 8.36035 178.495 8.59473 178.099 8.59473C177.843 8.59473 177.616 8.50684 177.462 8.25781C177.118 7.67188 176.649 7.36426 175.873 7.36426C175.023 7.36426 174.437 7.78174 174.437 8.38232C174.437 8.86572 174.811 9.20264 175.624 9.39307L176.817 9.67139C178.436 10.0449 179.059 10.6235 179.059 11.7661C179.059 13.1943 177.777 14.1465 175.873 14.1465ZM184.471 5.13037C183.966 5.13037 183.555 4.72021 183.555 4.22217C183.555 3.7168 183.966 3.32129 184.471 3.32129C184.984 3.32129 185.394 3.7168 185.394 4.22217C185.394 4.72021 184.984 5.13037 184.471 5.13037ZM184.471 14.1392C183.995 14.1392 183.68 13.8096 183.68 13.3042V6.99805C183.68 6.48535 183.995 6.15576 184.471 6.15576C184.947 6.15576 185.262 6.48535 185.262 6.99805V13.3042C185.262 13.8096 184.947 14.1392 184.471 14.1392ZM187.822 14.1392C187.353 14.1392 187.031 13.8242 187.031 13.3042V6.9541C187.031 6.4707 187.324 6.15576 187.785 6.15576C188.239 6.15576 188.554 6.4707 188.554 6.96143V7.56934H188.591C189.008 6.69043 189.814 6.16309 191 6.16309C192.7 6.16309 193.674 7.24707 193.674 9.01221V13.3042C193.674 13.8242 193.344 14.1392 192.875 14.1392C192.414 14.1392 192.084 13.8242 192.084 13.3042V9.31982C192.084 8.1626 191.542 7.52539 190.444 7.52539C189.33 7.52539 188.613 8.31641 188.613 9.51025V13.3042C188.613 13.8242 188.283 14.1392 187.822 14.1392ZM198.65 14.1465C196.446 14.1465 195.01 12.6157 195.01 10.1621C195.01 7.72314 196.438 6.15576 198.636 6.15576C200.122 6.15576 201.397 6.94678 201.734 8.02344C201.778 8.14795 201.807 8.27979 201.807 8.38965C201.807 8.79248 201.521 9.0415 201.133 9.0415C200.796 9.0415 200.606 8.90967 200.415 8.55811C200.02 7.82568 199.478 7.47412 198.665 7.47412C197.427 7.47412 196.621 8.50684 196.621 10.1475C196.621 11.8247 197.442 12.8208 198.665 12.8208C199.522 12.8208 200.042 12.4399 200.415 11.7734C200.635 11.3926 200.804 11.2607 201.148 11.2607C201.536 11.2607 201.822 11.5244 201.822 11.9199C201.822 12.0444 201.792 12.1763 201.734 12.3301C201.331 13.3921 200.079 14.1465 198.65 14.1465ZM204.103 14.1392C203.642 14.1392 203.312 13.8242 203.312 13.3042V4.12695C203.312 3.60693 203.642 3.29199 204.103 3.29199C204.564 3.29199 204.894 3.60693 204.894 4.12695V13.3042C204.894 13.8242 204.564 14.1392 204.103 14.1392ZM209.336 14.1392C207.659 14.1392 206.633 13.0479 206.633 11.2827V6.99805C206.633 6.4707 206.956 6.15576 207.424 6.15576C207.886 6.15576 208.215 6.4707 208.215 6.99805V10.9751C208.215 12.147 208.772 12.7769 209.863 12.7769C211.006 12.7769 211.694 11.9858 211.694 10.7847V6.99805C211.694 6.4707 212.024 6.15576 212.485 6.15576C212.954 6.15576 213.276 6.4707 213.276 6.99805V13.3335C213.276 13.8242 212.976 14.1392 212.522 14.1392C212.068 14.1392 211.76 13.8242 211.76 13.3408V12.6963H211.724C211.299 13.6191 210.515 14.1392 209.336 14.1392ZM217.887 14.1318C215.939 14.1318 214.65 12.5791 214.65 10.1475C214.65 7.71582 215.939 6.17041 217.872 6.17041C218.978 6.17041 219.857 6.72705 220.289 7.57666H220.319V4.12695C220.319 3.60693 220.648 3.29199 221.117 3.29199C221.578 3.29199 221.908 3.60693 221.908 4.12695V13.3481C221.908 13.8462 221.586 14.1392 221.124 14.1392C220.677 14.1392 220.319 13.8462 220.319 13.3481V12.6304H220.297C219.901 13.5312 219.088 14.1318 217.887 14.1318ZM218.304 12.7915C219.52 12.7915 220.333 11.7588 220.333 10.1475C220.333 8.55078 219.52 7.50342 218.304 7.50342C217.052 7.50342 216.268 8.52881 216.268 10.1475C216.268 11.7734 217.052 12.7915 218.304 12.7915ZM227.024 14.1465C224.702 14.1465 223.34 12.6743 223.34 10.1841C223.34 7.73779 224.731 6.15576 226.914 6.15576C228.965 6.15576 230.378 7.63525 230.378 9.7373C230.378 10.25 230.085 10.543 229.595 10.543H224.936V10.5796C224.936 11.9858 225.727 12.8647 226.987 12.8647C227.851 12.8647 228.393 12.5645 228.979 11.7661C229.148 11.5684 229.309 11.4878 229.536 11.4878C229.917 11.4878 230.195 11.7368 230.195 12.1323C230.195 12.2568 230.151 12.4033 230.085 12.5571C229.58 13.5679 228.459 14.1465 227.024 14.1465ZM224.944 9.43701H228.796C228.76 8.22852 228.005 7.43018 226.907 7.43018C225.815 7.43018 225.024 8.23584 224.944 9.43701ZM234.652 14.1318C232.704 14.1318 231.414 12.5791 231.414 10.1475C231.414 7.71582 232.704 6.17041 234.637 6.17041C235.743 6.17041 236.622 6.72705 237.054 7.57666H237.083V4.12695C237.083 3.60693 237.413 3.29199 237.882 3.29199C238.343 3.29199 238.673 3.60693 238.673 4.12695V13.3481C238.673 13.8462 238.35 14.1392 237.889 14.1392C237.442 14.1392 237.083 13.8462 237.083 13.3481V12.6304H237.061C236.666 13.5312 235.853 14.1318 234.652 14.1318ZM235.069 12.7915C236.285 12.7915 237.098 11.7588 237.098 10.1475C237.098 8.55078 236.285 7.50342 235.069 7.50342C233.817 7.50342 233.033 8.52881 233.033 10.1475C233.033 11.7734 233.817 12.7915 235.069 12.7915ZM241.796 10.6089C241.35 10.6089 241.101 10.3232 241.086 9.86182L240.998 4.17822C240.998 4.14893 240.998 4.11963 240.998 4.09766C240.998 3.60693 241.328 3.29199 241.804 3.29199C242.272 3.29199 242.602 3.60693 242.602 4.09766C242.602 4.11963 242.602 4.14893 242.602 4.17822L242.514 9.86182C242.5 10.3232 242.25 10.6089 241.796 10.6089ZM241.796 14.1099C241.262 14.1099 240.837 13.6997 240.837 13.165C240.837 12.6304 241.262 12.2202 241.796 12.2202C242.346 12.2202 242.763 12.6304 242.763 13.165C242.763 13.6997 242.346 14.1099 241.796 14.1099Z" fill="#1A645A"/>
<path d="M49.2596 31.1406C47.1385 31.1406 45.8377 29.8516 45.8377 28.0293V23.1309C45.8377 22.709 46.0838 22.4512 46.494 22.4512C46.8983 22.4512 47.1502 22.709 47.1502 23.1309V27.918C47.1502 29.125 47.912 29.9746 49.2596 29.9746C50.6073 29.9746 51.3748 29.125 51.3748 27.918V23.1309C51.3748 22.709 51.6209 22.4512 52.0311 22.4512C52.4354 22.4512 52.6815 22.709 52.6815 23.1309V28.0293C52.6815 29.8516 51.3807 31.1406 49.2596 31.1406ZM54.8405 33.1855C54.4655 33.1855 54.2077 32.9277 54.2077 32.5117V25.375C54.2077 24.9707 54.4597 24.7246 54.8171 24.7246C55.1745 24.7246 55.4323 24.9707 55.4323 25.375V25.8965H55.4558C55.8191 25.1875 56.528 24.7363 57.4187 24.7363C58.9831 24.7363 60.0144 25.9668 60.0144 27.918C60.0144 29.8691 58.989 31.1055 57.4421 31.1055C56.5573 31.1055 55.8542 30.6719 55.5027 29.9863H55.4734V32.5117C55.4734 32.9277 55.2097 33.1855 54.8405 33.1855ZM57.0847 30.0332C58.0866 30.0332 58.7136 29.2129 58.7136 27.918C58.7136 26.6289 58.0866 25.8027 57.0847 25.8027C56.1179 25.8027 55.4675 26.6465 55.4675 27.918C55.4675 29.2012 56.112 30.0332 57.0847 30.0332ZM64.0395 29.5234V25.8379H63.5942C63.2661 25.8379 63.0669 25.6504 63.0669 25.3398C63.0669 25.0234 63.2661 24.8359 63.5942 24.8359H64.0395V23.9219C64.0395 23.5176 64.2915 23.248 64.6782 23.248C65.0591 23.248 65.311 23.5176 65.311 23.9219V24.8359H66.0317C66.3598 24.8359 66.5591 25.0293 66.5591 25.3398C66.5591 25.6504 66.3598 25.8379 66.0317 25.8379H65.311V29.2422C65.311 29.7344 65.4809 29.957 65.938 29.9922L66.0376 29.998C66.4009 30.0332 66.5825 30.1797 66.5825 30.4785C66.5825 30.8594 66.2895 31.0527 65.6684 31.0527H65.604C64.5669 31.0527 64.0395 30.543 64.0395 29.5234ZM70.142 31.1172C68.3783 31.1172 67.2181 29.9043 67.2181 27.918C67.2181 25.9375 68.3841 24.7246 70.142 24.7246C71.8998 24.7246 73.0658 25.9375 73.0658 27.918C73.0658 29.9043 71.9056 31.1172 70.142 31.1172ZM70.142 30.0742C71.138 30.0742 71.7767 29.2891 71.7767 27.918C71.7767 26.5527 71.1322 25.7676 70.142 25.7676C69.1517 25.7676 68.5072 26.5527 68.5072 27.918C68.5072 29.2891 69.1517 30.0742 70.142 30.0742ZM79.9327 31.1641C78.6378 31.1641 77.6124 30.4961 77.0558 29.2715C76.757 28.6152 76.6105 27.8301 76.6105 26.8867C76.6105 24.0566 77.8644 22.3809 79.9796 22.3809C81.1808 22.3809 82.1417 22.9199 82.5929 23.7344C82.6866 23.9043 82.7335 24.0566 82.7335 24.2207C82.7335 24.5312 82.505 24.7598 82.1593 24.7598C81.8956 24.7598 81.7257 24.6367 81.5148 24.3379C81.1163 23.752 80.6359 23.4824 79.9679 23.4824C78.6437 23.4824 77.9054 24.6777 77.8702 26.7402V26.8164H77.8937C78.2335 26.0488 79.089 25.4512 80.2374 25.4512C81.8546 25.4512 83.0206 26.6348 83.0206 28.2344C83.0206 29.9336 81.7198 31.1641 79.9327 31.1641ZM79.9152 30.0566C80.923 30.0566 81.714 29.2715 81.714 28.2812C81.714 27.2559 80.9698 26.5176 79.9327 26.5176C78.8956 26.5176 78.128 27.25 78.128 28.252C78.128 29.2598 78.9132 30.0566 79.9152 30.0566ZM87.4149 31.1113C87.0341 31.1113 86.7821 30.8477 86.7821 30.4434V25.3691C86.7821 24.9707 87.0282 24.7246 87.3856 24.7246C87.7372 24.7246 87.9891 24.9648 87.9891 25.3691V25.873H88.0184C88.2938 25.1875 88.9384 24.7305 89.7704 24.7305C90.6259 24.7305 91.247 25.1699 91.493 25.9375H91.5223C91.8387 25.1875 92.5653 24.7305 93.4442 24.7305C94.663 24.7305 95.4598 25.5391 95.4598 26.7637V30.4434C95.4598 30.8477 95.202 31.1113 94.8212 31.1113C94.4403 31.1113 94.1884 30.8477 94.1884 30.4434V27.0684C94.1884 26.2715 93.7606 25.8145 93.0106 25.8145C92.2606 25.8145 91.7391 26.3711 91.7391 27.1504V30.4434C91.7391 30.8477 91.4989 31.1113 91.118 31.1113C90.7372 31.1113 90.497 30.8477 90.497 30.4434V26.9746C90.497 26.2656 90.0458 25.8145 89.3309 25.8145C88.5809 25.8145 88.0477 26.4004 88.0477 27.1914V30.4434C88.0477 30.8477 87.7958 31.1113 87.4149 31.1113ZM99.4763 31.1172C97.6189 31.1172 96.5291 29.9395 96.5291 27.9473C96.5291 25.9902 97.6423 24.7246 99.3884 24.7246C101.029 24.7246 102.16 25.9082 102.16 27.5898C102.16 28 101.926 28.2344 101.533 28.2344H97.8064V28.2637C97.8064 29.3887 98.4392 30.0918 99.447 30.0918C100.138 30.0918 100.572 29.8516 101.041 29.2129C101.176 29.0547 101.304 28.9902 101.486 28.9902C101.791 28.9902 102.013 29.1895 102.013 29.5059C102.013 29.6055 101.978 29.7227 101.926 29.8457C101.521 30.6543 100.625 31.1172 99.4763 31.1172ZM97.8123 27.3496H100.894C100.865 26.3828 100.261 25.7441 99.3826 25.7441C98.5095 25.7441 97.8767 26.3887 97.8123 27.3496ZM103.897 31.1113C103.516 31.1113 103.264 30.8477 103.264 30.4434V25.3691C103.264 24.9707 103.51 24.7246 103.868 24.7246C104.219 24.7246 104.471 24.9648 104.471 25.3691V25.873H104.501C104.776 25.1875 105.421 24.7305 106.253 24.7305C107.108 24.7305 107.729 25.1699 107.975 25.9375H108.005C108.321 25.1875 109.048 24.7305 109.926 24.7305C111.145 24.7305 111.942 25.5391 111.942 26.7637V30.4434C111.942 30.8477 111.684 31.1113 111.303 31.1113C110.923 31.1113 110.671 30.8477 110.671 30.4434V27.0684C110.671 26.2715 110.243 25.8145 109.493 25.8145C108.743 25.8145 108.221 26.3711 108.221 27.1504V30.4434C108.221 30.8477 107.981 31.1113 107.6 31.1113C107.219 31.1113 106.979 30.8477 106.979 30.4434V26.9746C106.979 26.2656 106.528 25.8145 105.813 25.8145C105.063 25.8145 104.53 26.4004 104.53 27.1914V30.4434C104.53 30.8477 104.278 31.1113 103.897 31.1113ZM113.937 31.1113C113.574 31.1113 113.334 30.877 113.334 30.4785V23.1016C113.334 22.6855 113.597 22.4336 113.966 22.4336C114.335 22.4336 114.599 22.6855 114.599 23.1016V25.8848H114.628C114.998 25.1699 115.707 24.7363 116.58 24.7363C118.132 24.7363 119.146 25.9668 119.146 27.918C119.146 29.875 118.138 31.1055 116.568 31.1055C115.671 31.1055 114.968 30.666 114.587 29.9512H114.564V30.4785C114.564 30.877 114.306 31.1113 113.937 31.1113ZM116.228 30.0332C117.23 30.0332 117.845 29.2246 117.845 27.918C117.845 26.623 117.224 25.8027 116.228 25.8027C115.273 25.8027 114.593 26.6465 114.593 27.918C114.593 29.2012 115.273 30.0332 116.228 30.0332ZM122.922 31.1172C121.065 31.1172 119.975 29.9395 119.975 27.9473C119.975 25.9902 121.088 24.7246 122.834 24.7246C124.475 24.7246 125.606 25.9082 125.606 27.5898C125.606 28 125.371 28.2344 124.979 28.2344H121.252V28.2637C121.252 29.3887 121.885 30.0918 122.893 30.0918C123.584 30.0918 124.018 29.8516 124.487 29.2129C124.621 29.0547 124.75 28.9902 124.932 28.9902C125.237 28.9902 125.459 29.1895 125.459 29.5059C125.459 29.6055 125.424 29.7227 125.371 29.8457C124.967 30.6543 124.071 31.1172 122.922 31.1172ZM121.258 27.3496H124.34C124.311 26.3828 123.707 25.7441 122.829 25.7441C121.955 25.7441 121.323 26.3887 121.258 27.3496ZM127.343 31.1113C126.962 31.1113 126.71 30.8535 126.71 30.4434V25.3633C126.71 24.9766 126.956 24.7246 127.314 24.7246C127.665 24.7246 127.911 24.9766 127.911 25.3633V25.8906H127.941C128.111 25.1992 128.679 24.7363 129.294 24.7363C129.517 24.7363 129.687 24.7891 129.792 24.8887C129.909 24.9824 129.962 25.1348 129.962 25.334C129.962 25.5332 129.898 25.6797 129.775 25.7793C129.646 25.8906 129.458 25.9434 129.195 25.9434C128.327 25.9492 127.976 26.5293 127.976 27.2969V30.4434C127.976 30.8535 127.718 31.1113 127.343 31.1113ZM133.041 31.1172C131.828 31.1172 130.938 30.6191 130.645 29.8633C130.604 29.7695 130.592 29.6816 130.592 29.5996C130.592 29.2832 130.82 29.0957 131.137 29.0957C131.348 29.0957 131.529 29.1953 131.688 29.4297C132.004 29.9277 132.373 30.1504 133.106 30.1504C133.826 30.1504 134.313 29.8398 134.313 29.3301C134.313 28.9258 134.072 28.709 133.41 28.5508L132.438 28.3223C131.242 28.041 130.656 27.4551 130.656 26.5762C130.656 25.4629 131.623 24.7246 133.088 24.7246C134.201 24.7246 135.115 25.293 135.291 26.0195C135.303 26.0898 135.315 26.1484 135.315 26.207C135.315 26.4883 135.139 26.6758 134.822 26.6758C134.617 26.6758 134.436 26.6055 134.313 26.4062C134.037 25.9375 133.662 25.6914 133.041 25.6914C132.361 25.6914 131.893 26.0254 131.893 26.5059C131.893 26.8926 132.192 27.1621 132.842 27.3145L133.797 27.5371C135.092 27.8359 135.59 28.2988 135.59 29.2129C135.59 30.3555 134.565 31.1172 133.041 31.1172Z" fill="#617774"/>
<defs>
<clipPath id="clip0_622_45290">
<rect width="33" height="18" fill="white" transform="translate(0 8)"/>
</clipPath>
</defs>
</svg>
