<svg width="40" height="40" viewBox="0 0 40 40" fill="none" xmlns="http://www.w3.org/2000/svg">
<path d="M19.5 31.3408C20.9824 31.3408 22.4219 31.04 23.7432 30.4814C23.2383 29.9336 22.8516 29.2891 22.5723 28.6016C21.6162 28.9561 20.585 29.1602 19.5 29.1602C14.5586 29.1602 10.5947 25.1855 10.5947 20.2441C10.5947 15.3027 14.5479 11.3389 19.4893 11.3389C23.958 11.3389 27.6426 14.6045 28.2871 18.8906C28.9531 18.7832 29.834 18.8154 30.5107 18.9873C29.877 13.4873 25.1396 9.14746 19.4893 9.14746C13.4092 9.14746 8.40332 14.1748 8.40332 20.2441C8.40332 26.3242 13.4199 31.3408 19.5 31.3408ZM14.0645 21.5762H19.4893C19.9727 21.5762 20.3379 21.2002 20.3379 20.7275V13.6807C20.3379 13.208 19.9727 12.832 19.4893 12.832C19.0166 12.832 18.6406 13.208 18.6406 13.6807V19.8789H14.0645C13.5811 19.8789 13.2158 20.2441 13.2158 20.7275C13.2158 21.2002 13.5811 21.5762 14.0645 21.5762ZM29.0283 31.3945C32.0361 31.3945 34.5605 28.8809 34.5605 25.8623C34.5605 22.833 32.0576 20.3408 29.0283 20.3408C25.999 20.3408 23.4961 22.833 23.4961 25.8623C23.4961 28.9023 25.999 31.3945 29.0283 31.3945ZM28.4053 28.8594C28.2012 28.8594 27.9541 28.7842 27.793 28.6123L25.9883 26.6465C25.8486 26.4854 25.7734 26.2812 25.7734 26.0986C25.7734 25.6367 26.1279 25.3252 26.5469 25.3252C26.7939 25.3252 26.9873 25.4326 27.1162 25.5723L28.3623 26.9365L30.8975 23.4238C31.0371 23.2197 31.2627 23.0908 31.542 23.0908C31.9502 23.0908 32.3047 23.4238 32.3047 23.8535C32.3047 23.9824 32.251 24.1543 32.1436 24.2939L29.0391 28.5801C28.9102 28.752 28.6631 28.8594 28.4053 28.8594Z" fill="black"/>
</svg>
