<svg width="15" height="12" viewBox="0 0 15 12" fill="none" xmlns="http://www.w3.org/2000/svg">
<path d="M14.5859 5.40234C14.7526 5.5638 14.8359 5.77213 14.8359 6.02734C14.8359 6.28255 14.7526 6.49088 14.5859 6.65234C14.4245 6.8138 14.2135 6.89453 13.9531 6.89453L4.42969 6.89453L2.625 6.81641L3.99219 7.96484L5.97656 9.90234C6.14844 10.0742 6.23437 10.2773 6.23437 10.5117C6.23437 10.7565 6.15625 10.9596 6 11.1211C5.83854 11.2773 5.63021 11.3555 5.375 11.3555C5.14062 11.3555 4.93229 11.2643 4.75 11.082L0.273437 6.67578C0.0911456 6.50391 -2.21517e-07 6.28776 -2.329e-07 6.02734C-2.43828e-07 5.77734 0.0911456 5.5612 0.273437 5.37891L4.75 0.972656C4.93229 0.790364 5.14062 0.699219 5.375 0.699219C5.63021 0.699219 5.83854 0.779948 6 0.941406C6.15625 1.09766 6.23437 1.29818 6.23437 1.54297C6.23437 1.77734 6.14844 1.98047 5.97656 2.15234L3.99219 4.08984L2.625 5.23828L4.42969 5.16016L13.9531 5.16016C14.2135 5.16016 14.4245 5.24088 14.5859 5.40234Z" fill="#617774"/>
</svg>
