<svg width="20" height="11" viewBox="0 0 20 11" fill="none" xmlns="http://www.w3.org/2000/svg">
<path d="M0.864149 8.82583L9.01466 0.452054C9.30026 0.150684 9.62871 -4.31488e-07 10 -4.15258e-07C10.3927 0.0143505 10.7247 0.165035 10.9961 0.452054L19.1359 8.82583C19.3786 9.0698 19.5 9.36758 19.5 9.71918C19.5 10.078 19.375 10.3793 19.1251 10.6233C18.8824 10.8744 18.5861 11 18.2362 11C17.8863 11 17.5793 10.8673 17.3151 10.6018L10.0107 3.06751L2.68489 10.6018C2.42071 10.8673 2.11368 11 1.76381 11C1.41394 11 1.11763 10.8744 0.874858 10.6233C0.624954 10.3793 0.5 10.078 0.5 9.71918C0.5 9.36758 0.621383 9.0698 0.864149 8.82583Z" fill="#58B368"/>
</svg>
